<?xml version="1.0" encoding="UTF-8" standalone="no"?>
<svg
   xmlns:dc="http://purl.org/dc/elements/1.1/"
   xmlns:cc="http://creativecommons.org/ns#"
   xmlns:rdf="http://www.w3.org/1999/02/22-rdf-syntax-ns#"
   xmlns:svg="http://www.w3.org/2000/svg"
   xmlns="http://www.w3.org/2000/svg"
   version="1.1"
   id="svg4165"
   viewBox="0 0 14.999994 2.1967275"
   width="45">
  <defs
     id="defs4167" />
  <metadata
     id="metadata4170">
    <rdf:RDF>
      <cc:Work
         rdf:about="">
        <dc:format>image/svg+xml</dc:format>
        <dc:type
           rdf:resource="http://purl.org/dc/dcmitype/StillImage" />
        <dc:title></dc:title>
      </cc:Work>
    </rdf:RDF>
  </metadata>
  <g
     transform="translate(748.74999,-658.37976)"
     id="layer1">
    <g
       transform="matrix(0.00641375,0,0,0.00641375,-741.74869,656.57794)"
       id="g4184">
      <path
         id="path4192"
         d="m 647.673,608.52981 c 0.0838,-13.21967 -0.19825,-15.29689 -2.49887,-18.38232 -1.4265,-1.91317 -4.239,-3.85572 -6.25,-4.3168 -8.80213,-2.01813 -51.52963,-3.63555 -102.40625,-3.87653 l -55,-0.26048 -21.875,8.44613 c -12.03125,4.64538 -29.46875,11.08375 -38.75,14.30749 l -16.875,5.86134 -29.375,-0.16159 c -34.32513,-0.18882 -109.99025,-2.81116 -230.625,-7.99277 -167.89774,-7.2117 -300.63798,-12.40448 -351.24998,-13.74083 -74.0517,-1.95526 -150.3203,-5.6281 -196.25,-9.45072 l -40,-3.32912 -35,12.83748 c -19.25,7.06061 -37.25,13.07695 -40,13.36964 -2.75,0.29269 -21.4622,-1.76041 -41.5826,-4.56247 -20.1204,-2.80203 -37.4173,-5.09462 -38.4375,-5.09462 -2.7175,0 -2.3456,-1.70601 2.6814,-12.29931 2.4949,-5.25763 4.6043,-11.25008 4.6875,-13.31655 l 0.1512,-3.75723 -81.25,-8.2773 c -80.131,-8.1633 -81.2931,-8.24492 -84.375,-5.92736 -5.8609,4.40726 -8.2964,4.76041 -26.5298,3.84685 l -17.8452,-0.8941 0.3688,-4.70512 c 0.2356,-3.00554 -0.216,-4.91014 -1.25,-5.27268 -0.8904,-0.31215 -15.4001,-2.01393 -32.2438,-3.78172 -43.0922,-4.52267 -135.4716,-15.22486 -151.875,-17.5948 -8.4501,-1.22087 -15.2846,-2.92857 -17.7314,-4.43047 -9.156,-5.62015 -33.0967,-34.10516 -59.2235,-70.46521 -6.4221,-8.9375 -15.5001,-20.92803 -20.1734,-26.6456 -4.6732,-5.71757 -8.4967,-11.24122 -8.4967,-12.27478 0,-2.67133 6.9835,-12.48163 9.644,-13.54787 1.2271,-0.49173 8.6997,-3.1314 16.606,-5.86595 15.2705,-5.28166 22.8477,-9.0907 26.8239,-13.48441 2.8567,-3.15657 3.5592,-1.90994 -10.3519,-18.37127 -19.3075,-22.84691 -35.0965,-48.78718 -39.1404,-64.30487 -2.6909,-10.3261 -4.1564,-9.88025 32.4761,-9.88025 24.4155,0 32.6908,0.38455 33.6238,1.5625 0.6807,0.85937 2.1718,4.375 3.3135,7.8125 1.1417,3.4375 3.888,9.625 6.1029,13.75 3.7325,6.95145 4.3763,7.52875 8.8018,7.89316 2.6261,0.21623 5.4878,-0.1986 6.3592,-0.92186 1.0671,-0.88556 36.0258,-1.52675 107.0455,-1.96335 68.3122,-0.41996 105.9047,-1.09209 106.7207,-1.9081 0.8464,-0.84635 0.7974,-2.48466 -0.1491,-4.99231 l -1.4089,-3.73254 20.967,0 c 27.0789,0 31.43,0.628 36.5872,5.28074 l 4.1037,3.70221 20,-0.77204 c 11,-0.42462 59.375,-1.88429 107.5,-3.2437 48.125,-1.35941 88.7656,-2.76262 90.3125,-3.11825 1.5469,-0.35562 2.8125,-1.41075 2.8125,-2.34472 0,-4.01008 2.9856,-4.23787 31.25,-2.38422 26.873,1.76242 31.2411,1.70158 98.125,-1.36647 115.7596,-5.31004 140.3097,-5.96681 223.75,-5.98579 108.8451,-0.0247 237.83062,4.37376 300.62498,10.25159 17.95962,1.6811 31.65975,1.57095 33.5,-0.26935 0.825,-0.825 1.5,-4.48125 1.5,-8.125 l 0,-6.625 4.97463,0 c 4.55324,0 5.19274,0.42762 7.55037,5.04904 4.44812,8.71898 7.91513,9.9409 28.2215,9.94628 36.79675,0.01 100.1835,-4.21736 159.2535,-10.62025 60.71312,-6.581 73.23112,-7.32488 108.75,-6.4625 38.62025,0.93768 57.39962,2.46202 81.25,6.59513 61.909,10.72842 232.90022,58.40716 304.98512,85.0412 12.0394,4.44836 30.8899,12.53754 41.8899,17.97594 l 20,9.88802 42.4962,6.94669 c 37.5233,6.13377 42.659,6.72399 43.8878,5.04357 1.9042,-2.60423 3.6146,-2.38728 5.6779,0.72023 1.517,2.28459 7.7108,3.72029 47.965,11.11795 39.0247,7.17172 130.5218,25.44847 150.9837,30.15932 7.0911,1.63258 13.3749,6.47204 13.3386,10.27299 -0.014,1.48576 -2.6956,7.47018 -5.959,13.29869 -4.4681,7.98032 -7.0993,11.2514 -10.6552,13.24601 -5.067,2.84224 -25.86,29.82609 -25.86,33.55943 0,1.11942 3.375,5.6632 7.5,10.09726 4.125,4.43406 7.5,8.62725 7.5,9.31817 0,4.03122 -4.5231,11.1893 -9.3938,14.86599 -5.0601,3.81971 -6.0627,4.11314 -11.512,3.36884 -7.3321,-1.00149 -37.3911,1.74391 -82.8442,7.56647 -40.7418,5.21903 -39.4639,4.95699 -63.8948,13.10253 l -19.2302,6.41162 -25,-1.3675 c -40.0214,-2.18915 -62.2893,-2.67578 -179.6103,-3.92515 -70.48522,-0.75061 -113.15634,-0.74511 -117.16484,0.0151 -9.32,1.76751 -22.4225,7.61067 -26.844,11.97139 -2.20538,2.17497 -5.95901,8.786 -8.69425,15.3125 l -4.8135,11.48505 -11.5315,0 -11.53151,0 0.095,-14.90383 z"
         style="fill:#000000;fill-opacity:1" />
    </g>
  </g>
</svg>
