<?xml version="1.0" encoding="UTF-8" standalone="no"?>
<!-- Created with Inkscape (http://www.inkscape.org/) -->

<svg
   xmlns:dc="http://purl.org/dc/elements/1.1/"
   xmlns:cc="http://creativecommons.org/ns#"
   xmlns:rdf="http://www.w3.org/1999/02/22-rdf-syntax-ns#"
   xmlns:svg="http://www.w3.org/2000/svg"
   xmlns="http://www.w3.org/2000/svg"
   xmlns:sodipodi="http://sodipodi.sourceforge.net/DTD/sodipodi-0.dtd"
   xmlns:inkscape="http://www.inkscape.org/namespaces/inkscape"
   width="58.420002mm"
   height="10.39421mm"
   viewBox="0 0 207.00001 36.829877"
   id="svg2"
   version="1.1"
   inkscape:version="0.91 r13725"
   sodipodi:docname="600i.svg">
  <defs
     id="defs4" />
  <sodipodi:namedview
     id="base"
     pagecolor="#ffffff"
     bordercolor="#666666"
     borderopacity="1.0"
     inkscape:pageopacity="0.0"
     inkscape:pageshadow="2"
     inkscape:zoom="5.6"
     inkscape:cx="102.2648"
     inkscape:cy="10.628988"
     inkscape:document-units="px"
     inkscape:current-layer="layer1"
     showgrid="false"
     fit-margin-top="0"
     fit-margin-left="0"
     fit-margin-right="0"
     fit-margin-bottom="0"
     inkscape:window-width="1920"
     inkscape:window-height="1017"
     inkscape:window-x="-8"
     inkscape:window-y="-8"
     inkscape:window-maximized="1" />
  <metadata
     id="metadata7">
    <rdf:RDF>
      <cc:Work
         rdf:about="">
        <dc:format>image/svg+xml</dc:format>
        <dc:type
           rdf:resource="http://purl.org/dc/dcmitype/StillImage" />
        <dc:title></dc:title>
      </cc:Work>
    </rdf:RDF>
  </metadata>
  <g
     inkscape:label="Layer 1"
     inkscape:groupmode="layer"
     id="layer1"
     transform="translate(-287.02449,-548.96646)">
    <g
       id="g4147"
       transform="matrix(0.08849568,0,0,0.08849568,357.24406,428.44285)">
      <path
         style="fill:#000000;fill-opacity:1"
         d="m 343.26743,1777.1323 c -36.73696,-1.3114 -107.41699,-4.3373 -173.75,-7.4386 -105.048801,-4.9114 -522.43364,-34.0624 -570.625,-39.8537 -36.24621,-4.3558 -291.0044,-39.607 -294.0625,-40.6898 -0.85938,-0.3043 -1.5625,-1.9665 -1.5625,-3.6937 0,-2.248 -0.79926,-3.3087 -2.8125,-3.7325 -7.253,-1.5268 -64.80105,-4.5723 -72.25453,-3.8238 -5.19848,0.5221 -8.69151,0.3657 -9.17124,-0.4105 -0.42616,-0.6895 -3.16251,-1.6528 -6.08078,-2.1405 -6.18455,-1.0337 -6.92837,-1.8516 -6.19968,-6.8165 1.04651,-7.1302 17.36926,-14.1332 56.51873,-24.2484 23.16442,-5.985 35.40918,-7.311 91.25,-9.8819 l 5.625,-0.2589 0.33266,-33.3012 c 0.27598,-27.6267 0.64872,-33.5635 2.1875,-34.8406 1.02016,-0.8466 1.85484,-2.5955 1.85484,-3.8863 0,-2.1842 1.21375,-2.3469 17.5,-2.3469 9.625,0 17.5,-0.45 17.5,-1 0,-2.1514 -3.18239,-4 -6.88609,-4 -2.13735,0 -4.88827,-0.7328 -6.11317,-1.6285 -2.13489,-1.5611 -6.96939,-18.2657 -6.99099,-24.156 -0.0181,-4.9417 -2.47541,-5.5747 -13.86199,-3.5708 -5.78752,1.0185 -10.66339,1.8526 -10.83526,1.8536 -0.17188,9e-4 -0.3125,-3.391 -0.3125,-7.5376 0,-9.0097 -0.5828,-9.3951 -11.27574,-7.4561 -4.32351,0.784 -8.2813,0.9383 -8.87366,0.346 -1.41994,-1.42 0.91002,-15.275 4.2056,-25.0084 2.58494,-7.6345 2.5902,-7.8324 0.27666,-10.3888 -2.01637,-2.2281 -2.09371,-2.7735 -0.53316,-3.7606 1.00391,-0.635 13.41849,-1.1632 27.58794,-1.1737 25.81585,-0.019 87.96203,-5.2371 171.73736,-14.4193 15.8125,-1.7331 36.34375,-3.9765 45.625,-4.9852 9.28125,-1.0087 24.46875,-2.388 33.75,-3.0651 16.82345,-1.2274 16.88534,-1.2433 20.26067,-5.2185 1.86213,-2.1931 3.09457,-4.4585 2.73874,-5.0342 -0.35582,-0.5758 -4.81294,-1.0468 -9.90469,-1.0468 -8.51052,0 -9.60356,-0.3037 -13.54251,-3.7621 -2.35662,-2.0692 -5.04807,-3.4817 -5.98098,-3.1389 -2.47298,0.9085 -45.8722,-1.2333 -46.95625,-2.3174 -1.95595,-1.9559 3.20372,-3.2479 13.38502,-3.3514 12.62932,-0.1285 25.68745,-1.5236 39.375,-4.2068 14.0082,-2.7461 39.47438,-3.9733 45.33746,-2.1849 2.56439,0.7823 7.03608,2.0107 9.93708,2.7298 4.72935,1.1724 5.41436,1.8268 6.62723,6.3311 1.98843,7.3844 0.79435,9.8343 -4.78768,9.8229 -2.53775,-0.01 -9.25472,0.351 -14.92659,0.7915 -9.74381,0.7567 -10.3125,0.9618 -10.3125,3.7198 0,1.6053 0.57809,3.2761 1.28465,3.7128 0.70655,0.4367 8.72217,0.1628 17.8125,-0.6086 21.64357,-1.8367 99.33949,-9.9079 103.56447,-10.7585 4.55463,-0.917 104.18719,-37.9808 120.44632,-44.8067 14.812296,-6.2185 13.822934,-15.2179 -1.82903,-16.6372 -6.89366,-0.6251 -7.61836,-0.9563 -7.27985,-3.3273 0.24583,-1.7218 2.4626,-3.6677 6.40481,-5.6223 l 6.02887,-2.9891 54.849746,0.1065 c 30.167363,0.059 68.516863,0.7092 85.221126,1.4459 44.612747,1.9677 159.130258,2.1361 204.121388,0.3002 41.83669,-1.7071 85.1054,-1.8336 88.125,-0.2575 1.03125,0.5382 26.625,1.3862 56.875,1.8845 30.25,0.4982 60.34375,1.4363 66.875,2.0848 6.53125,0.6484 14.125,1.128 16.875,1.0658 15.606,-0.3533 37.08337,0.4483 100.625,3.7555 74.73,3.8895 171.39262,8.4409 191.25,9.0052 l 11.875,0.3374 1.875,-4.0457 c 2.33775,-5.044 3.666,-5.4523 13.7205,-4.2164 6.72787,0.8269 9.89363,0.5002 18.74112,-1.934 5.85525,-1.6109 13.04038,-2.9289 15.96713,-2.9289 3.715,0 5.32125,-0.5256 5.32125,-1.7413 0,-0.9577 0.73762,-2.0243 1.63913,-2.3702 3.23787,-1.2425 59.657,5.3211 63.697,7.4103 3.06937,1.5872 8.61037,2.0964 25.84787,2.3752 12.0675,0.1951 35.25775,1.7614 51.53388,3.4806 l 29.59272,3.1257 7.28227,5.0532 7.2821,5.0531 52.5,8.1691 c 83.4446,12.9842 190.5645,31.3523 230.625,39.5458 20.2813,4.1481 40.25,8.1209 44.375,8.8285 4.125,0.7075 13.4063,2.8933 20.625,4.8572 7.2188,1.9639 18.75,5.0348 25.625,6.8241 6.875,1.7893 15.0313,4.0672 18.125,5.0621 3.0938,0.9948 15.1569,4.6658 26.8071,8.1576 44.45,13.3228 99.4279,34.7213 106.7343,41.5432 14.0601,13.1278 6.5396,26.7284 -42.2221,76.3576 -14.7995,15.0627 -22.5722,23.8282 -21.4755,24.2187 2.9817,1.0617 6.4062,5.2036 6.4062,7.7485 0,1.347 -1.9686,7.9563 -4.3746,14.6875 -2.406,6.7312 -4.3748,14.0387 -4.375,16.2389 -3e-4,2.2002 -0.771,4.4502 -1.7128,5 -0.9417,0.5498 -2.9426,3.4307 -4.4462,6.402 -1.7708,3.4991 -3.9737,5.8345 -6.2528,6.629 -2.263,0.7889 -4.2785,2.9111 -5.6468,5.9457 -1.1704,2.5954 -3.633,5.591 -5.4724,6.657 -4.4471,2.5771 -41.1668,11.0565 -71.5773,16.5287 -22.189,3.9928 -115.7702,17.7651 -153.0171,22.5194 -48.0972,6.1393 -123.5386,12.3188 -206.875,16.9453 -13.4062,0.7443 -35.90617,2.1409 -49.99997,3.1035 -14.09375,0.9627 -57.40625,3.4889 -96.25,5.6139 -38.84375,2.1249 -73.61787,4.1714 -77.27575,4.5478 l -6.65087,0.6842 0.2095,4.5866 c 0.115,2.5226 0.15487,5.2491 0.0888,6.059 -0.17888,2.1748 -7.11013,2.6672 -75.74613,5.3808 -34.375,1.3591 -69.53125,2.7851 -78.125,3.1689 -104.38425,4.662 -228.45114,6.4582 -291.25,4.2166 z"
         id="path4155"
         inkscape:connector-curvature="0" />
    </g>
  </g>
</svg>
