<?xml version="1.0" encoding="UTF-8" standalone="no"?>
<!-- Created with Inkscape (http://www.inkscape.org/) -->

<svg
   xmlns:dc="http://purl.org/dc/elements/1.1/"
   xmlns:cc="http://creativecommons.org/ns#"
   xmlns:rdf="http://www.w3.org/1999/02/22-rdf-syntax-ns#"
   xmlns:svg="http://www.w3.org/2000/svg"
   xmlns="http://www.w3.org/2000/svg"
   xmlns:sodipodi="http://sodipodi.sourceforge.net/DTD/sodipodi-0.dtd"
   xmlns:inkscape="http://www.inkscape.org/namespaces/inkscape"
   width="43.00029"
   height="6.6982946"
   id="svg2"
   version="1.1"
   inkscape:version="0.91 r13725"
   sodipodi:docname="85X.svg">
  <defs
     id="defs4" />
  <sodipodi:namedview
     id="base"
     pagecolor="#ffffff"
     bordercolor="#666666"
     borderopacity="1.0"
     inkscape:pageopacity="0.0"
     inkscape:pageshadow="2"
     inkscape:zoom="32"
     inkscape:cx="20.301421"
     inkscape:cy="4.6477734"
     inkscape:document-units="px"
     inkscape:current-layer="g2996"
     showgrid="false"
     fit-margin-top="0"
     fit-margin-left="0"
     fit-margin-right="0"
     fit-margin-bottom="0"
     inkscape:window-width="1920"
     inkscape:window-height="1017"
     inkscape:window-x="-8"
     inkscape:window-y="-8"
     inkscape:window-maximized="1" />
  <metadata
     id="metadata7">
    <rdf:RDF>
      <cc:Work
         rdf:about="">
        <dc:format>image/svg+xml</dc:format>
        <dc:type
           rdf:resource="http://purl.org/dc/dcmitype/StillImage" />
        <dc:title></dc:title>
      </cc:Work>
    </rdf:RDF>
  </metadata>
  <g
     inkscape:label="Layer 1"
     inkscape:groupmode="layer"
     id="layer1"
     transform="translate(525.70622,-638.41786)">
    <g
       id="g2996"
       transform="translate(-1402.8571,565.71429)">
      <path
         style="fill:#000000"
         d="m 916.44774,79.380197 c -0.38669,-0.0097 -1.14912,-0.02891 -1.69431,-0.04263 -2.23308,-0.05616 -2.68011,-0.07338 -3.11966,-0.120157 -0.2451,-0.02608 -0.47851,-0.04218 -0.51867,-0.03575 -0.0402,0.0065 -0.11968,-0.0034 -0.17674,-0.02206 -0.057,-0.01856 -1.16183,-0.151941 -2.45504,-0.296395 L 906.13204,78.600559 905.0947,78.575 c -0.57053,-0.01404 -1.98256,-0.0493 -3.13783,-0.07833 l -2.10051,-0.05279 -0.0802,-0.06108 c -0.10062,-0.07673 -0.17372,-0.07918 -0.20125,-0.0067 -0.0148,0.03893 -0.0458,0.05882 -0.10893,0.07024 -0.0486,0.0087 -0.49283,0.02522 -0.98729,0.03655 -0.49448,0.01133 -1.90005,0.06785 -3.12353,0.125575 -1.22348,0.05772 -2.36005,0.105007 -2.52572,0.105064 -0.16567,0 -1.05778,-0.04685 -1.98246,-0.104261 -0.92469,-0.05741 -1.91983,-0.114238 -2.21144,-0.126306 -0.2916,-0.01204 -0.76359,-0.03191 -1.04887,-0.04409 -0.28526,-0.01219 -0.84024,-0.02883 -1.23328,-0.03698 l -0.7146,-0.01484 -0.57009,0.418287 -0.5701,0.418288 -1.08809,0.02101 c -0.59845,0.01161 -1.11241,0.01492 -1.14209,0.0075 -0.032,-0.008 -0.26131,-0.24472 -0.56327,-0.581438 -0.28012,-0.31234 -0.53936,-0.596418 -0.57609,-0.631283 l -0.0668,-0.0634 -0.38576,-0.0024 c -0.21216,-0.0014 -0.47911,-0.0092 -0.59322,-0.01729 l -0.20745,-0.01485 0,-0.09877 c 0,-0.06269 -0.0129,-0.10677 -0.0346,-0.120673 -0.0191,-0.01204 -0.24204,-0.0223 -0.49561,-0.02281 -0.25357,-5.07e-4 -0.49734,-0.01004 -0.54171,-0.02124 -0.0445,-0.01118 -0.39708,-0.108948 -0.78377,-0.217254 -0.3867,-0.108303 -0.73091,-0.202653 -0.76489,-0.209671 -0.0608,-0.01262 -0.0619,-0.01619 -0.0711,-0.225945 -0.006,-0.117248 -0.0172,-0.235851 -0.0269,-0.263548 -0.0156,-0.04448 -0.007,-0.05334 0.0768,-0.07581 0.052,-0.01404 0.0945,-0.03567 0.0945,-0.04818 0,-0.01247 0.026,-0.03259 0.0576,-0.04465 0.0317,-0.01204 0.0576,-0.03253 0.0576,-0.04554 0,-0.01305 0.0155,-0.02362 0.0344,-0.02362 0.0189,0 0.0473,-0.02074 0.0632,-0.0461 0.0159,-0.02535 0.0467,-0.04611 0.0685,-0.04611 0.0219,0 0.0509,-0.02075 0.0643,-0.04611 0.0129,-0.02535 0.0385,-0.0461 0.0556,-0.0461 0.017,0 0.044,-0.01576 0.06,-0.035 0.0159,-0.01925 0.0648,-0.05196 0.10851,-0.07269 0.0437,-0.02073 0.0882,-0.06054 0.0987,-0.08848 0.0262,-0.06913 0.23844,-0.222547 0.36628,-0.264867 0.078,-0.02583 0.10779,-0.04896 0.11768,-0.09143 0.0114,-0.05126 0.0346,-0.06112 0.22973,-0.100033 l 0.21648,-0.04317 0.0377,0.04995 c 0.0285,0.03777 0.057,0.0481 0.11696,0.0424 l 0.0793,-0.0076 0.017,-0.170116 c 0.0155,-0.154859 0.0291,-0.188975 0.15149,-0.380357 0.074,-0.115628 0.15974,-0.221871 0.19051,-0.236086 0.0308,-0.01419 1.0155,-0.204538 2.18826,-0.422939 1.17276,-0.2184 2.15634,-0.401641 2.18571,-0.407201 0.0882,-0.01668 0.0513,-0.0834 -0.0651,-0.117791 -0.38063,-0.112446 -1.74549,-0.459542 -2.1562,-0.548339 -0.15123,-0.0327 -0.58632,-0.110367 -0.96686,-0.172592 -1.29675,-0.212048 -1.51944,-0.26006 -1.89059,-0.407639 -0.21078,-0.08381 -0.28685,-0.131136 -0.2577,-0.160293 0.009,-0.0089 0.42842,0.02273 0.93224,0.07029 l 0.91605,0.08647 0.84869,0.217456 c 0.4668,0.119598 1.31085,0.342788 1.87568,0.495972 1.08853,0.295213 1.69612,0.435475 1.88728,0.435678 0.18847,2.31e-4 2.3034,-0.175047 3.1914,-0.264449 0.4501,-0.0453 1.79296,-0.181089 2.98414,-0.301723 1.19118,-0.120631 2.20777,-0.219973 2.25908,-0.220749 0.0513,-7.85e-4 0.33045,0.06189 0.6203,0.139249 0.28985,0.07736 0.53104,0.140654 0.53596,0.140654 0.004,0 0.009,0.04217 0.009,0.09373 0,0.148 0.0298,0.182886 0.15641,0.182993 0.0598,0 1.19788,-0.09413 2.52913,-0.209286 l 2.42045,-0.209378 0.85291,0.154961 c 0.46911,0.08523 0.86859,0.168385 0.88773,0.184791 0.023,0.01965 0.12915,0.03265 0.3112,0.03808 0.15201,0.0046 1.96207,0.192069 4.02233,0.416725 l 3.74593,0.408467 1.19869,0.335645 c 3.30542,0.925542 3.90097,1.095088 3.9627,1.128125 0.0368,0.01971 1.2696,0.386973 2.73955,0.81616 1.46995,0.429188 2.68359,0.791293 2.69697,0.804674 0.0348,0.03485 -0.0155,0.103144 -0.28458,0.386512 -0.36986,0.389407 -0.74489,0.734865 -0.86555,0.797309 -0.0615,0.0318 -0.18957,0.07634 -0.28466,0.09896 -0.095,0.02262 -0.18562,0.05114 -0.20117,0.0634 -0.0423,0.03332 -0.39471,0.108418 -0.51344,0.109422 -0.15876,0.0013 -0.33526,0.05726 -0.43837,0.138934 -0.0985,0.07803 -0.29565,0.163522 -0.36292,0.157413 -0.0221,-0.002 -0.35649,-0.01161 -0.74319,-0.02134 z"
         id="path2998"
         inkscape:connector-curvature="0" />
    </g>
  </g>
</svg>
