<?xml version="1.0" encoding="UTF-8" standalone="no"?>
<!-- Created with Inkscape (http://www.inkscape.org/) -->

<svg
   xmlns:dc="http://purl.org/dc/elements/1.1/"
   xmlns:cc="http://creativecommons.org/ns#"
   xmlns:rdf="http://www.w3.org/1999/02/22-rdf-syntax-ns#"
   xmlns:svg="http://www.w3.org/2000/svg"
   xmlns="http://www.w3.org/2000/svg"
   xmlns:sodipodi="http://sodipodi.sourceforge.net/DTD/sodipodi-0.dtd"
   xmlns:inkscape="http://www.inkscape.org/namespaces/inkscape"
   width="49.999931"
   height="7.7886949"
   id="svg2"
   version="1.1"
   inkscape:version="0.48.5 r10040"
   sodipodi:docname="85X.svg">
  <defs
     id="defs4" />
  <sodipodi:namedview
     id="base"
     pagecolor="#ffffff"
     bordercolor="#666666"
     borderopacity="1.0"
     inkscape:pageopacity="0.0"
     inkscape:pageshadow="2"
     inkscape:zoom="32"
     inkscape:cx="25.082663"
     inkscape:cy="4.6477819"
     inkscape:document-units="px"
     inkscape:current-layer="g2996"
     showgrid="false"
     fit-margin-top="0"
     fit-margin-left="0"
     fit-margin-right="0"
     fit-margin-bottom="0"
     inkscape:window-width="1920"
     inkscape:window-height="1017"
     inkscape:window-x="-8"
     inkscape:window-y="-8"
     inkscape:window-maximized="1" />
  <metadata
     id="metadata7">
    <rdf:RDF>
      <cc:Work
         rdf:about="">
        <dc:format>image/svg+xml</dc:format>
        <dc:type
           rdf:resource="http://purl.org/dc/dcmitype/StillImage" />
        <dc:title />
      </cc:Work>
    </rdf:RDF>
  </metadata>
  <g
     inkscape:label="Layer 1"
     inkscape:groupmode="layer"
     id="layer1"
     transform="translate(525.70621,-637.32747)">
    <g
       id="g2996"
       transform="translate(-1402.8571,565.71429)">
      <path
         style="fill:#000000"
         d="m 922.84484,79.376669 c -0.44964,-0.01133 -1.33619,-0.03362 -1.97013,-0.04957 -2.5966,-0.0653 -3.1164,-0.08532 -3.6275,-0.139718 -0.285,-0.03033 -0.55641,-0.04905 -0.60311,-0.04157 -0.0467,0.0075 -0.13916,-0.004 -0.20551,-0.02565 -0.0663,-0.02158 -1.35096,-0.176676 -2.85469,-0.344645 l -2.73405,-0.305402 -1.2062,-0.02972 c -0.66341,-0.01633 -2.3053,-0.05733 -3.64864,-0.09108 l -2.44245,-0.06138 -0.0932,-0.07102 c -0.117,-0.08922 -0.20199,-0.09207 -0.23401,-0.0078 -0.0172,0.04527 -0.0532,0.0684 -0.12666,0.08168 -0.0565,0.01017 -0.57306,0.02932 -1.14801,0.0425 -0.57497,0.01317 -2.20936,0.0789 -3.632,0.146018 -1.42266,0.06712 -2.74425,0.122101 -2.93689,0.122167 -0.19263,0 -1.22997,-0.05448 -2.30518,-0.121234 -1.07522,-0.06675 -2.23236,-0.132834 -2.57144,-0.146867 -0.33907,-0.014 -0.88789,-0.0371 -1.21961,-0.05127 -0.3317,-0.01417 -0.97702,-0.03352 -1.43404,-0.043 l -0.83094,-0.01725 -0.66289,0.48638 -0.6629,0.486381 -1.26522,0.02443 c -0.69588,0.0135 -1.2935,0.01735 -1.32801,0.0087 -0.0372,-0.0093 -0.30385,-0.284558 -0.65497,-0.67609 -0.32572,-0.363186 -0.62716,-0.693508 -0.66987,-0.734049 l -0.0777,-0.07372 -0.44855,-0.0028 c -0.2467,-0.0016 -0.55711,-0.01067 -0.68979,-0.0201 l -0.24123,-0.01727 0,-0.11485 c 0,-0.0729 -0.015,-0.124151 -0.0402,-0.140318 -0.0222,-0.014 -0.28144,-0.02593 -0.57629,-0.02652 -0.29485,-5.9e-4 -0.5783,-0.01167 -0.6299,-0.0247 -0.0517,-0.013 -0.46172,-0.126684 -0.91136,-0.252621 -0.44965,-0.125934 -0.84989,-0.235643 -0.8894,-0.243803 -0.0707,-0.01467 -0.072,-0.01883 -0.0827,-0.262727 -0.007,-0.136334 -0.02,-0.274245 -0.0313,-0.30645 -0.0182,-0.05172 -0.008,-0.06202 0.0893,-0.08815 0.0605,-0.01633 0.10984,-0.04148 0.10984,-0.05602 0,-0.0145 0.0302,-0.0379 0.067,-0.05192 0.0368,-0.014 0.067,-0.03783 0.067,-0.05295 0,-0.01517 0.018,-0.02747 0.04,-0.02747 0.022,0 0.055,-0.02412 0.0735,-0.0536 0.0185,-0.02948 0.0543,-0.05362 0.0797,-0.05362 0.0255,0 0.0592,-0.02413 0.0748,-0.05362 0.015,-0.02948 0.0448,-0.0536 0.0647,-0.0536 0.0198,0 0.0512,-0.01832 0.0698,-0.0407 0.0185,-0.02238 0.0753,-0.06042 0.12617,-0.08452 0.0508,-0.0241 0.1025,-0.0704 0.11483,-0.102884 0.0305,-0.08038 0.27725,-0.258775 0.4259,-0.307984 0.0907,-0.03003 0.12534,-0.05693 0.13684,-0.106317 0.0133,-0.0596 0.0402,-0.07107 0.26713,-0.116317 l 0.25172,-0.0502 0.0438,0.05808 c 0.0332,0.04392 0.0663,0.05593 0.136,0.0493 l 0.0922,-0.0088 0.0197,-0.197809 c 0.018,-0.180068 0.0338,-0.219738 0.17616,-0.442275 0.086,-0.13445 0.18574,-0.257989 0.22152,-0.274518 0.0358,-0.0165 1.18081,-0.237834 2.54448,-0.491789 1.36368,-0.253953 2.50737,-0.467023 2.54152,-0.473488 0.1025,-0.0194 0.0597,-0.09698 -0.0757,-0.136967 -0.4426,-0.130751 -2.02964,-0.53435 -2.50721,-0.637602 -0.17585,-0.03802 -0.68177,-0.128334 -1.12426,-0.200688 -1.50784,-0.246567 -1.76678,-0.302395 -2.19835,-0.473998 -0.2451,-0.09745 -0.33355,-0.152484 -0.29965,-0.186388 0.01,-0.01033 0.49816,0.02643 1.08399,0.08173 l 1.06518,0.100551 0.98685,0.252855 c 0.54279,0.139067 1.52424,0.39859 2.18101,0.576711 1.26574,0.34327 1.97223,0.506365 2.19452,0.506601 0.21915,2.69e-4 2.67836,-0.203542 3.71092,-0.307498 0.52337,-0.05268 2.08483,-0.210568 3.46992,-0.35084 1.3851,-0.140268 2.56718,-0.255782 2.62684,-0.256685 0.0597,-9.12e-4 0.38424,0.07197 0.72128,0.161917 0.33703,0.08995 0.61748,0.163551 0.6232,0.163551 0.005,0 0.01,0.04903 0.01,0.108984 0,0.172093 0.0347,0.212658 0.18188,0.212782 0.0695,0 1.39288,-0.109451 2.94084,-0.243355 l 2.81448,-0.243463 0.99175,0.180187 c 0.54547,0.0991 1.00998,0.195797 1.03224,0.214873 0.0267,0.02285 0.15017,0.03797 0.36186,0.04428 0.17676,0.0053 2.28148,0.223336 4.67712,0.484564 l 4.35573,0.474961 1.39382,0.390284 c 3.84351,1.07621 4.53601,1.273357 4.60779,1.311771 0.0428,0.02292 1.47628,0.449969 3.18552,0.949022 1.70924,0.499056 3.12044,0.920107 3.136,0.935667 0.0405,0.04052 -0.018,0.119934 -0.3309,0.449432 -0.43007,0.452798 -0.86615,0.854492 -1.00645,0.927102 -0.0715,0.03698 -0.22044,0.08877 -0.33101,0.115068 -0.1105,0.0263 -0.21583,0.05947 -0.23391,0.07372 -0.0492,0.03875 -0.45897,0.126067 -0.59702,0.127234 -0.18461,0.0015 -0.38984,0.06658 -0.50974,0.161551 -0.1145,0.09073 -0.34377,0.190142 -0.422,0.183039 -0.0257,-0.0023 -0.41452,-0.0135 -0.86417,-0.02482 z"
         id="path2998"
         inkscape:connector-curvature="0" />
    </g>
  </g>
</svg>
