<?xml version="1.0" encoding="UTF-8" standalone="no"?>
<svg
   xmlns:dc="http://purl.org/dc/elements/1.1/"
   xmlns:cc="http://creativecommons.org/ns#"
   xmlns:rdf="http://www.w3.org/1999/02/22-rdf-syntax-ns#"
   xmlns:svg="http://www.w3.org/2000/svg"
   xmlns="http://www.w3.org/2000/svg"
   version="1.1"
   id="svg2"
   viewBox="0 0 13.000172 2.0250487"
   width="39.000516">
  <defs
     id="defs4" />
  <metadata
     id="metadata7">
    <rdf:RDF>
      <cc:Work
         rdf:about="">
        <dc:format>image/svg+xml</dc:format>
        <dc:type
           rdf:resource="http://purl.org/dc/dcmitype/StillImage" />
        <dc:title></dc:title>
      </cc:Work>
    </rdf:RDF>
  </metadata>
  <g
     transform="translate(525.70605,-643.09125)"
     id="layer1">
    <g
       transform="translate(-1402.8571,565.71429)"
       id="g2996">
      <path
         id="path2998"
         d="m 889.03125,79.395315 c -0.11691,-0.0029 -0.34741,-0.0087 -0.51223,-0.01289 -0.67511,-0.01698 -0.81026,-0.02218 -0.94315,-0.03633 -0.0741,-0.0079 -0.14466,-0.01275 -0.1568,-0.01081 -0.0122,0.002 -0.0362,-0.001 -0.0534,-0.0067 -0.0172,-0.0056 -0.35125,-0.04594 -0.74221,-0.08961 l -0.71085,-0.0794 -0.31361,-0.0077 c -0.17249,-0.0042 -0.59938,-0.0149 -0.94864,-0.02368 l -0.63504,-0.01596 -0.0242,-0.01847 c -0.0304,-0.0232 -0.0525,-0.02394 -0.0608,-0.002 -0.004,0.01177 -0.0138,0.01778 -0.0329,0.02124 -0.0147,0.0026 -0.14899,0.0076 -0.29848,0.01105 -0.14949,0.0034 -0.57443,0.02051 -0.94432,0.03796 -0.36988,0.01745 -0.71349,0.03175 -0.76358,0.03176 -0.0501,0 -0.31979,-0.01416 -0.59934,-0.03152 -0.27956,-0.01736 -0.58041,-0.03454 -0.66858,-0.03818 -0.0882,-0.0036 -0.23085,-0.0096 -0.31709,-0.01333 -0.0862,-0.0037 -0.25403,-0.0087 -0.37285,-0.01118 l -0.21604,-0.0045 -0.17235,0.126458 -0.17236,0.126458 -0.32895,0.0064 c -0.18093,0.0035 -0.33631,0.0045 -0.34529,0.0023 -0.01,-0.0024 -0.079,-0.07398 -0.17029,-0.175783 -0.0847,-0.09443 -0.16306,-0.180311 -0.17416,-0.190851 l -0.0202,-0.01917 -0.11662,-7.25e-4 c -0.0641,-4.24e-4 -0.14485,-0.0028 -0.17934,-0.0052 l -0.0627,-0.0045 0,-0.02986 c 0,-0.01895 -0.004,-0.03228 -0.0105,-0.03648 -0.006,-0.0036 -0.0732,-0.0067 -0.14984,-0.0069 -0.0767,-1.53e-4 -0.15035,-0.003 -0.16377,-0.0064 -0.0135,-0.0034 -0.12005,-0.03294 -0.23695,-0.06568 -0.11691,-0.03274 -0.22097,-0.06127 -0.23124,-0.06339 -0.0184,-0.0038 -0.0187,-0.0049 -0.0215,-0.06831 -0.002,-0.03545 -0.005,-0.0713 -0.008,-0.07968 -0.005,-0.01345 -0.002,-0.01613 0.0232,-0.02292 0.0157,-0.0042 0.0286,-0.01078 0.0286,-0.01457 0,-0.0038 0.008,-0.0099 0.0174,-0.0135 0.01,-0.0036 0.0174,-0.0098 0.0174,-0.01377 0,-0.0039 0.005,-0.0071 0.0104,-0.0071 0.006,0 0.0143,-0.0063 0.0191,-0.01394 0.005,-0.0077 0.0141,-0.01394 0.0207,-0.01394 0.007,0 0.0154,-0.0063 0.0194,-0.01394 0.004,-0.0077 0.0116,-0.01394 0.0168,-0.01394 0.005,0 0.0133,-0.0048 0.0181,-0.01058 0.005,-0.0058 0.0196,-0.01571 0.0328,-0.02198 0.0132,-0.0063 0.0267,-0.0183 0.0298,-0.02675 0.008,-0.0209 0.0721,-0.06728 0.11074,-0.08007 0.0236,-0.0078 0.0326,-0.0148 0.0356,-0.02764 0.003,-0.0155 0.0105,-0.01848 0.0695,-0.03024 l 0.0654,-0.01305 0.0114,0.0151 c 0.009,0.01142 0.0172,0.01454 0.0354,0.01282 l 0.024,-0.0023 0.005,-0.05143 c 0.005,-0.04682 0.009,-0.05713 0.0458,-0.11499 0.0224,-0.03496 0.0483,-0.06708 0.0576,-0.07137 0.009,-0.0043 0.30701,-0.06184 0.66156,-0.127864 0.35456,-0.06603 0.65191,-0.121426 0.66079,-0.123107 0.0267,-0.005 0.0155,-0.02521 -0.0197,-0.03561 -0.11507,-0.03399 -0.5277,-0.13893 -0.65187,-0.165775 -0.0457,-0.0099 -0.17726,-0.03337 -0.2923,-0.05218 -0.39204,-0.06411 -0.45936,-0.07862 -0.57157,-0.123239 -0.0637,-0.02534 -0.0867,-0.03965 -0.0779,-0.04846 0.003,-0.0027 0.12952,0.0069 0.28184,0.02125 l 0.27694,0.02614 0.25658,0.06574 c 0.14112,0.03616 0.3963,0.103633 0.56706,0.149944 0.32909,0.08925 0.51278,0.131654 0.57057,0.131716 0.057,7e-5 0.69637,-0.05292 0.96484,-0.07995 0.13607,-0.0137 0.54205,-0.05475 0.90217,-0.09122 0.36012,-0.03647 0.66746,-0.0665 0.68298,-0.06674 0.0155,-2.37e-4 0.0999,0.01871 0.18753,0.0421 0.0876,0.02339 0.16054,0.04252 0.16203,0.04252 10e-4,0 0.003,0.01275 0.003,0.02834 0,0.04474 0.009,0.05529 0.0473,0.05532 0.0181,0 0.36214,-0.02846 0.76461,-0.06327 l 0.73176,-0.0633 0.25786,0.04685 c 0.14182,0.02577 0.26259,0.05091 0.26838,0.05587 0.007,0.0059 0.039,0.0099 0.0941,0.01151 0.046,0.0014 0.59318,0.05807 1.21605,0.125985 l 1.13248,0.12349 0.36239,0.101473 c 0.99931,0.279813 1.17936,0.331071 1.19802,0.341059 0.0111,0.006 0.38383,0.116991 0.82823,0.246744 0.4444,0.129754 0.81131,0.239227 0.81536,0.243272 0.0105,0.01054 -0.005,0.03118 -0.086,0.116852 -0.11182,0.117727 -0.2252,0.222167 -0.26167,0.241045 -0.0186,0.0096 -0.0573,0.02308 -0.0861,0.02992 -0.0287,0.0068 -0.0561,0.01546 -0.0608,0.01917 -0.0128,0.01007 -0.11933,0.03278 -0.15523,0.03308 -0.048,3.93e-4 -0.10135,0.01731 -0.13253,0.042 -0.0298,0.02359 -0.0894,0.04944 -0.10972,0.04759 -0.007,-6.05e-4 -0.10777,-0.0035 -0.22468,-0.0065 z"
         style="fill:#000000" />
    </g>
  </g>
</svg>
