<?xml version="1.0" encoding="UTF-8" standalone="no"?>
<svg
   xmlns:dc="http://purl.org/dc/elements/1.1/"
   xmlns:cc="http://creativecommons.org/ns#"
   xmlns:rdf="http://www.w3.org/1999/02/22-rdf-syntax-ns#"
   xmlns:svg="http://www.w3.org/2000/svg"
   xmlns="http://www.w3.org/2000/svg"
   version="1.1"
   id="svg4165"
   viewBox="0 0 42.999992 8.3931287"
   width="129">
  <defs
     id="defs4167" />
  <metadata
     id="metadata4170">
    <rdf:RDF>
      <cc:Work
         rdf:about="">
        <dc:format>image/svg+xml</dc:format>
        <dc:type
           rdf:resource="http://purl.org/dc/dcmitype/StillImage" />
        <dc:title></dc:title>
      </cc:Work>
    </rdf:RDF>
  </metadata>
  <g
     transform="translate(733.46421,-780.98576)"
     id="layer1">
    <g
       transform="matrix(0.01837572,0,0,0.01837572,-774.78213,791.50529)"
       id="g4184">
      <path
         id="path4192"
         d="m 3226.1084,-121.34277 c -5.0892,-4.51994 -7.2461,-5.62536 -10.9792,-5.62687 -2.5552,-0.001 -15.6015,-3.3272 -28.992,-7.3915 -25.3066,-7.68114 -24.8665,-7.4453 -32.5288,-17.43244 -4.1887,-5.45967 -7.0423,-5.94674 -45,-7.681 -27.6801,-1.26468 -32.9202,-1.20615 -39.8177,0.44477 -5.7666,1.38023 -8.8489,1.55526 -11.25,0.63883 -13.341,-5.09188 -12.9126,-5.098 -74.3209,1.06265 -43.6364,4.37772 -64.5282,5.91317 -85.5476,6.28733 l -27.8113,0.49505 -24.4182,-5.08591 c -16.6287,-3.46349 -27.5752,-5.08591 -34.3147,-5.08591 -5.4431,0 -12.7711,-0.61649 -16.2845,-1.36998 -4.7615,-1.02117 -7.2882,-0.99708 -9.9238,0.0946 -2.7944,1.15745 -6.5139,1.02745 -17.7361,-0.61991 -7.8101,-1.14648 -14.4306,-2.31015 -14.7123,-2.58594 -0.2817,-0.27579 1.3003,-0.86394 3.5156,-1.307 2.2153,-0.44305 3.5708,-1.23703 3.0122,-1.76439 -0.5586,-0.52735 -25.7117,-5.65286 -55.8958,-11.39002 -54.622,-10.38214 -54.8979,-10.45003 -58.6531,-14.43129 -3.0393,-3.22218 -5.1289,-4.16754 -10.7449,-4.86109 -4.6374,-0.5727 -15.9708,-4.74635 -33.8469,-12.46444 -38.4132,-16.58511 -45.8691,-20.20906 -48.0827,-23.37062 l -1.9639,-2.80495 -70.2892,-0.625 c -38.659,-0.34375 -70.9923,-1.08008 -71.8517,-1.63628 -2.489,-1.61093 -1.9099,-8.0898 0.8554,-9.56975 1.3298,-0.71168 6.9548,-1.29397 12.5,-1.29397 7.7384,0 10.0821,-0.40096 10.0821,-1.72481 0,-1.46294 -8.6578,-8.80204 -15,-12.71518 -1.0312,-0.63629 -38.4919,-3.18611 -83.2459,-5.66626 -44.754,-2.48016 -82.0196,-4.91031 -82.8125,-5.40034 -2.1348,-1.3194 -2.0193,-45.61659 0.1209,-46.37706 0.8594,-0.30535 27.0503,-1.96338 58.2019,-3.6845 31.1517,-1.72113 57.1673,-3.45559 57.8125,-3.85436 0.6452,-0.39877 1.1731,-1.98617 1.1731,-3.52755 0,-2.17972 -2.0799,-3.98595 -9.3594,-8.12763 -11.8836,-6.76132 -21.3302,-14.21277 -23.612,-18.62527 -0.9785,-1.89225 -3.3156,-11.31132 -5.1935,-20.93125 -1.878,-9.61994 -4.1841,-18.73663 -5.1248,-20.25932 -1.1882,-1.92338 -1.7103,-7.17008 -1.7103,-17.18749 l 0,-14.41898 4.6875,-0.0191 c 7.6998,-0.0315 8.0709,-0.71376 7.1945,-13.22941 -0.4285,-6.11955 -1.0335,-12.37439 -1.3445,-13.89964 -0.4286,-2.10256 0.3264,-3.23433 3.1223,-4.68012 2.9648,-1.53316 8.0562,-1.85503 25.9765,-1.64211 19.3242,0.22958 22.6967,-0.0208 25.3545,-1.88239 2.226,-1.55918 5.5944,-2.14719 12.2999,-2.14719 7.843,0 11.9773,-0.94747 27.4372,-6.2878 l 18.2028,-6.28781 14.4722,0.35031 14.4721,0.35029 0.625,6.25 c 0.5071,5.0705 1.0968,6.30607 3.125,6.54714 1.375,0.16343 33.4375,-0.69822 71.25,-1.91478 l 68.75,-2.21192 9.3377,-6.71584 9.3377,-6.71584 59.9349,-1.36937 c 39.7659,-0.90857 60.0823,-1.81324 60.3728,-2.68834 0.2409,-0.72543 -18.2756,-16.57193 -41.1476,-35.21444 -52.5556,-42.83705 -54.5525,-44.50787 -54.639,-45.71687 -0.09,-1.26053 11.0915,6.57357 58.4059,40.9208 22.6586,16.44873 37.7726,28.2295 37.7726,29.44228 0,1.11198 1.9573,3.91879 4.3495,6.23738 3.9984,3.87547 5.151,4.27452 14.2837,4.94559 5.4638,0.40148 10.1686,1.00542 10.455,1.34208 0.2865,0.33668 1.8477,3.02118 3.4695,5.96557 l 2.9487,5.35342 12.4824,-0.35342 12.4824,-0.35344 1.0296,-3.98308 c 0.5663,-2.1907 2.0071,-4.2768 3.2019,-4.63578 1.1948,-0.35899 12.8598,-2.65652 25.9223,-5.1056 13.0625,-2.4491 24.7426,-4.76287 25.9557,-5.14172 3.4898,-1.08983 1.4684,-2.6306 -5.6393,-4.29841 -9.141,-2.14492 -11.1624,-3.39261 -10.7047,-6.60749 0.326,-2.29018 1.291,-2.77375 6.0133,-3.0135 4.9196,-0.24977 11.7699,-1.1482 27.1875,-3.5657 4.8443,-0.75958 5.2611,-3.20985 0.9394,-5.52271 -1.7177,-0.9193 -2.8868,-1.90769 -2.5981,-2.19642 0.2887,-0.28875 3.0092,0.93085 6.0454,2.71021 3.0363,1.77936 6.7048,3.2352 8.1523,3.2352 1.4475,0 3.4825,1.21456 4.5223,2.69904 1.4739,2.1043 2.2698,2.38417 3.6122,1.27013 1.1781,-0.97775 12.7068,-1.53392 36.5142,-1.76153 l 34.7926,-0.33264 1.2285,-3.75 c 1.6974,-5.18095 2.6692,-5.58409 13.5138,-5.60586 8.253,-0.0166 9.7667,-0.36809 11.2582,-2.61444 1.7037,-2.56584 1.8154,-2.57063 9.84,-0.42206 5.1963,1.39131 14.3971,2.34995 25.5719,2.66438 9.6003,0.27013 18.0685,1.00015 18.8181,1.62229 1.4426,1.19728 109.9743,2.6064 186.8517,2.426 51.2483,-0.12025 51.2442,-0.11962 47.1034,-7.80864 -2.1272,-3.95002 -2.116,-4.29038 0.3252,-9.80905 l 2.5289,-5.71703 7.7046,-0.8053 c 4.2376,-0.4429 20.5332,-0.80529 36.2125,-0.80529 29.9644,0 34.1443,0.6455 35.6294,5.5022 1.4906,4.87471 3.1136,6.02889 5.474,3.89278 1.7973,-1.62659 3.9073,-1.73713 13.8832,-0.72733 6.4701,0.65492 21.1857,1.58454 32.7013,2.06581 15.4622,0.64623 20.9375,1.28409 20.9375,2.43919 0,1.15196 -5.1879,1.77586 -19.6875,2.36762 -23.7004,0.96725 -31.7905,1.82942 -30.8869,3.2916 0.3729,0.60332 3.0724,2.1561 5.9989,3.45062 4.4094,1.95048 5.5842,3.23276 6.8584,7.48555 1.3157,4.39147 2.1186,5.21996 5.5648,5.74241 11.6983,1.77345 36.0801,5.02779 51.5455,6.88001 9.6348,1.15394 18.2102,2.52586 19.0562,3.04873 0.846,0.52286 17.4316,2.86649 36.8569,5.20805 19.4254,2.34156 37.2875,4.96745 39.6937,5.8353 2.7975,1.00895 9.6897,1.47491 19.1142,1.29227 10.5251,-0.20396 15.7071,0.20622 18.125,1.43463 1.8622,0.94614 7.7276,1.98796 13.0342,2.31516 9.0258,0.55653 9.8323,0.3964 12.5,-2.48164 2.6785,-2.8898 3.4208,-3.03351 12.2266,-2.36749 12.3727,0.93578 229.6547,18.3985 298.125,23.95998 29.5625,2.4012 54.7662,4.36554 56.008,4.36519 1.2419,-3.5e-4 3.8474,1.73956 5.79,3.86648 2.86,3.13137 5.2565,4.1957 12.5958,5.59412 5.0577,0.96371 9.8739,1.27351 10.897,0.70095 1.0286,-0.57563 4.934,-0.30152 8.8964,0.62442 5.1955,1.2141 9.0458,1.3308 14.5628,0.44138 13.3704,-2.15549 26.5092,-1.47829 38.75,1.99728 7.7998,2.21462 15.0835,3.31262 23.75,3.58023 6.875,0.2123 19.094,0.8183 27.1534,1.34665 10.983,0.72004 15.1191,0.57407 16.513,-0.58276 1.4821,-1.23002 8.5273,-0.99598 34.6948,1.15253 18.0592,1.48278 33.5703,3.3063 34.4692,4.05229 1.1288,0.93675 1.5238,4.04063 1.277,10.03354 l -0.3574,8.67721 9.375,2.42408 c 5.1563,1.33325 16.3239,3.79108 24.8169,5.46186 8.4931,1.67077 16.0868,3.56795 16.875,4.21594 0.7882,0.64798 12.6831,3.27608 26.4331,5.84023 33.4345,6.23497 33.7717,6.3271 35.2465,9.63173 1.2204,2.73467 1.814,2.82077 20.5051,2.97444 l 19.2484,0.15823 66.1218,22.02914 c 36.3669,12.11604 66.8492,22.63287 67.7383,23.37075 0.889,0.73788 1.7905,2.8473 2.0032,4.68761 l 0.3867,3.34603 36.5871,0.12877 c 20.1229,0.0707 36.951,0.49269 37.3958,0.9375 0.4449,0.4448 0.4449,1.17266 0,1.61745 -0.4448,0.44482 -17.2729,0.86669 -37.3958,0.9375 l -36.5871,0.12878 -0.3819,3.9316 c -0.2101,2.16239 -1.3351,4.77091 -2.5,5.79672 -2.187,1.92578 -21.9185,12.45883 -84.9702,45.3586 -20.1312,10.50425 -38.6528,20.89913 -41.1592,23.09973 -7.5059,6.59037 -9.9368,7.04884 -42.2007,7.95909 l -29.962,0.8453 -25.2515,9.95313 -25.2515,9.95315 -14.2371,-0.81313 -14.2371,-0.81314 -3.9869,4.83677 c -2.1927,2.66024 -3.9869,5.27113 -3.9869,5.80198 0,0.53086 2.9532,1.00474 6.5625,1.05306 3.6094,0.0483 7.6875,0.53935 9.0625,1.09119 2.1244,0.85257 1.7487,1.20069 -2.5,2.3166 -2.75,0.72229 -8.2133,1.95426 -12.1407,2.73771 -5.239,1.0451 -7.7646,2.28098 -9.4835,4.64055 -2.261,3.104 -3.1014,3.2778 -24.1093,4.98685 -18.8346,1.53226 -30.7742,3.65379 -88.6415,15.7506 l -66.875,13.97983 -30.625,0.27345 c -26.3307,0.23511 -39.7392,1.17957 -95.625,6.73562 -82.5246,8.20443 -87.4786,8.47328 -94.5806,5.13294 -4.2382,-1.99344 -24.4894,-5.02431 -92.9194,-13.90673 -48.125,-6.24676 -89.0891,-11.35071 -91.0315,-11.34211 -4.4978,0.0199 -16.3995,9.15334 -18.9606,14.55055 -1.7302,3.6464 -9.6684,11.71509 -11.5255,11.71509 -4.3489,0 -55.6186,12.04991 -60.6411,14.25249 -4.7609,2.08777 -18.3934,4.704 -49.0913,9.42107 -37.7908,5.807 -43.9099,7.07331 -55.2246,11.42853 l -12.7247,4.89791 -96.2961,0 -96.2961,0 -6.3335,-5.625 z"
         style="fill:#000000;fill-opacity:1" />
    </g>
  </g>
</svg>
