<?xml version="1.0" encoding="UTF-8" standalone="no"?>
<!-- Created with Inkscape (http://www.inkscape.org/) -->

<svg
   xmlns:dc="http://purl.org/dc/elements/1.1/"
   xmlns:cc="http://creativecommons.org/ns#"
   xmlns:rdf="http://www.w3.org/1999/02/22-rdf-syntax-ns#"
   xmlns:svg="http://www.w3.org/2000/svg"
   xmlns="http://www.w3.org/2000/svg"
   xmlns:sodipodi="http://sodipodi.sourceforge.net/DTD/sodipodi-0.dtd"
   xmlns:inkscape="http://www.inkscape.org/namespaces/inkscape"
   width="39.999992"
   height="7.4490509"
   id="svg2"
   version="1.1"
   inkscape:version="0.48.5 r10040"
   sodipodi:docname="New document 1">
  <defs
     id="defs4" />
  <sodipodi:namedview
     id="base"
     pagecolor="#ffffff"
     bordercolor="#666666"
     borderopacity="1.0"
     inkscape:pageopacity="0.0"
     inkscape:pageshadow="2"
     inkscape:zoom="31.678384"
     inkscape:cx="19.559223"
     inkscape:cy="1.7599287"
     inkscape:document-units="px"
     inkscape:current-layer="layer1"
     showgrid="false"
     fit-margin-top="0"
     fit-margin-left="0"
     fit-margin-right="0"
     fit-margin-bottom="0"
     inkscape:window-width="1920"
     inkscape:window-height="1017"
     inkscape:window-x="-8"
     inkscape:window-y="-8"
     inkscape:window-maximized="1" />
  <metadata
     id="metadata7">
    <rdf:RDF>
      <cc:Work
         rdf:about="">
        <dc:format>image/svg+xml</dc:format>
        <dc:type
           rdf:resource="http://purl.org/dc/dcmitype/StillImage" />
        <dc:title></dc:title>
      </cc:Work>
    </rdf:RDF>
  </metadata>
  <g
     inkscape:label="Layer 1"
     inkscape:groupmode="layer"
     id="layer1"
     transform="translate(487.94177,-686.52846)">
    <g
       id="g2996"
       transform="matrix(0.02139122,0,0,0.02139122,-513.41085,680.3836)"
       style="fill:#000000;fill-opacity:1">
      <path
         style="fill:#000000;fill-opacity:1"
         d="m 1931.058,635.03056 c -36.9743,-0.98226 -48.9676,-2.08291 -68.4524,-6.28205 -17.8671,-3.85051 -33.0597,-8.43929 -64.0313,-19.34011 l -21.4837,-7.56144 -14.5163,3.64006 c -7.9839,2.00204 -22.9481,5.82739 -33.2537,8.50078 l -18.7374,4.86071 -13.5896,-5.69806 c -12.8961,-5.40724 -14.16,-5.73414 -24.7626,-6.40492 -17.9156,-1.13344 -61.2514,-5.30346 -72.673,-6.99301 -5.775,-0.85427 -31.728,-2.48464 -57.6734,-3.62304 -45.1521,-1.98114 -47.7874,-1.99716 -61.5,-0.37399 -12.1561,1.43892 -16.3469,2.43258 -27.6623,6.55892 -7.3347,2.67469 -14.1675,4.86308 -15.1841,4.86308 -1.3029,0 -7.6757,-8.58579 -21.5973,-29.09693 -10.862,-16.00332 -20.6792,-29.69209 -21.816,-30.41951 -1.1368,-0.72742 -15.5669,-5.1972 -32.0669,-9.93284 -16.5,-4.73565 -31.8731,-9.29406 -34.1625,-10.1298 -3.1523,-1.15077 -7.3386,-4.87976 -17.25,-15.3658 -7.1981,-7.61545 -13.0875,-14.48982 -13.0875,-15.27638 0,-0.78656 -1.1366,-2.49796 -2.5259,-3.8031 -2.4292,-2.2821 -2.7811,-2.32928 -9.1884,-1.23175 -9.2249,1.58016 -10.3771,0.64181 -5.3134,-4.32722 1.6347,-1.60417 2.9847,-3.60576 3,-4.44797 0.015,-0.84222 -2.5728,-4.10472 -5.7513,-7.25 l -5.7789,-5.7187 -26.4711,-0.0354 c -27.7711,-0.0372 -27.2641,0.0365 -33.7629,-4.90262 -3.6561,-2.7786 -4.0636,-4.06194 -1.2898,-4.06194 2.4268,0 5.0817,-1.00023 5.0817,-1.91449 0,-0.38528 -2.025,-2.12786 -4.5,-3.8724 -2.475,-1.74454 -4.5,-3.82961 -4.5,-4.63349 0,-2.1001 -1.6529,-2.85383 -8.846,-4.03368 -7.902,-1.29611 -7.7031,-3.04594 0.346,-3.04594 7.9798,0 8.6019,-1.77299 1,-2.85032 -8.7686,-1.24268 -8.6598,-1.1721 -8.3108,-5.39164 l 0.3108,-3.75804 14.1244,0.35773 c 10.2078,0.25853 14.3292,0.0264 14.8629,-0.83714 1.5096,-2.44254 -1.7977,-3.41002 -15.2185,-4.4518 l -13.7688,-1.06879 -0.311,-4.90325 c -0.3805,-5.99762 0.3469,-6.56126 8.4937,-6.58144 5.2876,-0.0131 6.274,-0.30353 6.8145,-2.00636 0.9673,-3.04763 -0.2152,-4.00895 -4.9312,-4.00895 -2.3738,0 -5.7436,-0.28553 -7.4885,-0.63452 -3.1191,-0.6238 -3.1676,-0.72091 -2.875,-5.75 l 0.2975,-5.11548 13.8296,-1.12958 c 13.523,-1.10453 16.6354,-2.00002 15.1735,-4.36554 -0.5104,-0.82585 -4.8768,-1.0858 -14.8629,-0.88484 l -14.1402,0.28456 0,-3.94168 0,-3.94168 7,-1.01062 c 8.4497,-1.21991 8.4497,-3.01062 0,-3.01062 -8.2348,0 -8.4822,-1.75675 -0.4333,-3.07765 7.3742,-1.21018 8.9333,-1.90396 8.9333,-3.97509 0,-0.7891 1.9125,-2.82012 4.25,-4.5134 5.0904,-3.6874 5.3754,-5.32536 1,-5.74722 -1.7875,-0.17235 -3.25,-0.67465 -3.25,-1.11622 0,-0.44158 2.0989,-2.43807 4.6642,-4.43665 l 4.6641,-3.63377 15.8359,0 c 8.7097,0 15.8346,-0.3375 15.8331,-0.75 0,-0.4125 -1.6636,-1.65 -3.6936,-2.75 -5.3838,-2.9173 -17.2274,-22.56415 -13.5537,-22.48354 0.4125,0.009 5.475,0.97109 11.25,2.13787 9.8212,1.98426 14.3247,2.14936 69.6532,2.55347 50.9172,0.3719 60.3849,0.21143 68,-1.15255 29.932,-5.36125 39.1501,-6.61344 58.8877,-7.99929 18.0591,-1.268 24.8875,-2.2091 38.4473,-5.2989 15.4197,-3.51359 16.5743,-3.93693 17.8168,-6.53264 1.2539,-2.61931 1.598,-2.73984 6.113,-2.14091 3.9904,0.52934 4.8953,0.34554 5.4529,-1.10764 0.5575,-1.45275 1.4524,-1.63488 5.3846,-1.09591 4.0002,0.54828 4.9459,0.34232 6.2303,-1.35685 1.3438,-1.77779 1.9559,-1.88113 5.4382,-0.91813 3.5486,0.9813 4.0819,0.87579 5.5743,-1.10272 1.5394,-2.04085 1.9333,-2.10303 5.8632,-0.92562 3.9125,1.1722 4.3187,1.11119 5.6963,-0.8556 1.3891,-1.98323 1.7307,-2.03054 5.3757,-0.7445 3.5378,1.24818 4.0447,1.2051 5.5632,-0.47285 1.5611,-1.72497 2.0012,-1.74805 6.7036,-0.35158 4.6916,1.39324 6.059,1.32537 20.1663,-1.00101 8.3234,-1.37258 18.5084,-2.78262 22.6334,-3.13344 5.4749,-0.46561 9.2104,-1.4836 13.8341,-3.77002 8.2429,-4.07612 16.0636,-4.77118 22.3577,-1.98702 4.1527,1.83692 6.97,1.99225 38.8926,2.14429 18.9286,0.0902 40.9406,0.60847 48.9156,1.15181 27.8514,1.89754 40.6306,2.98195 58.5,4.96415 9.9,1.09817 20.7,2.19537 24,2.43821 4.809,0.35389 6.3971,0.92101 8,2.85691 1.1,1.32845 15.2157,12.82581 31.3682,25.54969 l 29.3681,23.13432 6.7233,0 c 20.6983,0 100.8038,7.24442 116.5404,10.53944 3.85,0.80614 11.5,2.1265 17,2.93414 5.5,0.80764 11.7827,2.38149 13.9615,3.49743 3.4921,1.78863 5.8614,2.02978 20,2.03568 8.8212,0.004 26.8385,0.46346 40.0385,1.02172 13.2,0.55826 54.7457,1.14313 92.3236,1.29971 54.1699,0.22571 68.6709,0.0206 70,-0.98992 1.2757,-0.96992 9.3529,-1.2822 33.7915,-1.3064 30.6269,-0.0303 32.233,0.0609 34.6578,1.9682 3.8552,3.03253 10.5113,2.59788 22.7271,-1.4841 l 10.5,-3.50863 90.6503,-6.08106 c 88.7325,-5.95241 105.7265,-6.55275 107.4308,-3.79517 0.909,1.47079 5.9442,1.06815 70.419,-5.63104 60.4764,-6.28374 63.3742,-6.49418 89.5,-6.4994 14.85,-0.003 40.95,0.46867 58,1.04808 l 31,1.05348 3.5,3.69892 c 1.925,2.03441 5.9777,6.507 9.006,9.9391 l 5.506,6.24019 10.994,1.52493 c 25.818,3.5811 60.1365,10.80423 93.466,19.67215 22.8426,6.07767 52.2272,17.21682 72.1404,27.34703 6.9368,3.5289 16.7657,7.76239 21.842,9.40777 5.0762,1.64537 15.2647,6.14936 22.641,10.00887 15.9266,8.33326 18.4046,9.88663 18.4046,11.53705 0,2.86241 -16.604,16.28217 -29.3716,23.73886 -6.5057,3.79955 -7.0988,3.9586 -10.7179,2.87429 -3.6519,-1.09414 -4.3364,-0.89445 -14.6326,4.26932 -9.1426,4.58518 -11.064,5.96756 -12.5105,9.00099 -1.3251,2.77877 -3.2319,4.34751 -8.4882,6.98342 -11.306,5.66964 -45.1329,17.9209 -68.2792,24.72896 -8.6605,2.54734 -14.0377,4.66386 -15,5.90415 -0.8384,1.08062 -7.6749,4.1863 -15.5,7.04126 -64.0303,23.36143 -96.7206,31.34391 -145,35.40679 -43.597,3.66884 -56.755,3.91453 -228,4.25727 -93.5001,0.18714 -173.6001,0.3127 -178.0001,0.27902 -4.4,-0.0337 -37.025,1.30178 -72.5,2.96767 -35.475,1.66589 -75.75,3.49663 -89.5,4.06831 -35.713,1.48484 -37.6836,1.78066 -43.6941,6.55901 -2.8578,2.27193 -5.379,3.42636 -7.4968,3.4328 -3.5979,0.011 -5.1626,1.46821 -2.6229,2.44278 1.3103,0.5028 0.6019,1.36801 -3.2557,3.97616 -2.7118,1.83344 -7.5302,6.11127 -10.7077,9.50629 l -5.7773,6.17277 2.0761,4.69331 c 2.3985,5.42232 1.93,8.95811 -1.2868,9.71096 -1.2291,0.28767 -12.8098,2.0665 -25.7348,3.95297 -39.4656,5.7602 -87.3623,7.89888 -143.5,6.40754 z"
         id="path3002"
         inkscape:connector-curvature="0" />
    </g>
  </g>
</svg>
