<?xml version="1.0" encoding="UTF-8" standalone="no"?>
<!-- Created with Inkscape (http://www.inkscape.org/) -->

<svg
   xmlns:dc="http://purl.org/dc/elements/1.1/"
   xmlns:cc="http://creativecommons.org/ns#"
   xmlns:rdf="http://www.w3.org/1999/02/22-rdf-syntax-ns#"
   xmlns:svg="http://www.w3.org/2000/svg"
   xmlns="http://www.w3.org/2000/svg"
   xmlns:sodipodi="http://sodipodi.sourceforge.net/DTD/sodipodi-0.dtd"
   xmlns:inkscape="http://www.inkscape.org/namespaces/inkscape"
   width="8.748888mm"
   height="4.0594296mm"
   viewBox="0 0 30.999997 14.383806"
   id="svg2"
   version="1.1"
   inkscape:version="0.91 r13725"
   sodipodi:docname="Argo.svg">
  <defs
     id="defs4" />
  <sodipodi:namedview
     id="base"
     pagecolor="#ffffff"
     bordercolor="#666666"
     borderopacity="1.0"
     inkscape:pageopacity="0.0"
     inkscape:pageshadow="2"
     inkscape:zoom="31.678384"
     inkscape:cx="17.085385"
     inkscape:cy="8.0844613"
     inkscape:document-units="px"
     inkscape:current-layer="layer1"
     showgrid="false"
     fit-margin-top="0"
     fit-margin-left="0"
     fit-margin-right="0"
     fit-margin-bottom="0"
     inkscape:window-width="1920"
     inkscape:window-height="1017"
     inkscape:window-x="-8"
     inkscape:window-y="-8"
     inkscape:window-maximized="1" />
  <metadata
     id="metadata7">
    <rdf:RDF>
      <cc:Work
         rdf:about="">
        <dc:format>image/svg+xml</dc:format>
        <dc:type
           rdf:resource="http://purl.org/dc/dcmitype/StillImage" />
        <dc:title></dc:title>
      </cc:Work>
    </rdf:RDF>
  </metadata>
  <g
     inkscape:label="Layer 1"
     inkscape:groupmode="layer"
     id="layer1"
     transform="translate(825.66281,-1020.1246)">
    <g
       id="g4147"
       transform="matrix(0.01328323,0,0,0.01328323,-813.81438,1022.9318)">
      <path
         style="fill:#000000"
         d="m -285.72146,870.63126 c -23.29332,-1.0726 -124.33844,-8.5631 -158.74542,-11.7677 -11.34517,-1.0567 -23.72017,-2.78992 -27.5,-3.85162 -13.80401,-3.87732 -15.82112,-4.19873 -26.87241,-4.28193 -13.32466,-0.10025 -17.67333,-1.46556 -27.285,-8.56611 -6.25696,-4.6223 -8.3569,-5.4465 -15.94161,-6.25693 -6.15209,-0.65735 -9.40836,-1.64956 -11.011,-3.35513 -1.64831,-1.75419 -16.31063,-63.00969 -53.18981,-222.21387 -45.54567,-196.6166 -50.75478,-220.1771 -49.40217,-223.4425 1.10563,-2.6693 7.77032,-7.8849 24.79582,-19.4047 12.80607,-8.6649 25.52168,-16.558 28.25691,-17.5403 2.73522,-0.9824 34.46615,-5.1185 70.51316,-9.1914 36.04703,-4.073 66.08693,-7.9522 66.75535,-8.6207 0.66841,-0.6684 0.84554,-2.1789 0.39359,-3.3566 -0.72855,-1.8986 -2.2001,-2.0497 -12.97848,-1.3326 -43.54341,2.8971 -65.42626,4.7377 -70.67614,5.9448 -3.31065,0.7613 -11.18565,1.3453 -17.5,1.2979 -6.31433,-0.047 -21.88127,0.735 -34.59318,1.7385 -12.71191,1.0036 -29.65866,1.8247 -37.65945,1.8247 -15.74913,0 -16.45629,0.2791 -17.90685,7.0686 -0.6537,3.0597 -4.66513,7.2621 -17.89764,18.75 -23.33862,20.2614 -25.51699,21.9158 -28.00151,21.2661 -1.19258,-0.3119 -19.54236,-12.4351 -40.77733,-26.9406 -25.13598,-17.1702 -39.11755,-27.4897 -40.06631,-29.572 -1.67256,-3.6709 -10.20335,-41.0131 -10.20335,-44.6637 0,-1.3337 3.9375,-6.4856 8.75,-11.4488 8.98902,-9.2704 10.3949,-12.6361 6.78571,-16.2453 -1.68271,-1.6828 -6.52056,-1.9643 -33.75,-1.9643 l -31.78571,0 0,-7.347 c 0,-4.4454 -0.63205,-7.8715 -1.60039,-8.6751 -0.88022,-0.7305 -4.67709,-1.5025 -8.4375,-1.7156 l -6.83711,-0.3873 -0.625,-31.875 -0.625,-31.875 -11.06597,-14.655 c -9.45384,-12.52 -11.68603,-14.7713 -15.32225,-15.4534 l -4.25629,-0.7985 5.15977,-9.5466 c 2.83787,-5.2506 6.11242,-10.3955 7.27677,-11.4332 1.18804,-1.0588 8.38996,-2.8782 16.41248,-4.1462 7.86252,-1.2428 17.10799,-2.8171 20.54549,-3.4985 3.4375,-0.6815 19.66539,-3.4709 36.06198,-6.1986 16.3966,-2.7278 31.38956,-5.7754 33.31771,-6.7724 1.92815,-0.9971 4.82526,-3.5579 6.43802,-5.6906 4.92339,-6.5108 11.4801,-12.5672 15.5318,-14.3468 2.11723,-0.9299 4.64848,-2.6542 5.625,-3.8316 2.80952,-3.3877 8.39782,-5.1779 22.87207,-7.3271 11.25752,-1.6716 15.36486,-2.9502 24.94022,-7.7638 11.16466,-5.6125 12.1459,-5.8577 37.67799,-9.4147 14.41812,-2.0087 26.93375,-4.2488 27.8125,-4.9781 0.87874,-0.7293 1.59771,-3.0003 1.59771,-5.0466 0,-5.2394 2.81776,-10.5179 9.8613,-18.4733 l 6.08699,-6.875 32.33836,-1.4397 c 18.71756,-0.8332 33.91784,-2.0713 36.08835,-2.9395 2.0625,-0.8249 9.09375,-1.8645 15.625,-2.3103003 10.7414,-0.7331 11.91029,-1.0573 12.2446,-3.3953 0.20329,-1.4217 -2.69604,-13.2342 -6.44295,-26.2499997 -11.21623,-38.9625 -13.66431,-48.9251 -12.83461,-52.2309 0.62987,-2.5096 2.39571,-3.6411 9.21853,-5.9072 4.64169,-1.5416 10.56922,-4.5108 13.17229,-6.5982 3.99559,-3.204 4.61553,-4.3295 3.97964,-7.2246 -0.64018,-2.9147 -0.17798,-3.7269 3.07964,-5.4115 4.42771,-2.2896 4.36097,-1.9632 1.99508,-9.7603 -0.9959,-3.2822 -1.51266,-6.6572 -1.14838,-7.5 0.36428,-0.8429 3.29457,-3.5354 6.51175,-5.9833 17.91616,-13.6324 88.26881,-67.5247 102.50958,-78.5257 9.16311,-7.0784 16.95079,-12.5792 17.30597,-12.224 0.35519,0.3551 4.80432,13.7643 9.88697,29.7981 9.69818,30.5941 10.94097,32.9237 18.35483,34.4065 2.23017,0.446 4.03656,1.8375 4.72047,3.6364 0.60933,1.6026 3.0513,3.7259 5.42662,4.7183 2.37531,0.9925 4.98097,3.0419 5.79036,4.5543 1.6741,3.1281 5.85946,2.9669 14.27559,-0.5495 4.64448,-1.9406 4.75327,-2.1297 3.84432,-6.6804 -2.47092,-12.3709 -3.49275,-11.3176 17.4847,-18.0226 10.3125,-3.2962 19.68916,-6.0027 20.83704,-6.0144 1.39754,-0.014 2.76232,2.0118 4.13101,6.1326 2.71704,8.1802 3.86069,8.9783 10.3745,7.2397 4.73373,-1.2635 5.56299,-1.151 7.60243,1.0316 2.3304,2.494 11.37531,25.4321 11.49662,29.1556 0.0366,1.1244 4.6837,14.4176 10.32681,29.5405 l 10.2602,27.4962 19.96023,10.6288 c 14.97355,7.9734 20.65664,11.6712 22.74783,14.8014 1.53317,2.2949 5.07038,11.4133 7.86046,20.263 3.07431,9.7511997 5.90615,16.5566997 7.18797,17.2739997 1.16332,0.651 7.20007,0.94860003 13.415,0.6613 6.21495,-0.2873 27.89365,-1.0997 48.1749,-1.8054 l 36.875004,-1.283 6.5625,-3.9679 c 3.609375,-2.1822997 6.5625,-4.4033997 6.5625,-4.9356997 0,-0.5324 3.515625,-2.7288 7.8125,-4.881 4.296875,-2.1521 14.5625,-8.4884 22.8125,-14.0805 l 15,-10.1674 221.373856,0 221.37389,0 14.25113,9.5221 c 15.51562,10.3671 26.16937,16.0573 43.20587,23.0765997 13.26263,5.4643 14.17025,6.133 14.17025,10.44040003 0,7.70739997 -1.99237,7.42729997 56.25,7.90809997 l 53.125,0.4385 10.15713,3.2572003 c 18.06225,5.7922 24.04562,8.7274 100.94937,49.5222 41.6905,22.1155 76.10713,40.2099 76.48125,40.2099 0.37412,0 8.66363,4.4073 18.42125,9.7941 9.7575,5.3867 26.1785,14.1964 36.491,19.5771 10.3125,5.3807 22.40625,12.157 26.875,15.0586 4.46875,2.9015 31.59188,24.4159 60.2736,47.8097 58.69839,47.8764 54.9547,45.451 120.97639,78.3774 17.5313,8.7431 32.8594,16.7683 34.0625,17.8336 1.2031,1.0653 2.1875,2.955 2.1875,4.1992 0,2.8258 3.6408,4.8503 8.7224,4.8503 2.4861,0 5.1057,1.1719 7.2696,3.252 3.4489,3.3154 14.6019,9.2137 17.4639,9.2358 1.9387,0.015 6.533,-7.271 6.5395,-10.3706 0,-1.4751 -1.9398,-3.1179 -5.6038,-4.7387 -3.0846,-1.3644 -6.1738,-3.5373 -6.865,-4.8287 -1.4372,-2.6855 -0.2641,-14.0174 1.5759,-15.2226 0.6699,-0.4388 2.6928,-3.5326 4.4953,-6.875 2.4567,-4.5558 4.0921,-6.1718 6.5321,-6.4551 2.7006,-0.3136 47.3861,16.8522 49.5797,19.0459 0.5854,0.5854 -16.4453,19.8957 -21.8117,24.7312 -2.0469,1.8445 -3.0621,1.9414 -7.1601,0.6837 -4.2659,-1.3093 -4.9655,-1.2052 -6.5608,0.9758 -2.2639,3.0952 -3.397,7.5386 -2.5111,9.8471 0.3771,0.9826 3.1096,2.8744 6.0724,4.2041 7.9375,3.5625 19.6815,12.6823 26.2427,20.3789 6.5698,7.7067 181.1726,317.16526 182.0069,322.58108 0.2812,1.82595 -0.7436,7.29629 -2.2775,12.15631 -2.6271,8.32429 -2.6689,9.01933 -0.7208,11.9926 2.7072,4.13169 3.9159,3.99991 11.7592,-1.28201 26.4236,-17.79473 52.4821,-33.43125 56.644,-33.98948 6.0993,-0.81809 11.1072,3.69603 11.1072,10.012 0,5.04304 -3.3059,8.48113 -15,15.59994 -20.8584,12.69754 -48.3764,30.7892 -50.6984,33.33155 -1.4152,1.54965 -3.7863,3.13475 -5.2688,3.52245 -5.3369,1.39562 -104.0339,66.22867 -103.9915,68.31092 0.035,1.74074 44.0795,33.71484 53.1706,38.5997 2.5101,1.34874 7.7931,0.56327 36.9314,-5.49088 l 34.0022,-7.06475 5.3541,2.92483 c 5.2198,2.85139 5.3752,3.12079 6.1897,10.72623 0.4595,4.29075 0.6292,14.29781 0.3771,22.23791 -0.4565,14.38389 -0.4731,14.45139 -4.5363,18.51469 l -4.078,4.0781 -185.0738,0.3247 c -169.365,0.2972 -185.4407,0.1507 -189.3942,-1.7254 -3.4821,-1.6523 -5.2821,-4.0372 -9.2772,-12.29098 -2.7263,-5.6325 -4.9569,-11.38958 -4.9569,-12.79353 0,-6.6371 10.3995,-13.05234 17.2739,-10.65592 1.8971,0.66132 7.2166,3.72905 11.8212,6.8172 4.6045,3.08814 10.9225,6.32892 14.0399,7.20172 7.3881,2.06853 9.2966,0.41666 13.8071,-11.95064 3.8594,-10.58158 3.4933,-13.05215 -1.9341,-13.05215 -3.2247,0 -3.9347,0.57115 -4.553,3.66245 -1.3005,6.50265 -5.3336,9.02616 -13.732,8.59221 l -7.348,-0.37966 -0.625,-5.625 -0.625,-5.625 -21.25,-0.625 -21.24999,-0.625 0,-3.125 0,-3.125 19.99999,-0.625 c 11,-0.34375 20.7031,-1.08008 21.5625,-1.63628 3.6456,-2.35952 -0.6541,-15.02405 -6.3251,-18.62976 -0.8181,-0.52012 -18.3624,-0.96097 -38.98739,-0.97966 -50.8441,-0.046 -49.8524,0.26156 -82.5,-25.59019 -20.187,-15.9849 -24.47162,-18.54164 -26.25,-15.66411 -1.47625,2.38856 -4.68838,1.22046 -10.86537,-3.95126 -5.67875,-4.75453 -6.14675,-5.5509 -5.44863,-9.27217 l 0.76375,-4.07092 -52.84987,-41.4851 c -29.0675,-22.8168 -55.459,-44.20905 -58.64788,-47.53833 -10.25375,-10.70503 -9.827,-6.06086 -9.827,-106.94851 0,-54.8485 -0.46837,-90.3029 -1.219,-92.2773 -0.73088,-1.9222 -2.19112,-3.2064 -3.64587,-3.2064 -3.12513,0 -3.344,-0.8168 -2.841,-10.5992 l 0.41925,-8.1508 15.20575,-0.019 c 8.36325,-0.01 15.99612,-0.5195 16.962,-1.1309 1.143,-0.7237 2.06712,-4.7536 2.64725,-11.5434 0.90975,-10.6504 4.85237,-24.0188 10.53975,-35.7379 3.84662,-7.9262 4.00125,-11.0422 0.637,-12.8427 -1.39963,-0.749 -6.15075,-4.9679 -10.55813,-9.3753 -6.29537,-6.2953 -10.77462,-9.3451 -20.89275,-14.2251 -11.259,-5.4303 -87.07675,-38.1853 -148.35325,-64.092 -11.26075,-4.7608 -28.03037,-12.0035 -37.266,-16.0948 l -16.792,-7.4388 -17.1715,0 c -18.86075,0 -20.1715,0.4572 -20.1715,7.0357 0,3.8974 -2.63062,7.9643 -5.15162,7.9643 -0.69913,0 -1.0625,3.0792 -0.84825,7.1875 l 0.37487,7.1875 37.5,0.6512 c 20.625,0.3581 38.625,1.1343 40,1.7249 1.375,0.5905 18.30075,8.0585 37.61275,16.5955 35.025,15.483 35.14938,15.5516 49.71563,27.4287 8.89462,7.2526 17.88999,13.3946 23.01225,15.7125 11.56887,5.2354 14.87287,7.8203 19.75924,15.4591 l 4.218,6.5937 0.341,127.9172 c 0.33225,124.5957 0.40538,128.04705 2.8155,132.91722 2.204,4.45375 2.52213,8.15473 2.91113,33.87633 0.34012,22.48751 -0.0125,31.46097 -1.57925,40.5585 -2.527,14.6436 -10.533,34.9667 -18.09825,45.94243 -4.49038,6.51473 -60.934,74.10093 -77.583,92.89882 -8.90913,10.05901 -33.56538,24.42399 -50.625,29.49469 -7.12675,2.1183 -28.15413,2.2356 -422.5,2.3586 -228.249996,0.071 -424.84698,-0.324 -436.88217,-0.8782 z M 1181.7098,845.01135 c 2.3377,-3.43199 2.7435,-4.96138 1.7396,-6.55395 -1.1504,-1.82509 -4.9358,-2.1201 -31.1741,-2.42954 -16.4255,-0.19371 -31.1302,-0.0424 -32.6771,0.33631 -3.5796,0.8763 -3.6704,4.67514 -0.2274,9.51043 l 2.5851,3.63046 28.3524,-0.009 28.3524,-0.009 3.0491,-4.47662 z m 80.3528,1.57082 c 7.2147,-3.19601 10.0545,-5.77731 8.7141,-7.92091 -1.187,-1.89835 -29.9924,-10.7691 -32.2084,-9.91872 -2.656,1.01922 -2.1955,3.91506 2.0313,12.77131 l 3.8139,7.99121 5.5254,0 c 3.0776,0 8.4488,-1.29496 12.1237,-2.92289 z M 998.68751,769.47552 c 4.27399,-4.72268 1.0843,-5.56036 -22.8993,-6.01391 l -22.1275,-0.41844 -7.5,-7.12754 c -4.125,-3.92013 -19.3125,-16.46318 -33.75,-27.87345 -14.4375,-11.41025 -36.9375,-29.23463 -50,-39.60975 l -23.75,-18.86382 -9.1495,-0.0317 c -8.38375,-0.0291 -9.116,0.17224 -8.75,2.40625 0.2345,1.43126 11.49737,11.24749 27.2745,23.77139 26.807,21.27941 26.88825,21.33156 32.11175,20.62175 4.744,-0.64468 5.7435,-0.26819 10.625,4.00237 2.9635,2.5927 5.6425,4.89193 5.95325,5.1094 0.31075,0.21748 0.43937,2.26105 0.28575,4.54126 -0.26713,3.9667 0.60925,4.84254 20.28035,20.26833 26.8368,21.0451 28.4957,21.66896 57.7377,21.71432 19.8875,0.0309 21.5275,-0.1422 23.658,-2.49638 z m 250.84799,-0.72458 c 2.1315,-1.10228 12.9317,-7.96746 24.0003,-15.25598 11.0687,-7.28851 21.2499,-13.88736 22.6249,-14.66411 1.375,-0.77675 13.6781,-8.63255 27.3404,-17.45734 20.669,-13.35064 25.1426,-16.76844 26.6402,-20.35267 1.9929,-4.76964 1.4555,-7.76578 -1.393,-7.76578 -2.896,0 -44.9521,17.52492 -45.9967,19.16699 -0.5103,0.80191 -0.9363,4.69239 -0.9468,8.64551 l -0.019,7.1875 -4.125,0 c -4.7824,0 -7.125,1.8779 -7.125,5.71145 0,2.11093 -0.934,2.86301 -4.2174,3.39583 -2.3195,0.37641 -14.2726,6.03692 -26.5625,12.57892 -24.0315,12.7922 -26.4422,15.10451 -19.6091,18.80878 4.4518,2.41332 4.7235,2.41335 9.3888,9e-4 z m -449.62479,-122.33207 0,-7.42693 -10.12863,-8.18094 c -15.5365,-12.54889 -15.06862,-11.36622 -16.03512,-40.53913 -0.61675,-18.6161 -1.3055,-25.7901 -2.74263,-28.5691 -1.64474,-3.1806 -1.90574,-11.6088 -1.82687,-58.9765 0.0738,-44.3686 -0.23875,-55.7179 -1.58525,-57.5594 -4.37175,-5.9787 -4.5565,-2.3647 -4.5565,89.119 0,82.99603 0.162,89.93168 2.1875,93.66409 2.623,4.83344 30.0135,26.796 32.759,26.26726 1.48,-0.28501 1.9285,-2.09884 1.9285,-7.79835 z"
         id="path4149"
         inkscape:connector-curvature="0" />
    </g>
  </g>
</svg>
