<?xml version="1.0" encoding="UTF-8" standalone="no"?>
<svg
   xmlns:dc="http://purl.org/dc/elements/1.1/"
   xmlns:cc="http://creativecommons.org/ns#"
   xmlns:rdf="http://www.w3.org/1999/02/22-rdf-syntax-ns#"
   xmlns:svg="http://www.w3.org/2000/svg"
   xmlns="http://www.w3.org/2000/svg"
   id="svg8"
   version="1.1"
   viewBox="0 0 28.500126 7.1193266"
   width="85.5">
  <defs
     id="defs2" />
  <metadata
     id="metadata5">
    <rdf:RDF>
      <cc:Work
         rdf:about="">
        <dc:format>image/svg+xml</dc:format>
        <dc:type
           rdf:resource="http://purl.org/dc/dcmitype/StillImage" />
        <dc:title></dc:title>
      </cc:Work>
    </rdf:RDF>
  </metadata>
  <g
     transform="translate(228.51291,-222.3376)"
     id="layer1">
    <path
       id="path826"
       d="m -207.63557,229.28954 -0.37527,-0.16974 -0.0584,-0.0867 -0.0585,-0.0867 -0.10653,0.006 c -0.0586,0.004 -0.47344,0.0101 -0.92189,0.0145 -0.79878,0.008 -0.91191,0.003 -0.91191,-0.0393 0,-0.008 -0.009,-0.0137 -0.021,-0.0137 -0.0115,0 -0.0287,-0.009 -0.0381,-0.0206 -0.009,-0.0114 -0.0626,-0.0249 -0.11863,-0.0301 -0.0774,-0.007 -0.11084,-0.0181 -0.14073,-0.0458 -0.0479,-0.0443 -0.56644,-0.40164 -0.60353,-0.41587 -0.0168,-0.006 -0.0229,-0.004 -0.0166,0.006 0.005,0.009 -3.5e-4,0.0246 -0.0129,0.035 -0.0263,0.0218 -0.0422,0.0215 -2.01609,-0.0394 -0.40594,-0.0125 -1.08311,-0.0289 -1.50481,-0.0365 -0.5056,-0.009 -0.77226,-0.0192 -0.78298,-0.0299 -0.009,-0.009 -0.0445,-0.0162 -0.079,-0.0162 -0.0819,0 -0.12896,-0.0467 -0.12896,-0.12796 0,-0.0447 -0.007,-0.0593 -0.0304,-0.0655 -0.0286,-0.007 -0.0304,-0.0208 -0.0304,-0.22589 v -0.21794 l -0.053,0.009 c -0.0359,0.006 -0.0655,3.9e-4 -0.0919,-0.0169 l -0.039,-0.0255 -0.34409,0.25359 c -0.18925,0.13948 -0.36599,0.26275 -0.39276,0.27394 -0.0374,0.0156 -0.17342,0.0205 -0.58741,0.0209 -0.29631,3.4e-4 -0.91577,0.005 -1.37658,0.0107 l -0.83784,0.0101 -0.0713,-0.0418 -0.0713,-0.0418 -0.10739,0.0619 -0.10738,0.0619 -0.43228,-0.01 c -0.35444,-0.008 -0.43378,-0.0136 -0.44063,-0.0315 -0.005,-0.012 -0.005,-0.027 -0.001,-0.0334 0.004,-0.006 0.20088,-0.009 0.43757,-0.005 l 0.43036,0.006 0.0742,-0.0448 0.0742,-0.0449 -0.0742,-0.0423 c -0.0408,-0.0233 -0.0851,-0.0557 -0.0985,-0.0721 -0.0236,-0.029 -0.0462,-0.0297 -0.77643,-0.0271 -0.99055,0.004 -1.04682,-0.003 -1.3769,-0.17272 -0.19963,-0.10237 -0.22327,-0.10469 -0.28513,-0.0279 -0.0153,0.019 -0.0336,0.031 -0.0405,0.0267 -0.007,-0.004 -0.0152,-3e-4 -0.0183,0.009 -0.004,0.0106 -0.0555,-0.003 -0.14207,-0.036 -0.12403,-0.0479 -0.13691,-0.0502 -0.14119,-0.0254 -0.003,0.015 -0.0131,0.0343 -0.0233,0.0427 -0.0284,0.0236 -0.37285,0.0781 -0.49331,0.0781 -0.0811,0 -0.10914,0.006 -0.11578,0.0228 -0.0132,0.0345 -2.56653,0.0342 -2.79856,-3.9e-4 -0.20236,-0.0301 -0.21366,-0.034 -0.20434,-0.0696 0.006,-0.0239 -0.003,-0.0307 -0.0516,-0.0385 -0.0325,-0.005 -0.0558,-0.0149 -0.0517,-0.0215 0.009,-0.0138 -0.0259,-0.0217 -0.20205,-0.0462 -0.10667,-0.0149 -0.12555,-0.0218 -0.12555,-0.0462 0,-0.0257 0.0126,-0.0287 0.1187,-0.0287 0.0653,0 0.12521,-0.006 0.13316,-0.0142 0.008,-0.008 0.0419,-0.0164 0.0753,-0.019 0.0673,-0.005 0.0872,-0.0467 0.0266,-0.0553 -0.048,-0.007 -0.0428,-0.0443 0.008,-0.0545 0.023,-0.005 0.12746,-0.0193 0.23208,-0.0326 0.10463,-0.0132 0.19673,-0.0305 0.20469,-0.0384 0.008,-0.008 0.0439,-0.0143 0.0799,-0.0143 0.0458,0 0.0654,-0.006 0.0654,-0.0212 0,-0.033 0.0357,-0.0397 0.21126,-0.0397 0.0897,0 0.16962,-0.006 0.17757,-0.0136 0.0249,-0.0234 0.17103,-0.0473 0.28983,-0.0473 h 0.11408 l -0.005,-0.10272 -0.005,-0.10273 -0.0951,-0.005 c -0.059,-0.003 -0.0951,0.002 -0.0951,0.0114 0,0.009 -0.0308,0.0159 -0.0685,0.0159 -0.0377,0 -0.0685,-0.007 -0.0685,-0.0152 0,-0.01 -0.10883,-0.0152 -0.29604,-0.0152 -0.18886,0 -0.3098,-0.006 -0.33405,-0.0173 -0.0388,-0.0177 -0.07,-0.0816 -0.07,-0.14354 0,-0.0378 -0.0151,-0.0431 -0.17197,-0.061 -0.0485,-0.006 -0.0977,-0.0195 -0.10924,-0.0311 -0.0158,-0.0158 -0.0733,-0.021 -0.23392,-0.021 h -0.21293 l -0.01,0.0495 c -0.0319,0.16472 -0.1651,0.38651 -0.30104,0.50138 -0.20415,0.1725 -0.39935,0.24604 -0.65054,0.24508 -0.38255,-0.001 -0.70616,-0.20278 -0.8802,-0.54756 -0.0659,-0.13055 -0.0939,-0.26805 -0.0932,-0.45855 6.2e-4,-0.18586 0.023,-0.29658 0.0881,-0.43578 0.0841,-0.17965 0.27402,-0.38955 0.3323,-0.36719 0.0341,0.0131 0.15838,-0.062 0.14787,-0.0894 -0.006,-0.0158 0.0255,-0.0323 0.11853,-0.0621 0.17464,-0.056 0.39425,-0.0582 0.5605,-0.006 0.21155,0.0669 0.40245,0.20167 0.51703,0.36502 0.0771,0.1099 0.14727,0.26499 0.16083,0.35544 l 0.0104,0.0695 h 0.21133 c 0.19688,0 0.21132,-0.002 0.21132,-0.0287 0,-0.0553 0.0638,-0.0778 0.22013,-0.0778 h 0.14511 v -0.15218 -0.15218 h -0.14557 c -0.0801,0 -0.15813,-0.007 -0.17347,-0.0149 -0.0248,-0.0132 -0.0291,-0.0453 -0.0388,-0.28534 l -0.0109,-0.27041 -0.0933,0.002 -0.0933,0.002 -0.005,0.0841 c -0.006,0.10476 -0.0245,0.1227 -0.1091,0.10369 -0.0351,-0.008 -0.0675,-0.018 -0.072,-0.0226 -0.005,-0.005 -0.008,-0.16045 -0.007,-0.34643 0.001,-0.25594 0.006,-0.34124 0.0209,-0.35086 0.0107,-0.007 0.0502,-0.0109 0.0879,-0.009 0.0676,0.004 0.0686,0.005 0.0761,0.0648 l 0.008,0.0609 0.25495,0.004 c 0.20475,0.003 0.26378,-3.9e-4 0.2998,-0.019 0.0339,-0.0175 0.0968,-0.0232 0.25766,-0.0232 h 0.2128 l 0.005,-0.0419 c 0.005,-0.04 0.009,-0.0419 0.0885,-0.0419 0.0752,0 0.0842,0.003 0.0886,0.0342 0.003,0.0188 0.0135,0.0342 0.0239,0.0342 0.0105,0 0.13107,-0.0411 0.26795,-0.0913 0.28933,-0.10615 0.35285,-0.11377 0.38764,-0.0465 0.02,0.0387 0.033,0.0455 0.0955,0.0495 0.0655,0.004 0.0728,0.008 0.077,0.045 0.003,0.0264 0.0162,0.0434 0.038,0.0493 0.0591,0.0158 0.0694,0.0103 0.0743,-0.0401 0.004,-0.0401 0.0121,-0.0503 0.0436,-0.054 0.0269,-0.003 0.044,-0.0183 0.0557,-0.0495 0.0149,-0.0395 0.0243,-0.0449 0.0782,-0.0449 0.0348,0 0.1415,0.0295 0.24744,0.0685 0.19285,0.0709 0.3027,0.0875 0.3027,0.0456 0,-0.0178 0.0211,-0.023 0.0951,-0.0236 0.1122,-9.2e-4 0.25725,-0.0196 0.38426,-0.0494 0.0502,-0.0118 0.13009,-0.0263 0.17749,-0.0322 0.0786,-0.01 0.0871,-0.008 0.0961,0.0206 0.01,0.0306 0.0193,0.0314 0.41519,0.0314 h 0.40523 l -0.24266,-0.2341 c -0.13346,-0.12875 -0.23924,-0.23769 -0.23505,-0.24209 0.007,-0.007 0.62964,-0.0151 0.73048,-0.01 0.0209,10e-4 0.70232,-0.003 1.51421,-0.009 l 1.47617,-0.0113 0.1598,-0.15569 c 0.0879,-0.0856 0.17615,-0.16426 0.19615,-0.17473 0.0277,-0.0145 0.1961,-0.0185 0.70765,-0.0168 0.62028,0.002 0.67591,0.004 0.73216,0.0307 0.0335,0.0156 0.10008,0.0329 0.148,0.0385 0.0479,0.006 0.17289,0.0256 0.2777,0.0445 0.16546,0.0299 0.19873,0.041 0.2524,0.0841 l 0.0618,0.0497 0.90837,-0.0385 0.90838,-0.0385 0.19783,-0.071 0.19784,-0.071 0.49079,0.007 0.49079,0.007 v -0.0433 c 0,-0.0283 0.008,-0.0433 0.0228,-0.0433 0.0152,0 0.0228,0.0152 0.0228,0.0457 v 0.0456 h 0.15979 0.1598 v -0.038 c 0,-0.0209 -0.008,-0.038 -0.0173,-0.038 -0.01,0 -0.0249,-0.009 -0.0342,-0.0203 -0.009,-0.0111 -0.1162,-0.0425 -0.23756,-0.0696 -0.12137,-0.0272 -0.23265,-0.0527 -0.2473,-0.0569 -0.0241,-0.007 -0.0266,-0.0335 -0.0266,-0.27952 0,-0.16492 -0.006,-0.27571 -0.0152,-0.28141 -0.009,-0.006 -0.0152,-0.11139 -0.0152,-0.26612 v -0.25672 l 0.0799,-0.009 c 0.0439,-0.005 0.19576,-0.0159 0.33736,-0.0249 0.17683,-0.0112 0.26726,-0.0231 0.28873,-0.0381 0.0172,-0.012 0.0417,-0.0218 0.0545,-0.0218 0.0128,8e-5 0.0404,-0.0197 0.0613,-0.0439 0.0376,-0.0436 0.0393,-0.0439 0.14457,-0.0314 0.0586,0.007 0.21556,0.0131 0.34881,0.0135 l 0.24227,7.8e-4 0.0886,-0.0571 c 0.0487,-0.0314 0.0887,-0.0626 0.0887,-0.0694 0,-0.007 -0.007,-0.008 -0.0151,-0.003 -0.009,0.006 -0.0152,-0.0125 -0.0152,-0.0448 v -0.0542 h 1.67401 c 1.66386,0 1.67401,1.7e-4 1.67401,0.0304 0,0.0167 0.009,0.0307 0.019,0.0309 0.0674,0.002 0.24683,0.0322 0.26166,0.0445 0.0122,0.0101 0.026,0.005 0.0435,-0.0151 0.0141,-0.0164 0.0426,-0.0299 0.0635,-0.0299 0.0208,0 0.18698,0.0544 0.36919,0.1209 0.4305,0.15711 0.45298,0.16272 1.92653,0.4806 0.48495,0.10461 0.82057,0.17008 0.84593,0.16501 0.0274,-0.005 0.0505,3e-5 0.0663,0.0158 0.0133,0.0133 0.0336,0.0242 0.0451,0.0242 0.0361,0 0.0574,0.0345 0.0574,0.0927 v 0.0562 l 0.18643,0.0337 c 0.25665,0.0464 0.56684,0.10956 0.96255,0.19609 0.38483,0.0841 0.3533,0.0919 0.35611,-0.0874 0.001,-0.0816 0.005,-0.0953 0.0256,-0.0875 0.0132,0.005 0.0338,0.009 0.0457,0.009 0.0167,0 0.0216,0.0256 0.0216,0.11311 0,0.0945 0.004,0.11442 0.0266,0.1211 0.0942,0.0283 0.9733,0.17821 1.06084,0.18095 0.10654,0.003 0.10719,0.003 0.11198,-0.0385 0.004,-0.0322 0.0129,-0.0419 0.0401,-0.0419 0.0394,0 0.0535,0.0328 0.0538,0.12555 l 2.2e-4,0.0571 h 0.13392 c 0.0839,0 0.14075,-0.007 0.15218,-0.0183 0.0103,-0.0103 0.0183,-0.0599 0.0183,-0.11414 0,-0.0751 0.005,-0.0959 0.0228,-0.0959 0.0181,0 0.0228,0.0217 0.0228,0.10387 0,0.0889 -0.005,0.10865 -0.0352,0.13697 -0.0194,0.0182 -0.0536,0.0331 -0.0761,0.0331 -0.0253,0 -0.0416,0.009 -0.0428,0.0228 -0.007,0.0809 -0.0168,0.0758 0.15789,0.0804 0.0921,0.002 0.16359,0.0108 0.16359,0.019 0,0.008 0.0205,0.0147 0.0457,0.0147 0.0406,0 0.0456,0.005 0.0456,0.0456 0,0.0406 -0.005,0.0457 -0.0456,0.0457 -0.0296,0 -0.0457,0.008 -0.0457,0.0219 0,0.0135 -0.0188,0.0237 -0.0495,0.0266 l -0.0495,0.005 0.0568,0.0353 c 0.0404,0.0251 0.061,0.0514 0.0715,0.0913 0.008,0.0308 0.0507,0.45874 0.0946,0.95096 0.0775,0.86852 0.079,0.89641 0.0531,0.9446 -0.0147,0.0273 -0.0452,0.0606 -0.0677,0.0739 -0.0796,0.047 -0.41693,0.13527 -0.5413,0.14159 -0.2159,0.011 -0.14196,0.0223 0.14571,0.0223 h 0.28188 l 0.42415,-0.27392 c 0.23328,-0.15067 0.43955,-0.27393 0.45839,-0.27393 0.0199,0 0.0449,0.0163 0.0597,0.0389 0.0241,0.0367 0.0239,0.041 -0.003,0.0759 -0.0159,0.0203 -0.21728,0.15862 -0.44745,0.3073 l -0.41851,0.27032 -0.61096,0.004 -0.61096,0.004 -0.17099,0.18974 -0.17099,0.18973 h -0.074 c -0.0681,0 -0.0736,0.003 -0.0688,0.0343 l 0.005,0.0342 0.79364,0.004 0.79364,0.004 v 0.26619 c 0,0.1464 -0.005,0.26617 -0.0114,0.26616 -0.006,-1e-5 -0.009,0.12306 -0.007,0.27348 l 0.004,0.27349 -0.0405,0.0101 c -0.0223,0.006 -0.24683,0.005 -0.49906,-7.7e-4 -0.32241,-0.008 -0.45396,-0.006 -0.44297,0.005 0.009,0.009 0.12769,0.0882 0.26465,0.17625 l 0.24901,0.16014 h 0.49883 c 0.27435,0 0.50966,0.004 0.5229,0.009 0.0272,0.0104 0.0327,0.0749 0.008,0.0904 -0.0294,0.0182 -0.97976,0.0256 -1.04337,0.008 -0.0324,-0.009 -0.21289,-0.11551 -0.40118,-0.23694 l -0.34234,-0.22079 h -0.16242 c -0.0893,0 -0.17326,0.004 -0.1865,0.009 -0.0199,0.008 -0.0241,0.0377 -0.0241,0.17295 0,0.14211 -0.004,0.16897 -0.0313,0.20346 -0.0413,0.0525 -0.0745,0.0605 -0.54872,0.13177 l -0.40496,0.0609 -2.02996,3e-5 -2.02996,3e-5 -0.12646,0.0761 c -0.095,0.0571 -0.14145,0.0761 -0.18664,0.0761 h -0.0602 l 0.0389,0.0588 c 0.035,0.0529 0.0693,0.0724 0.33882,0.19292 0.5111,0.22857 0.49,0.21791 0.48044,0.24281 -0.005,0.0126 -0.0235,0.0222 -0.0414,0.0214 -0.0179,-8e-4 -0.20149,-0.0778 -0.40788,-0.1712 z m 2.1886,-0.69217 c -0.0139,-0.0153 -0.0252,-0.0354 -0.0252,-0.0446 0,-0.009 -0.0108,-0.0275 -0.0239,-0.0406 -0.0131,-0.0131 -0.0166,-0.0239 -0.008,-0.0239 0.009,0 0.0163,-0.0103 0.0163,-0.0228 0,-0.0199 -0.0732,-0.0228 -0.56764,-0.0228 -0.3972,0 -0.57274,-0.005 -0.58461,-0.017 -0.0109,-0.0109 -0.0835,-0.0161 -0.20437,-0.0144 l -0.1874,0.003 -0.17152,0.0996 c -0.0943,0.0548 -0.17152,0.10235 -0.17152,0.1057 0,0.003 0.43934,0.006 0.97632,0.006 0.94489,0 0.97552,-9e-4 0.95115,-0.0278 z m 1.19227,-0.11674 v -0.14458 h -0.12175 c -0.0837,0 -0.12174,0.006 -0.12174,0.018 0,0.01 -0.0149,0.0339 -0.0331,0.0533 -0.0324,0.0345 -0.0391,0.0352 -0.3348,0.0352 -0.25805,0 -0.30172,0.003 -0.30172,0.0228 0,0.0126 0.009,0.0234 0.019,0.024 0.0152,9.6e-4 0.0152,0.003 0,0.009 -0.0105,0.004 -0.019,0.0164 -0.019,0.0272 0,0.0107 -0.0142,0.0376 -0.0315,0.0596 l -0.0315,0.0401 h 0.48809 0.48809 z m 0.42611,0.0274 c 0,-0.0911 -0.004,-0.11312 -0.0183,-0.0989 -0.0104,0.0104 -0.0599,0.0183 -0.11452,0.0183 -0.0948,0 -0.0964,-7e-4 -0.10538,-0.0456 -0.006,-0.0312 -0.0181,-0.0457 -0.0377,-0.0457 -0.0259,0 -0.0285,0.0134 -0.0285,0.14458 v 0.14457 h 0.15218 0.15218 z m 0.6061,0.0643 c 0.18977,-0.0291 0.3673,-0.0568 0.3945,-0.0616 l 0.0495,-0.009 v -0.12209 c 0,-0.10926 -0.003,-0.12121 -0.0266,-0.11383 -0.0146,0.005 -0.0775,0.0188 -0.13965,0.0318 -0.0908,0.019 -0.11544,0.0198 -0.12532,0.004 -0.008,-0.0132 -0.0124,-0.0137 -0.0125,-0.002 -1.7e-4,0.0123 -0.0702,0.0196 -0.23231,0.024 -0.20332,0.006 -0.24198,0.0108 -0.31198,0.0424 l -0.0799,0.0361 v 0.11112 0.11111 h 0.0696 c 0.0383,0 0.22493,-0.0238 0.4147,-0.0529 z m -19.29852,-1.12824 c 0.003,-0.009 -0.12823,-0.0898 -0.29174,-0.17881 l -0.29728,-0.16186 h -0.40333 -0.40333 v 0.0913 0.0913 h 0.0596 c 0.0342,0 0.0623,0.008 0.0659,0.019 0.005,0.0143 0.11615,0.0213 0.45401,0.0283 0.41366,0.009 0.67369,0.0324 0.72928,0.0668 0.009,0.006 0.0121,0.0238 0.007,0.0404 -0.008,0.0259 -0.004,0.0296 0.0324,0.0254 0.0231,-0.003 0.0446,-0.0126 0.0476,-0.0219 z"
       style="fill:#000000;stroke-width:0.01521826" />
  </g>
</svg>
