<?xml version="1.0" encoding="UTF-8" standalone="no"?>
<svg
   xmlns:dc="http://purl.org/dc/elements/1.1/"
   xmlns:cc="http://creativecommons.org/ns#"
   xmlns:rdf="http://www.w3.org/1999/02/22-rdf-syntax-ns#"
   xmlns:svg="http://www.w3.org/2000/svg"
   xmlns="http://www.w3.org/2000/svg"
   version="1.1"
   id="svg2"
   viewBox="0 0 16.000226 2.7468169"
   width="48">
  <defs
     id="defs4" />
  <metadata
     id="metadata7">
    <rdf:RDF>
      <cc:Work
         rdf:about="">
        <dc:format>image/svg+xml</dc:format>
        <dc:type
           rdf:resource="http://purl.org/dc/dcmitype/StillImage" />
        <dc:title></dc:title>
      </cc:Work>
    </rdf:RDF>
  </metadata>
  <g
     transform="translate(968.65868,-713.58286)"
     id="layer1">
    <path
       id="path4147"
       d="m -961.96621,716.19727 c -0.71442,-0.072 -1.32373,-0.13553 -1.35402,-0.14124 l -0.0551,-0.0104 -0.0369,0.0401 c -0.0348,0.0378 -0.0387,0.0398 -0.0698,0.0347 -0.0523,-0.009 -0.0533,-0.01 -0.0593,-0.0549 -0.003,-0.0237 -0.01,-0.0484 -0.0153,-0.055 -0.0111,-0.0139 -0.12042,-0.0396 -0.16814,-0.0396 -0.0178,0 -0.0337,-0.004 -0.0353,-0.008 -0.002,-0.005 -0.0564,-0.0208 -0.12193,-0.0361 -0.0882,-0.0206 -0.11998,-0.0251 -0.12257,-0.0173 -0.005,0.0153 -0.0284,0.0128 -0.0411,-0.004 -0.01,-0.0131 -0.0294,-0.0152 -0.16341,-0.0168 -0.0839,-10e-4 -0.16595,-0.003 -0.18241,-0.004 -0.0165,-9.7e-4 -0.0569,0.004 -0.0898,0.0119 -0.0329,0.008 -0.11571,0.0218 -0.18398,0.0318 -0.11512,0.0168 -0.15327,0.018 -0.52591,0.0156 -0.38481,-0.002 -0.40325,-0.003 -0.43672,-0.02 -0.0192,-0.01 -0.14947,-0.0978 -0.28943,-0.19598 -0.28255,-0.19818 -0.29403,-0.20955 -0.26757,-0.26503 0.008,-0.0163 0.0258,-0.0356 0.04,-0.043 0.0143,-0.007 0.0962,-0.0284 0.18204,-0.0468 0.37232,-0.0796 0.79769,-0.17325 0.80078,-0.17628 0.004,-0.004 -0.0635,-0.0338 -0.12734,-0.0562 -0.0259,-0.009 -0.4685,-0.10671 -0.98362,-0.217 -0.80526,-0.1724 -0.95088,-0.20133 -1.03852,-0.20633 l -0.10193,-0.006 -0.0603,-0.0525 c -0.0332,-0.0289 -0.0638,-0.06 -0.0681,-0.0691 -0.006,-0.0126 -0.67521,-0.61219 -1.07998,-0.96743 -0.0224,-0.0197 -0.0389,-0.0374 -0.0366,-0.0393 0.006,-0.005 0.88864,0.0764 0.9617,0.0886 0.1133,0.019 0.0713,6e-5 1.63005,0.73675 l 0.26164,0.12366 0.45408,0.004 0.45407,0.005 0.003,-0.0182 c 0.002,-0.017 0.0216,-0.0214 0.28906,-0.0672 l 0.28647,-0.049 0.16247,0.002 0.16248,0.002 0.18317,-0.0585 c 0.18098,-0.0578 0.18389,-0.0591 0.24371,-0.10974 0.0333,-0.0282 0.0703,-0.0563 0.0821,-0.0625 0.0416,-0.0218 0.33358,-0.033 0.9447,-0.036 l 0.59859,-0.003 0.33552,0.0306 0.33551,0.0306 0.032,-0.0218 c 0.0304,-0.0206 0.0381,-0.0218 0.14764,-0.0221 0.1099,-2.9e-4 0.11685,-10e-4 0.14125,-0.0213 l 0.0256,-0.021 -0.18278,-4e-5 -0.18279,-4e-5 0.005,-0.0267 c 0.003,-0.0147 0.005,-0.0436 0.005,-0.0641 0,-0.0244 0.005,-0.0427 0.0151,-0.0525 0.008,-0.008 0.12028,-0.0586 0.24881,-0.11173 l 0.2337,-0.0966 0.0783,0.004 c 0.043,0.002 0.19372,0.0133 0.33481,0.0248 0.23399,0.0191 0.25902,0.0198 0.28468,0.008 0.024,-0.0112 0.0321,-0.0115 0.0556,-0.002 0.0151,0.006 0.0428,0.0132 0.0617,0.0154 0.0188,0.002 0.0379,0.007 0.0423,0.0117 0.004,0.004 0.0343,0.008 0.0663,0.008 0.042,0 0.0575,0.003 0.056,0.0107 -0.002,0.008 0.0524,0.0107 0.2476,0.0107 l 0.24974,-3e-5 0.003,0.0257 c 10e-4,0.0141 10e-4,0.0401 -5.2e-4,0.0578 l -0.003,0.0321 -0.0525,-0.005 c -0.062,-0.006 -0.0722,-0.006 -0.28343,-0.005 l -0.16247,0.001 -0.0107,0.023 c -0.006,0.0127 -0.0107,0.0393 -0.0107,0.0592 0,0.0598 -0.0138,0.063 -0.26854,0.0633 l -0.2146,2.3e-4 0.0299,0.0252 c 0.0299,0.0251 0.0302,0.0252 0.14552,0.0254 0.1105,2.2e-4 0.11705,10e-4 0.14863,0.0227 0.0327,0.0222 0.034,0.0223 0.1179,0.014 0.0771,-0.008 0.0874,-0.0108 0.11218,-0.0343 0.04,-0.0379 0.0734,-0.0449 0.20806,-0.0442 0.0965,5.3e-4 0.12636,-0.002 0.1481,-0.0134 0.015,-0.008 0.0616,-0.0183 0.10355,-0.0235 0.0647,-0.008 0.0786,-0.007 0.0913,0.003 0.0357,0.0302 0.0775,0.0328 0.54013,0.0328 l 0.45472,0 0.33353,0.0349 c 0.22933,0.024 0.33681,0.0322 0.34402,0.0262 0.006,-0.005 0.0217,-0.0396 0.0355,-0.0774 0.0137,-0.0378 0.029,-0.0702 0.034,-0.0721 0.005,-0.002 0.0263,-10e-4 0.0473,0.002 0.0381,0.005 0.0385,0.006 0.0812,0.0842 0.0236,0.0434 0.0487,0.0842 0.0558,0.0906 0.009,0.008 0.12317,0.023 0.36344,0.0478 1.25526,0.12959 1.23244,0.12668 1.33347,0.17038 0.0285,0.0123 0.43665,0.2249 0.90697,0.47238 0.77444,0.4075 0.85672,0.44887 0.872,0.43841 0.009,-0.006 0.0222,-0.0115 0.0288,-0.0115 0.0142,0 0.1165,0.0773 0.14675,0.1109 0.0118,0.0131 0.0745,0.0516 0.13948,0.0857 0.0664,0.0348 0.11646,0.0662 0.11435,0.0716 -0.002,0.005 -0.035,0.0552 -0.0732,0.11087 -0.0382,0.0557 -0.0694,0.1028 -0.0694,0.10475 0,0.002 0.0304,0.004 0.0675,0.004 0.049,0 0.0687,0.003 0.072,0.0116 0.004,0.009 0.0479,0.0119 0.22539,0.0129 0.2075,0.001 0.48022,0.0139 0.48914,0.0228 0.0178,0.0178 -0.11704,0.0282 -0.37724,0.0291 -0.1122,3.7e-4 -0.17744,0.004 -0.17744,0.009 0,0.005 -0.009,0.009 -0.0209,0.009 -0.0115,0 -0.0232,-0.004 -0.0262,-0.009 -0.009,-0.0144 -0.10661,-0.0107 -0.11235,0.004 -0.003,0.009 -0.017,0.0128 -0.0425,0.0128 -0.0207,0 -0.0376,0.003 -0.0376,0.007 0,0.01 -0.12082,0.0273 -0.18821,0.0272 -0.0454,-4e-5 -0.0575,0.003 -0.0658,0.0161 -0.008,0.0127 -0.0251,0.0175 -0.0808,0.0224 -0.0678,0.006 -0.0777,0.01 -0.23505,0.0907 -0.15727,0.0809 -0.16662,0.0845 -0.2187,0.0845 -0.0299,0 -0.43714,-0.0306 -0.90493,-0.0681 -0.46778,-0.0374 -1.16798,-0.0935 -1.556,-0.12456 -0.43925,-0.0352 -0.72323,-0.0545 -0.75251,-0.0511 -0.21453,0.0245 -1.77538,0.2386 -1.77876,0.244 -0.002,0.004 -0.0146,0.01 -0.0272,0.0127 -0.0125,0.003 -0.0295,0.0131 -0.0376,0.0221 -0.0126,0.0139 -0.0269,0.0163 -0.0962,0.0163 -0.0448,0 -0.0933,-0.004 -0.1077,-0.009 -0.0213,-0.007 -0.1226,0.004 -0.5387,0.0599 -0.28183,0.038 -0.53773,0.0686 -0.56866,0.0681 -0.0309,-5.3e-4 -0.64076,-0.0598 -1.35518,-0.13182 z"
       style="fill:#000000" />
  </g>
</svg>
