<?xml version="1.0" encoding="UTF-8" standalone="no"?>
<!-- Created with Inkscape (http://www.inkscape.org/) -->

<svg
   xmlns:dc="http://purl.org/dc/elements/1.1/"
   xmlns:cc="http://creativecommons.org/ns#"
   xmlns:rdf="http://www.w3.org/1999/02/22-rdf-syntax-ns#"
   xmlns:svg="http://www.w3.org/2000/svg"
   xmlns="http://www.w3.org/2000/svg"
   xmlns:sodipodi="http://sodipodi.sourceforge.net/DTD/sodipodi-0.dtd"
   xmlns:inkscape="http://www.inkscape.org/namespaces/inkscape"
   width="62"
   height="13.395247"
   id="svg2"
   version="1.1"
   inkscape:version="0.48.5 r10040"
   sodipodi:docname="Aurora.svg">
  <defs
     id="defs4" />
  <sodipodi:namedview
     id="base"
     pagecolor="#ffffff"
     bordercolor="#666666"
     borderopacity="1.0"
     inkscape:pageopacity="0.0"
     inkscape:pageshadow="2"
     inkscape:zoom="15.839192"
     inkscape:cx="37.641855"
     inkscape:cy="4.6793717"
     inkscape:document-units="px"
     inkscape:current-layer="layer1"
     showgrid="false"
     fit-margin-top="0"
     fit-margin-left="0"
     fit-margin-right="0"
     fit-margin-bottom="0"
     inkscape:window-width="1920"
     inkscape:window-height="1018"
     inkscape:window-x="-8"
     inkscape:window-y="-8"
     inkscape:window-maximized="1" />
  <metadata
     id="metadata7">
    <rdf:RDF>
      <cc:Work
         rdf:about="">
        <dc:format>image/svg+xml</dc:format>
        <dc:type
           rdf:resource="http://purl.org/dc/dcmitype/StillImage" />
        <dc:title />
      </cc:Work>
    </rdf:RDF>
  </metadata>
  <g
     inkscape:label="Layer 1"
     inkscape:groupmode="layer"
     id="layer1"
     transform="translate(585.71429,-747.78926)">
    <g
       id="g2996"
       transform="matrix(0.03434986,0,0,0.03434986,-567.16537,764.38252)">
      <path
         style="fill:#000000"
         d="m 869.00003,-94.066389 c -0.825,-0.53316 -6.225,-0.99207 -12,-1.01982 -5.775,-0.0277 -13.2216,-0.63489 -16.5481,-1.34922 -3.3265,-0.71433 -6.9265,-0.98383 -8,-0.5989 -3.6146,1.29604 -22.7936,-0.18794 -46.9519,-3.632931 -13.2,-1.88233 -24.5625,-3.62805 -25.25,-3.87939 -0.6875,-0.25133 -1.25,-1.83223 -1.25,-3.51311 0,-3.46787 0.6013,-3.80113 13.2424,-7.33947 4.2584,-1.19194 7.7459,-2.70614 7.75,-3.3649 0,-0.73857 2.0203,-1.31362 5.2576,-1.5 2.8875,-0.16624 -14.8875,-0.14677 -39.5,0.0433 l -44.75,0.34553 0.01,-2.34553 c 0.01,-2.06915 1.7438,-3.08543 14.75,-8.62476 l 14.7434,-6.27924 16.5471,0.0292 16.547,0.0292 3.9059,-4 c 3.4901,-3.57414 4.4432,-4.01087 8.9529,-4.10209 4.9903,-0.10094 5.0101,-0.11393 1.7638,-1.1542 l -3.2833,-1.05212 0.2833,-10.00842 0.2833,-10.00843 16,-6.79209 16,-6.7921 40.5,0.0308 c 29.8528,0.0227 41.4114,0.35992 43.9666,1.2827 3.2879,1.18737 3.7922,1.04773 9.7838,-2.70895 3.4744,-2.17848 6.1155,-4.16252 5.869,-4.409 -0.2464,-0.24648 -1.3571,0.0383 -2.468,0.63288 -1.3737,0.73518 -18.7588,1.08102 -54.3423,1.08102 l -52.3225,0 -11.2238,-7.5 c -6.1731,-4.125 -11.4576,-7.5 -11.7433,-7.5 -0.2857,0 -0.5261,4.6125 -0.5342,10.25 -0.01,6.16602 -0.5125,11.24609 -1.264,12.75 -1.8432,3.68903 -7.1034,6.03384 -11.0441,4.92311 -5.7477,-1.62006 -6.6772,-3.84567 -6.6772,-15.98844 0,-9.88676 -0.1986,-11.04986 -2.25,-13.1791 -1.2375,-1.28443 -3.7076,-4.46103 -5.489,-7.05912 l -3.2391,-4.72378 -56.87024,0.0436 -56.8702,0.0436 -39.3907,-15.06369 c -21.665,-8.28503 -40.2908,-15.40357 -41.3908,-15.81898 -1.1,-0.41541 -3.0125,-0.59394 -4.25,-0.39673 -2.0768,0.33096 -2.25,0.88039 -2.25,7.13767 l 0,6.77911 -13.25,2.1697 c -7.5884,1.24261 -17.6297,2.16186 -23.5,2.15134 l -10.2534,-0.0182 0,30.34004 c 0,34.91784 -0.7528,39.90686 -8.2258,54.51544 l -4.2742,8.35548 -23.5,9.86982 -23.5,9.86983 -14.75,0.0247 c -9.18313,0.0154 -14.75,-0.35272 -14.75,-0.97531 0,-0.55 -2.475,-1 -5.5,-1 -3.025,0 -5.5,0.45 -5.5,1 0,0.66318 -64.31366,1 -190.94098,1 -126.215301,0 -191.150491,-0.33898 -191.559021,-1 -0.33992,-0.55 -2.39148,-1 -4.5590204,-1 -2.16754,0 -3.94098,0.45 -3.94098,1 0,1.40532 -269.2126986,1.35603 -277.8834486,-0.0509 -3.51089,-0.56968 -7.76607,-1.75076 -9.45594,-2.62463 -2.13455,-1.10381 -3.1877,-1.24322 -3.44988,-0.45667 -0.46825,1.40475 -3.21073,1.50688 -3.21073,0.11957 0,-0.55694 -2.3625,-2.12102 -5.25,-3.47575 -2.8875,-1.35473 -5.925,-2.8636 -6.75,-3.35305 -0.825,-0.48945 -4.0875,-2.07048 -7.25,-3.51339 -3.1625,-1.44291 -5.75,-3.07836 -5.75,-3.63433 0,-0.55598 -0.5625,-1.01524 -1.25,-1.02058 -2.28863,-0.0178 -17.77944,-13.33884 -21.21447,-18.24303 -1.0199,-1.45611 -1.84747,-1.83532 -2.52554,-1.15725 -1.22492,1.22492 -8.00999,0.57677 -8.00999,-0.76516 0,-1.38785 2.12658,-5.21245 3.3354,-5.99863 1.36577,-0.88826 -0.81388,-3.50517 -4.51257,-5.41784 l -2.82283,-1.45972 0,-13.47432 c 0,-9.29613 0.34805,-13.47432 1.12244,-13.47432 0.77551,0 0.73766,-0.46364 -0.12244,-1.5 -0.68469,-0.825 -1.91727,-1.5 -2.73908,-1.5 -1.07502,0 -1.31224,-0.63119 -0.84563,-2.25 0.3567,-1.2375 0.67389,-8.73893 0.70487,-16.66985 0.0372,-9.52777 0.47386,-15.12556 1.28708,-16.5 0.75247,-1.27178 1.07606,-4.4341 0.83266,-8.13748 l -0.39812,-6.05734 -13.67089,-0.23518 c -15.93806,-0.27418 -14.63162,0.53082 -22.71921,-13.99921 -2.64837,-4.75802 -7.04688,-12.16746 -9.77448,-16.46543 l -4.95926,-7.81449 -6.60897,0.62571 c -14.30733,1.35456 -15.10897,1.59094 -15.10897,4.4553 0,1.84917 -2.5648,3.56499 -3.36971,2.2543 -0.23857,-0.38848 -5.34667,-0.56724 -11.35132,-0.39724 -10.89002,0.30831 -10.92195,0.31651 -12.6548,3.25 -1.4333,2.42637 -2.39611,2.94091 -5.50307,2.94091 -3.28778,0 -4.09695,-0.50573 -6.37413,-3.98384 -1.58375,-2.41898 -2.20851,-4.23091 -1.59051,-4.61286 0.55978,-0.34596 0.79416,-1.48412 0.52086,-2.52925 -0.31541,-1.20611 0.20069,-2.27358 1.41288,-2.92232 1.05039,-0.56215 1.9098,-1.68525 1.9098,-2.49577 0,-1.20567 -1.77314,-1.45186 -9.75,-1.35372 -7.61851,0.0937 -13.67121,-0.67711 -27.68665,-3.52603 -20.71304,-4.21036 -22.94229,-5.04618 -23.373,-8.76338 -0.2862,-2.47009 0.0355,-2.72416 4.25,-3.35616 5.03333,-0.75479 6.21048,-2.45667 1.69922,-2.45667 -5.58488,0 -12.13959,-1.28809 -12.14125,-2.38592 -10e-4,-0.78114 4.10796,-1.01346 13.75,-0.77737 14.24371,0.34876 87.8321,-5.32277 89.62224,-6.90727 0.88034,-0.77922 -7.62019,-15.33779 -9.72909,-16.66266 -0.62781,-0.39441 -21.55904,-1.93877 -46.51384,-3.43192 -24.9548,-1.49314 -45.9923,-2.95269 -46.75,-3.24344 -1.757,-0.67423 -1.87089,-7.5474 -0.12763,-7.70296 0.6875,-0.0614 2.92693,-0.20078 4.97652,-0.30985 2.04958,-0.10907 4.03708,-0.50888 4.41666,-0.88846 0.37959,-0.37958 3.09015,-0.69015 6.02349,-0.69015 2.93333,0 5.33333,-0.34855 5.33333,-0.77456 0,-0.42601 -3.2625,-1.2937 -7.25,-1.9282 -3.9875,-0.6345 -11.6375,-2.16154 -17,-3.39341 l -9.75,-2.23977 0,-8.22424 0,-8.22425 5.71358,-1.39448 c 4.703,-1.14783 5.81623,-1.83017 6.29398,-3.85778 0.52667,-2.23525 1.31699,-2.56603 8.53642,-3.57284 l 7.95602,-1.10953 -6.75,-0.14047 c -5.2709,-0.10969 -6.75,-0.46916 -6.75,-1.64047 0,-0.97726 -1.1326,-1.58219 -3.25,-1.73584 -1.7875,-0.12971 18.99666,-0.46721 46.18703,-0.75 l 49.43703,-0.51416 7.28462,-11.47835 c 4.00655,-6.31309 6.95988,-11.75798 6.56297,-12.09976 -1.63048,-1.40401 -74.21328,-6.98152 -90.47165,-6.95215 -9.2125,0.0166 -16.75,-0.36726 -16.75,-0.85311 0,-1.1835 3.60888,-2.08287 8.5,-2.11829 5.0664,-0.0367 7.67871,-1.45053 4.33454,-2.34595 -1.284,-0.34379 -3.34704,-0.63123 -4.58454,-0.63874 -1.66721,-0.0101 -2.24603,-0.59644 -2.23469,-2.26365 0.0331,-4.85953 1.32423,-5.35324 26.54676,-10.15095 14.91844,-2.83772 19.48716,-3.33801 26.25,-2.87448 7.80082,0.53468 8.18793,0.46309 8.18793,-1.51429 0,-1.15979 -0.83708,-2.34118 -1.89728,-2.67768 -1.2445,-0.39499 -1.73062,-1.23951 -1.41289,-2.45453 0.26643,-1.01879 0.003,-2.14979 -0.58506,-2.51332 -0.6886,-0.42558 -0.13811,-2.06835 1.54577,-4.61286 2.30549,-3.48384 3.07875,-3.95189 6.52886,-3.95189 3.32254,0 4.1709,0.46021 5.61711,3.0471 l 1.70349,3.0471 12.44442,-0.21384 12.44442,-0.21384 0.88891,2.66674 c 0.48891,1.46671 1.41392,2.68936 2.05558,2.71702 1.74068,0.075 9.3255,0.72873 16.66667,1.43645 l 6.5,0.62664 5.5,-9.62969 c 3.025,-5.29633 7.17769,-12.29684 9.22819,-15.55669 l 3.72819,-5.92699 322.021809,0 c 314.870431,0 322.021811,-0.0419 322.021811,-1.88606 0,-1.16203 1.30564,-2.50562 3.40113,-3.5 3.07353,-1.45849 15.43152,-1.61394 128.30161,-1.61394 l 124.90046,0 13.9484,2.49575 c 7.6716,1.37266 14.0609,2.49766 14.1984,2.5 0.1375,0.002 0.25,3.12326 0.25,6.93537 l 0,6.93113 7.9023,5.56887 c 4.3462,3.06289 8.1433,5.56888 8.4381,5.56888 0.2947,0 6.5261,4.30441 13.8477,9.56535 7.3215,5.26093 22.0836,15.83593 32.8045,23.5 l 19.4926,13.93465 14.278,0 14.278,0 3.2294,-4.70479 c 1.7762,-2.58763 4.8044,-6.18549 6.7294,-7.99522 l 3.5,-3.29043 14.56194,-0.005 14.562,-0.005 2.0693,2.79886 c 1.1381,1.53938 3.2553,5.13938 4.7049,8 l 2.6356,5.20114 11.8706,0 11.8705,0 18.3626,-14.70531 c 10.0994,-8.08792 19.1307,-15.67179 20.0696,-16.85305 1.2779,-1.60786 3.2631,-2.31038 7.8974,-2.79477 3.4048,-0.35586 6.6866,-0.26845 7.293,0.19425 0.6064,0.4627 28.7776,0.42385 62.6026,-0.0863 54.1493,-0.81676 61.8586,-0.74683 64.5,0.58507 1.65,0.83199 4.35,1.72856 6,1.99237 6.5838,1.05267 11.1041,1.81813 13.1537,2.22746 1.1846,0.23656 4.4262,2.22633 7.2035,4.42169 5.6554,4.47031 8.1428,4.44332 8.1428,-0.0883 0,-2.41921 0.4094,-2.89301 2.5,-2.89301 1.8333,0 2.5,-0.53333 2.5,-2 0,-1.33333 0.6667,-2 2,-2 1.1,0 2,-0.47656 2,-1.05902 0,-0.58246 0.4189,-0.80012 0.9309,-0.48369 0.512,0.31644 1.2136,0.11799 1.559,-0.44098 0.7725,-1.24993 12.1794,-1.36036 12.9427,-0.1253 0.3029,0.49005 7.5092,0.82755 16.014,0.75 l 15.46337,-0.14067 0.295,4 0.295,4 43.25,0.26062 c 42.1506,0.254 43.25,0.21156 43.25,-1.66939 0,-1.74014 0.3689,-1.83231 3.75,-0.93682 2.0625,0.54626 7.2375,2.39851 11.5,4.11611 l 7.75,3.1229 0,5.68807 0,5.68806 5.75,0.71273 c 3.494,0.43309 12.6161,3.51338 23.25,7.85085 l 17.5,7.13813 36,27.07806 c 19.8,14.89294 38.754,28.93895 42.12,31.21337 3.3661,2.27442 6.3396,4.97476 6.6079,6.00076 0.3746,1.43249 2.1454,2.16167 7.63,3.14181 8.9471,1.59894 9.4647,3.49256 1.3921,5.09271 -8.0842,1.60245 -9.25,2.00003 -9.25,3.15453 0,0.55974 -2.6281,4.01692 -5.8403,7.68261 -3.2122,3.66569 -11.5628,13.86489 -18.557,22.66489 -12.3568,15.54734 -21.7803,27.19953 -49.4417,61.13536 -7.3364,9.00055 -13.8979,16.36464 -14.581,16.36464 -0.6831,0 -1.8238,1.0871 -2.5349,2.41577 -1.3149,2.45686 -3.7083,3.54602 -7.8461,3.57058 -1.661,0.01 -2.6923,0.95011 -3.7077,3.38018 -1.8268,4.37225 -3.2815,4.63294 -25.8663,4.63561 l -18.125,0.002 -28,9.61128 c -15.4,5.2862 -30.925,10.66985 -34.5,11.96367 -5.8771,2.12698 -6.615,2.20018 -7.6999,0.76391 -1.0459,-1.38453 -2.0089,-1.43722 -7.5,-0.41039 -5.481,1.02494 -7.3566,0.92435 -14.4266,-0.7737 l -8.1265,-1.95181 -45.87347,15.97452 c -59.3258,20.65902 -56.6548,19.69229 -57.8463,20.93633 -0.7287,0.76088 1.5878,0.9816 7.9728,0.75964 4.95,-0.17208 23.2875,-0.21496 40.75,-0.0953 l 31.75,0.21771 0,10.34866 0,10.34866 -13.25,2.1697 c -8.348,1.367 -17.597,2.16291 -25,2.15134 -7.1789,-0.0112 -11.75,0.37067 -11.75,0.98164 0,0.55 -0.3375,0.94671 -0.75,0.88158 -3.4891,-0.55092 -26.4203,0.3604 -25.25,1.00347 0.825,0.45332 11.175,1.36021 23,2.01529 29.9262,1.65787 34,2.10572 34,3.73775 0,1.90886 1.3642,1.71109 6.7832,-0.98334 l 4.7168,-2.34526 37.49997,0.80569 c 20.625,0.44312 65.4,1.02547 99.5,1.2941 56.0514,0.44155 71.2119,0.88131 75.3626,2.18606 3.0026,0.94383 -1.1236,3.23979 -7.1579,3.9829 l -6.2047,0.76409 3.9887,1.16591 3.9887,1.16591 -2.4887,1.34776 c -1.9224,1.04108 -10.7944,1.42511 -38.9887,1.68763 -40.1168,0.373551 -144.84647,2.261991 -152.01747,2.741121 -2.4846,0.16601 -7.0955,0.87877 -10.2463,1.5839 -4.9682,1.11182 -5.9617,1.07757 -7.4825,-0.25797 -0.9645,-0.84702 -2.7139,-1.83198 -3.8875,-2.18882 -1.1906,-0.362 -2.0747,-1.40886 -2,-2.368281 0.1604,-2.06178 -4.5792,-2.91091 -7.7786,-1.39356 -1.1482,0.54457 -13.9522,1.43714 -28.4533,1.9835 -22.7972,0.858931 -26.5869,1.225971 -28,2.711871 -1.223,1.28596 -1.3181,1.83566 -0.3781,2.18401 0.691,0.25603 1.0019,0.87708 0.691,1.3801 -0.7569,1.22469 -27.5402,1.14701 -29.4472,-0.0854 z M 667.07379,-241.56639 c 32.63944,-12.1332 36.96294,-13.5 42.70284,-13.5 l 6.3865,0 -2.1555,-3.48773 -2.1556,-3.48773 2.574,-1.17279 c 2.9444,-1.34154 3.1708,-2.11156 1.1211,-3.81267 -1.0325,-0.85689 -6.8771,-1.17003 -20.1979,-1.08215 -26.60124,0.1755 -39.25314,-1.28247 -61.51394,-7.08868 l -18.6646,-4.86825 -21.3354,0.0237 c -34.5701,0.0384 -41.8857,0.90617 -63.9322,7.58384 -10.3968,3.1491 -18.702,5.92694 -18.4559,6.17298 0.246,0.24605 9.5836,0.37463 20.7501,0.28574 19.7815,-0.15747 20.3284,-0.10721 21.3027,1.95796 0.7158,1.51723 11.5148,6.91771 38,19.00348 20.35,9.28615 37.5079,16.9038 38.1288,16.92811 0.6208,0.0243 17.4711,-6.03079 37.445,-13.45579 z"
         id="path2998"
         inkscape:connector-curvature="0" />
    </g>
  </g>
</svg>
