<?xml version="1.0" encoding="UTF-8" standalone="no"?>
<svg
   xmlns:dc="http://purl.org/dc/elements/1.1/"
   xmlns:cc="http://creativecommons.org/ns#"
   xmlns:rdf="http://www.w3.org/1999/02/22-rdf-syntax-ns#"
   xmlns:svg="http://www.w3.org/2000/svg"
   xmlns="http://www.w3.org/2000/svg"
   version="1.1"
   id="svg2"
   viewBox="0 0 17.9998 4.6553345"
   width="53.9994">
  <defs
     id="defs4" />
  <metadata
     id="metadata7">
    <rdf:RDF>
      <cc:Work
         rdf:about="">
        <dc:format>image/svg+xml</dc:format>
        <dc:type
           rdf:resource="http://purl.org/dc/dcmitype/StillImage" />
        <dc:title></dc:title>
      </cc:Work>
    </rdf:RDF>
  </metadata>
  <g
     transform="translate(516.35119,-389.23251)"
     id="layer1">
    <g
       transform="translate(25.455844,507.70267)"
       id="g4243">
      <path
         id="path4245"
         d="m -525.89549,-113.81975 c -0.0242,-0.006 -0.0629,-0.0234 -0.0859,-0.0381 -0.023,-0.0147 -0.0513,-0.0267 -0.063,-0.0267 -0.0116,0 -0.0351,-0.0149 -0.0521,-0.0331 -0.0464,-0.0495 -0.23714,-0.20059 -0.28222,-0.2236 -0.0241,-0.0123 -0.0418,-0.0163 -0.0455,-0.0103 -0.009,0.0152 -0.0642,0.0121 -0.0642,-0.004 0,-0.01 -0.0327,-0.0184 -0.1162,-0.0307 -0.16018,-0.0236 -0.33613,-0.0808 -0.57031,-0.18538 -0.68764,-0.30718 -0.89659,-0.38639 -1.25686,-0.47644 -0.12038,-0.0301 -0.5017,-0.10496 -0.53456,-0.10496 -0.006,0 -0.0233,0.0169 -0.0377,0.0376 -0.0466,0.0673 -0.048,0.0673 -0.45214,0.0172 -0.38573,-0.0479 -0.47502,-0.0503 -0.52164,-0.0142 -0.0126,0.01 -0.043,0.0208 -0.0675,0.0245 -0.0337,0.005 -0.0472,0.0124 -0.0553,0.0302 -0.006,0.0129 -0.014,0.0235 -0.018,0.0235 -0.004,0 -0.17748,0.027 -0.38547,0.0599 -0.31137,0.0493 -0.38099,0.0632 -0.39413,0.0786 -0.0134,0.0157 -0.10849,0.0331 -0.58708,0.10791 -0.4922,0.0769 -0.57525,0.0923 -0.60103,0.11133 -0.025,0.0185 -0.0764,0.029 -0.31403,0.0643 -0.31535,0.0469 -0.33151,0.0483 -0.34679,0.0299 -0.0147,-0.0177 -0.44743,0.0284 -0.45951,0.0489 -0.005,0.008 -0.0248,0.0134 -0.0482,0.0134 -0.0264,0 -0.0578,0.01 -0.091,0.0289 -0.0279,0.0159 -0.10851,0.054 -0.17923,0.0846 -0.11239,0.0487 -0.15593,0.0613 -0.34614,0.10017 -0.26672,0.0545 -0.39661,0.064 -0.90988,0.067 -0.54173,0.003 -1.68268,-0.012 -1.8247,-0.0242 -0.38404,-0.0329 -0.62755,-0.11867 -0.76921,-0.27087 -0.0504,-0.0541 -0.0931,-0.0757 -0.22013,-0.11097 l -0.0577,-0.016 -0.0311,0.0262 c -0.0171,0.0144 -0.0368,0.0262 -0.0438,0.0262 -0.0262,0 -0.0636,-0.0401 -0.0667,-0.0714 -0.003,-0.0291 -0.007,-0.0327 -0.0624,-0.049 -0.0326,-0.01 -0.23513,-0.0717 -0.44999,-0.13787 l -0.39066,-0.12027 -0.43021,-0.0532 c -0.51126,-0.0632 -0.48057,-0.0536 -0.67511,-0.2104 -0.0367,-0.0295 -0.0668,-0.0585 -0.067,-0.0643 -5.3e-4,-0.0185 -0.0422,-0.0412 -0.10848,-0.059 -0.16974,-0.0457 -0.42638,-0.13027 -0.47889,-0.15783 -0.0322,-0.0169 -0.0817,-0.0518 -0.10986,-0.0776 l -0.0513,-0.0469 -0.13652,-0.003 -0.13653,-0.003 -0.0379,-0.11341 c -0.0208,-0.0624 -0.038,-0.12357 -0.038,-0.13599 0,-0.0222 -0.002,-0.0226 -0.11222,-0.0226 l -0.11221,0 -0.006,-0.12023 c -0.004,-0.0661 -0.006,-0.14653 -0.006,-0.17866 0,-0.0322 -0.005,-0.0668 -0.01,-0.0771 -0.006,-0.0102 -0.14123,-0.11287 -0.30164,-0.22803 -0.16041,-0.11515 -0.29166,-0.21327 -0.29166,-0.21805 0,-0.005 0.0512,-0.009 0.11382,-0.009 0.10865,0 0.11329,-0.001 0.10228,-0.0185 -0.0217,-0.0348 -0.004,-0.0508 0.0556,-0.0508 0.0515,0 0.0547,-0.001 0.0547,-0.0244 0,-0.0311 0.0109,-0.0363 0.14835,-0.0698 0.1792,-0.0437 0.22797,-0.0871 0.25251,-0.22444 0.008,-0.0451 0.0545,-0.31333 0.10333,-0.59618 0.12241,-0.70967 0.12413,-0.71862 0.14684,-0.76314 0.0111,-0.0218 0.0471,-0.0645 0.0801,-0.095 0.0468,-0.0433 0.0691,-0.0568 0.10202,-0.0617 0.0351,-0.005 0.2037,0.0346 1.00568,0.23764 0.52995,0.13418 0.975,0.24828 0.989,0.25357 0.0416,0.0157 0.0752,0.0538 0.20572,0.23365 0.0683,0.094 0.13573,0.1791 0.14994,0.18914 0.0339,0.0239 0.1145,0.0405 0.19725,0.0405 0.0442,0 0.20759,-0.0284 0.48659,-0.0845 0.66662,-0.13413 1.6677,-0.2796 2.54634,-0.36999 0.29923,-0.0308 0.48881,-0.0441 0.84559,-0.0593 0.56719,-0.0241 0.8964,-0.0285 0.92653,-0.0122 0.0343,0.0185 0.12589,0.0144 0.16848,-0.008 0.0361,-0.0187 0.0587,-0.0192 0.67559,-0.0161 l 0.6382,0.003 -2.4e-4,-0.026 -2.4e-4,-0.026 0.1434,0 c 0.24305,0 0.60824,0.0359 1.06318,0.10462 0.30791,0.0465 0.32878,0.051 0.36911,0.079 0.0471,0.0327 0.13107,0.0541 0.22574,0.0575 0.0333,0.001 0.10776,0.006 0.16535,0.0105 0.10422,0.008 0.10511,0.009 0.19147,0.0627 l 0.0868,0.0543 0.3511,0.0461 c 0.36364,0.0477 0.49528,0.0686 0.69724,0.11034 0.15564,0.0322 0.4132,0.10133 0.42032,0.11286 0.003,0.005 0.0522,0.0252 0.10912,0.045 0.40191,0.13958 0.8825,0.41892 1.29939,0.75527 0.0376,0.0303 0.0844,0.0647 0.10384,0.0763 0.0195,0.0116 0.0348,0.025 0.0341,0.0297 -8e-4,0.005 -0.004,0.0174 -0.007,0.0283 -0.004,0.0162 0.0446,0.0613 0.27105,0.24973 0.15198,0.12646 0.28486,0.22994 0.29529,0.22994 0.0355,0 1.05862,0.9986 1.05862,1.03324 0,0.02 -0.0468,0.0942 -0.0594,0.0942 -0.005,0 -0.0197,0.0155 -0.032,0.0345 -0.0166,0.0256 -0.0294,0.0345 -0.0496,0.0346 -0.017,8e-5 -0.0641,0.0247 -0.12462,0.0649 -0.0859,0.0572 -0.0968,0.0677 -0.0927,0.089 0.004,0.0217 0.01,0.0242 0.0528,0.0242 0.0375,0 0.051,0.004 0.0606,0.0198 0.013,0.0208 0.0419,0.0265 0.0519,0.0102 0.008,-0.0137 0.0671,-8e-4 0.0821,0.018 0.007,0.009 0.0101,0.0272 0.007,0.0417 l -0.006,0.0259 0.12068,0.007 c 0.19588,0.0106 0.24614,0.009 0.24614,-0.008 0,-0.012 0.0158,-0.0148 0.0829,-0.0148 0.0746,0 0.0834,0.002 0.0881,0.0198 0.005,0.0189 0.0135,0.0198 0.1978,0.0198 0.18431,0 0.19285,-10e-4 0.1978,-0.0198 0.005,-0.0177 0.0135,-0.0198 0.0861,-0.0198 0.0727,0 0.0815,0.002 0.0862,0.0198 0.004,0.0172 0.0135,0.0198 0.0683,0.0198 l 0.0631,0 0,0.0445 0,0.0445 -0.0627,0 c -0.0482,0 -0.0665,0.004 -0.0791,0.0181 -0.0206,0.0227 -0.0215,0.061 -10e-4,0.061 0.008,0 0.0148,0.004 0.0148,0.01 0,0.006 0.0283,0.01 0.065,0.01 0.0565,0 0.0646,0.002 0.0617,0.0172 -0.002,0.01 -0.016,0.0199 -0.0329,0.0236 l -0.0295,0.006 0.0321,10e-4 c 0.0252,0.001 0.0321,0.005 0.0321,0.021 0,0.0177 -0.007,0.0198 -0.0631,0.0198 -0.0548,0 -0.0638,0.003 -0.0683,0.0198 -0.005,0.0177 -0.0135,0.0198 -0.0861,0.0198 -0.0727,0 -0.0815,-0.002 -0.0861,-0.0198 -0.005,-0.0189 -0.0135,-0.0198 -0.19719,-0.0198 -0.16155,0 -0.19291,0.002 -0.1977,0.0148 -0.004,0.0115 -0.0239,0.0148 -0.0876,0.0148 -0.0637,0 -0.0832,-0.003 -0.0876,-0.0148 -0.005,-0.0118 -0.0258,-0.0148 -0.10432,-0.0148 -0.0551,0 -0.10132,0.004 -0.10474,0.01 -0.003,0.005 -0.0434,0.01 -0.089,0.01 -0.0503,0 -0.0856,0.004 -0.0897,0.011 -0.004,0.007 -0.0254,0.009 -0.055,0.006 l -0.0482,-0.005 -2.4e-4,0.0406 c -1.7e-4,0.0223 -0.007,0.0492 -0.0148,0.0598 -0.008,0.0105 -0.0145,0.027 -0.0145,0.0365 0,0.01 -0.0136,0.032 -0.0302,0.05 -0.0166,0.018 -0.0329,0.0456 -0.0361,0.0613 -0.003,0.0157 -0.0136,0.0305 -0.023,0.033 -0.009,0.002 -0.0344,0.0283 -0.0554,0.0575 -0.021,0.0291 -0.0484,0.0577 -0.0609,0.0634 -0.0276,0.0127 -0.12299,0.0139 -0.13602,0.002 -0.005,-0.005 -0.0494,-0.0109 -0.0984,-0.0135 -0.0674,-0.004 -0.0962,-0.001 -0.11868,0.0104 -0.0481,0.0244 -0.0871,0.0294 -0.13398,0.0173 z m 0.1107,-0.0412 c 0.0446,-0.008 0.0704,-0.0545 0.0332,-0.0594 -0.12158,-0.0163 -0.12258,-0.0162 -0.12929,0.0105 -0.008,0.0316 -0.0246,0.0318 -0.0902,0.001 -0.0592,-0.0276 -0.0633,-0.0101 -0.006,0.0254 0.0578,0.0358 0.0956,0.0401 0.19225,0.0222 z m -0.29815,-0.097 c 0,-0.002 -0.0263,-0.0293 -0.0584,-0.0599 -0.0321,-0.0306 -0.0638,-0.0688 -0.0704,-0.0848 -0.009,-0.0221 -0.0185,-0.0291 -0.0391,-0.0291 -0.0248,0 -0.0195,0.007 0.063,0.0889 0.0801,0.079 0.10488,0.0991 0.10488,0.0849 z m 1.98089,-0.41361 c 0.0146,-0.007 0.0267,-0.0173 0.0267,-0.0234 1.4e-4,-0.0202 -0.0406,-0.0631 -0.06,-0.0631 -0.0163,0 -0.0191,0.007 -0.0191,0.0494 0,0.0537 0.007,0.0584 0.0524,0.0371 z m -0.73475,-0.0371 0,-0.0297 -0.094,0 -0.094,0 0,0.0297 0,0.0297 0.094,0 0.094,0 0,-0.0297 z m 0.18609,0.002 c -0.003,-0.0236 -0.008,-0.0276 -0.0402,-0.0303 -0.0354,-0.003 -0.0371,-0.002 -0.0371,0.0272 0,0.0288 0.002,0.0303 0.0402,0.0303 0.038,0 0.0401,-0.001 0.0371,-0.0272 z m 0.42077,0.0123 c 0.0154,-0.0402 8e-4,-0.0445 -0.15192,-0.0445 -0.15297,0 -0.15824,0.001 -0.15824,0.0453 0,0.0214 0.30193,0.0207 0.31016,-8e-4 z m -4.86144,-0.57387 c -0.0153,-0.0153 -0.45988,-0.0704 -0.47177,-0.0585 -0.002,0.002 0.002,0.005 0.01,0.005 0.008,5.3e-4 0.10969,0.0132 0.22664,0.0284 0.24763,0.0324 0.2422,0.0318 0.23546,0.025 z"
         style="fill:#000000" />
    </g>
  </g>
</svg>
