<?xml version="1.0" encoding="UTF-8" standalone="no"?>
<!-- Created with Inkscape (http://www.inkscape.org/) -->

<svg
   xmlns:dc="http://purl.org/dc/elements/1.1/"
   xmlns:cc="http://creativecommons.org/ns#"
   xmlns:rdf="http://www.w3.org/1999/02/22-rdf-syntax-ns#"
   xmlns:svg="http://www.w3.org/2000/svg"
   xmlns="http://www.w3.org/2000/svg"
   xmlns:sodipodi="http://sodipodi.sourceforge.net/DTD/sodipodi-0.dtd"
   xmlns:inkscape="http://www.inkscape.org/namespaces/inkscape"
   width="67.233131"
   height="17.389524"
   id="svg2"
   version="1.1"
   inkscape:version="0.48.5 r10040"
   sodipodi:docname="Avenger.svg">
  <defs
     id="defs4" />
  <sodipodi:namedview
     id="base"
     pagecolor="#ffffff"
     bordercolor="#666666"
     borderopacity="1.0"
     inkscape:pageopacity="0.0"
     inkscape:pageshadow="2"
     inkscape:zoom="21.881458"
     inkscape:cx="38.916033"
     inkscape:cy="16.60597"
     inkscape:document-units="px"
     inkscape:current-layer="g4243"
     showgrid="false"
     showborder="true"
     inkscape:window-width="1920"
     inkscape:window-height="1018"
     inkscape:window-x="-8"
     inkscape:window-y="-8"
     inkscape:window-maximized="1"
     fit-margin-top="0"
     fit-margin-left="0"
     fit-margin-right="0"
     fit-margin-bottom="0"
     showguides="true"
     inkscape:guide-bbox="true" />
  <metadata
     id="metadata7">
    <rdf:RDF>
      <cc:Work
         rdf:about="">
        <dc:format>image/svg+xml</dc:format>
        <dc:type
           rdf:resource="http://purl.org/dc/dcmitype/StillImage" />
        <dc:title />
      </cc:Work>
    </rdf:RDF>
  </metadata>
  <g
     inkscape:label="Layer 1"
     inkscape:groupmode="layer"
     id="layer1"
     transform="translate(516.35213,-376.49962)">
    <g
       id="g4243"
       transform="translate(25.455844,507.70267)">
      <path
         style="fill:#000000"
         d="m -482.37208,-113.83677 c -0.0905,-0.0234 -0.23484,-0.0874 -0.32078,-0.14218 -0.0859,-0.0549 -0.19176,-0.0997 -0.23513,-0.0997 -0.0433,0 -0.13098,-0.0555 -0.19467,-0.12345 -0.17347,-0.18494 -0.88577,-0.74923 -1.05415,-0.83515 -0.0901,-0.0459 -0.15621,-0.061 -0.17006,-0.0386 -0.0352,0.0569 -0.23994,0.045 -0.23994,-0.0139 0,-0.0363 -0.12222,-0.0686 -0.43405,-0.11449 -0.59831,-0.088 -1.25551,-0.30166 -2.13019,-0.6924 -2.56845,-1.14739 -3.34892,-1.44325 -4.69461,-1.7796 -0.44962,-0.11239 -1.87392,-0.39203 -1.99668,-0.39203 -0.0239,0 -0.0872,0.0632 -0.1407,0.14027 -0.17409,0.25122 -0.1793,0.25141 -1.68881,0.0641 -1.44076,-0.17882 -1.7743,-0.18788 -1.9484,-0.0529 -0.0471,0.0365 -0.16066,0.0777 -0.25225,0.0915 -0.12586,0.0189 -0.17629,0.0463 -0.20651,0.1127 -0.022,0.0482 -0.0523,0.0877 -0.0672,0.0877 -0.015,0 -0.66291,0.1007 -1.4398,0.22377 -1.16303,0.18425 -1.42305,0.23611 -1.47214,0.29359 -0.0499,0.0585 -0.40525,0.12381 -2.19286,0.40306 -1.83845,0.2872 -2.14867,0.34465 -2.24495,0.41584 -0.0935,0.0691 -0.28537,0.1084 -1.17295,0.2403 -1.17787,0.17506 -1.23826,0.18026 -1.29531,0.11152 -0.0548,-0.066 -1.67123,0.10603 -1.71638,0.18269 -0.0172,0.0292 -0.0925,0.0501 -0.18021,0.0501 -0.0988,0 -0.21584,0.0372 -0.33986,0.10802 -0.10407,0.0595 -0.4053,0.20167 -0.66944,0.31614 -0.41982,0.18195 -0.58245,0.22901 -1.29292,0.37416 -0.99622,0.20352 -1.48139,0.23924 -3.39855,0.25025 -2.02344,0.0115 -6.28511,-0.0448 -6.81556,-0.0904 -1.43445,-0.12294 -2.34402,-0.44324 -2.87314,-1.01175 -0.18808,-0.20207 -0.3478,-0.28259 -0.82224,-0.41449 l -0.21539,-0.0599 -0.11613,0.0977 c -0.0639,0.0537 -0.13755,0.0977 -0.16373,0.0977 -0.0979,0 -0.23772,-0.1497 -0.24922,-0.26685 -0.0107,-0.10877 -0.0276,-0.12208 -0.23315,-0.18304 -0.12191,-0.0362 -0.87827,-0.26789 -1.68081,-0.51496 l -1.45916,-0.44922 -1.60692,-0.19861 c -1.90966,-0.23605 -1.795,-0.20032 -2.52166,-0.78587 -0.13688,-0.11031 -0.24942,-0.21835 -0.25006,-0.24011 -0.002,-0.0691 -0.15755,-0.15371 -0.40518,-0.22035 -0.63404,-0.17065 -1.59263,-0.48658 -1.78876,-0.58955 -0.12033,-0.0632 -0.30499,-0.19363 -0.41035,-0.28992 l -0.19157,-0.17509 -0.50994,-0.0103 -0.50993,-0.0103 -0.14176,-0.42361 c -0.0779,-0.23296 -0.14177,-0.46154 -0.14177,-0.50793 0,-0.0829 -0.007,-0.0844 -0.41914,-0.0844 l -0.41913,0 -0.0242,-0.44908 c -0.0132,-0.24701 -0.0242,-0.54732 -0.0242,-0.66736 0,-0.12006 -0.0168,-0.24963 -0.0372,-0.28796 -0.0206,-0.0383 -0.52752,-0.4216 -1.12669,-0.85172 -0.59917,-0.43012 -1.0894,-0.79663 -1.0894,-0.81446 0,-0.0178 0.19131,-0.0325 0.42513,-0.0325 0.40583,0 0.42318,-0.004 0.38204,-0.069 -0.081,-0.12984 -0.0156,-0.18959 0.20754,-0.18959 0.19255,0 0.20433,-0.005 0.20433,-0.0911 0,-0.11628 0.0409,-0.13552 0.55411,-0.26079 0.66936,-0.16339 0.85153,-0.32531 0.94317,-0.83831 0.0301,-0.16827 0.20375,-1.17037 0.38598,-2.22687 0.45721,-2.65073 0.46363,-2.68415 0.54847,-2.85046 0.0415,-0.0813 0.17605,-0.24096 0.29906,-0.35484 0.17489,-0.16191 0.25799,-0.21221 0.38107,-0.23065 0.13101,-0.0197 0.76086,0.12922 3.7564,0.88765 1.97945,0.50118 3.64179,0.92738 3.69407,0.94711 0.15528,0.0587 0.28076,0.20114 0.76842,0.87272 0.25494,0.35109 0.50696,0.66899 0.56003,0.70647 0.12674,0.0894 0.4277,0.15129 0.73677,0.15129 0.16526,0 0.77537,-0.10596 1.81751,-0.31565 2.48994,-0.50102 6.22912,-1.04435 9.511,-1.382 1.1177,-0.11498 1.82579,-0.1646 3.15844,-0.22131 2.11856,-0.0901 3.34821,-0.10635 3.46076,-0.0455 0.12792,0.0691 0.47021,0.0536 0.62929,-0.0285 0.135,-0.0697 0.21916,-0.0716 2.52343,-0.06 l 2.38379,0.0121 -8.9e-4,-0.097 -8.9e-4,-0.097 0.53564,0 c 0.90782,0 2.27186,0.13422 3.97113,0.39078 1.1501,0.17364 1.22808,0.19033 1.37872,0.29488 0.17603,0.12216 0.48954,0.20202 0.84316,0.21479 0.12457,0.004 0.40249,0.0223 0.6176,0.0394 0.38928,0.0312 0.39261,0.0323 0.7152,0.2341 l 0.3241,0.20279 1.3114,0.17217 c 1.35825,0.17834 1.84998,0.25615 2.60431,0.41211 0.58137,0.12022 1.54337,0.37852 1.56997,0.42155 0.0115,0.0186 0.19493,0.0943 0.40758,0.16817 1.50123,0.52135 3.29629,1.56473 4.85345,2.82106 0.14055,0.11339 0.31509,0.2417 0.38788,0.28512 0.0728,0.0434 0.13009,0.0933 0.12734,0.11084 -0.003,0.0175 -0.0138,0.0651 -0.0247,0.10574 -0.0162,0.0605 0.16674,0.22905 1.01241,0.93275 0.56767,0.47238 1.064,0.85887 1.10297,0.85887 0.1326,0 3.95411,3.72994 3.95411,3.85936 0,0.0748 -0.17462,0.35188 -0.22176,0.35188 -0.02,0 -0.0737,0.058 -0.1196,0.12885 -0.0619,0.0955 -0.10981,0.12895 -0.18535,0.12928 -0.0634,3e-4 -0.23946,0.0921 -0.46549,0.24255 -0.32073,0.21353 -0.36156,0.25275 -0.34633,0.33247 0.0154,0.0811 0.0356,0.0904 0.19737,0.0904 0.14007,0 0.19033,0.0164 0.22622,0.0739 0.0484,0.0777 0.15632,0.0989 0.19385,0.0381 0.0316,-0.0511 0.25059,-0.003 0.30657,0.0673 0.0267,0.0334 0.0379,0.10151 0.026,0.1559 l -0.0213,0.0966 0.45075,0.0243 c 0.73165,0.0394 0.9194,0.033 0.9194,-0.0312 0,-0.0448 0.059,-0.0554 0.30969,-0.0554 0.27862,0 0.31163,0.007 0.329,0.0739 0.0185,0.0707 0.0505,0.0739 0.73883,0.0739 0.68842,0 0.72032,-0.004 0.73881,-0.0739 0.0174,-0.0663 0.0504,-0.0739 0.32176,-0.0739 0.27138,0 0.30443,0.008 0.32177,0.0739 0.0168,0.0641 0.0504,0.0739 0.25512,0.0739 l 0.23581,0 0,0.16624 0,0.16623 -0.2344,0 c -0.18015,0 -0.24852,0.0156 -0.29551,0.0676 -0.0769,0.0849 -0.0804,0.22797 -0.005,0.22797 0.0305,0 0.0554,0.0166 0.0554,0.037 0,0.0209 0.10557,0.037 0.24282,0.037 0.21097,0 0.24119,0.009 0.23042,0.0643 -0.007,0.0368 -0.0597,0.0745 -0.12275,0.088 l -0.11038,0.0237 0.12007,0.004 c 0.094,0.004 0.12004,0.0204 0.12004,0.0783 0,0.0662 -0.0246,0.0739 -0.2358,0.0739 -0.20474,0 -0.23834,0.01 -0.25512,0.0739 -0.0173,0.0663 -0.0504,0.0739 -0.32176,0.0739 -0.27139,0 -0.30443,-0.008 -0.32177,-0.0739 -0.0184,-0.0707 -0.0504,-0.0739 -0.73652,-0.0739 -0.60343,0 -0.72057,0.009 -0.73846,0.0554 -0.0165,0.0431 -0.0894,0.0554 -0.32735,0.0554 -0.238,0 -0.31082,-0.0123 -0.32736,-0.0554 -0.017,-0.0441 -0.0963,-0.0554 -0.38965,-0.0554 -0.20574,0 -0.37845,0.0162 -0.39121,0.037 -0.0125,0.0204 -0.16217,0.037 -0.33247,0.037 -0.18782,0 -0.31965,0.0161 -0.33509,0.0412 -0.0156,0.0253 -0.0949,0.0345 -0.20535,0.0239 l -0.1799,-0.0173 -8.9e-4,0.15157 c -6.3e-4,0.0833 -0.0256,0.18384 -0.0553,0.22328 -0.0298,0.0394 -0.0543,0.10076 -0.0543,0.13626 0,0.0355 -0.0507,0.11958 -0.11291,0.18687 -0.0621,0.0673 -0.12281,0.17027 -0.1349,0.22885 -0.012,0.0586 -0.0509,0.11406 -0.0861,0.1233 -0.0353,0.009 -0.12836,0.10578 -0.20681,0.21458 -0.0784,0.1088 -0.18083,0.2154 -0.2275,0.23689 -0.10314,0.0475 -0.45937,0.0518 -0.50804,0.006 -0.0193,-0.0181 -0.18471,-0.0408 -0.36756,-0.0503 -0.25164,-0.0131 -0.35941,-0.004 -0.44329,0.0387 -0.17972,0.0911 -0.32537,0.10987 -0.50042,0.0646 z m 0.41347,-0.15405 c 0.16675,-0.0309 0.26305,-0.2034 0.12389,-0.222 -0.45411,-0.0607 -0.45786,-0.0605 -0.4829,0.0394 -0.0297,0.11795 -0.092,0.11885 -0.33683,0.004 -0.22116,-0.10297 -0.23649,-0.0377 -0.0222,0.0948 0.21605,0.13353 0.3569,0.14982 0.71809,0.083 z m -1.11363,-0.36221 c 0,-0.009 -0.0982,-0.10946 -0.21808,-0.22387 -0.11995,-0.11441 -0.23834,-0.25689 -0.26308,-0.31662 -0.0342,-0.0827 -0.0691,-0.10859 -0.14597,-0.10859 -0.0926,0 -0.073,0.0277 0.23537,0.33196 0.29901,0.29511 0.39176,0.37018 0.39176,0.31712 z m 7.39896,-1.54489 c 0.0546,-0.0254 0.0996,-0.0647 0.0997,-0.0875 5.2e-4,-0.0755 -0.15183,-0.23586 -0.22403,-0.23586 -0.0608,0 -0.0712,0.027 -0.0712,0.18471 0,0.20066 0.0244,0.21798 0.19552,0.13852 z m -2.74443,-0.13853 0,-0.11082 -0.35093,0 -0.35094,0 0,0.11082 0,0.11082 0.35094,0 0.35093,0 0,-0.11082 z m 0.69509,0.009 c -0.0101,-0.0881 -0.03,-0.10311 -0.15021,-0.11305 -0.13239,-0.0109 -0.13854,-0.006 -0.13854,0.10158 0,0.10757 0.007,0.11305 0.15023,0.11305 0.14208,0 0.14958,-0.005 0.13852,-0.10158 z m 1.57165,0.0461 c 0.0576,-0.15012 0.003,-0.16623 -0.56746,-0.16623 -0.57135,0 -0.59106,0.005 -0.59106,0.16925 0,0.08 1.12777,0.0771 1.15852,-0.003 z m -18.15834,-2.1435 c -0.057,-0.057 -1.71772,-0.26288 -1.76212,-0.21849 -0.009,0.009 0.007,0.0173 0.0361,0.0187 0.0288,0.002 0.40974,0.0492 0.84656,0.10625 0.92495,0.12085 0.90466,0.11869 0.87949,0.0935 z"
         id="path4245"
         inkscape:connector-curvature="0" />
    </g>
  </g>
</svg>
