<?xml version="1.0" encoding="UTF-8" standalone="no"?>
<!-- Created with Inkscape (http://www.inkscape.org/) -->

<svg
   xmlns:dc="http://purl.org/dc/elements/1.1/"
   xmlns:cc="http://creativecommons.org/ns#"
   xmlns:rdf="http://www.w3.org/1999/02/22-rdf-syntax-ns#"
   xmlns:svg="http://www.w3.org/2000/svg"
   xmlns="http://www.w3.org/2000/svg"
   xmlns:sodipodi="http://sodipodi.sourceforge.net/DTD/sodipodi-0.dtd"
   xmlns:inkscape="http://www.inkscape.org/namespaces/inkscape"
   width="14.957776mm"
   height="4.0818586mm"
   viewBox="0 0 52.999994 14.463279"
   id="svg2"
   version="1.1"
   inkscape:version="0.91 r13725"
   sodipodi:docname="Blade.svg">
  <defs
     id="defs4" />
  <sodipodi:namedview
     id="base"
     pagecolor="#ffffff"
     bordercolor="#666666"
     borderopacity="1.0"
     inkscape:pageopacity="0.0"
     inkscape:pageshadow="2"
     inkscape:zoom="31.678384"
     inkscape:cx="26.852058"
     inkscape:cy="7.0861185"
     inkscape:document-units="px"
     inkscape:current-layer="layer1"
     showgrid="false"
     fit-margin-top="0"
     fit-margin-left="0"
     fit-margin-right="0"
     fit-margin-bottom="0"
     inkscape:window-width="1920"
     inkscape:window-height="1017"
     inkscape:window-x="-8"
     inkscape:window-y="-8"
     inkscape:window-maximized="1" />
  <metadata
     id="metadata7">
    <rdf:RDF>
      <cc:Work
         rdf:about="">
        <dc:format>image/svg+xml</dc:format>
        <dc:type
           rdf:resource="http://purl.org/dc/dcmitype/StillImage" />
        <dc:title></dc:title>
      </cc:Work>
    </rdf:RDF>
  </metadata>
  <g
     inkscape:label="Layer 1"
     inkscape:groupmode="layer"
     id="layer1"
     transform="translate(-371.04585,-492.30051)">
    <g
       id="g3347"
       transform="matrix(0.04031065,0,0,0.04031065,383.69685,473.10184)">
      <path
         style="fill:#000000"
         d="m 761.78739,834.54792 c -1.375,-0.2138 -32.875,-1.2966 -70,-2.4063 -66.3253,-1.9826 -118.0519,-4.6494 -120.5884,-6.2171 -4.4192,-2.7312 2.4036,-6.1248 16.2134,-8.0645 5.8438,-0.8208 12.5938,-2.4968 15,-3.7245 2.4063,-1.2278 8.5938,-2.6229 13.75,-3.1003 13.7587,-1.274 17.5,-2.1015 17.5,-3.8708 0,-1.8105 -3.2052,-3.1981 -15.7597,-6.8225 -12.664,-3.656 -15.3126,-3.4477 -16.98,1.3355 l -1.3597,3.9005 -10.1378,-0.7857 c -5.5758,-0.4321 -10.7003,-0.7619 -11.3878,-0.7329 -0.6875,0.029 -7.775,0.3728 -15.7501,0.7641 -12.127,0.595 -15.1681,0.3661 -18.5807,-1.3987 -4.5359,-2.3456 -13.2489,-1.946 -26.9192,1.2347 -6.056,1.409 -11.4708,1.5046 -28.125,0.4962 -11.3437,-0.6868 -29.0625,-1.0811 -39.375,-0.8762 -47.4088,0.9419 -97.7645,-0.6478 -103.4482,-3.2657 -2.6034,-1.1991 -3.9897,-5.8235 -2.9672,-9.8975 1.0742,-4.2801 5.8515,-5.8393 17.8917,-5.8393 5.9035,0 12.7677,-0.5414 15.2537,-1.203 2.486,-0.6617 7.1919,-1.5399 10.4575,-1.9516 3.9853,-0.5025 5.9375,-1.3399 5.9375,-2.547 0,-0.9891 -0.1406,-1.8116 -0.3125,-1.8276 -0.1718,-0.016 -14.4946,-1.6154 -31.8284,-3.5539 -28.6325,-3.2022 -31.8524,-3.7999 -35.1946,-6.5333 -17.9697,-14.6964 -24.4931,-20.439 -27.5382,-24.2426 -1.5348,-1.917 -3.1409,-2.0767 -13.125,-1.3048 -11.8637,0.9173 -15.7513,2.6715 -15.7513,7.1075 0,1.2685 -1.18,3.4864 -2.6223,4.9286 -2.2686,2.2687 -3.9124,2.5833 -12.1875,2.3325 -12.6883,-0.3845 -12.6931,-0.3834 -12.671,2.8577 0.027,3.8995 1.2879,5.4135 5.3359,6.4045 4.4771,1.0961 6.7159,5.6634 4.6594,9.5059 -1.4886,2.7815 -1.5552,2.7867 -24.2596,1.8906 l -22.7669,-0.8986 -6.0477,6.7051 c -9.4067,10.4292 -15.9861,19.5901 -15.0997,21.0244 0.4439,0.7181 2.4613,1.3056 4.4832,1.3056 2.309,0 3.6762,0.6476 3.6762,1.7413 0,3.6772 -8.6578,4.3833 -15.9776,1.303 -7.0328,-2.9594 -10.2834,-2.5279 -17.4235,2.3131 -10.9747,7.4407 -6.7428,7.1004 -135.973896,10.9329 -36.9868,1.0969 -50.2666,1.0698 -60,-0.1223 -6.875,-0.842 -12.9859,-1.9633 -13.5797,-2.4917 -1.7155,-1.5264 9.0588,-2.2805 61.7046998,-4.3186 59.0941002,-2.2877 87.0677002,-3.97 94.7892962,-5.7005 9.558,-2.142 13.4746,-4.7305 18.9343,-12.5138 4.249,-6.0573 5.1413,-8.2921 4.8092,-12.0443 -0.3769,-4.258 -0.1528,-4.6115 2.9576,-4.6655 2.8117,-0.049 4.8229,-2.1088 12.226,-12.5222 4.8733,-6.855 8.6977,-13.3096 8.4985,-14.3436 -0.5426,-2.8179 -5.8897,-5.0286 -12.213,-5.0493 -6.031,-0.02 -35.2159,-9.139 -37.3053,-11.6565 -0.6814,-0.8212 -2.0723,-5.9061 -3.090696,-11.2999 l -1.8518,-9.807 3.439496,-3.8494 3.4394,-3.8494 26.121,-0.091 c 14.3666,-0.05 31.6054,0.4083 38.3085,1.0182 l 12.1875,1.1087 0,-3.7376 c 0,-3.5353 -0.5919,-3.972 -10.9375,-8.0692 -8.0849,-3.2019 -11.3408,-5.16 -12.4838,-7.5077 -0.9926,-2.0385 -3.6786,-3.9626 -7.5,-5.3722 -8.004,-2.9525 -21.5247,-10.2655 -25.1198,-13.5868 -2.7334,-2.5251 -4.2222,-2.7 -23.75,-2.7898 l -20.833896,-0.096 -73.3455002,-17.0525 c -63.1351998,-14.6786 -74.5039998,-17.6669 -81.6663998,-21.4667 -10.5505,-5.5971 -18.2023,-6.081 -20.3856,-1.2892 -1.6266,3.57 -4.1777,4.021 -6.553304,1.1586 -2.5876,-3.1179 -11.0281,-6.945 -14.6964,-6.6637 -6.3653,0.4881 -8.987,-0.1291 -11.5856,-2.7278 -2.079,-2.079 -8.0993,-3.6027 -29.68752,-7.514 -34.87634,-6.31874 -32.94668,-5.82315 -32.46253,-8.33714 0.30177,-1.56695 5.45749,-3.6085 19.77055,-7.82874 16.33816,-4.81732 19.4211,-6.11113 19.7386,-8.28366 0.2069,-1.41606 -3.0274,-11.09956 -7.18751,-21.51888 -4.16006,-10.41932 -7.56375,-19.72001 -7.56375,-20.6682 0,-2.19377 2.75675,-3.26716 6.12723,-2.38576 3.04503,0.79629 8.87273,-2.60289 8.87273,-5.17529 0,-2.41475 -2.0388,-2.86569 -19.99996,-4.42337 -13.63345,-1.18236 -15.92079,-1.70609 -17.94567,-4.109 -2.55237,-3.02889 -6.69449,-3.26943 -92.36683,-5.36396 -21.43727,-0.5241 -33.4375,-1.27662 -33.4375,-2.09683 0,-0.86221 12.53285,-1.01651 38.4375,-0.47323 21.14063,0.44338 89.34375,1.08788 151.56246,1.43222 115.6012038,0.6398 156.434704,1.88672 165.981204,5.06856 9.1534,3.05079 19.4054,1.90333 14.9426,-1.67246 -2.0151,-1.61459 -20.3085,-6.79527 -38.2618,-10.83575 -25.6356002,-5.76942 -50.9991,-9.6095 -103.7309,-15.70501 -17.431704,-2.01501 -32.478504,-4.31481 -33.437504,-5.11068 -2.3698,-1.96679 -2.1916,-5.34252 0.4439,-8.40951 2.1402,-2.49043 2.553,-2.50847 19.062504,-0.8327 15.9752,1.62153 17.5749,1.57345 30,-0.90157 l 13.125,-2.61443 52.4999998,3.994 c 28.8750002,2.1967 62.9063002,4.82846 75.6250002,5.84836 74.162196,5.94694 102.099196,5.36887 117.162196,-2.42432 2.2204,-1.14878 6.5102,-4.66958 9.5328,-7.824 l 5.4958,-5.73529 10.4671,9.09744 c 5.7569,5.00359 11.3838,9.86891 12.5042,10.81183 1.6945,1.42618 3.8214,1.4564 12.6513,0.17974 l 10.6142,-1.53467 4.1418,4.91461 c 8.042,9.54259 25.6251,26.42936 31.1194,29.88691 3.0601,1.92571 9.5288,4.7825 14.375,6.34842 14.1488,4.57184 36.1963,13.10706 36.932,14.29742 0.3723,0.60237 5.7287,2.89574 11.9031,5.09636 6.1744,2.20062 11.7605,4.48699 12.4136,5.08081 0.6532,0.59382 3.362,1.07968 6.0197,1.07968 2.6577,0 5.9148,0.57939 7.238,1.28754 1.6686,0.893 5.5695,0.83988 12.7303,-0.17335 9.5896,-1.35689 12.6381,-1.13588 42.8245,3.10478 21.3442,2.99847 35.5035,5.62369 41.25,7.64799 4.8125,1.69528 21.2005,6.44065 36.4177,10.54527 15.2172,4.10461 35.7484,10.522 45.625,14.26086 35.242,13.3412 41.5472,14.3549 75.4573,12.1315 11.6875,-0.76631 27.1563,-1.60916 34.375,-1.873 7.2188,-0.26384 20.1563,-1.09959 28.75,-1.85723 18.6889,-1.64762 34.8043,-0.72672 42.5134,2.42942 6.9272,2.83601 25.9587,6.47621 84.9866,16.25551 63.4674,10.5149 77.3687,14.1536 87.6314,22.9382 2.6859,2.299 17.879,10.8373 33.7624,18.9742 24.3442,12.4711 29.3251,15.4937 31.7197,19.2487 1.5625,2.45 7.8587,12.8921 13.9914,23.2046 6.1329,10.3125 11.9194,19.9511 12.859,21.419 1.39401,2.178 1.42101,3.3627 0.14651,6.4395 -1.22291,2.9524 -2.74421,4.0682 -7.01191,5.1428 -2.9975,0.7548 -5.798,1.9351 -6.2231,2.623 -0.4251,0.6879 -2.6799,1.2507 -5.0107,1.2507 -5.5335,0 -28.1769,-4.3915 -42.4582,-8.2344 -25.0054,-6.7287 -24.2112,-6.7693 -66.6156,3.4043 -20.1067,4.8239 -21.7392,5.0381 -23.8485,3.1292 -4.182,-3.7847 -13.9694,-2.6614 -38.5964,4.4295 -4.9028,1.4117 -5.5011,1.3114 -8.3945,-1.4068 -2.8583,-2.6852 -3.7639,-2.8485 -10.971,-1.978 -4.3205,0.5218 -18.7197,0.8199 -31.9983,0.6623 -23.2342,-0.2757 -24.1676,-0.1921 -24.7982,2.2196 -0.7247,2.7713 -4.9817,4.0243 -13.6722,4.0243 -3.8514,0 -7.7351,1.2694 -13.385,4.375 -7.6958,4.2301 -8.4015,4.375 -21.31,4.375 -7.3429,0 -14.3274,0.5285 -15.5212,1.1745 -1.1938,0.646 -3.7548,1.5098 -5.6911,1.9197 -2.3569,0.4988 -3.3898,1.411 -3.125,2.7595 0.276,1.4059 5.3049,3.477 16.6455,6.8555 8.9375,2.6626 21.5938,6.4866 28.125,8.4979 10.3531,3.1881 36.4083,7.7144 72.5,12.5947 5.8438,0.7902 13.399,2.2268 16.7894,3.1924 3.5711,1.0172 11.8245,1.7558 19.619,1.7558 7.4,0 20.9385,1.0765 30.0856,2.3923 9.1471,1.3158 20.2873,2.7667 24.756,3.2242 4.4688,0.4576 10.0938,1.3276 12.5,1.9334 2.4063,0.6059 22.6563,2.5485 45,4.317 52.07,4.1213 63.9223,6.0061 58.75,9.3427 -6.918,4.4627 -54.8308,7.7938 -180,12.5143 -33.6209,1.268 -39.2876,1.3378 -44.375,0.5471 z"
         id="path3349"
         inkscape:connector-curvature="0" />
    </g>
  </g>
</svg>
