<?xml version="1.0" encoding="UTF-8" standalone="no"?>
<!-- Created with Inkscape (http://www.inkscape.org/) -->

<svg
   xmlns:dc="http://purl.org/dc/elements/1.1/"
   xmlns:cc="http://creativecommons.org/ns#"
   xmlns:rdf="http://www.w3.org/1999/02/22-rdf-syntax-ns#"
   xmlns:svg="http://www.w3.org/2000/svg"
   xmlns="http://www.w3.org/2000/svg"
   xmlns:sodipodi="http://sodipodi.sourceforge.net/DTD/sodipodi-0.dtd"
   xmlns:inkscape="http://www.inkscape.org/namespaces/inkscape"
   width="67.001785"
   height="20.112885"
   viewBox="0 0 67.001787 20.112884"
   id="svg2"
   version="1.1"
   inkscape:version="0.91 r13725"
   sodipodi:docname="Buccaneer.svg">
  <defs
     id="defs4" />
  <sodipodi:namedview
     id="base"
     pagecolor="#ffffff"
     bordercolor="#666666"
     borderopacity="1.0"
     inkscape:pageopacity="0.0"
     inkscape:pageshadow="2"
     inkscape:zoom="7.9195959"
     inkscape:cx="37.966869"
     inkscape:cy="17.187065"
     inkscape:document-units="px"
     inkscape:current-layer="g4147"
     showgrid="false"
     fit-margin-top="0"
     fit-margin-left="0"
     fit-margin-right="0"
     fit-margin-bottom="0"
     units="px"
     inkscape:window-width="1920"
     inkscape:window-height="1017"
     inkscape:window-x="-8"
     inkscape:window-y="-8"
     inkscape:window-maximized="1" />
  <metadata
     id="metadata7">
    <rdf:RDF>
      <cc:Work
         rdf:about="">
        <dc:format>image/svg+xml</dc:format>
        <dc:type
           rdf:resource="http://purl.org/dc/dcmitype/StillImage" />
        <dc:title></dc:title>
      </cc:Work>
    </rdf:RDF>
  </metadata>
  <g
     inkscape:label="Layer 1"
     inkscape:groupmode="layer"
     id="layer1"
     transform="translate(3388.294,-1138.6343)">
    <g
       id="g4147"
       transform="translate(-205.71426,-281.42857)">
      <path
         style="fill:#000000;fill-opacity:1"
         d="m -3150.1883,1440.0586 c -0.044,-0.07 -0.081,-0.1476 -0.081,-0.1737 0,-0.1215 -0.3139,-0.1247 -0.427,0 -0.045,0.048 -0.1199,0.096 -0.1671,0.1081 -0.1108,0.028 -0.32,-0.06 -0.3713,-0.1558 -0.027,-0.05 -0.075,-0.075 -0.1478,-0.075 -0.095,0 -0.1182,-0.022 -0.1954,-0.1881 -0.093,-0.1997 -0.1187,-0.5118 -0.052,-0.6357 0.05,-0.094 -0.014,-0.2454 -0.1545,-0.3624 -0.1087,-0.091 -0.1141,-0.1075 -0.1141,-0.3505 0,-0.249 0,-0.258 0.1343,-0.3781 0.095,-0.087 0.1343,-0.1529 0.1343,-0.2252 0,-0.1752 0.042,-0.1881 0.6166,-0.1881 l 0.5307,0 0.3928,-0.1969 0.3928,-0.197 0.5682,0 0.5682,0 0.056,-0.1424 0.056,-0.1423 0.5669,-0.01 c 0.5022,-0.01 0.5682,-0.017 0.5787,-0.071 0.015,-0.078 -0.053,-0.094 -0.5302,-0.1274 l -0.3761,-0.026 -0.01,-0.2149 c -0.01,-0.1181 -0.018,-0.4593 -0.029,-0.7581 -0.014,-0.3824 -0.033,-0.5547 -0.066,-0.582 -0.026,-0.021 -0.1184,-0.049 -0.2061,-0.061 l -0.1596,-0.022 -0.06,0.216 c -0.051,0.1851 -0.082,0.2305 -0.2106,0.3173 -0.1027,0.069 -0.1604,0.1388 -0.1811,0.2191 -0.036,0.1388 -0.087,0.1627 -0.4765,0.2234 -0.2176,0.034 -0.3089,0.066 -0.3841,0.136 -0.1348,0.1252 -0.5251,0.2251 -0.7699,0.197 l -0.188,-0.022 0,0.1855 c 0,0.1147 -0.027,0.2389 -0.072,0.3258 -0.039,0.077 -0.072,0.1882 -0.072,0.2467 0,0.07 -0.03,0.1297 -0.087,0.1749 -0.081,0.064 -0.185,0.07 -1.5698,0.094 -0.8155,0.014 -1.5297,0.031 -1.5872,0.038 -0.058,0.01 -0.1529,-0.01 -0.212,-0.033 -0.095,-0.04 -0.1273,-0.035 -0.2843,0.043 -0.2721,0.136 -0.5968,0.1465 -0.8841,0.029 -0.034,-0.014 -0.083,0 -0.1179,0.036 -0.088,0.088 -0.2801,0.1215 -0.7015,0.1215 -0.4945,0 -0.6394,-0.035 -0.7521,-0.1813 -0.1743,-0.2263 -0.2768,-0.313 -0.4152,-0.351 -0.1147,-0.031 -0.2303,-0.1366 -0.6414,-0.5829 -0.4073,-0.4422 -0.5014,-0.5642 -0.5014,-0.6496 0,-0.065 -0.024,-0.1173 -0.063,-0.1364 -0.034,-0.017 -0.091,-0.045 -0.1253,-0.062 -0.046,-0.023 -0.064,-0.077 -0.066,-0.206 0,-0.096 -0.033,-0.304 -0.068,-0.4616 -0.051,-0.2294 -0.092,-0.3204 -0.2055,-0.4567 -0.1249,-0.15 -0.1582,-0.1701 -0.2823,-0.1701 -0.133,0 -0.1484,-0.012 -0.2832,-0.2204 -0.078,-0.1213 -0.1424,-0.2444 -0.1424,-0.2736 0,-0.076 -0.3952,-0.6476 -0.4628,-0.6695 -0.031,-0.01 -0.095,-0.075 -0.1418,-0.1437 -0.061,-0.09 -0.1316,-0.1392 -0.2507,-0.1747 -0.091,-0.027 -0.2283,-0.076 -0.3051,-0.1079 -0.1813,-0.076 -1.7049,-0.2792 -1.8816,-0.2509 -0.087,0.014 -0.1714,0 -0.2387,-0.032 -0.057,-0.029 -0.3171,-0.081 -0.5777,-0.1157 -0.4603,-0.061 -0.4763,-0.066 -0.5609,-0.1766 -0.082,-0.108 -0.088,-0.1463 -0.1022,-0.7028 -0.019,-0.7603 -0.074,-0.9434 -0.3146,-1.0631 -0.1289,-0.064 -0.1839,-0.074 -0.2686,-0.047 -0.3885,0.1223 -0.3561,0.1241 -0.9435,-0.052 -0.3028,-0.09 -0.6079,-0.2035 -0.6782,-0.2512 -0.1294,-0.088 -0.2219,-0.073 -0.2219,0.037 0,0.056 -0.08,0.089 -0.2176,0.089 -0.071,0 -0.135,-0.035 -0.1999,-0.1075 -0.094,-0.1055 -0.102,-0.1074 -0.4461,-0.1074 -0.3292,0 -0.3858,-0.012 -0.9403,-0.197 -0.3246,-0.1084 -0.6445,-0.197 -0.7111,-0.197 -0.067,0 -0.1384,-0.017 -0.1596,-0.039 -0.052,-0.052 -0.3271,0.031 -0.3705,0.1116 -0.063,0.117 -0.2275,0.1502 -0.6695,0.1348 -0.4114,-0.014 -0.4423,-0.022 -1.2101,-0.2767 -0.4334,-0.144 -0.8128,-0.2836 -0.8431,-0.3102 -0.03,-0.026 -0.3239,-0.1085 -0.6523,-0.1821 -0.5481,-0.1228 -0.6035,-0.1425 -0.6751,-0.2393 -0.1088,-0.1471 -0.1332,-0.397 -0.048,-0.4912 0.062,-0.068 0.062,-0.078 0,-0.1748 -0.071,-0.1199 -0.082,-0.4673 -0.018,-0.532 0.024,-0.024 0.089,-0.043 0.1458,-0.043 l 0.1028,0 -0.1228,-0.1164 c -0.093,-0.088 -0.1289,-0.1581 -0.1478,-0.2856 -0.02,-0.1335 -0.045,-0.1788 -0.1183,-0.2149 -0.075,-0.037 -0.1216,-0.1252 -0.2404,-0.4576 l -0.1471,-0.4119 -1.9513,-0.026 c -1.0733,-0.015 -2.8105,-0.039 -3.8606,-0.054 l -1.9093,-0.027 -0.069,-0.089 c -0.078,-0.1016 -0.093,-0.3036 -0.026,-0.3471 0.068,-0.044 1.4636,-0.078 4.5575,-0.1133 3.1832,-0.036 2.9907,-0.031 2.9907,-0.072 0,-0.017 -0.2028,-0.039 -0.4506,-0.048 -0.4394,-0.017 -0.4532,-0.02 -0.554,-0.1212 -0.083,-0.084 -0.1946,-0.368 -0.567,-1.447 -0.2549,-0.7387 -0.4732,-1.3914 -0.485,-1.4505 -0.015,-0.074 6e-4,-0.1434 0.05,-0.2235 l 0.071,-0.116 2.9466,-0.014 c 1.6206,-0.01 3.0388,-0.026 3.1515,-0.039 0.1588,-0.02 0.2557,-0.01 0.4298,0.047 0.1694,0.054 0.3707,0.077 0.8159,0.094 0.5259,0.02 0.6126,0.015 0.7879,-0.046 0.3141,-0.1094 0.3896,-0.1535 0.4011,-0.2341 0.016,-0.1137 0.1667,-0.1228 2.0932,-0.1263 1.5375,0 1.7267,-0.01 1.746,-0.06 0.012,-0.031 0.022,-0.1843 0.022,-0.3402 0,-0.156 0,-0.2845 0.01,-0.2856 0.018,0 1.9897,-0.1425 2.3477,-0.165 0.3073,-0.019 0.3746,-0.034 0.4041,-0.089 0.045,-0.084 0.3241,-0.093 0.391,-0.013 0.037,0.044 0.1091,0.05 0.4073,0.031 0.1996,-0.012 0.3908,-0.037 0.4249,-0.055 0.066,-0.034 0.1743,0.062 0.2568,0.2272 0.023,0.045 0.069,0.088 0.1024,0.094 0.034,0.01 0.2026,-0.068 0.3752,-0.165 0.1726,-0.097 0.4276,-0.234 0.5666,-0.304 0.139,-0.07 0.274,-0.1527 0.2999,-0.1839 0.041,-0.049 0.1659,-0.057 0.9069,-0.057 l 0.8599,0 0.1745,0.1253 c 0.096,0.069 0.2107,0.1254 0.255,0.1254 0.044,10e-5 0.2175,0.024 0.3849,0.054 0.1674,0.029 0.4414,0.071 0.6089,0.091 0.3679,0.045 0.7827,0.1391 0.8689,0.1965 0.038,0.025 0.1363,0.035 0.2438,0.025 0.1607,-0.015 0.1921,-0.01 0.2839,0.082 0.084,0.08 0.1223,0.094 0.2039,0.073 0.1206,-0.031 0.2348,-0.031 0.4101,4e-4 0.09,0.016 0.1568,0.01 0.2149,-0.031 0.05,-0.032 0.2914,-0.079 0.586,-0.1135 0.2758,-0.032 0.856,-0.1214 1.2894,-0.1978 0.6668,-0.1176 0.9182,-0.1446 1.6353,-0.1758 l 0.8475,-0.037 1.1403,0.2461 c 1.1349,0.2449 1.1468,0.2484 2.4776,0.7334 0.7355,0.2681 1.3609,0.4874 1.3899,0.4874 0.082,0 0.2634,0.2205 0.2646,0.3214 7e-4,0.05 0.025,0.1218 0.054,0.16 0.043,0.057 0.053,0.2426 0.053,1.0432 0,0.7786 0.01,0.9819 0.049,1.0143 0.027,0.022 0.4096,0.1707 0.8506,0.3299 l 0.8018,0.2893 0.5014,-0.01 c 0.4166,-0.01 0.7924,0.025 2.2206,0.1906 0.9456,0.1096 1.7756,0.219 1.8445,0.2432 0.069,0.024 0.163,0.078 0.2089,0.1196 0.071,0.064 0.133,0.077 0.4119,0.082 0.8073,0.014 1.162,0.042 1.2704,0.098 0.069,0.036 0.2402,0.063 0.4616,0.074 0.1932,0.01 0.448,0.034 0.5662,0.055 0.2851,0.051 5.9902,0.4017 6.0787,0.3737 0.038,-0.012 0.095,0 0.129,0.03 0.076,0.066 -0.4359,-0.1324 6.1488,2.3825 3.0927,1.1812 5.6826,2.1725 5.7553,2.2029 0.105,0.044 0.1399,0.083 0.1696,0.1922 0.085,0.3113 0.6108,1.6002 0.6847,1.6788 0.071,0.076 0.075,0.097 0.036,0.1918 -0.024,0.059 -0.039,0.1923 -0.032,0.2969 0.012,0.1879 0.011,0.1903 -0.095,0.2023 -0.059,0.01 -2.0899,0.3588 -4.5128,0.7824 -2.423,0.4237 -4.5907,0.7868 -4.8173,0.8069 -0.2594,0.023 -0.4335,0.056 -0.4703,0.088 -0.035,0.03 -0.093,0.043 -0.1433,0.03 -0.131,-0.033 -0.8143,0.042 -0.902,0.099 -0.1058,0.068 -0.4451,0.1051 -0.534,0.057 -0.069,-0.037 -0.4273,-0.016 -1.2454,0.075 -0.1675,0.019 -0.5543,0.052 -0.8596,0.074 -0.3053,0.022 -1.1014,0.088 -1.769,0.1463 -1.0522,0.092 -1.2258,0.1157 -1.3032,0.1766 -0.067,0.053 -0.145,0.07 -0.3151,0.07 -0.1242,0 -0.2358,-0.016 -0.248,-0.036 -0.012,-0.02 -0.075,-0.036 -0.1404,-0.036 -0.097,0 -0.2858,-0.121 -1.0277,-0.6572 l -0.9094,-0.6571 -0.3277,-0.019 c -0.1803,-0.01 -0.3472,-0.01 -0.371,0.01 -0.029,0.018 -0.035,0.074 -0.019,0.1707 0.021,0.1211 0.012,0.1557 -0.055,0.2183 -0.1036,0.096 -0.1142,0.094 0.6657,0.1653 0.3546,0.033 0.6974,0.075 0.7619,0.096 0.1368,0.043 0.2947,0.2526 0.2947,0.392 0,0.052 -0.035,0.1386 -0.077,0.1927 -0.075,0.095 -0.086,0.098 -0.3147,0.075 -0.2122,-0.021 -0.396,0.01 -1.7495,0.2977 -1.0239,0.2174 -1.5513,0.3451 -1.6326,0.3954 -0.1447,0.089 -0.2297,0.093 -0.3397,0.016 -0.097,-0.068 -0.1381,-0.038 -0.1544,0.1116 l -0.012,0.1075 -0.4643,-0.01 -0.4642,-0.01 -0.098,-0.1071 c -0.054,-0.059 -0.13,-0.107 -0.1693,-0.107 -0.039,0 -0.146,-0.064 -0.237,-0.1433 -0.091,-0.079 -0.1935,-0.1433 -0.2275,-0.1433 -0.034,0 -0.1218,-0.056 -0.1949,-0.1253 -0.073,-0.069 -0.1657,-0.1254 -0.2057,-0.1254 -0.04,0 -0.1291,-0.056 -0.1981,-0.1253 -0.069,-0.069 -0.1578,-0.1254 -0.1974,-0.1254 -0.04,0 -0.1155,-0.044 -0.1686,-0.099 -0.053,-0.054 -0.1612,-0.1307 -0.2401,-0.1701 -0.1611,-0.08 -0.1701,-0.1059 -0.081,-0.2311 0.045,-0.064 0.1066,-0.093 0.2271,-0.1075 l 0.1649,-0.02 -0.1823,-0.208 c -0.1003,-0.1144 -0.1823,-0.224 -0.1823,-0.2435 0,-0.021 -0.093,-0.031 -0.2238,-0.025 l -0.2239,0.011 0,0.1791 c 0,0.1724 0,0.1795 0.1075,0.1912 0.059,0.01 0.1276,0.029 0.1522,0.049 0.1063,0.088 0.014,0.3885 -0.2394,0.7804 -0.096,0.1477 -0.1928,0.3288 -0.2161,0.4024 -0.023,0.074 -0.061,0.1461 -0.084,0.1612 -0.023,0.015 -0.4209,0.027 -0.8838,0.027 l -0.8417,0 0.01,0.125 c 0,0.069 -0.013,0.1369 -0.036,0.1516 -0.023,0.015 -0.1438,0.027 -0.2682,0.027 -0.2392,6e-4 -0.3648,0.043 -0.3648,0.1233 0,0.027 0.025,0.058 0.057,0.07 0.031,0.012 0.4587,0.022 0.95,0.022 l 0.8933,0 0.038,0.098 c 0.078,0.2011 0.043,0.4486 -0.1039,0.7343 -0.021,0.041 5.3204,0.033 5.3459,-0.01 0.013,-0.021 0.2177,-0.026 0.5365,-0.012 0.4364,0.019 0.534,0.013 0.6397,-0.037 0.1516,-0.072 0.2987,-0.074 0.4183,-0.01 0.068,0.039 0.2368,0.052 0.6882,0.052 0.5545,0 0.6014,0.01 0.6357,0.071 0.043,0.08 0.049,0.394 0.01,0.4575 -0.017,0.027 -0.1472,0.047 -0.3486,0.054 -0.257,0.01 -0.3212,0.021 -0.3212,0.064 0,0.043 0.068,0.056 0.3562,0.064 0.1958,0.01 0.3772,0.028 0.4029,0.049 0.032,0.027 0.047,0.1387 0.047,0.3559 0,0.316 -4e-4,0.3172 -0.1075,0.3726 -0.059,0.031 -0.1074,0.072 -0.1074,0.091 0,0.02 -0.04,0.054 -0.088,0.076 -0.07,0.032 -0.1061,0.028 -0.1778,-0.019 -0.1289,-0.084 -1.9209,-0.089 -1.9905,-0.01 -0.024,0.03 -0.082,0.054 -0.1277,0.054 -0.046,0 -0.093,0.016 -0.1051,0.036 -0.012,0.02 -0.1178,0.036 -0.2346,0.036 -0.1737,0 -0.2207,0.013 -0.2573,0.072 -0.043,0.07 -0.084,0.072 -1.426,0.072 -1.1592,0 -1.3926,-0.01 -1.4509,-0.053 -0.038,-0.029 -0.1058,-0.053 -0.1501,-0.054 -0.073,-10e-4 -0.081,0.016 -0.081,0.1773 0,0.2248 0.013,0.2211 -0.7522,0.2079 -0.572,-0.01 -0.592,-0.013 -0.6259,-0.09 -0.034,-0.078 -0.053,-0.08 -0.6588,-0.09 -0.6558,-0.01 -0.6461,-0.01 -0.6993,-0.1798 -0.018,-0.057 -0.083,-0.063 -0.6942,-0.063 -0.5378,0 -0.6889,0.011 -0.7443,0.053 -0.091,0.069 -0.317,0.07 -0.3739,0 -0.075,-0.091 -0.3346,-0.069 -0.4627,0.039 -0.061,0.051 -0.1303,0.086 -0.155,0.078 -0.025,-0.01 -0.1537,0.04 -0.2868,0.1079 l -0.242,0.123 -0.6176,-0.013 c -0.4217,-0.01 -0.6443,-0.028 -0.7015,-0.06 -0.078,-0.044 -0.095,-0.036 -0.2356,0.1113 -0.306,0.3193 -0.8095,0.2828 -1.0309,-0.075 -0.059,-0.095 -0.09,-0.1144 -0.1497,-0.095 -0.042,0.013 -0.2175,0.033 -0.3907,0.043 -0.2728,0.016 -0.3289,0.031 -0.4208,0.1121 -0.058,0.051 -0.1061,0.1192 -0.1061,0.1512 0,0.032 -0.025,0.109 -0.056,0.1711 -0.05,0.1002 -0.073,0.1128 -0.2059,0.1115 -0.1314,0 -0.1595,-0.017 -0.2302,-0.1279 z m 13.5669,-4.4161 c 1.2776,-0.2566 1.2752,-0.256 1.2116,-0.2909 -0.027,-0.015 -0.4203,-0.048 -0.8738,-0.073 l -0.8245,-0.046 -0.2678,0.1005 c -0.1474,0.055 -0.3559,0.1499 -0.4634,0.2102 -0.2553,0.1432 -0.4746,0.1489 -0.6701,0.017 -0.1044,-0.07 -0.2777,-0.1192 -0.7243,-0.2048 -0.3229,-0.062 -0.5953,-0.1042 -0.6054,-0.094 -0.048,0.048 1.2194,0.4911 1.4431,0.5048 0.099,0.01 0.2758,0.026 0.394,0.045 0.1182,0.018 0.2398,0.036 0.2703,0.038 0.03,0 0.5301,-0.091 1.1103,-0.2071 z"
         id="path4155"
         inkscape:connector-curvature="0" />
    </g>
  </g>
</svg>
