<?xml version="1.0" encoding="UTF-8" standalone="no"?>
<svg
   xmlns:dc="http://purl.org/dc/elements/1.1/"
   xmlns:cc="http://creativecommons.org/ns#"
   xmlns:rdf="http://www.w3.org/1999/02/22-rdf-syntax-ns#"
   xmlns:svg="http://www.w3.org/2000/svg"
   xmlns="http://www.w3.org/2000/svg"
   version="1.1"
   id="svg2"
   viewBox="0 0 14.991184 4.5356997"
   width="44.973549">
  <defs
     id="defs4" />
  <metadata
     id="metadata7">
    <rdf:RDF>
      <cc:Work
         rdf:about="">
        <dc:format>image/svg+xml</dc:format>
        <dc:type
           rdf:resource="http://purl.org/dc/dcmitype/StillImage" />
        <dc:title></dc:title>
      </cc:Work>
    </rdf:RDF>
  </metadata>
  <g
     transform="translate(3388.2932,-1154.2558)"
     id="layer1">
    <g
       transform="translate(-205.71426,-281.42857)"
       id="g4147">
      <path
         id="path4155"
         d="m -3175.3281,1440.1496 c -0.01,-0.016 -0.018,-0.033 -0.018,-0.039 0,-0.027 -0.07,-0.028 -0.096,0 -0.01,0.011 -0.027,0.022 -0.037,0.024 -0.025,0.01 -0.072,-0.014 -0.083,-0.035 -0.01,-0.011 -0.017,-0.017 -0.033,-0.017 -0.021,0 -0.026,0 -0.044,-0.042 -0.021,-0.045 -0.027,-0.1146 -0.012,-0.1423 0.011,-0.021 0,-0.055 -0.035,-0.081 -0.024,-0.02 -0.025,-0.024 -0.025,-0.078 0,-0.056 0,-0.058 0.03,-0.085 0.021,-0.02 0.03,-0.034 0.03,-0.05 0,-0.039 0.01,-0.042 0.1381,-0.042 l 0.1188,0 0.088,-0.044 0.088,-0.044 0.1272,0 0.1272,0 0.012,-0.032 0.012,-0.032 0.127,0 c 0.1124,0 0.1272,0 0.1295,-0.016 0,-0.017 -0.012,-0.021 -0.1187,-0.029 l -0.084,-0.01 0,-0.048 c 0,-0.027 0,-0.1028 -0.01,-0.1697 0,-0.086 -0.01,-0.1242 -0.015,-0.1303 -0.01,0 -0.026,-0.011 -0.046,-0.014 l -0.036,0 -0.013,0.048 c -0.011,0.042 -0.018,0.052 -0.047,0.071 -0.023,0.015 -0.036,0.031 -0.041,0.049 -0.01,0.031 -0.019,0.036 -0.1067,0.05 -0.049,0.01 -0.069,0.015 -0.086,0.031 -0.03,0.028 -0.1175,0.05 -0.1723,0.044 l -0.042,0 0,0.042 c 0,0.026 -0.01,0.053 -0.016,0.073 -0.01,0.017 -0.016,0.042 -0.016,0.055 0,0.016 -0.01,0.029 -0.019,0.039 -0.018,0.014 -0.041,0.016 -0.3515,0.021 -0.1825,0 -0.3424,0.01 -0.3553,0.01 -0.013,0 -0.034,0 -0.047,-0.01 -0.021,-0.01 -0.028,-0.01 -0.064,0.01 -0.061,0.03 -0.1336,0.033 -0.1979,0.01 -0.01,0 -0.019,0 -0.026,0.01 -0.02,0.02 -0.063,0.027 -0.1571,0.027 -0.1107,0 -0.1431,-0.01 -0.1683,-0.041 -0.039,-0.051 -0.062,-0.07 -0.093,-0.079 -0.026,-0.01 -0.052,-0.031 -0.1436,-0.1305 -0.091,-0.099 -0.1122,-0.1263 -0.1122,-0.1454 0,-0.015 -0.01,-0.026 -0.014,-0.031 -0.01,0 -0.02,-0.01 -0.028,-0.014 -0.01,-0.01 -0.014,-0.017 -0.015,-0.046 0,-0.022 -0.01,-0.068 -0.015,-0.1033 -0.011,-0.051 -0.021,-0.072 -0.046,-0.1022 -0.028,-0.034 -0.035,-0.038 -0.063,-0.038 -0.03,0 -0.033,0 -0.063,-0.049 -0.018,-0.027 -0.032,-0.055 -0.032,-0.061 0,-0.017 -0.088,-0.145 -0.1036,-0.1499 -0.01,0 -0.021,-0.017 -0.032,-0.032 -0.014,-0.02 -0.029,-0.031 -0.056,-0.039 -0.02,-0.01 -0.051,-0.017 -0.068,-0.024 -0.041,-0.017 -0.3816,-0.063 -0.4212,-0.056 -0.02,0 -0.038,0 -0.053,-0.01 -0.013,-0.01 -0.071,-0.018 -0.1294,-0.026 -0.103,-0.014 -0.1066,-0.015 -0.1256,-0.039 -0.018,-0.024 -0.02,-0.033 -0.023,-0.1574 0,-0.1702 -0.017,-0.2112 -0.071,-0.238 -0.029,-0.014 -0.041,-0.016 -0.06,-0.011 -0.087,0.027 -0.08,0.028 -0.2112,-0.012 -0.068,-0.02 -0.1361,-0.046 -0.1519,-0.056 -0.029,-0.02 -0.05,-0.016 -0.05,0.01 0,0.013 -0.018,0.02 -0.049,0.02 -0.016,0 -0.03,-0.01 -0.045,-0.024 -0.021,-0.024 -0.023,-0.024 -0.1,-0.024 -0.074,0 -0.086,0 -0.2105,-0.044 -0.073,-0.024 -0.1443,-0.044 -0.1592,-0.044 -0.015,0 -0.031,0 -0.036,-0.01 -0.012,-0.012 -0.073,0.01 -0.083,0.025 -0.014,0.026 -0.051,0.034 -0.1498,0.03 -0.092,0 -0.099,0 -0.2709,-0.062 -0.097,-0.032 -0.182,-0.063 -0.1888,-0.069 -0.01,-0.01 -0.072,-0.024 -0.146,-0.041 -0.1227,-0.027 -0.1351,-0.032 -0.1512,-0.054 -0.024,-0.033 -0.03,-0.089 -0.011,-0.1099 0.014,-0.015 0.014,-0.017 0,-0.039 -0.016,-0.027 -0.018,-0.1046 0,-0.1191 0.01,-0.01 0.02,-0.01 0.033,-0.01 l 0.023,0 -0.028,-0.026 c -0.021,-0.02 -0.029,-0.035 -0.033,-0.064 0,-0.03 -0.01,-0.04 -0.027,-0.048 -0.017,-0.01 -0.027,-0.028 -0.054,-0.1025 l -0.033,-0.092 -0.4368,-0.01 c -0.2403,0 -0.6292,-0.01 -0.8643,-0.012 l -0.4275,-0.01 -0.015,-0.02 c -0.017,-0.023 -0.021,-0.068 -0.01,-0.078 0.015,-0.01 0.3277,-0.017 1.0204,-0.025 0.7126,-0.01 0.6695,-0.01 0.6695,-0.016 0,0 -0.045,-0.01 -0.1009,-0.011 -0.098,0 -0.1014,0 -0.124,-0.027 -0.019,-0.019 -0.044,-0.082 -0.1269,-0.324 -0.057,-0.1653 -0.106,-0.3115 -0.1086,-0.3247 0,-0.017 1e-4,-0.032 0.011,-0.05 l 0.016,-0.026 0.6596,0 c 0.3628,0 0.6803,-0.01 0.7056,-0.01 0.035,0 0.057,0 0.096,0.011 0.038,0.012 0.083,0.017 0.1827,0.021 0.1177,0 0.1371,0 0.1763,-0.01 0.07,-0.024 0.087,-0.034 0.09,-0.052 0,-0.025 0.037,-0.028 0.4687,-0.028 0.3442,0 0.3865,0 0.3908,-0.013 0,-0.01 0,-0.041 0,-0.076 0,-0.035 0,-0.064 0,-0.064 0,0 0.4455,-0.032 0.5256,-0.037 0.069,0 0.084,-0.01 0.09,-0.02 0.01,-0.019 0.073,-0.021 0.088,0 0.01,0.01 0.024,0.011 0.091,0.01 0.045,0 0.088,-0.01 0.095,-0.012 0.015,-0.01 0.039,0.014 0.058,0.051 0.01,0.01 0.015,0.02 0.023,0.021 0.01,0 0.045,-0.015 0.084,-0.037 0.039,-0.022 0.096,-0.052 0.1269,-0.068 0.031,-0.016 0.061,-0.034 0.067,-0.041 0.01,-0.011 0.037,-0.013 0.203,-0.013 l 0.1926,0 0.039,0.028 c 0.022,0.015 0.047,0.028 0.057,0.028 0.01,1e-4 0.049,0.01 0.086,0.012 0.037,0.01 0.099,0.016 0.1363,0.02 0.082,0.01 0.1752,0.031 0.1945,0.044 0.01,0.01 0.031,0.01 0.055,0.01 0.036,0 0.043,0 0.064,0.018 0.019,0.018 0.027,0.021 0.046,0.016 0.027,-0.01 0.053,-0.01 0.092,10e-5 0.02,0 0.035,0 0.048,-0.01 0.011,-0.01 0.065,-0.018 0.1312,-0.025 0.062,-0.01 0.1917,-0.027 0.2887,-0.044 0.1493,-0.026 0.2055,-0.032 0.3661,-0.039 l 0.1897,-0.01 0.2553,0.055 c 0.2541,0.055 0.2567,0.056 0.5547,0.1642 0.1646,0.06 0.3046,0.1091 0.3111,0.1091 0.018,0 0.059,0.049 0.059,0.072 10e-5,0.011 0.01,0.027 0.012,0.036 0.01,0.013 0.012,0.054 0.012,0.2335 0,0.1743 0,0.2199 0.011,0.2271 0.01,0 0.092,0.038 0.1904,0.074 l 0.1795,0.065 0.1123,0 c 0.093,0 0.1774,0.01 0.4971,0.043 0.2117,0.024 0.3975,0.049 0.413,0.054 0.015,0.01 0.036,0.017 0.047,0.027 0.016,0.014 0.03,0.017 0.092,0.018 0.1808,0 0.2602,0.01 0.2844,0.022 0.015,0.01 0.054,0.014 0.1034,0.017 0.043,0 0.1003,0.01 0.1267,0.012 0.064,0.011 1.3411,0.09 1.3609,0.084 0.01,0 0.021,0 0.029,0.01 0.017,0.015 -0.098,-0.03 1.3765,0.5334 0.6924,0.2645 1.2722,0.4864 1.2885,0.4932 0.023,0.01 0.031,0.019 0.038,0.043 0.019,0.07 0.1367,0.3583 0.1533,0.3759 0.016,0.017 0.017,0.022 0.01,0.043 -0.01,0.013 -0.01,0.043 -0.01,0.067 0,0.042 0,0.043 -0.021,0.045 -0.013,0 -0.4679,0.08 -1.0103,0.1751 -0.5425,0.095 -1.0277,0.1762 -1.0785,0.1807 -0.058,0.01 -0.097,0.013 -0.1053,0.02 -0.01,0.01 -0.021,0.01 -0.032,0.01 -0.029,-0.01 -0.1823,0.01 -0.202,0.022 -0.024,0.015 -0.1,0.024 -0.1195,0.013 -0.015,-0.01 -0.096,0 -0.2788,0.017 -0.038,0 -0.1241,0.012 -0.1925,0.017 -0.068,0 -0.2466,0.02 -0.396,0.033 -0.2356,0.021 -0.2744,0.026 -0.2918,0.04 -0.015,0.012 -0.032,0.016 -0.07,0.016 -0.028,0 -0.053,0 -0.055,-0.01 0,0 -0.017,-0.01 -0.032,-0.01 -0.022,0 -0.064,-0.027 -0.23,-0.1471 l -0.2036,-0.1471 -0.073,0 c -0.04,0 -0.078,0 -0.083,0 -0.01,0 -0.01,0.016 0,0.038 0,0.027 0,0.035 -0.012,0.049 -0.023,0.021 -0.026,0.021 0.149,0.037 0.079,0.01 0.1561,0.017 0.1706,0.022 0.031,0.01 0.066,0.057 0.066,0.088 0,0.012 -0.01,0.031 -0.017,0.043 -0.017,0.021 -0.019,0.022 -0.07,0.017 -0.048,0 -0.089,0 -0.3917,0.067 -0.2292,0.049 -0.3473,0.077 -0.3655,0.089 -0.032,0.02 -0.051,0.021 -0.076,0 -0.022,-0.015 -0.031,-0.01 -0.034,0.025 l 0,0.024 -0.1039,0 -0.104,0 -0.022,-0.024 c -0.012,-0.013 -0.029,-0.024 -0.038,-0.024 -0.01,0 -0.033,-0.014 -0.053,-0.032 -0.02,-0.018 -0.043,-0.032 -0.051,-0.032 -0.01,0 -0.027,-0.013 -0.044,-0.028 -0.016,-0.015 -0.037,-0.028 -0.046,-0.028 -0.01,0 -0.029,-0.013 -0.044,-0.028 -0.015,-0.015 -0.035,-0.028 -0.044,-0.028 -0.01,0 -0.026,-0.01 -0.038,-0.022 -0.012,-0.012 -0.036,-0.029 -0.054,-0.038 -0.036,-0.018 -0.038,-0.024 -0.018,-0.052 0.01,-0.014 0.024,-0.021 0.051,-0.024 l 0.037,0 -0.041,-0.047 c -0.023,-0.026 -0.041,-0.05 -0.041,-0.054 0,0 -0.021,-0.01 -0.05,-0.01 l -0.05,0 0,0.04 c 0,0.039 0,0.04 0.024,0.043 0.013,0 0.029,0.01 0.034,0.011 0.024,0.02 0,0.087 -0.054,0.1748 -0.022,0.033 -0.043,0.074 -0.048,0.09 -0.01,0.017 -0.014,0.033 -0.019,0.036 -0.01,0 -0.094,0.01 -0.1979,0.01 l -0.1884,0 0,0.028 c 0,0.015 0,0.031 -0.01,0.034 -0.01,0 -0.032,0.01 -0.06,0.01 -0.053,2e-4 -0.082,0.01 -0.082,0.028 0,0.01 0.01,0.013 0.013,0.016 0.01,0 0.1027,0 0.2127,0 l 0.2,0 0.01,0.022 c 0.017,0.045 0.01,0.1004 -0.023,0.1644 0,0.01 1.1911,0.01 1.1968,0 0,0 0.049,-0.01 0.1201,0 0.098,0 0.1195,0 0.1432,-0.01 0.034,-0.016 0.067,-0.017 0.094,0 0.015,0.01 0.053,0.012 0.1541,0.012 0.1241,0 0.1346,0 0.1423,0.016 0.01,0.018 0.011,0.088 0,0.1024 0,0.01 -0.033,0.01 -0.078,0.012 -0.057,0 -0.072,0 -0.072,0.014 0,0.01 0.015,0.013 0.08,0.014 0.044,0 0.085,0.01 0.09,0.011 0.01,0.01 0.011,0.031 0.011,0.08 0,0.071 -1e-4,0.071 -0.024,0.083 -0.013,0.01 -0.024,0.016 -0.024,0.02 0,0 -0.01,0.012 -0.02,0.017 -0.016,0.01 -0.024,0.01 -0.04,0 -0.029,-0.019 -0.4301,-0.02 -0.4457,0 -0.01,0.01 -0.018,0.012 -0.029,0.012 -0.01,0 -0.021,0 -0.023,0.01 0,0 -0.026,0.01 -0.053,0.01 -0.039,0 -0.049,0 -0.058,0.016 -0.01,0.016 -0.019,0.016 -0.3193,0.016 -0.2595,0 -0.3117,0 -0.3248,-0.012 -0.01,-0.01 -0.024,-0.012 -0.034,-0.012 -0.016,-2e-4 -0.018,0 -0.018,0.04 0,0.05 0,0.05 -0.1684,0.046 -0.1281,0 -0.1325,0 -0.1401,-0.02 -0.01,-0.017 -0.012,-0.018 -0.1475,-0.02 -0.1468,0 -0.1447,0 -0.1566,-0.04 0,-0.013 -0.019,-0.014 -0.1554,-0.014 -0.1204,0 -0.1542,0 -0.1666,0.012 -0.02,0.015 -0.071,0.016 -0.084,0 -0.017,-0.02 -0.075,-0.015 -0.1036,0.01 -0.014,0.011 -0.029,0.019 -0.035,0.017 -0.01,0 -0.034,0.01 -0.064,0.024 l -0.054,0.027 -0.1383,0 c -0.094,0 -0.1442,-0.01 -0.157,-0.013 -0.017,-0.01 -0.021,-0.01 -0.053,0.025 -0.068,0.071 -0.1812,0.063 -0.2308,-0.017 -0.013,-0.021 -0.02,-0.026 -0.034,-0.021 -0.01,0 -0.049,0.01 -0.087,0.01 -0.061,0 -0.074,0.01 -0.094,0.025 -0.013,0.011 -0.024,0.027 -0.024,0.034 0,0.01 -0.01,0.024 -0.012,0.038 -0.011,0.022 -0.016,0.025 -0.046,0.025 -0.029,0 -0.036,0 -0.052,-0.029 z m 3.0373,-0.9887 c 0.286,-0.057 0.2854,-0.057 0.2712,-0.065 -0.01,0 -0.094,-0.011 -0.1956,-0.016 l -0.1846,-0.01 -0.06,0.023 c -0.033,0.012 -0.08,0.034 -0.1037,0.047 -0.057,0.032 -0.1063,0.033 -0.15,0 -0.023,-0.016 -0.062,-0.027 -0.1622,-0.046 -0.072,-0.014 -0.1332,-0.023 -0.1355,-0.021 -0.011,0.011 0.273,0.1099 0.3231,0.113 0.022,0 0.062,0.01 0.088,0.01 0.026,0 0.054,0.01 0.061,0.01 0.01,0 0.1187,-0.02 0.2486,-0.046 z"
         style="fill:#000000;fill-opacity:1" />
    </g>
  </g>
</svg>
