<?xml version="1.0" encoding="UTF-8" standalone="no"?>
<!-- Created with Inkscape (http://www.inkscape.org/) -->

<svg
   xmlns:dc="http://purl.org/dc/elements/1.1/"
   xmlns:cc="http://creativecommons.org/ns#"
   xmlns:rdf="http://www.w3.org/1999/02/22-rdf-syntax-ns#"
   xmlns:svg="http://www.w3.org/2000/svg"
   xmlns="http://www.w3.org/2000/svg"
   xmlns:sodipodi="http://sodipodi.sourceforge.net/DTD/sodipodi-0.dtd"
   xmlns:inkscape="http://www.inkscape.org/namespaces/inkscape"
   width="442.63739"
   height="112.04916"
   id="svg3095"
   version="1.1"
   inkscape:version="0.48.5 r10040"
   sodipodi:docname="Carrack.svg">
  <defs
     id="defs3097" />
  <sodipodi:namedview
     id="base"
     pagecolor="#ffffff"
     bordercolor="#666666"
     borderopacity="1.0"
     inkscape:pageopacity="0.0"
     inkscape:pageshadow="2"
     inkscape:zoom="2.8"
     inkscape:cx="206.7178"
     inkscape:cy="58.063982"
     inkscape:document-units="px"
     inkscape:current-layer="g3114"
     showgrid="false"
     fit-margin-top="0"
     fit-margin-left="0"
     fit-margin-right="0"
     fit-margin-bottom="0"
     inkscape:window-width="1920"
     inkscape:window-height="1018"
     inkscape:window-x="-8"
     inkscape:window-y="-8"
     inkscape:window-maximized="1"
     showguides="true"
     inkscape:guide-bbox="true" />
  <metadata
     id="metadata3100">
    <rdf:RDF>
      <cc:Work
         rdf:about="">
        <dc:format>image/svg+xml</dc:format>
        <dc:type
           rdf:resource="http://purl.org/dc/dcmitype/StillImage" />
        <dc:title />
      </cc:Work>
    </rdf:RDF>
  </metadata>
  <g
     inkscape:label="Layer 1"
     inkscape:groupmode="layer"
     id="layer1"
     transform="translate(467.13531,-585.06394)">
    <g
       id="g3114">
      <path
         style="fill:#000000;fill-opacity:1"
         d="m -286.66066,696.79249 c -0.82592,-0.56682 -2.97443,-0.82016 -4.79118,-0.56491 -0.49976,0.0702 -0.9652,0.0361 -1.03434,-0.0756 -0.0691,-0.11187 -0.56208,-0.27711 -1.09546,-0.36724 -0.53335,-0.0901 -1.02738,-0.25708 -1.09779,-0.37106 -0.0704,-0.11395 -2.90174,-0.20289 -6.29178,-0.19759 -6.55632,0.0101 -7.4309,-0.11617 -6.95518,-1.00507 0.13525,-0.25273 0.43743,-0.51575 0.67154,-0.58454 0.65567,-0.19265 2.7012,-0.26561 2.86462,-0.10219 0.0801,0.08 2.02489,0.0966 4.3218,0.0368 4.13677,-0.1078 4.17918,-0.11445 4.48853,-0.70484 0.29586,-0.56468 0.42615,-0.59605 2.47785,-0.59605 1.19105,0 2.23315,0.10939 2.31578,0.24308 0.0827,0.13369 0.85477,0.24308 1.71589,0.24308 1.50795,0 1.56562,-0.0224 1.56562,-0.60769 l 0,-0.60768 -3.01095,0 -3.01093,0 -7.25899,-2.76072 c -3.99243,-1.5184 -7.50471,-2.83826 -7.80509,-2.93303 -0.46398,-0.1464 -1.28658,0.48743 -5.46918,4.21415 l -4.92307,4.38646 -1.26177,0.005 c -0.69401,0.003 -1.32941,-0.10438 -1.41206,-0.23807 -0.0952,-0.15403 -3.0675,-0.24307 -8.11547,-0.24307 l -7.96525,0 -9.21797,-12.84341 -9.21796,-12.84341 -10.08761,-0.16013 c -5.54818,-0.0881 -20.26031,-0.2248 -32.69358,-0.30384 l -22.60598,-0.14372 -1.57999,-0.56704 c -1.42451,-0.51125 -2.11811,-0.57925 -7.04917,-0.69108 -3.00806,-0.0682 -5.71091,-0.19795 -6.00635,-0.28831 -0.48342,-0.14784 -0.54421,-0.34828 -0.60768,-2.00376 l -0.0705,-1.83949 -4.13227,-1.45798 c -3.82204,-1.34854 -4.34213,-1.4704 -6.92764,-1.62322 -2.75775,-0.16301 -2.90416,-0.20279 -10.88767,-2.95814 -4.45077,-1.53611 -8.18727,-2.8923 -8.30332,-3.01377 -0.12125,-0.12692 0.861,-2.805 2.30985,-6.2977 1.38645,-3.34229 2.52507,-6.25491 2.53026,-6.4725 0.0209,-0.87564 0.5957,-0.98352 5.07501,-0.95252 3.66668,0.0254 4.49763,-0.0363 5.23703,-0.38893 0.48338,-0.23051 0.87886,-0.5372 0.87886,-0.68153 0,-0.14434 0.21528,-0.66406 0.47838,-1.15496 l 0.47837,-0.89254 -0.61459,-0.0763 c -0.58416,-0.0724 -0.49712,-0.23035 1.75867,-3.19129 1.42532,-1.87087 2.27079,-3.18158 2.11677,-3.28152 -0.14108,-0.0915 -2.18621,-1.58836 -4.54474,-3.32635 -4.02516,-2.96608 -4.28838,-3.20845 -4.28977,-3.94997 0,-0.43449 0.0611,-0.78999 0.13752,-0.78999 0.0765,0 2.20161,1.47668 4.72248,3.28151 l 4.58342,3.28151 1.77978,-0.0192 c 0.97889,-0.0105 1.64308,-0.0744 1.47597,-0.1418 -0.16712,-0.0675 -0.30385,-0.38437 -0.30385,-0.70429 l 0,-0.5817 4.13026,-0.0665 4.13025,-0.0665 -2.24642,-1.70153 c -1.92992,-1.46179 -2.25715,-1.81282 -2.32259,-2.49151 -0.0419,-0.4345 -0.006,-0.79 0.0786,-0.79 0.0851,0 1.7582,1.14853 3.71795,2.5523 l 3.56326,2.55228 2.45687,0 c 1.35129,0 4.47068,0.07 6.93196,0.15545 l 4.47509,0.15545 -2.55229,-1.91774 c -2.22294,-1.67035 -2.56211,-2.01974 -2.62844,-2.7078 -0.0419,-0.43449 0,-0.78999 0.0951,-0.78999 0.0942,0 1.85525,1.20321 3.91349,2.67382 l 3.74223,2.67383 5.89632,0 5.89633,0 6.30929,-1.83527 6.30931,-1.83527 7.23269,0.28427 c 5.17522,0.2034 7.42252,0.20999 7.89995,0.0232 0.8886,-0.34776 10.88287,-2.71378 11.46314,-2.71378 0.2503,0 0.51277,-0.15036 0.58328,-0.33411 0.1529,-0.39844 1.14412,-0.55577 5.55531,-0.88178 3.62394,-0.26782 8.57294,-0.0247 12.57173,0.61781 1.25499,0.20162 2.45821,0.30814 2.67382,0.23672 0.2156,-0.0714 1.59195,-1.82418 3.05849,-3.89499 l 2.66648,-3.76513 3.4565,0 3.45647,0 0.0954,-0.91153 0.0953,-0.91152 0.0408,0.91152 c 0.0376,0.83892 0.0982,0.91153 0.76073,0.91153 0.62744,0 0.75042,-0.11702 0.95803,-0.91153 0.13099,-0.50134 1.35694,-5.31759 2.72433,-10.70278 1.46205,-5.758 2.57572,-9.70167 2.7036,-9.57379 0.12786,0.12787 -0.88175,4.53659 -2.45099,10.70277 l -2.66842,10.48533 3.36778,0 c 1.98301,0 3.42958,-0.0999 3.51804,-0.24308 0.0827,-0.13369 0.7055,-0.24307 1.38417,-0.24307 1.19504,0 1.29724,0.0575 3.24266,1.82367 l 2.00872,1.82365 0.14716,-3.0998 c 0.081,-1.7049 0.20635,-4.1663 0.27872,-5.46979 l 0.13154,-2.36998 -0.99778,0 c -0.60327,0 -0.93836,-0.0961 -0.84754,-0.24307 0.0827,-0.13369 0.52662,-0.24308 0.98666,-0.24308 l 0.8364,0 0,-1.32 c 0,-1.1785 -0.0587,-1.33027 -0.54692,-1.41569 -0.52815,-0.0924 -0.53023,-0.10294 -0.0608,-0.30714 1.10069,-0.47879 1.09384,-0.42422 1.09384,-8.72894 0,-4.35451 0.0946,-7.91731 0.21019,-7.91731 0.1156,0 0.27918,3.0901 0.36346,6.86688 0.62646,28.0655 0.5466,26.00673 1.02255,26.35477 0.24274,0.17748 0.51309,0.32271 0.60081,0.32271 0.26118,0 0.47453,-5.07482 0.47572,-11.31515 0,-3.79237 0.0916,-5.93646 0.25875,-6.1036 0.16474,-0.16473 0.31002,-3.11629 0.40283,-8.18238 0.0798,-4.35859 0.23735,-7.86773 0.35003,-7.79808 0.11266,0.0696 0.20486,3.66868 0.20486,7.99787 0,4.98529 0.0892,7.92632 0.24308,8.02147 0.1405,0.0868 0.24332,1.40084 0.24363,3.11356 0,1.62982 0.0823,5.53384 0.1823,8.67558 l 0.18176,5.71226 0.12153,-5.8748 c 0.0668,-3.23113 0.19631,-5.94934 0.28768,-6.04044 0.56589,-0.56421 0.68462,0.47215 0.68462,5.97426 l 0,5.81945 0.60769,0 0.60768,0 0,-3.8892 c 0,-3.29501 0.0557,-3.8892 0.36463,-3.8892 0.30891,0 0.3646,0.59419 0.3646,3.8892 0,2.1998 0.0969,3.8892 0.22322,3.8892 0.12275,0 0.3962,0.0664 0.60769,0.14755 0.33629,0.12905 0.38447,-0.18901 0.38447,-2.53794 0,-3.06955 0.37326,-3.82767 0.58904,-1.19641 0.0796,0.97006 0.17995,2.20127 0.2231,2.73604 0.0431,0.53476 0.0968,-0.37789 0.11929,-2.02813 0.0375,-2.75284 0.004,-3.0103 -0.41686,-3.12013 -0.30312,-0.0793 -0.5075,-0.42054 -0.60502,-1.01031 -0.24845,-1.50256 -0.17523,-1.93498 0.44005,-2.59889 0.32595,-0.35172 0.53303,-0.79489 0.46013,-0.98483 -0.0816,-0.21252 0.0219,-0.34533 0.26913,-0.34533 0.32735,0 0.3721,0.15734 0.24203,0.85077 -0.10058,0.53617 -0.0647,0.85076 0.0972,0.85076 0.14123,0 0.29777,0.51957 0.34786,1.1546 0.0501,0.63504 0.11075,-2.15425 0.13484,-6.19841 0.0281,-4.71075 0.13116,-7.35302 0.28688,-7.35302 0.15666,0 0.24307,2.59281 0.24307,7.29226 0,4.69943 0.0865,7.29224 0.24309,7.29224 0.1579,0 0.24307,-3.32202 0.24307,-9.47992 0,-6.1579 0.0852,-9.47993 0.24308,-9.47993 0.15795,0 0.24306,3.36254 0.24306,9.60147 l 0,9.60146 0.72923,0 c 0.40108,0 0.72923,-0.0942 0.72923,-0.20937 0,-0.11515 0.27345,-0.15709 0.60768,-0.0932 0.37859,0.0723 0.60769,0.28019 0.60769,0.55123 0,0.31451 -0.13388,0.40003 -0.48325,0.30868 -0.26579,-0.0695 -0.8674,-0.0544 -1.33692,0.0337 l -0.85366,0.16015 0,1.81205 c 0,1.04597 0.10278,1.81204 0.24308,1.81204 0.1337,0 0.24308,0.59284 0.24308,1.31743 l 0,1.31743 1.64075,0.37233 c 0.90242,0.20478 2.10564,0.4463 2.67382,0.5367 0.87887,0.13984 1.03308,0.25045 1.03308,0.741 0,0.45181 0.13053,0.57661 0.60306,0.57661 0.42656,0 0.63942,0.16008 0.72726,0.54692 0.8243,3.62973 0.82265,3.66301 -0.17572,3.54574 l -0.79,-0.0928 0.12155,2.7909 0.12154,2.79093 1.09384,0.31099 c 0.6016,0.17105 1.3126,0.41524 1.57998,0.54265 0.26738,0.12741 0.86899,0.30489 1.33691,0.39441 1.17573,0.22491 1.70152,0.75836 1.70152,1.72629 0,1.12774 -0.71629,1.78539 -1.94459,1.78539 -0.53477,0 -0.97231,0.10939 -0.97231,0.24308 0,0.14248 0.83317,0.24307 2.0133,0.24307 l 2.01327,0 0.0453,-1.04197 c 0.0249,-0.57309 0.20345,-1.4755 0.39667,-2.00536 0.78278,-2.14665 19.60274,-42.53151 19.86032,-42.61737 0.30655,-0.1022 2.21624,0.46137 2.40937,0.71102 0.0668,0.0864 1.81698,0.55433 3.8892,1.03982 5.20137,1.21865 6.88111,1.72229 7.00735,2.10106 0.0747,0.22425 -0.024,0.27369 -0.32012,0.16011 -0.23554,-0.0904 -1.34241,-0.32376 -2.45967,-0.5186 -1.11727,-0.19483 -2.75111,-0.52115 -3.63073,-0.72515 -2.11493,-0.49049 -3.40251,-0.45289 -1.50836,0.0439 0.76873,0.20168 1.39768,0.47599 1.39768,0.60958 0,0.13358 -0.17779,0.17465 -0.3951,0.0913 -0.21731,-0.0834 -1.30575,-0.31042 -2.41871,-0.50451 -1.113,-0.19408 -2.28326,-0.41806 -2.60062,-0.4977 -0.76092,-0.19098 -0.89755,0.0199 -1.95684,3.02013 -0.83689,2.37027 -0.8657,2.54588 -0.46719,2.8484 0.51634,0.39198 0.71441,0.41259 0.91082,0.0948 0.26213,-0.42414 0.66933,-0.26194 0.54416,0.21674 -0.0983,0.37582 0.0494,0.48696 0.80845,0.60833 0.5108,0.0817 1.00527,0.27236 1.0988,0.42373 0.12252,0.19823 -0.14032,0.22867 -0.93951,0.10883 -0.92177,-0.13823 -1.15329,-0.0923 -1.36764,0.27105 -0.24037,0.40752 -0.2683,0.40098 -0.40819,-0.0957 -0.0975,-0.34616 -0.37597,-0.55931 -0.79389,-0.60769 -0.62105,-0.0719 -0.68647,0.0453 -1.85908,3.32852 -0.66845,1.87167 -1.7822,4.4422 -2.47499,5.71226 -0.69281,1.27007 -2.03196,4.27249 -2.97594,6.67205 l -1.71631,4.36284 0.53014,0.77371 0.53018,0.77372 2.27335,-5.13429 c 1.25034,-2.82385 2.36552,-5.22644 2.47815,-5.33907 0.11265,-0.11264 1.06531,0.0711 2.11702,0.4085 1.05174,0.3373 3.10147,0.88845 4.55498,1.22478 1.45352,0.33631 2.70232,0.67104 2.77512,0.74383 0.32659,0.32661 -0.22628,0.32965 -2.02433,0.0111 -2.17092,-0.38455 -3.61134,-0.59651 -2.96816,-0.43677 0.23395,0.0581 0.42537,0.20742 0.42537,0.33182 0,0.27987 -0.14526,0.28025 -1.21537,0.004 -0.46791,-0.12117 -1.35964,-0.28973 -1.98162,-0.3746 l -1.13088,-0.15431 -0.6608,1.9842 c -0.53398,1.60345 -0.5984,2.02276 -0.3357,2.18511 0.18407,0.11377 0.46034,0.0886 0.63704,-0.058 0.23102,-0.19173 0.31199,-0.16159 0.31199,0.11613 0,0.21909 0.30326,0.44167 0.72922,0.53522 0.96805,0.21262 0.94447,0.63859 -0.0247,0.44478 -0.51001,-0.10201 -0.82025,-0.0432 -0.95921,0.18156 -0.16584,0.26834 -0.23633,0.25173 -0.366,-0.0863 -0.0884,-0.23021 -0.34035,-0.41843 -0.56,-0.41828 -0.28824,2.1e-4 -0.65688,0.72751 -1.32457,2.61306 -0.50885,1.43702 -0.94639,2.7979 -0.97229,3.02417 -0.0259,0.22627 1.53183,2.55067 3.46167,5.16534 l 3.50879,4.75392 1.96041,0.005 c 1.0782,0.003 8.08587,0.0305 15.57257,0.0607 l 13.6122,0.0551 0,0.60769 c 0,0.50792 -0.12968,0.6202 -0.79,0.68386 -0.73073,0.0704 -0.78999,0.14176 -0.78999,0.9505 l 0,0.87432 6.71299,-0.15431 c 4.52837,-0.1041 6.82361,-0.24617 7.05306,-0.43659 0.2193,-0.182 0.79431,-0.22889 1.61879,-0.13199 1.19159,0.14006 1.89075,-0.0624 10.26601,-2.97294 l 8.98733,-3.12323 0.0723,-1.49093 c 0.0899,-1.8522 0.53533,-1.98035 0.53533,-0.15403 0,0.7353 0.0778,1.33692 0.17267,1.33692 0.095,0 1.02445,-0.30082 2.06552,-0.66846 l 1.89282,-0.66846 0,-2.11256 c 0,-1.16191 0.11002,-2.18016 0.24371,-2.26279 0.15447,-0.0955 0.25634,0.67452 0.27948,2.11257 0.02,1.24452 0.082,1.96198 0.13771,1.59432 0.11731,-0.7744 0.4854,-0.89025 0.59896,-0.18853 0.0569,0.3513 0.17186,0.421 0.4291,0.26008 0.28332,-0.17721 0.35399,-1.02374 0.3646,-4.36778 0.007,-2.28137 0.0952,-4.14856 0.19551,-4.14929 0.10023,-7.3e-4 0.1838,1.61208 0.18564,3.58402 0.004,4.64634 0.0138,4.6792 1.36192,4.6792 0.72903,0 1.0655,-0.10295 1.0655,-0.32604 0,-0.29089 -2.00787,-8.63915 -2.33318,-9.70081 -0.0717,-0.23395 -0.0258,-0.42537 0.10193,-0.42537 0.12773,0 0.47715,1.0118 0.77647,2.24844 0.31556,1.30375 0.72553,2.40164 0.97575,2.61306 0.23734,0.20053 1.33592,1.45844 2.44127,2.79536 1.10537,1.33691 2.12784,2.51112 2.2722,2.60933 0.14434,0.0982 0.72414,0.18026 1.28846,0.18231 l 1.026,0.004 0.0678,3.22074 0.0678,3.22074 1.51043,0.0721 c 1.511,0.0721 2.56072,-0.30506 3.05932,-1.09937 0.14393,-0.22829 1.14678,-0.30967 3.81698,-0.30967 3.11644,0 3.65336,0.0561 3.84693,0.40198 0.18943,0.33852 0.51129,0.38033 2.0383,0.26483 0.99736,-0.0754 1.96216,-0.0451 2.14402,0.0672 0.18467,0.11413 0.52427,0.10072 0.76922,-0.0304 0.77781,-0.41626 7.67747,-1.43287 9.7248,-1.43287 1.68953,0 2.06712,0.077 2.53499,0.51645 0.48396,0.45467 0.87846,0.52367 3.29717,0.57669 1.51108,0.0331 3.18497,0.19798 3.71973,0.36638 1.0006,0.31506 10.50965,0.77611 10.92916,0.52991 0.35111,-0.20607 1.86425,-0.0721 2.62227,0.23204 0.75677,0.30369 0.76051,0.31229 0.41683,0.95448 -0.1876,0.35054 -0.54325,0.48169 -1.39769,0.51545 -0.71109,0.0281 -0.36188,0.0973 0.9201,0.1823 l 2.06613,0.13703 0.072,1.36955 c 0.0678,1.29012 0.1124,1.37763 0.76761,1.50867 0.38255,0.0765 1.06042,0.0344 1.50634,-0.0934 1.28915,-0.36973 2.80139,-0.27201 3.91881,0.25324 0.84074,0.3952 1.19111,0.44051 1.87957,0.24307 1.31413,-0.37691 2.93464,-0.27848 4.09666,0.2488 1.27581,0.57891 3.68035,0.67182 3.68035,0.14221 0,-0.18624 0.16408,-0.40156 0.36462,-0.47852 0.30688,-0.11776 0.36461,-0.89166 0.36461,-4.88751 0,-3.00301 0.0893,-4.7476 0.24308,-4.7476 0.14263,0 0.25997,0.9793 0.28393,2.36999 0.0224,1.30349 0.0838,1.9598 0.13622,1.45846 0.0525,-0.50135 0.19813,-0.91154 0.32375,-0.91154 0.13166,0 0.2284,1.44711 0.2284,3.41623 l 0,3.41624 2.61305,-0.0274 c 3.39316,-0.0355 3.22075,-0.0552 3.22075,0.36564 0,0.20054 0.14713,0.36461 0.32693,0.36461 0.17983,0 0.52493,0.21877 0.76691,0.48615 0.24198,0.26739 0.72379,0.48736 1.07074,0.48883 1.69756,0.007 2.50029,0.30107 2.74575,1.00522 0.38743,1.11139 0.68039,0.55678 0.68039,-1.28808 0,-1.43309 -0.0698,-1.72819 -0.43133,-1.82273 -0.39386,-0.103 -1.02712,-1.54749 -1.02712,-2.34292 0,-0.17666 0.26583,-0.68154 0.59075,-1.12194 0.32492,-0.44039 0.53197,-0.95386 0.46013,-1.14106 -0.0862,-0.22469 0.0416,-0.34034 0.37636,-0.34034 0.4509,0 0.4767,0.0664 0.23333,0.60048 -0.21228,0.46595 -0.19995,0.68924 0.0551,0.99653 0.18279,0.22023 0.29913,0.80544 0.26208,1.3183 l -0.0666,0.92227 1.50474,0.17464 c 1.03977,0.12068 1.55792,0.0885 1.6769,-0.10396 0.18816,-0.30446 0.99456,-0.0981 1.28105,0.32781 0.1166,0.17332 -0.4941,0.34236 -1.82039,0.50389 -1.50341,0.18311 -2.01404,0.33852 -2.06966,0.62996 -0.0676,0.35416 0.68931,1.34658 2.43848,3.19711 0.36765,0.38897 0.66846,0.80818 0.66846,0.93159 0,0.12656 1.51012,0.225 3.463815,0.22581 9.412227,0.004 15.713144,2.19641 35.752296,12.44061 2.314074,1.18298 4.692465,2.0684 4.926741,1.83413 0.07438,-0.0744 -0.207416,-1.48479 -0.626259,-3.13421 -0.418842,-1.64943 -0.823075,-3.24506 -0.898332,-3.54587 -0.07525,-0.3008 -0.0274,-0.54692 0.106346,-0.54692 0.13374,0 0.61041,1.44933 1.059297,3.22074 0.617435,2.43667 0.843786,3.04322 0.929786,2.49152 0.08818,-0.56571 0.143146,-0.42944 0.245189,0.60769 l 0.131528,1.33692 2.613056,0.069 c 1.471382,0.0388 2.613056,0.17159 2.613056,0.30383 0,0.34011 9.792009,0.3117 10.133092,-0.0294 0.190303,-0.19028 0.309969,-0.19028 0.427569,0 0.08984,0.14534 0.38209,0.26427 0.649472,0.26427 0.267383,0 0.418551,0.10938 0.33593,0.24307 -0.08607,0.13925 -1.344229,0.24307 -2.945584,0.24307 -1.58949,0 -2.737194,0.0941 -2.660504,0.21823 0.0755,0.12215 -1.336134,0.28772 -3.206401,0.37607 -4.182324,0.19758 -7.838148,0.61463 -7.838148,0.89416 0,0.11719 1.449334,0.23325 3.220743,0.25793 4.124667,0.0575 4.263244,0.0659 4.4675,0.27009 0.09414,0.0942 -0.366631,0.1738 -1.02393,0.177 -0.657322,0.004 -1.605899,0.10118 -2.107946,0.21776 -0.588144,0.13657 -0.967462,0.12358 -1.066419,-0.0365 -0.156394,-0.25306 -2.910871,-0.11791 -3.185059,0.15626 -0.422246,0.42227 0.976796,0.5141 8.891148,0.58365 4.949129,0.0434 8.769076,0.17388 8.900896,0.30384 0.143608,0.1416 -1.952476,0.22767 -5.544298,0.22767 -3.521597,0 -5.720405,0.0887 -5.634721,0.22733 0.07727,0.12502 -0.21709,0.2716 -0.654116,0.32571 -0.444194,0.055 -0.124624,0.11553 0.724607,0.13727 1.659643,0.0424 2.066721,0.43845 0.607688,0.59106 -0.501342,0.0525 0.483112,0.11374 2.187675,0.13621 1.876855,0.0248 3.099206,0.13673 3.099206,0.28394 0,0.15121 -1.630571,0.26027 -4.314581,0.28856 -3.977339,0.0419 -3.792091,0.0584 2.369981,0.21055 3.67651,0.0908 10.102805,0.1797 14.280657,0.19759 4.880338,0.0209 7.596093,0.11943 7.596093,0.2756 0,0.29816 -0.28853,0.31503 -4.262661,0.24923 -1.742871,-0.0289 -4.286044,0.0267 -5.651493,0.12354 -2.043945,0.1449 -2.485685,0.24564 -2.499759,0.57008 -0.01312,0.3013 -0.06626,0.27962 -0.225987,-0.0921 -0.16179,-0.37651 -0.212763,-0.25318 -0.225987,0.54692 -0.0095,0.56819 -0.120176,1.03308 -0.246186,1.03308 -0.12601,0 -0.27098,-0.46489 -0.322147,-1.03308 -0.06704,-0.74438 -0.104912,-0.57455 -0.135515,0.6077 -0.05503,2.12618 -0.528615,2.15923 -0.528615,0.0369 l 0,-1.60384 -1.397682,0.13902 c -0.768724,0.0764 -5.444879,0.26705 -10.391455,0.42352 -8.480085,0.26826 -9.02501,0.31269 -9.540694,0.77798 -0.557469,0.503 -0.786323,0.25923 -0.255228,-0.27187 0.226861,-0.22688 -0.68766,-0.29169 -4.115431,-0.29169 -4.254979,0 -4.556635,0.0335 -8.738545,0.9705 -2.382281,0.53377 -4.7325,0.9713 -5.22271,0.9723 -0.490184,9e-4 -0.955066,0.13852 -1.033068,0.30564 -0.113419,0.24308 -0.170153,0.24308 -0.283572,0 -0.09672,-0.20725 -0.782579,-0.30385 -2.157291,-0.30385 l -2.015505,0 -0.149077,0.74535 c -0.170639,0.85329 -0.640916,0.74177 -0.640916,-0.152 0,-0.56822 -0.0669,-0.59335 -1.579988,-0.59335 l -1.579987,0 0,0.82039 c 0,1.14652 -0.263396,2.33959 -0.516534,2.33959 -0.116969,0 -0.212692,-0.71099 -0.212692,-1.57998 0,-1.34454 -0.06339,-1.57928 -0.42538,-1.57516 -5.80152,0.0658 -17.233654,0.54173 -17.416884,0.72496 -0.1334,0.13339 -0.4394,0.24251 -0.68005,0.24251 -0.24065,0 -0.43753,0.16407 -0.43753,0.36462 0,0.30835 -0.57935,0.3646 -3.75558,0.3646 -2.73875,0 -3.80822,-0.0823 -3.94997,-0.30385 -0.10691,-0.16711 -0.4223,-0.43013 -0.70086,-0.58448 -0.45516,-0.25222 -0.52571,-0.17642 -0.81,0.55869 -0.22044,0.48279 -0.90232,1.3488 -1.7526,2.12258 -1.23727,1.05906 -2.20503,1.30767 -3.01762,0.77522 -0.32882,-0.21543 -0.59782,-0.55324 -0.59782,-0.7507 0,-0.57332 -0.34665,-0.41772 -0.80755,0.36249 -0.26964,0.4565 -1.15937,1.11984 -2.42239,1.80606 -1.75646,0.95431 -5.39787,2.07937 -30.32122,9.36814 l -28.32504,8.28359 -13.84848,-0.0628 -13.84846,-0.0628 -0.89529,-2.55229 -0.89532,-2.55228 -0.0163,-8.5684 c -0.0104,-5.53939 -0.10214,-8.56839 -0.25929,-8.56839 -0.15725,0 -0.24823,3.06843 -0.25771,8.68993 l -0.0146,8.68993 -0.90269,2.43075 -0.9027,2.43075 -7.32596,0.0643 -7.32596,0.0643 -0.87204,-2.61705 -0.87202,-2.61705 0,-8.08178 c -3e-5,-7.02176 -0.0479,-8.08179 -0.36464,-8.08179 -0.31687,0 -0.36462,1.07191 -0.36462,8.18876 l 0,8.18874 -0.88513,2.51007 -0.88513,2.51006 -7.31702,-0.0643 -7.31702,-0.0643 -0.9067,-2.55229 -0.90669,-2.55228 -0.006,-7.47456 c -0.004,-4.81668 -0.0929,-7.47456 -0.24957,-7.47456 -0.15663,0 -0.24384,2.61455 -0.2453,7.35302 l -0.003,7.35302 -0.94339,2.67383 -0.94338,2.67382 -7.34559,0 -7.34557,0 -0.9434,-2.67382 -0.94339,-2.67383 -0.003,-6.86687 c -0.003,-5.94083 -0.0515,-6.86686 -0.36698,-6.86686 -0.31545,0 -0.36737,0.9747 -0.38522,7.23148 -0.0202,7.0821 -0.0341,7.27918 -0.67382,9.54069 l -0.65322,2.30921 -4.18767,0.0665 c -2.5168,0.0399 -4.18767,0.1612 -4.18767,0.30384 0,0.13984 1.08486,0.23733 2.64069,0.23733 2.52905,0 2.66777,0.0271 3.28151,0.64083 0.74658,0.74659 0.88196,2.2433 0.25922,2.86603 -0.46235,0.46235 -0.61173,0.49809 -4.64597,1.11093 -3.76656,0.57216 -7.0395,0.63887 -7.74053,0.15771 z m 182.35019,-55.39998 c -1.03265,-1.90508 -1.43535,-2.09111 -1.3274,-0.61325 0.0628,0.8593 0.17217,1.04802 0.68243,1.17709 0.83326,0.21075 0.99039,0.0734 0.64497,-0.56384 z m -40.2662,-4.91815 c 0.16645,-0.20053 0.64573,-0.36461 1.06514,-0.36461 0.49927,0 0.86733,-0.16784 1.06613,-0.48615 0.18145,-0.29054 0.56687,-0.48615 0.95786,-0.48615 0.35982,0 0.55031,-0.0821 0.42331,-0.18231 -0.25027,-0.19758 -8.78803,-0.0179 -8.66209,0.18231 0.0421,0.0668 0.003,0.31295 -0.0867,0.54691 -0.13542,0.35285 -0.50074,0.43103 -2.14262,0.45849 -2.32841,0.0389 -1.94719,0.14347 1.54523,0.42369 4.20739,0.33759 5.49401,0.31725 5.8338,-0.0922 z m -135.63956,-1.03307 c -0.003,-0.52089 -0.0558,-0.58796 -0.23936,-0.30384 -0.30734,0.47557 -0.30734,0.9723 0,0.9723 0.13369,0 0.24142,-0.30081 0.23936,-0.66846 z m 2.93328,0.24307 c -0.57681,-0.99128 -0.95185,-1.27613 -1.6802,-1.27613 -0.67597,0 -0.76321,0.0788 -0.76321,0.6887 0,0.92483 0.13097,1.01282 1.50753,1.01282 1.0593,0 1.15745,-0.0446 0.93588,-0.42539 z m 3.87654,-0.42537 0,-0.85076 -1.21538,0 -1.21537,0 0,0.85076 0,0.85076 1.21537,0 1.21538,0 z m 3.88919,0.0256 c 0,-0.77622 -0.0542,-0.83036 -0.91152,-0.91154 -0.50135,-0.0475 -1.26704,-0.052 -1.70153,-0.0101 -0.72324,0.0697 -0.78999,0.14675 -0.78999,0.91153 l 0,0.83537 1.70152,0 1.70152,0 0,-0.82524 z m 1.28799,-0.0256 c -0.22314,-0.46793 -0.49483,-0.85076 -0.60378,-0.85076 -0.10892,0 -0.19805,0.38283 -0.19805,0.85076 0,0.74394 0.0759,0.85076 0.60377,0.85076 l 0.60375,0 z m 5.51812,0.0256 c 0,-0.77622 -0.0542,-0.83036 -0.91153,-0.91154 -0.50135,-0.0475 -1.26703,-0.052 -1.70152,-0.0101 -0.6828,0.0658 -0.78999,0.16753 -0.78999,0.74949 0,0.37032 0.0728,0.74623 0.16205,0.83535 0.0892,0.0892 0.85482,0.16206 1.70152,0.16206 l 1.53947,0 0,-0.82524 z m 2.9169,-0.0256 0,-0.85076 -1.21538,0 -1.21537,0 0,0.85076 0,0.85076 1.21537,0 1.21538,0 z m 3.8892,0.0298 c 0,-0.78107 -0.0532,-0.83449 -0.91154,-0.91575 -0.50133,-0.0476 -1.26702,-0.052 -1.70152,-0.0101 -0.7168,0.0691 -0.79,0.15069 -0.79,0.88077 l 0,0.80461 1.70153,0.035 1.70153,0.035 0,-0.82943 z m 2.9169,-0.0298 0,-0.85076 -1.21537,0 -1.21538,0 0,0.85076 0,0.85076 1.21538,0 1.21537,0 z m 3.64613,0.0266 c 0,-0.74986 -0.0712,-0.83205 -0.79,-0.91154 -0.4345,-0.048 -1.14549,-0.0531 -1.57999,-0.0112 -0.72325,0.0697 -0.78999,0.14674 -0.78999,0.91152 l 0,0.83537 1.57999,0 1.57999,0 0,-0.82417 z m 3.15997,-0.0266 0,-0.85076 -1.33692,0 -1.3369,0 0,0.85076 0,0.85076 1.3369,0 1.33692,0 z m 3.64612,0.0114 c 0,-0.73273 -0.0745,-0.81722 -0.78999,-0.89635 -0.4345,-0.0481 -1.14548,-0.0531 -1.58,-0.0112 -0.72012,0.0694 -0.78998,0.1487 -0.78998,0.89634 l 0,0.82017 1.57998,0 1.57999,0 0,-0.80898 z m 3.15997,-0.0114 0,-0.85076 -1.3369,0 -1.33692,0 0,0.85076 0,0.85076 1.33692,0 1.3369,0 z m -36.94739,-0.36462 c 0,-0.27129 -0.16203,-0.48614 -0.36666,-0.48614 -0.30583,0 -0.31629,0.0807 -0.0631,0.48614 0.167,0.26739 0.332,0.48615 0.36668,0.48615 0.0347,0 0.0631,-0.21876 0.0631,-0.48615 z m -4.12425,-6.3055 c 2.49393,-5.66537 2.69436,-6.22984 2.39015,-6.73119 -0.18262,-0.30097 -0.43639,-0.58095 -0.56394,-0.62214 -0.12756,-0.0412 -1.34966,2.76907 -2.71584,6.24505 -1.83629,4.67218 -2.44889,6.49866 -2.34954,7.00542 0.0738,0.37701 0.22044,0.59579 0.32567,0.48616 0.1052,-0.10964 1.4163,-2.98211 2.9135,-6.3833 z m 13.84725,6.06243 c 0,-0.13369 -0.11583,-0.24307 -0.25741,-0.24307 -0.14158,0 -0.18983,0.10938 -0.1072,0.24307 0.0827,0.13369 0.19846,0.24307 0.25744,0.24307 0.0589,0 0.10717,-0.10938 0.10717,-0.24307 z m -12.15376,-0.9723 c 0,-0.13369 -0.21876,-0.24307 -0.48614,-0.24307 -0.26738,0 -0.48615,0.10938 -0.48615,0.24307 0,0.13369 0.21877,0.24307 0.48615,0.24307 0.26738,0 0.48614,-0.10938 0.48614,-0.24307 z m 2.43076,0 c 0,-0.13369 -0.27346,-0.24307 -0.60769,-0.24307 -0.33423,0 -0.60768,0.10938 -0.60768,0.24307 0,0.13369 0.27345,0.24307 0.60768,0.24307 0.33423,0 0.60769,-0.10938 0.60769,-0.24307 z m 2.9169,0 c 0,-0.13369 -0.54692,-0.24307 -1.21538,-0.24307 -0.66846,0 -1.21537,0.10938 -1.21537,0.24307 0,0.13369 0.54691,0.24307 1.21537,0.24307 0.66846,0 1.21538,-0.10938 1.21538,-0.24307 z m 1.70152,0 c 0,-0.13369 -0.27345,-0.24307 -0.60768,-0.24307 -0.33424,0 -0.60769,0.10938 -0.60769,0.24307 0,0.13369 0.27345,0.24307 0.60769,0.24307 0.33423,0 0.60768,-0.10938 0.60768,-0.24307 z m 2.18767,0 c 0,-0.13369 -0.27345,-0.24307 -0.60768,-0.24307 -0.33423,0 -0.60769,0.10938 -0.60769,0.24307 0,0.13369 0.27346,0.24307 0.60769,0.24307 0.33423,0 0.60768,-0.10938 0.60768,-0.24307 z m 2.91691,0 c 0,-0.13369 -0.3346,-0.24307 -0.74357,-0.24307 -0.43381,0 -0.68097,0.10125 -0.59335,0.24307 0.0827,0.13369 0.41725,0.24307 0.74359,0.24307 0.32634,0 0.59333,-0.10938 0.59333,-0.24307 z m 1.70153,0 c 0,-0.13369 -0.27346,-0.24307 -0.60769,-0.24307 -0.33423,0 -0.60768,0.10938 -0.60768,0.24307 0,0.13369 0.27345,0.24307 0.60768,0.24307 0.33423,0 0.60769,-0.10938 0.60769,-0.24307 z m 2.18767,0 c 0,-0.13369 -0.27346,-0.24307 -0.60769,-0.24307 -0.33423,0 -0.60768,0.10938 -0.60768,0.24307 0,0.13369 0.27345,0.24307 0.60768,0.24307 0.33423,0 0.60769,-0.10938 0.60769,-0.24307 z m 2.9169,0 c 0,-0.13369 -0.54692,-0.24307 -1.21538,-0.24307 -0.66846,0 -1.21537,0.10938 -1.21537,0.24307 0,0.13369 0.54691,0.24307 1.21537,0.24307 0.66846,0 1.21538,-0.10938 1.21538,-0.24307 z m 1.70153,0 c 0,-0.13369 -0.27347,-0.24307 -0.6077,-0.24307 -0.33421,0 -0.60769,0.10938 -0.60769,0.24307 0,0.13369 0.27348,0.24307 0.60769,0.24307 0.33423,0 0.6077,-0.10938 0.6077,-0.24307 z m 2.18767,0 c 0,-0.13369 -0.27346,-0.24307 -0.60769,-0.24307 -0.33422,0 -0.60769,0.10938 -0.60769,0.24307 0,0.13369 0.27347,0.24307 0.60769,0.24307 0.33423,0 0.60769,-0.10938 0.60769,-0.24307 z m 2.9169,0 c 0,-0.13369 -0.54692,-0.24307 -1.21537,-0.24307 -0.66846,0 -1.21538,0.10938 -1.21538,0.24307 0,0.13369 0.54692,0.24307 1.21538,0.24307 0.66845,0 1.21537,-0.10938 1.21537,-0.24307 z m 1.70152,0 c 0,-0.13369 -0.27346,-0.24307 -0.60769,-0.24307 -0.33423,0 -0.60768,0.10938 -0.60768,0.24307 0,0.13369 0.27345,0.24307 0.60768,0.24307 0.33423,0 0.60769,-0.10938 0.60769,-0.24307 z m 1.94461,0 c 0,-0.13369 -0.27346,-0.24307 -0.60769,-0.24307 -0.33423,0 -0.60769,0.10938 -0.60769,0.24307 0,0.13369 0.27346,0.24307 0.60769,0.24307 0.33423,0 0.60769,-0.10938 0.60769,-0.24307 z m 3.15997,0 c 0,-0.13369 -0.60161,-0.24307 -1.33692,-0.24307 -0.7353,0 -1.3369,0.10938 -1.3369,0.24307 0,0.13369 0.6016,0.24307 1.3369,0.24307 0.73531,0 1.33692,-0.10938 1.33692,-0.24307 z m 1.70152,0 c 0,-0.13369 -0.27345,-0.24307 -0.60768,-0.24307 -0.33423,0 -0.60769,0.10938 -0.60769,0.24307 0,0.13369 0.27346,0.24307 0.60769,0.24307 0.33423,0 0.60768,-0.10938 0.60768,-0.24307 z m 1.9446,0 c 0,-0.13369 -0.27345,-0.24307 -0.60768,-0.24307 -0.33423,0 -0.60769,0.10938 -0.60769,0.24307 0,0.13369 0.27346,0.24307 0.60769,0.24307 0.33423,0 0.60768,-0.10938 0.60768,-0.24307 z m 3.15997,0 c 0,-0.13369 -0.6016,-0.24307 -1.3369,-0.24307 -0.73531,0 -1.33692,0.10938 -1.33692,0.24307 0,0.13369 0.60161,0.24307 1.33692,0.24307 0.7353,0 1.3369,-0.10938 1.3369,-0.24307 z m 1.58,0 c 0.0852,-0.13786 -0.11901,-0.24307 -0.47179,-0.24307 -0.34213,0 -0.62205,0.10938 -0.62205,0.24307 0,0.13369 0.21233,0.24307 0.4718,0.24307 0.25951,0 0.53941,-0.10938 0.62204,-0.24307 z m -32.20743,-0.89887 c 0,-0.063 -1.38241,-1.97153 -3.072,-4.24129 -1.8352,-2.46536 -3.16063,-4.03817 -3.29217,-3.90662 -0.12111,0.1211 -0.79902,1.75084 -1.50646,3.62165 l -1.28629,3.40145 0.51032,0.64 c 0.50205,0.62963 0.56534,0.64109 3.91001,0.70799 3.34945,0.067 4.73659,0.002 4.73659,-0.22318 z m 77.4735,-6.18013 c 0.29214,-0.29214 -0.0659,-1.42863 -0.45012,-1.42863 -0.10805,0 -0.14276,-0.13987 -0.0771,-0.31081 0.0656,-0.17096 -0.0437,-0.52646 -0.24297,-0.79 -0.33268,-0.44005 -0.36289,-0.3452 -0.37,1.16158 -0.006,1.42081 0.051,1.64076 0.42982,1.64076 0.24064,0 0.56033,-0.1228 0.71043,-0.2729 z m -1.60522,-2.41971 c 0.0432,-0.83466 -0.0813,-1.28705 -0.51563,-1.8746 -0.3149,-0.42596 -0.60353,-0.7435 -0.64135,-0.70567 -0.0379,0.0378 0.16352,0.91207 0.44748,1.94276 0.28395,1.03066 0.54694,1.84329 0.58443,1.80581 0.0375,-0.0375 0.0937,-0.56322 0.12507,-1.1683 z m -107.9579,-9.88652 c 0.003,-1.0153 -0.0993,-1.76229 -0.23936,-1.76229 -0.14381,0 -0.24154,0.86853 -0.23934,2.12689 0.003,1.46302 0.0772,2.01311 0.23934,1.76231 0.1296,-0.20054 0.23731,-1.15765 0.23936,-2.12691 z"
         id="path3122"
         inkscape:connector-curvature="0"
         sodipodi:nodetypes="cccccsccsssscsscccssscccscccsscsssccssscscsssscsscscssccsscccscsscsscccsscccccscsssscsccccccscscscscsscsscscscsscsssssccscsccscscscccsssscsssccsscscssssssssscsssscscssscsssssscccsssssssccscssscsssssscsscsscsccsscscccsssscssscscsccssscccssscsscssscscsscsssscsccccccsssscsssscscccscscsccscsssscssccssccsscssccsscssssscssssssccccsscscsssscssscsscssccscscssscssscscscssssssssssscscsssscsssssscccsccsscsssscssscscccscssccccccsscccccccsssccccccccscccccccccssscssssssccsssscscssccsscccscsssssccccccccccsssccccccssscccscssscccccccccccccscscccccccccccccccscscccccccccccccccscsccccccccccccccsscsssccsccssscssssssssssssssssssssssssssssscsssssssssssssssssssssssssssssssssssssssssssssssssssssssssssssscssscsscscssscscccsccccssccsccc" />
    </g>
  </g>
</svg>
