<?xml version="1.0" encoding="UTF-8" standalone="no"?>
<svg
   xmlns:dc="http://purl.org/dc/elements/1.1/"
   xmlns:cc="http://creativecommons.org/ns#"
   xmlns:rdf="http://www.w3.org/1999/02/22-rdf-syntax-ns#"
   xmlns:svg="http://www.w3.org/2000/svg"
   xmlns="http://www.w3.org/2000/svg"
   version="1.1"
   id="svg3095"
   viewBox="0 0 123.49976 31.262047"
   width="370.49928">
  <defs
     id="defs3097" />
  <metadata
     id="metadata3100">
    <rdf:RDF>
      <cc:Work
         rdf:about="">
        <dc:format>image/svg+xml</dc:format>
        <dc:type
           rdf:resource="http://purl.org/dc/dcmitype/StillImage" />
        <dc:title></dc:title>
      </cc:Work>
    </rdf:RDF>
  </metadata>
  <g
     transform="translate(467.13533,-665.84992)"
     id="layer1">
    <g
       id="g3114">
      <path
         id="path3122"
         d="m -416.78118,697.02365 c -0.23044,-0.15815 -0.8299,-0.22883 -1.33679,-0.15761 -0.13944,0.0196 -0.2693,0.0101 -0.28859,-0.0211 -0.0193,-0.0312 -0.15682,-0.0773 -0.30564,-0.10246 -0.14881,-0.0251 -0.28665,-0.0717 -0.3063,-0.10353 -0.0196,-0.0318 -0.80961,-0.0566 -1.75546,-0.0551 -1.82928,0.003 -2.07329,-0.0324 -1.94056,-0.28042 0.0377,-0.0705 0.12204,-0.1439 0.18736,-0.1631 0.18294,-0.0538 0.75366,-0.0741 0.79926,-0.0285 0.0223,0.0223 0.56496,0.027 1.20582,0.0103 1.1542,-0.0301 1.16603,-0.0319 1.25234,-0.19666 0.0826,-0.15755 0.1189,-0.1663 0.69135,-0.1663 0.33231,0 0.62307,0.0305 0.64612,0.0678 0.0231,0.0373 0.23849,0.0678 0.47875,0.0678 0.42073,0 0.43682,-0.006 0.43682,-0.16955 l 0,-0.16955 -0.84008,0 -0.84008,0 -2.02532,-0.77026 c -1.11393,-0.42365 -2.09389,-0.7919 -2.1777,-0.81835 -0.12945,-0.0408 -0.35896,0.136 -1.52595,1.17579 l -1.37358,1.22386 -0.35205,10e-4 c -0.19363,8.4e-4 -0.37092,-0.0291 -0.39398,-0.0664 -0.0266,-0.043 -0.85586,-0.0678 -2.26429,-0.0678 l -2.22238,0 -2.5719,-3.58344 -2.5719,-3.58343 -2.81453,-0.0447 c -1.548,-0.0246 -5.65282,-0.0627 -9.12182,-0.0848 l -6.30728,-0.0401 -0.44083,-0.15821 c -0.39746,-0.14264 -0.59098,-0.16161 -1.96679,-0.19282 -0.83928,-0.019 -1.5934,-0.0552 -1.67583,-0.0804 -0.13488,-0.0412 -0.15184,-0.0972 -0.16955,-0.55907 l -0.0197,-0.51323 -1.15294,-0.40679 c -1.06638,-0.37626 -1.21149,-0.41026 -1.93288,-0.45289 -0.76943,-0.0455 -0.81028,-0.0566 -3.03776,-0.82535 -1.2418,-0.42859 -2.28432,-0.80698 -2.3167,-0.84087 -0.0338,-0.0354 0.24022,-0.78262 0.64447,-1.75712 0.38683,-0.93253 0.70452,-1.74518 0.70596,-1.80589 0.006,-0.24431 0.16621,-0.27441 1.41598,-0.26576 1.02304,0.007 1.25488,-0.0101 1.46118,-0.10852 0.13487,-0.0643 0.24521,-0.14988 0.24521,-0.19015 0,-0.0403 0.0601,-0.18528 0.13347,-0.32224 l 0.13347,-0.24903 -0.17147,-0.0213 c -0.16299,-0.0202 -0.1387,-0.0643 0.49068,-0.8904 0.39768,-0.52199 0.63357,-0.88769 0.5906,-0.91557 -0.0394,-0.0255 -0.60997,-0.44317 -1.26802,-0.92809 -1.12306,-0.82756 -1.1965,-0.89519 -1.19689,-1.10208 0,-0.12122 0.0171,-0.22041 0.0384,-0.22041 0.0213,0 0.61427,0.41201 1.31762,0.91557 l 1.27881,0.91557 0.49658,-0.005 c 0.27312,-0.003 0.45843,-0.0208 0.41181,-0.0396 -0.0466,-0.0188 -0.0848,-0.10724 -0.0848,-0.1965 l 0,-0.1623 1.15238,-0.0186 1.15238,-0.0186 -0.62677,-0.47474 c -0.53847,-0.40786 -0.62977,-0.5058 -0.64803,-0.69516 -0.0117,-0.12123 -0.002,-0.22041 0.0219,-0.22041 0.0238,0 0.49056,0.32045 1.03735,0.71211 l 0.99418,0.71211 0.68549,0 c 0.37702,0 1.24736,0.0195 1.93408,0.0434 l 1.24859,0.0434 -0.71211,-0.53507 c -0.62022,-0.46605 -0.71485,-0.56353 -0.73336,-0.7555 -0.0117,-0.12123 0,-0.22042 0.0265,-0.22042 0.0263,0 0.51763,0.33571 1.0919,0.74602 l 1.04411,0.74603 1.64513,0 1.64513,0 1.76036,-0.51206 1.76035,-0.51206 2.01799,0.0793 c 1.44394,0.0568 2.07095,0.0586 2.20416,0.006 0.24793,-0.097 3.03642,-0.75717 3.19833,-0.75717 0.0698,0 0.14306,-0.042 0.16274,-0.0932 0.0427,-0.11117 0.31922,-0.15507 1.54998,-0.24603 1.01111,-0.0747 2.39193,-0.007 3.50763,0.17238 0.35015,0.0562 0.68586,0.086 0.74602,0.0661 0.0602,-0.0199 0.44417,-0.50897 0.85335,-1.08674 l 0.74397,-1.05051 0.9644,0 0.96439,0 0.0266,-0.25433 0.0266,-0.25432 0.0114,0.25432 c 0.0105,0.23407 0.0274,0.25433 0.21225,0.25433 0.17506,0 0.20937,-0.0326 0.2673,-0.25433 0.0365,-0.13987 0.3786,-1.48365 0.76011,-2.98617 0.40793,-1.60654 0.71865,-2.70686 0.75433,-2.67118 0.0357,0.0357 -0.24602,1.26575 -0.68385,2.98617 l -0.74451,2.92551 0.93964,0 c 0.55328,0 0.95688,-0.0279 0.98157,-0.0678 0.0231,-0.0373 0.19684,-0.0678 0.38619,-0.0678 0.33343,0 0.36194,0.016 0.90473,0.50882 l 0.56046,0.50882 0.0411,-0.86488 c 0.0226,-0.47568 0.0576,-1.16243 0.0778,-1.52612 l 0.0367,-0.66125 -0.27839,0 c -0.16832,0 -0.26181,-0.0268 -0.23647,-0.0678 0.0231,-0.0373 0.14693,-0.0678 0.27529,-0.0678 l 0.23336,0 0,-0.36829 c 0,-0.32881 -0.0164,-0.37116 -0.15259,-0.39499 -0.14736,-0.0258 -0.14794,-0.0287 -0.017,-0.0857 0.3071,-0.13358 0.30519,-0.11836 0.30519,-2.43545 0,-1.21495 0.0264,-2.20901 0.0587,-2.20901 0.0323,0 0.0779,0.86217 0.10141,1.91593 0.17478,7.83054 0.1525,7.25612 0.2853,7.35323 0.0677,0.0495 0.14315,0.09 0.16763,0.09 0.0729,0 0.1324,-1.41593 0.13273,-3.15704 0,-1.0581 0.0256,-1.65633 0.0722,-1.70296 0.046,-0.046 0.0865,-0.86947 0.1124,-2.28296 0.0223,-1.21609 0.0662,-2.19517 0.0977,-2.17574 0.0314,0.0194 0.0572,1.0236 0.0572,2.23148 0,1.39095 0.0249,2.21152 0.0678,2.23807 0.0392,0.0242 0.0679,0.39085 0.068,0.86871 0,0.45474 0.023,1.54399 0.0509,2.42057 l 0.0507,1.59377 0.0339,-1.63912 c 0.0186,-0.90152 0.0548,-1.65992 0.0803,-1.68534 0.15789,-0.15742 0.19102,0.13173 0.19102,1.66687 l 0,1.62369 0.16955,0 0.16955,0 0,-1.08513 c 0,-0.91934 0.0155,-1.08512 0.10173,-1.08512 0.0862,0 0.10173,0.16578 0.10173,1.08512 0,0.61377 0.027,1.08513 0.0623,1.08513 0.0343,0 0.11054,0.0185 0.16955,0.0412 0.0938,0.036 0.10727,-0.0527 0.10727,-0.70811 0,-0.85643 0.10415,-1.06795 0.16435,-0.3338 0.0222,0.27065 0.0502,0.61417 0.0623,0.76338 0.012,0.1492 0.027,-0.10544 0.0333,-0.56587 0.0105,-0.76807 10e-4,-0.8399 -0.11631,-0.87055 -0.0846,-0.0221 -0.1416,-0.11733 -0.1688,-0.28188 -0.0693,-0.41923 -0.0489,-0.53988 0.12277,-0.72512 0.091,-0.0981 0.14872,-0.22178 0.12838,-0.27477 -0.0228,-0.0593 0.006,-0.0964 0.0751,-0.0964 0.0913,0 0.10382,0.0439 0.0675,0.23738 -0.0281,0.14959 -0.0181,0.23737 0.0271,0.23737 0.0394,0 0.0831,0.14496 0.0971,0.32214 0.014,0.17718 0.0309,-0.60105 0.0376,-1.72941 0.008,-1.31435 0.0366,-2.05156 0.08,-2.05156 0.0437,0 0.0678,0.72341 0.0678,2.0346 0,1.31119 0.0241,2.03461 0.0678,2.03461 0.0441,0 0.0678,-0.92688 0.0678,-2.64499 0,-1.71811 0.0238,-2.64499 0.0678,-2.64499 0.0441,0 0.0678,0.93818 0.0678,2.6789 l 0,2.6789 0.20346,0 c 0.11191,0 0.20347,-0.0263 0.20347,-0.0584 0,-0.0321 0.0763,-0.0438 0.16955,-0.026 0.10563,0.0202 0.16955,0.0782 0.16955,0.1538 0,0.0877 -0.0374,0.11161 -0.13484,0.0861 -0.0741,-0.0194 -0.24201,-0.0152 -0.37301,0.009 l -0.23818,0.0447 0,0.50558 c 0,0.29183 0.0287,0.50557 0.0678,0.50557 0.0373,0 0.0678,0.16541 0.0678,0.36758 l 0,0.36758 0.45778,0.10388 c 0.25178,0.0571 0.58749,0.12452 0.74602,0.14974 0.24521,0.039 0.28824,0.0699 0.28824,0.20675 0,0.12606 0.0364,0.16088 0.16826,0.16088 0.11901,0 0.1784,0.0447 0.20291,0.15259 0.22999,1.01273 0.22953,1.02202 -0.049,0.9893 l -0.22041,-0.0259 0.0339,0.77868 0.0339,0.7787 0.30519,0.0868 c 0.16786,0.0477 0.36623,0.11586 0.44083,0.1514 0.0746,0.0355 0.24246,0.0851 0.37301,0.11005 0.32804,0.0628 0.47474,0.21159 0.47474,0.48165 0,0.31465 -0.19985,0.49814 -0.54256,0.49814 -0.1492,0 -0.27128,0.0305 -0.27128,0.0678 0,0.0398 0.23246,0.0678 0.56173,0.0678 l 0.56172,0 0.0126,-0.29072 c 0.007,-0.1599 0.0568,-0.41168 0.11068,-0.55951 0.2184,-0.59894 5.46934,-11.8667 5.54121,-11.89065 0.0855,-0.0285 0.61835,0.12873 0.67224,0.19838 0.0186,0.0241 0.50695,0.15466 1.08512,0.29012 1.45123,0.34001 1.9199,0.48053 1.95512,0.58622 0.0208,0.0626 -0.007,0.0764 -0.0893,0.0447 -0.0657,-0.0252 -0.37454,-0.0903 -0.68627,-0.1447 -0.31173,-0.0544 -0.76758,-0.1454 -1.01301,-0.20232 -0.59008,-0.13685 -0.94933,-0.12636 -0.42084,0.0122 0.21448,0.0563 0.38996,0.1328 0.38996,0.17008 0,0.0373 -0.0496,0.0487 -0.11023,0.0255 -0.0606,-0.0233 -0.36432,-0.0866 -0.67485,-0.14076 -0.31053,-0.0542 -0.63705,-0.11665 -0.72559,-0.13887 -0.21231,-0.0533 -0.25043,0.006 -0.54598,0.84265 -0.2335,0.66133 -0.24154,0.71032 -0.13035,0.79473 0.14406,0.10937 0.19933,0.11512 0.25413,0.0265 0.0731,-0.11834 0.18675,-0.0731 0.15182,0.0605 -0.0274,0.10486 0.0138,0.13587 0.22557,0.16973 0.14251,0.0228 0.28048,0.076 0.30657,0.11823 0.0342,0.0553 -0.0392,0.0638 -0.26213,0.0304 -0.25718,-0.0386 -0.32178,-0.0258 -0.38158,0.0756 -0.0671,0.1137 -0.0749,0.11187 -0.11389,-0.0267 -0.0272,-0.0966 -0.1049,-0.15606 -0.22151,-0.16956 -0.17327,-0.0201 -0.19153,0.0126 -0.5187,0.92869 -0.1865,0.52222 -0.49725,1.23942 -0.69054,1.59378 -0.1933,0.35436 -0.56694,1.19206 -0.83032,1.86156 l -0.47886,1.21728 0.14791,0.21587 0.14792,0.21587 0.63429,-1.43251 c 0.34886,-0.78788 0.66,-1.45823 0.69143,-1.48965 0.0314,-0.0314 0.29723,0.0198 0.59067,0.11397 0.29344,0.0941 0.86534,0.24789 1.27088,0.34173 0.40554,0.0938 0.75397,0.18722 0.77428,0.20753 0.0911,0.0911 -0.0631,0.092 -0.5648,0.003 -0.60571,-0.10729 -1.0076,-0.16643 -0.82815,-0.12186 0.0653,0.0162 0.11868,0.0579 0.11868,0.0926 0,0.0781 -0.0405,0.0782 -0.3391,10e-4 -0.13055,-0.0338 -0.37935,-0.0808 -0.55289,-0.10451 l -0.31552,-0.0431 -0.18437,0.55361 c -0.14899,0.44738 -0.16696,0.56437 -0.0937,0.60967 0.0514,0.0317 0.12844,0.0247 0.17774,-0.0162 0.0645,-0.0535 0.087,-0.0451 0.087,0.0324 0,0.0611 0.0846,0.12323 0.20346,0.14933 0.2701,0.0593 0.26352,0.17817 -0.007,0.1241 -0.1423,-0.0285 -0.22886,-0.0121 -0.26763,0.0507 -0.0463,0.0749 -0.0659,0.0702 -0.10212,-0.0241 -0.0247,-0.0642 -0.095,-0.11675 -0.15624,-0.11671 -0.0804,6e-5 -0.18328,0.20298 -0.36957,0.72907 -0.14197,0.40094 -0.26405,0.78064 -0.27128,0.84377 -0.007,0.0631 0.4274,0.71166 0.96584,1.44118 l 0.97899,1.32639 0.54697,10e-4 c 0.30083,8.4e-4 2.25603,0.009 4.34489,0.0169 l 3.79794,0.0154 0,0.16955 c 0,0.14172 -0.0362,0.17305 -0.22042,0.19081 -0.20388,0.0196 -0.22042,0.0395 -0.22042,0.2652 l 0,0.24394 1.87299,-0.043 c 1.26346,-0.029 1.90385,-0.0687 1.96787,-0.12182 0.0612,-0.0508 0.22162,-0.0639 0.45166,-0.0368 0.33246,0.0391 0.52754,-0.0174 2.86431,-0.82948 l 2.50755,-0.87141 0.0202,-0.41599 c 0.0251,-0.51678 0.14936,-0.55253 0.14936,-0.043 0,0.20515 0.0217,0.37301 0.0482,0.37301 0.0265,0 0.28583,-0.0839 0.5763,-0.1865 l 0.52812,-0.18651 0,-0.58943 c 0,-0.32418 0.0307,-0.60828 0.068,-0.63134 0.0431,-0.0266 0.0715,0.1882 0.078,0.58943 0.006,0.34723 0.0229,0.54741 0.0384,0.44483 0.0327,-0.21606 0.13543,-0.24839 0.16711,-0.0526 0.0159,0.098 0.048,0.11746 0.11972,0.0726 0.079,-0.0494 0.0988,-0.28564 0.10173,-1.21866 0.002,-0.63652 0.0266,-1.15748 0.0546,-1.15769 0.028,-2e-4 0.0513,0.44979 0.0518,0.99998 0.001,1.29637 0.004,1.30554 0.37999,1.30554 0.20341,0 0.29729,-0.0287 0.29729,-0.091 0,-0.0812 -0.56022,-2.4104 -0.65098,-2.70662 -0.02,-0.0653 -0.007,-0.11868 0.0284,-0.11868 0.0356,0 0.13313,0.2823 0.21664,0.62734 0.088,0.36376 0.20243,0.67008 0.27224,0.72907 0.0662,0.0559 0.37274,0.40691 0.68114,0.77993 0.30841,0.37301 0.59369,0.70062 0.63397,0.72802 0.0403,0.0274 0.20204,0.0503 0.35949,0.0509 l 0.28626,10e-4 0.0189,0.89861 0.0189,0.89862 0.42142,0.0201 c 0.42158,0.0201 0.71447,-0.0851 0.85358,-0.30674 0.0402,-0.0637 0.31996,-0.0864 1.06497,-0.0864 0.86952,0 1.01932,0.0157 1.07333,0.11216 0.0529,0.0944 0.14266,0.10611 0.56871,0.0739 0.27827,-0.021 0.54746,-0.0126 0.5982,0.0187 0.0515,0.0318 0.14628,0.0281 0.21462,-0.008 0.21702,-0.11615 2.14209,-0.39979 2.71331,-0.39979 0.47139,0 0.57675,0.0215 0.70729,0.1441 0.13503,0.12685 0.24509,0.1461 0.91994,0.1609 0.4216,0.009 0.88863,0.0552 1.03784,0.10222 0.27917,0.0879 2.93229,0.21654 3.04934,0.14785 0.098,-0.0575 0.52014,-0.0201 0.73163,0.0647 0.21115,0.0847 0.21219,0.0871 0.1163,0.26631 -0.0523,0.0978 -0.15157,0.1344 -0.38997,0.14382 -0.1984,0.008 -0.10096,0.0271 0.25672,0.0509 l 0.57647,0.0382 0.0201,0.38212 c 0.0189,0.35996 0.0314,0.38437 0.21417,0.42093 0.10673,0.0213 0.29587,0.01 0.42028,-0.0261 0.35969,-0.10315 0.78162,-0.0759 1.09339,0.0707 0.23457,0.11026 0.33233,0.12291 0.52442,0.0678 0.36665,-0.10516 0.81879,-0.0777 1.143,0.0694 0.35597,0.16152 1.02685,0.18744 1.02685,0.0397 0,-0.052 0.0458,-0.11203 0.10174,-0.13351 0.0856,-0.0328 0.10173,-0.24878 0.10173,-1.36366 0,-0.83787 0.0249,-1.32462 0.0678,-1.32462 0.0398,0 0.0725,0.27323 0.0792,0.66125 0.006,0.36368 0.0234,0.5468 0.038,0.40692 0.0147,-0.13988 0.0553,-0.25433 0.0903,-0.25433 0.0367,0 0.0637,0.40376 0.0637,0.95316 l 0,0.95316 0.72906,-0.008 c 0.94673,-0.01 0.89862,-0.0154 0.89862,0.10202 0,0.056 0.041,0.10173 0.0912,0.10173 0.0502,0 0.14646,0.061 0.21398,0.13564 0.0675,0.0746 0.20194,0.13598 0.29874,0.13639 0.47364,0.002 0.69761,0.084 0.76609,0.28046 0.1081,0.31009 0.18984,0.15535 0.18984,-0.35939 0,-0.39984 -0.0195,-0.48218 -0.12035,-0.50855 -0.10989,-0.0287 -0.28657,-0.43177 -0.28657,-0.6537 0,-0.0493 0.0742,-0.19016 0.16482,-0.31303 0.0907,-0.12288 0.14843,-0.26614 0.12838,-0.31837 -0.024,-0.0627 0.0116,-0.095 0.10501,-0.095 0.12581,0 0.133,0.0185 0.0651,0.16754 -0.0592,0.13001 -0.0558,0.19231 0.0154,0.27804 0.051,0.0615 0.0835,0.22473 0.0731,0.36782 l -0.0186,0.25732 0.41983,0.0487 c 0.29011,0.0337 0.43468,0.0247 0.46787,-0.029 0.0525,-0.0849 0.27749,-0.0274 0.35743,0.0915 0.0325,0.0484 -0.13786,0.0955 -0.50791,0.14059 -0.41946,0.0511 -0.56193,0.0944 -0.57745,0.17576 -0.0189,0.0988 0.19232,0.37571 0.68036,0.89202 0.10257,0.10853 0.1865,0.22549 0.1865,0.25993 0,0.0353 0.42134,0.0628 0.96644,0.063 2.6261,10e-4 4.38411,0.61282 9.97523,3.47105 0.64565,0.33006 1.30924,0.5771 1.3746,0.51174 0.0208,-0.0208 -0.0579,-0.41427 -0.17473,-0.87448 -0.11686,-0.4602 -0.22964,-0.9054 -0.25064,-0.98933 -0.021,-0.0839 -0.008,-0.15259 0.0297,-0.15259 0.0373,0 0.17031,0.40437 0.29555,0.89861 0.17227,0.67986 0.23543,0.84909 0.25942,0.69516 0.0246,-0.15784 0.0399,-0.11982 0.0684,0.16955 l 0.0367,0.37302 0.72907,0.0192 c 0.41053,0.0108 0.72907,0.0479 0.72907,0.0848 0,0.0949 2.73206,0.087 2.82722,-0.008 0.0531,-0.0531 0.0865,-0.0531 0.1193,0 0.0251,0.0405 0.10661,0.0737 0.18121,0.0737 0.0746,0 0.11678,0.0305 0.0937,0.0678 -0.024,0.0389 -0.37506,0.0678 -0.82185,0.0678 -0.44348,0 -0.7637,0.0262 -0.74231,0.0609 0.0211,0.0341 -0.37279,0.0803 -0.89461,0.10493 -1.16691,0.0551 -2.18692,0.17149 -2.18692,0.24948 0,0.0327 0.40438,0.0651 0.89862,0.072 1.15082,0.016 1.18948,0.0184 1.24647,0.0753 0.0263,0.0263 -0.10229,0.0485 -0.28568,0.0494 -0.1834,0.001 -0.44806,0.0282 -0.58814,0.0608 -0.1641,0.0381 -0.26993,0.0345 -0.29754,-0.0102 -0.0436,-0.0706 -0.81216,-0.0329 -0.88866,0.0436 -0.11781,0.11782 0.27253,0.14344 2.48071,0.16284 1.38086,0.0121 2.44666,0.0485 2.48344,0.0848 0.0401,0.0395 -0.54476,0.0635 -1.54692,0.0635 -0.98255,0 -1.59604,0.0248 -1.57214,0.0634 0.0216,0.0349 -0.0606,0.0758 -0.1825,0.0909 -0.12393,0.0154 -0.0348,0.0322 0.20217,0.0383 0.46306,0.0118 0.57664,0.12233 0.16955,0.16491 -0.13988,0.0146 0.1348,0.0317 0.61038,0.038 0.52366,0.007 0.86471,0.0381 0.86471,0.0792 0,0.0422 -0.45494,0.0726 -1.20381,0.0805 -1.10971,0.0117 -1.05803,0.0163 0.66125,0.0588 1.02578,0.0253 2.81878,0.0501 3.98444,0.0551 1.36166,0.006 2.11938,0.0333 2.11938,0.0769 0,0.0832 -0.0805,0.0879 -1.18932,0.0695 -0.48628,-0.008 -1.19585,0.007 -1.57682,0.0345 -0.57028,0.0404 -0.69353,0.0685 -0.69746,0.15905 -0.004,0.0841 -0.0185,0.078 -0.0631,-0.0257 -0.0451,-0.10505 -0.0594,-0.0706 -0.063,0.15259 -0.003,0.15853 -0.0335,0.28824 -0.0687,0.28824 -0.0352,0 -0.0756,-0.12971 -0.0899,-0.28824 -0.0187,-0.20769 -0.0293,-0.1603 -0.0378,0.16956 -0.0154,0.59322 -0.14749,0.60244 -0.14749,0.0103 l 0,-0.44748 -0.38997,0.0388 c -0.21448,0.0213 -1.51917,0.0745 -2.89931,0.11817 -2.36603,0.0748 -2.51807,0.0872 -2.66195,0.21706 -0.15554,0.14035 -0.21939,0.0723 -0.0712,-0.0758 0.0633,-0.0633 -0.19186,-0.0814 -1.14824,-0.0814 -1.18718,0 -1.27135,0.009 -2.43814,0.27077 -0.66468,0.14893 -1.32041,0.27101 -1.45718,0.27129 -0.13677,2.5e-4 -0.26648,0.0386 -0.28824,0.0853 -0.0316,0.0678 -0.0475,0.0678 -0.0791,0 -0.027,-0.0578 -0.21834,-0.0848 -0.6019,-0.0848 l -0.56235,0 -0.0416,0.20796 c -0.0476,0.23808 -0.17882,0.20697 -0.17882,-0.0424 0,-0.15854 -0.0187,-0.16556 -0.44083,-0.16556 l -0.44084,0 0,0.2289 c 0,0.31989 -0.0735,0.65277 -0.14411,0.65277 -0.0326,0 -0.0593,-0.19837 -0.0593,-0.44083 0,-0.37514 -0.0177,-0.44063 -0.11868,-0.43948 -1.61868,0.0183 -4.80835,0.15114 -4.85948,0.20227 -0.0372,0.0372 -0.12259,0.0677 -0.18974,0.0677 -0.0671,0 -0.12207,0.0458 -0.12207,0.10173 0,0.086 -0.16165,0.10173 -1.04784,0.10173 -0.76414,0 -1.06253,-0.023 -1.10208,-0.0848 -0.0298,-0.0466 -0.11783,-0.12001 -0.19555,-0.16307 -0.12699,-0.0704 -0.14668,-0.0492 -0.226,0.15588 -0.0615,0.1347 -0.25175,0.37632 -0.48899,0.59221 -0.34521,0.29549 -0.61522,0.36486 -0.84194,0.2163 -0.0917,-0.0601 -0.1668,-0.15436 -0.1668,-0.20945 0,-0.15997 -0.0967,-0.11655 -0.22531,0.10113 -0.0752,0.12737 -0.32348,0.31245 -0.67587,0.50391 -0.49007,0.26626 -1.50606,0.58017 -8.45991,2.6138 l -7.90295,2.3112 -3.86386,-0.0175 -3.86385,-0.0175 -0.24979,-0.71212 -0.24981,-0.71211 -0.005,-2.39066 c -0.003,-1.54554 -0.0285,-2.39066 -0.0724,-2.39066 -0.0439,0 -0.0693,0.85612 -0.0719,2.42457 l -0.004,2.42457 -0.25186,0.67821 -0.25186,0.6782 -2.04401,0.0179 -2.04401,0.0179 -0.24331,-0.73018 -0.2433,-0.73019 0,-2.25489 c -10e-6,-1.95914 -0.0134,-2.25489 -0.10174,-2.25489 -0.0884,0 -0.10173,0.29907 -0.10173,2.28474 l 0,2.28473 -0.24696,0.70034 -0.24696,0.70033 -2.04152,-0.0179 -2.04151,-0.0179 -0.25298,-0.71212 -0.25298,-0.71211 -0.002,-2.08547 c -0.001,-1.3439 -0.0259,-2.08547 -0.0696,-2.08547 -0.0437,0 -0.068,0.72948 -0.0684,2.05156 l -8.4e-4,2.05156 -0.26322,0.74603 -0.26321,0.74602 -2.04949,0 -2.04948,0 -0.26322,-0.74602 -0.26321,-0.74603 -8.4e-4,-1.91592 c -8.4e-4,-1.65755 -0.0144,-1.91592 -0.10239,-1.91592 -0.088,0 -0.1025,0.27195 -0.10748,2.01765 -0.006,1.97598 -0.01,2.03096 -0.188,2.66194 l -0.18226,0.6443 -1.1684,0.0186 c -0.70221,0.0111 -1.1684,0.045 -1.1684,0.0848 0,0.039 0.30269,0.0662 0.73678,0.0662 0.70563,0 0.74433,0.008 0.91557,0.1788 0.20831,0.20831 0.24608,0.6259 0.0723,0.79965 -0.129,0.129 -0.17068,0.13897 -1.29627,0.30996 -1.05091,0.15964 -1.96409,0.17825 -2.15968,0.044 z m 50.87742,-15.45711 c -0.28812,-0.53154 -0.40048,-0.58344 -0.37036,-0.17111 0.0175,0.23976 0.048,0.29241 0.1904,0.32842 0.23249,0.0588 0.27633,0.0205 0.17996,-0.15731 z m -11.23465,-1.37222 c 0.0464,-0.0559 0.18016,-0.10172 0.29718,-0.10172 0.1393,0 0.242,-0.0468 0.29746,-0.13565 0.0506,-0.0811 0.15816,-0.13564 0.26725,-0.13564 0.1004,0 0.15355,-0.0229 0.11811,-0.0509 -0.0698,-0.0551 -2.45194,-0.005 -2.4168,0.0509 0.0117,0.0186 8.3e-4,0.0873 -0.0242,0.1526 -0.0378,0.0984 -0.13971,0.12026 -0.59781,0.12792 -0.64965,0.0109 -0.54329,0.04 0.43113,0.11821 1.1739,0.0942 1.53288,0.0885 1.62768,-0.0257 z m -37.84472,-0.28823 c -8.3e-4,-0.14533 -0.0156,-0.16405 -0.0668,-0.0848 -0.0857,0.13269 -0.0857,0.27129 0,0.27129 0.0373,0 0.0674,-0.0839 0.0668,-0.18651 z m 0.81842,0.0678 c -0.16094,-0.27658 -0.26558,-0.35605 -0.4688,-0.35605 -0.1886,0 -0.21294,0.022 -0.21294,0.19215 0,0.25804 0.0365,0.28259 0.42062,0.28259 0.29555,0 0.32294,-0.0124 0.26112,-0.11869 z m 1.08159,-0.11868 0,-0.23737 -0.33911,0 -0.33909,0 0,0.23737 0,0.23737 0.33909,0 0.33911,0 z m 1.08512,0.007 c 0,-0.21657 -0.0151,-0.23168 -0.25432,-0.25433 -0.13989,-0.0132 -0.35352,-0.0145 -0.47475,-0.003 -0.20179,0.0195 -0.22041,0.0409 -0.22041,0.25433 l 0,0.23307 0.47474,0 0.47474,0 0,-0.23025 z m 0.35936,-0.007 c -0.0623,-0.13056 -0.13806,-0.23737 -0.16846,-0.23737 -0.0304,0 -0.0553,0.10681 -0.0553,0.23737 0,0.20756 0.0212,0.23737 0.16846,0.23737 l 0.16845,0 z m 1.53961,0.007 c 0,-0.21657 -0.0151,-0.23168 -0.25433,-0.25433 -0.13988,-0.0132 -0.35351,-0.0145 -0.47474,-0.003 -0.19051,0.0184 -0.22041,0.0467 -0.22041,0.20912 0,0.10332 0.0203,0.2082 0.0452,0.23307 0.0249,0.0249 0.2385,0.0452 0.47474,0.0452 l 0.42953,0 0,-0.23025 z m 0.81384,-0.007 0,-0.23737 -0.3391,0 -0.3391,0 0,0.23737 0,0.23737 0.3391,0 0.3391,0 z m 1.08512,0.008 c 0,-0.21793 -0.0148,-0.23283 -0.25433,-0.2555 -0.13987,-0.0133 -0.35351,-0.0145 -0.47474,-0.003 -0.19999,0.0193 -0.22041,0.042 -0.22041,0.24574 l 0,0.2245 0.47474,0.01 0.47474,0.01 0,-0.23142 z m 0.81385,-0.008 0,-0.23737 -0.3391,0 -0.33911,0 0,0.23737 0,0.23737 0.33911,0 0.3391,0 z m 1.0173,0.007 c 0,-0.20922 -0.0199,-0.23215 -0.22042,-0.25433 -0.12123,-0.0134 -0.3196,-0.0148 -0.44083,-0.003 -0.20179,0.0195 -0.22041,0.0409 -0.22041,0.25433 l 0,0.23307 0.44083,0 0.44083,0 0,-0.22995 z m 0.88166,-0.007 0,-0.23737 -0.37301,0 -0.37301,0 0,0.23737 0,0.23737 0.37301,0 0.37301,0 z m 1.0173,0.003 c 0,-0.20444 -0.0208,-0.22802 -0.22041,-0.25009 -0.12123,-0.0134 -0.3196,-0.0148 -0.44084,-0.003 -0.20092,0.0194 -0.22041,0.0415 -0.22041,0.25009 l 0,0.22883 0.44083,0 0.44083,0 0,-0.22571 z m 0.88166,-0.003 0,-0.23737 -0.373,0 -0.37302,0 0,0.23737 0,0.23737 0.37302,0 0.373,0 z m -10.30867,-0.10174 c 0,-0.0757 -0.0452,-0.13563 -0.1023,-0.13563 -0.0853,0 -0.0882,0.0225 -0.0176,0.13563 0.0466,0.0746 0.0926,0.13564 0.1023,0.13564 0.01,0 0.0176,-0.061 0.0176,-0.13564 z m -1.1507,-1.75929 c 0.69583,-1.58069 0.75175,-1.73818 0.66687,-1.87807 -0.051,-0.084 -0.12175,-0.16209 -0.15734,-0.17358 -0.0356,-0.0115 -0.37657,0.7726 -0.75774,1.74243 -0.51235,1.30358 -0.68327,1.81319 -0.65555,1.95458 0.0206,0.10519 0.0615,0.16623 0.0909,0.13564 0.0294,-0.0306 0.39516,-0.83204 0.81289,-1.781 z m 3.86351,1.69147 c 0,-0.0373 -0.0323,-0.0678 -0.0718,-0.0678 -0.0395,0 -0.053,0.0305 -0.0299,0.0678 0.0231,0.0373 0.0554,0.0678 0.0718,0.0678 0.0164,0 0.0299,-0.0305 0.0299,-0.0678 z m -3.39101,-0.27128 c 0,-0.0373 -0.061,-0.0678 -0.13564,-0.0678 -0.0746,0 -0.13564,0.0305 -0.13564,0.0678 0,0.0373 0.061,0.0678 0.13564,0.0678 0.0746,0 0.13564,-0.0305 0.13564,-0.0678 z m 0.6782,0 c 0,-0.0373 -0.0763,-0.0678 -0.16955,-0.0678 -0.0932,0 -0.16954,0.0305 -0.16954,0.0678 0,0.0373 0.0763,0.0678 0.16954,0.0678 0.0933,0 0.16955,-0.0305 0.16955,-0.0678 z m 0.81385,0 c 0,-0.0373 -0.1526,-0.0678 -0.33911,-0.0678 -0.1865,0 -0.33909,0.0305 -0.33909,0.0678 0,0.0373 0.15259,0.0678 0.33909,0.0678 0.18651,0 0.33911,-0.0305 0.33911,-0.0678 z m 0.47474,0 c 0,-0.0373 -0.0763,-0.0678 -0.16955,-0.0678 -0.0933,0 -0.16955,0.0305 -0.16955,0.0678 0,0.0373 0.0763,0.0678 0.16955,0.0678 0.0933,0 0.16955,-0.0305 0.16955,-0.0678 z m 0.61038,0 c 0,-0.0373 -0.0763,-0.0678 -0.16955,-0.0678 -0.0933,0 -0.16955,0.0305 -0.16955,0.0678 0,0.0373 0.0763,0.0678 0.16955,0.0678 0.0933,0 0.16955,-0.0305 0.16955,-0.0678 z m 0.81384,0 c 0,-0.0373 -0.0933,-0.0678 -0.20746,-0.0678 -0.12104,0 -0.19,0.0282 -0.16555,0.0678 0.0231,0.0373 0.11642,0.0678 0.20747,0.0678 0.091,0 0.16554,-0.0305 0.16554,-0.0678 z m 0.47475,0 c 0,-0.0373 -0.0763,-0.0678 -0.16956,-0.0678 -0.0933,0 -0.16954,0.0305 -0.16954,0.0678 0,0.0373 0.0763,0.0678 0.16954,0.0678 0.0933,0 0.16956,-0.0305 0.16956,-0.0678 z m 0.61038,0 c 0,-0.0373 -0.0763,-0.0678 -0.16955,-0.0678 -0.0933,0 -0.16955,0.0305 -0.16955,0.0678 0,0.0373 0.0763,0.0678 0.16955,0.0678 0.0933,0 0.16955,-0.0305 0.16955,-0.0678 z m 0.81384,0 c 0,-0.0373 -0.1526,-0.0678 -0.3391,-0.0678 -0.18651,0 -0.3391,0.0305 -0.3391,0.0678 0,0.0373 0.15259,0.0678 0.3391,0.0678 0.1865,0 0.3391,-0.0305 0.3391,-0.0678 z m 0.47474,0 c 0,-0.0373 -0.0763,-0.0678 -0.16955,-0.0678 -0.0932,0 -0.16955,0.0305 -0.16955,0.0678 0,0.0373 0.0763,0.0678 0.16955,0.0678 0.0933,0 0.16955,-0.0305 0.16955,-0.0678 z m 0.61038,0 c 0,-0.0373 -0.0763,-0.0678 -0.16955,-0.0678 -0.0933,0 -0.16955,0.0305 -0.16955,0.0678 0,0.0373 0.0763,0.0678 0.16955,0.0678 0.0933,0 0.16955,-0.0305 0.16955,-0.0678 z m 0.81385,0 c 0,-0.0373 -0.1526,-0.0678 -0.3391,-0.0678 -0.18651,0 -0.33911,0.0305 -0.33911,0.0678 0,0.0373 0.1526,0.0678 0.33911,0.0678 0.1865,0 0.3391,-0.0305 0.3391,-0.0678 z m 0.47474,0 c 0,-0.0373 -0.0763,-0.0678 -0.16956,-0.0678 -0.0933,0 -0.16954,0.0305 -0.16954,0.0678 0,0.0373 0.0763,0.0678 0.16954,0.0678 0.0933,0 0.16956,-0.0305 0.16956,-0.0678 z m 0.54256,0 c 0,-0.0373 -0.0763,-0.0678 -0.16955,-0.0678 -0.0932,0 -0.16955,0.0305 -0.16955,0.0678 0,0.0373 0.0763,0.0678 0.16955,0.0678 0.0933,0 0.16955,-0.0305 0.16955,-0.0678 z m 0.88166,0 c 0,-0.0373 -0.16785,-0.0678 -0.37301,-0.0678 -0.20516,0 -0.37301,0.0305 -0.37301,0.0678 0,0.0373 0.16785,0.0678 0.37301,0.0678 0.20516,0 0.37301,-0.0305 0.37301,-0.0678 z m 0.47474,0 c 0,-0.0373 -0.0763,-0.0678 -0.16955,-0.0678 -0.0933,0 -0.16955,0.0305 -0.16955,0.0678 0,0.0373 0.0763,0.0678 0.16955,0.0678 0.0933,0 0.16955,-0.0305 0.16955,-0.0678 z m 0.54256,0 c 0,-0.0373 -0.0763,-0.0678 -0.16955,-0.0678 -0.0933,0 -0.16955,0.0305 -0.16955,0.0678 0,0.0373 0.0763,0.0678 0.16955,0.0678 0.0933,0 0.16955,-0.0305 0.16955,-0.0678 z m 0.88166,0 c 0,-0.0373 -0.16785,-0.0678 -0.373,-0.0678 -0.20516,0 -0.37302,0.0305 -0.37302,0.0678 0,0.0373 0.16786,0.0678 0.37302,0.0678 0.20515,0 0.373,-0.0305 0.373,-0.0678 z m 0.44084,0 c 0.0238,-0.0385 -0.0332,-0.0678 -0.13163,-0.0678 -0.0955,0 -0.17356,0.0305 -0.17356,0.0678 0,0.0373 0.0592,0.0678 0.13163,0.0678 0.0724,0 0.1505,-0.0305 0.17356,-0.0678 z m -8.98618,-0.25079 c 0,-0.0176 -0.3857,-0.55008 -0.85711,-1.18336 -0.51204,-0.68786 -0.88185,-1.12669 -0.91855,-1.08998 -0.0338,0.0338 -0.22293,0.4885 -0.42032,1.01047 l -0.35888,0.94904 0.14238,0.17856 c 0.14008,0.17568 0.15774,0.17887 1.09093,0.19754 0.93453,0.0187 1.32155,5.6e-4 1.32155,-0.0623 z m 21.61584,-1.72431 c 0.0815,-0.0815 -0.0184,-0.39861 -0.12559,-0.39861 -0.0301,0 -0.0398,-0.039 -0.0215,-0.0867 0.0183,-0.0477 -0.0122,-0.14689 -0.0678,-0.22042 -0.0928,-0.12278 -0.10125,-0.0963 -0.10323,0.32409 -0.002,0.39642 0.0142,0.45779 0.11992,0.45779 0.0671,0 0.15634,-0.0343 0.19822,-0.0761 z m -0.44787,-0.67513 c 0.012,-0.23287 -0.0227,-0.3591 -0.14387,-0.52303 -0.0879,-0.11884 -0.16839,-0.20744 -0.17894,-0.19689 -0.0106,0.0106 0.0456,0.25448 0.12485,0.54205 0.0792,0.28757 0.1526,0.5143 0.16306,0.50384 0.0105,-0.0105 0.0261,-0.15714 0.0349,-0.32597 z m -30.12127,-2.75843 c 8.3e-4,-0.28328 -0.0277,-0.49169 -0.0668,-0.49169 -0.0401,0 -0.0674,0.24232 -0.0668,0.59342 8.3e-4,0.40819 0.0215,0.56167 0.0668,0.4917 0.0362,-0.0559 0.0662,-0.323 0.0668,-0.59343 z"
         style="fill:#000000;fill-opacity:1" />
    </g>
  </g>
</svg>
