<?xml version="1.0" encoding="UTF-8" standalone="no"?>
<!-- Created with Inkscape (http://www.inkscape.org/) -->

<svg
   xmlns:dc="http://purl.org/dc/elements/1.1/"
   xmlns:cc="http://creativecommons.org/ns#"
   xmlns:rdf="http://www.w3.org/1999/02/22-rdf-syntax-ns#"
   xmlns:svg="http://www.w3.org/2000/svg"
   xmlns="http://www.w3.org/2000/svg"
   xmlns:sodipodi="http://sodipodi.sourceforge.net/DTD/sodipodi-0.dtd"
   xmlns:inkscape="http://www.inkscape.org/namespaces/inkscape"
   width="104.98667mm"
   height="12.359118mm"
   viewBox="0 0 372.00002 43.792148"
   id="svg2"
   version="1.1"
   inkscape:version="0.91 r13725"
   sodipodi:docname="Caterpillar.svg">
  <defs
     id="defs4" />
  <sodipodi:namedview
     id="base"
     pagecolor="#ffffff"
     bordercolor="#666666"
     borderopacity="1.0"
     inkscape:pageopacity="0.0"
     inkscape:pageshadow="2"
     inkscape:zoom="3.959798"
     inkscape:cx="185.60266"
     inkscape:cy="22.882131"
     inkscape:document-units="px"
     inkscape:current-layer="layer1"
     showgrid="false"
     fit-margin-top="0"
     fit-margin-left="0"
     fit-margin-right="0"
     fit-margin-bottom="0"
     inkscape:window-width="1920"
     inkscape:window-height="1017"
     inkscape:window-x="-8"
     inkscape:window-y="-8"
     inkscape:window-maximized="1" />
  <metadata
     id="metadata7">
    <rdf:RDF>
      <cc:Work
         rdf:about="">
        <dc:format>image/svg+xml</dc:format>
        <dc:type
           rdf:resource="http://purl.org/dc/dcmitype/StillImage" />
        <dc:title></dc:title>
      </cc:Work>
    </rdf:RDF>
  </metadata>
  <g
     inkscape:label="Layer 1"
     inkscape:groupmode="layer"
     id="layer1"
     transform="translate(1880.9041,-736.53694)">
    <g
       id="g4147"
       transform="translate(-646.0303,-427.2954)" />
    <g
       id="g4176"
       transform="matrix(0.07911194,0,0,0.07911194,-1909.194,790.19969)">
      <path
         style="fill:#000000;fill-opacity:1"
         d="m 1608.8147,-126.31994 c -0.66,-0.8594 -5.0688,-8.2839 -9.7971,-16.4989 -7.7034,-13.3839 -8.6498,-15.7661 -9.1053,-22.9183 l -0.5082,-7.9819 6.4815,-6.0851 c 3.5647,-3.3468 7.5708,-6.4308 8.9023,-6.8534 3.0205,-0.9587 3.4509,-8.6872 0.5459,-9.802 -3.0906,-1.186 -2.1644,-3.504 3.4375,-8.6025 l 5.3125,-4.835 11.4683,0.589 c 8.622,0.4428 12.0346,0.1557 13.75,-1.1565 1.9893,-1.5218 2.0415,-1.9107 0.4067,-3.0354 -1.0312,-0.7095 -3,-0.8784 -4.375,-0.3753 -2.6396,0.9658 -29.7091,0.8626 -74.4521,-0.2838 -25.9839,-0.6658 -27.0348,-0.5991 -29.2562,1.8555 -2.2739,2.5126 -3.3725,2.5455 -83.6729,2.5018 -68.1843,-0.037 -81.8751,-0.3338 -84.4938,-1.8307 -3.5929,-2.0539 -26.25,-2.644 -26.25,-0.6837 0,0.6553 -2.1094,2.2021 -4.6875,3.4375 -6.9265,3.319 -20.3638,2.5249 -33.9185,-2.0045 -10.3989,-3.4748 -11.8214,-3.6202 -41.394,-4.2303 -28.9257,-0.5967 -32.5201,-0.9469 -64.78,-6.3116 -18.7852,-3.1239 -34.8894,-6.2894 -35.787,-7.0343 -3.9882,-3.3099 -8.6815,-11.7345 -8.4235,-15.1203 0.1902,-2.4964 -0.4947,-3.9833 -2.2732,-4.9352 -1.4,-0.7492 -5.37,-5.2457 -8.8222,-9.9921 -3.4523,-4.7463 -8.3608,-10.2872 -10.908,-12.3131 -4.1861,-3.3293 -6.4661,-7.624 -8.394,-15.8109 -1.0214,-4.3374 -5.1124,-8.7369 -8.5013,-9.1425 -2.8588,-0.3422 -3.179,-0.8306 -2.5631,-3.9098 0.387,-1.9354 0.065,-4.7125 -0.716,-6.1715 -1.0916,-2.0397 -1.062,-2.6527 0.128,-2.6527 0.8512,0 -0.661,-2.262 -3.3606,-5.0265 -2.7142,-2.7797 -5.6667,-4.7354 -6.6052,-4.3753 -0.9334,0.3582 -2.9015,-0.1924 -4.3736,-1.2235 -3.9726,-2.7825 -62.311,-2.7823 -64.6203,3e-4 -1.2338,1.4866 -4.8454,1.875 -17.4352,1.875 -14.98187,0 -16.03257,-0.1635 -18.59687,-2.8931 -1.6032,-1.7065 -2.7179,-4.5082 -2.7179,-6.831 0,-5.3994 -3.2932,-6.9045 -13.8068,-6.3104 -7.2133,0.4076 -8.9866,0.9869 -11.8814,3.8818 -1.8715,1.8714 -3.9848,3.4027 -4.6963,3.4027 -0.7115,0 -2.1817,0.7631 -3.2671,1.6958 -2.8191,2.4225 -22.569,7.0024 -26.6854,6.1881 -2.1175,-0.4188 -8.4286,0.8664 -16.25,3.3092 -29.0776,9.0815 -28.1613,8.868 -31.5097,7.3423 -2.5268,-1.1513 -3.5731,-1.0566 -5.3357,0.4825 -1.2059,1.053 -6.4114,3.2278 -11.5676,4.8329 -8.0707,2.5124 -11.5389,2.8718 -24.9281,2.5839 -8.5542,-0.184 -16.0073,-0.6153 -16.5625,-0.9584 -0.5552,-0.3431 -1.0094,-21.0144 -1.0094,-45.9362 0,-34.4731 -0.3768,-45.8277 -1.5753,-47.4667 -1.3476,-1.8429 -7.5366,-2.6085 -42.8125,-5.296 -22.6805,-1.7279 -49.6747,-3.6358 -59.9872,-4.2397 -10.3125,-0.6039 -28.0313,-1.9351 -39.375,-2.9581 -11.3438,-1.023 -28.5,-2.2442 -38.125,-2.7138 -15.81,-0.7713 -17.9948,-1.1634 -22.624,-4.0594 -2.8181,-1.7631 -6.1931,-4.8201 -7.5,-6.7933 -3.0348,-4.5825 -7.47,-5.7683 -11.6644,-3.1188 -7.707,4.8684 -8.5598,5.0746 -11.9104,2.8792 -2.4026,-1.5743 -3.1762,-3.1493 -3.1762,-6.4666 0,-2.412 -0.7031,-4.6467 -1.5625,-4.966 -0.8594,-0.3194 -20.125,-3.3418 -42.8125,-6.7166 -22.6875,-3.3747 -43.032,-6.6114 -45.21,-7.1926 -2.178,-0.5812 -5.1719,-2.6036 -6.6532,-4.4942 -3.0553,-3.8996 -6.86,-4.38 -11.1104,-1.4029 -5.3329,3.7353 -23.8553,0.3958 -49.5264,-8.9295 -6.875,-2.4973 -17.1885,-6.1572 -22.9188,-8.1331 -5.7303,-1.9758 -11.0741,-4.0921 -11.875,-4.7028 -0.8009,-0.6108 -4.7151,-2.4027 -8.6981,-3.9821 -11.6935,-4.6368 -11.4077,-3.2922 -11.4335,-53.7871 -0.025,-48.4413 0.1759,-49.6543 8.8128,-53.263 2.3905,-0.9988 4.6383,-2.5767 4.995,-3.5064 0.3568,-0.9297 -5.609,-14.196 -13.2574,-29.4806 -7.6484,-15.2847 -13.6576,-28.4378 -13.3539,-29.2292 0.3669,-0.9562 13.9151,-2.409 40.3905,-4.331 49.7648,-3.6128 61.5402,-4.9422 65.3958,-7.3829 2.1302,-1.3485 6.9045,-2.0336 15.7412,-2.2588 6.976,-0.1778 17.572,-1.2393 23.5466,-2.3588 5.9746,-1.1195 11.3392,-1.7411 11.9214,-1.3813 1.5085,0.9323 27.8813,-2.4572 30.7999,-3.9586 3.7574,-1.9327 11.6815,-2.8358 14.726,-1.6783 1.5668,0.5957 10.7701,0.3091 21.4747,-0.6687 10.303,-0.9411 31.389,-2.5614 46.8578,-3.6006 15.4687,-1.0392 33.5998,-2.5445 40.2912,-3.3451 10.5306,-1.2599 12.7994,-1.1887 16.875,0.5295 3.0742,1.296 13.8212,2.6734 30.9588,3.9679 32.0612,2.4218 36.1588,2.4399 38.0439,0.1686 2.4752,-2.9825 10.0505,-3.414 24.4094,-1.3904 7.5369,1.0622 15.4696,1.5999 17.6283,1.1949 2.1587,-0.405 7.5235,0.1247 11.9217,1.177 12.3424,2.9532 38.2757,6.1842 48.0112,5.9817 4.8204,-0.1003 10.7267,0.4204 13.125,1.1571 2.3983,0.7367 13.923,2.6552 25.6105,4.2633 11.6875,1.6082 22.9375,3.2887 25,3.7346 2.0625,0.4459 4.9811,1.0599 6.4859,1.3645 2.327,0.471 3.6874,3.5423 9.1022,20.5491 5.9006,18.5325 6.5867,19.9955 9.3779,19.9955 1.6563,0 3.3117,-0.4858 3.6787,-1.0796 0.8374,-1.355 20.766,-1.0762 23.0212,0.3221 0.9163,0.5681 2.7333,3.5227 4.0377,6.5657 l 2.3716,5.5329 12.2124,-0.3581 12.21237,-0.358 0.625,-12.0893 c 0.3437,-6.649 1.0919,-12.5534 1.6626,-13.1209 1.6755,-1.666 27.0014,-2.3519 54.5874,-1.4784 24.0472,0.7615 25.7404,0.668 27.5,-1.5188 1.6703,-2.0759 4.4001,-2.4007 25,-2.9749 42.8526,-1.1944 104.0841,0.3845 106.4402,2.7448 0.8579,0.8593 3.7075,1.5625 6.3325,1.5625 3.2055,0 8.7674,1.9936 16.9375,6.0712 6.6907,3.3392 12.8346,5.8347 13.6532,5.5455 0.8187,-0.2891 2.4086,-3.2958 3.5331,-6.6815 1.1246,-3.3857 2.7048,-6.5843 3.5116,-7.108 0.8068,-0.5238 11.0294,-1.6686 22.7169,-2.5442 11.6875,-0.8756 25.66,-1.9218 31.05,-2.325 6.4493,-0.4823 10.2745,-0.2586 11.1875,0.6545 1.7154,1.7153 41.6537,1.9316 42.7046,0.2312 0.8221,-1.3303 57.0127,-0.2773 58.5311,1.0968 0.5352,0.4844 2.1449,5.0554 3.5771,10.1576 1.4322,5.1023 3.1725,9.98 3.8674,10.8394 0.8425,1.042 5.035,1.5625 12.5855,1.5625 l 11.3221,0 5.2382,5.625 5.2383,5.625 14.6686,0 c 13.8229,0 14.8829,0.1801 18.3826,3.125 3.797,3.195 12.272,4.4356 12.272,1.7964 0,-0.7307 1.2656,-1.1526 2.8125,-0.9375 2.1132,0.2938 2.9118,-0.3083 3.2119,-2.4214 0.2518,-1.7725 1.2645,-2.8125 2.7388,-2.8125 1.2866,0 2.6869,-0.5625 3.1118,-1.25 1.1836,-1.9151 14.8868,-1.4848 18.8921,0.5932 1.9541,1.0138 3.9023,2.8392 4.3293,4.0565 0.427,1.2172 1.8456,2.2159 3.1525,2.2192 1.97,0 2.4829,1.181 3.0011,6.8811 0.5708,6.2788 0.9063,6.9076 3.8681,7.2517 1.7838,0.2073 7.4088,-1.2635 12.5,-3.2682 5.0913,-2.0048 11.469,-4.3612 14.1727,-5.2366 2.7036,-0.8753 7.3786,-3.1534 10.3887,-5.0624 3.1068,-1.9702 8.2775,-3.8479 11.9594,-4.3427 7.3284,-0.985 9.6111,-2.3495 9.6111,-5.7449 0,-3.666 2.2874,-2.7521 2.7295,1.0906 l 0.3955,3.4375 39.72,0.3301 c 43.1834,0.3588 39.563,0.8753 41.7434,-5.9551 0.4007,-1.2555 1.1672,-0.5327 2.3197,2.1875 l 1.7213,4.0625 34.9865,0 c 22.3241,0 35.2704,-0.4593 35.7709,-1.269 1.5686,-2.5381 10.163,-5.376 17.4882,-5.7748 8.3565,-0.455 17.3598,-1.6802 45.1925,-6.1503 21.9588,-3.5267 22.7376,-3.7527 26.0575,-7.5606 3.0665,-3.5172 20.8855,-8.4228 30,-8.2591 8.572,0.1539 19.2155,-2.0119 23.8975,-4.8629 2.1438,-1.3054 5.9785,-2.3733 8.5218,-2.3733 4.0553,0 4.5266,0.3075 3.8307,2.5 -0.9365,2.9508 0.9206,3.2758 3.5714,0.625 2.1339,-2.1338 6.5252,-2.4913 7.6786,-0.625 1.176,1.9028 56.3108,1.6551 59.7696,-0.2685 1.8952,-1.0539 15.9232,-1.8011 45.8554,-2.4423 44.3335,-0.9497 56.0005,-1.684 58.0625,-3.6545 2.0689,-1.977 23.6379,-1.3413 28.8856,0.8513 4.1042,1.7149 8.8627,1.87 34.8402,1.1356 16.5477,-0.4679 34.801,-1.6429 40.563,-2.6111 6.9275,-1.1642 20.6888,-1.7756 40.625,-1.8051 21.6271,-0.032 32.2565,-0.5477 37.6057,-1.8249 6.7438,-1.61 7.6754,-1.5826 9.7409,0.2867 2.1407,1.9374 2.4667,1.8698 5.1992,-1.077 2.659,-2.8676 3.7255,-3.1216 12.134,-2.8903 11.5983,0.3192 10.785,0.1075 11.7189,3.0501 0.9184,2.8934 5.625,3.4164 5.625,0.625 0,-2.7217 3.276,-2.3906 25,2.5267 33.5343,7.5906 39.3784,8.624 71.875,12.7094 2.75,0.3457 5.8438,1.6668 6.875,2.9358 1.6333,2.0098 7.4351,2.8057 45,6.1733 83.1765,7.4564 70.8009,5.2955 176.25,30.7748 9.9688,2.4087 27.5611,6.6246 39.0943,9.3686 25.5683,6.0835 24.6557,5.7364 24.6557,9.3775 l 0,2.9736 798.9268,0 c 439.4097,0 801.1411,-0.35 803.8476,-0.7828 3.4529,-0.5521 5.2257,-1.5889 5.943,-3.4753 0.5622,-1.4787 1.9245,-3.4374 3.0273,-4.3527 3.3714,-2.798 2.4521,-7.0976 -2.0907,-9.7779 -2.2529,-1.3292 -6.1904,-4.2555 -8.75,-6.5029 -4.5476,-3.9929 -4.654,-4.2883 -4.654,-12.9213 0,-8.6133 0.209,-9.1984 8.3238,-23.308 4.578,-7.9602 9.1652,-15.4574 10.1937,-16.6605 1.6743,-1.9586 4.6949,-2.1866 28.8638,-2.1793 24.8345,0.01 27.2937,0.2069 30.7437,2.4918 3.3606,2.2256 5.8955,2.4844 24.4101,2.4918 l 20.66,0.01 24.965,21.9042 c 13.7307,12.0473 25.139,22.9728 25.3518,24.279 0.2127,1.3062 -0.8049,4.7109 -2.2615,7.5661 -3.0028,5.8857 -1.9297,8.7507 3.2776,8.7507 2.4759,0 2.972,0.6327 2.972,3.7901 0,2.0846 -0.815,5.7408 -1.8113,8.125 l -1.8111,4.3349 -13.5014,0.1246 c -14.2907,0.1319 -19.7512,1.0152 -19.7512,3.195 0,0.7326 6.75,4.8317 15,9.1092 8.25,4.2775 16.125,8.7912 17.5,10.0305 1.375,1.2394 3.9062,2.6718 5.625,3.1832 1.7187,0.5114 8.4688,3.4206 15,6.4649 l 11.875,5.5351 89.375,11.6346 c 83.1206,10.8205 90.5121,11.594 105.625,11.0527 16.2224,-0.5811 16.2551,-0.5765 19.2804,2.6691 3.6346,3.8993 5.7903,4.1047 7.8847,0.7511 1.2398,-1.9852 2.915,-2.5 8.1355,-2.5 l 6.5744,0 0,11.7728 c 0,6.475 0.3414,12.6625 0.7588,13.75 0.6067,1.581 2.8172,1.9772 11.0321,1.9772 9.1223,0 10.5778,0.3241 12.9912,2.8931 1.4949,1.5911 2.7179,4.0535 2.7179,5.4719 0,1.4184 0.751,3.2021 1.6687,3.9638 1.1233,0.9322 14.5068,1.4931 40.9375,1.7156 l 39.2688,0.3306 -0.3535,6.25 c -0.1945,3.4375 -0.4757,10.1875 -0.625,15 l -0.2715,8.75 75.625,0.6494 c 41.5938,0.3572 75.7656,0.7791 75.9375,0.9375 0.1719,0.1585 0.3125,2.7772 0.3125,5.8194 l 0,5.5313 -15.4613,8.8437 c -8.5036,4.864 -16.2535,8.8437 -17.2217,8.8437 -0.9684,0 -2.957,0.8379 -4.4191,1.862 -2.2413,1.5698 -11.4569,1.9132 -58.7157,2.1875 l -56.0572,0.3254 -0.3245,61.1754 c -0.2119,39.941 0.1137,61.6136 0.9375,62.4375 1.705,1.7051 1.5008,8.8123 -0.4682,16.2855 -1.1694,4.4387 -2.4195,6.4442 -4.4954,7.2122 -1.5815,0.585 -4.7415,2.7021 -7.0223,4.7045 -5.1072,4.4843 -7.4383,4.7988 -40.82,5.5068 l -25.943,0.5503 -3.6211,3.8764 c -3.4193,3.6604 -4.1369,3.8764 -12.8806,3.8764 -10.0162,0 -14.0619,1.7189 -13.3043,5.6528 0.2503,1.2994 1.8572,2.6935 3.5709,3.0981 2.2302,0.5265 3.2967,1.7854 3.7527,4.4298 l 0.637,3.6943 23.7407,0.7745 c 13.0573,0.426 66.975,0.8479 119.8171,0.9375 l 96.0765,0.163 5.9296,4.9645 5.9298,4.9646 17.9937,0.3479 17.9939,0.348 0.3541,13.3728 0.3541,13.3728 -18.4791,0.6219 c -10.1635,0.3421 -20.026,0.5949 -21.9166,0.5618 -9.8614,-0.1727 -142.6953,-0.028 -145.625,0.1588 -5.8375,0.3719 -11.5625,-1.3382 -11.5625,-3.4538 0,-4.3595 -3.0455,-10.1252 -5.7001,-10.7915 -3.09,-0.7756 -55.2095,0.3493 -57.8974,1.2496 -1.2278,0.4112 -1.5141,1.8601 -0.9974,5.0449 0.6068,3.7391 0.1874,4.9664 -2.5711,7.5229 -2.1589,2.0008 -3.9713,2.7324 -5.2526,2.1203 -1.076,-0.514 -5.3314,-0.9562 -9.4564,-0.9826 l -7.5,-0.048 -0.3618,9.5027 c -0.3926,10.3145 -0.8243,10.9027 -9.6382,13.1329 -6.7348,1.7041 -46.9989,1.1745 -52.5,-0.6905 -2.75,-0.9324 -9.6406,-1.9334 -15.3125,-2.2245 l -10.3125,-0.5292 0,-22.1545 0,-22.1545 -5,-4.8824 c -4.7688,-4.6565 -5,-5.2401 -5,-12.6181 0,-6.9869 -0.2722,-7.8019 -2.8125,-8.4179 -1.5469,-0.3751 -70.5937,-0.7192 -153.4375,-0.7646 -148.9766,-0.082 -162.5,0.2439 -162.5,3.912 0,1.2239 -47.97,1.377 -49.19,0.157 -3.2612,-3.2612 -11.6525,-4.1058 -40.81,-4.1075 -16.8438,-9e-4 -31.843,0.325 -33.3316,0.7243 -1.4887,0.3993 -3.0463,2.0792 -3.4614,3.7329 -0.4695,1.8711 -1.6621,3.0069 -3.157,3.0069 -1.3214,0 -2.7501,0.5625 -3.175,1.25 -0.9726,1.5737 -12.4249,1.6419 -15.3295,0.091 -1.1938,-0.6373 -3.1549,-1.4634 -4.358,-1.8357 -1.2031,-0.3724 -2.1875,-1.7587 -2.1875,-3.0808 0,-1.4509 -1.1148,-2.6825 -2.8125,-3.1072 -1.5469,-0.3869 -59.0625,-0.7078 -127.8125,-0.7131 -122.5368,-0.01 -131.5305,0.2438 -136.3471,3.8387 -1.6545,1.2349 -46.9124,1.1299 -48.6529,-0.1129 -3.1621,-2.2578 -12.4915,-3.8288 -22.645,-3.8132 -17.13,0.026 -16.73,-0.2397 -16.73,11.1288 0,5.8032 -0.5936,10.1978 -1.5,11.1042 -1.0259,1.0259 -7.1126,1.5 -19.2565,1.5 -15.4976,0 -20.7534,-0.5963 -41.3125,-4.6875 l -23.556,-4.6875 -105,0.1501 c -57.75,0.083 -106.1826,0.2878 -107.628,0.4562 -1.8003,0.2097 -4.9696,-2.1017 -10.0614,-7.3376 -5.4624,-5.617 -8.3237,-7.6437 -10.7915,-7.6437 -4.5165,0 -14.6441,2.7727 -14.6441,4.0092 0,1.2087 -47.9846,1.3395 -49.19,0.1341 -3.2613,-3.2612 -11.6525,-4.1058 -40.81,-4.1074 -16.8438,-10e-4 -31.8906,0.3374 -33.4375,0.7519 -1.675,0.4489 -2.8125,1.7218 -2.8125,3.1472 0,1.3164 -0.9844,2.6981 -2.1875,3.0705 -1.2031,0.3723 -3.1643,1.1984 -4.358,1.8357 -2.8041,1.497 -12.8549,1.497 -15.659,0 -1.1938,-0.6373 -3.1549,-1.4634 -4.358,-1.8357 -1.2031,-0.3724 -2.1875,-1.7587 -2.1875,-3.0808 0,-1.4528 -1.1166,-2.684 -2.8228,-3.1121 -1.5523,-0.3897 -59.068,-0.7103 -127.8125,-0.7126 -121.7768,0 -131.4134,0.2604 -136.2397,3.7385 -1.8092,1.3038 -46.8402,1.4753 -48.5562,0.1849 -3.2209,-2.422 -12.3445,-4.0225 -22.8388,-4.0064 -17.13,0.026 -16.73,-0.2397 -16.73,11.1288 0,5.8032 -0.5936,10.1978 -1.5,11.1042 -1.0259,1.0259 -7.1126,1.5 -19.2565,1.5 -15.4976,0 -20.7534,-0.5963 -41.3125,-4.6875 l -23.556,-4.6875 -105,0.1501 c -57.75,0.083 -106.1826,0.2878 -107.628,0.4562 -1.8002,0.2097 -4.9696,-2.1017 -10.0614,-7.3376 -5.4623,-5.617 -8.3237,-7.6437 -10.7915,-7.6437 -4.6087,0 -14.6441,2.7835 -14.6441,4.0619 0,1.1999 -47.4845,1.0843 -49.375,-0.1202 -5.1507,-3.2818 -11.5685,-3.8971 -39.375,-3.775 -16.1562,0.071 -31.0625,0.4875 -33.125,0.9256 -3.5227,0.7483 -3.7729,1.1939 -4.1279,7.3538 -0.3426,5.9448 -0.7512,6.7522 -4.375,8.6434 -5.3132,2.773 -14.165,2.8041 -19.8702,0.07 -4.3531,-2.0862 -4.6453,-2.5944 -5,-8.6995 -0.3743,-6.4395 -0.4103,-6.4909 -5.2478,-7.4905 -2.679,-0.5536 -30.5227,-0.7954 -61.875,-0.5373 l -57.0041,0.4692 -45.625,9.4626 c -25.0937,5.2044 -50.5331,9.8591 -56.532,10.3437 -9.09,0.7345 -11.0302,1.2695 -11.6467,3.2118 -0.6482,2.042 -2.1047,2.3306 -11.7598,2.3306 -9.9686,0 -11.0822,-0.2385 -11.6736,-2.5 -0.6489,-2.4811 -1.7051,-2.5 -140.0423,-2.5 -134.2317,0 -139.5936,0.088 -144.9365,2.3782 -3.0515,1.3081 -5.893,3.2768 -6.3143,4.375 -1.1925,3.1075 -11.0368,2.728 -13.0547,-0.5032 -1.1167,-1.788 -2.9151,-2.5 -6.315,-2.5 -4.8682,0 -10.2251,-3.5131 -10.2251,-6.7058 0,-0.8846 -1.332,-2.8597 -2.9599,-4.3891 -2.8767,-2.7025 -3.5175,-2.7603 -22.8125,-2.0576 -10.919,0.3976 -29.837,0.7093 -42.0401,0.6925 -32.9122,-0.045 -58.2139,-0.036 -83.75,0.031 -12.5469,0.033 -28.5781,-0.2884 -35.625,-0.7136 -12.1335,-0.7321 -12.8125,-0.6439 -12.8125,1.6642 0,3.2965 3.0988,3.9414 19.0336,3.9617 12.5222,0.016 13.5294,0.2031 15.2328,2.8296 1.0032,1.5469 2.0006,5.0146 2.2164,7.7062 0.3677,4.588 0.1385,4.9611 -3.6703,5.9732 -4.7704,1.2677 -5.0192,2.9823 -1.4487,9.9811 1.738,3.4067 2.2615,5.8464 1.5625,7.2814 -0.5783,1.1869 -12.02,11.7863 -25.4263,23.5543 l -24.375,21.3962 -20.625,0.031 c -18.4571,0.027 -21.0191,0.2918 -24.375,2.5143 -3.4571,2.2895 -5.9106,2.4842 -31.4095,2.4918 -20.6621,0.01 -27.963,-0.3871 -28.8596,-1.5543 z m 3260.8941,-79.6033 c 0,-3.0044 -4.0593,-4.4257 -7.4528,-2.6095 -4.4297,2.3707 -3.134,5.0253 2.4528,5.0253 4.1085,0 5,-0.4307 5,-2.4158 z m 65.7423,0.9761 c 0.4892,-0.7918 -0.1475,-2.198 -1.4153,-3.125 -1.7629,-1.289 -8.4946,-1.6808 -28.6284,-1.6662 -14.478,0.01 -27.1087,0.5163 -28.0682,1.1238 -0.9596,0.6076 -1.3992,2.0053 -0.9768,3.1059 0.6733,1.7545 4.3072,2.0012 29.4834,2.0012 20.3169,0 28.9756,-0.4211 29.6053,-1.4397 z m 70.5077,-0.1853 c 0,-4.2473 -2.7063,-4.625 -33.1361,-4.625 -23.3076,0 -30.6583,0.3818 -32.4409,1.6853 -5.4185,3.9621 -1.1246,4.5647 32.5258,4.5647 26.2856,0 33.0512,-0.3327 33.0512,-1.625 z m -315.8589,-13.1309 c 1.8474,-1.9283 3.3589,-4.1181 3.3589,-4.8663 0,-1.6517 -2.9293,-2.8778 -6.875,-2.8778 -5.2476,0 -6.875,1.3138 -6.875,5.5504 0,2.2181 0.375,4.4079 0.8334,4.8662 1.8824,1.8824 6.4056,0.6176 9.5577,-2.6725 z m 44.6089,-4.4854 c 0,-2.747 -2.9445,-3.2587 -18.75,-3.2587 -15.8055,0 -18.75,0.5117 -18.75,3.2587 0,1.411 3.5567,1.7413 18.75,1.7413 15.1933,0 18.75,-0.3303 18.75,-1.7413 z m 252.8611,-193.3778 c 0.6914,-1.0967 0.8823,-3.4873 0.4241,-5.3125 l -0.8328,-3.3184 -31.7175,0 c -33.8778,0 -33.2349,-0.118 -33.2349,6.1022 0,4.9299 1.887,5.2029 33.5734,4.8565 26.3513,-0.2881 30.7028,-0.6067 31.7877,-2.3278 z m -1946.044,-130.7214 c 1.1965,-2.7254 3.286,-3.5868 12.5579,-5.177 3.23,-0.554 5,-1.5213 5,-2.7325 0,-1.6575 -19.6527,-1.875 -169.375,-1.875 l -169.375,0 -1.1242,4.5494 c -2.3283,9.422 -17.8985,8.6213 160.7743,8.2678 l 160.3499,-0.3172 1.1921,-2.7155 z m 71.9293,-1.18 c 2.752,-2.4862 5.0036,-5.58 5.0036,-6.875 0,-2.2212 -1.3095,-2.3545 -23.125,-2.3545 -22.2916,0 -23.125,0.09 -23.125,2.5 0,1.8893 0.8396,2.5046 3.4375,2.5188 5.3281,0.029 12.7138,3.0339 14.8086,6.0248 1.6102,2.2988 3.108,2.7064 9.9462,2.7064 7.4942,0 8.3963,-0.3124 13.0541,-4.5205 z m 348.2537,3.5638 c 0.7563,-0.5051 1.6197,-1.6805 1.9188,-2.6121 0.647,-2.0158 9.0441,-5.1359 13.8936,-5.1624 2.5979,-0.014 3.4375,-0.6295 3.4375,-2.5188 0,-2.4256 -0.8334,-2.5 -27.9912,-2.5 -30.5419,0 -29.5088,-0.2574 -29.5088,7.3522 0,5.8685 1.659,6.3993 19.9375,6.3786 9.3156,-0.01 17.5562,-0.4324 18.3126,-0.9375 z m 423.567,-2.3838 c 1.1965,-2.7254 3.286,-3.5868 12.5579,-5.177 3.23,-0.554 5,-1.5213 5,-2.7325 0,-1.6591 -23.5416,-1.875 -204.375,-1.875 -180.8334,0 -204.375,0.2159 -204.375,1.875 0,1.2112 1.77,2.1785 5,2.7325 9.5093,1.6309 11.5866,2.5153 12.953,5.5142 l 1.3721,3.0115 185.3375,-0.3166 185.3374,-0.3166 1.1921,-2.7155 z m 71.9293,-1.18 c 2.752,-2.4862 5.0036,-5.58 5.0036,-6.875 0,-2.2212 -1.3095,-2.3545 -23.125,-2.3545 -22.2916,0 -23.125,0.09 -23.125,2.5 0,1.8893 0.8396,2.5046 3.4375,2.5188 5.3281,0.029 12.7137,3.0339 14.8086,6.0248 1.6102,2.2988 3.108,2.7064 9.9462,2.7064 7.4942,0 8.3963,-0.3124 13.0541,-4.5205 z m 348.2537,3.5638 c 0.7563,-0.5051 1.6197,-1.6805 1.9188,-2.6121 0.647,-2.0158 9.0441,-5.1359 13.8936,-5.1624 2.5979,-0.014 3.4375,-0.6295 3.4375,-2.5188 0,-2.4256 -0.8334,-2.5 -27.9912,-2.5 -30.5419,0 -29.5088,-0.2574 -29.5088,7.3522 0,5.8685 1.659,6.3993 19.9375,6.3786 9.3156,-0.01 17.5562,-0.4324 18.3126,-0.9375 z m 57.372,-6.4179 c 5.483,-2.0823 6.3803,-2.9356 7.3358,-6.9757 0.7485,-3.1652 0.6331,-5.0596 -0.3697,-6.064 -0.8591,-0.8607 -6.6965,-1.6324 -14.2107,-1.8787 -7.0139,-0.2298 -13.2869,-0.9329 -13.94,-1.5625 -0.6531,-0.6295 -1.9456,-1.1445 -2.8721,-1.1445 -1.2729,0 -1.5938,1.9096 -1.3125,7.8125 l 0.3721,7.8125 5,0.8473 c 4.409,0.7472 13.75,3.0561 13.75,3.3987 0,0.07 2.8112,-0.9407 6.2471,-2.2456 z m -2744.5966,-44.2299 c 2.7058,-3.2603 -0.3812,-5.0085 -7.763,-4.3964 -7.7684,0.6442 -8.9172,1.2416 -7.8311,4.0719 0.9441,2.4605 13.6027,2.7239 15.5941,0.3245 z m 83.8441,0.4615 c 0.9597,-0.6076 1.3992,-2.0053 0.9768,-3.1059 -0.6816,-1.7762 -5.1899,-2.0011 -40.1084,-2.0011 -25.9792,0 -39.6144,0.4431 -40.1469,1.3047 -0.4435,0.7176 -0.1265,2.1239 0.7044,3.125 1.262,1.5208 7.7068,1.8171 39.17,1.8011 20.7128,-0.01 38.4446,-0.5162 39.4041,-1.1238 z m 81.3,-0.031 c 1.4873,-0.9412 1.5147,-1.473 0.1595,-3.1059 -1.4206,-1.7117 -6.4446,-1.9703 -38.2833,-1.9703 -36.8203,0 -39.1663,0.277 -37.5708,4.4349 0.5873,1.5303 6.4406,1.8121 37.2983,1.796 20.131,-0.01 37.4093,-0.5302 38.3963,-1.1547 z"
         id="path4180"
         inkscape:connector-curvature="0" />
    </g>
  </g>
</svg>
