<?xml version="1.0" encoding="UTF-8" standalone="no"?>
<!-- Created with Inkscape (http://www.inkscape.org/) -->

<svg
   xmlns:dc="http://purl.org/dc/elements/1.1/"
   xmlns:cc="http://creativecommons.org/ns#"
   xmlns:rdf="http://www.w3.org/1999/02/22-rdf-syntax-ns#"
   xmlns:svg="http://www.w3.org/2000/svg"
   xmlns="http://www.w3.org/2000/svg"
   xmlns:sodipodi="http://sodipodi.sourceforge.net/DTD/sodipodi-0.dtd"
   xmlns:inkscape="http://www.inkscape.org/namespaces/inkscape"
   width="237.99638"
   height="29.191086"
   id="svg2"
   version="1.1"
   inkscape:version="0.48.5 r10040"
   sodipodi:docname="Caterpillar.svg">
  <defs
     id="defs4" />
  <sodipodi:namedview
     id="base"
     pagecolor="#ffffff"
     bordercolor="#666666"
     borderopacity="1.0"
     inkscape:pageopacity="0.0"
     inkscape:pageshadow="2"
     inkscape:zoom="5.6"
     inkscape:cx="145.06947"
     inkscape:cy="19.741666"
     inkscape:document-units="px"
     inkscape:current-layer="layer1"
     showgrid="false"
     fit-margin-top="0"
     fit-margin-left="0"
     fit-margin-right="0"
     fit-margin-bottom="0"
     inkscape:window-width="1920"
     inkscape:window-height="1018"
     inkscape:window-x="-8"
     inkscape:window-y="-8"
     inkscape:window-maximized="1"
     showguides="true"
     inkscape:guide-bbox="true" />
  <metadata
     id="metadata7">
    <rdf:RDF>
      <cc:Work
         rdf:about="">
        <dc:format>image/svg+xml</dc:format>
        <dc:type
           rdf:resource="http://purl.org/dc/dcmitype/StillImage" />
        <dc:title />
      </cc:Work>
    </rdf:RDF>
  </metadata>
  <g
     inkscape:label="Layer 1"
     inkscape:groupmode="layer"
     id="layer1"
     transform="translate(1357.0602,-758.51602)">
    <g
       id="g2996"
       transform="matrix(0.06404715,0,0,0.06404715,-1271.4383,815.66995)">
      <path
         style="fill:#000000"
         d="m -177.35717,-437.50841 c -17.9792,-2.01076 -31.05,-7.97201 -45,-20.52338 l -7,-6.29818 -21.5964,-0.0111 c -18.5902,-0.01 -22.0701,-0.25466 -25,-1.76107 -4.0578,-2.08637 -27.9036,-3.22429 -27.9036,-1.33156 0,0.6107 -1.9058,1.08156 -4.3776,1.08156 -2.6712,0 -4.8628,0.58469 -5.6224,1.5 -0.6847,0.825 -2.5398,1.5 -4.1224,1.5 -2.5543,0 -2.8776,-0.35001 -2.8776,-3.11502 l 0,-3.11502 -18.25,0.2583 c -10.0375,0.14207 -23.3125,-0.0986 -29.5,-0.53479 l -11.25,-0.79309 0,-5.85019 0,-5.85019 9.5,0 9.5,0 0,-8 0,-8 44.5,0 44.5,0 0,-8.5 c 0,-4.675 -0.3375,-8.48718 -0.75,-8.47151 -0.4125,0.0157 -9.075,0.67784 -19.25,1.47151 -14.8987,1.16212 -46.2795,1.44857 -161.20469,1.47151 l -142.70468,0.0285 -0.6186,-3.29738 -0.61859,-3.29739 -31.06636,-7.15069 c -30.8391,-7.09838 -31.10687,-7.18216 -36.60378,-11.45262 -4.35613,-3.3842 -7.78476,-7.76851 -16.07206,-20.55192 l -10.53464,-16.25 -24.0383,-0.019 -24.0383,-0.019 -26.73033,-19.46906 -26.73034,-19.46907 -35.76966,0.52694 c -33.56803,0.4945 -36.59957,0.69154 -49.25284,3.2013 -12.13374,2.4067 -13.86123,3.01592 -17.26076,6.08719 -3.35105,3.02747 -4.21678,3.34261 -7.66703,2.79089 -2.45926,-0.39325 -7.32743,0.15184 -13.23924,1.4824 -5.14239,1.15739 -11.7123,2.32217 -14.5998,2.58841 -2.8875,0.26623 -5.25,0.89241 -5.25,1.39151 0,0.4991 -1.485,0.90745 -3.3,0.90745 -1.815,0 -3.76836,0.46836 -4.34081,1.04081 -0.71506,0.71506 -2.42074,0.72271 -5.45,0.0244 -5.9634,-1.37462 -11.53119,-1.31826 -13.86682,0.14036 -1.59717,0.99745 -2.30635,0.86796 -4.10737,-0.75 -2.17622,-1.95501 -2.17677,-1.96718 -1.80594,-39.95561 l 0.37094,-38 -9,-0.24155 c -4.95,-0.13286 -26.55003,-1.14297 -48.00003,-2.2447 -45.1913,-2.32107 -89.9186,-4.01367 -106.0642,-4.01367 -8.7726,0 -12.2333,-0.41292 -15.6171,-1.86337 -6.7169,-2.8792 -7.2088,-3.9066 -6.4171,-13.40064 0.5802,-6.95642 1.0831,-8.63251 3.2779,-10.92335 1.4259,-1.48832 3.7688,-2.84253 5.2065,-3.00934 1.4377,-0.16682 2.614,-0.7533 2.614,-1.3033 0,-0.57554 -4.006,-1.1231 -9.4379,-1.29001 -7.6685,-0.23564 -9.5994,-10e-4 -10.2997,1.25 -1.138,2.03351 -7.7624,2.11994 -7.7624,0.10128 0,-2.11042 -4.2637,-2.40743 -44.4712,-3.09789 l -35.9711,-0.61772 -4.5289,-3.29368 c -4.4691,-3.25029 -4.9701,-3.35663 -38.0288,-8.07225 -18.425,-2.62821 -33.8306,-5.27382 -34.2347,-5.87914 -0.4041,-0.60533 -0.7416,-21.59809 -0.75,-46.65059 -0.012,-34.1119 0.286,-45.85133 1.1847,-46.75 0.66,-0.66 3.36,-1.2 6,-1.2 2.64,0 4.8,-0.22909 4.8,-0.50909 0,-0.28 -4.725,-9.95091 -10.5,-21.49091 -5.775,-11.54 -10.5,-21.88591 -10.5,-22.99091 0,-1.8404 0.6549,-2.00909 7.8,-2.00909 4.29,0 8.2275,-0.38876 8.75,-0.8639 0.5225,-0.47515 9.05,-1.40796 18.95,-2.07291 34.0678,-2.28822 101.0999,-8.09639 150.8962,-13.0748 27.6198,-2.76129 55.0768,-4.99755 61.5,-5.0089 6.3821,-0.0113 20.9671,0.98597 32.4112,2.21612 17.0493,1.83267 20.9545,1.99865 21.6218,0.91899 0.6573,-1.06355 2.5265,-1.10906 9.6926,-0.23599 20.0828,2.44678 73.08072,7.25683 105.78575,9.60103 19.19914,1.37614 35.17414,2.76806 35.5,3.09315 0.32587,0.32509 0.74632,6.77414 0.93435,14.33122 l 0.34187,13.74013 3.15813,1.59452 c 1.78427,0.90087 6.8823,1.82134 11.71898,2.11591 9.91963,0.60413 17.38605,2.27406 19.03136,4.25653 1.72964,2.0841 18.90779,1.98316 18.90779,-0.1111 0,-1.28571 3,-1.5 21,-1.5 18.28142,0 21,0.20022 21,1.54664 0,1.38133 7.01381,1.53046 65.62632,1.39536 43.78239,-0.10091 65.83659,0.18897 66.25805,0.87091 0.56515,0.91443 12.7342,8.18709 13.69912,8.18709 1.10489,0 7.32306,-14.18749 7.90718,-18.04118 0.37172,-2.45235 1.65088,-5.65306 2.84259,-7.11268 l 2.16674,-2.65386 42.5,-1.13667 c 23.375,-0.62518 52.15453,-1.23094 63.95452,-1.34614 l 21.45452,-0.20947 2.16907,3.84252 c 1.19299,2.11339 4.80365,12.46339 8.02371,23 3.22005,10.53662 6.53943,19.70567 7.37641,20.37568 0.83697,0.67 3.11927,1.2325 5.07177,1.25 5.62043,0.0504 5.95,0.94305 5.95,16.11679 0,13.09706 0.0967,13.74706 2.25,15.12988 1.9458,1.24953 5.96803,1.27364 29.75,0.17828 15.125,-0.69663 48.875,-2.20951 75,-3.36196 26.125,-1.15245 61.7723,-2.75592 79.2162,-3.56328 17.4439,-0.80735 31.9564,-1.46791 32.25,-1.46791 0.2936,0 0.5338,-1.56643 0.5338,-3.48095 0,-2.78616 0.4491,-3.58673 2.25,-4.01096 1.2375,-0.29151 34.65,-5.26711 74.25,-11.05689 289.975,-42.39626 267.174499,-38.87207 307.09,-47.46579 l 37.0899,-7.98541 27.1601,0 c 17.44,0 27.16,-0.35788 27.16,-1 0,-1.30363 6.6943,-1.30363 7.5,0 0.345,0.55816 5.0104,1 10.559,1 l 9.941,0 0,3.48095 c 0,4.26994 -0.8466,4.05706 22,5.53209 49.7866,3.21432 131.6727,10.48844 133.3747,11.84794 0.6189,0.49435 5.4003,1.87786 10.6253,3.07447 60.7883,13.92148 64.6474,14.99217 88.981,24.68711 l 23.519,9.37043 135.25,0.004 c 89.5023,0.002 135.25,-0.33475 135.25,-0.9965 0,-0.57143 3,-1 7,-1 4,0 7,0.42857 7,1 0,1.3848 295.64407,1.3848 296.49997,0 0.8053,-1.30296 12.1947,-1.30296 13,0 0.8552,1.3837 295.1448,1.3837 296,0 0.805,-1.30253 11.195,-1.30253 12,0 0.4075,0.6593 50.4907,1 147,1 96.5093,0 146.5925,-0.3407 147,-1 0.8063,-1.30466 10.801,-1.29904 12.1068,0.007 0.6616,0.66158 25.1255,0.91875 71.3453,0.75 l 70.3385,-0.25681 1.3169,-4.5 1.3169,-4.5 28.8748,-13.12946 28.8748,-13.12947 17.413,1.22891 17.413,1.22892 13.5,6.41606 c 7.425,3.52884 13.9863,6.72605 14.5807,7.10491 0.5943,0.37886 1.6391,3.18438 2.3217,6.23449 0.9033,4.03652 1.6977,5.54406 2.9193,5.53985 4.2272,-0.0146 13.6031,-2.06347 14.2527,-3.11459 0.4774,-0.7724 2.1332,-0.94213 4.8903,-0.50125 5.3083,0.84883 23.096,-2.13345 24.734,-4.14691 0.7988,-0.98187 2.3002,-1.3056 4.5,-0.97028 1.8157,0.27678 10.2011,-0.56876 18.6343,-1.87897 8.4331,-1.31022 16.1409,-2.38221 17.1283,-2.38221 1.2551,0 2.0973,1.18927 2.7985,3.95188 1.075,4.23502 0.8063,5.04495 -1.6765,5.0537 -0.8708,0.003 -3.2478,0.46788 -5.2823,1.03292 l -3.699,1.02734 0.5706,4.81758 0.5706,4.81758 -14.3716,2.71603 c -25.1886,4.7596 -23.8716,4.33669 -23.8716,7.66515 0,2.66721 -0.2999,2.91714 -3.5,2.91714 l -3.5,0 0,18.96288 0,18.96287 11.3792,9.53713 c 11.0408,9.25354 11.5275,9.53712 16.3665,9.53712 l 4.9873,0 -0.5009,7 -0.5008,7 29.1657,0 c 25.0026,0 29.2479,0.21411 29.7414,1.5 0.5039,1.3132 9.1363,1.5 69.3194,1.5 47.3338,0 69.7246,0.34191 71.893,1.09783 l 3.1492,1.09782 0,7.80778 0,7.80778 -17.9771,9.59439 -17.9771,9.5944 -54.5229,0 -54.5229,0 0,36 c 0,35.28227 0.04,36 1.9915,36 1.0954,0 2.5536,0.9 3.2406,2 0.6869,1.1 2.0407,2 3.0084,2 1.5855,0 1.7595,1.23632 1.7595,12.5 0,11.70664 -0.1232,12.5 -1.941,12.5 -1.0675,0 -2.2362,0.47776 -2.5971,1.06168 -0.3609,0.58393 -1.7375,1.47279 -3.059,1.97525 -2.3533,0.89472 -2.4029,1.16168 -2.4029,12.93832 l 0,12.02475 -36.0833,0 c -27.9573,0 -35.9917,0.27486 -35.6765,1.22051 0.2237,0.67128 2.1385,1.5803 4.255,2.02005 5.6314,1.17002 6.5048,2.29551 6.5048,8.38188 0,4.67915 0.2552,5.37756 1.9652,5.37756 1.0809,0 3.5028,1.35 5.382,3 1.8793,1.65 4.1184,3 4.9758,3 0.8574,0 1.8371,0.45 2.177,1 0.3777,0.61118 8.1771,1 20.059,1 18.7743,0 19.441,-0.0686 19.441,-2 0,-1.84095 0.6667,-2 8.3834,-2 7.5423,0 8.4358,0.20064 8.9063,2 0.4685,1.7914 1.3641,2 8.5863,2 6.2096,0 8.8817,-0.45977 11.624,-2 3.3161,-1.86254 5.4144,-2 30.5304,-2 17.3131,0 26.9696,0.35805 26.9696,1 0,0.6452 11.0166,1 31.0497,1 36.805,0 36.9503,0.0314 36.9503,7.9905 0,3.91568 -0.4144,5.16093 -2,6.0095 -1.1,0.5887 -2,1.50453 -2,2.03518 0,0.60442 15.664,0.96482 41.9336,0.96482 l 41.9336,0 0.3164,2.75 c 0.3051,2.652 0.5659,2.76782 7.3164,3.25 6.841,0.48865 7.0075,0.56567 7.3301,3.39149 0.1873,1.6409 -0.2416,3.2448 -0.9917,3.70836 -1.0526,0.65056 -1.0689,1.06965 -0.08,2.05851 1.5786,1.57864 1.6006,5.08267 0.042,6.64164 -0.6794,0.67937 -3.9333,1.2 -7.5,1.2 -5.6333,0 -6.3,0.21164 -6.3,2 0,1.98161 -0.6667,2 -72.5,2 -63.7778,0 -72.5,0.18046 -72.5,1.5 0,2.196 -7.7754,2.01324 -10.2666,-0.24131 -1.8379,-1.66324 -2.0055,-1.64082 -3.7391,0.5 -2.2789,2.81431 -6.667,2.92473 -9.007,0.22665 -1.6826,-1.94007 -4.9873,-1.85947 -4.9873,0.12165 0,0.49115 -2.025,0.89301 -4.5,0.89301 -3.1797,0 -4.5,-0.4087 -4.5,-1.39301 0,-0.76616 -0.6401,-1.63864 -1.4224,-1.93885 -0.7824,-0.30021 -1.5699,-1.58586 -1.75,-2.85699 l -0.328,-2.31115 -21.25,-0.26989 c -13.9527,-0.1772 -21.25,0.0804 -21.25,0.75 0,0.56094 -1.0401,1.01989 -2.3114,1.01989 -1.2713,0 -3.2775,0.9 -4.4582,2 -1.9845,1.84877 -3.529,2 -20.4274,2 l -18.2807,0 -22.8432,5.62195 -22.8432,5.62195 -2.9201,4.12805 c -5.773,8.16137 -12.192,13.63559 -20.9055,17.82852 -8.4848,4.08288 -8.4967,4.08524 -20.5,4.0833 -11.7804,-0.002 -12.1443,-0.07 -19.0103,-3.55699 -12.8879,-6.54531 -23.76,-16.6977 -27.4681,-25.6498 -1.9843,-4.79039 -3.0319,-3.65757 -3.0319,3.27842 l 0,6.35539 -6.75,0.6375 c -3.7125,0.35062 -9.9345,0.64069 -13.8266,0.6446 l -7.0765,0.007 -19.1735,-25.00682 -19.1734,-25.00682 0,-7.49318 0,-7.49318 -72,0 -72,0 0,-3 c 0,-2 -0.5,-3 -1.5,-3 -0.825,0 -1.5,0.45 -1.5,1 0,0.57778 -3.1667,1 -7.5,1 -6.8333,0 -7.5,0.17778 -7.5,2 0,1.9908 -0.6667,2 -145,2 l -145,0 0,-2.44098 c 0,-2.57748 -1.572,-4.34296 -2.1972,-2.46755 -0.2023,0.60716 -3.5033,1.34186 -7.3354,1.63267 -3.8321,0.29081 -7.6424,1.10268 -8.4674,1.80416 -1.083,0.92082 -6.3493,1.29675 -18.9429,1.35218 -20.4758,0.0901 -21.1722,0.35848 -17.931,6.90953 1.7161,3.4686 1.9752,5.24326 1.4175,9.70726 -0.5691,4.55537 -1.3998,6.25492 -5.001,10.2327 l -4.3186,4.77003 -188.9836,0.2577 -188.98347,0.25769 -50.8785,-6.44822 c -27.9831,-3.54652 -76.3034,-9.69022 -107.3784,-13.65266 l -56.5,-7.20445 -267,3.24134 -267,3.24135 -20.1327,-5.59638 c -11.073,-3.078 -21.2839,-5.59637 -22.691,-5.59637 -1.407,0 -2.8364,-0.45 -3.1763,-1 -0.3399,-0.55 -1.4915,-1 -2.559,-1 -1.0676,0 -1.941,-0.45 -1.941,-1 0,-0.55 -1.9553,-1 -4.345,-1 -3.0723,0 -4.8742,0.58473 -6.1515,1.99617 -1.7848,1.97219 -3.3213,1.99922 -127.905001,2.25 l -126.0985,0.25383 -0.2885,8.12834 -0.2885,8.12835 -3.9615,0.63347 c -3.3842,0.54116 -3.9615,0.99608 -3.9615,3.12166 0,1.54505 -0.5686,2.48818 -1.5,2.48818 -0.825,0 -1.5046,0.5625 -1.5103,1.25 -0.01,0.6875 -0.4503,6.65 -0.988,13.25 -0.8923,10.95125 -1.3008,12.61177 -4.6741,19 -2.8472,5.39187 -5.6642,8.7489 -12.261999,14.61278 -9.4947,8.43848 -20.2627,15.75771 -28.6209,19.4541 -8.7035,3.84909 -29.884,5.29669 -47.9447,3.27682 z m 2404.49997,-261.8437 0,-8 -30,0 -30,0 0,8 0,8 30,0 30,0 0,-8 z"
         id="path2998"
         inkscape:connector-curvature="0" />
    </g>
  </g>
</svg>
