<?xml version="1.0" encoding="UTF-8" standalone="no"?>
<!-- Created with Inkscape (http://www.inkscape.org/) -->

<svg
   xmlns:dc="http://purl.org/dc/elements/1.1/"
   xmlns:cc="http://creativecommons.org/ns#"
   xmlns:rdf="http://www.w3.org/1999/02/22-rdf-syntax-ns#"
   xmlns:svg="http://www.w3.org/2000/svg"
   xmlns="http://www.w3.org/2000/svg"
   xmlns:sodipodi="http://sodipodi.sourceforge.net/DTD/sodipodi-0.dtd"
   xmlns:inkscape="http://www.inkscape.org/namespaces/inkscape"
   width="204"
   height="43.658966"
   id="svg2"
   version="1.1"
   inkscape:version="0.48.5 r10040"
   sodipodi:docname="Constellation.svg">
  <defs
     id="defs4" />
  <sodipodi:namedview
     id="base"
     pagecolor="#ffffff"
     bordercolor="#666666"
     borderopacity="1.0"
     inkscape:pageopacity="0.0"
     inkscape:pageshadow="2"
     inkscape:zoom="5.6"
     inkscape:cx="134.5695"
     inkscape:cy="24.582222"
     inkscape:document-units="px"
     inkscape:current-layer="layer1"
     showgrid="false"
     fit-margin-top="0"
     fit-margin-left="0"
     fit-margin-right="0"
     fit-margin-bottom="0"
     inkscape:window-width="1920"
     inkscape:window-height="1018"
     inkscape:window-x="-8"
     inkscape:window-y="-8"
     inkscape:window-maximized="1" />
  <metadata
     id="metadata7">
    <rdf:RDF>
      <cc:Work
         rdf:about="">
        <dc:format>image/svg+xml</dc:format>
        <dc:type
           rdf:resource="http://purl.org/dc/dcmitype/StillImage" />
        <dc:title />
      </cc:Work>
    </rdf:RDF>
  </metadata>
  <g
     inkscape:label="Layer 1"
     inkscape:groupmode="layer"
     id="layer1"
     transform="translate(489.07769,-687.73795)">
    <g
       id="g2996"
       transform="matrix(0.10919547,0,0,0.10919547,-324.04489,767.13037)">
      <path
         style="fill:#000000"
         d="m -896.64285,-333.17515 c -39.05,-3.49562 -79.76085,-6.83234 -90.46856,-7.41493 -10.7077,-0.5826 -33.20769,-2.39513 -49.99999,-4.02786 -16.7923,-1.63273 -39.5315,-3.67266 -50.5315,-4.53318 -11,-0.86052 -33.05,-2.93133 -49,-4.60181 -28.8634,-3.02292 -29.2966,-3.03781 -92,-3.16372 -60.0464,-0.12058 -65.8318,0.0606 -93.7964,2.93782 -4.804,0.49427 -6.0144,0.29818 -7.0699,-1.14533 -0.9313,-1.27358 -2.825,-1.77824 -7.0458,-1.87767 l -5.7722,-0.13598 0.6775,-7.25 c 0.6657,-7.12353 0.6367,-7.25002 -1.6578,-7.2511 -1.2845,-6.1e-4 -23.0184,-1.14081 -48.2977,-2.53379 -31.2295,-1.72085 -47.7373,-3.02562 -51.5,-4.07053 -12.2817,-3.4107 -40.5795,-11.66793 -41.1938,-12.02022 -0.7529,-0.43189 1.0721,-7.277 2.4197,-9.07535 2.4539,-3.27464 12.7558,-2.81235 48.2364,2.16457 10.3233,1.44806 24.6587,2.62129 36.5,2.98722 10.725,0.33143 26.1375,0.87609 34.25,1.21035 10.9146,0.44972 14.75,0.30454 14.75,-0.55831 0,-0.64133 -2.475,-4.4544 -5.5,-8.47347 -3.025,-4.01908 -5.5,-8.22643 -5.5,-9.34968 0,-2.63685 -6.1199,-4.27969 -15.9428,-4.27969 -4.9026,0 -6.9808,-0.36078 -6.8072,-1.18171 0.148,-0.69915 -2.2001,-1.72271 -5.75,-2.50655 -3.3,-0.72867 -7.0522,-1.56544 -8.3382,-1.8595 -3.4758,-0.79474 -1.1282,-3.02189 4.6378,-4.39983 3.6572,-0.87399 7.0069,-0.80001 15.0926,0.33336 7.332,1.02774 11.16,1.15966 13,0.44802 1.4343,-0.55475 6.6228,-1.2125 11.53,-1.46167 8.6601,-0.43972 9.0066,-0.55177 11.793,-3.81386 3.5919,-4.20511 9.7302,-6.66518 26.2848,-10.53423 15.2995,-3.57569 25.5133,-6.9683 25.4668,-8.45896 -0.064,-2.04053 -4.0256,-5.84101 -6.2054,-5.95265 -1.7366,-0.0889 -2.4804,-1.12241 -3.5603,-4.94706 -0.7508,-2.65905 -1.1016,-5.09817 -0.7795,-5.42026 0.3221,-0.32209 3.6215,-0.84651 7.332,-1.16536 l 6.7464,-0.57974 0.3104,-3.75 c 0.1797,-2.17079 -0.1362,-3.75 -0.75,-3.75 -1.5317,0 -1.3023,-1.9009 0.4396,-3.64286 1.6738,-1.67373 2.06,-7.35714 0.5,-7.35714 -1.2172,0 -1.3416,-2.7 -0.1458,-3.16667 0.4697,-0.18333 1.1635,-3.82083 1.5417,-8.08333 0.6579,-7.41537 0.5972,-7.75 -1.4038,-7.75 -1.1503,0 -3.3065,-0.61983 -4.7917,-1.37741 -1.4852,-0.75757 -7.0879,-1.69957 -12.4504,-2.09332 l -9.75,-0.71592 0,2.59333 c 0,2.89628 -2.8946,3.63016 -4.8804,1.23736 -0.8333,-1.00407 -4.66,-1.39774 -14.7453,-1.51692 -7.491,-0.0885 -14.0158,-0.4056 -14.4996,-0.70462 -0.4839,-0.29901 -7.5161,-0.78298 -15.6272,-1.07549 -8.1111,-0.2925 -18.1225,-1.16517 -22.2475,-1.93925 -4.125,-0.77408 -8.5895,-1.40749 -9.9212,-1.40759 -1.3317,-9e-5 -3.2265,-0.72891 -4.2107,-1.61959 -1.2979,-1.17459 -5.1651,-1.87535 -14.0787,-2.55119 -6.7592,-0.51248 -16.7748,-1.69624 -22.257,-2.63059 -8.846,-1.50765 -10.1316,-1.99233 -11.4259,-4.30757 -1.4055,-2.51429 -1.1766,-3.04711 6.3195,-14.71211 4.2778,-6.65683 8.2945,-12.49207 8.9259,-12.96719 2.451,-1.84411 24.3438,-10.97291 27.8418,-11.60936 2.5007,-0.45499 3.9058,-1.34066 4.3507,-2.74218 0.5303,-1.67112 1.2178,-1.95796 3.5667,-1.48818 1.6003,0.32007 6.3925,-0.0485 10.6493,-0.819 7.8145,-1.41449 38.5158,-3.62187 56.4843,-4.06115 6.0572,-0.14808 10.3213,-0.71687 11.2687,-1.50315 1.2395,-1.02865 1.8476,-0.98652 3.2554,0.22553 1.5364,1.32267 3.8681,1.27702 20.7132,-0.40554 15.8085,-1.57903 19.33,-2.22308 21.0644,-3.85245 1.1454,-1.07605 2.7861,-1.95645 3.646,-1.95645 0.8599,0 3.1175,-0.64937 5.0171,-1.44303 1.8995,-0.79367 6.9177,-1.75694 11.1515,-2.1406 6.7682,-0.61332 7.982,-1.03529 10.0509,-3.49401 1.9754,-2.34764 3.375,-2.89434 8.7206,-3.40635 9.8469,-0.94315 18.8433,-2.63775 24.7741,-4.66654 2.9736,-1.01721 7.7845,-1.84947 10.691,-1.84947 2.9064,0 5.5625,-0.45 5.9024,-1 0.3995,-0.64641 -3.911,-1.007 -12.1909,-1.01981 -7.045,-0.0109 -17.3091,-0.27277 -22.8091,-0.58196 -5.5,-0.30918 -20.2784,-0.11798 -32.841,0.42489 -18.6933,0.8078 -29.5886,0.65223 -60,-0.85673 -43.7109,-2.16887 -55.659,-3.56107 -55.659,-6.48544 0,-1.68634 -0.5779,-1.75367 -17.5,-2.03869 l -12,-0.20213 -0.2503,-3.87006 c -0.1376,-2.12854 -0.5027,-5.78257 -0.8112,-8.12007 l -0.561,-4.25 -15.898,0 c -14.7268,0 -17.2769,-0.29292 -34.6149,-3.97606 -10.2943,-2.18684 -18.9751,-4.35262 -19.2907,-4.81286 -0.3156,-0.46023 -2.1126,-2.94601 -3.9934,-5.52394 l -3.4195,-4.68714 -11.2055,0 c -6.163,0 -12.6588,-0.29066 -14.4351,-0.64592 l -3.2296,-0.64592 0.3843,-6.8004 c 0.2113,-3.74022 0.6726,-7.08874 1.025,-7.44116 0.7713,-0.77127 11.4012,-2.28157 22.0499,-3.13284 l 7.75,-0.61955 0,-4.19882 c 0,-3.98916 0.1873,-4.2539 3.75,-5.3021 6.0298,-1.774 21.3288,-4.18734 29.8619,-4.71053 4.3385,-0.26601 11.2631,-0.72335 15.3881,-1.01632 22.7799,-1.6179 55.0113,-2.61025 81.5,-2.50926 16.5,0.0629 40.0766,-0.38214 52.3924,-0.989 15.7414,-0.77566 22.7066,-0.78925 23.45,-0.0458 0.5817,0.58168 1.8856,1.0576 2.8975,1.0576 1.0119,0 3.6647,0.93099 5.8951,2.06887 3.9309,2.00536 4.1211,2.01304 6.1959,0.25 5.9223,-5.03222 25.422,-22.94277 27.1691,-24.95488 1.8927,-2.1797 4.2553,-2.54838 44,-6.86583 39.4429,-4.28466 42.3958,-4.74278 48.5,-7.52433 7.1838,-3.27343 29.332,-8.51801 41,-9.70856 4.125,-0.4209 18.975,-0.73174 33,-0.69077 22.9689,0.0671 26.9393,0.33484 40,2.69728 7.975,1.44252 18.325,3.94813 23,5.56801 4.67505,1.61988 17.05005,4.85849 27.50005,7.19691 10.45,2.33843 19.46403,4.61018 20.03118,5.04834 0.56715,0.43815 1.85846,3.0972 2.86956,5.909 1.67643,4.66199 2.0701,5.06833 4.46882,4.61268 15.70924,-2.98406 54.62524,-4.04218 56.17939,-1.52751 1.22902,1.98859 5.80285,2.21184 7.64171,0.37299 1.06987,-1.06987 2.51055,-1.42128 4.21717,-1.02864 2.9696,0.6832 23.37386,1.41243 56.59217,2.02255 12.65,0.23235 23.9,0.64259 25,0.91166 1.1,0.26906 2.225,0.53053 2.5,0.58103 0.275,0.0505 -0.175,0.52804 -1,1.0612 -1.15539,0.74667 -0.82227,0.97289 1.45,0.98469 1.78112,0.009 2.57358,0.37083 2,0.91258 -0.5225,0.49349 -18.58916,1.18307 -40.14813,1.53239 -31.50378,0.51045 -39.74812,0.922 -42,2.09657 -1.54103,0.8038 -4.94548,1.46422 -7.56544,1.46761 -2.61996,0.003 -5.54496,0.41197 -6.5,0.90795 -0.95504,0.49598 -3.53643,1.28348 -5.73643,1.75 -4.33337,0.9189 -5.33163,2.65867 -1.8129,3.15952 1.67618,0.23858 2.62922,1.64024 4.07963,6 l 1.89253,5.68869 9.42037,1.69918 c 11.22373,2.02445 15.61946,2.20355 16.13484,0.65742 0.28312,-0.84938 0.95462,-0.83648 2.61134,0.0502 1.22661,0.65646 1.98607,1.58859 1.68768,2.0714 -0.64804,1.04854 0.15966,1.30003 12.71906,3.96031 8.01066,1.69678 13.34362,2.06151 30.14302,2.06151 21.8578,0 21.62443,-0.0551 21.62443,5.10679 0,1.35912 0.90173,2.12356 3,2.54321 2.87651,0.5753 3,0.81626 3,5.85368 0,4.89461 -0.20504,5.33861 -3,6.49632 -6.2816,2.60192 -2.35073,4.96412 8.375,5.03283 2.81875,0.0181 11.13308,0.87897 18.47629,1.91314 13.22843,1.863 13.4861,1.86151 28,-0.16194 10.90152,-1.51983 22.70651,-2.20107 46.14871,-2.66314 45.92576,-0.90523 187.9567,-0.75988 191.6936,0.19619 2.7701,0.7087 3.2343,1.30058 3.5,4.46272 l 0.3064,3.64565 13,3.98539 13,3.98539 89.4167,0.31775 c 49.17915,0.17477 89.90415,0.71209 90.50005,1.19406 0.5958,0.48196 2.8833,0.90849 5.0833,0.94784 2.2,0.0394 12.5201,1.38872 22.9335,2.9986 13.7329,2.12306 19.2568,3.36909 20.1103,4.53629 1.0239,1.40022 4.2397,1.60923 24.7593,1.60923 22.156,0 23.7978,0.12696 27.1397,2.09878 1.9565,1.15432 3.5572,2.50432 3.5572,3 0,0.49567 0.45,0.90122 1,0.90122 0.55,0 1,-1.73285 1,-3.85078 0,-2.11792 0.494,-5.26792 1.0978,-7 l 1.0979,-3.14922 32.8431,0 c 21.3656,0 33.0647,0.35845 33.4771,1.02571 0.3486,0.56414 0.8865,3.60164 1.1952,6.75 0.5942,6.06051 1.7343,9.22429 3.3241,9.22429 0.5306,0 0.9648,-1.0883 0.9648,-2.41844 0,-1.66719 1.0462,-3.06504 3.368,-4.5 5.2425,-3.24004 26.1633,-2.96684 45.9081,0.5995 l 14.8435,2.68105 17.6902,-7.13536 17.6902,-7.13536 52.5,-0.20045 c 28.875,-0.11024 62.175,0.26173 74,0.82661 22.1341,1.05735 50.2026,2.98693 55.5,3.81537 3.189,0.49872 35,25.82828 35,27.86883 0,0.65635 -3.6091,1.4214 -8.9698,1.90136 -4.9334,0.44172 -9.1726,1.00599 -9.4206,1.25395 -0.2479,0.24795 0.459,1.46155 1.571,2.69688 2.5792,2.86523 3.6989,4.83572 2.6437,4.65242 -0.4534,-0.0788 -2.1743,-0.009 -3.8243,0.15599 -1.65,0.16456 1.5,0.58385 7,0.93177 5.5,0.34792 15.85,1.59006 23,2.76032 18.727,3.06508 19.5,3.12474 19.5,1.50498 0,-0.86088 0.6694,-1.19363 1.75,-0.86988 3.7958,1.13727 35.3005,6.63893 40.5989,7.08979 3.0956,0.26343 20.8753,4.31334 39.5103,8.99981 18.635,4.68647 34.8401,8.52086 36.0113,8.52086 1.1712,0 2.1295,0.45 2.1295,1 0,0.55 -0.6157,1 -1.3683,1 -0.8485,0 -1.5797,1.57575 -1.9246,4.14675 -0.306,2.28071 -1.3777,4.95626 -2.3816,5.94567 -2.0124,1.98302 -68.7138,39.65356 -76.777,43.36075 -9.8043,4.50779 -18.6344,5.43977 -53.1807,5.613 -22.0288,0.11046 -28.2389,0.4305 -29.8182,1.53668 -1.7908,1.25434 -1.2943,1.39715 4.8578,1.39715 l 6.8526,0 -0.5072,4.5 c -0.3833,3.40048 -0.1707,4.5 0.8699,4.5 0.7575,0 1.3772,0.41594 1.3772,0.92432 0,0.50837 -7.2879,6.90062 -16.1953,14.20499 l -16.1953,13.28068 -22.0547,1.74268 c -12.1301,0.95848 -29.2772,1.76623 -38.1047,1.795 -8.8275,0.0288 -16.4775,0.47218 -17,0.98532 -0.5459,0.53613 -12.6477,0.8955 -28.45,0.84484 -83.5611,-0.26786 -79.4204,-0.17184 -80.697,-1.87124 -0.6584,-0.87638 -9.9639,-6.38888 -20.679,-12.25 l -19.4819,-10.65659 -7.321,0.01 c -4.0265,0.005 -13.171,0.67172 -20.321,1.48049 -10.1972,1.15346 -28.0326,1.47471 -82.7243,1.49001 l -69.7243,0.0195 -1.6164,-3.12569 -1.6165,-3.12569 -7.6593,0.66876 c -4.2126,0.36781 -40.4974,0.89824 -80.6331,1.17874 -40.4198,0.28248 -73.21685,0.90338 -73.51865,1.39182 -0.9068,1.46715 -11.1125,2.4602 -11.9164,1.15949 -0.3867,-0.62564 -3.5024,-1.43013 -6.9239,-1.78774 -6.1357,-0.64131 -6.3091,-0.59006 -12.6702,3.74505 -3.5472,2.41739 -6.4601,4.73276 -6.4732,5.14526 -0.013,0.4125 1.2137,0.73833 2.7262,0.72406 1.5125,-0.0143 16.025,1.39117 32.25,3.12319 l 29.49995,3.14911 2.791,3.12682 2.791,3.12682 -2.791,2.34396 c -1.8267,1.53406 -2.3591,2.51304 -1.541,2.83333 0.7309,0.28616 1.25,2.27898 1.25,4.79905 0,2.51232 -0.5213,4.51985 -1.25,4.81361 -0.6875,0.27716 -13.55455,5.27531 -28.59355,11.10699 -29.0432,11.26211 -33.7748,12.33007 -41.4385,9.35306 -1.7699,-0.6875 -6.3679,-1.25 -10.2179,-1.25 -6.9694,0 -7.0014,0.0126 -7.3288,2.87872 l -0.3289,2.87872 -62.0405,-0.74375 -62.04051,-0.74376 -4.91931,2.30408 -4.9193,2.30408 0.28866,7.51687 0.28866,7.51686 12.72607,4.04409 c 6.99934,2.22425 12.73684,4.37594 12.75,4.78155 0.0132,0.4056 -1.66357,1.77813 -3.72607,3.05008 -3.10678,1.91595 -11.98324,3.65277 -51.75,10.12572 -26.4,4.29721 -49.2375,8.04342 -50.75,8.32492 -8.2389,1.53339 1.07574,1.97551 35,1.66126 l 37.75,-0.34969 22,-4.30407 c 12.1,-2.36724 22.7875,-4.14543 23.75,-3.95155 3.25547,0.65578 1.81486,3.11149 -2.5,4.26159 -2.3375,0.62305 -13.925,3.90289 -25.75,7.28855 l -21.5,6.15573 -68.5,0.16363 -68.5,0.16363 -39,6.55684 c -21.45,3.60627 -40.35,6.75426 -42,6.99554 -1.65,0.24129 -34.95,-2.42136 -74,-5.91698 z m -189.10075,-132.54278 c 1.5945,-0.50593 12.8859,-0.91988 25.0919,-0.91988 24.3207,0 49.5106,-0.96933 49.5059,-1.90503 0,-0.32723 -10.0441,-4.53247 -22.3165,-9.34497 l -22.3135,-8.75 -11.6835,0 -11.6836,0 0,-3.44098 c 0,-1.89254 -0.4106,-3.69476 -0.9124,-4.00493 -0.5019,-0.31017 -12.5394,-0.84392 -26.75,-1.18611 -14.2107,-0.34219 -44.0626,-1.60294 -66.3376,-2.80167 -22.275,-1.19872 -40.65,-1.81653 -40.8333,-1.3729 -0.1833,0.44362 -0.9708,0.80659 -1.75,0.80659 -1.0333,0 -1.4167,1.35294 -1.4167,5 0,2.75 0.45,5 1,5 1.4394,0 1.2343,2.73883 -0.25,3.33772 -0.6875,0.27741 3.1671,0.53991 8.5658,0.58333 5.3986,0.0434 10.6676,0.53488 11.7089,1.09212 1.0412,0.55725 3.9243,3.85963 6.4068,7.33863 l 4.5138,6.32545 32.2774,0.68064 c 17.7525,0.37435 33.2898,0.94945 34.5273,1.278 1.2375,0.32856 2.25,1.18239 2.25,1.89741 0,0.71502 0.5625,1.52585 1.25,1.80184 1.9417,0.77948 25.8979,-0.38364 29.1493,-1.41526 z m 154.30806,-216.90863 c 0.28604,-1.09382 0.91891,-1.74226 1.40638,-1.44099 0.48747,0.30128 0.88631,0.0712 0.88631,-0.51124 0,-0.58246 -1.2375,-1.07505 -2.75,-1.09464 -1.5125,-0.0196 -5.37849,-0.66353 -8.59108,-1.43097 l -5.84109,-1.39536 0.67148,2.67538 c 1.09565,4.36541 2.39814,5.18657 8.22675,5.18657 4.61986,0 5.5521,-0.30945 5.99125,-1.98875 z"
         id="path2998"
         inkscape:connector-curvature="0"
         sodipodi:nodetypes="ssssssscscsssscsssssssscscsscsssccssscsscscsssscssscsssssscscscsssccssscssssscssssssccccsssccsscccscsssssscscccsssssssssssssssssccsscsssscsscssssssscssssccccsccssscsssccscssssscccssssscsccsssssssssccsssscsssscsssscsccsscccssccssccscccccscscsccccccccscsssscsssscccssscscscccscsssssscscccsssscscssscsss" />
    </g>
  </g>
</svg>
