<?xml version="1.0" encoding="UTF-8" standalone="no"?>
<!-- Created with Inkscape (http://www.inkscape.org/) -->

<svg
   xmlns:dc="http://purl.org/dc/elements/1.1/"
   xmlns:cc="http://creativecommons.org/ns#"
   xmlns:rdf="http://www.w3.org/1999/02/22-rdf-syntax-ns#"
   xmlns:svg="http://www.w3.org/2000/svg"
   xmlns="http://www.w3.org/2000/svg"
   xmlns:sodipodi="http://sodipodi.sourceforge.net/DTD/sodipodi-0.dtd"
   xmlns:inkscape="http://www.inkscape.org/namespaces/inkscape"
   width="267"
   height="57.048698"
   id="svg2"
   version="1.1"
   inkscape:version="0.91 r13725"
   sodipodi:docname="Crucible.svg">
  <defs
     id="defs4" />
  <sodipodi:namedview
     id="base"
     pagecolor="#ffffff"
     bordercolor="#666666"
     borderopacity="1.0"
     inkscape:pageopacity="0.0"
     inkscape:pageshadow="2"
     inkscape:zoom="5.6"
     inkscape:cx="152.88648"
     inkscape:cy="43.994562"
     inkscape:document-units="px"
     inkscape:current-layer="g2996"
     showgrid="false"
     fit-margin-top="0"
     fit-margin-left="0"
     fit-margin-right="0"
     fit-margin-bottom="0"
     inkscape:window-width="1920"
     inkscape:window-height="1017"
     inkscape:window-x="-8"
     inkscape:window-y="-8"
     inkscape:window-maximized="1" />
  <metadata
     id="metadata7">
    <rdf:RDF>
      <cc:Work
         rdf:about="">
        <dc:format>image/svg+xml</dc:format>
        <dc:type
           rdf:resource="http://purl.org/dc/dcmitype/StillImage" />
        <dc:title />
      </cc:Work>
    </rdf:RDF>
  </metadata>
  <g
     inkscape:label="Layer 1"
     inkscape:groupmode="layer"
     id="layer1"
     transform="translate(-200.47376,-489.42024)">
    <g
       id="g2996"
       transform="matrix(0.14269646,0,0,0.14269646,100.02025,569.52796)"
       style="fill:#000000;fill-opacity:1">
      <path
         style="fill:#000000;fill-opacity:1"
         d="m 1868.7145,-162.53525 c 3.1615,-0.46303 6.6194,-1.30815 7.6843,-1.87806 1.0649,-0.56991 6.076,-1.0362 11.1359,-1.0362 5.0598,0 10.9309,-0.51867 13.0467,-1.15261 5.6917,-1.70526 6.4067,-6.3774 1.33,-8.6905 -3.5573,-1.62083 -3.0208,-3.32365 2.0034,-6.3584 4.3614,-2.63436 4.4544,-2.80061 4.75,-8.49272 l 0.3016,-5.80577 11.5,-0.68605 c 8.8377,-0.52723 14.8197,-1.60908 25.8399,-4.67317 7.8869,-2.19291 14.6369,-4.2841 15,-4.64707 0.363,-0.36297 0.7141,-2.59582 0.7801,-4.96187 0.1445,-5.18325 0.8644,-6.53184 3.4871,-6.53184 1.0939,0 4.4424,-1.56941 7.441,-3.48758 l 5.4519,-3.48758 0,-15.0438 c 0,-12.44978 -0.2586,-15.14306 -1.5,-15.61941 -0.825,-0.31659 -1.5,-1.14255 -1.5,-1.83549 0,-1.62698 35.64,-13.8743 60.25,-20.70428 10.9416,-3.03662 18.75,-5.70027 18.75,-6.39613 0,-1.62079 -3.3395,-2.39282 -10.5,-2.42739 -3.3,-0.0159 -6.5918,-0.40426 -7.3152,-0.86296 -1.5348,-0.97328 8.8078,-2.11756 19.2365,-2.12827 4.3903,-0.005 7.4985,-0.50497 8.5,-1.36859 2.7402,-2.36316 41.4722,-6.31956 50.6459,-5.17339 7.8814,0.98472 59.8562,-6.7697 67.9328,-10.1353 6.4485,-2.68714 35.848,-8.35183 66.5792,-12.82846 10.1314,-1.47585 20.2208,-3.2693 22.4208,-3.98544 3.5902,-1.16868 4.0512,-1.69719 4.5,-5.159 0.4801,-3.70305 0.6596,-3.86566 4.5,-4.07584 2.2,-0.1204 16.15,-0.69232 31,-1.27094 14.85,-0.57862 35.55,-1.95518 46,-3.05903 10.45,-1.10385 22.15,-2.22625 26,-2.49422 10.4098,-0.72457 32.4974,-3.41328 36.5,-4.44314 1.925,-0.49529 9.0168,-1.45729 15.7596,-2.13778 10.9462,-1.1047 12.6283,-1.06145 15.7007,0.4037 3.0533,1.45602 7.0246,1.5737 35.2404,1.04425 23.8851,-0.44819 32.7948,-0.28881 35.7993,0.64039 5.6068,1.73403 38.5275,2.62654 41.341,1.12079 2.9941,-1.6024 2.8162,-5.60842 -0.341,-7.67707 -4.0803,-2.67354 -3.0821,-4.08384 3.4104,-4.81839 6.695,-0.75746 8.8117,-2.37183 7.159,-5.45999 -1.3093,-2.44652 -1.3883,-8.16073 -0.1574,-11.39803 1.4146,-3.72081 -0.2151,-5.14577 -6.5371,-5.71597 -6.587,-0.59409 -7.8285,-2.21259 -3.4387,-4.48268 3.4752,-1.7971 4.1344,-5.40532 1.3994,-7.66054 -2.5327,-2.08842 -31.6137,-1.61443 -41.943,0.68362 -6.9863,1.55432 -11.3788,1.67782 -38.556,1.08407 -30.2034,-0.65987 -30.7272,-0.63725 -34.32,1.48257 -3.5054,2.06825 -4.0674,2.10578 -14.3325,0.95719 -5.8763,-0.65751 -14.0591,-1.82262 -18.1841,-2.58912 -7.2458,-1.34642 -30.8892,-4.16744 -36,-4.29536 -8.7822,-0.21982 -36.9849,-3.84912 -50.5,-6.49866 -13.263,-2.60012 -19.2492,-3.22735 -34.9945,-3.66672 l -18.9945,-0.53003 -1.7274,-3.67362 c -0.9501,-2.02049 -2.1854,-3.95667 -2.7451,-4.30262 -0.5598,-0.34595 -5.5778,-1.51295 -11.1511,-2.59334 -5.5733,-1.08038 -10.6402,-2.27762 -11.2597,-2.66053 -0.6196,-0.38291 -2.336,-0.56933 -3.8143,-0.41426 -1.4783,0.15506 -3.5475,-0.17815 -4.5982,-0.74047 -2.2753,-1.21772 -10.7053,-2.73583 -25.7152,-4.63094 -21.8633,-2.76041 -78.3832,-13.28682 -82.7425,-15.4102 -2.3416,-1.14056 -8.0652,-2.96319 -12.719,-4.05029 -7.2996,-1.7051 -8.7503,-1.78736 -10.564,-0.59898 -1.8071,1.18406 -3.5683,1.10928 -12.5384,-0.53233 -13.9211,-2.54765 -21.5012,-3.34508 -60.9361,-6.41041 -31.9036,-2.47992 -42,-3.80326 -42,-5.50498 0,-0.41968 0.6255,-1.00309 1.3901,-1.29647 0.7645,-0.29337 2.0622,-1.88086 2.8838,-3.52774 1.4534,-2.91333 1.4225,-3.01243 -1.1401,-3.6637 l -2.6338,-0.66937 3.7791,-1.94868 c 2.0785,-1.07177 11.6241,-4.85621 21.2124,-8.40987 13.7288,-5.0882 18.6169,-6.4612 23.0031,-6.4612 5.9273,0 13.499,-2.46611 11.9325,-3.88647 -1.8452,-1.67302 -7.8361,-3.11353 -12.9488,-3.11353 -3.9488,0 -9.8383,-1.67163 -24.1385,-6.85122 -10.4034,-3.76818 -19.9234,-7.39075 -21.1555,-8.05018 -2.6024,-1.39272 -2.0337,-3.03368 1.1247,-3.24562 5.4667,-0.36683 -11.1057,-1.64693 -22.5837,-1.74445 -12.7563,-0.10837 -12.7762,-0.11224 -13.7517,-2.67793 -0.5373,-1.41317 -0.7052,-3.65188 -0.3731,-4.97491 0.4739,-1.88801 0.098,-2.61966 -1.7484,-3.4009 -5.7694,-2.44153 -30.0928,-8.27134 -37.3521,-8.95251 -5.6913,-0.53404 -7.4228,-0.98956 -6,-1.57848 1.1,-0.45529 2.675,-1.39929 3.5,-2.09777 1.6112,-1.36414 21.0954,-1.89322 34.987,-0.95004 8.7792,0.59607 11.013,0.084 11.013,-2.52433 0,-2.58731 -3.6179,-3.36494 -11.2864,-2.42587 -3.4175,0.4185 -12.0636,0.68098 -19.2136,0.5833 -12.3431,-0.16863 -18.5,-1.25197 -18.5,-3.25516 0,-0.49689 -1.2375,-1.34992 -2.75,-1.89563 -9.5056,-3.42964 -10.1162,-3.9383 -9.9275,-8.27011 0.2441,-5.60136 -2.0607,-6.65454 -14.604,-6.67345 -7.0771,-0.0107 -11.4095,-0.56314 -15.6695,-1.99822 -7.6247,-2.56861 -34.6442,-3.96528 -40.3407,-2.08527 -3.3116,1.09294 -3.7083,1.58792 -3.7083,4.62725 0,2.76925 0.4524,3.51693 2.4277,4.0127 2.4746,0.62109 4.1216,2.97132 2.6985,3.85082 -1.6164,0.999 -14.7287,0.80681 -17.3558,-0.2544 -1.7873,-0.72196 -14.6562,-1.13854 -37.2761,-1.20667 l -34.5465,-0.10404 -8.9739,5.76939 c -4.9356,3.17316 -8.9739,6.0754 -8.9739,6.44942 0,1.82938 3.2252,8.07345 4.4037,8.52568 1.5112,0.57993 7.5963,8.72023 7.5963,10.162 0,0.53772 -9.5156,1.16884 -22.348,1.48223 -26.326,0.64293 -28.652,1.26195 -28.652,7.62506 0,2.6105 0.6654,4.42227 2.1023,5.72432 1.8902,1.71282 4.2778,1.95543 23.6685,2.40499 16.0003,0.37096 21.6733,0.82261 21.981,1.75 0.254,0.76526 -0.5049,1.25 -1.957,1.25 -1.3046,0 -4.1372,0.9 -6.2948,2 -2.6761,1.36436 -5.8972,2 -10.1348,2 -5.5594,0 -6.6937,0.36771 -10.7972,3.5 -2.5219,1.925 -5.7209,3.5 -7.1088,3.5 -1.3879,0 -4.1497,0.67948 -6.1373,1.50996 -3.4849,1.45608 -3.5517,1.57867 -1.8718,3.43493 1.5552,1.71843 1.7278,4.30909 1.6089,24.14564 -0.073,12.22137 -0.3681,22.60065 -0.6552,23.06507 -0.287,0.46442 -54.7314,0.8444 -120.9876,0.8444 l -120.4657,0 -0.9153,-2.40737 c -0.6043,-1.58944 -2.0399,-2.65681 -4.2252,-3.14151 -1.8205,-0.40378 -110.2728,-0.68807 -241.005,-0.63176 -235.1857,0.10129 -237.7016,0.0817 -238.3167,-1.85617 -1.2186,-3.83945 -9.0695,-3.81309 -24.0055,0.0806 -7.027,1.83188 -9.659,2.00158 -21.9828,1.41738 -13.0978,-0.62089 -14.3071,-0.85047 -18.765,-3.56242 -4.0974,-2.49258 -5.7794,-2.89876 -12.0042,-2.89876 -7.1877,0 -7.2819,0.0349 -13.235,4.90757 -6.924,5.66732 -2.1629,3.67633 -102.9958,43.06996 l -71,27.73843 0,14.27503 0,14.27504 7.4757,2.61698 c 7.2783,2.54789 7.4801,2.70835 7.6435,6.07705 0.2267,4.67131 4.1447,8.03994 9.3512,8.03994 2.1224,0 9.6696,2.05166 16.7716,4.55925 l 12.9127,4.55926 -0.3992,5.69074 c -0.534,7.61296 -0.5388,7.62278 -4.728,9.61065 -3.418,1.62195 -3.566,1.87643 -2.2736,3.90752 0.7604,1.19492 5.6268,9.06361 10.8143,17.48597 l 9.4318,15.3134 110.5,-0.57422 c 271.706,-1.41195 302.4941,-1.64859 303.1428,-2.33005 0.3783,-0.39738 0.8385,-1.84751 1.0225,-3.22251 l 0.3347,-2.5 25.5,0.27235 c 118.4896,1.26554 190.6882,1.28582 234,0.0657 28.1619,-0.7933 88.397,-1.33805 147.9549,-1.33805 l 100.4549,0 0.5451,2.11319 c 0.2998,1.16225 5.0502,5.73279 10.5564,10.15675 9.79,7.8657 16.4217,15.6971 14.7273,17.39148 -0.4668,0.46677 -3.6762,0.55313 -7.1322,0.19192 -5.8874,-0.61536 -6.3841,-0.86781 -7.8801,-4.00505 -0.8782,-1.84156 -1.8535,-3.34829 -2.1674,-3.34829 -0.3139,0 -1.2284,1.4625 -2.0324,3.25 -2.0674,4.59693 -1.6778,13.31585 0.8528,19.08291 1.1964,2.72656 2.1207,6.92765 2.1207,9.63921 0,7.76107 1.602,8.90541 13.5269,9.6626 8.3021,0.52716 11.5917,0.26931 19.1238,-1.49902 10.6378,-2.49746 10.3493,-2.47029 10.3493,-0.97472 0,1.40587 -10.4126,15.53793 -13.5124,18.33902 -1.2172,1.1 -2.8014,3.51537 -3.5204,5.36748 -1.5332,3.94972 -1.7451,3.72924 11.1091,11.55594 l 8.0861,4.92341 33.6688,0.66779 c 32.704,0.64865 33.7326,0.61071 35.8934,-1.32386 1.7792,-1.59293 3.4809,-1.95642 8.5,-1.81568 10.1605,0.2849 12.4269,2.01664 6.4516,4.92949 -3.732,1.81923 -3.7995,6.81785 -0.1111,8.22018 3.0536,1.16098 27.5188,1.08522 35.683,-0.11049 z m 122.7519,-307.79182 c 0,-1.66515 2.5213,-2.94901 9,-4.58286 3.6776,-0.92744 7.2454,-2.51626 8.2167,-3.65903 1.1389,-1.34008 2.6534,-1.91225 4.5,-1.70019 5.3676,0.61642 2.8544,2.98526 -7.2167,6.80221 -10.0419,3.8059 -14.5,4.77127 -14.5,3.13987 z m -8.5,-19.94594 c -3.1035,-2.13913 -4.0723,-3.50495 -4.3228,-6.09394 -0.4333,-4.47876 0.8139,-5.53916 4.9735,-4.22855 18.7391,5.90432 34.397,11.29367 35.2289,12.12557 0.6939,0.69389 -4.2435,1.00979 -15.4296,0.9872 -16.2972,-0.0329 -16.4871,-0.0588 -20.45,-2.79028 z"
         id="path3004"
         inkscape:connector-curvature="0"
         sodipodi:nodetypes="ssscssccssccsscscsssscccsssssssssssssssssscssssssssssscccscssssssssscsscsssssscsssscscssssssscssssscsscsscssssscsssssssccscssscsssssscccscsscsscscscccssscsscscscsssssccscssscsssscsssscssss" />
    </g>
  </g>
</svg>
