<?xml version="1.0" encoding="UTF-8" standalone="no"?>
<svg
   xmlns:dc="http://purl.org/dc/elements/1.1/"
   xmlns:cc="http://creativecommons.org/ns#"
   xmlns:rdf="http://www.w3.org/1999/02/22-rdf-syntax-ns#"
   xmlns:svg="http://www.w3.org/2000/svg"
   xmlns="http://www.w3.org/2000/svg"
   version="1.1"
   id="svg2"
   viewBox="0 0 89.999985 19.229885"
   width="269.999955">
  <defs
     id="defs4" />
  <metadata
     id="metadata7">
    <rdf:RDF>
      <cc:Work
         rdf:about="">
        <dc:format>image/svg+xml</dc:format>
        <dc:type
           rdf:resource="http://purl.org/dc/dcmitype/StillImage" />
        <dc:title></dc:title>
      </cc:Work>
    </rdf:RDF>
  </metadata>
  <g
     transform="translate(-200.47378,-527.23905)"
     id="layer1">
    <g
       style="fill:#000000;fill-opacity:1"
       transform="matrix(0.14269646,0,0,0.14269646,100.02025,569.52796)"
       id="g2996">
      <path
         id="path3004"
         d="m 1096.5781,-161.91185 c 1.0657,-0.15608 2.2313,-0.44095 2.5902,-0.63305 0.359,-0.19211 2.0481,-0.34928 3.7537,-0.34928 1.7055,0 3.6846,-0.17484 4.3978,-0.38853 1.9185,-0.5748 2.1595,-2.14968 0.4483,-2.92938 -1.1991,-0.54634 -1.0183,-1.12033 0.6753,-2.14328 1.4701,-0.88798 1.5015,-0.94402 1.6011,-2.86271 l 0.1017,-1.957 3.8764,-0.23126 c 2.979,-0.17771 4.9954,-0.54238 8.71,-1.57522 2.6586,-0.73919 4.9338,-1.44408 5.0562,-1.56643 0.1224,-0.12235 0.2407,-0.875 0.263,-1.67254 0.049,-1.74716 0.2914,-2.20174 1.1754,-2.20174 0.3687,0 1.4974,-0.52902 2.5082,-1.17559 l 1.8377,-1.17559 0,-5.07095 c 0,-4.19655 -0.087,-5.1044 -0.5056,-5.26496 -0.2781,-0.10672 -0.5056,-0.38513 -0.5056,-0.61871 0,-0.54842 12.0135,-4.67673 20.309,-6.97897 3.6882,-1.02358 6.3202,-1.92144 6.3202,-2.156 0,-0.54633 -1.1257,-0.80657 -3.5393,-0.81822 -1.1124,-0.005 -2.222,-0.13627 -2.4658,-0.29089 -0.5174,-0.32807 2.9689,-0.71378 6.4842,-0.71739 1.4799,-0.002 2.5276,-0.17021 2.8652,-0.46132 0.9236,-0.79657 13.9794,-2.13019 17.0716,-1.74384 2.6567,0.33193 20.1763,-2.28192 22.8987,-3.41639 2.1737,-0.90578 12.0836,-2.81523 22.4424,-4.3242 3.4151,-0.49748 6.816,-1.10202 7.5576,-1.34341 1.2102,-0.39394 1.3656,-0.57209 1.5169,-1.73899 0.1618,-1.24822 0.2223,-1.30303 1.5168,-1.37388 0.7416,-0.0406 5.4438,-0.23336 10.4495,-0.42841 5.0056,-0.19504 11.9831,-0.65904 15.5056,-1.03113 3.5224,-0.37208 7.4663,-0.75042 8.764,-0.84075 3.5089,-0.24423 10.9542,-1.15054 12.3034,-1.49768 0.6489,-0.16696 3.0394,-0.49123 5.3122,-0.7206 3.6897,-0.37238 4.2567,-0.3578 5.2924,0.13607 1.0292,0.4908 2.3678,0.53046 11.8788,0.352 8.0511,-0.15108 11.0544,-0.0974 12.0671,0.21586 1.89,0.5845 12.9868,0.88535 13.9352,0.37779 1.0093,-0.54013 0.9493,-1.89047 -0.1149,-2.58777 -1.3754,-0.9012 -1.0389,-1.37658 1.1495,-1.62418 2.2568,-0.25532 2.9703,-0.79949 2.4132,-1.84044 -0.4413,-0.82467 -0.468,-2.75081 -0.053,-3.84204 0.4769,-1.2542 -0.072,-1.73453 -2.2035,-1.92673 -2.2203,-0.20025 -2.6388,-0.74582 -1.1591,-1.51101 1.1714,-0.60577 1.3936,-1.82202 0.4717,-2.58221 -0.8537,-0.70396 -10.6563,-0.54419 -14.1381,0.23044 -2.3549,0.52392 -3.8355,0.56555 -12.9964,0.36541 -10.1809,-0.22243 -10.3575,-0.2148 -11.5685,0.49974 -1.1816,0.69717 -1.3711,0.70982 -4.8312,0.32265 -1.9808,-0.22163 -4.739,-0.61436 -6.1295,-0.87273 -2.4424,-0.45385 -10.4121,-1.40476 -12.1348,-1.44788 -2.9603,-0.0741 -12.4668,-1.29745 -17.0225,-2.19056 -4.4706,-0.87644 -6.4885,-1.08787 -11.7959,-1.23597 l -6.4026,-0.17866 -0.5823,-1.2383 c -0.3202,-0.68107 -0.7366,-1.33371 -0.9253,-1.45032 -0.1887,-0.11661 -1.8802,-0.50999 -3.7588,-0.87416 -1.8786,-0.36418 -3.5866,-0.76774 -3.7954,-0.89681 -0.2089,-0.12907 -0.7874,-0.19191 -1.2857,-0.13964 -0.4983,0.0523 -1.1958,-0.0601 -1.55,-0.24959 -0.7669,-0.41047 -3.6085,-0.92219 -8.668,-1.561 -7.3697,-0.93047 -26.4213,-4.4787 -27.8907,-5.19444 -0.7893,-0.38446 -2.7187,-0.99883 -4.2873,-1.36527 -2.4606,-0.57475 -2.9496,-0.60248 -3.5609,-0.2019 -0.6092,0.39912 -1.2028,0.37391 -4.2265,-0.17944 -4.6925,-0.85876 -7.2476,-1.12756 -20.5402,-2.16081 -10.7541,-0.83593 -14.1573,-1.282 -14.1573,-1.85562 0,-0.14146 0.2108,-0.33812 0.4685,-0.43701 0.2577,-0.0989 0.6952,-0.634 0.9721,-1.18912 0.4899,-0.98202 0.4795,-1.01543 -0.3843,-1.23496 l -0.8878,-0.22563 1.2739,-0.65686 c 0.7006,-0.36127 3.9182,-1.63692 7.1502,-2.83478 4.6277,-1.71513 6.2754,-2.17794 7.7539,-2.17794 1.9979,0 4.5502,-0.83127 4.0222,-1.31004 -0.622,-0.56394 -2.6414,-1.04951 -4.3648,-1.04951 -1.3311,0 -3.3163,-0.56347 -8.1366,-2.3094 -3.5068,-1.27017 -6.7157,-2.49126 -7.1311,-2.71354 -0.8772,-0.46946 -0.6855,-1.02259 0.3792,-1.09403 1.8427,-0.12365 -3.7435,-0.55515 -7.6125,-0.58802 -4.2999,-0.0365 -4.3066,-0.0378 -4.6354,-0.90267 -0.1811,-0.47635 -0.2377,-1.23097 -0.1258,-1.67694 0.1597,-0.6364 0.033,-0.88303 -0.5893,-1.14637 -1.9448,-0.82298 -10.1437,-2.78809 -12.5906,-3.0177 -1.9185,-0.18001 -2.5021,-0.33356 -2.0225,-0.53207 0.3708,-0.15347 0.9017,-0.47167 1.1798,-0.70711 0.5431,-0.45982 7.1108,-0.63817 11.7933,-0.32024 2.9593,0.20092 3.7123,0.0283 3.7123,-0.8509 0,-0.87213 -1.2195,-1.13425 -3.8044,-0.81771 -1.152,0.14107 -4.0664,0.22955 -6.4765,0.19662 -4.1606,-0.0568 -6.236,-0.42201 -6.236,-1.09724 0,-0.1675 -0.4171,-0.45503 -0.9269,-0.63898 -3.2042,-1.15606 -3.41,-1.32752 -3.3464,-2.78768 0.082,-1.8881 -0.6946,-2.2431 -4.9227,-2.24948 -2.3855,-0.004 -3.8459,-0.18982 -5.2818,-0.67355 -2.5702,-0.86583 -11.6779,-1.33661 -13.598,-0.7029 -1.1163,0.3684 -1.25,0.53525 -1.25,1.55974 0,0.93346 0.1525,1.18549 0.8183,1.3526 0.8342,0.20936 1.3893,1.00157 0.9096,1.29803 -0.5448,0.33674 -4.9647,0.27196 -5.8502,-0.0858 -0.6025,-0.24336 -4.9403,-0.38378 -12.565,-0.40675 l -11.6449,-0.0351 -3.0249,1.94474 c -1.6637,1.06961 -3.0249,2.04789 -3.0249,2.17396 0,0.61665 1.0871,2.72139 1.4844,2.87383 0.5094,0.19548 2.5605,2.9394 2.5605,3.42539 0,0.18126 -3.2075,0.39399 -7.533,0.49963 -8.874,0.21672 -9.658,0.42538 -9.658,2.57024 0,0.87995 0.2243,1.49066 0.7086,1.92955 0.6372,0.57736 1.442,0.65913 7.9782,0.81067 5.3933,0.12504 7.3056,0.27729 7.4093,0.58989 0.086,0.25795 -0.1702,0.42135 -0.6596,0.42135 -0.4398,0 -1.3946,0.30337 -2.1219,0.67415 -0.902,0.4599 -1.9878,0.67416 -3.4162,0.67416 -1.874,0 -2.2563,0.12395 -3.6395,1.17978 -0.8501,0.64887 -1.9284,1.17977 -2.3962,1.17977 -0.4679,0 -1.3988,0.22904 -2.0688,0.50898 -1.1747,0.49081 -1.1972,0.53213 -0.6309,1.15784 0.5242,0.57925 0.5824,1.4525 0.5423,8.13898 -0.025,4.11956 -0.1241,7.6182 -0.2209,7.77474 -0.097,0.15655 -18.4488,0.28463 -40.78231,0.28463 l -40.60641,0 -0.30853,-0.81147 c -0.2037,-0.53577 -0.68761,-0.89556 -1.42422,-1.05894 -0.61366,-0.1361 -37.17061,-0.23193 -81.23764,-0.21295 -79.27608,0.0341 -80.12414,0.0275 -80.33147,-0.62568 -0.41077,-1.29419 -3.05714,-1.28531 -8.09174,0.0272 -2.36866,0.61749 -3.25585,0.67469 -7.40994,0.47777 -4.41498,-0.20929 -4.82261,-0.28667 -6.32528,-1.20082 -1.38114,-0.84019 -1.94811,-0.97711 -4.04636,-0.97711 -2.42282,0 -2.45457,0.0118 -4.46123,1.65424 -2.33393,1.91033 -0.72907,1.23921 -34.71769,14.51797 l -23.93258,9.35003 0,4.81181 0,4.81181 2.5199,0.88212 c 2.45336,0.85884 2.52138,0.91293 2.57646,2.04845 0.0764,1.5746 1.39709,2.71009 3.15209,2.71009 0.71541,0 3.25941,0.69157 5.65335,1.53683 l 4.35259,1.53683 -0.13456,1.91822 c -0.18,2.56617 -0.18162,2.56948 -1.59371,3.23955 -1.15213,0.54672 -1.20202,0.6325 -0.76638,1.31714 0.25632,0.40278 1.89668,3.05515 3.64527,5.89415 l 3.17926,5.16182 37.24719,-0.19356 c 91.58629,-0.47594 101.9643,-0.55571 102.18296,-0.78541 0.12752,-0.13395 0.28264,-0.62276 0.34467,-1.08624 l 0.11282,-0.8427 8.5955,0.0918 c 39.94031,0.42658 64.27692,0.43342 78.8764,0.0221 9.49278,-0.2674 29.79674,-0.45103 49.87239,-0.45103 l 33.8613,0 0.1837,0.71231 c 0.101,0.39177 1.7023,1.93241 3.5583,3.42363 3.3,2.65136 5.5354,5.29116 4.9643,5.86229 -0.1574,0.15734 -1.2392,0.18645 -2.4041,0.0647 -1.9845,-0.20743 -2.152,-0.29252 -2.6562,-1.35002 -0.2961,-0.62075 -0.6248,-1.12864 -0.7306,-1.12864 -0.1058,0 -0.4141,0.49298 -0.6851,1.09551 -0.6969,1.54953 -0.5656,4.48849 0.2875,6.43244 0.4032,0.91907 0.7148,2.33516 0.7148,3.24917 0,2.61609 0.54,3.00183 4.5596,3.25706 2.7985,0.17769 3.9073,0.0908 6.4463,-0.50529 3.5857,-0.84184 3.4885,-0.83268 3.4885,-0.32856 0,0.47389 -3.5099,5.23751 -4.5548,6.1817 -0.4102,0.37078 -0.9442,1.18495 -1.1866,1.80926 -0.5168,1.33136 -0.5882,1.25705 3.7446,3.89526 l 2.7257,1.65957 11.349,0.2251 c 11.0238,0.21865 11.3706,0.20586 12.0989,-0.44624 0.5997,-0.53694 1.1734,-0.65947 2.8652,-0.61203 3.4249,0.096 4.1888,0.67977 2.1747,1.66163 -1.258,0.61322 -1.2808,2.29815 -0.038,2.77084 1.0293,0.39135 9.276,0.36581 12.028,-0.0372 z m 41.3771,-103.75005 c 0,-0.56129 0.8498,-0.99405 3.0337,-1.54478 1.2396,-0.31262 2.4422,-0.84818 2.7696,-1.23338 0.3839,-0.45172 0.8944,-0.64458 1.5169,-0.5731 1.8093,0.20778 0.9621,1.00627 -2.4326,2.29288 -3.3849,1.28289 -4.8876,1.60829 -4.8876,1.05838 z m -2.8652,-6.72335 c -1.0461,-0.72105 -1.3727,-1.18144 -1.4571,-2.05414 -0.1461,-1.50969 0.2743,-1.86713 1.6764,-1.42535 6.3166,1.99022 11.5945,3.80685 11.8749,4.08727 0.2339,0.2339 -1.4304,0.34038 -5.201,0.33276 -5.4934,-0.0111 -5.5574,-0.0198 -6.8932,-0.94054 z"
         style="fill:#000000;fill-opacity:1" />
    </g>
  </g>
</svg>
