<?xml version="1.0" encoding="UTF-8" standalone="no"?>
<!-- Created with Inkscape (http://www.inkscape.org/) -->

<svg
   xmlns:dc="http://purl.org/dc/elements/1.1/"
   xmlns:cc="http://creativecommons.org/ns#"
   xmlns:rdf="http://www.w3.org/1999/02/22-rdf-syntax-ns#"
   xmlns:svg="http://www.w3.org/2000/svg"
   xmlns="http://www.w3.org/2000/svg"
   xmlns:sodipodi="http://sodipodi.sourceforge.net/DTD/sodipodi-0.dtd"
   xmlns:inkscape="http://www.inkscape.org/namespaces/inkscape"
   width="99.473579"
   height="21.948759"
   id="svg2"
   version="1.1"
   inkscape:version="0.48.5 r10040"
   sodipodi:docname="Cutlass.svg">
  <defs
     id="defs4" />
  <sodipodi:namedview
     id="base"
     pagecolor="#ffffff"
     bordercolor="#666666"
     borderopacity="1.0"
     inkscape:pageopacity="0.0"
     inkscape:pageshadow="2"
     inkscape:zoom="11.2"
     inkscape:cx="61.194068"
     inkscape:cy="8.4395523"
     inkscape:document-units="px"
     inkscape:current-layer="layer1"
     showgrid="false"
     fit-margin-top="0"
     fit-margin-left="0"
     fit-margin-right="0"
     fit-margin-bottom="0"
     inkscape:window-width="1920"
     inkscape:window-height="1018"
     inkscape:window-x="-8"
     inkscape:window-y="-8"
     inkscape:window-maximized="1"
     showguides="true"
     inkscape:guide-bbox="true" />
  <metadata
     id="metadata7">
    <rdf:RDF>
      <cc:Work
         rdf:about="">
        <dc:format>image/svg+xml</dc:format>
        <dc:type
           rdf:resource="http://purl.org/dc/dcmitype/StillImage" />
        <dc:title />
      </cc:Work>
    </rdf:RDF>
  </metadata>
  <g
     inkscape:label="Layer 1"
     inkscape:groupmode="layer"
     id="layer1"
     transform="translate(535.45888,-727.42155)">
    <g
       id="g2996"
       transform="matrix(0.05407829,0,0,0.05407829,-506.3187,774.97567)">
      <path
         style="fill:#000000"
         d="m 960.64823,-474.88521 c -2.475,-0.69961 -27.675,-11.67056 -56,-24.37988 l -51.5,-23.10785 -12.5,0.94829 c -19.8335,1.50463 -93.0719,5.71958 -147.00001,8.46001 -97.5865,4.95899 -119.8674,5.42786 -144,3.03029 -21.1407,-2.10033 -21.5185,-2.07665 -22.9752,1.44016 l -1.2179,2.94015 -26.6534,0.36064 c -14.6594,0.19835 -53.0785,0.45693 -85.37563,0.57463 l -58.72213,0.214 -2.10297,-4.12215 -2.10296,-4.12215 -13.17491,0.807 c -7.24619,0.44386 -71.2249,0.85583 -142.1749,0.9155 -86.49413,0.0727 -134.272049,0.48867 -144.999999,1.26231 -8.8,0.6346 -35.54542,1.17094 -59.4342795,1.19186 -40.5743205,0.0355 -43.7019805,0.16347 -47.5000005,1.94274 -3.12181,1.46249 -7.43754,2.05973 -18.58917,2.57249 l -14.52344,0.6678 -12.937251,-9.46026 c -7.11548,-5.20314 -13.42426,-9.27336 -14.01951,-9.04494 -1.42048,0.54508 -31.80708,-22.24762 -32.63172,-24.47676 -0.34946,-0.94462 -3.49946,-4.2234 -7,-7.28616 -5.7229,-5.00718 -7.67539,-6.00395 -19.36463,-9.88587 -18.21637,-6.04955 -37.94704,-15.63249 -42.95295,-20.8617 -2.17412,-2.27111 -4.22458,-4.12929 -4.55659,-4.12929 -0.332,0 -2.76911,2.01658 -5.41579,4.48129 -16.14752,15.03727 -40.31575,16.47584 -57.48373,3.4216 -4.81822,-3.66369 -5.8013,-4.03423 -9,-3.3923 -1.97502,0.39636 -4.71594,0.78112 -6.09094,0.85503 -1.375,0.0739 -3.52224,1.15662 -4.77164,2.40602 -2.24183,2.24183 -2.25036,2.34487 -0.64998,7.84998 0.89192,3.06808 1.23916,5.94721 0.77164,6.39807 -1.20454,1.16162 -12.5321,3.98581 -13.52513,3.37209 -0.45369,-0.2804 -0.82489,-1.15826 -0.82489,-1.9508 0,-2.14097 -1.06125,-1.77395 -4.49558,1.55474 -3.02703,2.9339 -4.10586,3.26285 -18.25442,5.56589 -1.7875,0.29096 -3.25,1.1302 -3.25,1.86499 0,1.116 -6.70758,3.5734 -9.75377,3.5734 -0.47747,0 -1.44479,-2.25 -2.14959,-5 -1.3015,-5.0782 -2.41875,-6.20893 -3.45827,-3.5 -0.80588,2.10009 -7.22863,2.01016 -8.04321,-0.11262 -0.44934,-1.17094 -0.9648,-1.3255 -1.88199,-0.56429 -2.12619,1.76458 -11.49443,2.60334 -13.20654,1.18242 -1.08369,-0.89939 -1.50663,-0.92626 -1.50663,-0.0957 0,1.66939 -4.2488,3.06217 -5.72212,1.87575 -0.83597,-0.67319 -1.72746,-0.47881 -2.82143,0.61516 -1.83892,1.83892 -3.07464,2.0261 -3.95645,0.59931 -0.96511,-1.56159 -2.5,-1.17428 -2.5,0.63084 0,1.30534 -0.69857,1.51748 -3.5,1.06287 -2.16972,-0.35209 -3.5,-0.16205 -3.5,0.5 0,0.66206 -1.33028,0.8521 -3.5,0.5 -1.925,-0.31238 -3.5,-0.19874 -3.5,0.25253 0,1.51624 -3.64,1.79017 -5.52009,0.41541 -1.02419,-0.74891 -2.81631,-1.36165 -3.98248,-1.36165 -2.1892,0 -6.49743,-3.34116 -6.49743,-5.03896 0,-0.52857 -0.6401,-0.96104 -1.42245,-0.96104 -1.64196,0 -2.05841,-1.20005 -7.57765,-21.83618 -2.6621,-9.95347 -3.77257,-15.74467 -3.16388,-16.5 0.51582,-0.6401 1.24336,-3.01759 1.61676,-5.28331 0.49814,-3.02256 1.32707,-4.41481 3.11307,-5.22856 1.33878,-0.60999 2.43415,-1.7634 2.43415,-2.56312 0,-1.60424 3.41985,-3.06542 4.95458,-2.1169 0.53486,0.33056 1.919,-0.34551 3.07586,-1.50237 1.67313,-1.67313 2.39653,-1.8601 3.53647,-0.91403 1.13621,0.94297 1.43309,0.87742 1.43309,-0.31645 0,-1.8612 3.95634,-3.02021 5.61387,-1.64458 0.8781,0.72876 1.409,0.4088 1.9027,-1.14672 0.55881,-1.76064 1.21809,-2.05085 3.5841,-1.57765 2.06075,0.41215 2.89933,0.18699 2.89933,-0.7785 0,-1.65444 3.2866,-2.65057 5.08271,-1.54051 0.85767,0.53007 1.67309,0.0659 2.38195,-1.35596 0.59282,-1.18907 2.41828,-2.56833 4.05659,-3.06502 1.63831,-0.49669 3.65375,-1.13583 4.47875,-1.4203 0.825,-0.28447 2.32904,-0.41273 3.3423,-0.28503 1.40796,0.17744 1.69664,-0.22675 1.22447,-1.71442 -0.86916,-2.7385 4.69981,-5.14951 7.64539,-3.30997 1.09043,0.68099 2.06618,1.09448 2.16834,0.91887 2.53609,-4.35947 2.82646,-5.96235 1.80743,-9.97702 -0.59719,-2.35275 -0.96347,-4.40007 -0.81395,-4.54958 0.14952,-0.14952 1.70154,-0.55779 3.44894,-0.90727 2.52671,-0.50535 3.17708,-0.30277 3.17708,0.98958 0,2.23285 1.05247,2.07486 9.15952,-1.375 3.87745,-1.65 8.12778,-3 9.44519,-3 1.72862,0 2.39529,-0.55665 2.39529,-2 0,-1.1 0.6382,-2 1.41821,-2 0.78002,0 2.10255,-0.2626 2.93896,-0.58356 1.12205,-0.43057 1.80902,0.48702 2.62033,3.5 0.65915,2.44789 1.69356,4.08356 2.58248,4.08356 0.81559,0 2.01294,1.16331 2.66077,2.58514 1.00466,2.205 1.62646,2.49518 4.22856,1.97341 8.32679,-1.6697 10.59895,-1.76339 12.12149,-0.49979 1.25146,1.03862 1.74205,1.05307 2.3501,0.0692 0.60676,-0.98176 2.7445,-0.90056 10.159,0.38587 5.1648,0.89611 9.6682,2.07856 10.00757,2.62766 0.33936,0.54911 1.77757,-0.38085 3.19601,-2.06657 1.42628,-1.69504 3.18988,-2.83053 3.94575,-2.54048 0.75172,0.28846 2.4468,-0.62517 3.76685,-2.03029 l 2.40008,-2.55477 -6.92126,-6.97471 -6.92126,-6.9747 -15.08973,0 -15.08973,0 -2.87418,3 c -4.04901,4.22625 -9.5973,4.22625 -13.15345,0 l -2.52434,-3 -16.28866,0 c -11.81148,0 -16.57355,0.34358 -17.32512,1.25 -1.02727,1.23893 -7.70258,1.58918 -8.82853,0.46323 -0.32205,-0.32205 -1.77678,-0.12012 -3.23272,0.44872 -4.15456,1.6232 -32.12373,0.0617 -39.01177,-2.17803 -3.09948,-1.00782 -7.2848,-2.13442 -9.30072,-2.50356 -2.01593,-0.36914 -4.71593,-1.79759 -6,-3.17434 l -2.33469,-2.50317 5.75136,0.34858 c 3.16325,0.19171 5.75075,0.0375 5.75,-0.34279 -7.5e-4,-0.38025 -2.70136,-2.13044 -6.00136,-3.88932 -6.45251,-3.43916 -7.36973,-5.36975 -4,-8.41932 2.61893,-2.3701 2.61893,-7.8977 0,-11.22713 -3.73276,-4.74543 -2.83537,-5.83691 6.25,-7.60173 6.55138,-1.2726 11.80166,-1.47528 25.5,-0.98441 l 17.25,0.61814 0,-4.15244 0,-4.15243 -18.25,-0.0316 -18.25,-0.0316 -7,-3.71838 c -7.88967,-4.19098 -8.96912,-6.34646 -5.56932,-11.12103 2.79938,-3.93137 2.83484,-12.42156 0.0693,-16.59736 -3.49926,-5.28371 -2.7895,-6.67078 5.51654,-10.78071 l 7.51657,-3.71929 17.98345,0 17.98346,0 0,-4 0,-4 -19.25,-0.0436 c -22.07324,-0.05 -31.07782,-1.34847 -31.54402,-4.54853 -0.16171,-1.11 0.62579,-2.85061 1.75,-3.868 1.45496,-1.31672 2.04402,-3.08894 2.04402,-6.14951 0,-4.87452 0.25271,-4.76503 -13.42286,-5.81556 -5.62836,-0.43236 -7.42008,-1.00817 -9.58196,-3.07939 l -2.6591,-2.54758 -2.67487,2.10405 c -4.77329,3.75467 -7.48019,2.15976 -15.02031,-8.84997 -7.76404,-11.33672 -8.32912,-14.20442 -3.3909,-17.20818 l 3.25,-1.97686 -13,0.55958 c -7.15,0.30777 -17.71486,0.95162 -23.47746,1.43077 -5.7626,0.47916 -10.67366,0.675 -10.91345,0.4352 -0.2398,-0.2398 -0.47494,-2.34994 -0.52254,-4.68921 l -0.0865,-4.25321 12.5,-0.77924 c 6.875,-0.42858 32.3,-2.11711 56.5,-3.7523 24.2,-1.63519 48.05,-3.22877 53,-3.54128 4.95,-0.31252 11.025,-0.72384 13.5,-0.91406 2.475,-0.19021 32.4,-2.45965 66.5,-5.04319 l 62,-4.69735 54.5,3.0784 c 29.975,1.69312 58.325,3.06759 63,3.05438 11.0375,-0.0312 72.568491,3.7962 81.000001,5.03842 3.575,0.5267 15.95,1.44697 27.5,2.04504 11.55,0.59806 41.4750005,2.21819 66.5,3.60028 42.02067,2.32072 56.0527,2.58455 183.499999,3.45018 148.24513,1.00689 180.72115,1.80625 200.5,4.93505 10.9531,1.73266 54.6587,12.35104 55.8851,13.57741 0.2509,0.25088 -0.5974,1.5776 -1.8851,2.94826 -2.694,2.86765 -2.8533,2.57135 2.9579,5.50345 2.9447,1.48583 4.586,1.86486 4.8354,1.11669 0.2076,-0.62293 0.7381,-0.90975 1.1788,-0.63738 0.4407,0.27237 1.3574,-0.17483 2.037,-0.99377 1.0493,-1.26428 0.7672,-1.48899 -1.8693,-1.48899 l -3.105,0 0.1724,-8.10643 c 0.2277,-10.70565 1.286,-12.00791 12.5509,-15.44391 8.7881,-2.68054 21.5615,-8.53978 22.7265,-10.42476 0.8308,-1.34417 -8.9236,-1.33512 -17.4846,0.0162 -7.5599,1.19331 -14.3658,3.25097 -21.7796,6.58478 -2.9038,1.30576 -6.3163,2.37411 -7.5833,2.37411 -4.0933,0 -14.1154,-2.30306 -14.8718,-3.41754 -1.1917,-1.75579 -0.871,-21.25628 0.3952,-24.03541 1.1286,-2.47687 1.4302,-2.54705 10.9484,-2.54705 7.7903,0 11.4821,-0.5358 18.0895,-2.62534 8.0135,-2.53424 8.8568,-2.60211 24.3016,-1.95585 8.8,0.36823 18.0856,0.92572 20.6346,1.23887 l 4.6346,0.56936 4.2858,-5.80153 c 2.3572,-3.19085 4.9255,-7.0836 5.7072,-8.65057 2.2802,-4.57091 5.7532,-6.35194 9.6433,-4.94529 4.5646,1.6506 14.6586,1.43643 17.0356,-0.36145 2.4678,-1.86657 5.2945,-1.85454 8.9232,0.038 2.0062,1.04631 5.9862,1.49384 13.2852,1.49384 7.1949,0 11.1065,0.43225 12.6357,1.39629 2.0255,1.27697 15.0355,2.58645 29.465,2.96571 3.46,0.0909 5.2501,0.56422 5.25,1.388 -10e-5,0.91229 2.5664,1.25 9.4998,1.25 8.8222,0 9.5,0.14219 9.5,1.99301 0,1.96853 0.8318,1.99617 67.69871,2.25 l 67.6988,0.25699 0.1468,2.75 0.1468,2.75 -9.2865,0 c -8.4383,0 -11.8159,0.92204 -10.0063,2.7316 0.3292,0.32919 4.74,0.86176 9.8019,1.18347 9.1865,0.58386 9.2037,0.58998 9.3472,3.33493 l 0.1437,2.75 -52.182,0 c -58.39981,0 -124.53131,1.01595 -124.46681,1.91214 0.023,0.32332 1.4858,1.51781 3.25,2.65441 1.7642,1.1366 8.2234,5.5241 14.3538,9.75 6.1303,4.2259 12.1078,7.68345 13.2833,7.68345 1.1755,0 3.6973,1.56 5.6039,3.46667 3.2915,3.29144 3.4667,3.81846 3.4667,10.42667 0,5.81958 -0.2867,7.02123 -1.75,7.33364 -1.3416,0.28642 -0.9915,0.77631 1.5,2.099 1.7875,0.94896 3.25,2.16382 3.25,2.6997 0,0.54582 -3.2985,0.97432 -7.5,0.97432 -4.3333,0 -7.5,0.42222 -7.5,1 0,0.55 1.575,1 3.5,1 2.8333,0 3.5,0.38095 3.5,2 0,1.1 0.1518,2 0.3372,2 0.1855,0 6.373,1.11222 13.75,2.47159 7.3771,1.35938 23.0878,3.82681 34.9128,5.48318 11.825,1.65638 22.55481,3.18985 23.84411,3.40773 1.8654,0.31524 2.5565,-0.21322 3.3844,-2.58808 l 1.0403,-2.98421 7.1156,0.70132 c 3.9136,0.38573 10.7156,1.22043 15.1156,1.8549 l 8,1.15357 0.3108,3.2161 c 0.2719,2.81302 0.7732,3.31385 4,3.99608 5.9223,1.25212 64.8358,0.90695 100.6892,-0.58993 26.4271,-1.10333 33.3421,-1.67609 34.7176,-2.87563 2.5315,-2.20772 76.6569,0.0455 78.4489,2.38469 0.6416,0.83748 1.9916,1.40703 3,1.26568 2.9236,-0.40982 14.3335,1.22367 14.3335,2.05204 0,0.41397 30.26252,0.99807 67.25002,1.29802 63.7338,0.51685 67.6683,0.65341 75.25,2.61187 6.2443,1.61298 25.1178,10.70387 86,41.42403 l 78,39.35753 6.5,12.80674 6.5,12.80675 0.3304,39.33113 c 0.3171,37.7501 0.4075,39.35563 2.25,39.94041 2.2969,0.72902 2.4911,2.04123 0.4196,2.83612 -0.9901,0.37993 -1.5,1.94602 -1.5,4.60699 l 0,4.03138 -8.9167,0 c -4.9041,0 -9.0666,-0.4202 -9.25,-0.93378 -0.2031,-0.56914 -27.8633,0.0311 -70.8333,1.53703 -38.775,1.35894 -86.3602,2.63645 -105.7449,2.8389 l -35.245,0.36809 -0.255,41.34488 -0.2551,41.34488 -4.2703,5.73484 c -6.8872,9.24909 -3.9574,8.77776 -53.93,8.67574 -32.18292,-0.0657 -44.99322,-0.42679 -48.29972,-1.36144 z"
         id="path2998"
         inkscape:connector-curvature="0" />
    </g>
  </g>
</svg>
