<?xml version="1.0" encoding="UTF-8" standalone="no"?>
<svg
   xmlns:dc="http://purl.org/dc/elements/1.1/"
   xmlns:cc="http://creativecommons.org/ns#"
   xmlns:rdf="http://www.w3.org/1999/02/22-rdf-syntax-ns#"
   xmlns:svg="http://www.w3.org/2000/svg"
   xmlns="http://www.w3.org/2000/svg"
   version="1.1"
   id="svg2"
   viewBox="0 0 28.999994 8.3290581"
   width="86.999982">
  <defs
     id="defs4" />
  <metadata
     id="metadata7">
    <rdf:RDF>
      <cc:Work
         rdf:about="">
        <dc:format>image/svg+xml</dc:format>
        <dc:type
           rdf:resource="http://purl.org/dc/dcmitype/StillImage" />
        <dc:title></dc:title>
      </cc:Work>
    </rdf:RDF>
  </metadata>
  <g
     transform="translate(952.6217,-802.33126)"
     id="layer1">
    <g
       transform="matrix(0.01236389,0,0,0.01236389,-981.42098,787.82577)"
       id="g4147">
      <path
         id="path4159"
         d="m 4340.9944,1835.4447 -24.0292,-11.3273 -2.2208,-6.9871 -2.2206,-6.9871 -45.625,-25.4036 c -25.0937,-13.972 -50.6197,-27.9484 -56.7243,-31.0587 l -11.0994,-5.655 -16.4006,0.5484 c -9.0204,0.3016 -18.7912,1.3038 -21.7131,2.227 -4.3041,1.3601 -6.3209,1.3851 -10.625,0.132 -2.9219,-0.8507 -10.5988,-2.6829 -17.0596,-4.0716 -6.461,-1.3887 -13.3238,-3.3402 -15.2505,-4.3366 -2.9939,-1.5482 -22.4772,-1.8116 -133.9967,-1.8116 -122.7218,0 -130.6065,0.1303 -132.3941,2.1875 -1.0455,1.2032 -2.2425,3.6312 -2.66,5.3958 -1.3146,5.5556 -5.6077,6.8062 -14.1186,4.1126 -6.0931,-1.9284 -7.4061,-2.8493 -7.7653,-5.4459 -0.861,-6.2238 -1.0011,-6.25 -33.483,-6.25 -29.3382,0 -30.566,0.098 -32.6595,2.5985 -1.1963,1.4291 -3.5972,3.3478 -5.3353,4.2636 -1.738,0.9159 -24.8005,6.8559 -51.25,13.2001 -42.7019,10.2425 -49.7005,11.5962 -62.4649,12.0824 -12.3156,0.4691 -180.476,-9.0335 -313.75,-17.7296 -15.4688,-1.0094 -48.375,-2.9965 -73.125,-4.4159 -47.3381,-2.7148 -54.6232,-3.6574 -58.8601,-7.6159 -2.4308,-2.2711 -4.2763,-2.4152 -26.875,-2.0984 l -24.2649,0.3402 -0.383,3.3076 c -0.2106,1.8191 -1.4763,4.297 -2.8125,5.5062 -2.0407,1.8468 -2.4295,3.8883 -2.4295,12.755 0,10.2511 -0.1174,10.6725 -4.0625,14.5789 -2.8213,2.7938 -7.3086,5.0665 -14.6875,7.4391 l -10.625,3.4163 -73.75,-0.4003 -73.75,-0.4004 -8.75,-3.5598 c -12.6936,-5.1642 -14.3611,-7.6023 -14.3688,-21.0092 -0.01,-9.6429 -0.3039,-11.0752 -2.6502,-12.7185 -1.4542,-1.0186 -3.6959,-3.5817 -4.9816,-5.6959 -2.2945,-3.7731 -2.5208,-3.844 -12.2653,-3.844 -8.837,0 -10.1779,-0.3133 -12.2059,-2.8519 -4.4153,-5.5273 -22.1972,-8.0557 -26.8759,-3.8215 -2.26,2.0452 -5.0371,3.8072 -10.8616,6.8915 -2.6099,1.382 -3.2363,1.225 -5.3042,-1.3287 -1.6089,-1.9869 -2.0925,-3.9008 -1.5411,-6.0981 0.7012,-2.7937 0.5008,-3.072 -1.5708,-2.1813 -1.306,0.5615 -4.3434,1.2898 -6.7496,1.6184 -2.4063,0.3286 -6.2227,2.2117 -8.481,4.1846 -5.0218,4.3871 -6.9,4.4468 -14.7447,0.4685 -4.2785,-2.1698 -7.3004,-2.904 -9.9329,-2.4133 -4.9736,0.9273 -9.2578,-2.4579 -14.3295,-11.3223 -3.0522,-5.3347 -13.2966,-15.3105 -47.8849,-46.6297 -24.2011,-21.9136 -44.7549,-40.7589 -45.6751,-41.8784 -1.0455,-1.2719 -1.3741,-3.3965 -0.876,-5.6641 0.7097,-3.2314 -0.031,-4.4239 -6.7645,-10.8918 -4.1588,-3.9946 -7.5614,-7.9341 -7.5614,-8.7544 0,-0.8203 -5.0443,-6.0346 -11.2096,-11.5874 -10.5208,-9.4757 -11.4819,-10.0518 -15.6419,-9.3767 -4.325,0.7018 -4.9085,0.2544 -24.1029,-18.4816 -53.1416,-51.8725 -60.6188,-59.3808 -62.2218,-62.4806 -1.797,-3.4752 -19.399,-19.8959 -21.3401,-19.9081 -5.4633,-0.034 -10.8259,-3.0885 -13.8215,-7.8715 -1.8073,-2.8856 -3.8691,-5.6258 -4.5819,-6.0892 -0.7128,-0.4635 -6.0209,-1.5457 -11.7958,-2.4048 -16.1279,-2.3995 -16.3889,-2.7525 -16.8112,-22.7439 l -0.3483,-16.4912 -5,-2.5858 c -4.7524,-2.4578 -5.0187,-2.9071 -5.3778,-9.0713 l -0.3779,-6.4854 -9.8907,0 c -12.1921,0 -12.835,-0.7902 -13.7286,-16.875 l -0.625,-11.25 -5,-0.301 c -19.7985,-1.192 -23.2234,-1.8181 -26.9093,-4.9196 -2.0432,-1.7193 -7.1009,-3.9158 -11.2392,-4.8812 -18.2974,-4.2685 -29.081,-13.9263 -50.4958,-45.2241 -8.1196,-11.8667 -15.3202,-21.9203 -16.0014,-22.3413 -3.6479,-2.2546 -23.8727,-6.7078 -30.4643,-6.7078 -5.802,0 -8.1227,-0.5471 -9.6963,-2.2859 -5.1217,-5.6594 -2.132,-7.005 19.8063,-8.9141 12.3099,-1.0712 34.1823,-4.919 73.75,-12.9739 l 56.25,-11.4511 0.625,-23.125 c 0.8358,-30.9247 -0.2413,-29.3355 19.2043,-28.3363 9.4124,0.4836 22.5248,0.1188 34.5457,-0.9609 18.5515,-1.6664 19.5507,-1.6387 23.5089,0.6534 3.0389,1.7597 6.5408,2.3938 13.2196,2.3938 8.0752,0 9.4122,-0.3475 12.0215,-3.125 2.8861,-3.0721 3.2654,-3.1253 22.4054,-3.1441 10.7083,-0.01 20.1145,-0.4324 20.9027,-0.9375 0.7882,-0.5051 2.073,-3.2994 2.855,-6.2096 0.782,-2.9102 2.3871,-5.7955 3.5668,-6.4118 1.1798,-0.6164 7.7701,-1.5273 14.6451,-2.0243 6.875,-0.497 14.3238,-1.6593 16.553,-2.5829 8.1432,-3.374 30.8523,-3.2667 129.697,0.6127 126.6643,4.9712 160.2862,7.4861 203.125,15.1937 28.3749,5.1053 62.3713,15.8227 92.3683,29.1193 l 12.9933,5.7595 22.0067,0.053 c 16.9176,0.041 29.956,1.0114 56.3817,4.1983 23.2963,2.8095 35.1218,3.7631 36.6923,2.9588 3.1125,-1.5939 77.8479,7.3643 81.6992,9.793 1.5216,0.9595 10.4204,2.6629 19.7751,3.7852 13.5408,1.6247 17.5866,1.7313 19.8437,0.5234 3.8025,-2.0351 121.2075,10.1282 124.3585,12.8836 1.5194,1.3287 13.6831,2.4117 50.1312,4.4636 60.4374,3.4025 68.999,4.2688 74.2476,7.5126 2.2519,1.3918 8.1806,5.861 13.175,9.9317 9.8979,8.0673 13.3539,9.1661 28.4634,9.0501 10.7115,-0.082 16.614,-1.2962 16.614,-3.4171 0,-0.9548 -0.8119,-1.7359 -1.8041,-1.7359 -0.9923,0 -2.5392,-1.0357 -3.4375,-2.3016 -0.8984,-1.2659 -2.899,-2.9732 -4.4459,-3.794 -4.1028,-2.177 -3.9784,-9.6768 0.192,-11.577 4.5552,-2.0754 5.0409,-8.1946 0.8566,-10.7942 -4.7971,-2.9804 -20.497,-15.3602 -22.2986,-17.5832 -1.045,-1.2893 -1.5625,-6.6265 -1.5625,-16.1137 0,-11.4744 0.4539,-15.0723 2.3742,-18.8236 5.5672,-10.8743 26.7409,-46.0185 28.5879,-47.4502 1.5249,-1.1821 12.7028,-1.5625 45.9089,-1.5625 l 43.8932,0 4.2358,3.125 4.2357,3.125 32.7515,0 32.7517,0 22.309,19.6875 22.309,19.6875 38.1341,0.625 38.134,0.625 0,4.375 0,4.375 -17.1253,0.625 c -10.3033,0.376 -17.6912,1.1912 -18.5463,2.0464 -2.5808,2.5811 1.372,3.4547 18.7873,4.1523 l 16.8843,0.6763 0,4.375 0,4.375 -21.5625,0.342 c -11.8594,0.1881 -21.5625,0.8224 -21.5625,1.4094 0,0.5871 0.8437,1.7677 1.875,2.6236 2.8905,2.3988 2.2441,7.9619 -1.9583,16.8563 -2.1082,4.4622 -3.4812,8.6825 -3.0512,9.3784 0.4301,0.6959 2.4734,1.2653 4.5405,1.2653 8.867,0 10.3405,4.0194 6.6574,18.1599 -2.1793,8.3666 -5.844,13.0901 -10.1563,13.0901 -1.5989,0 -2.9071,0.5034 -2.9071,1.1187 0,1.4451 9.6469,2.3803 11.6196,1.1264 2.4885,-1.5817 14.3373,-1.0819 61.0766,2.5764 34.6848,2.7148 45.26,3.9399 47.6768,5.5234 2.4196,1.5854 16.0414,3.1549 61.6787,7.1066 43.1373,3.7353 59.7263,5.6119 62.9483,7.1209 2.4062,1.127 6.625,1.9424 9.375,1.8121 5.5789,-0.2644 196.2052,24.3606 227.8408,29.4323 9.7865,1.569 13.5675,1.7275 15.8959,0.6666 2.5698,-1.1708 3.6077,-0.9413 6.5342,1.445 1.9134,1.5603 7.9995,4.2998 13.5246,6.0878 14.5435,4.7065 33.9873,13.7221 48.533,22.5033 16.8159,10.1518 171.9675,116.2568 176.4392,120.6631 5.0968,5.0225 12.649,17.0728 15.5366,24.7905 1.3814,3.692 7.3207,25.1491 13.1985,47.6823 5.8779,22.5333 11.2244,42.2387 11.8812,43.7897 2.4823,5.8618 9.9322,41.5063 9.1272,43.6694 -1.881,5.0541 -9.4613,15.1323 -12.3828,16.4634 -4.2459,1.9345 -45.7287,1.9469 -47.6614,0.014 -1.9815,-1.9815 -112.2338,-0.9503 -114.2528,1.0686 -1.0532,1.0533 -0.3348,1.5966 2.8103,2.1257 2.324,0.3909 11.2567,1.8705 19.8504,3.2881 8.5938,1.4177 16.0143,2.9652 16.49,3.439 0.4758,0.4738 1.439,4.4403 2.1406,8.8145 0.8048,5.0167 2.1007,8.5786 3.51,9.6477 3.1424,2.3836 4.0134,2.1894 5.2945,-1.1802 1.3937,-3.6654 4.4723,-4.9506 7.7092,-3.2183 3.7311,1.9968 83.7837,61.08 87.2798,64.4173 2.7574,2.6321 2.8892,3.2097 1.3765,6.0358 -1.4302,2.6725 -1.3563,4.1304 0.5095,10.0625 2.7222,8.6545 1.1847,16.7209 -4.5021,23.6199 -7.1964,8.7304 -7.4836,8.7835 -47.933,8.8514 -35.7695,0.06 -36.3369,0.1014 -42.8037,3.1178 -8.0758,3.7668 -13.2035,2.7427 -13.8415,-2.7643 -0.2937,-2.5343 -1.2579,-3.6018 -3.75,-4.1518 -9.3308,-2.0591 -10.8812,-3.0557 -14.3393,-9.2175 -1.9164,-3.4148 -4.0475,-6.5568 -4.7357,-6.9822 -2.0847,-1.2883 -27.6039,-5.5905 -28.795,-4.8544 -0.6104,0.3772 -1.1098,6.23 -1.1098,13.0061 0,12.0694 -0.076,12.3924 -3.75,15.8597 -2.6566,2.5074 -3.75,4.7123 -3.75,7.562 0,2.6977 -0.7964,4.4487 -2.4179,5.3165 -1.5681,0.8393 -21.4453,1.2604 -56.5625,1.1982 l -54.1446,-0.096 -24.0294,-11.3272 z m 240.2169,-28.3172 c -1.1052,-1.0108 -25.479,-17.3037 -29.0396,-19.4119 -0.8811,-0.5217 0.7911,3.8769 3.7161,9.7747 l 5.3181,10.7232 10.5965,0 c 6.0753,0 10.0898,-0.4633 9.4089,-1.086 z m 20.4209,-26.9424 c 0.8847,-0.8402 1.2817,-2.3307 0.8825,-3.3121 -0.7639,-1.8779 -43.7638,-34.0046 -46.406,-34.6717 -2.481,-0.6263 -11.7099,11.999 -11.7099,16.0194 0,4.0833 2.126,5.9334 23.437,20.3962 l 14.062,9.5433 9.063,-3.2237 c 4.9846,-1.773 9.7868,-3.9111 10.6714,-4.7514 z m -52.2334,6.1753 c 0,-0.3318 -4.6406,-3.7149 -10.3125,-7.5181 -10.9039,-7.3115 -12.0595,-7.2179 -9.9982,0.8099 0.984,3.8324 1.6501,4.3082 7.8803,5.6283 7.4753,1.5839 12.4304,2.0144 12.4304,1.0799 z"
         style="fill:#000000;fill-opacity:1" />
    </g>
  </g>
</svg>
