<?xml version="1.0" encoding="UTF-8" standalone="no"?>
<svg
   xmlns:dc="http://purl.org/dc/elements/1.1/"
   xmlns:cc="http://creativecommons.org/ns#"
   xmlns:rdf="http://www.w3.org/1999/02/22-rdf-syntax-ns#"
   xmlns:svg="http://www.w3.org/2000/svg"
   xmlns="http://www.w3.org/2000/svg"
   version="1.1"
   id="svg2"
   viewBox="0 0 6.002042 2.4604"
   width="18.006126">
  <defs
     id="defs4" />
  <metadata
     id="metadata7">
    <rdf:RDF>
      <cc:Work
         rdf:about="">
        <dc:format>image/svg+xml</dc:format>
        <dc:type
           rdf:resource="http://purl.org/dc/dcmitype/StillImage" />
        <dc:title></dc:title>
      </cc:Work>
    </rdf:RDF>
  </metadata>
  <g
     transform="translate(846.61794,-1024.2476)"
     id="layer1">
    <g
       transform="translate(-125.24096,2297.8396)"
       id="g4147">
      <path
         id="path4151"
         d="m -720.68863,-1271.1316 c -0.0274,0 -0.0548,-0.01 -0.061,-0.01 -0.006,0 -0.0372,-0.011 -0.069,-0.018 -0.0534,-0.012 -0.0624,-0.015 -0.11834,-0.041 -0.0502,-0.023 -0.0694,-0.034 -0.11198,-0.064 -0.0283,-0.02 -0.0538,-0.04 -0.0566,-0.044 -0.003,0 -0.0241,-0.025 -0.0472,-0.046 -0.0465,-0.042 -0.0482,-0.044 -0.0923,-0.1073 -0.0234,-0.033 -0.0377,-0.058 -0.0583,-0.1024 -0.015,-0.032 -0.0273,-0.062 -0.0273,-0.066 0,0 -0.008,-0.034 -0.0178,-0.065 -0.017,-0.055 -0.0181,-0.06 -0.0239,-0.1241 -0.006,-0.063 -0.006,-0.07 -10e-4,-0.128 0.003,-0.034 0.007,-0.065 0.009,-0.071 0.002,-0.01 0.0103,-0.036 0.0177,-0.069 0.0124,-0.055 0.0154,-0.064 0.0413,-0.1197 0.0229,-0.05 0.0345,-0.07 0.0646,-0.1132 0.0202,-0.029 0.0389,-0.054 0.0415,-0.054 0.003,-8e-4 0.0245,-0.023 0.0485,-0.049 0.0398,-0.043 0.0485,-0.051 0.0982,-0.086 0.0437,-0.031 0.066,-0.043 0.11168,-0.065 0.0314,-0.015 0.0612,-0.027 0.0663,-0.027 0.007,0 0.009,0 0.009,-0.01 0,-0.01 -0.0102,-0.017 -0.0228,-0.015 l -0.0113,0 -0.044,-0.068 -0.044,-0.068 -2e-5,-0.02 c -2e-5,-0.02 -3.3e-4,-0.021 -0.0205,-0.05 -0.008,-0.012 -0.009,-0.014 -0.005,-0.021 0.003,-0.01 0.003,-0.01 9.4e-4,-0.011 -0.002,0 -0.019,-0.01 -0.0382,-0.014 -0.0348,-0.01 -0.0349,-0.01 -0.0419,-0.025 -0.006,-0.012 -0.008,-0.023 -0.0105,-0.077 l -0.003,-0.062 0.009,-0.015 c 0.007,-0.012 0.0209,-0.023 0.0696,-0.057 0.0361,-0.025 0.065,-0.043 0.0714,-0.044 0.007,0 0.015,-10e-5 0.0237,0 0.011,0 0.0153,0.01 0.0295,0 0.0239,0 0.0342,-0.01 0.0342,-0.015 0,0 -0.004,-0.012 -0.01,-0.02 -0.0121,-0.02 -0.0131,-0.038 -0.002,-0.042 0.004,0 0.0407,-0.013 0.0817,-0.026 0.0592,-0.018 0.0756,-0.022 0.0803,-0.019 0.005,0 0.0576,-0.011 0.26421,-0.069 0.14213,-0.04 0.33065,-0.093 0.41892,-0.1177 0.12316,-0.035 0.16171,-0.047 0.16565,-0.052 0.005,-0.01 0.038,-0.015 0.0604,-0.015 0.006,-10e-5 0.0573,-0.013 0.11396,-0.029 l 0.10297,-0.029 0.30015,0 c 0.16508,0 0.35496,0 0.42196,0 l 0.1218,1e-4 0.25878,0.05 0.25878,0.05 0.18452,0 0.18452,0 0.0158,0.016 c 0.01,0.01 0.0186,0.016 0.0233,0.016 0.0161,0 0.0299,0.011 0.0755,0.057 0.0514,0.053 0.0524,0.055 0.0411,0.077 -0.005,0.01 -0.01,0.014 -0.0209,0.018 -0.0136,0.01 -0.0217,0.01 -0.11014,0 -0.0635,0 -0.24241,0 -0.53365,0 l -0.43819,10e-4 -0.002,0.018 c -0.002,0.017 -0.002,0.018 -0.0112,0.019 -0.005,6e-4 -0.0108,0 -0.0123,0 -0.004,0 0.0254,0.064 0.0318,0.064 0.003,0 0.0134,-0.01 0.0229,-0.013 0.013,-0.01 0.0168,-0.014 0.0151,-0.018 -0.005,-0.011 -0.005,-0.023 -10e-4,-0.028 0.002,0 0.009,0 0.0156,0 0.006,0 0.0259,0 0.0433,-0.01 0.0174,-0.01 0.0338,-0.01 0.0363,-0.01 0.003,0 0.0162,0.02 0.0303,0.041 l 0.0257,0.039 0.0208,0 0.0208,0 0.0328,0.046 0.0328,0.046 0.0873,10e-5 c 0.0557,1e-4 0.088,0 0.0893,0 10e-4,0 -0.001,0.01 -0.005,0.014 -0.008,0.013 -0.006,0.018 0.008,0.018 0.006,0 0.011,9e-4 0.011,0 0,0 -0.0209,0.031 -0.0466,0.066 -0.0256,0.035 -0.0466,0.066 -0.0466,0.069 0,0 0.003,0 0.009,0 0.005,0 0.0111,0 0.0134,0 0.003,0 0.008,0 0.0171,0 l 0.013,-9e-4 0.008,-0.023 c 0.005,-0.015 0.0112,-0.026 0.0172,-0.031 0.005,0 0.0432,-0.058 0.0851,-0.1211 l 0.0761,-0.1139 0.0602,-9e-4 c 0.0394,-6e-4 0.0602,3e-4 0.0602,0 0,0 -0.0344,0.054 -0.0765,0.1148 -0.0421,0.061 -0.0778,0.114 -0.0795,0.117 -0.002,0 -0.002,0.032 5.6e-4,0.075 l 0.004,0.069 0.0275,0.047 c 0.0955,0.1648 0.0936,0.162 0.1621,0.2437 0.0355,0.042 0.0756,0.089 0.0892,0.1033 l 0.0247,0.026 0.16232,0 0.16231,0 0.17924,-0.1192 c 0.0986,-0.066 0.17923,-0.1211 0.17923,-0.1233 0,-0.01 -10e-4,-0.01 -0.0688,-0.016 -0.0551,-0.01 -0.0616,-0.01 -0.0695,-0.018 -0.0184,-0.018 -0.0517,-0.014 -0.056,0.01 -0.009,0.041 -0.0138,0.051 -0.027,0.047 -0.004,0 -0.01,0 -0.0118,-0.01 -0.004,-0.01 -0.004,0 0.0147,-0.086 0.006,-0.025 0.0123,-0.056 0.0149,-0.069 0.005,-0.028 0.009,-0.033 0.0201,-0.03 0.0164,0 0.0171,0.01 0.016,0.046 l -0.001,0.037 0.008,10e-4 c 0.008,9e-4 0.009,-4e-4 0.016,-0.03 l 0.008,-0.031 0.0209,0 c 0.0115,0 0.0241,0 0.0281,0 0.005,0 0.008,10e-5 0.009,0 10e-4,0 0.005,-0.011 0.008,-0.017 0.003,-0.01 0.007,-0.015 0.008,-0.019 0.004,-0.013 0.0368,-0.052 0.042,-0.05 0.002,10e-4 0.006,0 0.009,0 0.005,0 0.018,-0.013 0.018,-0.019 0,0 0.006,-0.01 0.0143,-0.018 l 0.0143,-0.014 0.0154,0.01 c 0.008,0 0.0622,0.027 0.1195,0.052 l 0.10408,0.045 0.0163,-0.01 c 0.009,-0.01 0.0286,-0.014 0.0436,-0.021 l 0.0273,-0.012 0.26885,2e-4 c 0.15775,10e-5 0.26885,-10e-4 0.26885,0 0,0 -0.007,-0.01 -0.0594,-0.031 -0.0868,-0.037 -0.0583,-0.034 -0.32262,-0.032 -0.21531,0 -0.23368,0 -0.29668,0.01 l -0.0671,0.01 -0.007,-0.01 c -0.004,0 -0.007,-0.01 -0.007,-0.011 0,0 0.005,-0.01 0.0803,-0.014 0.0497,-0.01 0.0848,-0.01 0.30423,-0.01 0.22988,0 0.24965,0 0.26966,0 0.0119,0 0.11466,0.043 0.2284,0.088 0.11375,0.045 0.20873,0.082 0.21107,0.081 0.002,-9e-4 0.0534,0.018 0.11351,0.042 0.11233,0.045 0.12697,0.049 0.22842,0.067 0.0105,0 0.012,0 0.0128,0.012 9.2e-4,0.01 0.003,0.011 0.0213,0.017 0.0247,0.01 0.0996,0.022 0.10332,0.018 10e-4,0 0.004,-0.011 0.005,-0.021 0.003,-0.022 0.007,-0.02 -0.0627,-0.038 -0.0765,-0.02 -0.0838,-0.022 -0.0818,-0.026 10e-4,0 0.0119,-0.01 0.024,-0.016 l 0.0222,-0.013 0.0395,0.01 c 0.0217,0 0.0517,0.01 0.0667,0.01 0.015,0 0.0375,0.01 0.0501,0.01 0.0259,0 0.0333,0.01 0.0335,0.021 6e-5,0 0.002,0.011 0.005,0.015 0.003,0 0.005,0.015 0.005,0.038 l 0,0.032 0.01,0.01 c 0.0132,0.01 0.0143,0.014 0.008,0.051 -0.007,0.04 -0.009,0.045 -0.0209,0.05 -0.0114,0 -0.045,0.041 -0.045,0.049 0,0 0.005,0.014 0.0104,0.024 0.01,0.017 0.0101,0.02 0.007,0.029 -0.002,0.01 -0.0249,0.049 -0.0505,0.096 -0.0256,0.047 -0.0466,0.089 -0.0466,0.092 0,0 0.006,0.019 0.0128,0.034 0.007,0.015 0.0128,0.031 0.0128,0.036 0,0 0.008,0.033 0.0179,0.064 0.0171,0.053 0.0182,0.059 0.0246,0.123 0.007,0.066 0.007,0.069 10e-4,0.1332 -0.003,0.036 -0.007,0.067 -0.009,0.07 -0.002,0 -0.009,0.032 -0.0171,0.066 -0.0144,0.063 -0.0236,0.088 -0.0633,0.1679 -0.0134,0.027 -0.0775,0.119 -0.0861,0.1236 -0.003,0 -0.0248,0.024 -0.0476,0.048 -0.0362,0.039 -0.0483,0.05 -0.094,0.082 -0.0428,0.03 -0.0635,0.043 -0.11191,0.066 -0.0327,0.016 -0.0631,0.028 -0.0675,0.028 -0.004,1e-4 -0.0334,0.01 -0.0642,0.018 -0.0678,0.021 -0.0616,0.02 -0.13464,0.026 -0.0547,0 -0.0641,0 -0.12038,-10e-5 -0.0348,0 -0.0659,-0.01 -0.0723,-0.01 -0.006,0 -0.0372,-0.011 -0.069,-0.018 -0.0538,-0.012 -0.0621,-0.015 -0.11937,-0.041 -0.0509,-0.024 -0.0705,-0.035 -0.11276,-0.064 -0.0281,-0.02 -0.0524,-0.038 -0.054,-0.042 -0.002,0 -0.023,-0.024 -0.0478,-0.047 -0.0403,-0.037 -0.049,-0.046 -0.0842,-0.096 -0.033,-0.047 -0.0437,-0.065 -0.0666,-0.114 -0.015,-0.032 -0.0273,-0.062 -0.0273,-0.066 0,0 -0.008,-0.033 -0.0174,-0.065 -0.01,-0.031 -0.0184,-0.063 -0.0196,-0.07 -10e-4,-0.01 -0.004,-0.015 -0.006,-0.015 -0.002,-9e-4 -0.0913,0.036 -0.19765,0.082 l -0.1934,0.084 -0.2481,0 -0.2481,0 -0.002,0.01 c -9.4e-4,0.01 -0.002,0.015 -0.003,0.022 l -8.4e-4,0.011 -0.0284,10e-4 c -0.0177,5e-4 -0.0301,-5e-4 -0.0328,0 -0.002,0 -0.005,-0.012 -0.005,-0.022 l -9.5e-4,-0.018 -0.22792,0 -0.22792,0 -9.8e-4,0.019 c -5.5e-4,0.01 -0.003,0.02 -0.005,0.022 -0.004,0 -0.20484,-4e-4 -0.20768,0 -8.7e-4,-7e-4 -0.002,-0.01 -0.003,-0.02 l -0.002,-0.018 -0.61644,0 -0.61644,0 -0.0142,-0.01 c -0.008,-0.01 -0.0155,-0.011 -0.0171,-0.011 -0.002,0 -0.008,0 -0.0139,0.01 -0.006,0.01 -0.0143,0.01 -0.0184,0.011 -0.006,0 -0.0126,0.013 -0.0328,0.055 -0.029,0.061 -0.0809,0.1402 -0.10827,0.1648 -0.009,0.01 -0.0316,0.032 -0.05,0.052 -0.0291,0.032 -0.0409,0.042 -0.0899,0.077 -0.0472,0.033 -0.0657,0.044 -0.11321,0.066 -0.0312,0.014 -0.0602,0.026 -0.0643,0.026 -0.004,0 -0.0328,0.01 -0.0636,0.017 -0.0653,0.02 -0.0625,0.02 -0.13234,0.026 -0.0622,0.01 -0.0674,0.01 -0.13397,-5e-4 z m 0.96304,-0.5705 c 0.0198,0 0.0917,-0.01 0.40127,-0.015 0.20746,-0.01 0.38225,-0.01 0.38843,-0.01 0.0151,-9e-4 0.0147,-0.01 -8.9e-4,-0.016 -0.007,0 -0.0149,-0.01 -0.0183,-0.016 -0.0117,-0.02 -0.006,-0.019 -0.10712,-0.018 l -0.0937,10e-4 -0.0118,0.013 -0.0118,0.013 -0.0264,-6e-4 c -0.0391,-8e-4 -0.0472,0 -0.0613,-0.017 l -0.0125,-0.013 -0.0787,0 c -0.0764,0 -0.21056,0 -0.23147,-0.01 -0.007,0 -0.0272,-0.015 -0.0591,-0.04 -0.0269,-0.021 -0.0511,-0.038 -0.0539,-0.038 -0.003,10e-5 -0.0397,0.014 -0.0821,0.031 l -0.077,0.031 -0.002,0.013 c -10e-4,0.01 -0.002,0.015 -8.1e-4,0.018 0.002,0.01 0.10731,0.081 0.11186,0.079 0.002,-7e-4 0.0143,0 0.0275,-0.01 z m -1.29043,-0.1787 c 0.0246,-0.015 0.0546,-0.03 0.0899,-0.043 0.0292,-0.012 0.0587,-0.024 0.0657,-0.027 0.007,0 0.0145,-0.01 0.0168,-0.01 0.002,0 0.0282,-0.01 0.0575,-0.021 0.0399,-0.016 0.0538,-0.023 0.0551,-0.028 0.002,-0.01 0.007,-0.01 0.13472,-0.065 0.0704,-0.03 0.0875,-0.039 0.0875,-0.044 0,0 -0.007,-0.013 -0.0156,-0.021 -0.0167,-0.016 -0.11608,-0.1355 -0.12989,-0.1559 -0.005,-0.01 -0.0118,-0.015 -0.0161,-0.018 -0.004,0 -0.0133,-0.013 -0.0201,-0.022 -0.007,-0.01 -0.0141,-0.016 -0.0162,-0.016 -0.002,0 -0.007,-0.01 -0.0109,-0.011 -0.0125,-0.02 -0.0141,-0.021 -0.0306,-0.015 -0.0114,0 -0.0155,0.01 -0.0191,0.016 -0.005,0.012 -0.0108,0.014 -0.023,0.01 -0.008,-0.01 -0.009,0 -0.0224,0 -0.008,0 -0.0149,0.01 -0.0159,0.013 -0.002,0.01 10e-4,0.021 0.007,0.03 0.005,0.01 0.004,0.011 -0.021,0.025 -0.0115,0.01 -0.0303,0.019 -0.0417,0.027 -0.0115,0.01 -0.0226,0.016 -0.0248,0.017 -0.002,0 -0.007,0 -0.0125,-0.011 -0.005,-0.01 -0.0112,-0.013 -0.0144,-0.013 -0.003,0 -0.0142,0.01 -0.0251,0.023 -0.0164,0.02 -0.019,0.024 -0.0174,0.032 0.002,0.011 -0.004,0.02 -0.0129,0.018 -0.009,0 -0.0164,0 -0.0242,0.016 -0.004,0.01 -0.007,0.012 -0.007,0.013 0,6e-4 0.006,0 0.0124,0.01 l 0.0125,0.01 -0.0245,0.05 c -0.0231,0.047 -0.0249,0.05 -0.0325,0.048 -0.016,0 -0.0175,0 -0.0221,0.01 -0.006,0.011 -0.013,0.044 -0.0131,0.058 -6e-5,0.01 0.002,0.012 0.005,0.014 0.008,0.01 0.006,0.018 -0.005,0.022 -0.008,0 -0.01,0.01 -0.01,0.013 0,0.01 0.002,0.01 0.006,0.01 0.003,2e-4 0.007,7e-4 0.009,0 0.002,4e-4 0.005,10e-4 0.007,0 0.003,4e-4 0.004,0.01 0.004,0.026 0,0.027 0.004,0.035 0.0155,0.035 0.003,0 0.022,-0.01 0.0423,-0.022 z m 5.03667,-0.1783 c 0.0574,-10e-4 0.10743,0 0.11122,0 0.005,-9e-4 0.0131,-0.011 0.0249,-0.03 0.01,-0.016 0.018,-0.03 0.018,-0.032 0,0 -0.008,-0.014 -0.0177,-0.028 -0.01,-0.014 -0.0177,-0.027 -0.0177,-0.029 0,0 0.005,-0.01 0.012,-0.012 0.007,0 0.0199,-0.015 0.0295,-0.024 l 0.0175,-0.016 -0.007,-0.012 c -0.009,-0.015 -0.0288,-0.028 -0.0328,-0.021 -0.002,0 -0.003,0.01 -0.003,0.012 l -5e-5,0.01 -0.0684,0 c -0.0489,0 -0.0695,0 -0.0722,0 -0.002,0 -0.004,0.01 -0.004,0.018 l 0,0.014 -0.16703,0 c -0.14426,0 -0.16727,7e-4 -0.16884,0 -0.001,0 0.0176,0.03 0.0499,0.072 0.0655,0.084 0.0608,0.082 0.13827,0.079 0.0291,-8e-4 0.0999,0 0.15729,0 z m -4.33787,-0.1046 c 0.0534,-0.021 0.0656,-0.028 0.0937,-0.053 0.0208,-0.019 0.0205,-0.02 -0.0109,-0.048 -0.0181,-0.016 -0.0228,-0.018 -0.0346,-0.019 -0.0135,-3e-4 -0.0136,-4e-4 -0.0145,-0.014 -8.4e-4,-0.011 -0.003,-0.014 -0.0133,-0.02 -0.007,0 -0.0152,-0.01 -0.0188,-0.01 -0.008,0 -0.0206,0.014 -0.0313,0.035 -0.004,0.01 -0.009,0.016 -0.0114,0.018 -0.002,0 -0.0242,-0.01 -0.0493,-0.021 l -0.0458,-0.023 -0.0233,0 c -0.0149,0 -0.0238,0 -0.0249,0.01 -9.5e-4,0 0.0121,0.02 0.03,0.042 0.0174,0.02 0.0421,0.051 0.0549,0.068 0.0365,0.049 0.0393,0.052 0.0441,0.052 0.002,0 0.0273,-0.01 0.0552,-0.02 z m -0.18796,-0.5049 c 0.0105,-0.017 0.0209,-0.03 0.0335,-0.04 0.0207,-0.016 0.0174,-0.016 0.0948,-0.012 0.0386,0 0.0409,0 0.0473,0 0.004,0 0.007,-0.011 0.007,-0.015 0,-0.012 -0.0221,-0.092 -0.0268,-0.097 -0.003,0 -0.0249,0 -0.11299,9e-4 -0.12474,0.01 -0.12846,0.01 -0.13136,0.014 -0.004,0.01 -0.0437,0.1592 -0.0444,0.166 -6.1e-4,0.01 0.002,0.01 0.0395,0.01 0.0221,0 0.0487,0 0.0592,0 l 0.0191,-4e-4 0.0153,-0.025 z"
         style="fill:#000000;fill-opacity:1" />
    </g>
  </g>
</svg>
