<?xml version="1.0" encoding="UTF-8" standalone="no"?>
<svg
   xmlns:dc="http://purl.org/dc/elements/1.1/"
   xmlns:cc="http://creativecommons.org/ns#"
   xmlns:rdf="http://www.w3.org/1999/02/22-rdf-syntax-ns#"
   xmlns:svg="http://www.w3.org/2000/svg"
   xmlns="http://www.w3.org/2000/svg"
   version="1.1"
   id="svg2"
   viewBox="0 0 33.499927 5.176267"
   width="100.499781">
  <defs
     id="defs4" />
  <metadata
     id="metadata7">
    <rdf:RDF>
      <cc:Work
         rdf:about="">
        <dc:format>image/svg+xml</dc:format>
        <dc:type
           rdf:resource="http://purl.org/dc/dcmitype/StillImage" />
        <dc:title></dc:title>
      </cc:Work>
    </rdf:RDF>
  </metadata>
  <g
     transform="translate(717.77369,-694.12057)"
     id="layer1">
    <g
       transform="translate(162.85718,8.5714332)"
       id="g4147">
      <path
         id="path4159"
         d="m -873.02971,690.68868 c -0.0205,-0.0383 -0.0231,-0.1612 -0.004,-0.18727 0.0476,-0.0648 0.0815,-0.0716 0.40461,-0.0805 0.29662,-0.008 0.32405,-0.0117 0.32986,-0.042 0.005,-0.0277 -0.002,-0.0314 -0.0445,-0.0228 -0.028,0.006 -0.10934,0.0122 -0.18084,0.0147 l -0.12999,0.004 -0.27309,-0.27267 c -0.24952,-0.24913 -0.28771,-0.28007 -0.44235,-0.35836 -0.10015,-0.0507 -0.17631,-0.1013 -0.18656,-0.12394 -0.0138,-0.0305 -0.0356,-0.0393 -0.10731,-0.0435 -0.0845,-0.005 -0.0904,-0.008 -0.0959,-0.0569 l -0.006,-0.0516 -0.19085,0.0111 c -0.2365,0.0137 -0.31091,-9e-5 -0.32505,-0.0604 -0.009,-0.0396 -0.0207,-0.0447 -0.11118,-0.0494 -0.0986,-0.005 -0.10097,-0.004 -0.10658,0.0447 -0.005,0.0421 -0.0157,0.0515 -0.0683,0.059 -0.0484,0.007 -0.0639,0.0183 -0.0684,0.0502 -0.009,0.0638 -0.0779,0.0802 -0.28639,0.0681 -0.1017,-0.006 -0.19225,-0.0153 -0.20121,-0.0208 -0.009,-0.006 -0.0163,-0.0609 -0.0163,-0.12308 0,-0.12667 -0.008,-0.13882 -0.12623,-0.18036 -0.0829,-0.0292 -0.15993,-0.0898 -0.15993,-0.12576 0,-0.0118 -0.0121,-0.0316 -0.0269,-0.0439 -0.0148,-0.0123 -0.28646,-0.0658 -0.60363,-0.11881 -0.31718,-0.053 -0.62497,-0.10495 -0.68399,-0.11535 -0.059,-0.0104 -0.16768,-0.0252 -0.24146,-0.0328 -0.1309,-0.0136 -0.43229,-0.1117 -0.63602,-0.20707 -0.0676,-0.0316 -0.14913,-0.0479 -0.32194,-0.064 -0.12728,-0.0119 -0.24805,-0.0317 -0.26838,-0.044 -0.0252,-0.0153 -0.0528,-0.0756 -0.0869,-0.18957 -0.0274,-0.0919 -0.0581,-0.17724 -0.0681,-0.18954 -0.0142,-0.0175 -0.26469,-0.0224 -1.14275,-0.0224 -0.73781,0 -1.1246,-0.006 -1.1246,-0.0179 0,-0.0117 0.38633,-0.0179 1.12321,-0.0179 0.75124,0 1.12935,-0.006 1.14175,-0.0186 0.0102,-0.0102 0.16673,-0.0271 0.34787,-0.0375 0.25866,-0.0149 0.33893,-0.0255 0.37405,-0.0495 0.074,-0.0506 0.55005,-0.21641 0.62178,-0.2166 0.13412,-3.6e-4 1.32238,-0.12386 1.44399,-0.15007 0.14771,-0.0318 0.24513,-0.0788 0.31798,-0.15334 0.0307,-0.0314 0.0715,-0.0541 0.0972,-0.0541 0.0244,0 0.0674,-0.0136 0.0955,-0.0303 0.0485,-0.0286 0.0532,-0.0285 0.0873,0.003 0.0295,0.0267 0.0516,0.0302 0.12145,0.0195 0.047,-0.007 0.11933,-0.0123 0.1608,-0.0112 0.0654,0.002 0.0961,-0.0129 0.23187,-0.10993 l 0.15645,-0.11191 0.31661,0 c 0.39361,0 0.4439,-0.0215 0.12735,-0.0545 -0.0758,-0.008 -0.11178,-0.0194 -0.11178,-0.0357 0,-0.0132 0.007,-0.0284 0.0159,-0.0338 0.009,-0.005 0.30974,-0.0736 0.6689,-0.15146 l 0.65302,-0.14165 0.83795,-0.59623 c 0.58602,-0.41697 0.85138,-0.59581 0.88265,-0.59487 0.32191,0.01 0.59297,0.0339 0.61002,0.0544 0.0146,0.0176 0.006,0.16844 -0.0345,0.57416 -0.0325,0.32903 -0.0478,0.55699 -0.0381,0.56689 0.009,0.009 0.0694,0.023 0.13442,0.0308 0.0667,0.008 0.14474,0.0306 0.17907,0.0518 0.0552,0.0341 0.0696,0.0357 0.15497,0.0168 0.0678,-0.015 0.13872,-0.0159 0.25394,-0.003 0.0879,0.01 0.17644,0.0113 0.19674,0.004 0.0203,-0.008 0.0837,-0.0554 0.14078,-0.1056 0.0571,-0.0502 0.10763,-0.0913 0.1122,-0.0913 0.055,0 0.54428,0.13819 0.57088,0.16124 0.0197,0.017 0.0881,0.0478 0.15203,0.0683 0.10638,0.0341 0.18693,0.039 0.94793,0.0576 l 0.83168,0.0203 0.44714,0.10632 c 0.53309,0.12676 0.55882,0.13453 0.58057,0.17515 0.0142,0.0266 0.0532,0.0335 0.24578,0.0439 0.47791,0.0256 1.17752,0.0452 1.66867,0.0467 0.28036,7.2e-4 0.87997,0.0125 1.33248,0.0258 0.61774,0.0182 1.01627,0.02 1.59951,0.007 l 0.77678,-0.0171 0.11988,-0.0712 0.11989,-0.0712 0.16752,0.011 c 0.0921,0.006 0.38081,0.0341 0.64149,0.0622 0.64242,0.0693 1.11272,0.0772 2.62023,0.0438 1.58797,-0.0351 4.35311,-0.0561 5.46402,-0.0414 0.74525,0.01 0.90459,0.0168 1.13112,0.0492 0.19147,0.0274 0.35338,0.0377 0.59127,0.0377 0.2407,0 0.33605,0.006 0.35943,0.0233 0.0226,0.0165 0.0362,0.0619 0.0469,0.1565 0.0156,0.13827 0.044,0.2819 0.0585,0.29641 0.005,0.005 0.36417,0.0154 0.79905,0.024 0.43487,0.009 0.79534,0.0203 0.80105,0.026 0.006,0.006 0.006,0.0143 0.002,0.019 -0.005,0.005 -0.35822,0.002 -0.78547,-0.007 -0.42726,-0.008 -0.78362,-0.009 -0.79191,-10e-4 -0.008,0.008 -0.0121,0.0287 -0.009,0.0469 0.005,0.0253 0.0215,0.0327 0.0688,0.0311 0.13085,-0.004 0.84943,0.0489 0.86468,0.0642 0.009,0.009 0.0117,0.0273 0.006,0.0412 -0.0102,0.0265 -0.31534,0.0488 -0.66862,0.0488 -0.10629,0 -0.16709,0.007 -0.16709,0.019 0,0.0105 0.0436,0.0627 0.0969,0.11599 l 0.0969,0.0969 0.006,0.18896 c 0.004,0.1516 2.9e-4,0.19226 -0.0209,0.20567 -0.0145,0.009 -0.119,0.0171 -0.23212,0.0176 -0.39168,0.002 -4.11957,0.22452 -4.16537,0.24903 l -0.12861,0.0115 c -0.0693,0.006 -0.36614,0.043 -1.51329,0.26562 -0.78508,0.15235 -1.8218,0.36242 -2.30381,0.46682 0,0 -0.59428,0.0999 -0.89428,0.12339 -0.64308,0.0504 -1.93479,0.0374 -1.93479,0.0374 0,0 -1.30751,0.027 -1.95268,-0.0616 -0.33955,-0.0466 -0.66463,-0.16788 -0.99843,-0.24567 -0.33528,-0.0781 -0.66791,-0.17281 -1.00865,-0.22197 -0.41956,-0.0606 -0.84515,-0.0692 -1.26859,-0.089 -0.48326,-0.0226 -1.35628,-0.0332 -1.45096,-0.0339 l -0.17215,-10e-4 -0.15865,0.12692 c -0.0872,0.0698 -0.17259,0.13438 -0.18963,0.1435 -0.0342,0.0183 -0.40488,0.15625 -0.73826,0.27475 -0.11805,0.042 -0.28707,0.10896 -0.3756,0.14891 -0.33374,0.15058 -0.41297,0.16496 -1.01744,0.18466 -0.29623,0.01 -0.5547,0.0208 -0.57437,0.0247 -0.0197,0.004 -0.0438,0.0256 -0.0537,0.0482 -0.026,0.0597 -0.14868,0.0859 -0.48291,0.10321 -0.38607,0.02 -0.76313,0.0548 -0.7959,0.0734 -0.0168,0.01 0.0209,0.0155 0.10065,0.0158 0.14464,7.2e-4 0.19207,0.0289 0.15314,0.0912 -0.0117,0.0187 -0.0213,0.0578 -0.0213,0.0868 0,0.0378 -0.0148,0.0632 -0.0523,0.0899 -0.0517,0.0368 -0.0644,0.0372 -1.19861,0.0353 -1.09349,-0.002 -1.14713,-0.004 -1.16392,-0.0348 z"
         style="fill:#000000;fill-opacity:1" />
    </g>
  </g>
</svg>
