<?xml version="1.0" encoding="UTF-8" standalone="no"?>
<!-- Created with Inkscape (http://www.inkscape.org/) -->

<svg
   xmlns:dc="http://purl.org/dc/elements/1.1/"
   xmlns:cc="http://creativecommons.org/ns#"
   xmlns:rdf="http://www.w3.org/1999/02/22-rdf-syntax-ns#"
   xmlns:svg="http://www.w3.org/2000/svg"
   xmlns="http://www.w3.org/2000/svg"
   xmlns:sodipodi="http://sodipodi.sourceforge.net/DTD/sodipodi-0.dtd"
   xmlns:inkscape="http://www.inkscape.org/namespaces/inkscape"
   width="26.246681mm"
   height="4.0552797mm"
   viewBox="0 0 93.000052 14.369101"
   id="svg2"
   version="1.1"
   inkscape:version="0.91 r13725"
   sodipodi:docname="Defender.svg">
  <defs
     id="defs4" />
  <sodipodi:namedview
     id="base"
     pagecolor="#ffffff"
     bordercolor="#666666"
     borderopacity="1.0"
     inkscape:pageopacity="0.0"
     inkscape:pageshadow="2"
     inkscape:zoom="11.2"
     inkscape:cx="49.041588"
     inkscape:cy="7.394561"
     inkscape:document-units="px"
     inkscape:current-layer="g4147"
     showgrid="false"
     fit-margin-top="0"
     fit-margin-left="0"
     fit-margin-right="0"
     fit-margin-bottom="0"
     inkscape:window-width="1920"
     inkscape:window-height="1017"
     inkscape:window-x="-8"
     inkscape:window-y="-8"
     inkscape:window-maximized="1" />
  <metadata
     id="metadata7">
    <rdf:RDF>
      <cc:Work
         rdf:about="">
        <dc:format>image/svg+xml</dc:format>
        <dc:type
           rdf:resource="http://purl.org/dc/dcmitype/StillImage" />
        <dc:title></dc:title>
      </cc:Work>
    </rdf:RDF>
  </metadata>
  <g
     inkscape:label="Layer 1"
     inkscape:groupmode="layer"
     id="layer1"
     transform="translate(717.77358,-684.92708)">
    <g
       id="g4147"
       transform="translate(162.85718,8.5714332)">
      <path
         style="fill:#000000;fill-opacity:1"
         d="m -859.52932,690.62461 c -0.0569,-0.10633 -0.064,-0.44752 -0.0109,-0.51989 0.13219,-0.17993 0.22626,-0.19864 1.12327,-0.22344 0.82344,-0.0228 0.89958,-0.0325 0.91572,-0.11667 0.0147,-0.0768 -0.005,-0.0872 -0.12354,-0.0634 -0.0776,0.0156 -0.30354,0.0339 -0.50202,0.0407 l -0.36088,0.0123 -0.75814,-0.75697 c -0.69269,-0.6916 -0.79872,-0.7775 -1.228,-0.99483 -0.27803,-0.14075 -0.48947,-0.28123 -0.51791,-0.34408 -0.0383,-0.0846 -0.0988,-0.10919 -0.29791,-0.12085 -0.23454,-0.0137 -0.25086,-0.0234 -0.26623,-0.158 l -0.0164,-0.14336 -0.52981,0.0308 c -0.65655,0.0381 -0.86312,-2.4e-4 -0.90238,-0.16775 -0.0258,-0.10991 -0.0574,-0.12399 -0.30865,-0.13726 -0.27377,-0.0145 -0.28029,-0.0117 -0.29588,0.12413 -0.0134,0.11678 -0.0436,0.14288 -0.18972,0.16375 -0.13448,0.0192 -0.17745,0.0507 -0.19,0.13922 -0.0251,0.17721 -0.21626,0.22264 -0.79505,0.18897 -0.28234,-0.0164 -0.53371,-0.0425 -0.55859,-0.0578 -0.0249,-0.0154 -0.0452,-0.16914 -0.0452,-0.34169 0,-0.35164 -0.0236,-0.38538 -0.35044,-0.50069 -0.23027,-0.0812 -0.44399,-0.2493 -0.44399,-0.34913 0,-0.0329 -0.0337,-0.0877 -0.0748,-0.12185 -0.0412,-0.0342 -0.79526,-0.18258 -1.67577,-0.32983 -0.88051,-0.14724 -1.73499,-0.29134 -1.89884,-0.32021 -0.16385,-0.0289 -0.46549,-0.0699 -0.67031,-0.0911 -0.3634,-0.0377 -1.20008,-0.31008 -1.76567,-0.57485 -0.18763,-0.0878 -0.41401,-0.13287 -0.89374,-0.17778 -0.35336,-0.0331 -0.68863,-0.0881 -0.74505,-0.12228 -0.07,-0.0424 -0.14666,-0.20974 -0.24117,-0.52627 -0.0762,-0.25526 -0.16126,-0.49205 -0.18899,-0.52618 -0.0394,-0.0485 -0.73481,-0.0621 -3.17243,-0.0621 -2.04825,0 -3.12202,-0.0171 -3.12202,-0.0497 0,-0.0326 1.07249,-0.0496 3.11817,-0.0496 2.08552,0 3.1352,-0.0171 3.16962,-0.0515 0.0283,-0.0283 0.46288,-0.0751 0.96574,-0.10404 0.71808,-0.0413 0.94092,-0.0708 1.03841,-0.13742 0.20546,-0.14041 1.527,-0.60079 1.72615,-0.60133 0.37233,-10e-4 3.67107,-0.34383 4.00869,-0.41661 0.41004,-0.0884 0.68051,-0.21881 0.88275,-0.42567 0.0853,-0.0873 0.19847,-0.15026 0.2699,-0.15026 0.0676,0 0.18698,-0.0378 0.26518,-0.084 0.13457,-0.0795 0.14757,-0.0791 0.2423,0.007 0.0819,0.0741 0.1432,0.0839 0.33716,0.054 0.13039,-0.0201 0.33127,-0.0341 0.44641,-0.0311 0.1816,0.005 0.26691,-0.0357 0.64369,-0.30519 l 0.43434,-0.31067 0.87894,0 c 1.09271,0 1.23232,-0.0597 0.35354,-0.15122 -0.21055,-0.0219 -0.31032,-0.0537 -0.31032,-0.099 0,-0.0367 0.0199,-0.0789 0.0441,-0.0939 0.0243,-0.015 0.8599,-0.20422 1.85697,-0.42049 l 1.81286,-0.39323 2.32623,-1.65519 c 1.62688,-1.15758 2.36355,-1.65406 2.45036,-1.65144 0.89365,0.0269 1.64616,0.0941 1.69349,0.15114 0.0405,0.0488 0.0153,0.46759 -0.0958,1.59392 -0.0901,0.91344 -0.13265,1.54627 -0.10578,1.57375 0.0247,0.0253 0.19264,0.0638 0.37316,0.0855 0.1852,0.0223 0.40182,0.085 0.49714,0.14392 0.15327,0.0947 0.19315,0.099 0.43019,0.0466 0.18833,-0.0417 0.38511,-0.044 0.70498,-0.008 0.24405,0.0272 0.48983,0.0315 0.54617,0.01 0.0563,-0.0218 0.23223,-0.15374 0.39084,-0.29316 0.15862,-0.13941 0.29878,-0.25348 0.31147,-0.25348 0.1527,0 1.51099,0.38363 1.58484,0.44762 0.0546,0.0473 0.24454,0.13263 0.42205,0.18958 0.29531,0.0947 0.51894,0.10834 2.63157,0.1599 l 2.30884,0.0563 1.2413,0.29516 c 1.47993,0.35189 1.55137,0.37345 1.61174,0.48624 0.0395,0.0738 0.14766,0.0931 0.68233,0.12174 1.32673,0.0711 3.26893,0.12552 4.63243,0.12976 0.7783,0.002 2.4429,0.0347 3.6991,0.0716 1.71492,0.0505 2.82131,0.0554 4.44045,0.0197 l 2.15644,-0.0475 0.3328,-0.19772 0.33281,-0.19771 0.46507,0.0307 c 0.25579,0.0169 1.05717,0.0946 1.78085,0.17268 1.78344,0.1924 3.08906,0.21423 7.27407,0.12159 4.4084,-0.0976 12.08477,-0.15572 15.16879,-0.1149 2.06891,0.0274 2.51125,0.0466 3.14012,0.13654 0.53154,0.076 0.98104,0.10467 1.64145,0.10467 0.6682,0 0.9329,0.0171 0.9978,0.0646 0.0627,0.0458 0.10049,0.17197 0.1302,0.43446 0.0434,0.38386 0.12213,0.78258 0.16241,0.82286 0.0128,0.0128 1.01099,0.0428 2.21825,0.0666 1.20726,0.0239 2.20798,0.0564 2.22382,0.0722 0.0158,0.0158 0.018,0.0396 0.005,0.0528 -0.0132,0.0132 -0.99447,0.005 -2.18057,-0.0186 -1.1861,-0.0234 -2.1754,-0.0254 -2.19844,-0.004 -0.023,0.021 -0.0336,0.0796 -0.0236,0.13029 0.0139,0.0701 0.0597,0.0908 0.19085,0.0864 0.36325,-0.0122 2.35812,0.13578 2.40044,0.17809 0.0245,0.0245 0.0324,0.0759 0.0177,0.11437 -0.0282,0.0736 -0.87542,0.13539 -1.85618,0.13539 -0.29507,0 -0.46385,0.0192 -0.46385,0.0529 0,0.0291 0.1211,0.17399 0.26911,0.322 l 0.26911,0.26911 0.0153,0.52457 c 0.0123,0.42087 8e-4,0.53374 -0.0581,0.57098 -0.0404,0.0255 -0.33036,0.0475 -0.6444,0.0488 -1.08733,0.005 -11.43641,0.62328 -11.56355,0.69133 l -0.35706,0.0319 c -0.19248,0.0172 -1.01644,0.11937 -4.20107,0.73738 -2.17948,0.42295 -5.05753,1.00613 -6.39566,1.29597 0,0 -1.64979,0.27727 -2.48261,0.34254 -1.78527,0.13992 -5.37122,0.10375 -5.37122,0.10375 0,0 -3.6298,0.0749 -5.42087,-0.17095 -0.94264,-0.12938 -1.84511,-0.46607 -2.77176,-0.68201 -0.93078,-0.21689 -1.85422,-0.47974 -2.80014,-0.61623 -1.16474,-0.16808 -2.34624,-0.19204 -3.52177,-0.24696 -1.34158,-0.0627 -3.76519,-0.0923 -4.02803,-0.0941 l -0.4779,-0.003 -0.44043,0.35234 c -0.24224,0.19378 -0.47914,0.37304 -0.52645,0.39836 -0.0949,0.0508 -1.124,0.43378 -2.04951,0.76274 -0.32771,0.11648 -0.79692,0.3025 -1.0427,0.41339 -0.92651,0.41803 -1.14646,0.45795 -2.82454,0.51265 -0.82237,0.0268 -1.5399,0.0577 -1.59452,0.0687 -0.0546,0.011 -0.12165,0.0711 -0.14896,0.13373 -0.0723,0.16577 -0.41275,0.23853 -1.34061,0.28654 -1.07179,0.0555 -2.11855,0.15203 -2.20953,0.20386 -0.0466,0.0265 0.058,0.043 0.27942,0.0439 0.40154,0.002 0.5332,0.0801 0.42514,0.25313 -0.0325,0.052 -0.0591,0.16041 -0.0591,0.24085 0,0.10498 -0.041,0.17542 -0.14517,0.24962 -0.14365,0.10228 -0.17867,0.10332 -3.32749,0.098 -3.03566,-0.005 -3.18456,-0.01 -3.23118,-0.0967 z"
         id="path4159"
         inkscape:connector-curvature="0"
         sodipodi:nodetypes="cssssscssssscscssssssssscssssssscssscssssssssscscssscscssssssssscssssscsssssscccsssssssccscssccscsssscscscsssacaaaascsssssssssssssscc" />
    </g>
  </g>
</svg>
