<?xml version="1.0" encoding="UTF-8" standalone="no"?>
<!-- Created with Inkscape (http://www.inkscape.org/) -->

<svg
   xmlns:dc="http://purl.org/dc/elements/1.1/"
   xmlns:cc="http://creativecommons.org/ns#"
   xmlns:rdf="http://www.w3.org/1999/02/22-rdf-syntax-ns#"
   xmlns:svg="http://www.w3.org/2000/svg"
   xmlns="http://www.w3.org/2000/svg"
   xmlns:sodipodi="http://sodipodi.sourceforge.net/DTD/sodipodi-0.dtd"
   xmlns:inkscape="http://www.inkscape.org/namespaces/inkscape"
   width="6.2079868mm"
   height="1.2329113mm"
   viewBox="0 0 21.996804 4.3685835"
   id="svg2"
   version="1.1"
   inkscape:version="0.91 r13725"
   sodipodi:docname="Dragonfly.svg">
  <defs
     id="defs4" />
  <sodipodi:namedview
     id="base"
     pagecolor="#ffffff"
     bordercolor="#666666"
     borderopacity="1.0"
     inkscape:pageopacity="0.0"
     inkscape:pageshadow="2"
     inkscape:zoom="44.8"
     inkscape:cx="6.0833606"
     inkscape:cy="2.3926974"
     inkscape:document-units="px"
     inkscape:current-layer="g3347"
     showgrid="false"
     fit-margin-top="0"
     fit-margin-left="0"
     fit-margin-right="0"
     fit-margin-bottom="0"
     inkscape:window-width="1451"
     inkscape:window-height="707"
     inkscape:window-x="2399"
     inkscape:window-y="141"
     inkscape:window-maximized="0" />
  <metadata
     id="metadata7">
    <rdf:RDF>
      <cc:Work
         rdf:about="">
        <dc:format>image/svg+xml</dc:format>
        <dc:type
           rdf:resource="http://purl.org/dc/dcmitype/StillImage" />
        <dc:title></dc:title>
      </cc:Work>
    </rdf:RDF>
  </metadata>
  <g
     inkscape:label="Layer 1"
     inkscape:groupmode="layer"
     id="layer1"
     transform="translate(-122.9814,-691.2763)">
    <g
       id="g3347"
       transform="translate(-1495.0258,872.7718)">
      <path
         style="fill:#000000;fill-opacity:1"
         d="m 1632.6212,-177.14383 c -0.051,-0.01 -0.1181,-0.0311 -0.1507,-0.0488 -0.032,-0.0178 -0.085,-0.0456 -0.1167,-0.0618 -0.032,-0.0162 -0.072,-0.0435 -0.09,-0.0607 -0.018,-0.0174 -0.064,-0.0401 -0.1034,-0.0511 -0.1092,-0.0307 -0.234,-0.0947 -0.2746,-0.14094 -0.029,-0.0328 -0.036,-0.0525 -0.036,-0.0919 0,-0.0275 0.01,-0.0564 0.014,-0.0642 0.023,-0.0232 -0.01,-0.0395 -0.062,-0.0354 l -0.052,0.004 -0.01,0.14684 -0.01,0.14685 -0.522,0.003 c -0.3559,0.002 -0.5261,-9e-4 -0.5346,-0.01 -0.019,-0.0189 -0.025,-0.60623 -0.01,-0.62854 0.011,-0.0125 0.041,-0.0172 0.1156,-0.0175 l 0.1013,-3.1e-4 -0.038,-0.032 c -0.034,-0.0292 -0.038,-0.0379 -0.038,-0.098 l 2e-4,-0.066 -0.326,-0.145 c -0.336,-0.1494 -0.3472,-0.15631 -0.4425,-0.27039 -0.016,-0.0194 -0.034,-0.0224 -0.1391,-0.0224 -0.066,2e-5 -0.4712,-0.009 -0.9,-0.0184 -0.4288,-0.0101 -0.7872,-0.0155 -0.7966,-0.0119 -0.01,0.004 -0.037,0.0506 -0.063,0.1044 -0.03,0.0628 -0.055,0.10224 -0.073,0.11004 -0.014,0.007 -0.3097,0.10554 -0.6554,0.21965 -0.3457,0.11413 -0.6444,0.21487 -0.6637,0.22391 -0.034,0.0161 -0.034,0.0164 -0.01,0.0173 0.016,4.9e-4 0.1378,-0.0257 0.2702,-0.0583 0.3245,-0.0797 0.4474,-0.106 0.4597,-0.0984 0.02,0.0122 0.011,0.0409 -0.017,0.0513 -0.015,0.006 -0.2941,0.0777 -0.6196,0.15974 -0.4806,0.1211 -0.5959,0.15392 -0.6121,0.1742 -0.011,0.0138 -0.032,0.0395 -0.045,0.0572 -0.049,0.0633 -0.1384,0.0621 -0.2052,-0.003 l -0.036,-0.0355 -0.1044,0.0353 c -0.057,0.0194 -0.114,0.0353 -0.1257,0.0353 -0.018,0 -0.021,0.01 -0.022,0.0617 -10e-5,0.0751 0,0.0816 -0.068,0.10654 -0.044,0.0174 -0.1084,0.0198 -0.5314,0.0198 -0.5996,0 -0.5991,1.3e-4 -0.5991,-0.14608 l 0,-0.0654 -0.038,0 c -0.056,0 -0.091,-0.0286 -0.091,-0.0752 0,-0.0475 0.031,-0.0775 0.078,-0.0775 0.02,0 0.043,-0.009 0.052,-0.0194 0.035,-0.0429 0.095,-0.0563 0.2746,-0.0625 0.107,-0.004 0.1756,-0.0107 0.1747,-0.0179 -7e-4,-0.007 -0.038,-0.0255 -0.082,-0.0423 -0.068,-0.0255 -0.085,-0.038 -0.1065,-0.0758 -0.014,-0.0249 -0.036,-0.0493 -0.05,-0.0542 -0.019,-0.008 -0.024,-0.0191 -0.024,-0.0613 0,-0.04 -0.029,-0.11933 -0.1193,-0.33519 -0.066,-0.15557 -0.1231,-0.28285 -0.1278,-0.28285 0,0 -0.028,0.0172 -0.051,0.0383 l -0.042,0.0383 0.01,0.25226 c 0.01,0.13873 0.01,0.25569 0,0.25987 -0.014,0.0132 -0.1596,0.0329 -0.1924,0.0261 -0.027,-0.006 -0.035,3.5e-4 -0.061,0.0415 -0.016,0.0264 -0.031,0.0525 -0.031,0.0579 0,0.0147 -0.097,0.0821 -0.1563,0.10817 -0.086,0.0381 -0.1685,0.0417 -0.2696,0.0117 l -0.088,-0.0263 -0.069,0.0257 c -0.038,0.0142 -0.1231,0.0468 -0.1892,0.0727 l -0.1205,0.047 0,0.20961 c 0,0.11528 0,0.21797 -0.01,0.22819 -0.01,0.0165 -0.065,0.0186 -0.5449,0.0186 l -0.5378,0 -0.063,0.0289 c -0.034,0.0159 -0.1001,0.037 -0.1453,0.047 -0.045,0.01 -0.1034,0.0286 -0.1292,0.0412 -0.2046,0.10055 -0.3114,0.12079 -0.552,0.10463 -0.2149,-0.0144 -0.2732,-0.0346 -0.4568,-0.15795 -0.102,-0.0686 -0.071,-0.0637 -0.4143,-0.0638 -0.28,-6e-5 -0.3197,-0.002 -0.3261,-0.0186 0,-0.0102 -0.01,-0.0871 -0.01,-0.17072 0,-0.11104 0,-0.15356 -0.014,-0.15742 -0.01,-0.003 -0.07,-0.0105 -0.138,-0.0168 -0.091,-0.009 -0.1786,-0.0281 -0.3348,-0.0751 -0.1163,-0.035 -0.2174,-0.0613 -0.2247,-0.0585 -0.024,0.01 -0.05,0.0907 -0.057,0.1822 -0.01,0.0881 -0.01,0.0916 -0.059,0.13803 -0.049,0.0446 -0.056,0.0476 -0.1215,0.0476 -0.111,0 -0.1078,0.005 -0.099,-0.1379 0.01,-0.10361 0.01,-0.12288 -0.01,-0.1183 -0.011,0.004 -0.02,0.0394 -0.029,0.11615 l -0.012,0.11068 -0.08,0.004 -0.08,0.004 -0.052,-0.0564 c -0.045,-0.0489 -0.052,-0.0626 -0.05,-0.10336 0,-0.0747 0,-0.0764 -0.046,-0.0764 -0.1143,0 -0.1817,-0.14284 -0.136,-0.28816 0.02,-0.063 0.02,-0.069 10e-5,-0.13268 -0.038,-0.12464 -0.029,-0.11956 -0.2289,-0.11956 -0.1484,0 -0.1757,-0.003 -0.1817,-0.0185 0,-0.0102 -0.01,-0.0812 -0.01,-0.15763 0,-0.0765 0,-0.14742 0.01,-0.15764 0.01,-0.0167 0.1134,-0.0185 1.0915,-0.0185 0.5965,0 1.0933,-0.004 1.104,-0.008 0.019,-0.008 -0.1158,-0.0596 -0.2848,-0.11 -0.093,-0.0277 -0.097,-0.0306 -0.097,-0.0656 0,-0.0228 0.01,-0.0305 0.035,-0.036 0.049,-0.01 0.061,-0.0293 0.056,-0.0884 0,-0.0458 -0.01,-0.0528 -0.048,-0.0714 -0.061,-0.0287 -0.058,-0.0606 0.01,-0.0923 0.032,-0.0148 0.035,-0.0224 0.035,-0.0694 0,-0.0482 0,-0.0541 -0.038,-0.0695 -0.03,-0.013 -0.038,-0.024 -0.038,-0.0488 0,-0.0249 0.01,-0.0347 0.035,-0.0443 0.019,-0.007 0.041,-0.0254 0.049,-0.0415 0.013,-0.029 0.059,-0.0534 0.1806,-0.0959 0.038,-0.0134 0.1088,-0.0225 0.2022,-0.0261 0.154,-0.006 0.2031,1.8e-4 0.2031,0.0254 0,0.0229 0.034,0.0484 0.047,0.0353 0.01,-0.006 0.011,-0.23342 0.012,-0.52427 l 0,-0.51357 -0.034,-0.053 c -0.018,-0.0292 -0.1008,-0.14895 -0.1831,-0.26621 -0.082,-0.11727 -0.1499,-0.2208 -0.1499,-0.23009 0,-0.01 0.018,-0.0343 0.041,-0.0556 0.03,-0.0277 0.041,-0.0489 0.041,-0.0743 0,-0.0195 0.01,-0.0378 0.014,-0.0405 0.01,-0.003 0.4447,0.0187 0.9701,0.0478 0.7325,0.0405 0.9575,0.0495 0.9642,0.0388 0,-0.008 0,-0.0549 -0.01,-0.10486 -0.016,-0.10587 -0.01,-0.13195 0.042,-0.13195 0.019,0 0.037,0.005 0.04,0.0102 0.01,0.0153 0.077,0.48202 0.077,0.53228 0,0.0344 -0.01,0.0451 -0.027,0.0522 -0.014,0.005 -0.034,0.008 -0.044,0.007 -0.01,-9.6e-4 0,0.006 0.017,0.0148 0.019,0.01 0.046,0.017 0.058,0.0173 0.012,2.9e-4 0.031,0.008 0.041,0.0162 0.012,0.0104 0.3306,0.0519 0.9466,0.12357 0.5104,0.0594 0.9426,0.10782 0.9604,0.1077 0.025,-1.7e-4 0.033,-0.006 0.033,-0.0244 0,-0.0133 -0.027,-0.12822 -0.058,-0.25543 -0.033,-0.12721 -0.058,-0.24335 -0.058,-0.25807 0,-0.0147 -0.013,-0.0476 -0.031,-0.0731 l -0.031,-0.0464 0.045,-0.0768 c 0.048,-0.0816 0.079,-0.0977 0.098,-0.0503 0.01,0.0145 0.018,0.13216 0.027,0.26138 l 0.016,0.23496 0.093,0.21733 c 0.066,0.15522 0.1137,0.24811 0.1667,0.32502 0.075,0.10714 0.075,0.10769 0.1245,0.10785 0.028,9e-5 0.4857,0.0513 1.0182,0.11397 l 0.9682,0.11382 0.095,-0.0279 c 0.1,-0.0294 0.093,-0.0235 0.1658,-0.14098 0.022,-0.0346 0.054,-0.0486 0.3937,-0.17365 0.2036,-0.0748 0.376,-0.13983 0.3832,-0.14453 0.01,-0.005 0.016,-0.0304 0.021,-0.0571 0.017,-0.10856 0.086,-0.19474 0.1961,-0.24537 0.045,-0.0206 0.078,-0.0418 0.076,-0.047 -0.011,-0.0189 -0.1657,-0.0737 -0.204,-0.0727 -0.085,0.003 -0.1137,-0.0221 -0.1717,-0.14597 -0.03,-0.0627 -0.053,-0.12045 -0.053,-0.1282 0,-0.0261 0.043,-0.053 0.084,-0.053 0.023,0 0.2033,0.0556 0.4012,0.12335 0.1979,0.0679 0.3765,0.12335 0.3968,0.12335 0.041,0 0.1871,0.0495 0.2258,0.0766 0.013,0.01 0.038,0.0178 0.054,0.0183 0.016,4.5e-4 0.04,0.006 0.053,0.0107 0.021,0.009 0.019,0.0109 -0.014,0.0183 -0.038,0.009 -0.052,0.0331 -0.023,0.0441 0.01,0.003 0.04,0.003 0.071,-2.8e-4 0.04,-0.005 0.055,-0.0113 0.055,-0.0253 0,-0.0105 0.014,-0.0255 0.033,-0.0334 0.027,-0.0117 0.076,-0.01 0.2731,0.0138 0.1325,0.0155 0.255,0.0253 0.2723,0.022 0.045,-0.009 0.049,-0.0325 0.013,-0.071 -0.028,-0.0293 -0.085,-0.0483 -0.4664,-0.15443 -0.2391,-0.0666 -0.4395,-0.12573 -0.4455,-0.13138 -0.01,-0.01 0.01,-0.0898 0.059,-0.26635 l 0.018,-0.0615 0.054,0.003 c 0.031,0.002 0.061,0.009 0.068,0.015 0.01,0.007 0.1711,0.0564 0.3643,0.11028 0.4255,0.11884 0.4039,0.11109 0.4039,0.14469 0,0.0155 0.021,0.05 0.05,0.0809 0.048,0.051 0.061,0.0575 0.2547,0.12184 0.2043,0.0679 0.2389,0.087 0.2735,0.15155 0.011,0.0207 0.01,0.0217 -0.033,0.014 -0.098,-0.0181 -0.1453,-0.0214 -0.1453,-0.0101 0,0.011 0.122,0.13246 0.133,0.13246 0.034,0 4.9351,0.56544 4.9429,0.57032 0.015,0.01 0.013,0.0772 0,0.10683 -0.01,0.0139 -0.07,0.0925 -0.1379,0.17482 -0.2046,0.24834 -0.4828,0.61924 -0.479,0.63879 0,0.01 0.019,0.023 0.038,0.0288 0.019,0.006 0.045,0.0152 0.056,0.021 0.013,0.007 0.03,0.006 0.045,-0.002 0.019,-0.0104 0.027,-0.009 0.04,0.009 0.014,0.0202 0.017,0.0203 0.038,9.6e-4 0.02,-0.018 0.024,-0.0183 0.04,-0.003 0.016,0.0159 0.02,0.0155 0.035,-0.003 0.025,-0.0296 0.1378,-0.29763 0.2408,-0.57307 0.048,-0.12923 0.095,-0.24243 0.1041,-0.25156 0.013,-0.0136 0.019,-0.0139 0.034,-0.002 0.01,0.009 0.018,0.0251 0.018,0.0373 0,0.0302 -0.139,0.40088 -0.2164,0.57739 -0.052,0.11769 -0.06,0.14638 -0.048,0.1594 0.013,0.0128 0.2262,0.0199 1.1119,0.0366 0.628,0.0118 1.1269,0.0165 1.1673,0.011 0.039,-0.006 0.089,-0.008 0.1117,-0.005 0.023,0.003 0.1441,0.0107 0.2701,0.0173 0.2334,0.0121 0.282,0.0183 0.282,0.0362 0,0.0141 -0.065,0.0459 -0.094,0.0459 -0.018,0 -0.023,0.007 -0.021,0.026 0.01,0.0531 -0.01,0.0537 -1.2666,0.0617 -0.6522,0.004 -1.2333,0.0118 -1.2916,0.0171 -0.058,0.006 -0.1189,0.01 -0.1351,0.0105 -0.016,5.4e-4 -0.062,0.008 -0.1023,0.0154 -0.071,0.0139 -0.076,0.0133 -0.1308,-0.017 -0.032,-0.0173 -0.077,-0.0315 -0.099,-0.0315 -0.023,0 -0.059,-0.007 -0.08,-0.0159 -0.023,-0.01 -0.079,-0.0153 -0.1337,-0.0147 l -0.094,9.6e-4 0,0.0745 c 0,0.0447 0,0.0811 0.011,0.091 0.011,0.0142 0.4152,0.0166 2.807,0.0166 l 2.7934,0 0.01,0.13804 c 0.01,0.1049 0,0.20289 -0.016,0.40823 -0.013,0.14861 -0.03,0.41029 -0.035,0.58151 -0.01,0.17254 -0.016,0.32572 -0.023,0.34363 l -0.013,0.0323 -1.9543,0 c -2.0815,0 -2.0192,-0.002 -2.0906,0.0546 -0.015,0.012 -0.083,0.0496 -0.1504,0.0834 -0.1561,0.0783 -0.2578,0.0972 -0.5205,0.0966 -0.2826,-6.1e-4 -0.352,-0.0166 -0.5586,-0.12906 -0.035,-0.0191 -0.077,-0.0476 -0.094,-0.0634 -0.016,-0.0158 -0.046,-0.0324 -0.065,-0.0371 -0.068,-0.0162 -0.2091,-0.0769 -0.26,-0.11182 -0.1117,-0.077 -0.1142,-0.1752 -0.01,-0.26186 0.015,-0.0121 0.023,-0.026 0.018,-0.0309 -0.01,-0.005 -0.074,-0.0124 -0.1535,-0.0168 -0.1249,-0.007 -0.1439,-0.006 -0.1439,0.01 0,0.01 0.016,0.03 0.036,0.0447 0.067,0.0489 0.09,0.13875 0.052,0.19431 -0.043,0.0616 -0.1873,0.13534 -0.3402,0.17414 -0.039,0.01 -0.084,0.028 -0.1018,0.0403 -0.017,0.0123 -0.064,0.0383 -0.104,0.0577 -0.04,0.0194 -0.079,0.0406 -0.087,0.0472 -0.025,0.0206 -0.1145,0.0485 -0.2122,0.066 -0.1207,0.0216 -0.4493,0.0206 -0.5729,-0.002 z m -7.0367,-0.43527 c 0.023,-0.0143 0.027,-0.0265 0.027,-0.0914 0,-0.0574 0,-0.0765 -0.018,-0.0819 -0.011,-0.004 -0.2345,-0.007 -0.4984,-0.007 -0.2638,0 -0.488,0.003 -0.4983,0.007 -0.027,0.0104 -0.027,0.14795 8e-4,0.17058 0.041,0.0346 0.9333,0.0371 0.988,0.003 z m -6.4721,-0.16091 c 0,-0.0132 0,-0.0196 -0.021,-0.0196 -0.013,0 -0.024,0.007 -0.024,0.0157 0,0.0359 0.038,0.0393 0.045,0.004 z m -0.3209,-0.0314 c 0,-0.0251 -0.034,-0.0215 -0.039,0.004 0,0.0157 0,0.0205 0.017,0.0175 0.012,-0.002 0.022,-0.0121 0.022,-0.0216 z m 1.1066,-0.12432 c 0,-0.007 -0.033,-0.0311 -0.077,-0.0551 -0.072,-0.0387 -0.09,-0.0437 -0.1647,-0.0437 -0.046,0 -0.084,0.005 -0.084,0.0113 0,0.0121 0.1271,0.053 0.2171,0.0698 0.031,0.006 0.061,0.0162 0.069,0.0235 0.014,0.0146 0.034,0.0118 0.04,-0.006 z m 14.4876,-0.0122 c 0.013,-0.017 0.024,-0.0409 0.024,-0.0532 0,-0.0408 -0.098,-0.0588 -0.175,-0.032 -0.031,0.0106 -0.041,0.01 -0.057,-0.005 -0.015,-0.0137 -0.055,-0.0189 -0.1659,-0.0219 l -0.1459,-0.004 -0.011,0.0381 c -0.01,0.021 -0.015,0.0382 -0.022,0.0382 -0.01,0 -0.012,0.0105 -0.012,0.0232 0,0.0353 0.04,0.0401 0.378,0.0449 l 0.1607,0.002 z m -9.2,0.01 c 0.012,-0.008 0.012,-0.0119 0,-0.0216 -0.039,-0.0307 -0.1053,-0.0388 -0.3158,-0.0388 -0.2229,0 -0.2809,0.009 -0.2809,0.0405 0,0.0149 0.033,0.0182 0.2085,0.0211 0.1146,0.002 0.2455,0.005 0.2907,0.006 0.045,9.5e-4 0.089,-0.002 0.098,-0.008 z m -5.7014,-0.21284 c 0.01,-0.0106 -0.2375,-0.14131 -0.2638,-0.14131 -0.018,0 -0.014,0.0305 0.01,0.0477 0.011,0.009 0.029,0.0355 0.041,0.0601 l 0.023,0.0448 0.093,0 c 0.052,0 0.096,-0.005 0.1001,-0.0114 z m 3.7976,-0.337 c 0.096,-0.0378 0.1059,-0.0449 0.1254,-0.0912 0.01,-0.0199 0.034,-0.062 0.059,-0.0934 0.027,-0.0345 0.039,-0.0615 0.033,-0.0679 -0.01,-0.006 -0.079,-0.01 -0.1625,-0.008 l -0.1517,0.003 0,0.12847 c 0,0.12111 3e-4,0.15935 0.014,0.15935 0,0 0.042,-0.014 0.086,-0.0313 z m 8.4387,-0.0597 c 0,-0.0274 0.018,-0.0619 0.031,-0.0766 0.053,-0.0556 0.033,-0.0599 -0.3092,-0.0654 -0.2361,-0.004 -0.3125,-0.002 -0.3091,0.009 0,0.008 0.057,0.0375 0.1219,0.0664 0.065,0.0291 0.1322,0.0686 0.1506,0.088 l 0.034,0.0353 0.1371,-0.003 0.1371,-0.003 z m -11.0202,-0.22341 0.1,-0.009 -0.077,-0.006 c -0.068,-0.005 -0.076,-0.009 -0.08,-0.0323 0,-0.0164 -0.014,-0.0291 -0.032,-0.0336 -0.039,-0.01 -0.062,9.6e-4 -0.076,0.0362 -0.01,0.0258 -0.018,0.0296 -0.065,0.0296 -0.032,0 -0.051,0.005 -0.047,0.0118 0.01,0.0139 0.1356,0.0152 0.2761,0.003 z m 3.6837,-0.25711 c -0.023,-0.0496 -0.034,-0.0639 -0.041,-0.0519 -0.016,0.0258 -3e-4,0.0985 0.026,0.12164 0.042,0.0369 0.05,0.005 0.015,-0.0697 z m 0.1107,-1.30526 c -5e-4,-0.0625 -0.031,-0.0975 -0.043,-0.0499 -0.01,0.0298 -0.026,0.0298 -0.2736,0 -0.2334,-0.0281 -0.235,-0.0281 -0.235,-0.006 0,0.0249 0,0.0257 0.229,0.0511 0.2693,0.0302 0.3232,0.031 0.323,0.005 z m -3.5486,-0.39831 c 0.098,-0.007 0.1104,-0.0105 0.1274,-0.0364 0.034,-0.0533 0.014,-0.0629 -0.239,-0.11035 -0.2584,-0.0485 -0.2751,-0.0505 -0.2751,-0.0336 0,0.0128 0.073,0.11941 0.1099,0.16156 0.026,0.0296 0.076,0.033 0.2768,0.0187 z m 7.4058,-0.17933 c 0.01,-0.008 0.01,-0.0167 0,-0.0237 -0.016,-0.0162 -0.3972,-0.15196 -0.408,-0.14545 -0.049,0.0293 0.261,0.19492 0.3483,0.1863 0.025,-0.003 0.051,-0.0102 0.058,-0.0171 z"
         id="path3353"
         inkscape:connector-curvature="0"
         sodipodi:nodetypes="cscsssssscccsccscsccsscssscsssscssscsccscssscssscscssssssccscssssscsscscscsssssscscssssssscscccsssscssssscssssscscsscssscscssssscsccsccsssscscsssscssscsscscscscsscscsssscccsscscsscscscscsscscsssccscccsccscsccsscssssssssscssscscscscsssccssssccssssssssscscscccscsccccsssssssscsssscccsscsccsssccssssssssscscssssscscsssssscsscccsscscscssssccsccssscssssssccssc" />
    </g>
  </g>
</svg>
