<?xml version="1.0" encoding="UTF-8" standalone="no"?>
<!-- Created with Inkscape (http://www.inkscape.org/) -->

<svg
   xmlns:dc="http://purl.org/dc/elements/1.1/"
   xmlns:cc="http://creativecommons.org/ns#"
   xmlns:rdf="http://www.w3.org/1999/02/22-rdf-syntax-ns#"
   xmlns:svg="http://www.w3.org/2000/svg"
   xmlns="http://www.w3.org/2000/svg"
   xmlns:sodipodi="http://sodipodi.sourceforge.net/DTD/sodipodi-0.dtd"
   xmlns:inkscape="http://www.inkscape.org/namespaces/inkscape"
   width="6.4942956mm"
   height="1.2896068mm"
   viewBox="0 0 23.011284 4.5694729"
   id="svg2"
   version="1.1"
   inkscape:version="0.91 r13725"
   sodipodi:docname="Dragonfly.svg">
  <defs
     id="defs4" />
  <sodipodi:namedview
     id="base"
     pagecolor="#ffffff"
     bordercolor="#666666"
     borderopacity="1.0"
     inkscape:pageopacity="0.0"
     inkscape:pageshadow="2"
     inkscape:zoom="44.8"
     inkscape:cx="9.4936392"
     inkscape:cy="2.3927566"
     inkscape:document-units="px"
     inkscape:current-layer="g3347"
     showgrid="false"
     fit-margin-top="0"
     fit-margin-left="0"
     fit-margin-right="0"
     fit-margin-bottom="0"
     inkscape:window-width="1920"
     inkscape:window-height="1017"
     inkscape:window-x="-8"
     inkscape:window-y="-8"
     inkscape:window-maximized="1" />
  <metadata
     id="metadata7">
    <rdf:RDF>
      <cc:Work
         rdf:about="">
        <dc:format>image/svg+xml</dc:format>
        <dc:type
           rdf:resource="http://purl.org/dc/dcmitype/StillImage" />
        <dc:title></dc:title>
      </cc:Work>
    </rdf:RDF>
  </metadata>
  <g
     inkscape:label="Layer 1"
     inkscape:groupmode="layer"
     id="layer1"
     transform="translate(-122.9863,-691.07547)">
    <g
       id="g3347"
       transform="translate(-1495.0258,872.7718)">
      <path
         style="fill:#000000;fill-opacity:1"
         d="m 1633.2927,-177.14461 c -0.053,-0.01 -0.1235,-0.0325 -0.1576,-0.0511 -0.034,-0.0186 -0.089,-0.0477 -0.122,-0.0646 -0.033,-0.0169 -0.075,-0.0455 -0.094,-0.0635 -0.019,-0.0182 -0.067,-0.0419 -0.1081,-0.0534 -0.1143,-0.0321 -0.2448,-0.099 -0.2873,-0.14742 -0.03,-0.0343 -0.038,-0.0549 -0.038,-0.0961 0,-0.0288 0.01,-0.059 0.015,-0.0672 0.024,-0.0243 -0.01,-0.0413 -0.065,-0.037 l -0.054,0.004 -0.01,0.15359 -0.01,0.1536 -0.546,0.003 c -0.3722,0.002 -0.5502,-9.4e-4 -0.5591,-0.01 -0.02,-0.0198 -0.026,-0.63409 -0.01,-0.65743 0.011,-0.0131 0.043,-0.018 0.1209,-0.0183 l 0.106,-3.3e-4 -0.04,-0.0335 c -0.036,-0.0305 -0.04,-0.0396 -0.04,-0.10247 l 2e-4,-0.069 -0.341,-0.15167 c -0.3514,-0.15627 -0.3632,-0.16349 -0.4628,-0.28282 -0.017,-0.0203 -0.036,-0.0234 -0.1455,-0.0234 -0.069,2e-5 -0.4929,-0.009 -0.9414,-0.0192 -0.4485,-0.0106 -0.8234,-0.0162 -0.8332,-0.0124 -0.01,0.004 -0.039,0.0529 -0.066,0.1092 -0.031,0.0657 -0.058,0.10694 -0.076,0.1151 -0.015,0.007 -0.3239,0.11039 -0.6855,0.22975 -0.3616,0.11937 -0.674,0.22475 -0.6942,0.2342 -0.036,0.0168 -0.036,0.0172 -0.01,0.0181 0.017,5.1e-4 0.1441,-0.0269 0.2826,-0.061 0.3394,-0.0834 0.4679,-0.11088 0.4808,-0.10293 0.021,0.0128 0.011,0.0428 -0.018,0.0537 -0.016,0.006 -0.3076,0.0813 -0.6481,0.16709 -0.5026,0.12666 -0.6232,0.16099 -0.6402,0.1822 -0.011,0.0144 -0.033,0.0413 -0.047,0.0598 -0.051,0.0662 -0.1447,0.065 -0.2146,-0.003 l -0.038,-0.0371 -0.1092,0.0369 c -0.06,0.0203 -0.1192,0.0369 -0.1314,0.0369 -0.019,0 -0.022,0.0105 -0.023,0.0645 -2e-4,0.0786 0,0.0854 -0.071,0.11143 -0.046,0.0182 -0.1133,0.0207 -0.5558,0.0207 -0.6272,0 -0.6266,1.4e-4 -0.6266,-0.15279 l 0,-0.0684 -0.04,0 c -0.059,0 -0.095,-0.0299 -0.095,-0.0787 0,-0.0497 0.032,-0.0811 0.082,-0.0811 0.021,0 0.045,-0.009 0.054,-0.0203 0.037,-0.0449 0.099,-0.0589 0.2872,-0.0654 0.112,-0.004 0.1837,-0.0112 0.1828,-0.0187 -8e-4,-0.007 -0.04,-0.0267 -0.086,-0.0443 -0.071,-0.0267 -0.089,-0.0397 -0.1114,-0.0793 -0.015,-0.026 -0.038,-0.0516 -0.052,-0.0567 -0.02,-0.008 -0.025,-0.02 -0.025,-0.0641 0,-0.0418 -0.03,-0.12482 -0.1248,-0.3506 -0.069,-0.16272 -0.1287,-0.29585 -0.1336,-0.29585 0,0 -0.029,0.018 -0.053,0.0401 l -0.044,0.0401 0.011,0.26385 c 0.01,0.14511 0.01,0.26744 0,0.27182 -0.015,0.0138 -0.167,0.0344 -0.2013,0.0273 -0.028,-0.006 -0.037,3.6e-4 -0.064,0.0434 -0.017,0.0276 -0.032,0.0549 -0.032,0.0606 0,0.0154 -0.1019,0.0859 -0.1635,0.11314 -0.09,0.0398 -0.1762,0.0436 -0.282,0.0122 l -0.092,-0.0275 -0.072,0.0269 c -0.04,0.0148 -0.1287,0.049 -0.1979,0.076 l -0.126,0.0492 0,0.21925 c 0,0.12058 0,0.22799 -0.01,0.23868 -0.01,0.0173 -0.068,0.0194 -0.5699,0.0194 l -0.5625,0 -0.066,0.0302 c -0.036,0.0166 -0.1047,0.0387 -0.152,0.0492 -0.047,0.0104 -0.1081,0.0299 -0.1351,0.0431 -0.214,0.10517 -0.3257,0.12634 -0.5774,0.10944 -0.2248,-0.0151 -0.2858,-0.0362 -0.4778,-0.16521 -0.1067,-0.0717 -0.074,-0.0666 -0.4334,-0.0667 -0.2928,-6e-5 -0.3344,-0.002 -0.341,-0.0195 0,-0.0107 -0.01,-0.0911 -0.01,-0.17856 0,-0.11615 0,-0.16062 -0.015,-0.16466 -0.01,-0.003 -0.073,-0.011 -0.1444,-0.0176 -0.095,-0.009 -0.1868,-0.0294 -0.3502,-0.0785 -0.1216,-0.0366 -0.2274,-0.0641 -0.235,-0.0612 -0.025,0.01 -0.052,0.0949 -0.06,0.19057 -0.01,0.0922 -0.01,0.0958 -0.062,0.14438 -0.051,0.0466 -0.059,0.0498 -0.1271,0.0498 -0.1161,0 -0.1127,0.005 -0.1035,-0.14423 0.01,-0.10838 0.01,-0.12853 -0.01,-0.12374 -0.012,0.004 -0.021,0.0412 -0.03,0.12149 l -0.012,0.11576 -0.084,0.004 -0.084,0.004 -0.054,-0.059 c -0.047,-0.0511 -0.054,-0.0655 -0.052,-0.10811 0,-0.0781 0,-0.0799 -0.048,-0.0799 -0.1196,0 -0.1901,-0.14941 -0.1423,-0.3014 0.021,-0.0659 0.021,-0.0722 1e-4,-0.13878 -0.04,-0.13037 -0.03,-0.12506 -0.2394,-0.12506 -0.1552,0 -0.1838,-0.003 -0.1901,-0.0194 0,-0.0107 -0.01,-0.0849 -0.01,-0.16488 0,-0.08 0,-0.15419 0.01,-0.16488 0.01,-0.0175 0.1187,-0.0194 1.1417,-0.0194 0.6239,0 1.1436,-0.004 1.1548,-0.008 0.02,-0.008 -0.1212,-0.0623 -0.2979,-0.11506 -0.097,-0.029 -0.1015,-0.032 -0.1015,-0.0686 0,-0.0238 0.01,-0.0319 0.037,-0.0376 0.051,-0.0101 0.064,-0.0307 0.059,-0.0925 0,-0.0479 -0.01,-0.0552 -0.05,-0.0747 -0.064,-0.03 -0.061,-0.0634 0.01,-0.0965 0.033,-0.0155 0.037,-0.0234 0.037,-0.0726 0,-0.0504 0,-0.0566 -0.04,-0.0727 -0.031,-0.0136 -0.04,-0.0251 -0.04,-0.051 0,-0.0261 0.01,-0.0363 0.037,-0.0463 0.02,-0.007 0.043,-0.0266 0.051,-0.0434 0.014,-0.0303 0.062,-0.0559 0.1889,-0.10032 0.04,-0.014 0.1137,-0.0235 0.2114,-0.0273 0.1611,-0.006 0.2125,1.9e-4 0.2125,0.0266 0,0.0239 0.035,0.0506 0.049,0.0369 0.01,-0.006 0.012,-0.24415 0.013,-0.54837 l 0,-0.53717 -0.035,-0.0554 c -0.019,-0.0305 -0.1055,-0.1558 -0.1916,-0.27845 -0.086,-0.12266 -0.1567,-0.23095 -0.1567,-0.24066 0,-0.01 0.019,-0.0359 0.043,-0.0582 0.031,-0.029 0.043,-0.0512 0.043,-0.0777 0,-0.0204 0.01,-0.0395 0.015,-0.0424 0.01,-0.003 0.4651,0.0196 1.0147,0.05 0.7662,0.0424 1.0015,0.0518 1.0085,0.0406 0,-0.008 0,-0.0574 -0.01,-0.10968 -0.017,-0.11073 -0.01,-0.13801 0.044,-0.13801 0.02,0 0.039,0.005 0.042,0.0107 0.01,0.016 0.081,0.50418 0.081,0.55675 0,0.036 -0.01,0.0472 -0.028,0.0546 -0.015,0.005 -0.036,0.008 -0.046,0.007 -0.01,-0.001 0,0.006 0.018,0.0155 0.02,0.01 0.048,0.0178 0.061,0.0181 0.013,3e-4 0.032,0.008 0.043,0.0169 0.013,0.0109 0.3458,0.0543 0.9901,0.12925 0.5339,0.0621 0.986,0.11278 1.0046,0.11265 0.026,-1.7e-4 0.034,-0.006 0.034,-0.0255 0,-0.0139 -0.028,-0.13411 -0.061,-0.26717 -0.034,-0.13306 -0.061,-0.25453 -0.061,-0.26993 0,-0.0154 -0.014,-0.0498 -0.032,-0.0765 l -0.032,-0.0485 0.047,-0.0803 c 0.05,-0.0854 0.083,-0.10224 0.1025,-0.0526 0.01,0.0152 0.019,0.13824 0.028,0.2734 l 0.017,0.24576 0.097,0.22732 c 0.069,0.16236 0.1189,0.25951 0.1744,0.33996 0.078,0.11207 0.078,0.11264 0.1302,0.11281 0.029,9e-5 0.508,0.0537 1.065,0.11921 l 1.0127,0.11905 0.099,-0.0292 c 0.1041,-0.0308 0.097,-0.0246 0.1734,-0.14747 0.023,-0.0362 0.056,-0.0508 0.4118,-0.18163 0.2129,-0.0782 0.3933,-0.14626 0.4008,-0.15117 0.01,-0.005 0.017,-0.0318 0.022,-0.0597 0.018,-0.11356 0.09,-0.2037 0.2051,-0.25665 0.047,-0.0216 0.082,-0.0437 0.079,-0.0492 -0.012,-0.0198 -0.1733,-0.0771 -0.2133,-0.076 -0.089,0.003 -0.119,-0.0231 -0.1796,-0.15268 -0.031,-0.0656 -0.056,-0.12598 -0.056,-0.13409 0,-0.0273 0.045,-0.0554 0.088,-0.0554 0.024,0 0.2126,0.0581 0.4196,0.12902 0.207,0.071 0.3938,0.12902 0.4151,0.12902 0.043,0 0.1957,0.0518 0.2361,0.0801 0.014,0.01 0.04,0.0186 0.057,0.0191 0.017,4.7e-4 0.042,0.006 0.056,0.0112 0.022,0.009 0.02,0.0114 -0.015,0.0191 -0.04,0.009 -0.054,0.0346 -0.024,0.0461 0.01,0.003 0.042,0.003 0.074,-2.9e-4 0.042,-0.005 0.058,-0.0118 0.058,-0.0265 0,-0.011 0.015,-0.0267 0.034,-0.0349 0.028,-0.0122 0.08,-0.01 0.2856,0.0144 0.1386,0.0162 0.2668,0.0265 0.2849,0.023 0.047,-0.009 0.051,-0.034 0.013,-0.0743 -0.029,-0.0306 -0.089,-0.0505 -0.4878,-0.16153 -0.2501,-0.0697 -0.4597,-0.13151 -0.466,-0.13742 -0.01,-0.01 0.01,-0.0939 0.062,-0.27859 l 0.019,-0.0643 0.057,0.003 c 0.032,0.002 0.064,0.009 0.071,0.0157 0.01,0.007 0.179,0.059 0.381,0.11535 0.4451,0.1243 0.4225,0.11619 0.4225,0.15134 0,0.0162 0.022,0.0523 0.052,0.0846 0.05,0.0533 0.064,0.0601 0.2664,0.12744 0.2137,0.071 0.2499,0.091 0.2861,0.15852 0.012,0.0216 0.01,0.0227 -0.035,0.0146 -0.1024,-0.0189 -0.1519,-0.0224 -0.1519,-0.0106 0,0.0115 0.1276,0.13855 0.1391,0.13855 0.036,0 5.1619,0.59143 5.1701,0.59653 0.016,0.0101 0.014,0.0808 0,0.11174 -0.01,0.0145 -0.073,0.0968 -0.1442,0.18286 -0.2141,0.25975 -0.505,0.6477 -0.5011,0.66815 0,0.0105 0.02,0.0241 0.04,0.0301 0.02,0.006 0.047,0.0159 0.059,0.022 0.014,0.007 0.031,0.006 0.047,-0.002 0.02,-0.0109 0.028,-0.009 0.042,0.009 0.015,0.0211 0.018,0.0212 0.04,0.001 0.021,-0.0188 0.025,-0.0191 0.042,-0.003 0.017,0.0166 0.021,0.0162 0.037,-0.003 0.026,-0.031 0.1442,-0.31131 0.2519,-0.59941 0.05,-0.13517 0.099,-0.25358 0.1089,-0.26313 0.014,-0.0142 0.02,-0.0145 0.036,-0.002 0.01,0.009 0.019,0.0263 0.019,0.039 0,0.0316 -0.1454,0.41931 -0.2264,0.60393 -0.054,0.1231 -0.063,0.15311 -0.05,0.16673 0.013,0.0134 0.2365,0.0208 1.163,0.0383 0.6568,0.0124 1.1787,0.0173 1.2209,0.0115 0.041,-0.006 0.093,-0.008 0.1168,-0.005 0.024,0.003 0.1508,0.0112 0.2826,0.0181 0.2441,0.0127 0.2949,0.0192 0.2949,0.0379 0,0.0148 -0.068,0.048 -0.098,0.048 -0.019,0 -0.024,0.007 -0.022,0.0272 0.01,0.0555 -0.01,0.0562 -1.3249,0.0645 -0.6822,0.004 -1.29,0.0123 -1.3509,0.0179 -0.061,0.006 -0.1244,0.0105 -0.1413,0.011 -0.017,5.6e-4 -0.065,0.008 -0.1071,0.0161 -0.074,0.0145 -0.079,0.0139 -0.1368,-0.0178 -0.033,-0.0181 -0.08,-0.0329 -0.1034,-0.0329 -0.024,0 -0.062,-0.007 -0.084,-0.0166 -0.024,-0.01 -0.083,-0.016 -0.1398,-0.0154 l -0.098,0.001 0,0.0779 c 0,0.0468 0,0.0848 0.011,0.0952 0.012,0.0149 0.4343,0.0174 2.9361,0.0174 l 2.9218,0 0.01,0.14438 c 0.01,0.10972 0,0.21222 -0.017,0.427 -0.014,0.15544 -0.031,0.42915 -0.037,0.60824 -0.01,0.18047 -0.017,0.34069 -0.024,0.35942 l -0.014,0.0338 -2.0442,0 c -2.1772,0 -2.112,-0.002 -2.1867,0.0571 -0.016,0.0126 -0.087,0.0519 -0.1573,0.0872 -0.1633,0.0819 -0.2696,0.10162 -0.5444,0.10102 -0.2956,-6.4e-4 -0.3682,-0.0174 -0.5843,-0.13499 -0.037,-0.02 -0.081,-0.0498 -0.098,-0.0663 -0.017,-0.0165 -0.048,-0.0339 -0.068,-0.0388 -0.071,-0.0169 -0.2187,-0.0804 -0.2719,-0.11696 -0.1169,-0.0805 -0.1195,-0.18326 -0.01,-0.2739 0.016,-0.0127 0.024,-0.0272 0.019,-0.0323 -0.01,-0.005 -0.078,-0.013 -0.1606,-0.0176 -0.1306,-0.007 -0.1505,-0.006 -0.1505,0.0104 0,0.0103 0.017,0.0314 0.038,0.0468 0.07,0.0512 0.094,0.14513 0.054,0.20324 -0.045,0.0644 -0.1959,0.14157 -0.3558,0.18215 -0.041,0.0103 -0.088,0.0293 -0.1065,0.0422 -0.018,0.0129 -0.067,0.0401 -0.1088,0.0604 -0.042,0.0203 -0.083,0.0425 -0.091,0.0494 -0.026,0.0216 -0.1197,0.0507 -0.2219,0.069 -0.1263,0.0226 -0.47,0.0215 -0.5993,-0.002 z m -7.3601,-0.45528 c 0.024,-0.015 0.028,-0.0277 0.028,-0.0956 0,-0.06 0,-0.08 -0.019,-0.0857 -0.011,-0.004 -0.2453,-0.007 -0.5213,-0.007 -0.276,0 -0.5105,0.003 -0.5212,0.007 -0.028,0.0109 -0.028,0.15476 8e-4,0.17843 0.043,0.0362 0.9762,0.0388 1.0334,0.003 z m -6.7696,-0.1683 c 0,-0.0138 0,-0.0205 -0.022,-0.0205 -0.014,0 -0.025,0.007 -0.025,0.0164 0,0.0376 0.04,0.0411 0.047,0.004 z m -0.3357,-0.0329 c 0,-0.0263 -0.036,-0.0225 -0.041,0.004 0,0.0164 0,0.0214 0.018,0.0183 0.013,-0.002 0.023,-0.0126 0.023,-0.0226 z m 1.1575,-0.13004 c 0,-0.007 -0.034,-0.0325 -0.081,-0.0576 -0.075,-0.0405 -0.094,-0.0457 -0.1722,-0.0457 -0.048,0 -0.088,0.005 -0.088,0.0118 0,0.0127 0.1329,0.0554 0.2271,0.073 0.032,0.006 0.064,0.017 0.072,0.0246 0.015,0.0153 0.036,0.0123 0.042,-0.006 z m 15.1535,-0.0128 c 0.014,-0.0178 0.025,-0.0428 0.025,-0.0556 0,-0.0427 -0.1027,-0.0615 -0.183,-0.0335 -0.032,0.0111 -0.043,0.0101 -0.06,-0.005 -0.016,-0.0143 -0.058,-0.0198 -0.1736,-0.0229 l -0.1526,-0.004 -0.011,0.0399 c -0.01,0.022 -0.016,0.0399 -0.023,0.0399 -0.01,0 -0.012,0.011 -0.012,0.0243 0,0.0369 0.042,0.0419 0.3954,0.047 l 0.1681,0.002 z m -9.6229,0.01 c 0.013,-0.008 0.013,-0.0124 0,-0.0226 -0.041,-0.0321 -0.1101,-0.0406 -0.3303,-0.0406 -0.2331,0 -0.2938,0.009 -0.2938,0.0424 0,0.0156 0.034,0.019 0.2181,0.0221 0.1199,0.002 0.2568,0.005 0.3041,0.006 0.047,10e-4 0.093,-0.002 0.1019,-0.008 z m -5.9634,-0.22262 c 0.01,-0.0111 -0.2484,-0.14781 -0.276,-0.14781 -0.019,0 -0.015,0.0319 0.01,0.0499 0.011,0.009 0.03,0.0371 0.043,0.0629 l 0.024,0.0469 0.097,0 c 0.054,0 0.1007,-0.005 0.1047,-0.0119 z m 3.9721,-0.35249 c 0.1004,-0.0395 0.1108,-0.047 0.1312,-0.0954 0.01,-0.0208 0.036,-0.0648 0.062,-0.0977 0.028,-0.0361 0.041,-0.0643 0.035,-0.071 -0.01,-0.006 -0.083,-0.01 -0.17,-0.008 l -0.1587,0.003 0,0.13438 c 0,0.12667 3e-4,0.16667 0.015,0.16667 0,0 0.044,-0.0147 0.09,-0.0327 z m 8.8266,-0.0624 c 0,-0.0286 0.019,-0.0647 0.033,-0.0801 0.055,-0.0582 0.034,-0.0627 -0.3234,-0.0684 -0.247,-0.004 -0.3269,-0.002 -0.3233,0.009 0,0.008 0.06,0.0392 0.1275,0.0695 0.068,0.0304 0.1383,0.0717 0.1575,0.092 l 0.035,0.0369 0.1434,-0.003 0.1434,-0.003 z m -11.5267,-0.23367 0.1045,-0.009 -0.08,-0.006 c -0.071,-0.005 -0.08,-0.009 -0.084,-0.0338 0,-0.0172 -0.015,-0.0304 -0.034,-0.0351 -0.041,-0.0103 -0.065,0.001 -0.079,0.0379 -0.01,0.027 -0.019,0.031 -0.068,0.031 -0.034,0 -0.053,0.005 -0.049,0.0123 0.01,0.0145 0.1418,0.0159 0.2887,0.003 z m 3.853,-0.26893 c -0.024,-0.0519 -0.036,-0.0668 -0.043,-0.0543 -0.017,0.027 -3e-4,0.10307 0.027,0.12723 0.044,0.0386 0.052,0.005 0.016,-0.0729 z m 0.1158,-1.36526 c -5e-4,-0.0654 -0.032,-0.10204 -0.045,-0.0522 -0.01,0.0312 -0.027,0.0312 -0.2862,0 -0.2441,-0.0294 -0.2458,-0.0294 -0.2458,-0.006 0,0.026 0,0.0269 0.2396,0.0534 0.2816,0.0316 0.338,0.0324 0.3378,0.005 z m -3.7117,-0.41662 c 0.1023,-0.007 0.1154,-0.011 0.1332,-0.0381 0.036,-0.0558 0.015,-0.0658 -0.25,-0.11542 -0.2702,-0.0507 -0.2877,-0.0528 -0.2877,-0.0351 0,0.0134 0.076,0.1249 0.1149,0.16899 0.027,0.031 0.08,0.0345 0.2896,0.0196 z m 7.7462,-0.18758 c 0.01,-0.008 0.01,-0.0175 0,-0.0248 -0.017,-0.0169 -0.4155,-0.15894 -0.4268,-0.15213 -0.051,0.0307 0.273,0.20388 0.3644,0.19486 0.026,-0.003 0.053,-0.0107 0.061,-0.0179 z"
         id="path3353"
         inkscape:connector-curvature="0"
         sodipodi:nodetypes="cscsssssscccsccscsccsscssscsssscssscsccscssscssscscssssssccscssssscsscscscsssssscscssssssscscccsssscssssscssssscscsscssscscssssscsccsccsssscscsssscssscsscscscscsscscsssscccsscscsscscscscsscscsssccscccsccscsccsscssssssssscssscscscscsssccssssccssssssssscscscccscsccccsssssssscsssscccsscsccsssccssssssssscscssssscscsssssscsscccsscscscssssccsccssscssssssccssc" />
    </g>
  </g>
</svg>
