<?xml version="1.0" encoding="UTF-8" standalone="no"?>
<svg
   xmlns:dc="http://purl.org/dc/elements/1.1/"
   xmlns:cc="http://creativecommons.org/ns#"
   xmlns:rdf="http://www.w3.org/1999/02/22-rdf-syntax-ns#"
   xmlns:svg="http://www.w3.org/2000/svg"
   xmlns="http://www.w3.org/2000/svg"
   version="1.1"
   id="svg2"
   viewBox="0 0 5.9556002 1.1927147"
   width="17.8668006">
  <defs
     id="defs4" />
  <metadata
     id="metadata7">
    <rdf:RDF>
      <cc:Work
         rdf:about="">
        <dc:format>image/svg+xml</dc:format>
        <dc:type
           rdf:resource="http://purl.org/dc/dcmitype/StillImage" />
        <dc:title></dc:title>
      </cc:Work>
    </rdf:RDF>
  </metadata>
  <g
     transform="translate(-122.9976,-694.45268)"
     id="layer1">
    <g
       transform="translate(-1495.0258,872.7718)"
       id="g3347">
      <path
         id="path3353"
         d="m 1621.9934,-177.13153 c -0.014,-0.003 -0.032,-0.008 -0.041,-0.0133 -0.01,-0.005 -0.023,-0.0124 -0.032,-0.0169 -0.01,-0.004 -0.02,-0.0119 -0.025,-0.0165 0,-0.005 -0.017,-0.0109 -0.028,-0.0139 -0.03,-0.008 -0.064,-0.0258 -0.075,-0.0384 -0.01,-0.009 -0.01,-0.0143 -0.01,-0.0251 0,-0.008 0,-0.0154 0,-0.0175 0.01,-0.006 0,-0.0108 -0.017,-0.01 l -0.014,0.001 0,0.0401 0,0.0401 -0.1424,8.2e-4 c -0.097,5.4e-4 -0.1435,-2.5e-4 -0.1458,-0.003 -0.01,-0.005 -0.01,-0.16536 0,-0.17145 0,-0.003 0.011,-0.005 0.032,-0.005 l 0.028,-8e-5 -0.01,-0.009 c -0.01,-0.008 -0.01,-0.0103 -0.01,-0.0267 l 0,-0.018 -0.089,-0.0396 c -0.092,-0.0408 -0.095,-0.0426 -0.1207,-0.0737 0,-0.005 -0.01,-0.006 -0.038,-0.006 -0.018,0 -0.1286,-0.002 -0.2455,-0.005 -0.117,-0.003 -0.2148,-0.004 -0.2173,-0.003 0,0.001 -0.01,0.0138 -0.017,0.0285 -0.01,0.0171 -0.015,0.0279 -0.02,0.03 0,0.002 -0.084,0.0288 -0.1788,0.0599 -0.094,0.0311 -0.1758,0.0586 -0.181,0.0611 -0.01,0.004 -0.01,0.004 0,0.005 0,1.4e-4 0.038,-0.007 0.074,-0.0159 0.088,-0.0217 0.122,-0.0289 0.1253,-0.0268 0.01,0.003 0,0.0112 0,0.014 0,0.002 -0.08,0.0212 -0.169,0.0436 -0.1311,0.033 -0.1625,0.042 -0.167,0.0475 0,0.004 -0.01,0.0108 -0.012,0.0156 -0.013,0.0173 -0.038,0.0169 -0.056,-8.1e-4 l -0.01,-0.01 -0.029,0.01 c -0.015,0.005 -0.031,0.01 -0.034,0.01 0,0 -0.01,0.003 -0.01,0.0168 0,0.0205 0,0.0223 -0.019,0.0291 -0.012,0.005 -0.03,0.005 -0.145,0.005 -0.1635,0 -0.1634,4e-5 -0.1634,-0.0398 l 0,-0.0178 -0.01,0 c -0.015,0 -0.025,-0.008 -0.025,-0.0205 0,-0.013 0.01,-0.0211 0.021,-0.0211 0.01,0 0.012,-0.002 0.014,-0.005 0.01,-0.0117 0.026,-0.0154 0.075,-0.017 0.029,-0.001 0.048,-0.003 0.048,-0.005 -2e-4,-0.002 -0.01,-0.007 -0.022,-0.0115 -0.019,-0.007 -0.023,-0.0104 -0.029,-0.0207 0,-0.007 -0.01,-0.0135 -0.014,-0.0148 -0.01,-0.002 -0.01,-0.005 -0.01,-0.0167 0,-0.0109 -0.01,-0.0325 -0.032,-0.0914 -0.018,-0.0424 -0.034,-0.0772 -0.035,-0.0772 0,0 -0.01,0.005 -0.014,0.0104 l -0.011,0.0105 0,0.0688 c 0,0.0378 0,0.0697 0,0.0709 0,0.004 -0.043,0.009 -0.053,0.007 -0.01,-0.002 -0.01,9e-5 -0.017,0.0113 0,0.007 -0.01,0.0143 -0.01,0.0158 0,0.004 -0.026,0.0224 -0.043,0.0295 -0.024,0.0104 -0.046,0.0114 -0.074,0.003 l -0.024,-0.007 -0.019,0.007 c -0.01,0.004 -0.034,0.0128 -0.052,0.0198 l -0.033,0.0128 0,0.0572 c 0,0.0314 0,0.0594 0,0.0622 0,0.004 -0.018,0.005 -0.1486,0.005 l -0.1467,0 -0.017,0.008 c -0.01,0.004 -0.027,0.0101 -0.04,0.0128 -0.012,0.003 -0.028,0.008 -0.035,0.0112 -0.056,0.0274 -0.085,0.0329 -0.1505,0.0285 -0.059,-0.004 -0.075,-0.009 -0.1246,-0.0431 -0.028,-0.0187 -0.019,-0.0174 -0.113,-0.0174 -0.076,-2e-5 -0.087,-5.5e-4 -0.089,-0.005 0,-0.003 0,-0.0238 0,-0.0466 0,-0.0303 0,-0.0419 0,-0.0429 0,-8.2e-4 -0.019,-0.003 -0.038,-0.005 -0.025,-0.002 -0.049,-0.008 -0.091,-0.0205 -0.032,-0.01 -0.059,-0.0167 -0.061,-0.0159 -0.01,0.003 -0.014,0.0247 -0.015,0.0497 0,0.024 0,0.025 -0.016,0.0376 -0.013,0.0122 -0.015,0.013 -0.033,0.013 -0.03,0 -0.029,0.001 -0.027,-0.0376 0,-0.0283 0,-0.0335 0,-0.0323 0,0.001 -0.01,0.0107 -0.01,0.0317 l 0,0.0302 -0.022,10e-4 -0.022,0.001 -0.014,-0.0154 c -0.012,-0.0133 -0.014,-0.0171 -0.014,-0.0282 0,-0.0204 0,-0.0208 -0.012,-0.0208 -0.031,0 -0.05,-0.039 -0.037,-0.0786 0.01,-0.0172 0.01,-0.0188 0,-0.0362 -0.01,-0.034 -0.01,-0.0326 -0.062,-0.0326 -0.041,0 -0.048,-8.2e-4 -0.05,-0.005 0,-0.003 0,-0.0221 0,-0.043 0,-0.0209 0,-0.0402 0,-0.043 0,-0.005 0.031,-0.005 0.2978,-0.005 0.1627,0 0.2982,-0.001 0.3011,-0.002 0.01,-0.002 -0.032,-0.0163 -0.078,-0.03 -0.025,-0.008 -0.026,-0.008 -0.026,-0.0179 0,-0.006 0,-0.008 0.01,-0.01 0.013,-0.003 0.017,-0.008 0.015,-0.0241 0,-0.0125 0,-0.0144 -0.013,-0.0195 -0.017,-0.008 -0.016,-0.0165 0,-0.0252 0.01,-0.004 0.01,-0.006 0.01,-0.0189 0,-0.0131 0,-0.0148 -0.01,-0.019 -0.01,-0.004 -0.01,-0.007 -0.01,-0.0133 0,-0.007 0,-0.009 0.01,-0.0121 0.01,-0.002 0.011,-0.007 0.013,-0.0113 0,-0.008 0.016,-0.0146 0.049,-0.0262 0.01,-0.004 0.03,-0.006 0.055,-0.007 0.042,-0.002 0.055,5e-5 0.055,0.007 0,0.006 0.01,0.0132 0.013,0.01 0,-0.002 0,-0.0637 0,-0.14301 l 0,-0.14008 -0.01,-0.0145 c 0,-0.008 -0.027,-0.0406 -0.05,-0.0726 -0.022,-0.032 -0.041,-0.0602 -0.041,-0.0628 0,-0.003 0,-0.009 0.011,-0.0152 0.01,-0.008 0.011,-0.0133 0.011,-0.0203 0,-0.005 0,-0.0103 0,-0.011 0,-8.2e-4 0.1213,0.005 0.2646,0.013 0.1998,0.011 0.2612,0.0135 0.263,0.0106 0,-0.002 0,-0.015 0,-0.0286 0,-0.0289 0,-0.036 0.012,-0.036 0.01,0 0.01,0.001 0.011,0.003 0,0.004 0.021,0.13148 0.021,0.14519 0,0.009 0,0.0123 -0.01,0.0142 0,0.001 -0.01,0.002 -0.012,0.002 0,-2.6e-4 0,0.002 0,0.004 0.01,0.003 0.013,0.005 0.016,0.005 0,8e-5 0.01,0.002 0.011,0.004 0,0.003 0.09,0.0142 0.2582,0.0337 0.1393,0.0162 0.2572,0.0294 0.262,0.0294 0.01,-5e-5 0.01,-0.002 0.01,-0.007 0,-0.004 -0.01,-0.035 -0.016,-0.0697 -0.01,-0.0347 -0.016,-0.0664 -0.016,-0.0704 0,-0.004 0,-0.013 -0.01,-0.0199 l -0.01,-0.0127 0.012,-0.0209 c 0.013,-0.0222 0.022,-0.0266 0.027,-0.0137 0,0.004 0,0.0361 0.01,0.0713 l 0,0.0641 0.025,0.0593 c 0.018,0.0423 0.031,0.0677 0.045,0.0887 0.021,0.0292 0.021,0.0294 0.034,0.0294 0.01,3e-5 0.1325,0.014 0.2777,0.0311 l 0.2641,0.031 0.026,-0.008 c 0.027,-0.008 0.025,-0.006 0.045,-0.0385 0.01,-0.009 0.015,-0.0132 0.1073,-0.0474 0.056,-0.0204 0.1026,-0.0382 0.1046,-0.0394 0,-0.001 0,-0.008 0.01,-0.0156 0,-0.0296 0.024,-0.0531 0.053,-0.0669 0.012,-0.006 0.021,-0.0114 0.021,-0.0128 0,-0.005 -0.045,-0.0201 -0.056,-0.0198 -0.023,8.2e-4 -0.031,-0.006 -0.047,-0.0398 -0.01,-0.0171 -0.014,-0.0328 -0.014,-0.035 0,-0.007 0.012,-0.0145 0.023,-0.0145 0.01,0 0.055,0.0152 0.1094,0.0336 0.054,0.0185 0.1027,0.0336 0.1083,0.0336 0.011,0 0.051,0.0135 0.062,0.0209 0,0.003 0.01,0.005 0.015,0.005 0,1.3e-4 0.011,0.002 0.014,0.003 0.01,0.002 0.01,0.003 0,0.005 -0.01,0.002 -0.014,0.009 -0.01,0.012 0,8.2e-4 0.011,8.2e-4 0.019,-7e-5 0.011,-0.001 0.015,-0.003 0.015,-0.007 0,-0.003 0,-0.007 0.01,-0.009 0.01,-0.003 0.021,-0.003 0.074,0.004 0.036,0.004 0.07,0.007 0.074,0.006 0.012,-0.002 0.013,-0.009 0,-0.0194 -0.01,-0.008 -0.023,-0.0132 -0.1272,-0.0421 -0.065,-0.0182 -0.1199,-0.0343 -0.1215,-0.0358 0,-0.003 0,-0.0245 0.016,-0.0727 l 0,-0.0168 0.015,8.2e-4 c 0.01,5.4e-4 0.017,0.002 0.019,0.004 0,0.002 0.047,0.0154 0.099,0.0301 0.1161,0.0324 0.1102,0.0303 0.1102,0.0395 0,0.004 0.01,0.0136 0.014,0.0221 0.013,0.0139 0.017,0.0157 0.069,0.0332 0.056,0.0185 0.065,0.0237 0.075,0.0413 0,0.006 0,0.006 -0.01,0.004 -0.027,-0.005 -0.04,-0.006 -0.04,-0.003 0,0.003 0.033,0.0361 0.036,0.0361 0.01,0 1.3461,0.15423 1.3482,0.15556 0,0.003 0,0.0211 0,0.0291 0,0.004 -0.019,0.0252 -0.038,0.0477 -0.056,0.0677 -0.1317,0.16891 -0.1306,0.17424 0,0.003 0.01,0.006 0.01,0.008 0.01,0.002 0.012,0.004 0.015,0.006 0,0.002 0.01,0.002 0.012,-5.4e-4 0.01,-0.003 0.01,-0.002 0.011,0.002 0,0.006 0,0.006 0.01,2.6e-4 0.01,-0.005 0.01,-0.005 0.011,-8.1e-4 0,0.004 0.01,0.004 0.01,-8.2e-4 0.01,-0.008 0.038,-0.0812 0.066,-0.15632 0.013,-0.0352 0.026,-0.0661 0.028,-0.0686 0,-0.004 0.01,-0.004 0.01,-5.5e-4 0,0.002 0,0.007 0,0.0102 0,0.008 -0.038,0.10935 -0.059,0.1575 -0.014,0.0321 -0.016,0.0399 -0.013,0.0435 0,0.003 0.062,0.005 0.3032,0.01 0.1713,0.003 0.3074,0.004 0.3184,0.003 0.011,-0.002 0.024,-0.002 0.031,-0.001 0.01,8.1e-4 0.039,0.003 0.074,0.005 0.064,0.003 0.077,0.005 0.077,0.01 0,0.004 -0.018,0.0125 -0.026,0.0125 0,0 -0.01,0.002 -0.01,0.007 0,0.0145 0,0.0147 -0.3455,0.0168 -0.1778,0.001 -0.3364,0.003 -0.3523,0.005 -0.016,0.002 -0.032,0.003 -0.037,0.003 0,1.5e-4 -0.017,0.002 -0.028,0.004 -0.019,0.004 -0.021,0.004 -0.036,-0.005 -0.01,-0.005 -0.021,-0.009 -0.027,-0.009 -0.01,0 -0.016,-0.002 -0.022,-0.004 -0.01,-0.003 -0.022,-0.004 -0.037,-0.004 l -0.026,2.7e-4 0,0.0203 c 0,0.0122 0,0.0221 0,0.0248 0,0.004 0.1132,0.005 0.7656,0.005 l 0.762,0 0,0.0376 c 0,0.0286 0,0.0553 0,0.11135 0,0.0405 -0.01,0.11191 -0.01,0.15862 0,0.0471 0,0.0888 -0.01,0.0937 l 0,0.009 -0.5331,0 c -0.5678,0 -0.5508,-5.5e-4 -0.5702,0.0149 0,0.003 -0.023,0.0135 -0.041,0.0228 -0.043,0.0214 -0.07,0.0265 -0.1419,0.0263 -0.077,-1.7e-4 -0.096,-0.005 -0.1524,-0.0352 -0.01,-0.005 -0.021,-0.013 -0.026,-0.0173 0,-0.004 -0.013,-0.009 -0.018,-0.0101 -0.018,-0.004 -0.057,-0.021 -0.071,-0.0305 -0.031,-0.021 -0.031,-0.0478 0,-0.0714 0,-0.003 0.01,-0.007 0,-0.008 0,-0.001 -0.02,-0.003 -0.042,-0.005 -0.034,-0.002 -0.039,-0.002 -0.039,0.003 0,0.003 0,0.008 0.01,0.0122 0.018,0.0133 0.024,0.0378 0.014,0.053 -0.012,0.0168 -0.051,0.0369 -0.093,0.0475 -0.011,0.003 -0.023,0.008 -0.028,0.011 0,0.003 -0.017,0.0104 -0.028,0.0157 -0.011,0.005 -0.022,0.0111 -0.024,0.0129 -0.01,0.006 -0.031,0.0132 -0.058,0.018 -0.033,0.006 -0.1225,0.006 -0.1562,-5.4e-4 z m -1.9194,-0.11873 c 0.01,-0.004 0.01,-0.007 0.01,-0.0249 0,-0.0156 0,-0.0209 0,-0.0223 0,-0.001 -0.064,-0.002 -0.136,-0.002 -0.072,0 -0.1331,8.2e-4 -0.1359,0.002 -0.01,0.003 -0.01,0.0404 2e-4,0.0465 0.011,0.009 0.2546,0.0101 0.2695,8.2e-4 z m -1.7653,-0.0439 c 0,-0.004 0,-0.005 -0.01,-0.005 0,0 -0.01,0.002 -0.01,0.004 0,0.01 0.01,0.0107 0.012,0.001 z m -0.088,-0.009 c 0,-0.007 -0.01,-0.006 -0.011,0.001 0,0.004 0,0.006 0,0.005 0,-5.4e-4 0.01,-0.003 0.01,-0.006 z m 0.3019,-0.0339 c 0,-0.002 -0.01,-0.008 -0.021,-0.015 -0.02,-0.0106 -0.025,-0.0119 -0.045,-0.0119 -0.013,0 -0.023,0.001 -0.023,0.003 0,0.003 0.035,0.0145 0.059,0.019 0.01,0.002 0.017,0.004 0.019,0.006 0,0.004 0.01,0.003 0.011,-0.002 z m 3.9517,-0.003 c 0,-0.005 0.01,-0.0112 0.01,-0.0145 0,-0.0111 -0.027,-0.016 -0.048,-0.009 -0.01,0.003 -0.011,0.003 -0.016,-0.001 0,-0.004 -0.015,-0.005 -0.045,-0.006 l -0.04,-10e-4 0,0.0104 c 0,0.006 0,0.0104 -0.01,0.0104 0,0 0,0.003 0,0.006 0,0.01 0.011,0.0109 0.1031,0.0122 l 0.044,5.4e-4 z m -2.5094,0.003 c 0,-0.002 0,-0.003 0,-0.006 -0.011,-0.008 -0.029,-0.0106 -0.086,-0.0106 -0.061,0 -0.077,0.002 -0.077,0.0111 0,0.004 0.01,0.005 0.057,0.006 0.031,5.5e-4 0.067,0.001 0.079,0.002 0.012,2.6e-4 0.024,-5.4e-4 0.027,-0.002 z m -1.5552,-0.0581 c 0,-0.003 -0.065,-0.0385 -0.072,-0.0385 0,0 0,0.008 0,0.013 0,0.002 0.01,0.01 0.011,0.0164 l 0.01,0.0122 0.025,0 c 0.014,0 0.026,-0.001 0.027,-0.003 z m 1.0359,-0.0919 c 0.026,-0.0103 0.029,-0.0122 0.034,-0.0249 0,-0.005 0.01,-0.0169 0.016,-0.0255 0.01,-0.009 0.011,-0.0168 0.01,-0.0185 0,-0.002 -0.022,-0.003 -0.044,-0.002 l -0.041,8.2e-4 0,0.035 c 0,0.033 0,0.0435 0,0.0435 0,0 0.011,-0.004 0.023,-0.009 z m 2.3018,-0.0163 c 0,-0.007 0,-0.0169 0.01,-0.0209 0.014,-0.0152 0.01,-0.0163 -0.084,-0.0178 -0.064,-0.001 -0.085,-5.4e-4 -0.084,0.002 0,0.002 0.015,0.0102 0.033,0.0181 0.018,0.008 0.036,0.0187 0.041,0.024 l 0.01,0.01 0.037,-8.2e-4 0.037,-8.2e-4 z m -3.006,-0.0609 0.027,-0.002 -0.021,-0.002 c -0.019,-0.001 -0.021,-0.002 -0.022,-0.009 0,-0.004 0,-0.008 -0.01,-0.009 -0.011,-0.003 -0.017,2.6e-4 -0.021,0.01 0,0.007 0,0.008 -0.018,0.008 -0.01,0 -0.014,0.001 -0.013,0.003 0,0.004 0.037,0.004 0.075,8.1e-4 z m 1.0048,-0.0701 c -0.01,-0.0135 -0.01,-0.0174 -0.011,-0.0142 0,0.007 -10e-5,0.0269 0.01,0.0332 0.011,0.0101 0.014,0.001 0,-0.019 z m 0.03,-0.35603 c -10e-5,-0.0171 -0.01,-0.0266 -0.012,-0.0136 0,0.008 -0.01,0.008 -0.075,0 -0.064,-0.008 -0.064,-0.008 -0.064,-0.002 0,0.007 0,0.007 0.062,0.0139 0.074,0.008 0.088,0.008 0.088,10e-4 z m -0.9679,-0.10864 c 0.027,-0.002 0.03,-0.003 0.035,-0.01 0.01,-0.0145 0,-0.0172 -0.065,-0.0301 -0.07,-0.0132 -0.075,-0.0138 -0.075,-0.009 0,0.003 0.02,0.0326 0.03,0.0441 0.01,0.008 0.021,0.009 0.075,0.005 z m 2.02,-0.0489 c 0,-0.002 0,-0.005 0,-0.006 0,-0.004 -0.1083,-0.0414 -0.1113,-0.0397 -0.013,0.008 0.071,0.0532 0.095,0.0508 0.01,-8.2e-4 0.014,-0.003 0.016,-0.005 z"
         style="fill:#000000;fill-opacity:1" />
    </g>
  </g>
</svg>
