<?xml version="1.0" encoding="UTF-8" standalone="no"?>
<!-- Created with Inkscape (http://www.inkscape.org/) -->

<svg
   xmlns:dc="http://purl.org/dc/elements/1.1/"
   xmlns:cc="http://creativecommons.org/ns#"
   xmlns:rdf="http://www.w3.org/1999/02/22-rdf-syntax-ns#"
   xmlns:svg="http://www.w3.org/2000/svg"
   xmlns="http://www.w3.org/2000/svg"
   xmlns:sodipodi="http://sodipodi.sourceforge.net/DTD/sodipodi-0.dtd"
   xmlns:inkscape="http://www.inkscape.org/namespaces/inkscape"
   width="19.755636mm"
   height="3.2084215mm"
   viewBox="0 0 70.000286 11.368422"
   id="svg2"
   version="1.1"
   inkscape:version="0.91 r13725"
   sodipodi:docname="Eclipse.svg">
  <defs
     id="defs4" />
  <sodipodi:namedview
     id="base"
     pagecolor="#ffffff"
     bordercolor="#666666"
     borderopacity="1.0"
     inkscape:pageopacity="0.0"
     inkscape:pageshadow="2"
     inkscape:zoom="15.839192"
     inkscape:cx="33.343985"
     inkscape:cy="3.1474199"
     inkscape:document-units="px"
     inkscape:current-layer="g4147"
     showgrid="false"
     fit-margin-top="0"
     fit-margin-left="0"
     fit-margin-right="0"
     fit-margin-bottom="0"
     inkscape:window-width="1920"
     inkscape:window-height="1017"
     inkscape:window-x="-8"
     inkscape:window-y="-8"
     inkscape:window-maximized="1" />
  <metadata
     id="metadata7">
    <rdf:RDF>
      <cc:Work
         rdf:about="">
        <dc:format>image/svg+xml</dc:format>
        <dc:type
           rdf:resource="http://purl.org/dc/dcmitype/StillImage" />
        <dc:title></dc:title>
      </cc:Work>
    </rdf:RDF>
  </metadata>
  <g
     inkscape:label="Layer 1"
     inkscape:groupmode="layer"
     id="layer1"
     transform="translate(-309.31099,-548.36319)">
    <g
       id="g4147"
       transform="translate(348.31663,1262.8402)">
      <path
         style="fill:#000000"
         d="m -8.4521585,-703.48099 -9.3267995,-0.36779 -0.4691,0.0733 c -0.2581,0.0403 -0.8492,0.13917 -1.3137,0.21965 -0.4644,0.0805 -1.064,0.1737 -1.3324,0.20714 -0.2683,0.0334 -0.6906,0.0937 -0.9383,0.13395 -0.4036,0.0656 -0.6457,0.0732 -2.3318,0.0732 -1.6265,10e-6 -1.8877,-0.008 -1.9281,-0.0563 -0.035,-0.0425 -0.1306,-0.0563 -0.3895,-0.0563 -0.1886,0 -0.4019,-0.0174 -0.474,-0.0386 -0.072,-0.0212 -0.4773,-0.049 -0.9005,-0.0617 -0.8216,-0.0247 -0.9787,-0.0498 -0.9003,-0.14428 0.025,-0.0306 0.1045,-0.0557 0.1758,-0.0557 0.1031,0 0.1269,-0.0134 0.1168,-0.0656 -0.019,-0.0966 -1.4122,-0.45832 -1.7693,-0.4592 -0.1859,-4.5e-4 -0.5717,0.0721 -1.4033,0.26401 -0.7145,0.16487 -1.2961,0.27775 -1.5428,0.29943 -0.2178,0.0191 -0.4018,0.029 -0.4088,0.022 -0.01,-0.007 -0.042,-0.12756 -0.077,-0.26782 -0.035,-0.14025 -0.09,-0.26723 -0.1208,-0.28218 -0.031,-0.0149 -0.7066,-0.09 -1.5013,-0.1667 -0.7947,-0.0767 -1.5252,-0.14864 -1.6233,-0.15979 l -0.1782,-0.0203 0,-0.65072 0,-0.65072 -0.094,-0.0615 c -0.054,-0.0357 -0.094,-0.0972 -0.094,-0.14666 0,-0.0727 0.065,-0.11385 0.441,-0.28017 0.4114,-0.1819 0.5176,-0.20985 1.581,-0.41614 0.627,-0.12162 1.1716,-0.23118 1.2103,-0.24346 0.089,-0.0283 0.1137,-0.12877 0.1001,-0.40963 l -0.011,-0.22341 0.1595,-0.089 c 0.1672,-0.0933 0.2049,-0.17786 0.094,-0.20991 -0.1065,-0.0307 -0.5691,-0.0602 -1.5482,-0.0988 -2.1414,-0.0842 -2.6648,-0.13546 -2.6648,-0.26076 0,-0.0217 0.01,-0.0395 0.016,-0.0395 0.01,0 0.4942,-0.0769 1.0791,-0.17098 0.5848,-0.094 1.8549,-0.28026 2.8223,-0.41381 2.1451,-0.29613 3.8523,-0.5639 3.9001,-0.61171 0.02,-0.0195 0.026,-0.0517 0.013,-0.0715 -0.013,-0.0217 -0.8102,-0.0464 -2.0028,-0.0623 -1.4293,-0.019 -2.2261,-0.0466 -2.8626,-0.0992 -0.4851,-0.0401 -1.3877,-0.0986 -2.0059,-0.13009 -0.6181,-0.0315 -1.1418,-0.0721 -1.1638,-0.0904 -0.022,-0.0183 -0.223,-0.0501 -0.4467,-0.0709 -0.2236,-0.0207 -0.4151,-0.0462 -0.4256,-0.0567 -0.058,-0.058 0.066,-0.0947 0.392,-0.11577 0.5421,-0.0351 0.6099,-0.0499 0.6099,-0.13292 0,-0.0391 -0.021,-0.0844 -0.047,-0.10056 -0.073,-0.0456 0.2058,-0.083 0.6362,-0.0855 0.2107,-10e-4 0.4218,-0.0182 0.4692,-0.0379 0.047,-0.0197 0.8462,-0.28342 1.7752,-0.58612 1.8224,-0.59387 2.1956,-0.73708 2.1956,-0.84254 0,-0.0364 -0.038,-0.0758 -0.084,-0.0883 -0.047,-0.0125 -0.4659,-0.0229 -0.9321,-0.0231 -0.4662,-3e-4 -0.8583,-0.0112 -0.8713,-0.0243 -0.013,-0.0131 0.018,-0.0565 0.069,-0.0965 0.051,-0.04 0.092,-0.0954 0.092,-0.1231 0,-0.0311 0.19,-0.11422 0.4973,-0.21765 0.2735,-0.0921 1.1005,-0.3727 1.8378,-0.62366 l 1.3405,-0.45629 1.5119,-0.11047 c 0.8316,-0.0608 2.1201,-0.13682 2.8632,-0.16902 0.7431,-0.0322 1.3765,-0.0661 1.4075,-0.0755 0.031,-0.009 2.2857,-0.10993 5.0105,-0.2236 9.6913,-0.40426 9.3726,-0.39405 12.3549995,-0.3956 2.0633,-10e-4 2.7341,0.009 2.7549,0.0431 0.021,0.0335 1.2099,0.0571 4.80690002,0.0954 3.88819998,0.0414 4.84599998,0.0614 5.13599998,0.10748 0.5355,0.085 5.1395,0.46812 5.5923005,0.46535 0.4486,-0.003 0.8577,-0.033 1.9491,-0.14414 0.6806,-0.0693 0.7737,-0.0718 0.8287,-0.0221 0.034,0.0308 0.09,0.056 0.1246,0.056 0.034,0 0.063,0.0169 0.063,0.0375 0,0.0206 0.05,0.0375 0.1104,0.0375 0.061,0 0.1208,0.0169 0.1335,0.0375 0.013,0.0206 0.065,0.0375 0.1154,0.0375 0.051,0 0.1214,0.0155 0.1573,0.0344 0.089,0.0471 1.1914,0.18509 1.8147,0.22721 0.4884,0.033 0.5541,0.0479 1.4826,0.33591 0.5343,0.16576 1.0643,0.33421 1.1779,0.37433 0.1135,0.0401 0.73,0.23264 1.3699,0.4278 l 1.1635,0.35484 1.9692,0.96287 c 1.083,0.52957 2.0542,1.01947 2.1581,1.08866 0.1039,0.0692 0.7869,0.44176 1.5178,0.82792 l 1.3289,0.70212 1.5517,1.3498 c 0.8535,0.74239 1.5517,1.36212 1.5517,1.37719 0,0.0151 -1.5496,0.19013 -3.4436,0.38904 -2.2463,0.23592 -3.4827,0.3805 -3.5561,0.41586 -0.074,0.0356 -0.8796,0.12822 -2.3507,0.27016 l -2.238,0.21595 -0.5924,-0.0996 c -0.3258,-0.0548 -0.6047,-0.10728 -0.6199,-0.11664 -0.1402,-0.0867 -4.9716,-0.30775 -5.7514,-0.26315 -0.6714,0.0384 -0.8436,0.039 -2.2595,0.008 l -1.3887005,-0.0305 -1.6635,0.26476 -1.6635,0.26477 -0.1777,-0.09 c -0.098,-0.0495 -0.2399,-0.1017 -0.316,-0.11598 -0.1214,-0.0228 -0.1422,-0.0156 -0.1697,0.0589 -0.026,0.0709 -0.3122,0.19206 -1.7362,0.7358 -1.6074,0.61379 -1.7187,0.65072 -1.9488,0.64658 -0.13419998,-0.002 -4.441,-0.16991 -9.5707,-0.37219 z"
         id="path4149"
         inkscape:connector-curvature="0" />
    </g>
  </g>
</svg>
