<?xml version="1.0" encoding="UTF-8" standalone="no"?>
<svg
   xmlns:dc="http://purl.org/dc/elements/1.1/"
   xmlns:cc="http://creativecommons.org/ns#"
   xmlns:rdf="http://www.w3.org/1999/02/22-rdf-syntax-ns#"
   xmlns:svg="http://www.w3.org/2000/svg"
   xmlns="http://www.w3.org/2000/svg"
   version="1.1"
   id="svg2"
   viewBox="0 0 20.500016 3.3291646"
   width="61.500048">
  <defs
     id="defs4" />
  <metadata
     id="metadata7">
    <rdf:RDF>
      <cc:Work
         rdf:about="">
        <dc:format>image/svg+xml</dc:format>
        <dc:type
           rdf:resource="http://purl.org/dc/dcmitype/StillImage" />
        <dc:title></dc:title>
      </cc:Work>
    </rdf:RDF>
  </metadata>
  <g
     transform="translate(-309.311,-556.4016)"
     id="layer1">
    <g
       transform="translate(348.31663,1262.8402)"
       id="g4147">
      <path
         id="path4149"
         d="m -30.057871,-703.21765 -2.731409,-0.10771 -0.137379,0.0215 c -0.07559,0.0118 -0.248693,0.0408 -0.384725,0.0643 -0.136002,0.0236 -0.311599,0.0509 -0.390201,0.0607 -0.07857,0.01 -0.202246,0.0274 -0.274787,0.0392 -0.118197,0.0192 -0.189097,0.0214 -0.682881,0.0214 -0.476331,10e-6 -0.552825,-0.002 -0.564656,-0.0165 -0.01025,-0.0124 -0.03825,-0.0165 -0.114067,-0.0165 -0.05523,0 -0.117699,-0.005 -0.138814,-0.0113 -0.02109,-0.006 -0.13978,-0.0144 -0.263717,-0.0181 -0.24061,-0.007 -0.286618,-0.0146 -0.263658,-0.0423 0.0073,-0.009 0.0306,-0.0163 0.05148,-0.0163 0.03019,0 0.03716,-0.004 0.03421,-0.0192 -0.0056,-0.0283 -0.413572,-0.13422 -0.51815,-0.13448 -0.05444,-1.3e-4 -0.167426,0.0211 -0.410965,0.0773 -0.209246,0.0483 -0.379571,0.0813 -0.451818,0.0877 -0.06378,0.006 -0.11767,0.008 -0.11972,0.006 -0.0029,-0.002 -0.0123,-0.0374 -0.02255,-0.0784 -0.01025,-0.0411 -0.02636,-0.0783 -0.03538,-0.0826 -0.0091,-0.004 -0.206932,-0.0264 -0.439665,-0.0488 -0.232732,-0.0225 -0.446663,-0.0435 -0.475393,-0.0468 l -0.05219,-0.006 0,-0.19057 0,-0.19057 -0.02753,-0.018 c -0.01581,-0.0105 -0.02753,-0.0285 -0.02753,-0.043 0,-0.0213 0.01903,-0.0333 0.129149,-0.082 0.120481,-0.0533 0.151582,-0.0615 0.463005,-0.12187 0.183621,-0.0356 0.34311,-0.0677 0.354444,-0.0713 0.02606,-0.008 0.0333,-0.0377 0.02931,-0.11997 l -0.0032,-0.0654 0.04671,-0.0261 c 0.04897,-0.0273 0.06001,-0.0521 0.02753,-0.0615 -0.03119,-0.009 -0.166664,-0.0176 -0.453399,-0.0289 -0.627122,-0.0246 -0.780403,-0.0397 -0.780403,-0.0764 0,-0.006 0.0029,-0.0116 0.0047,-0.0116 0.0029,0 0.144729,-0.0225 0.316021,-0.0501 0.171262,-0.0275 0.543218,-0.0821 0.826527,-0.12119 0.628205,-0.0867 1.128169,-0.16514 1.142168,-0.17914 0.0059,-0.006 0.0076,-0.0151 0.0038,-0.0209 -0.0038,-0.006 -0.237272,-0.0136 -0.586532,-0.0182 -0.418579,-0.006 -0.651927,-0.0136 -0.83833,-0.0291 -0.142064,-0.0117 -0.406396,-0.0289 -0.587439,-0.0381 -0.181015,-0.009 -0.334383,-0.0211 -0.340826,-0.0265 -0.0064,-0.005 -0.06531,-0.0147 -0.130819,-0.0208 -0.06548,-0.006 -0.121564,-0.0135 -0.124639,-0.0166 -0.01699,-0.017 0.01933,-0.0277 0.114799,-0.0339 0.158757,-0.0103 0.178613,-0.0146 0.178613,-0.0389 0,-0.0115 -0.0062,-0.0247 -0.01376,-0.0294 -0.02138,-0.0134 0.06027,-0.0243 0.186315,-0.025 0.0617,-2.9e-4 0.123526,-0.005 0.137408,-0.0111 0.01376,-0.006 0.247814,-0.083 0.519878,-0.17165 0.5337,-0.17392 0.642994,-0.21586 0.642994,-0.24675 0,-0.0107 -0.01113,-0.0222 -0.0246,-0.0259 -0.01376,-0.004 -0.136441,-0.007 -0.272971,-0.007 -0.136529,-9e-5 -0.251358,-0.003 -0.255165,-0.007 -0.0038,-0.004 0.0053,-0.0165 0.02021,-0.0283 0.01494,-0.0117 0.02694,-0.0279 0.02694,-0.036 0,-0.009 0.05564,-0.0335 0.145637,-0.0637 0.0801,-0.027 0.322288,-0.10915 0.538211,-0.18264 l 0.392573,-0.13363 0.442769,-0.0324 c 0.243539,-0.0178 0.620884,-0.0401 0.838505,-0.0495 0.217621,-0.009 0.403116,-0.0194 0.412195,-0.0221 0.0091,-0.003 0.669381,-0.0322 1.467355,-0.0655 2.838155,-0.11839 2.744821,-0.1154 3.618235,-0.11586 0.60425,-2.9e-4 0.800697,0.003 0.806789,0.0126 0.0062,0.01 0.354326,0.0167 1.407729,0.0279 1.138683,0.0121 1.41918,0.018 1.504108,0.0315 0.156825,0.0249 1.505134,0.13709 1.637739,0.13628 0.131375,-8.8e-4 0.251182,-0.01 0.570805,-0.0422 0.199318,-0.0203 0.226583,-0.021 0.24269,-0.006 0.01,0.009 0.02636,0.0164 0.03649,0.0164 0.01,0 0.01845,0.005 0.01845,0.011 0,0.006 0.01464,0.011 0.03233,0.011 0.01786,0 0.03538,0.005 0.0391,0.011 0.0038,0.006 0.01904,0.011 0.0338,0.011 0.01494,0 0.03555,0.005 0.04607,0.0101 0.02606,0.0138 0.348909,0.0542 0.531446,0.0665 0.143031,0.01 0.162271,0.014 0.434188,0.0984 0.156473,0.0485 0.311687,0.0979 0.344955,0.10963 0.03324,0.0117 0.213785,0.0681 0.401184,0.12528 l 0.340738,0.10392 0.576692,0.28198 c 0.317163,0.15509 0.601584,0.29856 0.632012,0.31882 0.03043,0.0203 0.230448,0.12937 0.444497,0.24246 l 0.389176,0.20562 0.454425,0.3953 c 0.249952,0.21741 0.454424,0.3989 0.454424,0.40332 0,0.004 -0.453809,0.0557 -1.008479,0.11393 -0.657842,0.0691 -1.019929,0.11143 -1.041425,0.12179 -0.02167,0.0104 -0.257596,0.0376 -0.688416,0.0791 l -0.655412,0.0632 -0.173488,-0.0292 c -0.09541,-0.016 -0.17709,-0.0314 -0.181541,-0.0342 -0.04106,-0.0254 -1.455963,-0.0901 -1.684332,-0.0771 -0.196623,0.0112 -0.247053,0.0114 -0.661708,0.002 l -0.406689,-0.009 -0.487166,0.0775 -0.487166,0.0775 -0.05204,-0.0263 c -0.0287,-0.0145 -0.07026,-0.0298 -0.09254,-0.034 -0.03555,-0.007 -0.04164,-0.005 -0.0497,0.0172 -0.0076,0.0208 -0.09143,0.0562 -0.508456,0.21548 -0.470737,0.17975 -0.503332,0.19057 -0.570718,0.18936 -0.0393,-5.9e-4 -1.300573,-0.0498 -2.802836,-0.109 z"
         style="fill:#000000" />
    </g>
  </g>
</svg>
