<?xml version="1.0" encoding="UTF-8" standalone="no"?>
<!-- Created with Inkscape (http://www.inkscape.org/) -->

<svg
   xmlns:dc="http://purl.org/dc/elements/1.1/"
   xmlns:cc="http://creativecommons.org/ns#"
   xmlns:rdf="http://www.w3.org/1999/02/22-rdf-syntax-ns#"
   xmlns:svg="http://www.w3.org/2000/svg"
   xmlns="http://www.w3.org/2000/svg"
   xmlns:sodipodi="http://sodipodi.sourceforge.net/DTD/sodipodi-0.dtd"
   xmlns:inkscape="http://www.inkscape.org/namespaces/inkscape"
   width="666"
   height="68.753258"
   id="svg2"
   version="1.1"
   inkscape:version="0.48.5 r10040"
   sodipodi:docname="New document 1">
  <defs
     id="defs4" />
  <sodipodi:namedview
     id="base"
     pagecolor="#ffffff"
     bordercolor="#666666"
     borderopacity="1.0"
     inkscape:pageopacity="0.0"
     inkscape:pageshadow="2"
     inkscape:zoom="0.7"
     inkscape:cx="448.65871"
     inkscape:cy="107.44286"
     inkscape:document-units="px"
     inkscape:current-layer="g2996"
     showgrid="false"
     fit-margin-top="0"
     fit-margin-left="0"
     fit-margin-right="0"
     fit-margin-bottom="0"
     inkscape:window-width="1920"
     inkscape:window-height="1017"
     inkscape:window-x="-8"
     inkscape:window-y="-8"
     inkscape:window-maximized="1" />
  <metadata
     id="metadata7">
    <rdf:RDF>
      <cc:Work
         rdf:about="">
        <dc:format>image/svg+xml</dc:format>
        <dc:type
           rdf:resource="http://purl.org/dc/dcmitype/StillImage" />
        <dc:title></dc:title>
      </cc:Work>
    </rdf:RDF>
  </metadata>
  <g
     inkscape:label="Layer 1"
     inkscape:groupmode="layer"
     id="layer1"
     transform="translate(-49.174545,-455.48599)">
    <g
       id="g2996"
       transform="translate(258.78414,1815.5015)">
      <path
         style="fill:#000000;fill-opacity:1"
         d="m -141.97329,-1291.5061 c -0.3022,-0.2004 -1.55954,-0.3668 -2.7941,-0.3699 -2.63326,-0.01 -4.7252,-0.7697 -5.00096,-1.8242 -0.19142,-0.7319 -0.44336,-0.7496 -11.31028,-0.7939 -6.11298,-0.025 -11.81505,-0.027 -12.67128,0 -1.76652,0.046 -4.30241,0.035 -8.42493,-0.037 -1.56136,-0.027 -3.99268,0 -5.40294,0.064 -4.04413,0.1802 -7.06598,-0.2907 -7.70293,-1.2 -0.29637,-0.4231 -0.53885,-1.0422 -0.53885,-1.3756 0,-0.3334 -0.22611,-0.7939 -0.50247,-1.0233 -0.27636,-0.2293 -0.60341,-1.1149 -0.72678,-1.9679 -0.50725,-3.5073 -0.93331,-4.9515 -2.05527,-6.9665 -1.4924,-2.6803 -1.3214,-3.1925 1.06581,-3.1925 1.65699,0 1.88704,-0.1033 2.38844,-1.0729 0.30516,-0.5902 0.84511,-1.1527 1.19988,-1.2501 1.32395,-0.3635 4.33326,-0.9073 5.04066,-0.9108 1.64216,-0.01 6.40543,-1.0096 6.83193,-1.4365 0.36578,-0.3661 0.35102,-0.4666 -0.0737,-0.5013 -0.29213,-0.024 -0.69597,-0.01 -0.89744,0.032 -1.11572,0.2292 -16.14303,0.1758 -18.28343,-0.065 -2.77143,-0.3118 -3.70983,-0.8891 -4.06372,-2.5004 -0.12511,-0.5696 -0.44753,-1.2182 -0.7165,-1.4414 -0.28721,-0.2384 -0.59796,-1.6473 -0.75294,-3.4136 -0.19574,-2.2309 -0.54274,-3.5617 -1.34346,-5.1522 -0.59376,-1.1794 -0.99128,-2.3745 -0.88337,-2.6557 0.12816,-0.334 0.77492,-0.5112 1.86512,-0.5112 1.43204,0 1.71713,-0.1269 2.00861,-0.8935 0.18684,-0.4915 0.63606,-1.0492 0.99826,-1.2396 0.71149,-0.3738 3.28377,-0.8862 5.05418,-1.0068 1.95924,-0.1334 4.22544,-0.6141 4.42616,-0.9389 0.10771,-0.1743 -0.22597,-0.3169 -0.74153,-0.3169 -1.00995,0 -2.40258,-1.145 -2.40258,-1.9754 0,-0.2807 -0.24725,-0.6052 -0.54945,-0.7211 -0.3022,-0.116 -0.54945,-0.3767 -0.54945,-0.5793 0,-0.8116 2.3793,-1.4921 8.21531,-2.3495 3.36828,-0.4948 6.2135,-0.989 6.32271,-1.0983 0.10921,-0.1092 -0.27376,-0.6194 -0.85104,-1.1339 -1.03116,-0.9189 -1.03685,-0.9452 -0.32402,-1.4946 0.87721,-0.6761 2.22081,-1.0433 6.7836,-1.8537 1.91393,-0.3399 3.6447,-0.7187 3.84617,-0.8417 0.20146,-0.1229 -0.95239,-0.306 -2.56411,-0.4067 -2.87267,-0.1796 -2.93269,-0.203 -3.04632,-1.1905 -0.0637,-0.554 0.0187,-1.0133 0.18316,-1.0206 6.52225,-0.2905 12.36501,-0.7596 12.69301,-1.0191 0.23462,-0.1857 1.16834,-0.3178 2.07494,-0.2937 l 1.64835,0.044 0.1128,1.5602 c 0.0829,1.1465 -0.0379,1.6179 -0.45577,1.7783 -1.05213,0.4037 -0.1776,0.874 1.62533,0.874 1.62834,0 1.97916,-0.1672 3.91612,-1.867 2.453,-2.1526 4.12891,-3.0923 6.17389,-3.4615 0.7965,-0.1439 1.61843,-0.3954 1.82651,-0.5589 0.20809,-0.1636 2.89608,-0.5007 5.97332,-0.7493 5.44416,-0.4396 5.6141,-0.4787 6.30456,-1.4484 0.56717,-0.7965 1.17553,-1.0776 3.03107,-1.4008 3.88589,-0.6767 5.27729,-0.5474 6.32945,0.5879 0.76756,0.8282 1.02184,0.9188 1.53929,0.5485 0.34092,-0.2439 1.00314,-0.6086 1.47161,-0.8103 0.46847,-0.2018 1.09838,-0.6135 1.3998,-0.9149 0.41358,-0.4136 1.44851,-0.548 4.21867,-0.548 3.116,0 3.81138,0.1107 4.602,0.7326 0.51224,0.4029 1.29898,0.7326 1.74831,0.7326 0.44933,0 1.23606,-0.3297 1.74831,-0.7326 0.78972,-0.6212 1.486,-0.7326 4.57876,-0.7326 3.09276,0 3.78904,0.1114 4.57877,0.7326 0.51224,0.4029 1.17158,0.7326 1.4652,0.7326 0.29362,0 0.95296,-0.3297 1.4652,-0.7326 0.78893,-0.6206 1.486012,-0.7326 4.558162,-0.7326 2.62184,0 3.82382,0.149 4.33783,0.5378 1.00091,0.757 1.14055,0.7029 1.3887,-0.5378 0.2597,-1.2985 0.10499,-1.2849 6.46626,-0.5699 2.5189,0.2831 8.12331,0.6304 12.45424,0.7718 7.17871,0.2343 8.21425,0.1885 11.72059,-0.5175 3.14575,-0.6334 5.54717,-0.8006 13.18685,-0.9179 l 9.34068,-0.1435 11.35533,1.6303 c 8.7696,1.259 11.80332,1.8328 13.32268,2.52 l 1.96735,0.8897 19.8275697,-0.01 c 19.1142503,-0.01 19.8605203,-0.034 20.7433203,-0.7244 1.1802,-0.9232 2.39269,-0.9206 3.5726,0.01 0.92537,0.728 1.392,0.7399 28.26297,0.7257 15.02714,-0.01 29.01163,-0.118 31.07666,-0.2446 l 3.75458,-0.2301 0,-1.9848 c 0,-3.7131 -1.59436,-3.4019 17.429228,-3.4019 l 16.67086,0 0.60144,1.048 0.60144,1.0479 10.09581,0.2584 c 5.55273,0.1421 10.4538,0.3445 10.89131,0.4498 0.55037,0.1324 0.89282,0.6046 1.11128,1.5325 l 0.31583,1.3411 2.20608,0.1072 c 1.83967,0.089 2.31853,-0.017 2.88322,-0.641 0.53638,-0.5927 1.12726,-0.7483 2.84224,-0.7483 2.49558,0 3.15217,0.2883 5.34412,2.3463 0.87864,0.825 1.7941,1.6113 2.0344,1.7474 0.24025,0.1361 1.9948,0.2924 3.89898,0.3473 3.22301,0.093 3.68074,0.2063 6.62719,1.6403 3.53759,1.7218 2.55521,1.6513 14.54326,1.0444 4.304,-0.2179 4.61708,-0.1841 6.95972,0.7522 1.34912,0.5392 2.6199,1.1178 2.82393,1.2859 0.20403,0.168 1.0282,0.359 1.8315,0.4244 1.40275,0.1141 1.4651,0.174 1.57546,1.5129 0.0653,0.7921 0.34385,1.4819 0.64513,1.5975 0.77858,0.2988 10.78167,-1.2081 17.73817,-2.6721 3.32419,-0.6996 9.16266,-1.8405 12.97439,-2.5352 4.6947,-0.8558 7.15844,-1.4702 7.63734,-1.9048 0.51572,-0.4679 1.56151,-0.691 3.86642,-0.8245 2.84724,-0.1651 3.20119,-0.2672 3.58134,-1.0329 0.23202,-0.4673 0.75004,-1.0795 1.15114,-1.3605 0.4011,-0.2809 0.83019,-1.0154 0.95352,-1.6322 0.31117,-1.5557 1.78367,-2.9342 3.13444,-2.9342 0.60352,0 1.22916,0.2183 1.39026,0.4851 0.31132,0.5156 3.52264,0.3675 10.54936,-0.4863 4.22056,-0.5128 11.18497,-0.1555 12.89893,0.6618 1.17685,0.5612 1.33542,0.5592 2.36121,-0.03 1.34484,-0.7718 2.01363,-0.7875 3.37151,-0.079 0.57707,0.3009 1.82158,0.5471 2.76558,0.5471 0.94399,0 1.88857,0.1722 2.09901,0.3827 0.58978,0.5898 28.25992,0.2347 31.08263,-0.3988 3.37481,-0.7575 18.30909,-0.6769 21.42862,0.1157 4.36276,1.1084 9.09953,1.8035 11.24657,1.6503 2.99451,-0.2137 16.04501,0.6836 23.00257,1.5815 5.48687,0.7081 13.62934,2.2572 30.51897,5.806 3.89166,0.8177 10.03949,1.9793 13.66188,2.5813 3.62239,0.6019 6.86689,1.2372 7.21004,1.4117 0.34316,0.1745 1.44807,0.5139 2.45539,0.7543 3.24485,0.7744 7.98944,2.9742 9.21658,4.2732 0.63685,0.6742 1.62587,1.3357 2.19781,1.4701 1.73048,0.4066 6.39774,2.7193 7.8613,3.8954 1.69616,1.3631 1.97707,2.0328 1.20872,2.8818 -0.46487,0.5137 -0.54081,1.0565 -0.34597,2.4732 0.24923,1.8121 0.24773,1.8155 -0.97,2.1957 -5.06375,1.581 -9.62039,2.2594 -15.1774,2.2594 -2.46426,0 -4.27151,0.1838 -5.06474,0.5153 -0.84505,0.3531 -3.69567,0.5984 -9.05418,0.7792 -4.30148,0.1452 -12.31097,0.6212 -17.79885,1.0579 -8.86072,0.7051 -10.03523,0.8724 -10.48929,1.4933 -0.37949,0.519 -0.41422,0.9123 -0.13466,1.5258 0.33565,0.7367 0.67927,0.8382 3.15928,0.9327 2.37213,0.09 2.8018,0.2064 2.91253,0.786 0.22433,1.1741 -0.50703,1.4209 -4.15125,1.4011 -1.94737,-0.011 -5.37192,0.2824 -7.61009,0.6512 -2.23817,0.3688 -4.28492,0.5878 -4.54836,0.4867 -0.57297,-0.2198 -0.66733,-3.4021 -0.10088,-3.4021 0.20795,0 0.95564,-0.2413 1.66154,-0.5363 l 1.28348,-0.5363 -0.74579,-0.7457 c -0.41018,-0.4102 -0.74579,-0.9107 -0.74579,-1.1121 0,-0.2015 -0.26729,-0.3663 -0.59399,-0.3663 -0.58714,0 -11.85929,2.3145 -14.51593,2.9805 l -1.37363,0.3444 0,3.0695 c 0,1.6882 -0.10275,3.3372 -0.22831,3.6645 -0.12561,0.3272 -0.8707,0.9227 -1.65583,1.3232 -1.00975,0.5152 -1.59444,1.1455 -1.99788,2.1539 -0.80934,2.0226 -2.20656,2.4732 -9.19013,2.9634 -3.1858,0.2236 -6.69894,0.5696 -7.807,0.7689 -1.10806,0.1993 -2.95784,0.4808 -4.11063,0.6255 -1.40271,0.1761 -3.34122,0.8836 -5.86082,2.1392 -2.07066,1.0318 -4.64272,2.1501 -5.71569,2.485 l -1.95088,0.6088 -2.28653,-1.4898 -2.28656,-1.4897 -8.58313,1.2623 c -18.0233,2.6506 -26.62255,3.0443 -36.94462,1.6914 l -5.28452,-0.6926 -1.12575,-1.315 c -1.07059,-1.2506 -1.36744,-1.3644 -6.05617,-2.3215 l -4.93041,-1.0063 -3.06272,-3.7546 -3.06276,-3.7546 -15.99957,-0.016 c -8.7998,-0.01 -37.78872,-0.01 -64.41988,0 -26.63115,0.01 -48.6779,-0.086 -48.99277,-0.2066 -0.33195,-0.1274 -0.57249,-0.6539 -0.57249,-1.2532 0,-0.5685 -0.25264,-1.2862 -0.56142,-1.595 -0.46095,-0.4609 -0.47982,-0.6921 -0.10544,-1.2915 0.60784,-0.9734 0.1543,-1.3477 -0.99718,-0.823 -0.514,0.2341 -1.83338,0.4257 -2.93196,0.4257 l -1.99742,0 0,1.9912 c 0,1.7423 -0.19508,2.2762 -1.56071,4.2718 -1.48037,2.1632 -1.68306,2.3152 -3.93774,2.9524 -3.32031,0.9385 -10.95758,0.9385 -14.27789,0 -2.25468,-0.6372 -2.45737,-0.7892 -3.937738,-2.9524 -1.35812,-1.9846 -1.5607,-2.5351 -1.5607,-4.2406 l 0,-1.9599 -2.28938,-0.1405 c -1.25917,-0.077 -2.51465,-0.2149 -2.78997,-0.3059 -0.37622,-0.1244 -0.53272,0.3678 -0.62994,1.9814 -0.0711,1.1808 -0.31277,2.3679 -0.53694,2.638 -0.33684,0.4058 -8.775,0.4947 -48.61246,0.5121 -42.18203029,0.018 -48.2802603,0.089 -48.8082703,0.5672 -0.33187,0.3003 -0.88468,0.546 -1.22847,0.546 -0.34379,0 -1.00975,0.2521 -1.4799,0.5601 -0.73554,0.482 -2.3822497,0.5344 -11.8003297,0.376 -18.67933,-0.3142 -30.27953,-0.7654 -31.6391,-1.2307 -0.7038,-0.2409 -3.06294,-0.438 -5.24255,-0.438 -3.71701,0 -4.28219,0.1044 -9.10834,1.6817 -3.4431,1.1253 -5.26707,1.56 -5.5131,1.3139 -0.62005,-0.62 -0.0144,-1.0731 2.55782,-1.9135 3.17731,-1.038 3.60272,-1.4484 1.50142,-1.4484 -1.96517,0 -10.52216,1.6439 -12.50184,2.4018 -1.3992,0.5356 -4.90199,0.7 -6.39383,0.3001 -0.56745,-0.1521 -0.88594,-0.5958 -1.0481,-1.4602 l -0.23294,-1.2417 -3.60501,0 c -1.98276,0 -3.98939,0.1752 -4.4592,0.3892 -0.4698,0.2141 -1.23886,1.1144 -1.70902,2.0006 -0.93877,1.7696 -0.85574,1.7297 -6.811942,3.273 -2.01466,0.522 -4.10053,1.1922 -4.63528,1.4893 -0.53475,0.2971 -1.63992,0.5403 -2.45594,0.5403 -1.43241,0 -1.49101,0.047 -1.69653,1.3736 -0.40491,2.6128 -1.63672,4.4969 -3.46374,5.2978 -0.91738,0.4021 -2.27753,1.0436 -3.02258,1.4255 -0.74504,0.3818 -1.59932,0.6943 -1.8984,0.6943 -0.29907,0 -0.64828,0.3293 -0.77602,0.7317 -0.12773,0.4025 -0.59214,0.8096 -1.03201,0.9048 -3.03235,0.6559 -17.39138,1.1061 -18.19907,0.5705 z m -14.1901,-22.0792 c 0.5381,-0.3527 2.09661,-0.7756 3.46335,-0.9398 l 2.48498,-0.2986 -4.21247,-0.2883 c -2.31685,-0.1586 -8.37392,-0.2006 -13.46015,-0.093 -8.69235,0.1832 -9.31376,0.2419 -10.348,0.9784 -0.60518,0.4309 -1.10033,0.9532 -1.10033,1.1606 0,0.2532 3.64776,0.3354 11.09712,0.2498 9.81817,-0.1126 11.20988,-0.2013 12.0755,-0.7687 z m 33.60406,-3.5587 c 0,-0.7336 -1.25235,-2.9428 -1.66827,-2.9428 -0.61746,0 -0.99358,2.6415 -0.42735,3.0013 0.63546,0.4038 2.09562,0.363 2.09562,-0.059 z m 219.964272,-0.3794 c 0.12475,-0.2018 -0.21613,-0.5354 -0.75751,-0.7412 -0.87937,-0.3344 -0.96183,-0.5129 -0.77337,-1.6742 0.19636,-1.21 0.12437,-1.3361 -1.04061,-1.8229 -0.68836,-0.2876 -1.33928,-0.5229 -1.44648,-0.5229 -0.10721,0 -0.19492,1.1538 -0.19492,2.5641 l 0,2.5641 1.99304,0 c 1.09617,0 2.0951,-0.1652 2.21985,-0.367 z m 29.853118,-1.6477 0,-2.0146 -1.6035,0 c -1.86897,0 -2.24081,0.3587 -2.56328,2.4725 l -0.23749,1.5568 2.20214,0 2.20213,0 z m -28.086258,-5.9187 c 0.5385,-0.5384 -0.66956,-1.2241 -2.15682,-1.2241 -1.57594,0 -2.23856,0.4026 -1.80827,1.0989 0.2497,0.404 3.58108,0.5092 3.96509,0.1252 z m -284.374232,-9.008 c -0.0159,-1.2982 -0.60566,-1.4963 -2.33612,-0.7846 -0.92666,0.3812 -1.68546,0.8166 -1.68621,0.9677 -7.4e-4,0.1511 0.90522,0.2747 2.01328,0.2747 1.37052,0 2.01286,-0.1464 2.00905,-0.4578 z m 341.65048,-16.4683 c 0.55937,-0.6181 0.52442,-0.6563 -0.60092,-0.6563 -1.0019,0 -1.14901,0.1035 -0.91095,0.641 0.15615,0.3526 0.37982,2.6191 0.49707,5.0367 l 0.21315,4.3956 0.10385,-4.3804 c 0.0811,-3.4193 0.23417,-4.5243 0.6978,-5.0366 z m -117.014768,4.7571 c 0.84084,-1.7881 2.25975,-2.4803 5.1141,-2.4946 1.44573,-0.01 2.57314,-0.2126 3.01862,-0.5495 0.95801,-0.7246 5.44088,-0.741 6.03753,-0.022 0.34872,0.4202 2.33193,0.5191 10.706,0.5337 9.89237,0.017 10.28501,-0.01 10.46491,-0.6968 0.12088,-0.4622 0.72204,-0.8601 1.70152,-1.1263 3.29878,-0.8962 3.47752,-0.9975 1.81549,-1.0289 -0.84184,-0.016 -1.77787,-0.2762 -2.08007,-0.5783 -0.46283,-0.4629 -2.20362,-0.5495 -11.04137,-0.5495 -8.83774,0 -10.57853,0.087 -11.04136,0.5495 -0.47597,0.4759 -3.43625,0.5494 -22.13505,0.5494 l -21.5856,0 0,1.2529 c 0,1.4808 -0.8199503,1.2377 9.35602,2.7743 6.347,0.9583 10.71899,2.0063 11.45949,2.7468 0.11537,0.1154 1.86554,0.1631 3.88926,0.1062 l 3.6795,-0.1036 0.64101,-1.3632 z m -32.9918603,-4.1881 c 0.36843,-0.3334 0.66987,-0.7455 0.66987,-0.9158 0,-0.1702 -2.33517,-0.3095 -5.18927,-0.3095 -2.85409999,0 -5.06821,0.1236 -4.92024,0.2747 0.24469,0.2499 6.38373,1.3994 8.06601,1.5104 0.38706,0.026 1.0052,-0.2264 1.37363,-0.5598 z"
         id="path3008"
         inkscape:connector-curvature="0"
         sodipodi:nodetypes="ccssccccscssscccscccscssssscccsscsscccscssccccscssccsscscssssssssscscssssscsccsccsscsscccscccscsscccscscccscscsscscssccssssssssscscccscscssscsccccsscsssscscscsscsccccsscsscccccsssccscsssssscscssssssscsscssccscssssssssssccccsscsssssssscsccsssscscccsscccccsscsscsscscscccccccscscsssscsscscccsssccs" />
    </g>
  </g>
</svg>
