<?xml version="1.0" encoding="UTF-8" standalone="no"?>
<svg
   xmlns:dc="http://purl.org/dc/elements/1.1/"
   xmlns:cc="http://creativecommons.org/ns#"
   xmlns:rdf="http://www.w3.org/1999/02/22-rdf-syntax-ns#"
   xmlns:svg="http://www.w3.org/2000/svg"
   xmlns="http://www.w3.org/2000/svg"
   version="1.1"
   id="svg2"
   height="20.650574"
   width="199.99997">
  <defs
     id="defs4" />
  <metadata
     id="metadata7">
    <rdf:RDF>
      <cc:Work
         rdf:about="">
        <dc:format>image/svg+xml</dc:format>
        <dc:type
           rdf:resource="http://purl.org/dc/dcmitype/StillImage" />
        <dc:title></dc:title>
      </cc:Work>
    </rdf:RDF>
  </metadata>
  <g
     transform="translate(-49.174574,-503.59418)"
     id="layer1">
    <g
       transform="translate(258.78414,1815.5015)"
       id="g2996">
      <path
         id="path3008"
         d="m -189.29839,-1291.3355 c -0.0907,-0.06 -0.46833,-0.1101 -0.83907,-0.1111 -0.79077,0 -1.41898,-0.2311 -1.50179,-0.5478 -0.0575,-0.2198 -0.13314,-0.2251 -3.39648,-0.2384 -1.83573,-0.01 -3.54806,-0.01 -3.80519,0 -0.53049,0.014 -1.29202,0.011 -2.53001,-0.011 -0.46888,-0.01 -1.199,0 -1.6225,0.019 -1.21446,0.054 -2.12192,-0.087 -2.3132,-0.3603 -0.089,-0.1271 -0.16181,-0.313 -0.16181,-0.4131 0,-0.1001 -0.0679,-0.2384 -0.1509,-0.3073 -0.083,-0.069 -0.1812,-0.3348 -0.21825,-0.591 -0.15232,-1.0532 -0.28027,-1.4869 -0.6172,-2.092 -0.44816,-0.8049 -0.39681,-0.9587 0.32007,-0.9587 0.49759,0 0.56668,-0.031 0.71725,-0.3222 0.0916,-0.1773 0.25378,-0.3462 0.36032,-0.3754 0.39758,-0.1092 1.30128,-0.2725 1.51371,-0.2735 0.49314,0 1.92356,-0.3032 2.05163,-0.4314 0.10985,-0.11 0.10541,-0.1401 -0.0221,-0.1506 -0.0877,-0.01 -0.209,0 -0.2695,0.01 -0.33505,0.069 -4.84776,0.053 -5.49052,-0.019 -0.83226,-0.094 -1.11406,-0.267 -1.22034,-0.7508 -0.0376,-0.1711 -0.13439,-0.3659 -0.21516,-0.4329 -0.0863,-0.072 -0.17957,-0.4947 -0.22611,-1.0251 -0.0588,-0.6699 -0.16298,-1.0696 -0.40344,-1.5472 -0.17831,-0.3542 -0.29768,-0.7131 -0.26528,-0.7975 0.0385,-0.1003 0.23271,-0.1535 0.5601,-0.1535 0.43004,0 0.51565,-0.038 0.60319,-0.2684 0.0561,-0.1476 0.191,-0.315 0.29977,-0.3722 0.21366,-0.1123 0.98612,-0.2661 1.51777,-0.3023 0.58836,-0.04 1.26891,-0.1845 1.32918,-0.282 0.0323,-0.052 -0.0679,-0.095 -0.22268,-0.095 -0.30329,0 -0.7215,-0.3438 -0.7215,-0.5932 0,-0.084 -0.0742,-0.1817 -0.165,-0.2165 -0.0908,-0.035 -0.165,-0.1131 -0.165,-0.174 0,-0.2437 0.71451,-0.4481 2.46706,-0.7055 1.0115,-0.1486 1.86592,-0.297 1.89872,-0.3299 0.0328,-0.033 -0.0822,-0.186 -0.25557,-0.3405 -0.30966,-0.2759 -0.31137,-0.2838 -0.0973,-0.4488 0.26342,-0.203 0.66691,-0.3133 2.03711,-0.5567 0.57476,-0.102 1.09451,-0.2158 1.15501,-0.2527 0.0605,-0.037 -0.286,-0.092 -0.77,-0.1222 -0.86267,-0.054 -0.88069,-0.061 -0.91482,-0.3575 -0.0191,-0.1663 0.006,-0.3043 0.055,-0.3065 1.95863,-0.087 3.71321,-0.2281 3.81171,-0.306 0.0705,-0.056 0.35086,-0.095 0.62311,-0.088 l 0.495,0.013 0.0339,0.4685 c 0.0249,0.3443 -0.0114,0.4859 -0.13687,0.5341 -0.31595,0.1212 -0.0533,0.2624 0.48809,0.2624 0.48899,0 0.59434,-0.05 1.17601,-0.5606 0.73664,-0.6465 1.23992,-0.9286 1.85402,-1.0395 0.23919,-0.043 0.48602,-0.1188 0.54851,-0.1679 0.0625,-0.049 0.86969,-0.1503 1.79378,-0.225 1.63489,-0.132 1.68592,-0.1437 1.89327,-0.4349 0.17032,-0.2392 0.35301,-0.3236 0.91023,-0.4207 1.16693,-0.2032 1.58477,-0.1644 1.90073,0.1766 0.2305,0.2487 0.30686,0.2759 0.46225,0.1647 0.10238,-0.073 0.30125,-0.1828 0.44193,-0.2434 0.14068,-0.061 0.32984,-0.1842 0.42036,-0.2747 0.1242,-0.1242 0.43499,-0.1646 1.26687,-0.1646 0.93573,0 1.14455,0.033 1.38198,0.22 0.15382,0.121 0.39008,0.22 0.52502,0.22 0.13493,0 0.37118,-0.099 0.52501,-0.22 0.23716,-0.1865 0.44625,-0.22 1.37501,-0.22 0.92875,0 1.13785,0.034 1.375,0.22 0.15383,0.121 0.35183,0.22 0.44,0.22 0.0882,0 0.28618,-0.099 0.44,-0.22 0.23692,-0.1863 0.44625,-0.22 1.36882,-0.22 0.78734,0 1.14829,0.045 1.30265,0.1615 0.30058,0.2274 0.34251,0.2111 0.41703,-0.1615 0.078,-0.3899 0.0315,-0.3858 1.94182,-0.1711 0.75642,0.085 2.43943,0.1893 3.74001,0.2318 2.15577,0.07 2.46674,0.057 3.5197,-0.1554 0.94467,-0.1903 1.66581,-0.2405 3.96001,-0.2757 l 2.80501,-0.043 3.41001,0.4896 c 2.63351,0.3781 3.54454,0.5504 4.0008,0.7568 l 0.5908,0.2671 5.95423,0 c 5.74001,0 5.96412,-0.01 6.22922,-0.2175 0.35442,-0.2772 0.71853,-0.2765 1.07285,0 0.27789,0.2186 0.41802,0.2222 8.48738,0.2179 4.51266,0 8.7122,-0.035 9.33233,-0.073 l 1.1275,-0.069 0,-0.5961 c 0,-1.115 -0.47878,-1.0216 5.23401,-1.0216 l 5.00626,0 0.18061,0.3148 0.18062,0.3146 3.03177,0.078 c 1.66749,0.043 3.13928,0.1035 3.27066,0.1351 0.16528,0.04 0.26812,0.1816 0.33372,0.4602 l 0.0948,0.4028 0.662482,0.032 c 0.552454,0.027 0.696255,-0.01 0.865832,-0.1925 0.161075,-0.178 0.338516,-0.2248 0.853525,-0.2248 0.749424,0 0.946598,0.087 1.604841,0.7046 0.263856,0.2478 0.538769,0.4839 0.610931,0.5248 0.07215,0.041 0.599039,0.088 1.170865,0.1043 0.967871,0.028 1.105327,0.062 1.990147,0.4926 1.06234,0.517 0.767331,0.4958 4.367346,0.3136 1.292492,-0.065 1.38651,-0.055 2.090006,0.2259 0.405141,0.1619 0.786756,0.3357 0.848027,0.3861 0.06127,0.051 0.308768,0.1078 0.55,0.1275 0.421246,0.034 0.43997,0.052 0.473111,0.4543 0.01961,0.2379 0.103258,0.445 0.193732,0.4797 0.233808,0.09 3.237739,-0.3628 5.326778,-0.8024 0.998255,-0.2101 2.75155,-0.5527 3.896213,-0.7613 1.40982,-0.257 2.149682,-0.4415 2.293496,-0.572 0.154871,-0.1405 0.468922,-0.2075 1.161087,-0.2476 0.855027,-0.05 0.961318,-0.08 1.075477,-0.3102 0.06968,-0.1403 0.225238,-0.3242 0.345688,-0.4086 0.120451,-0.084 0.249306,-0.3049 0.286342,-0.4901 0.09344,-0.4672 0.535637,-0.8812 0.941274,-0.8812 0.181237,0 0.369117,0.066 0.417495,0.1457 0.09349,0.1549 1.05785,0.1104 3.167976,-0.146 1.267436,-0.154 3.35885,-0.047 3.873553,0.1987 0.353408,0.1686 0.401027,0.168 0.709072,-0.01 0.403856,-0.2318 0.604693,-0.2365 1.012465,-0.024 0.173294,0.09 0.547021,0.1643 0.830505,0.1643 0.28348,0 0.567138,0.052 0.630333,0.1149 0.177111,0.1771 8.486462,0.071 9.334123,-0.1197 1.013457,-0.2275 5.498225,-0.2033 6.435021,0.035 1.310138,0.3328 2.732592,0.5416 3.377348,0.4956 0.899253,-0.064 4.818322,0.2053 6.907679,0.4749 1.647709,0.2126 4.092895,0.6778 9.164856,1.7435 1.168666,0.2456 3.014862,0.5944 4.102666,0.7752 1.087805,0.1808 2.06213,0.3715 2.165178,0.4239 0.103051,0.053 0.434855,0.1544 0.737354,0.2266 0.974429,0.2325 2.399231,0.8931 2.767742,1.2832 0.191246,0.2025 0.488249,0.4011 0.660003,0.4415 0.519663,0.1221 1.921243,0.8166 2.36075,1.1698 0.5093578,0.4093 0.5937151,0.6104 0.3629794,0.8654 -0.1396006,0.1542 -0.1624054,0.3172 -0.1038949,0.7427 0.074844,0.5442 0.074393,0.5452 -0.2912915,0.6593 -1.520645,0.4748 -2.889006,0.6785 -4.557778,0.6785 -0.740018,0 -1.282735,0.055 -1.520942,0.1548 -0.253769,0.106 -1.109811,0.1797 -2.718973,0.234 -1.291736,0.044 -3.696988,0.1865 -5.345,0.3177 -2.660877,0.2117 -3.013583,0.262 -3.149937,0.4484 -0.113961,0.1559 -0.124391,0.274 -0.04044,0.4582 0.100796,0.2212 0.203985,0.2517 0.948733,0.2801 0.712351,0.027 0.841381,0.062 0.874634,0.236 0.06737,0.3526 -0.152262,0.4267 -1.246622,0.4208 -0.584796,0 -1.613189,0.085 -2.285312,0.1955 -0.672123,0.1108 -1.286763,0.1766 -1.365874,0.1462 -0.172063,-0.066 -0.2004,-1.0217 -0.03029,-1.0217 0.06245,0 0.286979,-0.072 0.49896,-0.161 l 0.38543,-0.1611 -0.223961,-0.2239 c -0.123177,-0.1232 -0.223961,-0.2735 -0.223961,-0.334 0,-0.061 -0.08027,-0.11 -0.178375,-0.11 -0.176319,0 -3.561349,0.6951 -4.359138,0.8951 l -0.412502,0.1034 0,0.9218 c 0,0.507 -0.03086,1.0021 -0.06856,1.1004 -0.03772,0.098 -0.261471,0.2771 -0.497246,0.3974 -0.303228,0.1547 -0.478811,0.344 -0.599964,0.6468 -0.243045,0.6074 -0.66263,0.7427 -2.759799,0.8899 -0.956696,0.067 -2.011693,0.1711 -2.344444,0.2309 -0.332751,0.06 -0.88824,0.1444 -1.234423,0.1879 -0.421235,0.053 -1.00337,0.2653 -1.760006,0.6424 -0.62182,0.3098 -1.394211,0.6456 -1.716424,0.7462 l -0.58585,0.1828 -0.686645,-0.4474 -0.686655,-0.4473 -2.577516,0.3791 c -5.412403,0.7959 -7.99476,0.9142 -11.094481,0.5079 l -1.586943,-0.208 -0.338063,-0.3949 c -0.321498,-0.3756 -0.410642,-0.4097 -1.818669,-0.6971 l -1.480604,-0.3022 -0.919736,-1.1275 -0.919748,-1.1276 -4.804675,0 c -2.642583,0 -11.347964,0 -19.345309,0 -7.997334,0 -14.617984,-0.026 -14.712534,-0.062 -0.0997,-0.038 -0.17192,-0.1964 -0.17192,-0.3763 0,-0.1708 -0.0759,-0.3863 -0.1686,-0.479 -0.13842,-0.1384 -0.14409,-0.2079 -0.0317,-0.3879 0.18253,-0.2923 0.0463,-0.4047 -0.29946,-0.2471 -0.15435,0.07 -0.55056,0.1278 -0.88046,0.1278 l -0.59983,0 0,0.598 c 0,0.5232 -0.0586,0.6835 -0.46868,1.2828 -0.44456,0.6496 -0.50542,0.6953 -1.18251,0.8866 -0.99709,0.2819 -3.29056,0.2819 -4.28765,0 -0.67708,-0.1913 -0.73795,-0.237 -1.1825,-0.8866 -0.40785,-0.596 -0.46868,-0.7613 -0.46868,-1.2734 l 0,-0.5886 -0.6875,-0.042 c -0.37813,-0.023 -0.75515,-0.064 -0.83783,-0.092 -0.11298,-0.037 -0.15998,0.1104 -0.18917,0.595 -0.0214,0.3546 -0.0939,0.711 -0.16125,0.7922 -0.10115,0.1218 -2.63513,0.1485 -14.59833,0.1537 -12.66728,0.01 -14.49858,0.027 -14.65714,0.1704 -0.0997,0.09 -0.26567,0.1639 -0.36891,0.1639 -0.10324,0 -0.30323,0.076 -0.44442,0.1682 -0.22088,0.1448 -0.71539,0.1605 -3.54364,0.1129 -5.60941,-0.094 -9.09295,-0.2298 -9.50123,-0.3695 -0.21135,-0.072 -0.9198,-0.1316 -1.57434,-0.1316 -1.11622,0 -1.28594,0.031 -2.73524,0.5051 -1.03396,0.3379 -1.5817,0.4684 -1.65558,0.3945 -0.1862,-0.1862 -0.004,-0.3222 0.76811,-0.5746 0.95415,-0.3117 1.0819,-0.435 0.45088,-0.435 -0.59014,0 -3.15981,0.4937 -3.75431,0.7213 -0.42018,0.1608 -1.47207,0.2102 -1.92007,0.09 -0.1704,-0.046 -0.26604,-0.1789 -0.31474,-0.4385 l -0.07,-0.3729 -1.08259,0 c -0.59542,0 -1.19801,0.053 -1.3391,0.1169 -0.14108,0.064 -0.37203,0.3347 -0.51322,0.6008 -0.28191,0.5314 -0.25698,0.5194 -2.04563,0.9829 -0.605,0.1567 -1.23139,0.358 -1.39197,0.4472 -0.16059,0.089 -0.49247,0.1623 -0.73752,0.1623 -0.43015,0 -0.44775,0.014 -0.50947,0.4125 -0.12159,0.7846 -0.49151,1.3504 -1.04016,1.5909 -0.27549,0.1207 -0.68394,0.3134 -0.90768,0.4281 -0.22374,0.1146 -0.48028,0.2085 -0.57009,0.2085 -0.0898,0 -0.19468,0.099 -0.23304,0.2197 -0.0384,0.1209 -0.17782,0.2431 -0.30992,0.2717 -0.91061,0.197 -5.22263,0.3322 -5.46518,0.1713 z m -4.26129,-6.6304 c 0.16159,-0.1059 0.62961,-0.2329 1.04004,-0.2822 l 0.74624,-0.09 -1.265,-0.086 c -0.69576,-0.048 -2.5147,-0.06 -4.04209,-0.028 -2.61032,0.055 -2.79693,0.073 -3.10751,0.2938 -0.18173,0.1294 -0.33043,0.2863 -0.33043,0.3486 0,0.076 1.09542,0.1007 3.33247,0.075 2.9484,-0.034 3.36633,-0.061 3.62628,-0.2309 z m 10.09131,-1.0687 c 0,-0.2203 -0.37609,-0.8837 -0.50099,-0.8837 -0.18542,0 -0.29837,0.7933 -0.12833,0.9013 0.19083,0.1213 0.62932,0.109 0.62932,-0.018 z m 66.05533,-0.1139 c 0.0375,-0.061 -0.0649,-0.1608 -0.22748,-0.2226 -0.26407,-0.1004 -0.28884,-0.154 -0.23224,-0.5027 0.059,-0.3634 0.0374,-0.4013 -0.3125,-0.5474 -0.20671,-0.086 -0.40218,-0.1571 -0.43438,-0.1571 -0.0322,0 -0.0585,0.3465 -0.0585,0.77 l 0,0.77 0.59851,0 c 0.32918,0 0.62916,-0.05 0.66662,-0.1102 z m 8.9649,-0.4948 0,-0.605 -0.48153,0 c -0.56125,0 -0.67292,0.1077 -0.76975,0.7425 l -0.0713,0.4675 0.6613,0 0.6613,0 z m -8.43431,-1.7774 c 0.16171,-0.1617 -0.20107,-0.3676 -0.64769,-0.3676 -0.47326,0 -0.67224,0.1209 -0.54303,0.33 0.075,0.1213 1.0754,0.1529 1.19072,0.038 z m -85.39767,-2.7051 c -0.005,-0.3898 -0.18188,-0.4493 -0.70153,-0.2356 -0.27828,0.1145 -0.50615,0.2452 -0.50637,0.2906 -2.3e-4,0.045 0.27183,0.082 0.60459,0.082 0.41156,0 0.60446,-0.044 0.60331,-0.1375 z m 102.597745,-4.9454 c 0.167979,-0.1856 0.157483,-0.1971 -0.180456,-0.1971 -0.300869,0 -0.345049,0.031 -0.273559,0.1925 0.0469,0.1059 0.11406,0.7865 0.14927,1.5125 l 0.06401,1.32 0.03119,-1.3154 c 0.02435,-1.0268 0.07032,-1.3587 0.20955,-1.5125 z m -35.139565,1.4285 c 0.2525,-0.5369 0.6786,-0.7448 1.53576,-0.7491 0.43415,0 0.77272,-0.064 0.90649,-0.165 0.28769,-0.2176 1.6339,-0.2225 1.81308,-0.01 0.10472,0.1262 0.70027,0.1559 3.21501,0.1603 2.97068,0.01 3.08859,0 3.14262,-0.2093 0.0363,-0.1388 0.21682,-0.2583 0.51096,-0.3382 0.99063,-0.2691 1.0443,-0.2996 0.5452,-0.309 -0.25281,0 -0.5339,-0.083 -0.62465,-0.1737 -0.13899,-0.139 -0.66175,-0.165 -3.31573,-0.165 -2.65397,0 -3.17673,0.026 -3.31572,0.165 -0.14293,0.143 -1.03191,0.165 -6.64716,0.165 l -6.48217,0 0,0.3763 c 0,0.4447 -0.24623,0.3717 2.80962,0.8331 1.90601,0.2878 3.21892,0.6025 3.44129,0.8249 0.0346,0.035 0.56022,0.049 1.16794,0.032 l 1.10496,-0.031 0.1925,-0.4093 z m -9.90747,-1.2576 c 0.11064,-0.1002 0.20116,-0.2239 0.20116,-0.2751 0,-0.051 -0.70125,-0.093 -1.55834,-0.093 -0.85708,0 -1.52198,0.037 -1.47755,0.082 0.0735,0.075 1.91704,0.4202 2.42223,0.4536 0.11623,0.01 0.30186,-0.068 0.4125,-0.1681 z"
         style="fill:#000000;fill-opacity:1" />
    </g>
  </g>
</svg>
