<?xml version="1.0" encoding="UTF-8" standalone="no"?>
<!-- Created with Inkscape (http://www.inkscape.org/) -->

<svg
   xmlns:dc="http://purl.org/dc/elements/1.1/"
   xmlns:cc="http://creativecommons.org/ns#"
   xmlns:rdf="http://www.w3.org/1999/02/22-rdf-syntax-ns#"
   xmlns:svg="http://www.w3.org/2000/svg"
   xmlns="http://www.w3.org/2000/svg"
   xmlns:sodipodi="http://sodipodi.sourceforge.net/DTD/sodipodi-0.dtd"
   xmlns:inkscape="http://www.inkscape.org/namespaces/inkscape"
   width="108.67316"
   height="23.221306"
   id="svg2"
   version="1.1"
   inkscape:version="0.48.5 r10040"
   sodipodi:docname="Freelancer.svg">
  <defs
     id="defs4" />
  <sodipodi:namedview
     id="base"
     pagecolor="#ffffff"
     bordercolor="#666666"
     borderopacity="1.0"
     inkscape:pageopacity="0.0"
     inkscape:pageshadow="2"
     inkscape:zoom="11.2"
     inkscape:cx="53.112672"
     inkscape:cy="13.594612"
     inkscape:document-units="px"
     inkscape:current-layer="layer1"
     showgrid="false"
     fit-margin-top="0"
     fit-margin-left="0"
     fit-margin-right="0"
     fit-margin-bottom="0"
     inkscape:window-width="1920"
     inkscape:window-height="1018"
     inkscape:window-x="-8"
     inkscape:window-y="-8"
     inkscape:window-maximized="1"
     showguides="true"
     inkscape:guide-bbox="true" />
  <metadata
     id="metadata7">
    <rdf:RDF>
      <cc:Work
         rdf:about="">
        <dc:format>image/svg+xml</dc:format>
        <dc:type
           rdf:resource="http://purl.org/dc/dcmitype/StillImage" />
        <dc:title />
      </cc:Work>
    </rdf:RDF>
  </metadata>
  <g
     inkscape:label="Layer 1"
     inkscape:groupmode="layer"
     id="layer1"
     transform="translate(621.89986,-590.61694)">
    <g
       id="g2996"
       transform="matrix(0.0581502,0,0,0.0581502,-583.07796,630.14632)">
      <path
         style="fill:#000000"
         d="m 504.12667,-280.58281 c -1.8666,-0.227 -3.1101,-1.15138 -3.7253,-2.7693 -0.5078,-1.33571 -1.3334,-2.42857 -1.8345,-2.42857 -1.3413,0 -2.071,-6.29244 -0.8988,-7.75 1.384,-1.72079 -1.4564,-1.63474 -9.7833,0.29639 -5.7091,1.32403 -6.8324,1.3448 -7.812,0.14444 -0.7951,-0.97419 -7.5517,-2.07877 -22.1442,-3.62016 -11.55,-1.22001 -42.3381,-4.88501 -68.4179,-8.14444 -55.3411,-6.91645 -56.1976,-6.94478 -117.0821,-3.87191 l -40.5,2.04405 -33.70592,-2.14867 c -38.78139,-2.47221 -34.48991,-3.20801 -44.8717,7.69348 l -5.57761,5.85682 -12.92239,-0.70924 c -7.10731,-0.39008 -23.04738,-1.79351 -35.422379,-3.11874 -12.375,-1.32523 -22.97223,-2.03839 -23.5494,-1.5848 -2.15324,1.69219 -35.6873,2.02718 -92.4506,0.92354 -32.175,-0.62557 -61.7625,-1.38469 -65.75,-1.68693 -6.47319,-0.49064 -7.25,-0.36011 -7.25,1.21831 0,1.66758 -0.10673,1.67124 -1.88211,0.0645 -2.27757,-2.06117 -5.44286,-2.30885 -46.617891,-3.64779 -37.84198,-1.23056 -45.13843,-1.98468 -67.827,-7.01021 -15.2056,-3.368 -19.56225,-3.94864 -29.62756,-3.94864 -9.26943,0 -12.06757,0.32174 -13.04544,1.5 -1.03871,1.25156 -4.9514,1.5 -23.6239,1.5 -20.42909,0 -25.53742,-0.38952 -58.62756,-4.47047 -19.93669,-2.45876 -38.55684,-4.91184 -41.37811,-5.45128 -2.82126,-0.53944 -10.47781,-1.67875 -17.01456,-2.53181 -6.53674,-0.85305 -13.45047,-1.99998 -15.36383,-2.54872 -1.91336,-0.54875 -7.30681,-0.9946 -11.98544,-0.99078 -12.2481,0.01 -36.71795,-2.68926 -57.5066,-6.34351 l -18,-3.16405 -0.28383,-10.74969 c -0.28209,-10.68362 -0.29899,-10.74969 -2.75,-10.74969 -1.52548,0 -2.46617,-0.57215 -2.46617,-1.5 0,-0.825 -0.42534,-1.5 -0.94521,-1.5 -0.51986,0 -1.08236,-2.1375 -1.25,-4.75 l -0.30479,-4.75 -9.47251,-0.66568 c -8.27991,-0.58187 -9.7107,-0.95958 -11.36432,-3 -4.30172,-5.30793 -11.4311,-21.77348 -19.80514,-45.74066 -4.88995,-13.99542 -10.81226,-29.06973 -13.16069,-33.49846 -4.14362,-7.81417 -4.40183,-8.07695 -8.7336,-8.8884 -2.45506,-0.45989 -16.16374,-0.63517 -30.46374,-0.3895 -26.40456,0.45361 -43.72727,-0.4311 -46.04113,-2.35144 -1.1047,-0.91682 -1.27654,-4.04852 -0.58796,-10.71586 0.0831,-0.80469 1.82126,-1.25392 4.87909,-1.26101 2.6125,-0.006 6.4375,-0.28993 8.5,-0.63084 3.41409,-0.56431 3.75,-0.90371 3.75,-3.78899 0,-1.74304 0.53438,-3.70353 1.1875,-4.35666 0.91667,-0.91667 0.51754,-1.32201 -1.75,-1.77727 -3.50864,-0.70443 -5.31933,-2.00118 -7.96189,-5.70201 -1.81507,-2.54194 -1.92091,-3.80152 -1.30249,-15.5 0.50554,-9.56324 1.17861,-13.85351 2.70362,-17.23322 3.9204,-8.68836 5.84826,-9.73562 21.248,-11.54238 l 4.62473,-0.5426 0.52719,-4.67722 c 0.44629,-3.95945 -0.006,-5.73644 -2.9487,-11.57943 -1.91175,-3.79622 -5.40505,-8.98485 -7.76291,-11.53029 -8.79076,-9.49015 -12.56082,-18.50531 -12.57063,-30.05958 -0.003,-3.61268 -0.49223,-8.32123 -1.08702,-10.46345 -0.9198,-3.31276 -0.80687,-4.26127 0.75557,-6.34563 2.61403,-3.48724 12.35495,-7.12631 22.01294,-8.22373 8.55526,-0.97211 11.07123,-1.82116 13.27878,-4.48109 0.70961,-0.85503 2.14475,-1.5546 3.18919,-1.5546 1.05518,0 2.40515,-1.11088 3.03807,-2.5 0.74253,-1.62966 1.95353,-2.5 3.47857,-2.5 4.66779,0 2.2297,-8.85403 -2.46954,-8.9682 -0.71996,-0.0175 -1.10041,0.3057 -0.84545,0.7182 0.88587,1.43324 -5.86735,0.63039 -9.51756,-1.13148 -3.19738,-1.5433 -5.52412,-1.69404 -18,-1.16616 -37.858,1.60184 -40.82797,1.64561 -40.82797,0.60176 0,-0.57977 -1.0125,-1.0678 -2.25,-1.08453 -2.162,-0.0292 -2.17351,-0.0748 -0.29435,-1.16478 1.94086,-1.12579 1.94086,-1.14015 0,-1.8993 -1.81515,-0.70998 -1.794,-0.76999 0.29435,-0.83522 1.2375,-0.0387 2.25,-0.54464 2.25,-1.12441 0,-0.71243 4.2949,-0.88244 13.25,-0.52449 44.99897,1.79867 43.32924,1.79052 44.63464,0.21762 2.41566,-2.91071 -1.71396,-3.67859 -14.54517,-2.70463 -6.85298,0.52019 -19.00008,0.53673 -28.78468,0.0392 -9.31059,-0.47342 -17.31504,-0.62177 -17.78766,-0.32968 -0.47261,0.29209 -3.08856,0.22448 -5.81322,-0.15026 -3.96766,-0.54567 -4.95391,-1.0608 -4.95391,-2.58748 0,-2.06735 -2.39725,-1.89787 28.73033,-2.03116 5.35168,-0.0229 10.13772,-0.29345 10.63565,-0.60119 1.27679,-0.7891 9.13948,-0.69749 10.46533,0.12193 0.60644,0.3748 4.37998,0.61548 8.38565,0.53483 4.00567,-0.0806 7.73304,-0.0447 8.28304,0.0798 2.15642,0.48832 2.68793,-0.079 1.46007,-1.55851 -1.15179,-1.38781 0.46638,-1.53637 15.62755,-1.43475 18.78571,0.12591 22.74794,-0.52843 23.23222,-3.83664 0.17591,-1.20168 1.20101,-2.65647 2.27801,-3.23286 1.07699,-0.57639 1.75453,-1.37747 1.50564,-1.78019 -1.41104,-2.28308 12.72042,-8.16742 19.61444,-8.16742 1.80628,0 2.78207,-0.52611 2.78207,-1.5 0,-0.93333 0.94444,-1.5 2.5,-1.5 1.375,0 2.5,0.39678 2.5,0.88172 0,0.48495 3.90994,1.20742 8.68875,1.6055 10.93026,0.91048 17.26871,2.54062 21.70903,5.58317 1.9142,1.31164 3.30298,2.56218 3.08617,2.779 -0.72931,0.7293 4.53755,10.15061 5.67456,10.15061 0.8096,0 0.92809,3.36333 0.42281,12.00181 -0.69742,11.92331 -0.6869,12.00716 1.60833,12.82107 2.08861,0.74064 25.10069,0.26289 58.89178,-1.22264 6.91979,-0.30421 27.61979,-0.85027 46,-1.21347 l 33.41857,-0.66036 2.18913,3.01397 c 1.82882,2.51791 3.11808,3.13003 7.83336,3.71916 3.10433,0.38786 7.90072,0.39486 10.65863,0.0156 4.80459,-0.6608 4.9971,-0.80747 4.6011,-3.50559 -0.40327,-2.74762 -0.27825,-2.82961 5.15224,-3.37913 3.06105,-0.30975 15.01554,-1.02556 26.56554,-1.59069 11.55,-0.56512 27.3,-1.46005 35,-1.98872 7.7,-0.52867 26.06456,-1.49638 40.81013,-2.15046 l 26.81012,-1.18925 -0.64802,-3.83563 -0.64803,-3.83567 3.89362,0 c 2.56069,0 5.02934,-0.83791 7.21119,-2.44762 1.82466,-1.3462 4.49958,-2.68562 5.94428,-2.97651 2.50128,-0.50362 40.22753,-3.93378 56.12671,-5.10317 25.488361,-1.87468 44.640771,-3.9862 68.000001,-7.49689 37.66544,-5.66078 51.32970043,-6.18611 87,-3.34477 32.73167,2.60727 44.25581,5.15256 48.95271,10.81197 0.71887,0.86619 2.9642,1.83988 4.98961,2.16376 3.30507,0.5285 3.64273,0.86075 3.29386,3.24105 l -0.38871,2.65218 41.826259,0.0288 c 26.14424,0.018 47.07533,0.51462 55.82627,1.32457 16.03579,1.48419 51.44955,5.99743 52.58993,6.70222 0.42029,0.25975 1.26348,1.98522 1.87375,3.83438 1.01084,3.06287 1.54985,3.4205 6.0562,4.01829 3.30209,0.43804 5.86643,1.51538 7.71336,3.24057 3.99812,3.73458 12.20526,9.13435 24.76676,16.29495 6.05,3.44876 12.125,7.28448 13.5,8.52382 3.41485,3.07793 10.2297,7.53241 11.5238,7.53241 0.5827,0 1.7734,-1.575 2.6459,-3.5 l 1.5864,-3.5 -4.4514,0 c -5.71286,0 -5.53144,-1.81743 0.7091,-7.10352 4.2054,-3.5622 5.1595,-3.89658 13.9641,-4.89397 5.1976,-0.5888 22.5164,-1.28863 38.4862,-1.55517 32.2184,-0.53774 38.5938,-1.32771 42.2106,-5.23031 l 2.3937,-2.58285 46.7158,0.0179 c 25.6937,0.01 50.6724,0.35911 55.5083,0.77621 l 8.7924,0.75837 -0.6737,-2.8433 c -0.3705,-1.56382 -1.5146,-3.77231 -2.5424,-4.90776 -3.0556,-3.37553 -2.432,-6.10731 1.5653,-6.85722 23.4839,-4.40559 171.803,-8.16896 179.0659,-4.54352 2.6946,1.34504 5.6472,1.27556 29,-0.68239 14.3,-1.19894 37.475,-2.89612 51.5,-3.77151 14.025,-0.87539 28.425,-2.01318 32,-2.52842 3.575,-0.51525 14.375,-1.46449 24,-2.10942 9.625,-0.64493 17.9717,-1.55072 18.5483,-2.01286 1.7328,-1.38896 55.2945,-1.48742 56.6777,-0.10418 1.3855,1.38547 8.4582,1.58586 8.9407,0.2533 0.1937,-0.53504 6.8256,-0.12288 15.8333,0.98401 13.0137,1.59914 19.1894,3.01977 38.5,8.85624 55.99443,16.92386 54.60593,16.45353 54.12943,18.33459 -0.2994,1.18175 0.2597,1.91574 1.7131,2.24929 1.1866,0.27231 4.8575,1.11723 8.1575,1.87759 9.3496,2.15427 44.9182,13.136 56.5309,17.45381 14.6675,5.45361 31.5611,13.32332 44.4691,20.71546 6.05,3.4647 14.825,7.9557 19.5,9.98001 8.6641,3.75162 11.1167,5.73454 13.4315,10.85916 1.0806,2.39243 1.0722,3.33855 -0.049,5.5 -0.7449,1.43578 -1.8106,2.61051 -2.3683,2.61051 -1.6217,0 -1.5143,0.57324 1.686,9 3.3761,8.88949 9.6271,27.55782 11.5521,34.5 0.8943,3.22469 1.8186,4.58179 3.2617,4.7886 1.5161,0.21727 2.9674,2.62721 5.8716,9.75 2.2916,5.62041 4.4274,9.4614 5.2609,9.4614 0.7718,0 1.8421,1.15429 2.3785,2.5651 1.3367,3.51582 1.2279,4.4349 -0.5248,4.4349 -1.6209,0 -1.917,2.66496 -0.875,7.875 0.5224,2.61221 1.0871,3.125 3.441,3.125 3.1937,0 4.7043,1.62972 3.0469,3.28713 -0.6809,0.68091 -1.1186,5.40192 -1.1277,12.16287 -0.025,18.66459 -4.2738,30.71368 -14.1529,40.13537 -7.1056,6.77659 -12.4482,10.42993 -30.6549,20.96226 -12.994,7.51691 -15.5406,9.38598 -16.758,12.29941 -1.0649,2.54878 -1.1859,4.33923 -0.4686,6.93695 0.5931,2.14817 0.6117,4.16505 0.048,5.21842 -1.5366,2.87114 -10.8662,6.29311 -17.4502,6.40051 l -5.9515,0.0971 -1.0668,-3.74356 c -1.8652,-6.54541 -3.4966,-6.94451 -15.5431,-3.80238 -13.8919,3.62346 -37.3791,5.57193 -56.0346,4.64854 -9.468,-0.46864 -13.9525,-0.35506 -13.9525,0.3534 0,1.37795 -5.2972,1.3468 -6.6833,-0.0393 -0.5958,-0.59581 -8.6733,-1.69655 -17.95,-2.44608 -9.27673,-0.74953 -18.86633,-1.68349 -21.31033,-2.07547 -4.2099,-0.67521 -21.2969,-7.5231 -23.66,-9.48212 -0.607,-0.5032 -3.1811,-0.63015 -5.7203,-0.28212 l -4.6167,0.63279 -0.2797,12.10597 c -0.2587,11.19854 -0.4296,12.1343 -2.2797,12.48384 -1.9163,0.36205 -3.4522,1.84414 -3.4847,3.36266 -0.01,0.39389 4.8169,0.84389 10.7228,1 9.299,0.24579 10.7831,0.51838 11.0734,2.03383 0.1914,0.9997 -0.2712,1.75 -1.079,1.75 -0.9115,0 -1.8543,2.04416 -2.6521,5.75 -0.6808,3.1625 -1.6612,7.40576 -2.1787,9.42946 l -0.9408,3.67945 -10.8381,-0.57176 c -10.1079,-0.53323 -10.9806,-0.42937 -12.9514,1.54148 -1.1623,1.16228 -4.7138,3.41368 -7.8923,5.00312 -13.1208,6.56119 -25.3118,8.67458 -45.5326,7.89339 -21.6759,-0.8374 -33.88,-4.81619 -45.9245,-14.97226 -6.2939,-5.30712 -7.822,-8.85357 -7.822,-18.15401 0,-7.43879 -0.053,-7.59887 -2.5,-7.59887 -1.375,0 -2.5,-0.51495 -2.5,-1.14434 0,-1.91406 -13.1165,-0.28028 -29.5,3.6745 -8.25,1.99145 -20.625,4.50614 -27.5,5.58821 -6.875,1.08207 -17,3.04395 -22.5,4.35975 -5.5,1.3158 -33.175,6.96677 -61.5,12.55772 -28.325,5.59095 -60.95,12.17536 -72.5,14.63204 -11.55,2.45667 -27.8011,5.75001 -36.1136,7.31852 -19.2451,3.63143 -28.3011,5.85388 -31.1364,7.64129 -2.2375,1.41054 -3.1593,5.37231 -1.25,5.37231 1.1479,0 1.2921,3.28964 0.3505,7.99735 -0.5207,2.60365 -1.4911,3.61963 -4.8952,5.12546 -6.9662,3.08147 -23.2764,5.86316 -29.7572,5.07506 z m 447.5519,-69.9036 c -1.2375,-0.23836 -3.2625,-0.23836 -4.5,0 -1.2375,0.23835 -0.225,0.43337 2.25,0.43337 2.475,0 3.4875,-0.19502 2.25,-0.43337 z"
         id="path2998"
         inkscape:connector-curvature="0" />
    </g>
  </g>
</svg>
