<?xml version="1.0" encoding="UTF-8" standalone="no"?>
<svg
   xmlns:dc="http://purl.org/dc/elements/1.1/"
   xmlns:cc="http://creativecommons.org/ns#"
   xmlns:rdf="http://www.w3.org/1999/02/22-rdf-syntax-ns#"
   xmlns:svg="http://www.w3.org/2000/svg"
   xmlns="http://www.w3.org/2000/svg"
   version="1.1"
   id="svg2"
   viewBox="0 0 85.009003 17.501501"
   width="255.027009">
  <defs
     id="defs4" />
  <metadata
     id="metadata7">
    <rdf:RDF>
      <cc:Work
         rdf:about="">
        <dc:format>image/svg+xml</dc:format>
        <dc:type
           rdf:resource="http://purl.org/dc/dcmitype/StillImage" />
        <dc:title></dc:title>
      </cc:Work>
    </rdf:RDF>
  </metadata>
  <g
     transform="translate(521.9737,-712.38704)"
     id="layer1">
    <g
       transform="translate(1120,362.85714)"
       id="g2996">
      <path
         id="path3004"
         d="m -1574.3179,366.97984 c -1.4864,-0.033 -1.7215,-0.0579 -1.9275,-0.20378 -0.067,-0.0478 -0.3552,-0.37602 -0.6392,-0.72935 l -0.5166,-0.64239 -2.8345,-0.0326 c -3.5159,-0.0405 -7.2716,-0.0499 -14.0309,-0.0352 -4.458,0.01 -5.2401,0.0209 -5.2401,0.0751 0,0.10122 -0.2803,0.23952 -0.549,0.27089 -0.1356,0.0158 -0.8911,0.0602 -1.6788,0.0985 -0.7878,0.0383 -2.5269,0.13022 -3.8648,0.20418 -3.6512,0.20184 -4.1056,0.22083 -5.9562,0.24899 -0.9377,0.0143 -1.828,0.0366 -1.9783,0.0497 l -0.2732,0.0238 -0.084,0.20215 -0.084,0.20215 -4.1093,0 -4.1092,0 -0.075,-0.11455 c -0.05,-0.0764 -0.067,-0.16626 -0.05,-0.26995 l 0.025,-0.15539 -0.2353,-0.0241 c -0.1295,-0.0133 -0.5423,-0.0359 -0.9174,-0.0502 -3.5448,-0.13546 -6.5997,-0.38899 -8.0346,-0.66682 l -0.7599,-0.14712 -0.3757,-0.45671 c -0.2067,-0.25119 -0.4102,-0.52391 -0.4523,-0.60606 -0.074,-0.14477 -0.073,-0.15552 0.036,-0.34992 l 0.1121,-0.20055 -0.8884,-1.18281 -0.8885,-1.18281 -1.467,-0.0132 -1.467,-0.0132 -0.2728,-0.16085 c -0.1789,-0.10548 -0.2777,-0.19453 -0.287,-0.25868 -0.01,-0.0538 -0.1152,-0.17488 -0.2387,-0.26906 -0.1235,-0.0942 -0.2245,-0.1991 -0.2245,-0.23316 0,-0.0412 -0.03,-0.0523 -0.091,-0.0331 -0.061,0.0193 -0.091,0.008 -0.091,-0.0339 0,-0.0345 -0.057,-0.11774 -0.1275,-0.18494 -0.1194,-0.11441 -0.154,-0.12217 -0.544,-0.12217 -0.4483,0 -0.7129,-0.0811 -0.7519,-0.23039 -0.011,-0.0443 -0.1889,-0.20494 -0.394,-0.357 -0.3058,-0.22676 -0.4046,-0.27649 -0.5493,-0.27649 -0.1382,0 -0.2406,-0.0466 -0.4734,-0.21543 l -0.2971,-0.21544 0,-0.37185 c 0,-0.25487 0.018,-0.3791 0.057,-0.39491 0.045,-0.0182 0.044,-0.0318 0,-0.0646 -0.042,-0.0294 -0.055,-0.14501 -0.045,-0.39766 l 0.014,-0.35615 0.2728,-0.21672 c 0.1696,-0.13479 0.32,-0.21781 0.3978,-0.21961 0.1174,-0.003 0.125,-0.0153 0.125,-0.2072 0,-0.18804 0.015,-0.21551 0.1933,-0.34473 0.1063,-0.0772 0.2239,-0.15823 0.2614,-0.18 0.055,-0.032 0.036,-0.0666 -0.1023,-0.18145 -0.135,-0.11229 -0.1705,-0.17367 -0.1705,-0.29442 0,-0.15115 0,-0.15285 -0.2547,-0.18438 -0.1401,-0.0175 -0.2304,-0.0468 -0.2008,-0.0652 0.038,-0.0232 0.029,-0.0429 -0.028,-0.065 -0.064,-0.0245 0.01,-0.0802 0.3125,-0.24503 l 0.3951,-0.21334 0.5099,-0.719 c 0.3301,-0.46542 0.5593,-0.74453 0.6499,-0.79139 0.077,-0.0398 0.4979,-0.19282 0.9356,-0.34001 0.7411,-0.24926 0.8876,-0.28158 2.1369,-0.47145 1.9684,-0.29916 4.6179,-0.76376 5.6834,-0.99664 0.5127,-0.11204 2.6098,-0.52009 4.6604,-0.90678 4.0589,-0.76541 4.6297,-0.84345 6.7064,-0.91699 0.7453,-0.0264 0.8956,-0.019 1.3186,0.0647 0.2626,0.052 1.0093,0.18857 1.6595,0.30353 1.3016,0.23011 2.1285,0.39408 7.6876,1.52442 3.0625,0.62271 7.4618,1.44614 9.2262,1.72691 1.0302,0.16393 11.9712,1.47537 15.186,1.82026 2.1006,0.22535 4.0648,0.43812 4.3649,0.47281 0.3001,0.0347 0.5763,0.063 0.6138,0.0629 0.4268,-0.001 8.4131,1.17308 10.412,1.53098 3.7731,0.6756 5.1621,0.99001 6.9337,1.56949 3.0317,0.99166 4.1628,1.58671 4.8919,2.57362 l 0.1847,0.25004 0.01,1.27374 0.01,1.27373 -0.1249,0.025 c -0.069,0.0137 -0.5697,0.0276 -1.1132,0.0307 l -0.9883,0.006 -0.5463,0.98987 c -0.3005,0.54443 -0.6019,1.05594 -0.6697,1.13668 -0.068,0.0808 -0.1702,0.19981 -0.2274,0.26458 l -0.104,0.11777 -1.3601,-0.0379 c -1.0878,-0.0303 -1.381,-0.0516 -1.4647,-0.10641 -0.089,-0.0581 -0.3716,-0.0685 -1.853,-0.0685 l -1.7484,0 -0.1017,0.1705 c -0.056,0.0938 -0.1745,0.24746 -0.2635,0.34151 l -0.1618,0.171 -2.5932,-0.01 c -1.4263,-0.005 -3.2378,-0.0241 -4.0255,-0.0416 z"
         style="fill:#000000;fill-opacity:1" />
    </g>
  </g>
</svg>
