<?xml version="1.0" encoding="UTF-8" standalone="no"?>
<!-- Created with Inkscape (http://www.inkscape.org/) -->

<svg
   xmlns:dc="http://purl.org/dc/elements/1.1/"
   xmlns:cc="http://creativecommons.org/ns#"
   xmlns:rdf="http://www.w3.org/1999/02/22-rdf-syntax-ns#"
   xmlns:svg="http://www.w3.org/2000/svg"
   xmlns="http://www.w3.org/2000/svg"
   xmlns:sodipodi="http://sodipodi.sourceforge.net/DTD/sodipodi-0.dtd"
   xmlns:inkscape="http://www.inkscape.org/namespaces/inkscape"
   width="282.9971"
   height="58.268089"
   id="svg2"
   version="1.1"
   inkscape:version="0.48.5 r10040"
   sodipodi:docname="New document 1">
  <defs
     id="defs4" />
  <sodipodi:namedview
     id="base"
     pagecolor="#ffffff"
     bordercolor="#666666"
     borderopacity="1.0"
     inkscape:pageopacity="0.0"
     inkscape:pageshadow="2"
     inkscape:zoom="3.959798"
     inkscape:cx="163.23161"
     inkscape:cy="37.210838"
     inkscape:document-units="px"
     inkscape:current-layer="g2996"
     showgrid="false"
     fit-margin-top="0"
     fit-margin-left="0"
     fit-margin-right="0"
     fit-margin-bottom="0"
     inkscape:window-width="1920"
     inkscape:window-height="1018"
     inkscape:window-x="-8"
     inkscape:window-y="-8"
     inkscape:window-maximized="1" />
  <metadata
     id="metadata7">
    <rdf:RDF>
      <cc:Work
         rdf:about="">
        <dc:format>image/svg+xml</dc:format>
        <dc:type
           rdf:resource="http://purl.org/dc/dcmitype/StillImage" />
        <dc:title></dc:title>
      </cc:Work>
    </rdf:RDF>
  </metadata>
  <g
     inkscape:label="Layer 1"
     inkscape:groupmode="layer"
     id="layer1"
     transform="translate(521.973,-671.62021)">
    <g
       id="g2996"
       transform="translate(1120,362.85714)">
      <path
         style="fill:#000000;fill-opacity:1"
         d="m -1416.7235,366.86029 c -4.9489,-0.10995 -5.7315,-0.19269 -6.4174,-0.67845 -0.2248,-0.15921 -1.1826,-1.25193 -2.1284,-2.42827 l -1.7198,-2.13879 -9.4372,-0.1086 c -11.7056,-0.13471 -24.2099,-0.16611 -46.714,-0.11729 -14.8423,0.0322 -17.4462,0.0695 -17.4462,0.24996 0,0.33698 -0.9333,0.79745 -1.8279,0.90188 -0.4517,0.0527 -2.967,0.2003 -5.5896,0.32795 -2.6226,0.12765 -8.4128,0.43355 -12.8671,0.67978 -12.1564,0.67199 -13.6693,0.73524 -19.8304,0.82899 -3.1222,0.0475 -6.0861,0.12197 -6.5865,0.16546 l -0.9098,0.0791 -0.2783,0.67304 -0.2784,0.67303 -13.6812,0 -13.6812,0 -0.2498,-0.38137 c -0.1668,-0.25447 -0.222,-0.55354 -0.166,-0.89876 l 0.084,-0.51737 -0.7837,-0.0803 c -0.431,-0.0442 -1.8054,-0.11937 -3.0543,-0.16709 -11.802,-0.451 -21.9728,-1.2951 -26.7503,-2.2201 l -2.5298,-0.48982 -1.251,-1.52055 c -0.6881,-0.8363 -1.3657,-1.74431 -1.5059,-2.01782 -0.247,-0.48199 -0.2434,-0.51778 0.1183,-1.16499 l 0.3732,-0.66772 -2.9579,-3.93803 -2.958,-3.93803 -4.8842,-0.0438 -4.8842,-0.0438 -0.9082,-0.53554 c -0.5956,-0.35118 -0.9245,-0.64768 -0.9555,-0.86125 -0.026,-0.17914 -0.3835,-0.58225 -0.7947,-0.89581 -0.4112,-0.31355 -0.7476,-0.66287 -0.7476,-0.77626 0,-0.13727 -0.1011,-0.17405 -0.3027,-0.11007 -0.2029,0.0644 -0.3028,0.0272 -0.3028,-0.11285 0,-0.11492 -0.191,-0.39199 -0.4245,-0.61571 -0.3977,-0.38094 -0.5127,-0.40677 -1.8114,-0.40677 -1.4924,0 -2.3733,-0.2699 -2.5033,-0.76704 -0.038,-0.14745 -0.6288,-0.68232 -1.3116,-1.18861 -1.0182,-0.75495 -1.3471,-0.92052 -1.8288,-0.92052 -0.4604,0 -0.8011,-0.15501 -1.5764,-0.71726 l -0.989,-0.71727 0,-1.23802 c 0,-0.84856 0.059,-1.26218 0.1892,-1.31481 0.1495,-0.0607 0.1481,-0.10579 -0.01,-0.21498 -0.1391,-0.098 -0.1831,-0.48281 -0.1514,-1.32396 l 0.045,-1.18577 0.9083,-0.72153 c 0.5648,-0.44877 1.0656,-0.72518 1.3245,-0.73116 0.391,-0.009 0.4163,-0.051 0.4163,-0.68986 0,-0.62605 0.051,-0.71751 0.6433,-1.14774 0.3539,-0.25712 0.7456,-0.5268 0.8705,-0.59927 0.1838,-0.1067 0.119,-0.22169 -0.3406,-0.60413 -0.4494,-0.37387 -0.5677,-0.57822 -0.5677,-0.98024 0,-0.50324 -0.01,-0.50888 -0.848,-0.61386 -0.4664,-0.0583 -0.7672,-0.15588 -0.6685,-0.2169 0.125,-0.0773 0.096,-0.14295 -0.095,-0.21647 -0.2125,-0.0815 0.024,-0.26695 1.0404,-0.8158 l 1.3155,-0.71026 1.6978,-2.39383 c 1.099,-1.54956 1.8621,-2.47883 2.1636,-2.63486 0.2562,-0.13257 1.6579,-0.64197 3.1149,-1.132 2.4676,-0.82989 2.9552,-0.93748 7.1148,-1.56964 6.5535,-0.99601 15.3745,-2.54285 18.9222,-3.31819 1.7068,-0.37302 8.689,-1.73157 15.5162,-3.019 13.5136,-2.54835 15.4139,-2.80819 22.3281,-3.05303 2.4812,-0.0879 2.9817,-0.0633 4.39,0.21555 0.8742,0.17309 3.3605,0.62784 5.5252,1.01056 4.3333,0.76613 7.0864,1.31205 25.5948,5.07538 10.1963,2.07322 24.8433,4.81473 30.7176,5.74952 3.43,0.54581 39.8567,4.91208 50.56,6.06035 6.9937,0.75028 13.5332,1.45865 14.5323,1.57415 0.9991,0.11549 1.9187,0.20969 2.0436,0.20933 1.4208,-0.004 28.0105,3.90564 34.6654,5.09722 12.5622,2.24933 17.1867,3.29612 23.085,5.22542 10.0937,3.3016 13.8594,5.28275 16.2868,8.56856 l 0.615,0.83248 0.026,4.24074 0.026,4.24075 -0.416,0.0832 c -0.2288,0.0457 -1.8966,0.0917 -3.7062,0.10214 l -3.2902,0.019 -1.8191,3.29566 c -1.0005,1.81261 -2.0038,3.51561 -2.2297,3.78443 -0.2259,0.26883 -0.5665,0.66523 -0.7569,0.88089 l -0.3462,0.39211 -4.5284,-0.12608 c -3.6216,-0.10084 -4.598,-0.17177 -4.8766,-0.35427 -0.295,-0.19334 -1.2372,-0.22819 -6.1692,-0.22819 l -5.821,0 -0.3386,0.56767 c -0.1863,0.31222 -0.581,0.82387 -0.8773,1.137 l -0.5387,0.56933 -8.634,-0.0324 c -4.7487,-0.0178 -10.7798,-0.0801 -13.4024,-0.13834 z"
         id="path3004"
         inkscape:connector-curvature="0" />
    </g>
  </g>
</svg>
