<?xml version="1.0" encoding="UTF-8" standalone="no"?>
<!-- Created with Inkscape (http://www.inkscape.org/) -->

<svg
   xmlns:dc="http://purl.org/dc/elements/1.1/"
   xmlns:cc="http://creativecommons.org/ns#"
   xmlns:rdf="http://www.w3.org/1999/02/22-rdf-syntax-ns#"
   xmlns:svg="http://www.w3.org/2000/svg"
   xmlns="http://www.w3.org/2000/svg"
   xmlns:sodipodi="http://sodipodi.sourceforge.net/DTD/sodipodi-0.dtd"
   xmlns:inkscape="http://www.inkscape.org/namespaces/inkscape"
   width="80.071541"
   height="18.602533"
   id="svg2"
   version="1.1"
   inkscape:version="0.48.5 r10040"
   sodipodi:docname="Gladiator.svg">
  <defs
     id="defs4" />
  <sodipodi:namedview
     id="base"
     pagecolor="#ffffff"
     bordercolor="#666666"
     borderopacity="1.0"
     inkscape:pageopacity="0.0"
     inkscape:pageshadow="2"
     inkscape:zoom="11.2"
     inkscape:cx="54.948183"
     inkscape:cy="2.618015"
     inkscape:document-units="px"
     inkscape:current-layer="layer1"
     showgrid="false"
     fit-margin-top="0"
     fit-margin-left="0"
     fit-margin-right="0"
     fit-margin-bottom="0"
     inkscape:window-width="1920"
     inkscape:window-height="1018"
     inkscape:window-x="-8"
     inkscape:window-y="-8"
     inkscape:window-maximized="1"
     showguides="true"
     inkscape:guide-bbox="true" />
  <metadata
     id="metadata7">
    <rdf:RDF>
      <cc:Work
         rdf:about="">
        <dc:format>image/svg+xml</dc:format>
        <dc:type
           rdf:resource="http://purl.org/dc/dcmitype/StillImage" />
        <dc:title />
      </cc:Work>
    </rdf:RDF>
  </metadata>
  <g
     inkscape:label="Layer 1"
     inkscape:groupmode="layer"
     id="layer1"
     transform="translate(564.94794,-846.35124)">
    <g
       id="g2996"
       transform="matrix(0.0429179,0,0,0.0429179,-535.93266,874.4844)">
      <path
         style="fill:#000000"
         d="m 296.42503,-223.64136 c -0.86623,-0.86623 -2.94499,-3.56623 -4.61947,-6 -3.59436,-5.22422 2.95285,-4.7933 -52.44842,-3.45204 -21.45,0.5193 -50.925,1.19367 -65.5,1.49859 -14.575,0.30493 -34.375,0.76956 -44,1.03251 -66.980787,1.82988 -70.466667,1.78725 -115.999997,-1.41871 -23.925,-1.68453 -63.67477,-4.42165 -88.33283,-6.08248 -44.534653,-2.99962 -56.298483,-4.46329 -64.383573,-8.01072 -2.31902,-1.0175 -20.76902,-15.29694 -41,-31.73208 -20.23098,-16.43515 -37.31511,-30.19955 -37.96473,-30.58755 -0.64962,-0.388 -50.82462,-4.96365 -111.5,-10.16812 -60.67538,-5.20446 -112.56887,-9.75037 -115.31887,-10.10202 -11.37817,-1.45495 -21.04478,-7.32036 -25.93465,-15.73637 -1.33131,-2.29132 -10.34975,-23.29104 -20.04099,-46.66604 -9.69124,-23.375 -18.16132,-43.01017 -18.8224,-43.63371 -0.66108,-0.62354 -12.90196,-2.57612 -27.20196,-4.33907 -15.63614,-1.92766 -26.59791,-3.72607 -27.5,-4.51169 -0.825,-0.71848 -5.1,-2.08685 -9.5,-3.04082 -4.4,-0.95396 -8.28512,-1.89521 -8.63359,-2.09167 -1.03156,-0.58154 4.50899,-14.28596 6.01504,-14.87805 0.75979,-0.29871 5.59729,-1.07557 10.75,-1.72637 5.56266,-0.70258 9.36855,-1.63963 9.36855,-2.30663 0,-2.30607 -4.90889,-5.5037 -19.5,-12.70221 l -15,-7.40025 -35,-4.23646 c -19.25,-2.33006 -37.56711,-4.71774 -40.70469,-5.30596 -6.81289,-1.27725 -9.85643,-3.89833 -7.99245,-6.88305 1.00097,-1.6028 0.94929,-1.94406 -0.29439,-1.94406 -2.57529,0 -1.67979,-1.72807 2.74153,-5.29041 13.1448,-10.59101 89.81101,-65.23227 92.79422,-66.13596 1.94933,-0.5905 5.79782,-2.73412 8.5522,-4.7636 7.63365,-5.62461 18.30684,-10.67348 26.51056,-12.5406 6.50527,-1.48056 13.45703,-1.64705 57.89302,-1.38654 43.89934,0.25736 50.72628,0.49846 52.23124,1.8446 1.28255,1.14719 2.07356,1.26444 3.05204,0.45237 0.72643,-0.60289 2.42238,-0.83371 3.76876,-0.51294 1.34638,0.32076 47.96043,18.30981 103.58679,39.97566 88.09276,34.31115 101.47852,39.2633 103.77223,38.39124 1.44837,-0.55067 5.6928,-3.87459 9.43206,-7.38648 8.51684,-7.99895 10.22374,-8.95262 13.67513,-7.6404 2.0509,0.77975 3.30356,0.62068 5.54668,-0.70437 2.86642,-1.69323 3.1684,-1.62211 28.15797,6.63207 l 25.26048,8.34365 27.8611,-0.20219 27.861093,-0.2022 8.14722,-3.02665 c 16.80931,-6.24457 42.52183,-14.89371 53.14721,-17.87759 8.89077,-2.49674 11.5062699,-3.66836 13.6402799,-6.11017 2.53629,-2.9021 3.50125,-3.17062 24.5000001,-6.81761 12.02285,-2.08808 27.1302,-4.07774 33.57189,-4.42145 10.96606,-0.58511 12.28791,-0.88867 20.75,-4.76511 7.56165,-3.46396 9.03783,-4.51562 9.03783,-6.43874 0,-1.2642 0.3375,-2.50364 0.75,-2.75431 2.18617,-1.32851 53.301057,2.38941 75.249997,5.47341 18.18674,2.55539 56.02618,10.1734 66,13.28743 2.475,0.77274 8.41347,2.61394 13.19661,4.09156 l 8.69661,2.68656 12.30339,-3.97344 c 33.13685,-10.70169 34.2683,-10.92871 75.80339,-15.20919 21.175,-2.18223 51.6001,-5.32915 67.6114,-6.99315 16.0113,-1.664 31.6329,-3.02545 34.7148,-3.02545 4.58,0 5.7989,-0.3653 6.6738,-2 0.6719,-1.25542 2.0938,-2 3.8195,-2 2.3804,0 3.1359,-0.81451 5.6337,-6.07404 10.5742,-22.26522 33.338,-38.60292 59.7611,-42.89082 8.6426,-1.4025 14.0481,-1.29247 24.2955,0.49453 10.2955,1.79539 21.7024,6.26815 29.6892,11.64148 6.1553,4.14112 5.4652,4.07909 19.1286,1.71922 3.6039,-0.62246 6.2749,-0.65169 7,-0.0766 0.6771,0.53702 3.7074,0.60763 7.1724,0.16711 11.5079,-1.46302 144.0183,-25.01549 146.3282,-26.00847 1.2806,-0.55045 5.1056,-1.23595 8.5,-1.52332 3.3945,-0.28737 15.3968,-2.19371 26.6718,-4.23632 l 20.5,-3.71384 0.5,-3.38946 c 0.3439,-2.33098 1.1995,-3.64679 2.74,-4.21352 1.9133,-0.7039 2.3257,-0.42827 2.8278,1.88999 0.3233,1.49273 0.9875,3.61406 1.4761,4.71406 1.1728,2.64049 2.6989,12.79471 2.8179,18.75 0.087,4.35003 -0.1035,4.75 -2.2621,4.75 -1.6761,0 -2.716,-0.86666 -3.5997,-3 -0.6835,-1.65 -1.5255,-3.00748 -1.8713,-3.01663 -2.3612,-0.0624 -47.9787,8.32406 -49.3651,9.07549 -0.9551,0.51763 -3.3698,0.94114 -5.3662,0.94114 -3.5337,0 -142.6814,24.22127 -149.1347,25.9597 -1.7805,0.47964 -3.9502,1.58493 -4.8214,2.45619 -0.8713,0.87126 -2.4895,1.58411 -3.5961,1.58411 -1.1065,0 -1.861,0.3375 -1.6766,0.75 5.243,11.72947 6.327,13.22916 9.5696,13.23959 2.9868,0.01 3.2864,0.31233 3.8601,3.90009 0.8319,5.20214 2.7828,5.96973 19.6777,7.74214 7.6924,0.807 31.9973,5.14549 55.0369,9.82423 l 41.2608,8.379 75.7132,37.69411 c 58.2924,29.02112 75.7131,38.10838 75.7131,39.49458 0,1.3401 1.0867,1.9821 4.25,2.51083 2.3375,0.3907 4.4773,1.06602 4.7551,1.50071 0.2779,0.4347 23.2279,5.27248 51,10.75063 55.5252,10.9525 50.7932,9.34549 49.3786,16.76944 l -0.5822,3.05536 12.8492,2.20497 c 16.34366,2.80462 20.92156,2.84199 22.58136,0.18432 1.5937,-2.55193 5.1229,-2.57273 6.8959,-0.0406 1.3077,1.86754 3.1294,1.98756 38.872,2.56083 20.625,0.3308 41.4375,0.63797 46.25,0.6826 4.8125,0.0446 8.75,0.46725 8.75,0.93917 0,0.47192 12.7125,0.91528 28.25,0.98525 15.5375,0.07 33.2,0.4433 39.25,0.82961 10.7183,0.6844 10.539,0.70705 -7,0.88425 -32.2428,0.32577 -59.9859,1.43062 -60.6263,2.41441 -0.345,0.53005 -2.3659,0.68049 -4.5,0.335 -3.4342,-0.55596 -40.9284,0.86354 -47.3737,1.79354 -1.375,0.1984 -10.4875,0.41815 -20.25,0.48835 l -17.75,0.12759 0,5.38409 c 0,4.99541 -0.7695,6.74606 -10.659,24.25 -13.0158,23.03742 -15.23466,25.97008 -21.98896,29.06231 -4.4287,2.02752 -7.0093,2.4334 -16.5494,2.60285 l -11.3026,0.20075 -0.5,11.84447 -0.5,11.84447 -5.741,2.33277 c -6.6654,2.70837 -13.3176,4.14111 -23.5961,5.08214 l -7.3371,0.67173 -3.1914,6.60401 c -2.0711,4.28564 -3.8835,6.73526 -5.1629,6.97789 -1.0843,0.20564 -2.2209,0.7683 -2.5257,1.25037 -0.3048,0.48207 -7.9548,0.91779 -17,0.96827 -9.0452,0.0505 -33.2446,0.99079 -53.7764,2.08959 -34.5577,1.84942 -41.0225,1.89632 -54.589,0.39605 -3.7527,-0.415 -22.966,2.78343 -81,13.48404 -41.8442,7.71545 -81.7054,15.152 -88.5804,16.52567 -37.7839,7.5495 -144.8467,27.86752 -165.5,31.40805 -13.2,2.26284 -30.368,5.21453 -38.1511,6.55931 -7.7832,1.34479 -16.7832,2.70648 -20,3.02598 -3.2169,0.3195 -8.3227,0.88563 -11.3462,1.25805 l -5.4973,0.67714 -1.0027,6 c -0.5515,3.3 -1.3668,6.5625 -1.8117,7.25 -0.6247,0.96513 -9.7811,1.25 -40.1786,1.25 -34.4947,0 -39.56456,-0.19502 -40.94451,-1.57497 z"
         id="path2998"
         inkscape:connector-curvature="0" />
    </g>
  </g>
</svg>
