<?xml version="1.0" encoding="UTF-8" standalone="no"?>
<!-- Created with Inkscape (http://www.inkscape.org/) -->

<svg
   xmlns:dc="http://purl.org/dc/elements/1.1/"
   xmlns:cc="http://creativecommons.org/ns#"
   xmlns:rdf="http://www.w3.org/1999/02/22-rdf-syntax-ns#"
   xmlns:svg="http://www.w3.org/2000/svg"
   xmlns="http://www.w3.org/2000/svg"
   xmlns:sodipodi="http://sodipodi.sourceforge.net/DTD/sodipodi-0.dtd"
   xmlns:inkscape="http://www.inkscape.org/namespaces/inkscape"
   width="67.000008"
   height="17.318285"
   id="svg2"
   version="1.1"
   inkscape:version="0.48.5 r10040"
   sodipodi:docname="Gladius.svg">
  <defs
     id="defs4" />
  <sodipodi:namedview
     id="base"
     pagecolor="#ffffff"
     bordercolor="#666666"
     borderopacity="1.0"
     inkscape:pageopacity="0.0"
     inkscape:pageshadow="2"
     inkscape:zoom="15.839192"
     inkscape:cx="41.830168"
     inkscape:cy="8.5492482"
     inkscape:document-units="px"
     inkscape:current-layer="layer1"
     showgrid="false"
     fit-margin-top="0"
     fit-margin-left="0"
     fit-margin-right="0"
     fit-margin-bottom="0"
     inkscape:window-width="1920"
     inkscape:window-height="1018"
     inkscape:window-x="-8"
     inkscape:window-y="-8"
     inkscape:window-maximized="1" />
  <metadata
     id="metadata7">
    <rdf:RDF>
      <cc:Work
         rdf:about="">
        <dc:format>image/svg+xml</dc:format>
        <dc:type
           rdf:resource="http://purl.org/dc/dcmitype/StillImage" />
        <dc:title />
      </cc:Work>
    </rdf:RDF>
  </metadata>
  <g
     inkscape:label="Layer 1"
     inkscape:groupmode="layer"
     id="layer1"
     transform="translate(495.26308,-649.48252)">
    <g
       id="g2996"
       transform="matrix(0.03745881,0,0,0.03745881,-461.1214,684.80847)">
      <path
         style="fill:#000000"
         d="m -405.74082,-483.14876 c -13.0735,-1.26968 -24.3235,-2.50937 -25,-2.75488 -0.68505,-0.2486 6.71075,-8.46087 16.69286,-18.53569 17.88384,-18.04994 17.9169,-18.0916 15.1849,-19.1303 -1.50588,-0.57253 -4.92116,-1.04097 -7.58953,-1.04097 -2.66836,0 -5.01163,-0.4802 -5.20726,-1.0671 -0.19564,-0.58691 -6.39368,-2.38625 -13.77342,-3.99854 -13.14171,-2.87114 -14.99124,-3.74344 -15.02224,-7.08502 -0.01,-1.07821 -1.31581,-1.95765 -3.76531,-2.53587 l -3.75,-0.8852 -0.28339,-11.9057 c -0.23474,-9.86162 -0.0201,-12.05302 1.25,-12.76382 1.0196,-0.5706 1.53339,-2.34929 1.53339,-5.30844 0,-3.59714 0.3406,-4.45031 1.77663,-4.45031 1.60288,0 1.77403,-1.1491 1.75,-11.75 l -0.0266,-11.75 8.38657,-0.29265 c 6.92051,-0.24149 11.3782,0.40078 25.5,3.67405 l 17.11343,3.9667 36.41008,0.25936 36.41008,0.25936 0.8077,-2.18341 c 0.65047,-1.7584 1.60612,-2.18341 4.90947,-2.18341 3.62907,0 4.06495,-0.24767 3.78222,-2.14906 -0.25583,-1.72055 -1.73892,-2.56798 -7.43801,-4.25 -5.10268,-1.50601 -7.97726,-3.02126 -10.15121,-5.35094 -3.35851,-3.5991 -5.68024,-4.0578 -8.34275,-1.64826 -1.62331,1.46907 -5.00707,1.46498 -40.85288,-0.0494 l -39.08297,-1.65117 -15.19171,-7.04495 c -15.21598,-7.05621 -24.54885,-9.7487 -25.99531,-7.49953 -0.4044,0.62884 -1.01917,2.6175 -1.36615,4.41926 -0.47674,2.47558 -1.65488,3.87602 -4.82232,5.73227 -3.92044,2.29753 -10.21965,3.13644 -97.41912,12.97408 -91.80245,10.35694 -93.58259,10.51795 -116.44242,10.53224 l -23.21473,0.0145 -38.5,-9.1398 c -101.11992,-24.0056 -166.41146,-39.9007 -167.22022,-40.70946 -1.22851,-1.22851 16.37261,-7.40493 23.22022,-8.14823 l 5.5,-0.59702 -5.5,-1.23931 c -3.025,-0.68162 -9.85056,-2.58101 -15.16791,-4.22087 l -9.66791,-2.98156 -1.13471,-5.2464 c -2.6555,-12.27773 -4.01684,-25.10973 -4.0045,-37.74639 l 0.0132,-13.5 7.23093,-3.18143 c 22.15583,-9.74804 36.06617,-12.05616 83.82402,-13.9088 l 17.59309,-0.68248 0.13178,-3.50518 c 0.0725,-1.92785 0.30604,-3.67946 0.51904,-3.89246 0.32856,-0.32855 55.0285,-10.31621 56.61218,-10.33682 0.30295,-0.004 2.77268,-2.70394 5.48831,-6 2.71562,-3.29605 5.52812,-5.99283 6.25,-5.99283 0.72187,0 1.3125,-0.6281 1.3125,-1.39578 0,-1.76594 114.39502,-135.75732 117.04162,-137.09135 1.07711,-0.54292 1.95838,-1.52294 1.95838,-2.17783 0,-1.2285 31.3509,-38.30244 33.41546,-39.51538 0.63691,-0.37419 5.64149,-0.8131 11.12128,-0.97534 l 9.96326,-0.295 44.5,19.60169 c 24.475,10.78093 62.95,27.59834 85.5,37.37201 22.55,9.77368 42.06024,18.71682 43.3561,19.87365 1.29585,1.15683 2.79855,3.22833 3.33933,4.60333 0.54078,1.375 1.98039,21.04985 3.19913,43.72189 1.21874,22.67204 2.51367,41.51968 2.87763,41.88364 0.36396,0.36395 33.63911,-0.98993 73.94478,-3.00864 91.54573,-4.58506 111.36531,-5.35712 156.28303,-6.08788 88.895366,-1.44623 148.5365662,-2.5263 166.999996,-3.0243 81.733504,-2.20452 109.955204,-2.68426 153.263004,-2.60535 l 49.263,0.0898 23.90228,12.01544 23.9024,12.01544 61.6283,0 61.6283,0 9.5423,3.574 c 5.2483,1.96571 10.1786,3.32983 10.9564,3.03139 1.0563,-0.40534 1.414,-2.57447 1.414,-8.57401 l 0,-8.03138 8.75,0.0744 c 4.8125,0.0409 21.35,1.73456 36.75,3.76371 l 28,3.68934 -0.1077,3.66431 -0.1077,3.66431 7.6077,0.61516 c 20.7454,1.67746 30.3414,2.6887 38.1077,4.01584 4.675,0.79888 15.7,2.60814 24.5,4.02057 33.3311,5.34978 68.4656,14.48044 92.9468,24.1548 29.8327,11.7891 50.9253,24.06733 74.3281,43.26718 6.7512,5.53873 12.6012,10.06329 13,10.05458 0.3988,-0.009 3.2001,2.62215 6.2251,5.84636 6.2494,6.66093 31.3128,28.16948 32.8253,28.16948 0.5476,0 4.5234,2.86312 8.8351,6.36248 6.242,5.06586 9.528,6.91908 16.1243,9.09367 6.2421,2.05781 8.6164,2.45584 9.6303,1.61439 1.9537,-1.62142 16.585,6.33306 16.585,9.01662 0,1.28335 1.7027,2.81887 5.1708,4.66313 2.844,1.51234 6.1065,3.70127 7.25,4.86428 1.1436,1.16302 8.8292,6.27011 17.0792,11.34908 8.25,5.07898 15.5875,9.79347 16.3055,10.47665 1.8285,1.73979 0.4862,11.21003 -1.9047,13.43745 -2.0725,1.9309 -72.468,22.19377 -86.9008,25.01385 -5.225,1.02093 -15.575,2.66613 -23,3.656 l -13.5,1.79977 -6,5.55551 c -3.3,3.05553 -9.8551,9.25349 -14.567,13.77324 l -8.567,8.21772 -8.933,-0.464 c -4.9131,-0.2552 -29.183,-1.12785 -53.933,-1.93924 -24.75,-0.81138 -50.85,-1.69592 -58,-1.96564 -36.757,-1.3866 -66.5,-1.68302 -66.5,-0.66274 0,2.17378 -6.2176,8.05556 -9.8,9.2707 -2.4147,0.81906 -8.4217,1.17294 -17.2924,1.01871 -11.7634,-0.20451 -13.7818,-0.007 -15,1.46516 -0.7742,0.93582 -3.6576,2.75047 -6.4076,4.03258 -4.8811,2.27566 -5.7044,2.33132 -34.6228,2.34086 l -29.6228,0.01 -39.3772,-12.11537 -39.3772,-12.11536 -36,-2.30543 c -33.415,-2.13988 -37.0771,-2.20407 -51,-0.894 -8.25,0.77629 -54.43148,5.0128 -102.62558,9.41449 l -87.625504,8.00305 -96.87446,-4.57642 c -83.760956,-3.95694 -99.987846,-4.47761 -119.874436,-3.84642 -37.25627,1.18251 -101.7422,1.1946 -119,0.0223 -13.15338,-0.89348 -16.06021,-0.85053 -16.3384,0.24142 -0.51075,2.0048 -0.0954,2.15281 8.93038,3.18222 8.44218,0.96285 17.90802,3.70463 17.90802,5.18705 0,0.44135 -0.59433,0.80246 -1.32072,0.80246 -0.7264,0 -25.5889,6.29593 -55.25,13.99095 -42.30351,10.97486 -55.22273,13.96815 -59.92928,13.88518 -3.3,-0.0582 -16.6965,-1.1446 -29.77,-2.41429 z M 76.132676,-596.32388 c 7.4111,-3.598 13.2579,-6.75867 12.9928,-7.02372 -0.5466,-0.54663 -147.79549,-7.20582 -160.10219,-7.24046 -7.91388,-0.0223 -8.02091,0.0114 -9.31301,2.93046 -0.73143,1.65241 -3.37141,4.19828 -5.99411,5.78043 l -4.68699,2.82744 -28.499996,-0.11809 -28.5,-0.11809 -3.05203,3.08765 c -1.67862,1.69821 -4.31377,3.98766 -5.85589,5.08766 l -2.80384,2 111.170236,-0.33573 111.17022,-0.33573 13.4748,-6.54182 z"
         id="path2998"
         inkscape:connector-curvature="0" />
    </g>
  </g>
</svg>
