<?xml version="1.0" encoding="UTF-8" standalone="no"?>
<svg
   xmlns:dc="http://purl.org/dc/elements/1.1/"
   xmlns:cc="http://creativecommons.org/ns#"
   xmlns:rdf="http://www.w3.org/1999/02/22-rdf-syntax-ns#"
   xmlns:svg="http://www.w3.org/2000/svg"
   xmlns="http://www.w3.org/2000/svg"
   version="1.1"
   id="svg2"
   viewBox="0 0 30.998434 7.2811599"
   width="92.995302">
  <defs
     id="defs4" />
  <metadata
     id="metadata7">
    <rdf:RDF>
      <cc:Work
         rdf:about="">
        <dc:format>image/svg+xml</dc:format>
        <dc:type
           rdf:resource="http://purl.org/dc/dcmitype/StillImage" />
        <dc:title></dc:title>
      </cc:Work>
    </rdf:RDF>
  </metadata>
  <g
     transform="translate(559.0513,-723.05916)"
     id="layer1">
    <g
       transform="translate(80.812226,6.0609201)"
       id="g2996">
      <path
         id="path3004"
         d="m -625.78456,724.23996 c -0.0334,-0.0385 -0.0459,-0.0401 -0.38182,-0.051 -0.19098,-0.006 -0.42841,-0.0113 -0.5276,-0.0113 -0.20297,0 -0.2367,-0.0166 -0.2367,-0.11629 l 0,-0.054 -2.98861,0 c -2.02758,0 -2.99921,-0.006 -3.02154,-0.0176 -0.0276,-0.0148 -0.0329,-0.0364 -0.0329,-0.1341 0,-0.0769 0.008,-0.12294 0.0229,-0.13551 0.0166,-0.0137 0.58561,-0.0202 2.04698,-0.0234 1.95276,-0.004 2.02396,-0.005 2.02144,-0.0356 -10e-4,-0.0172 -0.0282,-0.0688 -0.0596,-0.11475 -0.0738,-0.10808 -0.14785,-0.13484 -0.37336,-0.13484 -0.14348,0 -0.17665,-0.006 -0.24805,-0.0426 -0.15991,-0.0827 -0.27337,-0.0958 -0.93357,-0.10789 l -0.61282,-0.0112 -0.005,-0.0525 c -0.003,-0.0298 0.005,-0.061 0.0186,-0.0722 0.013,-0.0108 0.7354,-0.15728 1.60527,-0.32549 0.86988,-0.16821 1.60648,-0.31096 1.63691,-0.31723 0.0773,-0.0159 0.0699,-0.0463 -0.008,-0.0349 -0.0351,0.005 -0.19406,0.0218 -0.35323,0.0372 l -0.28939,0.0279 -0.11916,-0.0399 c -0.0942,-0.0316 -0.12026,-0.0477 -0.12444,-0.0771 -0.006,-0.0457 -0.002,-0.0486 0.74845,-0.49013 0.31217,-0.18367 0.5811,-0.35202 0.59762,-0.37411 0.0165,-0.0221 0.13929,-0.102 0.27284,-0.17758 0.13355,-0.0756 0.25792,-0.14899 0.27638,-0.16312 0.0331,-0.0253 0.0329,-0.0263 -0.009,-0.06 -0.0801,-0.0646 -0.10438,-0.0603 -0.26769,0.0469 -0.14527,0.0954 -0.16163,0.10177 -0.31304,0.12202 -0.12382,0.0166 -0.1989,0.039 -0.33374,0.0998 -0.0957,0.0431 -0.17829,0.0897 -0.18355,0.10337 -0.005,0.0137 -0.0145,0.0715 -0.0204,0.1284 -0.0128,0.12229 -0.0712,0.19726 -0.15379,0.19726 -0.0271,0 -0.11382,0.0217 -0.19282,0.0483 -0.079,0.0266 -0.20491,0.0577 -0.27981,0.0691 -0.14201,0.0217 -0.33303,0.077 -0.39153,0.11325 -0.0187,0.0116 -0.10681,0.0422 -0.19576,0.0679 -0.37776,0.10918 -0.97148,0.36136 -1.03719,0.44055 -0.0123,0.0148 -0.0335,0.027 -0.047,0.027 -0.024,0 -0.31163,-0.28114 -0.31163,-0.30461 0,-0.006 0.067,-0.042 0.14895,-0.0789 0.0819,-0.0369 0.13688,-0.0695 0.12214,-0.0723 -0.0348,-0.007 -0.33084,0.0915 -0.40492,0.13437 -0.0623,0.0361 -0.11409,0.0298 -0.12971,-0.0157 -0.005,-0.0159 -0.0356,-0.0589 -0.067,-0.0956 l -0.0571,-0.0666 -0.10471,0.0392 c -0.0576,0.0215 -0.12343,0.0539 -0.14632,0.0719 -0.0511,0.0402 -0.0597,0.0353 -0.18688,-0.10547 -0.055,-0.0608 -0.11061,-0.11709 -0.1236,-0.12496 -0.0258,-0.0157 -0.11392,0.0133 -0.16027,0.0527 -0.0157,0.0133 -0.0394,0.0216 -0.0528,0.0185 -0.04,-0.01 -0.30611,-0.30175 -0.2968,-0.32601 0.009,-0.0233 0.34456,-0.12096 0.6249,-0.18184 0.0889,-0.0193 0.28428,-0.0425 0.43409,-0.0514 0.43518,-0.0261 0.48686,-0.0326 0.96178,-0.12077 0.54574,-0.10136 0.52771,-0.0974 0.52771,-0.11557 0,-0.008 -0.0441,-0.029 -0.0979,-0.0465 -0.0735,-0.0239 -0.0991,-0.0407 -0.10296,-0.0673 -0.007,-0.05 0.0198,-0.0664 0.18033,-0.10946 0.0777,-0.0208 0.13779,-0.0413 0.13361,-0.0455 -0.004,-0.004 -0.19794,0.0308 -0.43059,0.0778 -0.44607,0.0901 -0.91223,0.17227 -0.97667,0.17227 -0.0211,0 -0.0478,-0.0128 -0.0593,-0.0286 -0.0192,-0.0262 -0.0423,-0.0269 -0.27424,-0.008 -0.27309,0.0219 -0.53934,0.0258 -0.6387,0.009 -0.0606,-0.01 -0.063,-0.0133 -0.10821,-0.15243 -0.0493,-0.15148 -0.17674,-0.37501 -0.27055,-0.47448 -0.0494,-0.0524 -0.0675,-0.0604 -0.1364,-0.0604 -0.0437,0 -0.36452,-0.0114 -0.71295,-0.0253 -2.67013,-0.10656 -2.50126,-0.0966 -2.75845,-0.16269 -0.17077,-0.0439 -0.3361,-0.12704 -0.53911,-0.27114 -0.15108,-0.10724 -0.1718,-0.11664 -0.31493,-0.14301 -0.0843,-0.0155 -0.2298,-0.0521 -0.32343,-0.0814 -0.16757,-0.0523 -0.19666,-0.0552 -0.4511,-0.0451 l -0.12767,0.005 -0.005,0.0978 c -0.004,0.0861 -0.01,0.0989 -0.0447,0.10772 -0.0218,0.005 -0.0617,0.007 -0.0885,0.004 -0.0472,-0.005 -0.0492,-0.009 -0.0574,-0.11623 l -0.008,-0.11065 -0.11299,0 c -0.086,0 -0.12133,-0.008 -0.14792,-0.0315 -0.0328,-0.0296 -0.0399,-0.0299 -0.11682,-0.005 -0.045,0.0146 -0.11968,0.0288 -0.16588,0.0315 -0.0773,0.005 -0.0848,0.002 -0.0945,-0.0376 -0.01,-0.0393 -0.017,-0.0421 -0.0948,-0.0371 -0.0595,0.004 -0.0911,0.0151 -0.10761,0.0383 -0.0211,0.0297 -0.0455,0.0329 -0.25109,0.0329 -0.12525,0 -0.22773,-0.007 -0.22773,-0.0154 0,-0.0286 0.16993,-0.13777 0.21448,-0.13777 0.0313,0 0.0777,-0.0323 0.15879,-0.11065 l 0.11461,-0.11065 0.19014,0 c 0.10458,0 0.19014,-0.007 0.19014,-0.0154 0,-0.008 -0.0933,-0.0525 -0.20728,-0.0978 -0.19679,-0.0782 -0.20856,-0.0856 -0.23242,-0.14637 -0.0234,-0.0596 -0.0424,-0.0723 -0.27361,-0.18389 -0.4077,-0.19672 -0.46126,-0.27537 -0.46126,-0.67738 0,-0.16079 0.007,-0.24351 0.0213,-0.26333 0.0158,-0.0215 0.0647,-0.0331 0.1915,-0.0454 0.0936,-0.009 0.18747,-0.0167 0.20853,-0.0169 0.0496,-6.1e-4 0.0485,-0.026 -0.007,-0.16088 l -0.0452,-0.11004 -0.44361,-0.29459 c -0.24398,-0.16202 -0.44637,-0.304 -0.44977,-0.31552 -0.003,-0.0115 0.0212,-0.034 0.0546,-0.0499 0.0589,-0.0281 0.071,-0.0272 0.38006,0.0265 0.31795,0.0553 0.32219,0.0556 1.04271,0.0647 0.7424,0.009 1.345,-0.009 2.39401,-0.0743 0.45233,-0.028 0.47478,-0.0278 1.08094,0.009 0.34047,0.0205 0.81764,0.0448 1.06038,0.054 0.5942,0.0226 1.85892,0.0214 2.48914,-0.002 0.57903,-0.0218 0.79006,-0.009 1.05265,0.0638 0.16259,0.0451 0.2434,0.0855 0.42011,0.20999 0.21979,0.15484 0.54857,0.31234 1.00018,0.47912 0.12568,0.0464 0.26595,0.10478 0.31171,0.12968 l 0.0832,0.0453 0.13939,-0.0286 c 0.5186,-0.10659 1.13154,-0.14227 1.55228,-0.0904 0.48185,0.0594 0.94645,0.18163 1.38434,0.36407 0.18737,0.0781 0.22541,0.0998 0.2188,0.12509 -0.0105,0.04 -6e-4,0.0463 0.20978,0.13329 0.37513,0.15516 1.05735,0.54464 1.44621,0.82563 0.26364,0.19052 0.51479,0.353 0.61172,0.39576 0.12948,0.0571 0.23233,0.12552 0.25057,0.16665 0.0137,0.0308 0.0315,0.034 0.18533,0.034 l 0.17024,0 0.008,0.0936 0.008,0.0936 0.36599,0.008 c 0.31216,0.007 0.37218,0.0129 0.40808,0.0383 0.0716,0.0507 0.1864,0.0393 0.30271,-0.03 0.12789,-0.0762 0.35824,-0.13479 0.63401,-0.16131 0.11703,-0.0113 0.24735,-0.0242 0.2896,-0.0287 0.0991,-0.0106 0.15717,0.0326 0.2128,0.15836 l 0.0404,0.0915 0.0919,0 c 0.0965,0 0.14826,0.0317 0.14826,0.0907 0,0.034 -0.0192,0.0333 0.86314,0.0293 l 0.19073,-9e-4 0.0105,-0.0553 c 0.0124,-0.0655 0.0344,-0.0965 0.0968,-0.13642 0.0419,-0.0268 0.10962,-0.0296 0.72378,-0.0296 l 0.67755,0 0.0629,0.0428 c 0.0446,0.0303 0.0682,0.0625 0.0812,0.11066 0.0174,0.0646 0.0533,0.0884 0.0765,0.0509 0.015,-0.0243 0.54089,-0.0226 0.56529,0.002 0.0121,0.0121 0.0484,0.0146 0.10129,0.007 0.16353,-0.0235 0.60321,-0.0287 0.62884,-0.007 0.0168,0.0139 0.11174,0.0194 0.30798,0.0179 0.23096,-0.002 0.29125,0.003 0.32421,0.0244 0.0374,0.0245 0.0463,0.0237 0.11611,-0.0101 0.0586,-0.0284 0.0756,-0.0459 0.0756,-0.0779 0,-0.0334 0.0176,-0.0493 0.0925,-0.0836 0.0877,-0.0401 0.10867,-0.0423 0.3995,-0.0423 0.2771,0 0.31355,0.003 0.37444,0.0352 0.0855,0.0446 0.10941,0.0736 0.0958,0.11638 -0.0131,0.0413 0.0302,0.13031 0.0751,0.15436 0.0348,0.0186 0.54084,0.0248 0.58683,0.007 0.0212,-0.008 0.0269,-0.037 0.0269,-0.13495 0,-0.11435 0.004,-0.12752 0.0448,-0.15989 0.0425,-0.0334 0.0659,-0.0353 0.44785,-0.0353 0.44217,0 0.44442,3e-4 0.49303,0.10382 0.0377,0.0801 0.10835,0.0839 0.30511,0.0163 l 0.15162,-0.0521 0.55513,0 c 0.62833,0 0.66674,0.006 0.71702,0.11197 l 0.0276,0.0582 0.12741,0 c 0.15347,0 0.16325,0.0129 0.10168,0.13446 -0.0377,0.0744 -0.0511,0.0868 -0.0934,0.0868 -0.0784,0 -0.10324,0.0165 -0.10324,0.0685 0,0.0391 0.009,0.0499 0.0496,0.0588 0.039,0.009 0.0594,0.031 0.0958,0.10539 0.0548,0.11199 0.046,0.12409 -0.0905,0.12449 -0.0773,2.2e-4 -0.0918,0.006 -0.10444,0.0386 -0.008,0.0211 -0.0307,0.0527 -0.0503,0.0704 -0.0196,0.0176 -0.0315,0.0387 -0.0264,0.0468 0.005,0.008 0.32227,0.0147 0.70503,0.0147 0.65717,0 0.74876,0.006 0.70885,0.0458 -0.0187,0.0187 -0.34583,0.11073 -0.51309,0.14438 -0.15996,0.0322 -0.26233,0.0349 -1.69786,0.0461 -1.04113,0.008 -1.53341,0.0177 -1.54574,0.03 -0.01,0.01 -0.0158,0.063 -0.0129,0.11847 l 0.005,0.10036 0.0723,0.005 c 0.0592,0.004 0.0741,0.0124 0.0822,0.0447 0.008,0.0318 0.025,0.0415 0.0876,0.0501 0.0427,0.006 0.49638,0.0106 1.00814,0.0106 0.701,0 0.93551,0.005 0.9509,0.0204 0.0132,0.0132 0.0204,0.0819 0.0204,0.19476 0,0.10205 0.007,0.17885 0.0177,0.18524 0.01,0.006 0.42052,0.01 0.9129,0.009 0.81294,-0.002 0.89813,6e-4 0.92656,0.0263 0.0416,0.0376 0.0173,0.0834 -0.0568,0.1072 -0.29371,0.0942 -1.9318,0.39228 -3.13657,0.57068 -1.18343,0.17524 -2.25016,0.24825 -3.62802,0.24833 -0.60151,0 -0.70309,0.004 -0.7213,0.0256 -0.018,0.0217 -0.0999,0.0255 -0.54255,0.0255 l -0.52137,0 -0.62133,0.11132 c -0.34173,0.0612 -0.87412,0.14956 -1.18308,0.19631 -0.30896,0.0467 -0.60388,0.0922 -0.65537,0.1011 -0.0515,0.009 -0.22769,0.0316 -0.39153,0.0504 -0.82831,0.0954 -1.20091,0.13673 -1.37884,0.15291 -0.10767,0.01 -0.30684,0.0291 -0.44259,0.0428 -0.24431,0.0248 -0.69084,0.0598 -1.21637,0.0954 -0.16709,0.0113 -0.28958,0.0277 -0.31832,0.0426 -0.0354,0.0183 -0.12277,0.0242 -0.36042,0.0242 -0.25387,0 -0.31761,0.005 -0.33426,0.0248 -0.0404,0.0487 -6e-4,0.0603 0.20467,0.0603 0.11179,0 0.20326,0.006 0.20326,0.0143 0,0.0413 -0.11067,0.0602 -0.42557,0.0729 -0.27023,0.0109 -0.58714,0.0455 -0.62984,0.0688 -0.005,0.003 0.14852,0.009 0.34046,0.0137 0.21995,0.006 0.34729,0.0154 0.34445,0.0261 -0.0128,0.0482 -0.12668,0.057 -0.75418,0.0583 l -0.63955,10e-4 -0.0346,-0.0398 z m -2.73729,-0.55676 c 0.0178,-0.0288 -0.0741,-0.13544 -0.11669,-0.13544 -0.0208,0 -0.0626,0.0225 -0.0928,0.0501 -0.0911,0.0832 -0.0751,0.10309 0.0832,0.10309 0.0634,0 0.12026,-0.008 0.1263,-0.0178 z m 0.3388,0.003 c 0.005,-0.008 -0.002,-0.0242 -0.0149,-0.0352 -0.0281,-0.0233 -0.10262,0.006 -0.0855,0.0342 0.0126,0.0204 0.088,0.0212 0.10041,9e-4 z m 14.34287,-2.03615 c 0.0162,-0.0426 0.0228,-0.0458 0.10213,-0.0492 0.0405,-0.002 0.0428,-0.007 0.0476,-0.11594 l 0.005,-0.11409 -0.4391,-0.005 -0.43909,-0.005 -0.10768,-0.0659 c -0.0592,-0.0362 -0.11598,-0.0841 -0.12614,-0.10639 -0.0102,-0.0223 -0.0262,-0.0405 -0.0357,-0.0405 -0.0328,0 -0.0795,-0.0565 -0.0795,-0.0963 0,-0.0297 -0.01,-0.0399 -0.0372,-0.0399 -0.0205,0 -0.0546,-0.0164 -0.0759,-0.0364 -0.0334,-0.0314 -0.0453,-0.0337 -0.0862,-0.0169 -0.0303,0.0125 -0.14529,0.0182 -0.3183,0.0159 -0.26223,-0.003 -0.2716,-0.002 -0.29571,0.0339 -0.0239,0.036 -0.0355,0.0375 -0.29405,0.0375 -0.25419,0 -0.26974,-0.002 -0.27994,-0.034 -0.008,-0.0259 -0.0258,-0.034 -0.0737,-0.034 -0.0444,0 -0.0691,0.01 -0.0841,0.034 -0.0198,0.0316 -0.0397,0.034 -0.28233,0.034 -0.23945,0 -0.26362,-0.003 -0.29188,-0.034 -0.0438,-0.0484 -0.0558,-0.043 -0.0767,0.0343 -0.0137,0.0511 -0.0353,0.079 -0.0854,0.11065 -0.0651,0.0411 -0.0762,0.0423 -0.37804,0.0424 -0.28883,1.8e-4 -0.32381,0.004 -0.49067,0.0488 -0.0988,0.0268 -0.2482,0.0581 -0.33195,0.0696 -0.31258,0.0429 -0.28511,0.0481 0.26547,0.0499 0.43278,10e-4 0.57536,0.007 0.65195,0.0274 0.0819,0.0213 0.26708,0.0255 1.12519,0.0255 0.98044,0 1.02896,10e-4 1.06674,0.032 0.0347,0.0281 0.0371,0.0375 0.0197,0.0757 -0.0286,0.0627 -0.0867,0.0948 -0.21063,0.11611 -0.0598,0.0103 -0.1202,0.0252 -0.13424,0.0331 -0.0142,0.008 0.37049,0.0146 0.86433,0.0149 l 0.88986,6e-4 0.0162,-0.0426 z m -5.69412,-0.19576 c 0.11047,-0.0189 0.28367,-0.0347 0.38897,-0.0354 0.12332,-9.1e-4 0.23154,-0.0121 0.30897,-0.0321 l 0.11915,-0.0307 -0.43408,1.7e-4 c -0.54248,2e-4 -0.6699,0.01 -0.67793,0.0522 -0.0172,0.0902 0.0104,0.0945 0.29492,0.0458 z m -1.76185,-0.099 c 0,-0.008 -0.0326,-0.0321 -0.0724,-0.0543 -0.0398,-0.0222 -0.0928,-0.062 -0.11774,-0.0885 -0.0381,-0.0404 -0.0518,-0.0455 -0.0851,-0.0313 -0.0218,0.009 -0.14697,0.0366 -0.27804,0.0608 -0.31442,0.058 -0.36599,0.0724 -0.36599,0.10239 0,0.0212 0.0678,0.0249 0.45961,0.0249 0.25279,0 0.45962,-0.006 0.45962,-0.0139 z m 2.54226,-0.30651 c -0.001,-0.0311 -0.006,-0.0596 -0.009,-0.0632 -0.006,-0.006 -0.81456,-0.0143 -0.98069,-0.01 -0.0722,0.002 -0.0733,0.003 -0.0681,0.0573 l 0.005,0.0553 0.45962,0.009 c 0.65809,0.0133 0.59629,0.0184 0.59315,-0.0488 z m 5.48396,-0.0626 0,-0.10214 -0.28547,-0.005 c -0.17669,-0.003 -0.29826,0.002 -0.319,0.0133 -0.0431,0.0231 -0.0877,0.1091 -0.0744,0.14367 0.006,0.0147 0.0267,0.0302 0.0467,0.0345 0.02,0.004 0.0517,0.011 0.0705,0.0151 0.0187,0.004 0.15279,0.006 0.2979,0.005 l 0.26385,-0.002 z m 1.32877,0.0952 c -0.0155,-0.0251 -0.16374,-0.0697 -0.23175,-0.0697 -0.0642,0 -0.11296,0.0353 -0.0931,0.0674 0.006,0.0103 0.0787,0.0178 0.1727,0.0178 0.0923,0 0.15762,-0.007 0.15218,-0.0154 z m -20.33491,-0.82535 c 0.17217,-0.0387 0.18931,-0.0614 0.0462,-0.0614 -0.0627,0 -0.24618,-0.0264 -0.4077,-0.0586 l -0.29367,-0.0586 -1.03732,-0.0347 c -0.57052,-0.0191 -1.0404,-0.0316 -1.04416,-0.0278 -0.004,0.004 -0.01,0.0488 -0.0134,0.10013 -0.005,0.0761 -10e-4,0.0956 0.0228,0.10581 0.0337,0.0144 2.35906,0.0754 2.54024,0.0667 0.0328,-0.002 0.11692,-0.0158 0.18701,-0.0315 z m -5.76184,-2.59801 c 0.006,-0.009 -0.0377,-0.0401 -0.0969,-0.0681 -0.15294,-0.0724 -0.18523,-0.0661 -0.11568,0.0223 0.0189,0.024 0.0515,0.047 0.0723,0.051 0.0725,0.014 0.12964,0.0119 0.14022,-0.005 z m -0.40422,-0.0424 c 0.002,-0.0187 -0.0187,-0.0742 -0.0471,-0.12326 -0.0796,-0.13776 -0.16328,-0.17298 -0.44312,-0.18636 -0.18946,-0.009 -0.22071,-0.007 -0.22071,0.015 0,0.014 0.0989,0.0914 0.21969,0.17185 0.18554,0.1236 0.23251,0.14741 0.30215,0.15317 0.14956,0.0124 0.1842,0.007 0.18905,-0.0303 z m 4.41138,0.0189 c 0.0267,-0.0322 -0.0481,-0.12095 -0.12239,-0.14513 -0.0783,-0.0255 -1.39417,-0.22276 -1.48589,-0.22276 -0.0893,0 -0.23453,0.0666 -0.26358,0.1209 -0.0162,0.0302 -0.0114,0.0456 0.0307,0.0979 0.0274,0.0341 0.0829,0.0805 0.12334,0.1031 l 0.0735,0.041 0.7336,0.007 c 0.40347,0.004 0.73678,0.0105 0.74068,0.0143 0.0181,0.0177 0.15249,0.004 0.17006,-0.0167 z m -3.13477,-0.0274 c 0.006,-0.0345 -0.095,-0.18458 -0.15451,-0.22844 -0.0453,-0.0334 -0.0732,-0.0357 -0.49791,-0.0405 -0.30171,-0.003 -0.4499,6e-4 -0.4499,0.0126 0,0.0366 0.42844,0.2308 0.58496,0.26522 0.1473,0.0324 0.51082,0.0262 0.51736,-0.009 z m 1.10219,0.0106 c 0.0382,-0.0279 0.0329,-0.038 -0.11555,-0.21621 l -0.0933,-0.112 -0.19352,0.008 c -0.24553,0.01 -0.28971,0.0273 -0.34581,0.13798 -0.0524,0.1034 -0.0537,0.12775 -0.009,0.17205 0.0318,0.0318 0.0567,0.034 0.37976,0.034 0.26692,0 0.35302,-0.005 0.37781,-0.0235 z"
         style="fill:#000000;fill-opacity:1" />
    </g>
  </g>
</svg>
