<?xml version="1.0" encoding="UTF-8" standalone="no"?>
<!-- Created with Inkscape (http://www.inkscape.org/) -->

<svg
   xmlns:dc="http://purl.org/dc/elements/1.1/"
   xmlns:cc="http://creativecommons.org/ns#"
   xmlns:rdf="http://www.w3.org/1999/02/22-rdf-syntax-ns#"
   xmlns:svg="http://www.w3.org/2000/svg"
   xmlns="http://www.w3.org/2000/svg"
   xmlns:sodipodi="http://sodipodi.sourceforge.net/DTD/sodipodi-0.dtd"
   xmlns:inkscape="http://www.inkscape.org/namespaces/inkscape"
   width="103"
   height="24.192972"
   id="svg2"
   version="1.1"
   inkscape:version="0.48.5 r10040"
   sodipodi:docname="Glaive.svg">
  <defs
     id="defs4" />
  <sodipodi:namedview
     id="base"
     pagecolor="#ffffff"
     bordercolor="#666666"
     borderopacity="1.0"
     inkscape:pageopacity="0.0"
     inkscape:pageshadow="2"
     inkscape:zoom="15.839192"
     inkscape:cx="49.935973"
     inkscape:cy="13.196066"
     inkscape:document-units="px"
     inkscape:current-layer="g2996"
     showgrid="false"
     fit-margin-top="0"
     fit-margin-left="0"
     fit-margin-right="0"
     fit-margin-bottom="0"
     inkscape:window-width="1920"
     inkscape:window-height="1017"
     inkscape:window-x="-8"
     inkscape:window-y="-8"
     inkscape:window-maximized="1" />
  <metadata
     id="metadata7">
    <rdf:RDF>
      <cc:Work
         rdf:about="">
        <dc:format>image/svg+xml</dc:format>
        <dc:type
           rdf:resource="http://purl.org/dc/dcmitype/StillImage" />
        <dc:title />
      </cc:Work>
    </rdf:RDF>
  </metadata>
  <g
     inkscape:label="Layer 1"
     inkscape:groupmode="layer"
     id="layer1"
     transform="translate(559.05248,-706.14776)">
    <g
       id="g2996"
       transform="translate(80.812226,6.0609201)">
      <path
         style="fill:#000000;fill-opacity:1"
         d="m -593.08228,724.14742 c -0.11114,-0.12785 -0.15256,-0.13338 -1.26864,-0.16954 -0.63456,-0.0206 -1.42341,-0.0374 -1.753,-0.0376 -0.67436,0 -0.78646,-0.0553 -0.78646,-0.38638 l 0,-0.17937 -9.9299,0 c -6.73678,0 -9.96509,-0.0188 -10.0393,-0.0586 -0.0918,-0.0492 -0.10943,-0.12082 -0.10943,-0.44555 0,-0.25553 0.0259,-0.40848 0.0762,-0.45026 0.055,-0.0456 1.94575,-0.0672 6.80128,-0.0776 6.48818,-0.0138 6.72475,-0.0181 6.71638,-0.11833 -0.004,-0.0571 -0.0938,-0.22874 -0.19793,-0.38126 -0.24504,-0.35909 -0.49124,-0.44801 -1.24051,-0.44801 -0.47673,0 -0.58692,-0.0189 -0.82417,-0.14171 -0.53131,-0.2749 -0.9083,-0.31847 -3.10186,-0.35848 l -2.03614,-0.0371 -0.0171,-0.1745 c -0.01,-0.099 0.0171,-0.20273 0.0617,-0.23978 0.0433,-0.0359 2.4434,-0.52257 5.33362,-1.08146 2.89024,-0.55889 5.33768,-1.0332 5.43878,-1.05401 0.25697,-0.0529 0.23237,-0.15382 -0.0282,-0.11601 -0.11666,0.0169 -0.64478,0.0725 -1.17362,0.12352 l -0.96151,0.0928 -0.39592,-0.13269 c -0.31294,-0.10488 -0.39959,-0.15853 -0.41347,-0.25602 -0.0216,-0.15172 -0.007,-0.16143 2.48677,-1.62849 1.03723,-0.61026 1.93077,-1.16962 1.98565,-1.24302 0.0548,-0.0734 0.46282,-0.33891 0.90654,-0.59003 0.44372,-0.25112 0.85695,-0.49502 0.9183,-0.54199 0.10986,-0.0841 0.10931,-0.0872 -0.0299,-0.19939 -0.2661,-0.21454 -0.34681,-0.20038 -0.88942,0.15592 -0.4827,0.31695 -0.53704,0.33813 -1.04011,0.40541 -0.4114,0.055 -0.66085,0.12961 -1.10888,0.33158 -0.31794,0.14333 -0.59237,0.29788 -0.60987,0.34347 -0.0175,0.0456 -0.048,0.23755 -0.0677,0.42663 -0.0425,0.40629 -0.23668,0.65539 -0.51099,0.65539 -0.0899,0 -0.37818,0.0722 -0.64065,0.16043 -0.26247,0.0883 -0.68084,0.19157 -0.9297,0.22962 -0.47185,0.0721 -1.10651,0.2557 -1.30087,0.37629 -0.0622,0.0386 -0.35491,0.14006 -0.65043,0.22547 -1.25514,0.36276 -3.22782,1.20065 -3.44617,1.46375 -0.0409,0.0493 -0.11124,0.0896 -0.1563,0.0896 -0.0797,0 -1.03541,-0.93411 -1.03541,-1.01207 0,-0.0215 0.2227,-0.13941 0.4949,-0.26206 0.27219,-0.12264 0.45481,-0.23074 0.40582,-0.24022 -0.11566,-0.0224 -1.09924,0.304 -1.34536,0.44644 -0.20704,0.11981 -0.37907,0.099 -0.43098,-0.0521 -0.0182,-0.0528 -0.11841,-0.1957 -0.22277,-0.31746 l -0.18975,-0.22138 -0.3479,0.1301 c -0.19133,0.0716 -0.4101,0.17905 -0.48615,0.23886 -0.16969,0.1335 -0.19821,0.1174 -0.62094,-0.35041 -0.18272,-0.2022 -0.36751,-0.38904 -0.41065,-0.4152 -0.0857,-0.0521 -0.37851,0.0442 -0.53251,0.17496 -0.0522,0.0443 -0.131,0.0719 -0.17527,0.0614 -0.13305,-0.0316 -1.01707,-1.00258 -0.98614,-1.08319 0.0297,-0.0774 1.14484,-0.4019 2.07629,-0.60419 0.29552,-0.0641 0.94454,-0.14108 1.44227,-0.17091 1.44595,-0.0866 1.61765,-0.10821 3.1956,-0.40127 1.81328,-0.33676 1.75335,-0.32365 1.75335,-0.38397 0,-0.0268 -0.14635,-0.0964 -0.32522,-0.15445 -0.24414,-0.0793 -0.32942,-0.13509 -0.34209,-0.22371 -0.0237,-0.16625 0.0657,-0.22051 0.59915,-0.36368 0.25804,-0.0692 0.45781,-0.13726 0.44392,-0.15113 -0.0138,-0.0139 -0.65768,0.10244 -1.43067,0.25846 -1.48208,0.29918 -3.03096,0.57237 -3.24506,0.57237 -0.0701,0 -0.15878,-0.0427 -0.19703,-0.0951 -0.0637,-0.087 -0.14062,-0.0894 -0.91119,-0.0277 -0.90735,0.0727 -1.79199,0.0856 -2.12213,0.031 -0.20144,-0.0333 -0.20917,-0.0442 -0.35954,-0.50647 -0.16372,-0.50329 -0.58721,-1.24601 -0.89891,-1.5765 -0.16426,-0.17417 -0.22414,-0.20069 -0.45321,-0.20069 -0.14518,0 -1.21115,-0.0378 -2.36883,-0.084 -8.87173,-0.35406 -8.31064,-0.32096 -9.16516,-0.54057 -0.56741,-0.14583 -1.11672,-0.4221 -1.79126,-0.90089 -0.50197,-0.3563 -0.5708,-0.38754 -1.04636,-0.47516 -0.27996,-0.0516 -0.76355,-0.17324 -1.07462,-0.27035 -0.55676,-0.17382 -0.65344,-0.18348 -1.49883,-0.14975 l -0.42419,0.017 -0.017,0.32485 c -0.0149,0.28621 -0.0326,0.32877 -0.1487,0.35791 -0.0724,0.0182 -0.20482,0.0247 -0.29413,0.0145 -0.1568,-0.018 -0.16334,-0.0311 -0.19065,-0.38619 l -0.0282,-0.36764 -0.3754,0 c -0.28575,0 -0.40312,-0.025 -0.49148,-0.10466 -0.10899,-0.0983 -0.13263,-0.0993 -0.38816,-0.0165 -0.14964,0.0485 -0.39765,0.0956 -0.55113,0.10466 -0.25672,0.0152 -0.28184,0.006 -0.3139,-0.12493 -0.0321,-0.13044 -0.0566,-0.14001 -0.31483,-0.12334 -0.19782,0.0127 -0.30272,0.0501 -0.35755,0.12727 -0.07,0.0986 -0.15117,0.1092 -0.83426,0.1092 -0.41615,0 -0.75665,-0.023 -0.75665,-0.0513 0,-0.0951 0.56459,-0.45777 0.71263,-0.45777 0.10388,0 0.25805,-0.10743 0.52757,-0.36765 l 0.3808,-0.36763 0.63176,0 c 0.34748,0 0.63177,-0.023 0.63177,-0.0513 0,-0.0282 -0.30992,-0.17444 -0.68871,-0.32496 -0.65386,-0.2598 -0.69295,-0.28442 -0.77225,-0.4863 -0.0778,-0.19786 -0.14092,-0.24034 -0.90909,-0.611 -1.35462,-0.65363 -1.53255,-0.91494 -1.53255,-2.25067 0,-0.53422 0.0223,-0.80906 0.0707,-0.87492 0.0526,-0.0715 0.21499,-0.10997 0.63628,-0.15074 0.31108,-0.0301 0.62286,-0.0554 0.69286,-0.0562 0.16477,-0.002 0.16115,-0.0864 -0.0229,-0.53452 l -0.15013,-0.36561 -1.47391,-0.9788 c -0.81064,-0.53833 -1.48312,-1.01009 -1.49441,-1.04834 -0.0113,-0.0382 0.0704,-0.11291 0.18156,-0.16591 0.19562,-0.0933 0.23585,-0.0905 1.26278,0.0882 1.0564,0.18371 1.07049,0.18459 3.46449,0.21486 2.46668,0.0312 4.46887,-0.0309 7.95427,-0.24673 1.5029,-0.093 1.57749,-0.0925 3.59153,0.0288 1.13122,0.0681 2.71665,0.14889 3.52319,0.17954 1.97426,0.075 6.17641,0.071 8.27036,-0.008 1.92388,-0.0725 2.62503,-0.03 3.4975,0.21207 0.54025,0.14988 0.80873,0.28407 1.39586,0.69771 0.73028,0.51448 1.82267,1.03778 3.32317,1.59193 0.4176,0.15423 0.88365,0.34812 1.03569,0.43088 l 0.27644,0.15044 0.46314,-0.0951 c 1.7231,-0.35414 3.75964,-0.47269 5.15758,-0.30024 1.60098,0.1975 3.14465,0.60348 4.59959,1.20966 0.62255,0.25937 0.74893,0.33163 0.72697,0.41561 -0.0348,0.13295 -0.002,0.15374 0.69701,0.44289 1.24639,0.51552 3.51314,1.8096 4.80513,2.74322 0.87599,0.63301 1.71045,1.17286 2.03251,1.31494 0.4302,0.18978 0.77193,0.41706 0.83255,0.55371 0.0454,0.10223 0.10466,0.11313 0.61577,0.11313 l 0.56561,0 0.0282,0.31107 0.0282,0.31108 1.21603,0.0282 c 1.03718,0.0242 1.2366,0.0429 1.35587,0.12727 0.23778,0.16828 0.61935,0.13043 1.00578,-0.0998 0.42493,-0.25314 1.19028,-0.44786 2.10655,-0.53597 0.38885,-0.0374 0.82186,-0.0803 0.96224,-0.0954 0.32927,-0.0353 0.52219,0.1082 0.70703,0.52616 l 0.1344,0.30393 0.30544,0 c 0.32047,0 0.49262,0.10532 0.49262,0.30138 0,0.11281 -0.0639,0.11064 2.86784,0.0974 l 0.63373,-0.003 0.0349,-0.18382 c 0.0413,-0.21774 0.11426,-0.32054 0.32177,-0.45325 0.13918,-0.089 0.36421,-0.0982 2.4048,-0.0982 l 2.25123,0 0.20909,0.14207 c 0.14836,0.10079 0.22674,0.2076 0.26983,0.36765 0.0578,0.21455 0.17715,0.29387 0.25433,0.16898 0.0498,-0.0806 1.79717,-0.075 1.87824,0.007 0.0402,0.0402 0.16065,0.0486 0.33652,0.0233 0.54335,-0.0781 2.00422,-0.0955 2.08939,-0.0247 0.0557,0.0462 0.37127,0.0646 1.02328,0.0595 0.76739,-0.006 0.96771,0.009 1.07723,0.0809 0.12415,0.0813 0.15392,0.0788 0.38577,-0.0335 0.19474,-0.0942 0.25123,-0.15246 0.25123,-0.25875 0,-0.11105 0.0585,-0.16385 0.30745,-0.27774 0.29129,-0.13324 0.36108,-0.14064 1.3274,-0.14064 0.92068,0 1.04178,0.0114 1.24409,0.11682 0.2841,0.14809 0.36353,0.24455 0.31842,0.38668 -0.0436,0.13732 0.10035,0.43299 0.24963,0.5129 0.11571,0.0619 1.79701,0.0825 1.94981,0.0239 0.0703,-0.027 0.0895,-0.123 0.0895,-0.44838 0,-0.37992 0.0123,-0.42369 0.14903,-0.53125 0.14123,-0.1111 0.21904,-0.11724 1.48801,-0.11724 1.46913,0 1.47663,0.001 1.63812,0.34494 0.12518,0.26617 0.36001,0.27875 1.01378,0.0543 l 0.50376,-0.17296 1.84447,0 c 2.08768,0 2.21527,0.0199 2.38236,0.37203 l 0.0918,0.19356 0.42332,0 c 0.5099,0 0.54242,0.043 0.33784,0.44676 -0.12522,0.24708 -0.16977,0.28852 -0.31032,0.28852 -0.26062,0 -0.34302,0.0547 -0.34302,0.22778 0,0.12976 0.0305,0.16582 0.16471,0.19531 0.12966,0.0285 0.19738,0.103 0.31832,0.35018 0.18205,0.37208 0.15282,0.41229 -0.30061,0.41361 -0.25685,7.3e-4 -0.30512,0.0186 -0.34701,0.12812 -0.0268,0.07 -0.1019,0.1752 -0.16695,0.2338 -0.065,0.0586 -0.10466,0.12858 -0.0879,0.15554 0.0166,0.0269 1.0708,0.0489 2.34254,0.0489 2.18349,0 2.4878,0.0197 2.35521,0.15226 -0.062,0.062 -1.14904,0.36792 -1.70477,0.4797 -0.53149,0.10687 -0.87163,0.11614 -5.6413,0.15328 -3.45923,0.0269 -5.09486,0.0587 -5.13583,0.0997 -0.0332,0.0332 -0.0525,0.20926 -0.043,0.39361 l 0.0172,0.33346 0.24011,0.0174 c 0.19667,0.0142 0.24607,0.0411 0.27302,0.14844 0.0265,0.10555 0.0832,0.13796 0.29095,0.16644 0.14194,0.0195 1.64926,0.0353 3.34962,0.0353 2.32914,0 3.1083,0.0167 3.15945,0.0679 0.044,0.044 0.0679,0.272 0.0679,0.6471 0,0.33909 0.0244,0.59427 0.0587,0.6155 0.0322,0.0199 1.39722,0.0332 3.03321,0.0295 2.70104,-0.007 2.98411,0.002 3.07855,0.0873 0.13808,0.12495 0.0574,0.27719 -0.18884,0.35619 -0.97588,0.31312 -6.41857,1.30338 -10.42152,1.89612 -3.93205,0.58225 -7.47633,0.82484 -12.05438,0.8251 -1.99858,0 -2.33606,0.0121 -2.39657,0.0849 -0.0598,0.072 -0.33195,0.0848 -1.80268,0.0849 l -1.73228,0 -2.06442,0.36987 c -1.13544,0.20342 -2.90433,0.49693 -3.93089,0.65223 -1.02654,0.15529 -2.00644,0.30646 -2.17753,0.33593 -0.1711,0.0295 -0.75649,0.10488 -1.30087,0.16759 -2.75214,0.317 -3.99013,0.45429 -4.58132,0.50805 -0.35774,0.0326 -1.01949,0.0966 -1.47055,0.14228 -0.81171,0.0823 -2.29536,0.19866 -4.04146,0.317 -0.55517,0.0376 -0.96215,0.092 -1.05767,0.14145 -0.11764,0.0608 -0.40791,0.0803 -1.19752,0.0803 -0.84349,0 -1.05526,0.0157 -1.11058,0.0824 -0.13419,0.16167 -0.002,0.20042 0.68,0.20042 0.37145,0 0.67537,0.0214 0.67537,0.0475 0,0.13721 -0.36771,0.20021 -1.41398,0.24224 -0.89788,0.0361 -1.95083,0.1511 -2.09271,0.2286 -0.0155,0.009 0.49348,0.029 1.13119,0.0455 0.73083,0.0189 1.15393,0.051 1.14448,0.0866 -0.0424,0.16018 -0.42091,0.18942 -2.50584,0.19365 l -2.12493,0.004 -0.1149,-0.13215 z m -9.09489,-1.84988 c 0.0591,-0.0957 -0.24617,-0.45004 -0.3877,-0.45004 -0.0692,0 -0.20795,0.0749 -0.30821,0.1665 -0.30272,0.27648 -0.24943,0.34254 0.27629,0.34254 0.21073,0 0.39956,-0.0266 0.41962,-0.059 z m 1.12571,0.009 c 0.0171,-0.0276 -0.006,-0.0803 -0.0496,-0.11705 -0.0934,-0.0775 -0.34096,0.0214 -0.28403,0.11348 0.0419,0.0678 0.29227,0.0704 0.33364,0.003 z m 47.65532,-6.76527 c 0.0538,-0.14154 0.0757,-0.15212 0.33936,-0.16355 0.13438,-0.006 0.14221,-0.0249 0.15805,-0.38521 l 0.0166,-0.37908 -1.45893,-0.0168 -1.45892,-0.0168 -0.35776,-0.21878 c -0.19677,-0.12032 -0.38537,-0.2794 -0.41914,-0.3535 -0.0338,-0.0741 -0.087,-0.13471 -0.11855,-0.13471 -0.10898,0 -0.26402,-0.18785 -0.26402,-0.31984 0,-0.0987 -0.0317,-0.13264 -0.12361,-0.13264 -0.068,0 -0.18154,-0.0544 -0.25231,-0.1209 -0.11099,-0.10433 -0.15039,-0.11197 -0.28645,-0.056 -0.10079,0.0414 -0.48275,0.0606 -1.05756,0.0528 -0.8713,-0.0116 -0.90242,-0.008 -0.98254,0.11257 -0.0795,0.1197 -0.11798,0.12462 -0.97699,0.12462 -0.84457,0 -0.89624,-0.007 -0.93014,-0.11312 -0.0274,-0.0862 -0.0856,-0.11311 -0.24473,-0.11311 -0.14757,0 -0.22954,0.0332 -0.27946,0.11311 -0.0657,0.1051 -0.13191,0.11312 -0.93808,0.11312 -0.79559,0 -0.8759,-0.009 -0.96979,-0.11312 -0.14554,-0.16083 -0.18557,-0.14293 -0.25473,0.11392 -0.0457,0.16984 -0.11726,0.26247 -0.28386,0.36764 -0.21616,0.13646 -0.25312,0.1406 -1.25605,0.14092 -0.95967,5.8e-4 -1.07589,0.0118 -1.63031,0.16219 -0.32834,0.089 -0.82466,0.19309 -1.10291,0.23128 -1.03859,0.14256 -0.94733,0.15972 0.88203,0.16575 1.43795,0.004 1.91167,0.0246 2.16616,0.0909 0.27211,0.0709 0.88739,0.0848 3.73854,0.0848 3.25757,0 3.41881,0.004 3.54432,0.10643 0.11513,0.0933 0.12328,0.12451 0.0654,0.25152 -0.095,0.20846 -0.28823,0.31499 -0.69986,0.38578 -0.19864,0.0341 -0.39935,0.0836 -0.44601,0.10997 -0.0471,0.0266 1.23097,0.0486 2.8718,0.0495 l 2.95663,0.002 0.0537,-0.1414 z m -18.91915,-0.65043 c 0.36705,-0.0628 0.9425,-0.11518 1.29236,-0.11774 0.40976,-0.003 0.76934,-0.0403 1.02658,-0.10665 l 0.39591,-0.10201 -1.44226,5.7e-4 c -1.80244,6.7e-4 -2.2258,0.0332 -2.25248,0.17359 -0.057,0.29968 0.0344,0.31388 0.97989,0.15224 z m -5.85391,-0.32894 c 0,-0.0254 -0.1082,-0.10655 -0.24038,-0.18033 -0.1322,-0.0738 -0.30824,-0.20617 -0.3912,-0.29415 -0.12656,-0.13424 -0.17203,-0.15099 -0.28279,-0.10411 -0.0725,0.0307 -0.4883,0.12157 -0.9238,0.20192 -1.04467,0.19274 -1.21603,0.2407 -1.21603,0.3402 0,0.0704 0.22528,0.0826 1.5271,0.0826 0.83992,0 1.5271,-0.0208 1.5271,-0.0462 z m 8.44687,-1.01842 c -0.004,-0.10333 -0.0188,-0.19787 -0.031,-0.21007 -0.0205,-0.0205 -2.70642,-0.0475 -3.25842,-0.0328 -0.24004,0.007 -0.24367,0.01 -0.22624,0.19035 l 0.0177,0.18382 1.5271,0.0309 c 2.18658,0.0443 1.98125,0.0612 1.9708,-0.16226 z m 18.22092,-0.20803 0,-0.33935 -0.94852,-0.0155 c -0.58705,-0.01 -0.99097,0.008 -1.0599,0.0441 -0.14334,0.0767 -0.29139,0.36248 -0.24731,0.47736 0.0187,0.0488 0.0886,0.10045 0.15513,0.11449 0.0666,0.0141 0.17193,0.0367 0.23414,0.0502 0.0623,0.0135 0.50763,0.0209 0.9898,0.0164 l 0.87666,-0.008 z m 4.41492,0.31638 c -0.0516,-0.0835 -0.54403,-0.23154 -0.76998,-0.23154 -0.21325,0 -0.37532,0.11719 -0.30945,0.22377 0.0212,0.0343 0.26156,0.059 0.5738,0.059 0.30682,0 0.52371,-0.022 0.50563,-0.0513 z m -67.56436,-2.74227 c 0.57203,-0.12843 0.62899,-0.20412 0.15362,-0.20412 -0.20837,0 -0.81794,-0.0876 -1.3546,-0.19473 l -0.97576,-0.19474 -3.44657,-0.11519 c -1.89561,-0.0634 -3.4568,-0.105 -3.46931,-0.0925 -0.0125,0.0125 -0.0326,0.16222 -0.0446,0.33267 -0.0178,0.25303 -0.004,0.31757 0.0758,0.35159 0.11205,0.0479 7.83817,0.25068 8.44016,0.2216 0.10887,-0.006 0.38849,-0.0524 0.62136,-0.10467 z m -19.14419,-8.63212 c 0.0195,-0.0315 -0.12515,-0.13313 -0.32188,-0.22619 -0.50817,-0.24041 -0.61546,-0.21976 -0.38437,0.074 0.0628,0.0798 0.171,0.15621 0.24037,0.1696 0.24096,0.0465 0.43073,0.0394 0.46588,-0.0174 z m -1.34304,-0.14076 c 0.008,-0.0622 -0.0622,-0.24651 -0.15638,-0.40954 -0.26434,-0.45774 -0.5425,-0.57474 -1.47229,-0.61921 -0.62948,-0.0301 -0.73333,-0.023 -0.73333,0.0497 0,0.0466 0.32847,0.30358 0.72994,0.57101 0.61647,0.41067 0.77252,0.48977 1.00393,0.50889 0.49693,0.0411 0.61201,0.0226 0.62813,-0.10079 z m 14.65715,0.0629 c 0.0888,-0.10699 -0.15992,-0.40189 -0.40665,-0.48223 -0.26002,-0.0846 -4.63223,-0.74013 -4.93699,-0.74013 -0.29662,0 -0.77925,0.22139 -0.87576,0.40172 -0.0537,0.10045 -0.0378,0.1514 0.10201,0.32529 0.0911,0.11342 0.27557,0.26758 0.40982,0.34257 l 0.24411,0.13633 2.43742,0.0245 c 1.34057,0.0134 2.44801,0.0348 2.46098,0.0475 0.06,0.0587 0.50666,0.0149 0.56505,-0.0555 z m -10.41552,-0.0911 c 0.0214,-0.11475 -0.31577,-0.61328 -0.51336,-0.759 -0.15061,-0.11107 -0.24335,-0.11861 -1.65437,-0.13445 -1.00245,-0.0112 -1.49481,0.002 -1.49481,0.0418 0,0.12144 1.42351,0.76685 1.94358,0.88121 0.4894,0.10765 1.69725,0.0869 1.71896,-0.0295 z m 3.66211,0.0351 c 0.12696,-0.0928 0.1092,-0.1262 -0.38392,-0.71836 l -0.30986,-0.37213 -0.643,0.0253 c -0.81577,0.032 -0.96256,0.0906 -1.14897,0.45847 -0.17409,0.34354 -0.17852,0.42446 -0.0313,0.57164 0.10566,0.10566 0.18853,0.11312 1.26178,0.11312 0.88686,0 1.17296,-0.0177 1.25531,-0.078 z"
         id="path3004"
         inkscape:connector-curvature="0"
         sodipodi:nodetypes="cscscssscscsssscscscssccsscsccsccssscscssssccscsccssccsscsssccscsscssssssssccccsccscsscscscsssscsssssscccscsccsssssssssccssssssscscccscsscscssccccscscssccsccscscscsscscscsccsssscscccsscssssccccssscscsscsccsscsscscscssscsssccccssscccsccccscccccsssccscssscscccccsccscsscsccccsscccccscscsssscccccscccscccsccccscscssccscscssssccsssssssscssscccsccscsssscscssssc" />
    </g>
  </g>
</svg>
