<?xml version="1.0" encoding="UTF-8" standalone="no"?>
<svg
   xmlns:dc="http://purl.org/dc/elements/1.1/"
   xmlns:cc="http://creativecommons.org/ns#"
   xmlns:rdf="http://www.w3.org/1999/02/22-rdf-syntax-ns#"
   xmlns:svg="http://www.w3.org/2000/svg"
   xmlns="http://www.w3.org/2000/svg"
   version="1.1"
   id="svg2"
   viewBox="0 0 3.2978301 1.8744299"
   width="9.8934903">
  <defs
     id="defs4" />
  <metadata
     id="metadata7">
    <rdf:RDF>
      <cc:Work
         rdf:about="">
        <dc:format>image/svg+xml</dc:format>
        <dc:type
           rdf:resource="http://purl.org/dc/dcmitype/StillImage" />
        <dc:title></dc:title>
      </cc:Work>
    </rdf:RDF>
  </metadata>
  <g
     transform="translate(816.94697,-1127.8383)"
     id="layer1">
    <g
       transform="translate(-1467.389,-174.67738)"
       id="g4147">
      <path
         id="path4153"
         d="m 650.83093,1304.3428 c -0.0278,-0.01 -0.0349,-0.01 -0.0628,-0.021 -0.0274,-0.012 -0.0351,-0.017 -0.0594,-0.034 -0.0243,-0.018 -0.0309,-0.024 -0.0514,-0.047 -0.0202,-0.023 -0.026,-0.031 -0.0404,-0.055 -0.0109,-0.019 -0.0188,-0.035 -0.0225,-0.046 l -0.006,-0.017 -0.0519,-0.055 c -0.0285,-0.03 -0.0615,-0.066 -0.0732,-0.079 -0.021,-0.023 -0.0213,-0.023 -0.0213,-0.032 0,-0.01 10e-4,-0.01 0.004,-0.012 0.0118,-0.012 0.0254,-0.011 0.0381,0 0.005,0 0.022,0.024 0.0388,0.042 0.0168,0.018 0.0313,0.033 0.0321,0.033 0.003,0 0.004,-0.013 0.003,-0.031 -5.8e-4,-0.01 -0.005,-0.04 -0.0102,-0.067 -0.011,-0.06 -0.0119,-0.056 0.0146,-0.064 0.009,0 0.0211,-0.01 0.0261,-0.01 l 0.009,0 0.007,-0.014 c 0.0108,-0.022 0.0122,-0.03 0.0123,-0.069 7e-5,-0.038 0.002,-0.05 0.0101,-0.064 0.003,0 0.0186,-0.023 0.0353,-0.04 0.0263,-0.027 0.0348,-0.037 0.0323,-0.04 -3.5e-4,-3e-4 -0.006,0 -0.0124,0 l -0.0118,0 -4.9e-4,-0.033 -4.9e-4,-0.033 0.0454,-0.044 c 0.025,-0.024 0.0454,-0.045 0.0454,-0.047 0,0 -0.005,-0.01 -0.0121,-0.019 l -0.012,-0.016 -0.0414,0 -0.0414,0 -10e-4,0 c -6.3e-4,0 -6.3e-4,-0.01 -2e-5,-0.01 10e-4,0 0.002,0 0.0188,0 l 0.0177,-5e-4 0,-0.036 0,-0.036 -0.005,-9e-4 c -0.007,0 -0.008,-0.01 -10e-4,-0.01 0.008,0 0.008,0 0.007,-0.048 l -4.9e-4,-0.042 -0.005,-10e-4 c -0.008,0 -0.008,-0.01 -1.4e-4,-0.01 0.0127,-0.01 0.008,-0.01 -0.0162,-0.01 -0.0137,-4e-4 -0.0145,-7e-4 -0.0151,0 -3.3e-4,0 -1.1e-4,-0.01 4.9e-4,-0.01 l 10e-4,0 0.0723,0 c 0.0643,0 0.0725,-3e-4 0.0734,0 6.1e-4,0 10e-4,-0.01 10e-4,-0.018 0,-0.011 0.001,-0.019 0.004,-0.029 0.009,-0.027 0.002,-0.021 0.15855,-0.139 0.0785,-0.059 0.15259,-0.1151 0.16456,-0.1243 0.0278,-0.021 0.17768,-0.1555 0.19303,-0.1728 0.0146,-0.016 0.0228,-0.021 0.0327,-0.018 0.01,0 0.0154,0.012 0.0137,0.022 -10e-4,0.01 0.004,0 -0.15776,0.1857 -0.12456,0.1414 -0.12063,0.1368 -0.12711,0.1497 -0.009,0.018 -0.01,0.025 -0.01,0.069 l -2e-5,0.041 0.0231,0 c 0.0127,6e-4 0.0568,0 0.098,0 l 0.0749,0 0.0526,0.035 c 0.034,0.022 0.0536,0.034 0.0555,0.034 0.002,-6e-4 0.002,0 0.002,0 -0.0242,-0.058 -0.0322,-0.078 -0.0314,-0.08 5.3e-4,0 0.0141,-0.023 0.0301,-0.047 l 0.0291,-0.045 0,-0.011 c 0,-0.01 0.001,-0.013 0.003,-0.015 0.002,0 0.006,-0.021 0.0101,-0.041 0.006,-0.029 0.007,-0.041 0.007,-0.057 l -10e-6,-0.02 -0.0236,-0.068 -0.0236,-0.068 0.006,-0.017 c 0.004,-0.01 0.006,-0.02 0.006,-0.025 -5e-5,0 2e-5,-0.01 1.4e-4,-0.013 1.2e-4,0 -3.8e-4,-0.01 -10e-4,-0.012 -0.002,-0.01 0.002,-0.015 0.0102,-0.015 0.006,0 0.0119,0.01 0.0146,0.017 0.002,0.01 0.004,0.011 0.0172,0.015 l 0.0107,0 0.0303,0.072 c 0.0315,0.076 0.0396,0.1 0.0431,0.1288 0.003,0.024 0.002,0.039 -0.003,0.073 -0.008,0.052 -0.009,0.071 -0.005,0.09 0.005,0.028 0.0165,0.052 0.0595,0.1271 0.0386,0.067 0.063,0.1067 0.0683,0.111 0.002,0 0.32878,0.17 0.55175,0.2843 0.0477,0.024 0.0528,0.028 0.0601,0.036 0.0135,0.016 0.0243,0.056 0.0261,0.096 5.6e-4,0.013 0.002,0.023 0.002,0.023 0.002,0 0.0385,-0.039 0.0422,-0.045 0.002,0 0.009,-0.027 0.0167,-0.055 l 0.0138,-0.051 0.0451,-0.044 0.0451,-0.044 0.003,-0.034 0.003,-0.034 0.0444,-0.043 c 0.0244,-0.024 0.0443,-0.044 0.0443,-0.045 -2e-5,-7e-4 -0.005,0 -0.0109,-0.01 -0.01,-0.01 -0.013,-0.01 -0.0307,-0.032 -0.0109,-0.015 -0.0219,-0.028 -0.0244,-0.031 -0.002,0 -0.0219,-0.012 -0.0432,-0.021 -0.0269,-0.012 -0.0386,-0.017 -0.0384,-0.019 1.9e-4,0 8.9e-4,0 0.002,-0.01 10e-4,0 -2.5e-4,0 -0.0144,-0.011 l -0.0157,-0.01 4.9e-4,-0.01 4.9e-4,-0.01 -0.0154,-0.01 c -0.008,0 -0.0186,-0.01 -0.0224,-0.01 -0.007,0 -0.008,0 -0.0129,0.01 -0.002,0 -0.004,0 -0.0195,0 -0.0149,-0.01 -0.0177,-0.01 -0.0177,-0.012 0,-0.01 -0.009,-0.01 -0.0151,-0.01 -0.003,0 -0.006,0 -0.014,0 -0.006,0 -0.0108,0 -0.012,0 -0.001,9e-4 -0.004,0.01 -0.007,0.014 -0.0128,0.031 -0.025,0.054 -0.0293,0.057 -0.0103,0 -0.0228,0 -0.0261,-0.01 -0.002,-0.01 10e-4,-0.02 0.014,-0.051 0.007,-0.017 0.008,-0.021 0.007,-0.028 -9.4e-4,-0.01 4.6e-4,-0.011 0.0109,-0.037 0.009,-0.022 0.0128,-0.029 0.0152,-0.029 0.004,0 0.006,0 0.0116,-0.016 0.003,-0.01 0.0107,-0.02 0.0179,-0.03 0.0113,-0.016 0.0136,-0.018 0.0182,-0.018 0.007,0 0.015,0.01 0.0173,0.013 0.002,0 2.2e-4,0.01 -0.01,0.035 -0.006,0.016 -0.0114,0.031 -0.0111,0.032 7.8e-4,0 0.007,0 0.0104,0 0.003,0 0.004,0 0.009,-10e-5 0.003,0 0.006,0 0.006,0.01 0,0 0.009,0.01 0.014,0.01 0.003,-8e-4 0.0315,0.01 0.0362,0.014 0.002,0 0.002,0 4.5e-4,0.01 -9.8e-4,0 -0.001,0.01 -9.5e-4,0.01 4.6e-4,0 0.0107,0.01 0.0227,0.011 0.0182,0.01 0.0223,0.01 0.0246,0.01 0.002,0 0.003,0 0.003,0 0,-0.01 0.005,-0.01 0.019,10e-5 0.008,0 0.0155,0.01 0.0168,0.01 10e-4,-5e-4 0.003,0 0.004,-0.01 0.001,0 0.003,0 0.004,0 0.002,0 0.0159,0.01 0.10444,0.042 0.0255,0.011 0.0761,0.031 0.11248,0.047 0.0364,0.015 0.068,0.027 0.0701,0.027 0.002,0 0.007,0 0.0106,-0.01 l 0.007,-0.01 -10e-4,-0.03 c -8.1e-4,-0.019 -6.1e-4,-0.033 5.5e-4,-0.037 0.002,-0.01 0.0603,-0.1029 0.0669,-0.1106 0.002,0 0.005,0 0.0323,0 0.0164,0 0.0304,0.01 0.0312,0.01 0.003,0 -0.0496,-0.052 -0.10097,-0.095 -0.0488,-0.041 -0.0596,-0.049 -0.12245,-0.091 -0.0583,-0.039 -0.0796,-0.052 -0.13805,-0.085 -0.0669,-0.037 -0.0721,-0.04 -0.16055,-0.078 -0.0825,-0.035 -0.10037,-0.042 -0.18305,-0.071 -0.0504,-0.017 -0.10129,-0.035 -0.11312,-0.039 -0.0118,0 -0.022,-0.01 -0.0225,-0.01 -5.5e-4,0 7.6e-4,-0.01 0.003,-0.015 0.006,-0.018 0.006,-0.019 -0.006,-0.023 -0.005,0 -0.0128,0 -0.0168,-0.01 -0.004,0 -0.017,-0.01 -0.029,-0.013 -0.0178,-0.01 -0.023,-0.012 -0.0286,-0.019 -0.006,-0.01 -0.007,-0.01 -0.007,-0.017 0,-0.013 0.009,-0.038 0.0168,-0.044 0.008,-0.01 0.021,-0.01 0.0268,-10e-4 0.009,0.01 0.009,0.014 0.005,0.033 -10e-4,0 10e-4,0.01 0.0186,0.013 0.0318,0.012 0.0322,0.012 0.034,0.01 9.1e-4,0 0.004,-0.01 0.007,-0.019 0.003,-0.01 0.007,-0.017 0.009,-0.018 0.002,0 0.005,-0.01 0.007,-0.01 0.002,0 0.004,-0.01 0.004,-0.01 3e-4,0 0.018,0.01 0.0394,0.014 0.035,0.013 0.0393,0.015 0.043,0.02 0.003,0 0.004,0.01 0.003,0.01 -5.5e-4,0 2e-5,0 0.001,0.01 10e-4,10e-4 0.0227,0.01 0.0476,0.017 0.13115,0.043 0.27842,0.1067 0.41499,0.1782 0.0674,0.035 0.0926,0.05 0.15737,0.09 0.14644,0.091 0.26119,0.1757 0.41726,0.308 0.0414,0.035 0.0778,0.065 0.0807,0.066 0.003,0 0.0136,0.01 0.0236,0.01 0.0225,0.01 0.0296,0.012 0.0309,0.019 5.5e-4,0 0.004,0.029 0.007,0.058 0.005,0.046 0.006,0.053 0.003,0.055 -0.002,0 -0.002,0 -10e-4,0.01 l 10e-4,0 -0.0198,0 c -0.0218,0 -0.0241,10e-4 -0.0241,0.01 0,0.01 0.002,0.01 0.0227,0.01 0.009,0 0.0174,7e-4 0.018,0 5.6e-4,9e-4 0.002,0.01 0.002,0.01 5.9e-4,0 0.003,0.011 0.004,0.014 0.002,0 0.003,0.01 0.002,0.01 -6.1e-4,6e-4 -0.01,0 -0.0208,0 l -0.0196,0 0,0.01 c 0,0.011 -10e-4,0.011 0.0765,0.011 l 0.0708,0 0.0628,0.062 c 0.0346,0.034 0.0638,0.064 0.065,0.066 0.002,0 0.002,0.045 0.002,0.1791 l 6e-5,0.1752 0.006,0.02 c 0.007,0.023 0.0146,0.078 0.013,0.099 -9.6e-4,0.012 -10e-5,0.015 0.004,0.013 10e-4,-6e-4 0.0237,-0.028 0.0504,-0.061 0.0507,-0.062 0.0523,-0.064 0.0663,-0.064 0.005,0 0.008,0 0.014,0.01 0.007,0.01 0.008,0.01 0.009,0.017 l 10e-4,0.01 -0.0168,0.021 c -0.10731,0.133 -0.13479,0.1662 -0.14201,0.1713 -0.007,0 -0.0114,0.012 -0.0276,0.04 -0.017,0.029 -0.0224,0.037 -0.0422,0.059 -0.0202,0.023 -0.0257,0.028 -0.0508,0.046 -0.0239,0.017 -0.033,0.022 -0.0597,0.034 -0.0291,0.013 -0.0342,0.015 -0.0653,0.021 -0.0329,0.01 -0.0347,0.01 -0.0701,0.01 -0.0355,0 -0.0371,-2e-4 -0.0693,-0.01 -0.03,-0.01 -0.0358,-0.01 -0.0645,-0.022 -0.0267,-0.012 -0.0358,-0.017 -0.0595,-0.034 -0.0242,-0.017 -0.0311,-0.024 -0.0505,-0.045 -0.0194,-0.021 -0.025,-0.029 -0.0403,-0.056 -0.0166,-0.028 -0.0186,-0.033 -0.0288,-0.065 -0.006,-0.019 -0.0109,-0.037 -0.0109,-0.04 0,0 -10e-4,-0.01 -0.003,-0.01 -0.002,-9e-4 -0.10019,0.01 -0.1722,0.018 -0.0116,0 -0.019,0 -0.019,0 0,8e-4 0.002,0 0.004,0 0.003,0 0.006,0.01 0.008,0.013 l 0.004,0.011 -0.005,0.01 c -0.005,0.01 -0.006,0.011 -0.0152,0.014 l -0.01,0 -0.69266,10e-5 -0.69266,10e-5 -0.0137,-0.01 -0.0138,-0.01 -0.054,0 c -0.0297,0 -0.0553,5e-4 -0.0569,0 -0.002,6e-4 -0.006,0.01 -0.009,0.014 -0.003,0.01 -0.0129,0.024 -0.0213,0.038 -0.0118,0.019 -0.0202,0.03 -0.038,0.05 -0.0193,0.021 -0.027,0.028 -0.0499,0.044 -0.0231,0.016 -0.0316,0.021 -0.0584,0.033 -0.0279,0.012 -0.0349,0.015 -0.0643,0.021 -0.0329,0.01 -0.0332,0.01 -0.0712,0.01 -0.0369,-2e-4 -0.0392,-4e-4 -0.0695,-0.01 z m 1.14226,-0.75 c 0.0483,0 0.0882,-0.01 0.0888,-0.01 5.6e-4,-6e-4 2.2e-4,0 -7.5e-4,0 -0.004,0 -0.38239,-0.1906 -0.38499,-0.1901 -0.002,4e-4 0.0135,0.023 0.046,0.069 0.0697,0.097 0.0796,0.1092 0.11298,0.1348 0.002,0 0.0283,0.01 0.0475,0.01 10e-4,10e-5 0.0422,0 0.0905,-0.01 z m -1.01261,-0.3969 c 8.1e-4,0 0.004,-0.01 0.008,-0.018 l 0.006,-0.015 0.0272,-10e-4 0.0272,-9e-4 10e-4,-0.046 c 9.3e-4,-0.039 0.002,-0.048 0.005,-0.058 0.007,-0.022 0.016,-0.038 0.0336,-0.058 0.009,-0.011 0.0244,-0.028 0.0337,-0.039 0.009,-0.011 0.0165,-0.02 0.016,-0.02 -0.002,0 -0.0104,0 -0.14172,0.1043 -0.14769,0.1118 -0.13736,0.1019 -0.1385,0.1325 -3.5e-4,0.01 -1.7e-4,0.018 3.9e-4,0.02 8.8e-4,0 0.01,0 0.0609,0 0.0459,0 0.0601,-5e-4 0.0613,0 z"
         style="fill:#000000;fill-opacity:1" />
    </g>
  </g>
</svg>
