<?xml version="1.0" encoding="UTF-8" standalone="no"?>
<svg
   xmlns:dc="http://purl.org/dc/elements/1.1/"
   xmlns:cc="http://creativecommons.org/ns#"
   xmlns:rdf="http://www.w3.org/1999/02/22-rdf-syntax-ns#"
   xmlns:svg="http://www.w3.org/2000/svg"
   xmlns="http://www.w3.org/2000/svg"
   version="1.1"
   id="svg2"
   viewBox="0 0 99.999781 14.060525"
   width="345">
  <defs
     id="defs4" />
  <metadata
     id="metadata7">
    <rdf:RDF>
      <cc:Work
         rdf:about="">
        <dc:format>image/svg+xml</dc:format>
        <dc:type
           rdf:resource="http://purl.org/dc/dcmitype/StillImage" />
        <dc:title></dc:title>
      </cc:Work>
    </rdf:RDF>
  </metadata>
  <g
     transform="translate(740.71303,-688.03334)"
     id="layer1">
    <g
       transform="translate(-394.8073,776.60936)"
       id="g4147">
      <path
         id="path4153"
         d="m -263.42498,-74.598942 c -0.39628,-0.07068 -0.50526,-0.128141 -0.58144,-0.306525 -0.0159,-0.03722 -0.0533,-0.02455 -0.10114,0.03423 -0.16294,0.200367 -0.56962,0.05509 -0.57165,-0.204212 -10e-4,-0.185719 -0.14702,-0.52687 -0.24735,-0.57969 -0.0542,-0.02853 -0.16224,-0.09386 -0.2401,-0.145179 -0.11035,-0.07272 -1.00855,-0.199744 -4.07278,-0.575974 -2.16217,-0.265468 -3.95258,-0.495879 -3.9787,-0.512025 -0.0261,-0.01614 -0.0475,-0.110522 -0.0475,-0.209733 0,-0.09921 -0.0195,-0.192452 -0.0434,-0.207199 -0.0239,-0.01475 -0.16188,-0.01 -0.30669,0.01056 -0.24883,0.03532 -0.26422,0.04687 -0.28001,0.210275 -0.0192,0.198229 -0.0484,0.217913 -0.6575,0.442495 -0.4351,0.160424 -0.48679,0.166099 -4.12348,0.452659 -2.02558,0.159605 -3.86288,0.288143 -4.08289,0.285638 -0.4913,-0.0056 -1.17558,-0.151255 -1.22629,-0.261031 -0.13844,-0.299595 -0.12843,-0.294193 -0.51431,-0.277718 -0.20141,0.0086 -1.00225,0.07388 -1.77963,0.145059 -2.16865,0.198579 -5.07226,0.391471 -7.21158,0.479076 -2.81954,0.115459 -13.8677,0.213292 -17.48338,0.154817 l -2.96019,-0.04787 -0.0267,-0.293353 -0.0267,-0.293353 -0.29335,-0.04563 c -0.16134,-0.02509 -3.06553,-0.0611 -6.45376,-0.08 l -6.1604,-0.03438 -2.24015,-0.765077 c -1.23208,-0.420793 -3.73572,-1.279973 -5.56364,-1.909284 -3.06432,-1.054977 -3.34088,-1.140766 -3.54648,-1.100107 -0.15317,0.03029 -0.22893,0.07499 -0.24199,0.142776 -0.0261,0.135605 0.0803,0.189687 0.37504,0.19065 0.13761,4.26e-4 0.26504,0.02482 0.28317,0.05415 0.0181,0.02934 0.21137,0.05334 0.42942,0.05334 l 0.39646,0 0.0938,0.200013 c 0.0816,0.174 0.17571,0.242072 0.72384,0.523394 0.34655,0.177859 0.68257,0.385489 0.74672,0.4614 0.0853,0.100973 0.30272,0.198618 0.81001,0.363808 0.38136,0.124186 0.72338,0.249514 0.76005,0.278513 0.11328,0.08958 0.075,0.203887 -0.1404,0.419295 -0.16269,0.162682 -0.24762,0.207071 -0.39622,0.207071 -0.10906,0 -0.22862,0.03952 -0.28238,0.09334 -0.0832,0.08326 -0.25952,0.09622 -1.63261,0.120008 -1.58911,0.02753 -1.63821,0.03484 -1.64118,0.244411 -10e-4,0.07702 -0.43127,0.448968 -0.51926,0.448968 -0.0381,0 -0.11041,-0.048 -0.16064,-0.106673 -0.0502,-0.05867 -0.13512,-0.106674 -0.18864,-0.106674 -0.0535,0 -0.13819,-0.07185 -0.18816,-0.159674 l -0.0909,-0.159673 -0.72686,-4.27e-4 c -0.49948,0 -0.78314,-0.0236 -0.90673,-0.07472 -0.14136,-0.05846 -0.4653,-0.07094 -1.51328,-0.05828 -0.73338,0.0089 -1.38142,0.02433 -1.44009,0.03438 -0.081,0.01387 -0.10282,-0.0074 -0.0907,-0.0884 0.0201,-0.133696 0.0201,-0.186487 0,-0.319376 -0.0156,-0.103679 0.0115,-0.10562 1.22407,-0.08759 0.7363,0.01095 1.24008,-0.0016 1.24008,-0.03083 0,-0.0271 -0.25157,-0.251703 -0.55905,-0.499118 -0.3551,-0.285736 -0.57887,-0.506269 -0.61339,-0.604519 l -0.0543,-0.154679 -0.64003,0.03617 c -0.35201,0.01988 -0.64003,0.0219 -0.64003,0.0045 0,-0.01742 0.0257,-0.07963 0.057,-0.138252 0.0412,-0.07706 0.04,-0.127143 -0.005,-0.180836 -0.0339,-0.04084 -0.0479,-0.09646 -0.0311,-0.123582 0.0179,-0.02893 0.41862,-0.03767 0.96945,-0.02113 0.6248,0.01876 1.09096,0.0056 1.39325,-0.03939 0.4234,-0.06299 0.47048,-0.0831 0.69238,-0.295717 0.20224,-0.193786 0.23551,-0.254739 0.22096,-0.404889 -0.0134,-0.137966 -0.0464,-0.183554 -0.15046,-0.207718 -0.12765,-0.02964 -0.13448,-0.05175 -0.16001,-0.517934 -0.0147,-0.267836 -0.0412,-0.50141 -0.059,-0.519052 -0.0178,-0.01764 -0.26979,-0.111673 -0.56003,-0.208958 -0.40157,-0.1346 -0.5314,-0.201247 -0.54313,-0.278807 -0.0513,-0.339438 -0.0196,-0.319599 -0.79746,-0.499183 -0.40364,-0.09319 -0.79718,-0.193727 -0.87452,-0.223411 -0.15758,-0.06048 -0.6861,-0.756562 -0.6861,-0.903625 0,-0.217425 -0.13517,-0.262447 -0.79052,-0.263307 -0.67385,-8.87e-4 -0.82121,-0.04112 -0.72403,-0.197677 0.0448,-0.07216 0.1405,-0.09808 0.40003,-0.108306 0.73988,-0.02917 7.71669,-0.229288 9.72842,-0.279049 4.10456,-0.101528 3.61311,-0.06623 4.7317,-0.339804 1.35456,-0.33128 1.4327,-0.336491 6.94907,-0.463392 1.26142,-0.02902 4.68164,-0.111885 7.6005,-0.184148 3.66488,-0.09073 6.56057,-0.131806 9.35821,-0.132747 2.2861,-7.68e-4 4.07182,-0.02199 4.09854,-0.04871 0.10482,-0.104814 -0.0884,-0.259795 -0.70007,-0.561624 -0.41634,-0.205433 -0.65958,-0.357555 -0.69459,-0.434395 -0.0402,-0.08823 -0.18683,-0.162152 -0.57763,-0.291204 -0.97023,-0.320396 -1.08378,-0.370998 -1.08378,-0.482972 0,-0.05699 0.0788,-0.189643 0.17518,-0.294777 0.14002,-0.152792 0.22548,-0.19682 0.42584,-0.219404 0.13787,-0.01554 0.27799,-0.06118 0.31139,-0.101418 0.049,-0.05899 0.36785,-0.07316 1.64633,-0.07316 1.59399,0 1.92156,-0.03269 1.92156,-0.191743 0,-0.101783 0.3564,-0.489066 0.48872,-0.531061 0.0692,-0.02197 0.14788,0.0033 0.22253,0.0716 0.0635,0.05807 0.17085,0.122391 0.23853,0.142941 0.0677,0.02055 0.1451,0.09532 0.17203,0.166147 0.0487,0.127962 0.0537,0.128748 0.78366,0.123011 0.53557,-0.0042 0.7853,0.0154 0.92138,0.07233 0.14989,0.06272 0.42845,0.07487 1.41343,0.06167 0.67471,-0.009 1.32275,-0.02359 1.44009,-0.03234 0.16871,-0.01258 0.20865,8.36e-4 0.19089,0.0641 -0.0124,0.044 -0.0225,0.128009 -0.0225,0.186679 0,0.05867 0.0101,0.141194 0.0225,0.183384 0.0192,0.06566 -0.18775,0.0745 -1.4372,0.06133 -0.90691,-0.0096 -1.45224,0.0038 -1.44009,0.03531 0.0108,0.02788 0.27158,0.254338 0.5796,0.503247 0.47626,0.384868 0.56402,0.479806 0.5867,0.634699 l 0.0267,0.182137 0.53337,0.03186 c 0.29335,0.01753 0.59742,0.0099 0.6757,-0.01704 0.21322,-0.07326 0.50322,-0.03338 0.47393,0.06518 -0.0131,0.044 -0.021,0.155055 -0.0176,0.246781 l 0.006,0.166776 -1.5909,-0.0041 c -1.63799,-0.0042 -1.76082,0.01048 -1.76082,0.210423 0,0.06147 0.45355,0.07347 2.7752,0.07347 l 2.7752,0 0.38501,-0.286792 c 0.21175,-0.157736 0.43544,-0.31268 0.49708,-0.344322 0.0763,-0.03916 1.2129,-0.05991 3.56054,-0.06497 l 3.44846,-0.0074 0.43313,0.311763 c 0.23823,0.171469 0.4441,0.340284 0.4575,0.375144 0.017,0.0442 0.22885,0.06392 0.69998,0.06516 0.37157,9.78e-4 2.45606,0.09631 4.63219,0.211846 2.62915,0.13959 4.02493,0.194209 4.16028,0.162795 0.36093,-0.08377 0.59236,-0.0629 0.63037,0.05685 0.0439,0.138204 0.21986,0.137317 0.29415,-0.0015 0.0669,-0.124959 0.10975,-0.122074 1.35929,0.09145 0.61547,0.105172 1.25294,0.150259 3.6269,0.256525 1.58411,0.07091 3.78521,0.153541 4.89135,0.183628 2.69867,0.0734 10.36885,0.413869 10.86969,0.482485 0.22001,0.03014 1.21608,0.115152 2.21348,0.188908 1.66312,0.122985 1.81952,0.142854 1.88663,0.23968 0.0648,0.0935 0.13525,0.105578 0.61604,0.105578 0.29857,0 0.56566,0.02276 0.59353,0.05057 0.0625,0.06242 1.08235,0.381679 1.62411,0.508438 0.5066,0.118534 0.62134,0.191747 0.69043,0.44055 0.0676,0.243439 0.0751,1.984237 0.009,2.157346 -0.0337,0.08874 -0.31232,0.263959 -0.98673,0.620623 -0.91463,0.483703 -0.93975,0.501498 -0.9409,0.666539 -0.002,0.323973 -0.1134,0.391928 -1.06681,0.65231 -0.86964,0.237503 -1.01214,0.309635 -1.01214,0.512307 0,0.138484 -0.17193,0.207932 -0.49154,0.198566 -0.27272,-0.008 -0.35955,0.03385 -2.68201,1.292523 l -2.40015,1.300778 -2.63937,0.01481 -2.63938,0.01481 -0.26462,0.131866 c -0.30078,0.149885 -0.49953,0.168822 -0.54441,0.05186 -0.0445,-0.11607 -0.10042,-0.0985 -0.16959,0.05334 -0.0596,0.130794 -0.0717,0.133231 -0.63528,0.12753 -0.31598,-0.0032 -0.76652,-0.04006 -1.0012,-0.08192 z"
         style="fill:#000000;fill-opacity:1" />
    </g>
  </g>
</svg>
