<?xml version="1.0" encoding="UTF-8" standalone="no"?>
<svg
   xmlns:dc="http://purl.org/dc/elements/1.1/"
   xmlns:cc="http://creativecommons.org/ns#"
   xmlns:rdf="http://www.w3.org/1999/02/22-rdf-syntax-ns#"
   xmlns:svg="http://www.w3.org/2000/svg"
   xmlns="http://www.w3.org/2000/svg"
   version="1.1"
   id="svg2"
   viewBox="0 0 15.999999 5.830115"
   width="47.999997">
  <defs
     id="defs4" />
  <metadata
     id="metadata7">
    <rdf:RDF>
      <cc:Work
         rdf:about="">
        <dc:format>image/svg+xml</dc:format>
        <dc:type
           rdf:resource="http://purl.org/dc/dcmitype/StillImage" />
        <dc:title></dc:title>
      </cc:Work>
    </rdf:RDF>
  </metadata>
  <g
     transform="translate(790.21406,-1009.3527)"
     id="layer1">
    <g
       transform="matrix(0.00684889,0,0,0.00684889,-773.96116,1008.5235)"
       id="g4147">
      <path
         id="path4151"
         d="m -2052.2379,965.76358 c -9.1762,-6.2361 -9.775,-6.93552 -12.0398,-14.0625 -2.2075,-6.9468 -18.1033,-44.01977 -30.8178,-71.875 -3.77,-8.25941 -8.6655,-23.94575 -16.0787,-51.52002 l -10.6583,-39.64504 0.5548,-27.22996 c 0.5507,-27.03074 0.5841,-27.3065 4.5639,-37.68968 3.3575,-8.7596 4.5906,-10.6625 7.5871,-11.707 5.2465,-1.829 4.1048,-5.4301 -1.5938,-5.0268 -2.3819,0.1685 -48.0975,5.3785 -101.5901,11.5777 l -97.2593,11.27131 -20.8657,-9.28801 c -11.4761,-5.1084 -22.8378,-10.0917 -25.2483,-11.0741 -3.7157,-1.5143 -5.3922,-3.7167 -11.017,-14.4725 -7.9563,-15.214 -8.3529,-20.033 -1.7878,-21.7221 5.1346,-1.3211 5.141,-2.3883 0.119,-19.8173 -2.169,-7.5274 -3.7093,-13.9204 -3.4229,-14.2067 0.2863,-0.2864 30.0453,-6.2632 66.131,-13.2819 36.0857,-7.0188 66.3271,-13.3267 67.2031,-14.0177 0.876,-0.6911 1.2754,-1.5737 0.8876,-1.9616 -0.3878,-0.3878 -25.8072,-2.2168 -56.4875,-4.0645 -55.3062,-3.3308 -55.8015,-3.3846 -58.0125,-6.3043 -2.0049,-2.6474 -2.1572,-5.0274 -1.5087,-23.5698 0.3968,-11.3437 1.1813,-21.1282 1.7433,-21.7433 0.5983,-0.6548 66.1994,2.1433 158.2784,6.7511 l 157.2567,7.8694 56.25,-11.4042 c 147.0755,-29.8185 524.4111,-106.2663 560,-113.4554 22,-4.4442 41.0163,-8.3955 42.2585,-8.7807 4.3774,-1.3576 1.357,-4.146 -11.6115,-10.7199 l -13.103,-6.642 -1.6661,-6.875 c -0.9164,-3.7812 -2.3326,-7.5561 -3.147,-8.3887 -2.5262,-2.5821 -49.7097,-18.8257 -206.3024,-71.0227 -83.0893,-27.6961 -151.5188,-50.8306 -152.0655,-51.4101 -0.8453,-0.8958 22.9204,-90.0036 24.3989,-91.4821 1.0013,-1.0013 20.0285,-2.4251 23.9482,-1.7921 3.1008,0.5008 4.3188,0.065 5.6132,-2.0074 2.0992,-3.3614 4.8017,-3.422 4.8017,-0.1077 0,2.4727 3.1387,4.7387 4.5747,3.3027 0.8798,-0.8798 5.3235,-19.3762 5.3826,-22.4044 0.068,-3.4646 -4.814,-2.7273 -6.2073,0.9375 -2.3987,6.3089 -3.8801,3.4101 -3.0343,-5.9375 1.2422,-13.7285 2.3979,-13.0441 -37.5907,-22.2629 -18.5625,-4.2794 -34.0726,-8.2761 -34.4668,-8.8817 -0.9317,-1.4313 0.1105,-8.5429 1.252,-8.5429 0.4821,0 35.1526,6.7405 77.0456,14.9789 47.6036,9.3615 77.8099,15.8687 80.5442,17.3514 2.4062,1.3048 7.6655,3.0533 11.6872,3.8855 l 7.3123,1.5132 -0.8252,5.5029 c -0.7422,4.9491 -0.5346,5.6283 2.0627,6.7488 6.5772,2.8373 26.0063,6.2224 31.4401,5.4776 3.92,-0.5373 6.784,-0.1619 9.6417,1.2637 2.2359,1.1154 5.9755,2.028 8.3103,2.028 2.3347,0 5.9553,0.8844 8.0458,1.9654 2.0904,1.081 4.5315,1.685 5.4248,1.3422 0.8932,-0.3427 5.3173,0.2192 9.8313,1.2489 5.9987,1.3683 8.4128,2.5199 8.9714,4.2799 0.4203,1.3242 1.9923,2.7021 3.4934,3.0618 7.63,1.8284 116.4567,20.6018 119.426,20.6018 2.3928,0 4.3121,-1.1552 6.2305,-3.75 4.564,-6.1732 10.1905,-4.8194 12.1328,2.9194 0.4873,1.9418 2.0794,4.0519 3.538,4.6891 2.2855,0.9985 286.2281,51.3903 340.7769,60.4783 10.6562,1.7754 26.4062,4.5879 34.99996,6.25 46.05262,8.9072 89.62087,15.8547 94.375,15.0491 2.75,-0.4659 6.96875,-1.1247 9.375,-1.464 2.40625,-0.3393 6.1645,-1.4248 8.35175,-2.4124 3.65137,-1.6485 6.61787,-1.3297 36.25,3.8965 17.75025,3.1306 33.65525,6.1306 35.34425,6.6667 1.68912,0.536 3.98125,2.6234 5.09375,4.6385 4.28888,7.7691 4.85575,7.9167 82.54175,21.4973 40.17388,7.0229 78.43962,13.1258 85.035,13.5621 l 11.99138,0.7931 3.32112,-3.5816 c 1.8265,-1.9699 3.321,-4.0092 3.321,-4.5319 0,-1.5784 7.0994,-1.0655 8.4747,0.6123 0.7045,0.8593 1.9024,3.8876 2.662,6.7294 0.7597,2.8417 2.1174,5.7778 3.017,6.5245 2.5313,2.1007 15.4962,3.2803 17.5273,1.5946 2.2831,-1.8949 24.006,0.2928 29.0555,2.9261 2.0011,1.0436 4.5841,1.9009 5.7399,1.9052 2.2285,0.01 510.384599,89.4859 515.514299,90.7734 1.6552,0.4154 3.0093,1.1904 3.0093,1.7222 0,0.5318 -4.4881,5.7995 -9.9736,11.706 -6.5351,7.0366 -9.7212,11.397 -9.2413,12.6475 1.0497,2.7354 4.3323,2.3549 5.1028,-0.5914 0.8275,-3.1644 3.7065,-3.2472 4.6942,-0.135 0.4129,1.3008 1.857,2.6544 3.2093,3.008 1.7842,0.4666 2.4981,1.7893 2.6026,4.8224 0.2412,7.0073 -0.288,9.0216 -3.0837,11.7347 -1.4769,1.4333 -3.3327,3.6947 -4.1241,5.0254 -1.4161,2.3815 -1.4538,2.3803 -2.4087,-0.081 -1.4357,-3.7 -3.3142,-4.4746 -6.2252,-2.5672 -1.5573,1.0203 -7.8178,1.9693 -15.6372,2.3702 -7.1721,0.3677 -15.8526,1.125 -19.2901,1.6828 l -6.25,1.0142 -0.3803,6.633 c -0.3661,6.3855 -0.5967,6.7704 -6.182199,10.3125 -3.1911,2.0238 -6.5074,3.6795 -7.3695,3.6795 -0.8623,0 -3.9865,1.6056 -6.9429,3.568 -2.9562,1.9624 -13.8126,7.9394 -24.1251,13.2822 -45.5876,23.6184 -179.3208,95.6289 -182.7873,98.4244 -0.8456,0.6819 -10.3913,14.9615 -21.213,31.7326 l -19.6757,30.4929 -11.4465,0 c -7.6601,0 -11.858,0.5169 -12.6906,1.5625 -0.6844,0.8594 -2.9813,8.3125 -5.1043,16.5625 -2.123,8.25 -5.5996,20.90628 -7.7259,28.12503 -2.1263,7.21875 -4.4007,15.65625 -5.0543,18.75 -0.6537,3.09375 -2.5408,10.125 -4.1935,15.625 -5.8732,19.54395 -8.4452,28.8844 -10.8253,39.31361 -1.326,5.80999 -2.9209,11.07361 -3.5441,11.69694 -0.6705,0.67049 -50.8236,0.88786 -122.8114,0.53226 -95.7911,-0.47316 -122.68848,-0.94934 -126.42748,-2.23815 -3.78237,-1.30377 -5.60325,-1.32837 -8.94275,-0.12075 -6.03912,2.18378 -11.95862,0.27498 -80.68287,-26.0167 l -59.375,-22.71496 -52.08387,0.11925 -52.08388,0.11925 -125.22091,28.06861 -125.2209,28.0686 -60.1952,-3.76988 c -59.388,-3.71942 -137.9791,-11.9881 -159.5702,-16.78873 -4.4688,-0.99359 -10.8146,-1.82629 -14.1018,-1.85044 -4.2042,-0.0309 -6.1962,-0.61597 -6.7169,-1.97282 -1.1503,-2.9976 0.3466,-3.64895 9.9304,-4.32109 8.2521,-0.57875 8.9655,-0.85627 9.6402,-3.75 0.7234,-3.10284 0.8523,-3.13031 18.1758,-3.87429 l 17.4473,-0.74928 24.375,-10.28233 c 29.0805,-12.26729 31.305,-13.79326 19.9099,-13.6578 -4.4192,0.0525 -8.9753,-0.006 -10.1246,-0.13045 -1.6319,-0.17645 -287.4501,78.87924 -442.9103,122.50646 -106.38,29.8537 -267.874,74.93769 -268.4321,74.93769 -0.1914,0 -4.6935,-2.95313 -10.0046,-6.5625 z"
         style="fill:#000000;fill-opacity:1" />
    </g>
  </g>
</svg>
