<?xml version="1.0" encoding="UTF-8" standalone="no"?>
<!-- Created with Inkscape (http://www.inkscape.org/) -->

<svg
   xmlns:dc="http://purl.org/dc/elements/1.1/"
   xmlns:cc="http://creativecommons.org/ns#"
   xmlns:rdf="http://www.w3.org/1999/02/22-rdf-syntax-ns#"
   xmlns:svg="http://www.w3.org/2000/svg"
   xmlns="http://www.w3.org/2000/svg"
   xmlns:sodipodi="http://sodipodi.sourceforge.net/DTD/sodipodi-0.dtd"
   xmlns:inkscape="http://www.inkscape.org/namespaces/inkscape"
   width="22.013304mm"
   height="7.9154944mm"
   viewBox="0 0 77.999895 28.047027"
   id="svg2"
   version="1.1"
   inkscape:version="0.91 r13725"
   sodipodi:docname="Herald.svg">
  <defs
     id="defs4" />
  <sodipodi:namedview
     id="base"
     pagecolor="#ffffff"
     bordercolor="#666666"
     borderopacity="1.0"
     inkscape:pageopacity="0.0"
     inkscape:pageshadow="2"
     inkscape:zoom="15.839192"
     inkscape:cx="37.902809"
     inkscape:cy="15.214306"
     inkscape:document-units="px"
     inkscape:current-layer="g3347"
     showgrid="false"
     showguides="false"
     fit-margin-top="0"
     fit-margin-left="0"
     fit-margin-right="0"
     fit-margin-bottom="0"
     inkscape:window-width="1920"
     inkscape:window-height="1017"
     inkscape:window-x="-8"
     inkscape:window-y="-8"
     inkscape:window-maximized="1" />
  <metadata
     id="metadata7">
    <rdf:RDF>
      <cc:Work
         rdf:about="">
        <dc:format>image/svg+xml</dc:format>
        <dc:type
           rdf:resource="http://purl.org/dc/dcmitype/StillImage" />
        <dc:title></dc:title>
      </cc:Work>
    </rdf:RDF>
  </metadata>
  <g
     inkscape:label="Layer 1"
     inkscape:groupmode="layer"
     id="layer1"
     transform="translate(671.15833,-880.69398)">
    <g
       id="g3347"
       transform="translate(-1176.3799,-745.72869)">
      <path
         style="fill:#000000;fill-opacity:1"
         d="m 548.92884,1654.4697 c -0.32106,-0.018 -0.73481,-0.094 -1.02939,-0.1895 -0.53978,-0.1742 -0.82141,-0.3781 -1.75088,-1.2679 -0.0897,-0.086 -0.40877,-0.067 -0.53406,0.032 -0.10453,0.082 -0.174,0.086 -1.67329,0.086 -1.33811,0 -1.57196,0.01 -1.61763,0.064 -0.0435,0.052 -0.18319,0.064 -0.7506,0.064 -0.56741,0 -0.70714,-0.012 -0.75059,-0.064 -0.0294,-0.035 -0.0873,-0.064 -0.12868,-0.064 -0.0414,0 -0.097,-0.026 -0.12359,-0.058 -0.029,-0.035 -0.18141,-0.069 -0.38055,-0.084 -0.33916,-0.026 -2.63778,-0.5439 -2.79929,-0.6303 -0.12866,-0.069 -0.17075,-0.2175 -0.17075,-0.6029 0,-0.4045 0.0302,-0.3929 -0.6052,-0.2319 -0.40966,0.1039 -0.55115,0.1231 -1.36438,0.1856 -0.3907,0.03 -0.47303,0.088 -0.27415,0.1932 0.0877,0.046 0.10307,0.07 0.0563,0.085 -0.15781,0.052 -0.34276,0.082 -0.61627,0.1012 -0.184,0.013 -0.34503,0.051 -0.42892,0.1021 -0.1226,0.075 -0.22783,0.082 -1.2066,0.083 -0.58975,5e-4 -1.41005,0.029 -1.82287,0.064 -0.99352,0.083 -1.27048,0.083 -1.30225,0 -0.0429,-0.1119 -0.23086,-0.076 -0.3344,0.064 -0.0809,0.1094 -0.12366,0.1287 -0.286,0.1287 -0.16377,0 -0.2179,0.025 -0.38117,0.1754 -0.1576,0.1453 -0.21001,0.1705 -0.30504,0.1468 -0.1644,-0.041 -0.25918,-0.1411 -0.29018,-0.3064 -0.0373,-0.199 0.004,-0.3297 0.12004,-0.3804 0.0763,-0.033 0.10123,-0.083 0.11141,-0.2238 0.0142,-0.1959 0.0387,-0.177 -0.32408,-0.2504 -0.0649,-0.013 -0.17744,-0.094 -0.25015,-0.179 -0.0912,-0.1069 -0.15441,-0.1465 -0.20374,-0.1275 -0.0607,0.023 -0.0715,0.098 -0.0715,0.4956 0,0.4595 -0.002,0.4696 -0.11397,0.5429 -0.0894,0.059 -0.16702,0.069 -0.35988,0.049 -0.22034,-0.023 -0.2482,-0.017 -0.26803,0.059 -0.0284,0.1088 -0.1003,0.1083 -0.15884,0 -0.0438,-0.082 -0.0898,-0.086 -1.00794,-0.086 -0.91814,0 -0.96413,0 -1.00795,0.086 -0.0585,0.1093 -0.13039,0.1099 -0.15883,0 -0.0198,-0.076 -0.0477,-0.082 -0.26804,-0.059 -0.19286,0.02 -0.27049,0.01 -0.35987,-0.049 -0.11168,-0.073 -0.11397,-0.084 -0.11397,-0.5363 0,-0.3618 0.0142,-0.4734 0.0656,-0.516 0.056,-0.046 0.0628,-0.1774 0.0466,-0.8952 l -0.019,-0.8409 -0.14309,0 -0.14308,0 -0.0346,1.693 c -0.019,0.9312 -0.0412,1.6996 -0.0492,1.7077 -0.008,0.01 -0.45573,0.042 -0.99484,0.074 -0.5391,0.033 -1.12013,0.071 -1.29115,0.085 -0.29414,0.024 -0.31096,0.02 -0.31096,-0.064 0,-0.119 -0.0991,-0.1504 -0.22172,-0.07 -0.055,0.036 -0.23508,0.079 -0.40021,0.095 -0.16513,0.016 -0.33291,0.046 -0.37286,0.067 -0.056,0.029 -0.0856,0.01 -0.12924,-0.081 l -0.0566,-0.1182 -1.65074,-0.012 c -0.90791,-0.01 -1.69418,0 -1.74725,0.011 -0.0727,0.018 -0.0965,0.054 -0.0965,0.1488 0,0.1477 -0.0803,0.2154 -0.13645,0.115 -0.0543,-0.097 -0.12273,-0.088 -0.29246,0.037 -0.13744,0.1014 -0.17559,0.1072 -0.70194,0.1072 -0.45199,0 -0.57097,0.013 -0.63308,0.069 -0.0629,0.057 -0.10088,0.061 -0.21351,0.022 -0.18088,-0.063 -1.1445,-0.062 -1.32714,0 -0.11384,0.04 -0.14723,0.039 -0.16187,-0.01 -0.0445,-0.1334 -0.19304,-0.2087 -0.59061,-0.2995 -0.23379,-0.053 -0.44341,-0.1143 -0.46582,-0.1355 -0.0224,-0.021 -0.26658,-0.039 -0.5426,-0.039 -0.56315,0 -1.20772,-0.095 -2.10765,-0.3096 -0.55242,-0.132 -0.58937,-0.1472 -0.58976,-0.2429 -4.4e-4,-0.1108 -0.0383,-0.109 0.44918,-0.021 0.11711,0.021 0.15538,0.011 0.17726,-0.046 0.0401,-0.1045 -0.0198,-0.1462 -0.33019,-0.2299 l -0.27522,-0.074 -0.0116,-0.8444 -0.0116,-0.8445 0.31186,0.01 0.31187,0.01 0.0129,-0.2745 c 0.007,-0.1509 -0.004,-0.2917 -0.0255,-0.3128 -0.0211,-0.021 -0.16204,-0.052 -0.31317,-0.069 l -0.27478,-0.03 0,-1.1795 0,-1.1795 0.26595,-0.022 c 0.14628,-0.012 0.28721,-0.043 0.31318,-0.069 0.0275,-0.027 0.0418,-0.1616 0.0343,-0.3216 l -0.0129,-0.2745 -0.31188,0.011 -0.31186,0.011 0.0116,-0.8452 0.0116,-0.8453 0.27488,-0.068 c 0.28417,-0.07 0.40788,-0.1718 0.31804,-0.2616 -0.0358,-0.036 -0.10617,-0.036 -0.26921,0 -0.31433,0.068 -0.35337,0.062 -0.33742,-0.044 0.0111,-0.074 0.0716,-0.1066 0.31395,-0.1706 0.81487,-0.2153 1.57282,-0.341 2.29468,-0.3807 0.72492,-0.04 1.47219,-0.2042 1.59779,-0.3513 0.0711,-0.083 0.12105,-0.088 0.91515,-0.088 0.55994,0 0.8559,0.016 0.88774,0.048 0.0643,0.064 0.29856,0.061 0.38059,-0.01 0.11189,-0.091 0.29339,-0.3581 0.29339,-0.4322 0,-0.063 -0.10538,-0.071 -0.97477,-0.082 l -0.97476,-0.012 -0.0382,-0.1286 c -0.0709,-0.239 -0.092,-0.2568 -0.31944,-0.2702 -0.18355,-0.011 -0.22556,10e-4 -0.26516,0.075 -0.0507,0.095 -0.1706,0.1158 -0.24368,0.043 -0.0508,-0.051 -1.15905,-0.033 -1.35517,0.022 -0.10099,0.028 -0.11795,0.02 -0.11795,-0.055 0,-0.1546 -0.11301,-0.2101 -0.71673,-0.3519 -0.3253,-0.076 -0.6204,-0.163 -0.65579,-0.1925 -0.0451,-0.038 -0.35211,-0.061 -1.02939,-0.078 -0.94311,-0.024 -1.67744,-0.087 -2.56265,-0.2201 -0.24154,-0.036 -0.4586,-0.066 -0.48234,-0.066 -0.0237,0 -0.0432,-0.077 -0.0432,-0.1715 0,-0.1977 -0.0342,-0.1899 0.52817,-0.1203 0.4429,0.055 0.49991,0.039 0.49991,-0.1371 0,-0.1331 -0.0796,-0.1749 -0.45207,-0.2374 -0.21065,-0.035 -0.42642,-0.074 -0.4795,-0.086 l -0.0965,-0.021 0,-1.3503 0,-1.3502 0.25384,0 c 0.40107,0 0.38953,0.015 0.38953,-0.5178 0,-0.53 -0.0152,-0.554 -0.35103,-0.5552 -0.10181,-3e-4 -0.20944,-0.016 -0.23918,-0.035 -0.0424,-0.027 -0.0517,-0.4394 -0.0429,-1.9177 l 0.0112,-1.8834 0.21446,-0.034 c 0.452,-0.071 0.41185,-0.014 0.39813,-0.5593 l -0.0121,-0.4814 -0.30024,-0.021 -0.30024,-0.022 -0.0113,-1.3411 -0.0113,-1.3412 0.0971,-0.036 c 0.0534,-0.02 0.25751,-0.061 0.45355,-0.091 0.36344,-0.056 0.47994,-0.1177 0.47994,-0.2556 0,-0.1472 -0.0962,-0.1781 -0.4126,-0.1323 -0.16231,0.023 -0.36748,0.043 -0.45594,0.043 -0.15778,8e-4 -0.16085,0 -0.16085,-0.1621 l 0,-0.1629 0.39675,-0.054 c 1.10929,-0.1499 1.99064,-0.22 2.77383,-0.2205 0.69525,-4e-4 0.84527,-0.012 0.9072,-0.068 0.0408,-0.037 0.19674,-0.095 0.34651,-0.1281 0.51689,-0.1156 0.94331,-0.2376 1.01218,-0.2895 0.0295,-0.022 0.0536,-0.077 0.0536,-0.1223 0,-0.1142 0.0906,-0.1368 0.23872,-0.06 0.17983,0.094 1.04386,0.093 1.22609,0 0.12341,-0.064 0.13636,-0.063 0.22581,0.021 0.067,0.063 0.1515,0.089 0.28728,0.089 0.21337,0 0.29534,-0.055 0.29534,-0.1985 0,-0.2329 -0.0215,-0.2305 2.00822,-0.2298 1.03039,3e-4 1.91446,0.011 1.9646,0.025 0.0653,0.017 0.10182,0.075 0.12867,0.2032 0.0323,0.1538 0.0545,0.1806 0.15993,0.1926 0.0818,0.01 0.15632,-0.018 0.22473,-0.082 0.0953,-0.089 0.10765,-0.091 0.17983,-0.026 0.13497,0.1221 0.48102,0.287 0.60234,0.287 0.0707,0 0.20949,-0.07 0.35158,-0.178 0.32824,-0.2489 0.7806,-0.4482 1.14368,-0.5039 0.48535,-0.074 0.65224,-0.062 0.83084,0.062 0.14934,0.1035 0.17147,0.1068 0.43122,0.065 0.16921,-0.027 1.37322,-0.045 3.15168,-0.045 2.81607,-3e-4 2.87999,0 2.97678,-0.086 0.0783,-0.068 0.16047,-0.086 0.39393,-0.086 0.21896,0 0.30121,-0.016 0.31903,-0.063 0.0358,-0.093 -0.0652,-0.361 -0.1543,-0.4086 -0.0428,-0.023 -0.0987,-0.1016 -0.12428,-0.1749 -0.10628,-0.3049 0.21395,-0.6107 0.4577,-0.4372 0.21575,0.1537 0.29245,0.1813 0.50454,0.182 0.19115,5e-4 0.22849,0.016 0.31224,0.1293 0.1114,0.1506 0.20164,0.162 0.32991,0.042 0.0921,-0.087 0.0985,-0.087 0.88203,-0.016 0.43411,0.039 1.35825,0.08 2.05364,0.091 1.06106,0.017 1.28519,0.031 1.39396,0.09 0.0713,0.039 0.27437,0.083 0.4513,0.1002 0.42116,0.04 0.60316,0.078 0.70653,0.1495 0.0674,0.047 0.3871,0.058 1.57625,0.058 1.12147,0 1.49165,0.013 1.49165,0.051 0,0.028 -0.0422,0.096 -0.0938,0.1507 -0.0569,0.061 -0.078,0.1145 -0.0536,0.1371 0.0221,0.021 0.22354,0.077 0.44765,0.1245 0.37864,0.081 7.23468,2.1622 7.37729,2.2394 0.0743,0.04 0.72915,1.4188 0.72915,1.5349 0,0.043 -0.0232,0.1006 -0.0515,0.1289 -0.10475,0.1047 -0.49357,-0.012 4.81239,1.4443 1.16772,0.3204 2.16524,0.604 2.21673,0.63 0.0515,0.026 0.12248,0.036 0.15775,0.023 0.11303,-0.043 1.48467,0.3534 1.8932,0.5477 0.55502,0.2639 1.99693,1.159 2.05515,1.2758 0.0268,0.054 0.0868,0.1049 0.13338,0.1138 0.0772,0.015 0.88852,0.5045 5.51014,3.3266 0.83727,0.5113 1.57071,0.9743 1.62986,1.029 0.13052,0.1207 0.28599,0.1637 0.38055,0.1052 0.0491,-0.03 0.48706,0 1.46408,0.1067 l 1.39396,0.1501 0.0679,-0.087 c 0.095,-0.1217 0.21961,-0.085 0.26178,0.078 0.0268,0.1035 0.0748,0.1506 0.20731,0.2036 0.0948,0.038 0.19464,0.069 0.2218,0.069 0.0557,0 0.54643,0.1866 0.74237,0.2823 0.17472,0.085 4.91897,1.0559 5.19644,1.0631 0.182,0 0.24038,0.027 0.33036,0.1236 0.0601,0.065 0.14468,0.118 0.18792,0.118 0.0432,0 0.3771,0.1853 0.74192,0.4119 0.36481,0.2265 1.21338,0.75 1.8857,1.1632 0.67232,0.4132 1.261,0.7951 1.30818,0.8487 0.0472,0.053 0.67447,0.4579 1.39397,0.8987 0.7195,0.4408 1.36608,0.8547 1.43685,0.9197 0.0708,0.065 0.29717,0.2287 0.50311,0.3635 0.37161,0.2434 0.76552,0.6461 0.92054,0.9409 0.10174,0.1935 0.1058,0.8687 0.006,1.0211 -0.0499,0.076 -0.30387,0.2161 -0.84333,0.4642 -0.42455,0.1953 -0.85983,0.4176 -0.9673,0.494 -0.10746,0.076 -0.28088,0.1715 -0.38537,0.2115 -0.16163,0.062 -0.19409,0.094 -0.21751,0.2193 -0.0151,0.081 -0.0436,0.1567 -0.0633,0.1688 -0.0561,0.035 -0.84298,0.1425 -1.2731,0.1745 -0.2145,0.016 -0.40751,0.042 -0.42892,0.057 -0.0214,0.015 -0.0686,0.086 -0.10486,0.1568 l -0.0659,0.1287 -0.79942,0.012 c -0.76984,0.011 -0.80044,0.01 -0.82694,-0.075 -0.0252,-0.079 -0.0637,-0.087 -0.45205,-0.087 -0.25331,0 -0.49864,0.025 -0.60831,0.061 -0.19469,0.065 -0.48666,0.074 -2.32834,0.075 -1.12566,7e-4 -1.13465,0 -1.13597,0.1967 l -6.5e-4,0.097 -0.97538,-0.012 -0.97538,-0.011 -0.0225,-0.1287 -0.0225,-0.1286 -0.7541,0 c -0.5676,0 -0.77123,0.014 -0.82339,0.057 -0.052,0.043 -0.0724,0.1504 -0.0816,0.4289 l -0.0124,0.3714 -0.16384,0.013 c -0.0918,0.01 -0.19368,-0.011 -0.23167,-0.043 -0.043,-0.036 -0.24253,-0.064 -0.54387,-0.078 l -0.47603,-0.022 -0.0215,-0.1711 c -0.014,-0.1122 -0.0454,-0.1757 -0.0909,-0.1844 -0.0382,-0.01 -0.61724,0.092 -1.28673,0.2213 -1.0891,0.2098 -1.29792,0.2373 -1.9834,0.2618 l -0.76616,0.027 -0.47769,0.2503 c -0.26273,0.1377 -0.60315,0.2902 -0.75649,0.3389 -0.15333,0.049 -1.61756,0.4108 -3.25384,0.8046 l -2.97505,0.716 -0.37635,-0.1844 c -0.20698,-0.1015 -0.40381,-0.174 -0.43739,-0.1611 -0.0336,0.013 -0.0862,0.1075 -0.11685,0.2102 -0.0925,0.3097 -0.21104,0.5025 -0.35762,0.5819 -0.11612,0.063 -0.27302,0.077 -0.95391,0.086 -1.37583,0.019 -4.57811,0.034 -4.78237,0.022 z"
         id="path3351"
         inkscape:connector-curvature="0" />
    </g>
  </g>
</svg>
