<?xml version="1.0" encoding="UTF-8" standalone="no"?>
<!-- Created with Inkscape (http://www.inkscape.org/) -->

<svg
   xmlns:dc="http://purl.org/dc/elements/1.1/"
   xmlns:cc="http://creativecommons.org/ns#"
   xmlns:rdf="http://www.w3.org/1999/02/22-rdf-syntax-ns#"
   xmlns:svg="http://www.w3.org/2000/svg"
   xmlns="http://www.w3.org/2000/svg"
   xmlns:sodipodi="http://sodipodi.sourceforge.net/DTD/sodipodi-0.dtd"
   xmlns:inkscape="http://www.inkscape.org/namespaces/inkscape"
   width="77"
   height="30.58572"
   id="svg3030"
   version="1.1"
   inkscape:version="0.48.5 r10040"
   sodipodi:docname="Herald.svg">
  <defs
     id="defs3032" />
  <sodipodi:namedview
     id="base"
     pagecolor="#ffffff"
     bordercolor="#666666"
     borderopacity="1.0"
     inkscape:pageopacity="0.0"
     inkscape:pageshadow="2"
     inkscape:zoom="11.2"
     inkscape:cx="51.402076"
     inkscape:cy="29.573062"
     inkscape:document-units="px"
     inkscape:current-layer="layer1"
     showgrid="false"
     fit-margin-top="0"
     fit-margin-left="0"
     fit-margin-right="0"
     fit-margin-bottom="0"
     inkscape:window-width="1920"
     inkscape:window-height="1018"
     inkscape:window-x="-8"
     inkscape:window-y="-8"
     inkscape:window-maximized="1" />
  <metadata
     id="metadata3035">
    <rdf:RDF>
      <cc:Work
         rdf:about="">
        <dc:format>image/svg+xml</dc:format>
        <dc:type
           rdf:resource="http://purl.org/dc/dcmitype/StillImage" />
        <dc:title />
      </cc:Work>
    </rdf:RDF>
  </metadata>
  <g
     inkscape:label="Layer 1"
     inkscape:groupmode="layer"
     id="layer1"
     transform="translate(281.24198,-100.42188)">
    <g
       id="g3049"
       transform="matrix(0.042316,0,0,0.042316,-269.34094,125.46388)">
      <path
         style="fill:#000000"
         d="m 421.57142,128.50499 c 0,-2.1616 -0.44667,-2.5 -3.3,-2.5 -4.54722,0 -5.7,-1.5453 -5.7,-7.6409 0,-2.8826 -0.45,-5.5191 -1,-5.8591 -0.55,-0.3399 -1,-1.6852 -1,-2.9895 l 0,-2.3714 -11.25,0.4795 c -6.1875,0.2637 -12.375,0.6517 -13.75,0.8622 -5.88923,0.9015 -133.85247,-4.042 -169,-6.5289 -38.42381,-2.718704 -70.67708,-8.468804 -82.62497,-14.730304 -1.03126,-0.5405 -11.88753,-1.1804 -24.12503,-1.4221 l -22.249999,-0.4394 0,3.7549 c 0,2.0652 -0.43886,4.9091 -0.97525,6.3199 l -0.97525,2.5651 -20.52475,0 c -17.57756,0 -20.52475,0.2154 -20.52475,1.5 0,1.083404 -1.11111,1.500004 -4,1.500004 -3.33333,0 -4,-0.3333 -4,-2.000004 0,-1.4803 -0.66667,-2 -2.56574,-2 -4.80274,0 -6.43426,-1.6571 -6.43426,-6.5351 l 0,-4.4649 -10.75,0.01 c -9.0458296,0.01 -11.2255796,0.3216 -13.7499996,1.9935 -4.21511,2.7915 -15.7789904,2.8674 -17.7060304,0.1162 -1.23105,-1.7576 -3.03192,-1.8894 -26.88437,-1.9674 l -25.56493,-0.084 -1.65626,5.2543 c -3.12913,9.926704 0.8001,9.036704 -43.743471,9.908104 -28.51791,0.5579 -39.61452,0.4615 -40.59526,-0.3524 -0.8935,-0.7419 -1.34968,-3.445104 -1.34968,-7.998104 l 0,-6.8776 -20.03518,0 c -16.43621,0 -20.46131,-0.2792 -22.4074,-1.5543 -1.57703,-1.0333 -2.59065,-1.2009 -3.02384,-0.5 -0.95214,1.5406 -4.09522,1.2875 -5.53358,-0.4457 -0.68469,-0.825 -2.78714,-1.5 -4.6721,-1.5 -3.71156,0 -8.20161,-1.9379 -10.27318,-4.434 -0.9421,-1.1352 -3.13655,-1.566 -7.97716,-1.566 -3.86032,0 -7.18383,-0.5062 -7.87756,-1.2 -1.74209,-1.742 -1.74209,-228.857866 0,-230.599956 0.69373,-0.69372 4.01724,-1.2 7.87756,-1.2 4.84061,0 7.03506,-0.43078 7.97716,-1.56594 2.07157,-2.49608 6.56162,-4.43406 10.27318,-4.43406 1.88496,0 3.98741,-0.675 4.6721,-1.5 1.499,-1.80618 4.15637,-1.94363 5.8,-0.3 0.93333,0.93333 1.2,0.93333 1.2,0 0,-0.66 1.125,-1.2 2.5,-1.2 1.47022,0 2.5,-0.5738 2.5,-1.39301 0,-2.30944 2.4062,-2.60699 21.08179,-2.60699 l 17.91821,0 0,-3.37756 c 0,-1.85765 0.63206,-3.90211 1.40457,-4.54324 1.01393,-0.84148 11.89008,-1.17015 39.10573,-1.18175 33.180831,-0.0141 37.913281,0.17591 39.470271,1.58497 0.97301,0.88056 2.34561,1.46975 3.05021,1.3093 0.75873,-0.17277 1.90177,1.64847 2.80332,4.46663 l 1.52222,4.75834 25.57184,-0.15965 c 23.63255,-0.14755 25.67094,-0.29986 26.87854,-2.00835 1.90875,-2.70044 12.9007004,-2.60732 17.4191304,0.14757 2.34743,1.43123 5.0432,1.99732 9.5241696,2 3.4375,0.002 6.25,-0.2756 6.25,-0.61702 0,-0.34142 -3.24525,-6.64142 -7.21167,-14 l -7.2116596,-13.37924 -9.87815,0 c -9.4003204,0 -10.0189104,-0.13286 -12.7883304,-2.74675 -2.8856,-2.72355 -2.9102,-2.84395 -2.91118,-14.25 l -10e-4,-11.50325 -16.07541,-0.14746 c -14.84938,-0.13622 -16.2461,-0.30782 -18.31345,-2.25 -1.73267,-1.62776 -3.52193,-2.10254 -7.9236,-2.10254 -3.12705,0 -5.68555,-0.45 -5.68555,-1 0,-1.8838 -3.76514,-1.00609 -4.28975,1 -0.38501,1.47227 -1.36401,2 -3.71025,2 -2.34624,0 -3.32524,-0.52773 -3.71025,-2 -0.61958,-2.36928 -2.5515,-2.59446 -4.28975,-0.5 -1.01658,1.22491 -4.34012,1.5 -18.122441,1.5 -16.21089,0 -16.87756,0.079 -16.87756,2 0,1.61905 -0.66667,2 -3.5,2 -2.83333,0 -3.5,-0.38095 -3.5,-2 0,-1.93092 -0.66667,-2 -19.3,-2 -13.67778,0 -19.64957,-0.34957 -20.5,-1.2 -0.7275,-0.7275 -1.2,-4.26072 -1.2,-8.97322 l 0,-7.77323 -32.58587,-0.27677 c -25.12585,-0.21342 -32.82317,0.009 -33.62244,0.97322 -1.52257,1.83605 -3.60268,1.52551 -5.02376,-0.75 -1.03382,-1.65541 -2.33203,-2 -7.53479,-2 -6.10861,0 -6.41154,-0.12577 -10.74809,-4.46232 l -4.46233,-4.46233 -9.26136,-0.28767 -9.26136,-0.28768 -0.25331,-147.89355 c -0.18579,-108.47265 0.0468,-148.25511 0.87245,-149.25 0.7924,-0.95479 3.74408,-1.35645 9.96812,-1.35645 7.68104,0 8.97667,-0.25094 9.86491,-1.91062 1.99268,-3.72337 7.37348,-6.08938 13.84848,-6.08938 5.18632,0 6.1565,-0.28964 6.69935,-2 0.71228,-2.2442 5.0119,-2.79659 5.83772,-0.75 0.40351,1 0.52018,1 0.58333,0 0.0612,-0.9694 6.57778,-1.25 29.02926,-1.25 25.80384,0 29.05016,-0.17842 29.86901,-1.64162 0.62434,-1.11565 1.76165,-1.48047 3.54969,-1.13867 2.61253,0.49942 2.63099,0.45944 2.63099,-5.69787 0,-8.37372 0.39855,-8.52184 22.93042,-8.52184 16.99531,0 17.86098,-0.0943 18.35933,-2 0.53059,-2.02897 4.31612,-2.78484 6.26025,-1.25 0.5225,0.4125 9.58809,0.61885 20.14577,0.45856 18.046531,-0.274 19.232981,-0.40871 19.817381,-2.25 0.88061,-2.77456 6.46911,-2.74238 7.1971,0.0414 0.46913,1.79394 1.36402,2 8.68562,2 7.09154,0 8.3556,-0.26964 9.63337,-2.05494 1.23166,-1.72087 2.44616,-2.02742 7.47076,-1.88573 3.3,0.0931 6.77279,-0.14971 7.71731,-0.53951 0.94452,-0.38979 4.31952,-0.4198 7.5,-0.0667 3.18048,0.35311 12.32281,0.95811 20.31629,1.34444 14.3508804,0.69359 14.5891004,0.74328 18.9470104,3.95242 l 4.4133996,3.25 29.19291,0 c 25.2862,0 30.49371,0.26765 38.91308,2 9.05668,1.86348 13.62688,2 66.955089,2 55.1374,0 57.29851,0.0702 58.96966,1.91685 1.6875,1.86466 5.12966,1.92988 126.40499,2.39508 118.76195,0.45556 125.26265,0.57346 137.17026,2.48773 7.7281,1.24237 31.96936,7.40718 63.5,16.14873 66.44198,18.42036 118.6775,32.50651 172.9005,46.62541 24.1452,6.28709 44.5077,11.93507 45.25,12.55108 0.7904,0.65601 1.3495,3.11279 1.3495,5.93018 0,3.72852 0.3935,4.91991 1.75,5.29821 0.9625,0.26842 2.7625,0.77907 4,1.13477 2.137,0.61426 2.25,0.37336 2.25,-4.79821 0,-6.82093 1.3378,-8.10976 7.7552,-7.47106 2.6096,0.25974 28.8198,8.36474 58.2448,18.01113 29.425,9.64639 55.897,18.09407 58.8267,18.77264 2.9297,0.67856 5.5654,1.85559 5.857,2.61561 0.2917,0.76002 0.9181,1.38185 1.39215,1.38185 0.474,0 18.2708,8.13775 39.5486,18.08389 21.2777,9.94614 39.8023,18.50806 41.1659,19.02648 3.1436,1.19521 50.59043,31.01559 63.20973,39.72741 8.0727,5.5731 78.9733,57.90119 87.277,64.41473 2.4222,1.9 4.2013,2.20862 13.9245,2.41544 8.4776,0.18032 11.405,-0.0914 12.223,-1.13454 0.8101,-1.03315 2.8441,-1.23652 8.2425,-0.8241 5.8238,0.44493 7.2564,0.88973 7.6444,2.37358 0.2627,1.00432 1.5375,2.03259 2.8331,2.28504 3.8537,0.75094 25.2131,3.68875 27.0858,3.72544 0.9517,0.0186 1.9907,0.45526 2.309,0.97026 0.3183,0.515 2.2397,0.94711 4.2697,0.96023 5.0377,0.0326 11.3284,1.5804 12.2081,3.00385 0.3985,0.6448 28.9099,7.37358 63.3585,14.95285 l 62.634,13.7805 41.2452,22.97867 c 22.6849,12.63826 66.6045,37.10452 97.5992,54.36947 52.8943,29.4637 56.477,31.63173 58.3593,35.31532 1.5957,3.1228 1.8833,5.06351 1.4079,9.5 -1.5069,14.05968 -3.3033,41.88417 -2.8871,44.71831 0.6052,4.12213 -2.0437,9.531826 -5.4389,11.107166 -3.1136,1.44473 -26.9352,1.76257 -27.4619,0.3664 -0.473,-1.25396 -116.6319,10.28225 -118.0763,11.72664 -1.748,1.74793 -13.4647,1.50162 -14.4754,-0.3043 -0.6498,-1.16124 -2.2805,-1.33863 -7.942,-0.86399 -7.0065,0.5874 -7.16,0.66104 -9.2935,4.45705 -1.1931,2.12288 -1.8778,4.33146 -1.5215,4.90797 0.3563,0.5765 -0.022,2.07074 -0.8411,3.32053 -1.3067,1.99425 -2.8777,2.42506 -12.8362,3.52007 -14.7733,1.62442 -14.8473,1.65029 -14.8473,5.18702 0,1.77463 -0.5256,2.93261 -1.331,2.93261 -1.7769,0 -4.0893,4.46246 -3.3333,6.43254 0.5126,1.33581 3.0446,1.56746 17.1329,1.56746 15.8647,0 16.5314,0.0806 16.5314,2 0,1.822 0.6897,2.00616 7.75,2.06923 20.9466,0.18712 20.3013,0.25475 23.1137,-2.42235 3.227,-3.07183 16.3658,-5.63884 28.8863,-5.64369 6.6652,-0.003 8.25,-0.29133 8.25,-1.50319 0,-1.16667 1.3333,-1.5 6,-1.5 3.717,0 6,0.42087 6,1.10608 0,1.42383 4.7717,5.23234 7.441,5.939 1.895,0.50169 2.059,1.29797 2.059,10 l 0,9.45492 -21.75,0.25016 c -11.9625,0.13759 -21.75,-0.10951 -21.75,-0.54911 0,-1.88247 -7.4257,-3.19318 -18.5518,-3.27457 -26.6289,-0.19474 -27.4482,-0.13285 -27.4482,2.07358 0,1.91667 -0.6667,2 -16,2 l -16,0 0,4.37756 c 0,6.05872 -1.5155,7.07034 -9.2679,6.18626 -3.4276,-0.39089 -10.1009,-1.01516 -14.8294,-1.38726 -8.0964,-0.63715 -9.0139,-0.95373 -15.75,-5.43453 l -7.1528,-4.75797 0,-6.10866 c 0,-5.84296 -0.098,-6.08301 -2.25,-5.51901 -1.2375,0.32431 -18.675,4.50821 -38.75,9.29756 -25.557,6.09721 -36.9497,9.23435 -38,10.46385 -1.2792,1.49743 -3.3143,1.75728 -13.8236,1.765 l -12.3236,0.009 -1.4264,-3.41381 c -0.7845,-1.8776 -1.4264,-5.19146 -1.4264,-7.36414 0,-7.42969 -1.3134,-7.98099 -2.6042,-1.09316 -0.6679,3.56359 -1.6762,7.66985 -2.2407,9.12503 l -1.0264,2.64578 -11.8671,0.0352 c -6.5269,0.0193 -12.3385,-0.27127 -12.9146,-0.64578 -0.5762,-0.37451 -1.6233,-1.77283 -2.3269,-3.10737 l -1.2793,-2.42643 -1.4023,2.67643 -1.4024,2.67644 -12.353,0 c -12.0731,0 -12.3902,-0.0567 -13.9911,-2.5 -2.0941,-3.19595 -5.3033,-3.22767 -6.7436,-0.0667 -1.0871,2.38602 -1.3481,2.43334 -13.4224,2.43334 l -12.314,0 -1.9969,-3.15388 -1.9969,-3.15387 -1.034,2.71949 -1.0339,2.71949 -13.0251,-0.0652 c -7.6641,-0.0384 -13.0252,-0.46269 -13.0252,-1.03096 0,-0.61581 -12.6888,-0.71508 -35.0171,-0.27394 -37.76153,0.74605 -37.36243,0.78782 -43.24163,-4.52546 -2.3092,-2.08695 -2.6576,-3.0315 -2.1387,-5.79774 0.6131,-3.2681 0.578,-3.30461 -3.1769,-3.30461 -2.5618,0 -4.5751,0.73187 -6.1896,2.25 -2.0817,1.95754 -3.673,2.29438 -12.2422,2.59145 -8.1464,0.28241 -10.1481,0.67145 -11.5767,2.25 -1.5345,1.69563 -3.2094,1.90855 -15.0132,1.90855 -7.7786,0 -13.5422,0.41452 -13.904,1 -0.341,0.55169 -4.82395,1 -9.99995,1 -5.176,0 -9.659,-0.44831 -10,-1 -0.3399,-0.55 -3.1462,-1 -6.2362,-1 -5.1079,0 -5.8678,0.29518 -8.367,3.25 l -2.7489,3.25 -5.574,-2.96493 c -4.274,-2.27348 -5.5739,-3.49782 -5.5739,-5.25 0,-2.19491 -0.3255,-2.28533 -8.25,-2.29166 -6.5509,-0.005 -8.8679,-0.41578 -11.25,-1.99341 -4.2717,-2.82906 -15.6306,-2.82906 -19.2271,0 -2.3804,1.87244 -4.0568,2 -26.2828,2 l -23.7401,0 -0.607,3.03518 -0.6071,3.03518 -10.2679,-0.28518 -10.268,-0.28518 -0.3164,-2.75 -0.3164,-2.75 -21.8746,0 c -12.2175,0 -22.1253,0.40568 -22.4425,0.91891 -0.3123,0.5054 -3.4583,2.53532 -6.991,4.51092 -10.7384,6.00526 -11.4061,6.941 -48.56904,68.07018 -10.03103,16.5 -19.33661,31.4708 -20.67905,33.2684 -2.57241,3.4445 -10.02655,7.6474 -20.51582,11.5673 -6.24953,2.3355 -27.77408,8.9054 -33.04519,10.0863 -2.35103,0.5267 -2.75,1.1178 -2.75,4.074 0,5.199904 -2.65985,6.416904 -15.64831,7.160104 -11.8319,0.677 -15.35169,-0.1693 -15.35169,-3.6912 0,-2.409804 -0.0624,-2.411304 -21.82306,-0.5005 -9.17232,0.8055 -20.16444,1.7439 -24.42694,2.0854 l -7.75,0.6209 0,8.7897 c 0,4.8343 -0.28125,10.1959 -0.625,11.9146 l -0.625,3.125 -20.875,0 c -17.88889,0 -20.875,0.2146 -20.875,1.5 0,1.0834 -1.11111,1.5 -4,1.5 -3.6,0 -4,-0.25 -4,-2.5 z"
         id="path3051"
         inkscape:connector-curvature="0"
         sodipodi:nodetypes="ssscscscscscsscssssssccccccsscscssccscscsssssssssscsssssscssscsscssscssssssssssssssscscssscccscssssscsssssssssssscsssscssscsssscssssssscsscssscscscsssscsssccccccscscsssssssscssssscssssscsssscscssscsscccscscccsscscccccsssscscscscscsscsscssscccccccscsscssssssscsscsssss" />
    </g>
  </g>
</svg>
