<?xml version="1.0" encoding="UTF-8" standalone="no"?>
<svg
   xmlns:dc="http://purl.org/dc/elements/1.1/"
   xmlns:cc="http://creativecommons.org/ns#"
   xmlns:rdf="http://www.w3.org/1999/02/22-rdf-syntax-ns#"
   xmlns:svg="http://www.w3.org/2000/svg"
   xmlns="http://www.w3.org/2000/svg"
   version="1.1"
   id="svg2"
   viewBox="0 0 23.499745 8.4571189"
   width="70.499235">
  <defs
     id="defs4" />
  <metadata
     id="metadata7">
    <rdf:RDF>
      <cc:Work
         rdf:about="">
        <dc:format>image/svg+xml</dc:format>
        <dc:type
           rdf:resource="http://purl.org/dc/dcmitype/StillImage" />
        <dc:title></dc:title>
      </cc:Work>
    </rdf:RDF>
  </metadata>
  <g
     transform="translate(671.15756,-900.28389)"
     id="layer1">
    <g
       transform="translate(-1176.3799,-745.72869)"
       id="g3347">
      <path
         id="path3351"
         d="m 518.3898,1654.4697 c -0.0967,-0.01 -0.22138,-0.028 -0.31013,-0.057 -0.16263,-0.053 -0.24748,-0.1139 -0.52751,-0.382 -0.027,-0.026 -0.12316,-0.02 -0.16091,0.01 -0.0315,0.025 -0.0524,0.026 -0.50413,0.026 -0.40315,0 -0.4736,0 -0.48736,0.019 -0.0131,0.016 -0.0552,0.019 -0.22614,0.019 -0.17096,0 -0.21305,0 -0.22614,-0.019 -0.009,-0.01 -0.0263,-0.019 -0.0388,-0.019 -0.0125,0 -0.0292,-0.01 -0.0372,-0.017 -0.009,-0.011 -0.0547,-0.021 -0.11465,-0.025 -0.10218,-0.01 -0.79472,-0.1639 -0.84338,-0.1899 -0.0388,-0.021 -0.0514,-0.065 -0.0514,-0.1817 0,-0.1218 0.009,-0.1183 -0.18234,-0.07 -0.12342,0.031 -0.16605,0.037 -0.41106,0.056 -0.11771,0.01 -0.14252,0.026 -0.0826,0.058 0.0264,0.014 0.031,0.021 0.017,0.026 -0.0475,0.016 -0.10326,0.025 -0.18567,0.03 -0.0554,0 -0.10395,0.015 -0.12922,0.031 -0.0369,0.023 -0.0686,0.025 -0.36353,0.025 -0.17768,10e-5 -0.42483,0.01 -0.5492,0.019 -0.29933,0.025 -0.38277,0.025 -0.39235,0 -0.0129,-0.034 -0.0696,-0.023 -0.10074,0.019 -0.0244,0.033 -0.0373,0.039 -0.0862,0.039 -0.0493,0 -0.0657,0.01 -0.11484,0.053 -0.0475,0.044 -0.0633,0.051 -0.0919,0.044 -0.0495,-0.012 -0.0781,-0.043 -0.0874,-0.092 -0.0112,-0.06 10e-4,-0.099 0.0362,-0.1146 0.023,-0.01 0.0305,-0.025 0.0336,-0.067 0.004,-0.059 0.0117,-0.053 -0.0976,-0.075 -0.0195,0 -0.0535,-0.028 -0.0754,-0.054 -0.0275,-0.032 -0.0465,-0.044 -0.0614,-0.039 -0.0183,0.01 -0.0215,0.03 -0.0215,0.1494 0,0.1384 -6e-4,0.1414 -0.0343,0.1635 -0.0269,0.018 -0.0503,0.021 -0.10842,0.015 -0.0664,-0.01 -0.0748,-0.01 -0.0807,0.018 -0.009,0.033 -0.0302,0.033 -0.0479,0 -0.0132,-0.025 -0.0271,-0.026 -0.30368,-0.026 -0.27661,0 -0.29047,0 -0.30367,0.026 -0.0176,0.033 -0.0393,0.033 -0.0479,0 -0.006,-0.023 -0.0144,-0.025 -0.0807,-0.018 -0.0581,0.01 -0.0815,0 -0.10842,-0.015 -0.0337,-0.022 -0.0343,-0.025 -0.0343,-0.1616 0,-0.109 0.004,-0.1426 0.0198,-0.1554 0.0169,-0.014 0.0189,-0.053 0.014,-0.2697 l -0.006,-0.2534 -0.0431,0 -0.0431,0 -0.0104,0.5101 c -0.006,0.2806 -0.0124,0.5121 -0.0148,0.5145 -0.002,0 -0.1373,0.013 -0.29972,0.022 -0.16243,0.01 -0.33748,0.021 -0.38901,0.026 -0.0886,0.01 -0.0937,0.01 -0.0937,-0.019 0,-0.036 -0.0299,-0.045 -0.0668,-0.021 -0.0166,0.011 -0.0708,0.024 -0.12058,0.029 -0.0498,0 -0.1003,0.014 -0.11234,0.02 -0.0169,0.01 -0.0258,0 -0.0389,-0.024 l -0.0171,-0.036 -0.49733,0 c -0.27354,0 -0.51043,0 -0.52642,0 -0.0219,0.01 -0.0291,0.016 -0.0291,0.045 0,0.044 -0.0242,0.065 -0.0411,0.035 -0.0164,-0.029 -0.037,-0.026 -0.0881,0.011 -0.0414,0.031 -0.0529,0.032 -0.21148,0.032 -0.13618,0 -0.17202,0 -0.19074,0.021 -0.0189,0.017 -0.0304,0.018 -0.0643,0.01 -0.0545,-0.019 -0.34482,-0.019 -0.39985,0 -0.0343,0.012 -0.0444,0.012 -0.0488,0 -0.0134,-0.04 -0.0582,-0.063 -0.17794,-0.09 -0.0704,-0.016 -0.1336,-0.034 -0.14035,-0.041 -0.007,-0.01 -0.0803,-0.012 -0.16347,-0.012 -0.16967,0 -0.36387,-0.029 -0.635,-0.093 -0.16644,-0.04 -0.17757,-0.044 -0.17769,-0.073 -1.3e-4,-0.033 -0.0115,-0.033 0.13533,-0.01 0.0353,0.01 0.0468,0 0.0534,-0.014 0.0121,-0.032 -0.006,-0.044 -0.0995,-0.069 l -0.0829,-0.022 -0.003,-0.2544 -0.003,-0.2544 0.094,0 0.094,0 0.004,-0.083 c 0.002,-0.045 -0.001,-0.088 -0.008,-0.094 -0.006,-0.01 -0.0488,-0.016 -0.0944,-0.021 l -0.0828,-0.01 0,-0.3554 0,-0.3554 0.0801,-0.01 c 0.0441,0 0.0865,-0.013 0.0944,-0.021 0.008,-0.01 0.0126,-0.049 0.0103,-0.097 l -0.004,-0.083 -0.094,0 -0.094,0 0.004,-0.2547 0.003,-0.2547 0.0828,-0.02 c 0.0856,-0.021 0.12288,-0.052 0.0958,-0.079 -0.0108,-0.011 -0.032,-0.011 -0.0811,0 -0.0947,0.02 -0.10647,0.019 -0.10166,-0.013 0.003,-0.022 0.0216,-0.032 0.0946,-0.051 0.2455,-0.065 0.47386,-0.1028 0.69134,-0.1147 0.21841,-0.012 0.44355,-0.062 0.48139,-0.1059 0.0214,-0.025 0.0365,-0.026 0.27572,-0.026 0.1687,0 0.25787,0 0.26746,0.014 0.0194,0.019 0.0899,0.018 0.11466,0 0.0337,-0.027 0.0884,-0.1079 0.0884,-0.1302 0,-0.019 -0.0318,-0.021 -0.29368,-0.025 l -0.29368,0 -0.0115,-0.039 c -0.0214,-0.072 -0.0277,-0.077 -0.0962,-0.081 -0.0553,0 -0.068,3e-4 -0.0799,0.023 -0.0153,0.029 -0.0514,0.035 -0.0734,0.013 -0.0153,-0.015 -0.3492,-0.01 -0.40829,0.01 -0.0304,0.01 -0.0355,0.01 -0.0355,-0.017 0,-0.047 -0.0341,-0.063 -0.21594,-0.106 -0.098,-0.023 -0.18692,-0.049 -0.19758,-0.058 -0.0136,-0.012 -0.10608,-0.018 -0.31014,-0.024 -0.28414,-0.01 -0.50538,-0.026 -0.77208,-0.066 -0.0728,-0.011 -0.13816,-0.02 -0.14532,-0.02 -0.007,0 -0.013,-0.023 -0.013,-0.052 0,-0.06 -0.0103,-0.057 0.15913,-0.036 0.13343,0.016 0.15061,0.012 0.15061,-0.041 0,-0.04 -0.024,-0.053 -0.1362,-0.072 -0.0635,-0.011 -0.12847,-0.022 -0.14447,-0.026 l -0.0291,-0.01 0,-0.4068 0,-0.4068 0.0765,0 c 0.12083,0 0.11736,0 0.11736,-0.156 0,-0.1597 -0.005,-0.1669 -0.10576,-0.1673 -0.0307,-10e-5 -0.0631,0 -0.0721,-0.01 -0.0128,-0.01 -0.0156,-0.1324 -0.0129,-0.5778 l 0.003,-0.5674 0.0646,-0.01 c 0.13618,-0.021 0.12408,0 0.11995,-0.1685 l -0.004,-0.145 -0.0904,-0.01 -0.0905,-0.01 -0.003,-0.404 -0.003,-0.4041 0.0292,-0.011 c 0.0161,-0.01 0.0776,-0.018 0.13665,-0.027 0.1095,-0.017 0.1446,-0.035 0.1446,-0.077 0,-0.044 -0.029,-0.054 -0.12431,-0.04 -0.0489,0.01 -0.11072,0.013 -0.13737,0.013 -0.0475,3e-4 -0.0485,0 -0.0485,-0.049 l 0,-0.049 0.11954,-0.016 c 0.3342,-0.045 0.59974,-0.066 0.8357,-0.066 0.20947,-10e-5 0.25467,0 0.27333,-0.02 0.0123,-0.011 0.0593,-0.029 0.10439,-0.039 0.15573,-0.035 0.28421,-0.072 0.30495,-0.087 0.009,-0.01 0.0161,-0.023 0.0161,-0.037 0,-0.034 0.0273,-0.041 0.0719,-0.018 0.0542,0.028 0.31449,0.028 0.36939,0 0.0372,-0.019 0.0411,-0.019 0.068,0.01 0.0202,0.019 0.0456,0.027 0.0865,0.027 0.0643,0 0.089,-0.017 0.089,-0.06 0,-0.07 -0.006,-0.069 0.60504,-0.069 0.31044,10e-5 0.5768,0 0.5919,0.01 0.0197,0.01 0.0307,0.023 0.0388,0.061 0.01,0.046 0.0164,0.054 0.0482,0.058 0.0247,0 0.0471,-0.01 0.0677,-0.025 0.0287,-0.027 0.0324,-0.027 0.0542,-0.01 0.0407,0.037 0.14492,0.087 0.18147,0.087 0.0213,0 0.0631,-0.021 0.10593,-0.054 0.0989,-0.075 0.23518,-0.135 0.34457,-0.1518 0.14623,-0.022 0.19651,-0.019 0.25032,0.019 0.045,0.031 0.0517,0.032 0.12992,0.02 0.051,-0.01 0.41372,-0.014 0.94954,-0.014 0.84843,-10e-5 0.86769,0 0.89685,-0.026 0.0236,-0.02 0.0483,-0.026 0.11869,-0.026 0.066,0 0.0908,0 0.0961,-0.019 0.0108,-0.028 -0.0197,-0.1087 -0.0465,-0.1231 -0.0129,-0.01 -0.0297,-0.031 -0.0375,-0.053 -0.032,-0.092 0.0645,-0.184 0.1379,-0.1317 0.065,0.046 0.0881,0.055 0.15201,0.055 0.0576,2e-4 0.0688,0 0.0941,0.039 0.0336,0.045 0.0607,0.049 0.0994,0.013 0.0277,-0.026 0.0297,-0.026 0.26574,0 0.13079,0.012 0.40922,0.024 0.61872,0.027 0.31968,0.01 0.38721,0.01 0.41998,0.027 0.0215,0.012 0.0827,0.025 0.13597,0.03 0.12689,0.012 0.18172,0.024 0.21286,0.045 0.0203,0.014 0.11663,0.017 0.4749,0.017 0.33788,0 0.44941,0 0.44941,0.015 0,0.01 -0.0127,0.029 -0.0283,0.045 -0.0172,0.018 -0.0235,0.034 -0.0162,0.041 0.007,0.01 0.0674,0.023 0.13487,0.038 0.11408,0.024 2.17968,0.6514 2.22265,0.6747 0.0224,0.012 0.21968,0.4274 0.21968,0.4624 0,0.013 -0.007,0.03 -0.0155,0.039 -0.0316,0.032 -0.1487,0 1.44989,0.4352 0.35181,0.097 0.65235,0.1819 0.66786,0.1898 0.0155,0.01 0.0369,0.011 0.0475,0.01 0.034,-0.013 0.4473,0.1065 0.57039,0.165 0.16721,0.08 0.60164,0.3492 0.61918,0.3844 0.008,0.016 0.0261,0.032 0.0402,0.034 0.0233,0 0.2677,0.152 1.66011,1.0022 0.25226,0.1541 0.47323,0.2936 0.49105,0.31 0.0393,0.036 0.0862,0.049 0.11465,0.032 0.0148,-0.01 0.14674,0 0.4411,0.032 l 0.41998,0.045 0.0205,-0.026 c 0.0286,-0.037 0.0662,-0.026 0.0789,0.024 0.008,0.031 0.0225,0.045 0.0625,0.061 0.0286,0.012 0.0586,0.021 0.0668,0.021 0.0168,0 0.16463,0.056 0.22366,0.085 0.0526,0.026 1.482,0.3181 1.5656,0.3203 0.0548,0 0.0724,0.01 0.0995,0.037 0.0181,0.02 0.0436,0.036 0.0566,0.036 0.013,0 0.11361,0.056 0.22352,0.1241 0.10992,0.068 0.36557,0.2259 0.56813,0.3504 0.20256,0.1245 0.37992,0.2396 0.39413,0.2557 0.0142,0.016 0.20321,0.138 0.41998,0.2708 0.21678,0.1328 0.41158,0.2575 0.4329,0.2771 0.0213,0.02 0.0895,0.069 0.15158,0.1095 0.11196,0.073 0.23064,0.1946 0.27734,0.2835 0.0306,0.058 0.0319,0.2617 0.002,0.3076 -0.015,0.023 -0.0915,0.065 -0.25408,0.1399 -0.12791,0.059 -0.25905,0.1258 -0.29143,0.1488 -0.0324,0.023 -0.0846,0.052 -0.11611,0.064 -0.0487,0.019 -0.0585,0.028 -0.0655,0.066 -0.005,0.024 -0.0131,0.047 -0.0191,0.051 -0.0169,0.011 -0.25398,0.043 -0.38356,0.053 -0.0646,0 -0.12278,0.013 -0.12923,0.017 -0.006,0 -0.0207,0.026 -0.0316,0.047 l -0.0199,0.039 -0.24085,0 c -0.23194,0 -0.24116,0 -0.24914,-0.023 -0.008,-0.024 -0.0192,-0.026 -0.13619,-0.026 -0.0763,0 -0.15024,0.01 -0.18328,0.018 -0.0587,0.02 -0.14662,0.022 -0.70149,0.023 -0.33914,2e-4 -0.34185,0 -0.34224,0.059 l -2e-4,0.029 -0.29386,0 -0.29387,0 -0.007,-0.039 -0.007,-0.039 -0.22719,0 c -0.17101,0 -0.23236,0 -0.24808,0.017 -0.0157,0.013 -0.0218,0.045 -0.0246,0.1292 l -0.004,0.1119 -0.0494,0 c -0.0277,0 -0.0584,0 -0.0698,-0.013 -0.0129,-0.011 -0.0731,-0.019 -0.16386,-0.024 l -0.14342,-0.01 -0.006,-0.052 c -0.004,-0.034 -0.0137,-0.053 -0.0274,-0.056 -0.0115,0 -0.18596,0.028 -0.38767,0.067 -0.32813,0.063 -0.39104,0.072 -0.59756,0.079 l -0.23083,0.01 -0.14392,0.075 c -0.0792,0.042 -0.18172,0.088 -0.22792,0.1021 -0.0462,0.015 -0.48734,0.1238 -0.98032,0.2424 l -0.89633,0.2158 -0.11339,-0.056 c -0.0624,-0.031 -0.12166,-0.052 -0.13178,-0.048 -0.0101,0 -0.026,0.032 -0.0352,0.063 -0.0279,0.093 -0.0636,0.1514 -0.10774,0.1753 -0.035,0.019 -0.0823,0.023 -0.2874,0.026 -0.41451,0.01 -1.3793,0.01 -1.44084,0.01 z"
         style="fill:#000000;fill-opacity:1" />
    </g>
  </g>
</svg>
