<?xml version="1.0" encoding="UTF-8" standalone="no"?>
<svg
   xmlns:dc="http://purl.org/dc/elements/1.1/"
   xmlns:cc="http://creativecommons.org/ns#"
   xmlns:rdf="http://www.w3.org/1999/02/22-rdf-syntax-ns#"
   xmlns:svg="http://www.w3.org/2000/svg"
   xmlns="http://www.w3.org/2000/svg"
   version="1.1"
   id="svg2"
   viewBox="0 0 93.999999 21.501956"
   width="282">
  <defs
     id="defs4" />
  <metadata
     id="metadata7">
    <rdf:RDF>
      <cc:Work
         rdf:about="">
        <dc:format>image/svg+xml</dc:format>
        <dc:type
           rdf:resource="http://purl.org/dc/dcmitype/StillImage" />
        <dc:title></dc:title>
      </cc:Work>
    </rdf:RDF>
  </metadata>
  <g
     transform="translate(761.0863,-820.87493)"
     id="layer1">
    <g
       transform="matrix(0.04010994,0,0,0.04010994,-795.3366,751.35164)"
       id="g4147">
      <path
         id="path4149"
         d="m 1830.9068,2268.6413 -8.4375,-0.4373 0,-7.3989 c 0,-6.099 -0.4356,-7.6321 -2.4793,-8.7258 -2.0982,-1.1229 -163.4116,-0.9449 -237.5207,0.2621 -13.5699,0.221 -15.1102,-0.019 -27.5,-4.2846 -7.2188,-2.4854 -15.375,-4.8765 -18.125,-5.3136 -2.75,-0.4372 -12.602,-3.3016 -21.8933,-6.3655 l -16.8932,-5.5707 -22.6021,-22.8069 -22.6021,-22.8069 -4.0314,-19.375 c -8.097,-38.9145 -6.6775,-35.1045 -15.9964,-42.9366 -5.7168,-4.8047 -10.1544,-7.4213 -14.4551,-8.5236 -4.2013,-1.0767 -6.6069,-2.4706 -7.4473,-4.3151 -2.72,-5.9697 -8.0155,-6.8603 -37.8291,-6.3625 -26.6853,0.4456 -36.8289,1.5916 -39.7256,4.4883 -0.9134,0.9135 -8.1961,1.3995 -20.9697,1.3995 l -19.5702,0 -6.1173,-4.5862 c -3.3645,-2.5224 -6.2688,-4.6896 -6.4541,-4.8161 -0.1854,-0.1264 -0.4666,-12.6601 -0.625,-27.8525 -0.1714,-16.4296 -0.797,-28.131 -1.5439,-28.8772 -0.6906,-0.6899 -14.4719,-2.9743 -30.625,-5.0764 -16.153,-2.102 -30.6213,-4.1036 -32.1515,-4.448 -2.0964,-0.4717 -3.2533,-2.2462 -4.6927,-7.1976 -1.8218,-6.2668 -3.0972,-7.6265 -27.5099,-29.3298 -14.0797,-12.5171 -26.8742,-23.0285 -28.4323,-23.3586 -6.6378,-1.4063 -146.9794,-12.9247 -150.9578,-12.3896 -4.39723,0.5914 -148.70945,-11.6108 -149.7616,-12.6629 -0.30934,-0.3093 0.93828,-4.6112 2.77249,-9.5596 l 3.33492,-8.9971 -0.76756,-66.9867 c -0.47864,-41.7725 -0.31892,-67.6272 0.42435,-68.6884 1.00339,-1.4325 11.67182,-1.3028 67.45508,0.8201 l 66.26318,2.5217 107.95204,38.3657 107.9521,38.3657 51.25,1.7126 51.25,1.7126 5.625,-2.938 c 20.1158,-10.507 206.492,-113.5274 215.625,-119.1879 14.7363,-9.1334 15.1773,-9.5528 17.5488,-16.6928 l 2.0271,-6.103 7.712,0.016 c 4.2417,0.01 21.7374,0.5778 38.8795,1.2643 23.1784,0.9283 31.6692,1.6877 33.125,2.9629 2.5616,2.2439 15.5619,4.4123 18.0626,3.0128 1.2441,-0.6962 22.4001,3.1338 59.5458,10.7799 l 57.6161,11.8598 6.028,5.4198 c 5.8847,5.2908 7.416,5.856 64.351,23.7528 l 58.3228,18.333 7.569,-2.3557 7.569,-2.3557 172.852,19.8456 c 95.0686,10.9152 191.3446,22.0954 213.9466,24.8451 57.7754,7.0287 57.6667,7.018 129.8447,12.7279 l 65,5.142 60.625,-0.7903 c 60.5151,-0.7887 60.6963,-0.799 100,-5.636 52.6466,-6.4792 67.4209,-6.9964 110.0536,-3.8528 18.8767,1.3919 64.6964,4.7619 101.8214,7.4888 l 67.5,4.9581 61.875,11.8782 c 34.0313,6.533 70.4148,13.5391 80.8523,15.5691 l 18.9773,3.6908 28.5227,22.7554 c 36.2981,28.9585 74.1477,65.7002 74.1477,71.9773 0,3.2143 -0.6069,4.092 -3.2959,4.7669 -1.8126,0.455 -5.14,2.2338 -7.394,3.953 -3.47,2.6468 -14.7943,5.4009 -73.8916,17.9709 -59.8701,12.7344 -76.3695,15.7537 -116.0435,21.2355 -25.4375,3.5147 -159.1759,22.1314 -297.1964,41.3704 l -250.9464,34.98 -43.8582,21.8364 c -33.2454,16.5525 -44.5833,21.6545 -46.8545,21.0845 -2.127,-0.5339 -3.2289,-0.1457 -3.7984,1.3382 -0.4411,1.1497 -3.8341,3.8015 -7.5401,5.893 -3.7059,2.0915 -7.2877,4.8298 -7.9595,6.0852 -1.9655,3.6726 -1.4138,8.5044 1.2785,11.1967 2.2787,2.2788 2.5,4.1667 2.5,21.3322 0,10.3577 -0.567,19.8916 -1.2599,21.1864 -0.693,1.2948 -5.2505,5.4766 -10.1279,9.2928 l -8.8679,6.9386 -84.0515,0 -84.0516,0 -24.5611,3.75 c -13.5086,2.0625 -25.1083,3.75 -25.7771,3.75 -0.6688,0 -3.1295,1.6801 -5.4683,3.7336 l -4.2522,3.7335 -89.2288,0.372 -89.2287,0.3721 -12.9225,3.3944 c -12.2197,3.2098 -14.2933,3.3811 -38.125,3.1496 -13.8614,-0.1346 -28.9994,-0.4416 -33.64,-0.6821 z"
         style="fill:#000000" />
    </g>
  </g>
</svg>
