<?xml version="1.0" encoding="UTF-8" standalone="no"?>
<!-- Created with Inkscape (http://www.inkscape.org/) -->

<svg
   xmlns:dc="http://purl.org/dc/elements/1.1/"
   xmlns:cc="http://creativecommons.org/ns#"
   xmlns:rdf="http://www.w3.org/1999/02/22-rdf-syntax-ns#"
   xmlns:svg="http://www.w3.org/2000/svg"
   xmlns="http://www.w3.org/2000/svg"
   xmlns:sodipodi="http://sodipodi.sourceforge.net/DTD/sodipodi-0.dtd"
   xmlns:inkscape="http://www.inkscape.org/namespaces/inkscape"
   width="75.000076"
   height="15.666207"
   id="svg2"
   version="1.1"
   inkscape:version="0.48.5 r10040"
   sodipodi:docname="Hornet.svg">
  <defs
     id="defs4" />
  <sodipodi:namedview
     id="base"
     pagecolor="#ffffff"
     bordercolor="#666666"
     borderopacity="1.0"
     inkscape:pageopacity="0.0"
     inkscape:pageshadow="2"
     inkscape:zoom="11.2"
     inkscape:cx="33.270337"
     inkscape:cy="6.797775"
     inkscape:document-units="px"
     inkscape:current-layer="g2996"
     showgrid="false"
     fit-margin-top="0"
     fit-margin-left="0"
     fit-margin-right="0"
     fit-margin-bottom="0"
     inkscape:window-width="1920"
     inkscape:window-height="1018"
     inkscape:window-x="-8"
     inkscape:window-y="-8"
     inkscape:window-maximized="1" />
  <metadata
     id="metadata7">
    <rdf:RDF>
      <cc:Work
         rdf:about="">
        <dc:format>image/svg+xml</dc:format>
        <dc:type
           rdf:resource="http://purl.org/dc/dcmitype/StillImage" />
        <dc:title />
      </cc:Work>
    </rdf:RDF>
  </metadata>
  <g
     inkscape:label="Layer 1"
     inkscape:groupmode="layer"
     id="layer1"
     transform="translate(579.0141,-702.6329)">
    <g
       id="g2996"
       transform="translate(-1818.2746,767.71593)">
      <path
         style="fill:#000000;fill-opacity:1"
         d="m 1272.0706,-49.435872 c -0.5845,-0.02012 -1.171,-0.0502 -1.3033,-0.06684 -0.2095,-0.02634 -0.2391,-0.04058 -0.2283,-0.10983 0.01,-0.04376 0.04,-0.09761 0.073,-0.119672 0.1869,-0.122468 0.1831,-0.114124 0.1295,-0.286127 l -0.051,-0.162728 -0.3476,-0.04629 c -0.4548,-0.06056 -0.4519,-0.06079 -0.4271,0.03393 0.012,0.04411 0.01,0.08039 -0.01,0.08062 -0.014,2.41e-4 -1.0974,-0.146602 -2.4066,-0.326282 -2.2162,-0.304165 -2.3949,-0.323179 -2.5926,-0.275747 -0.2448,0.05872 -0.4145,0.0298 -0.5041,-0.08589 -0.09,-0.115816 -0.683,-0.159866 -0.7945,-0.05899 -0.1786,0.161641 -0.5159,0.14983 -0.6389,-0.02237 -0.07,-0.09792 -0.537,-0.103313 -0.7273,-0.0084 -0.154,0.07685 -0.4367,0.05351 -0.5064,-0.04181 -0.037,-0.05086 -0.2118,-0.07028 -0.9439,-0.104995 -0.8185,-0.03881 -0.9767,-0.05888 -1.7806,-0.225892 -0.4853,-0.100815 -0.8938,-0.201455 -0.9079,-0.223645 -0.014,-0.02219 -0.043,-0.02961 -0.064,-0.01648 -0.021,0.01312 -0.1488,0.0033 -0.2835,-0.02168 -0.2213,-0.04115 -0.2473,-0.05652 -0.2698,-0.159098 -0.024,-0.110287 -0.033,-0.113553 -0.2825,-0.113553 l -0.2575,0 0,-0.382694 c 0,-0.46466 -0.045,-0.54601 -0.2058,-0.373662 -0.09,0.09597 -0.1392,0.11467 -0.3036,0.11467 -0.108,0 -0.2169,-0.02044 -0.2418,-0.04541 -0.034,-0.03381 -0.1153,-0.0012 -0.3189,0.1276 -0.2036,0.128845 -0.3093,0.171117 -0.4138,0.165585 -0.078,-0.0041 -1.2291,-0.09914 -2.5597,-0.211225 -2.3815,-0.200608 -2.4222,-0.205468 -2.5956,-0.310672 l -0.1762,-0.106875 0,-1.084352 0,-1.084353 0.1906,-0.183491 0.1904,-0.183491 0.9224,-0.06989 c 0.5074,-0.03844 0.9315,-0.07529 0.9425,-0.08188 0.011,-0.0066 0.02,-0.672442 0.02,-1.479663 0,-0.807221 0.013,-1.467675 0.03,-1.467675 0.017,0 0.03,-0.03462 0.03,-0.07693 0,-0.143135 0.047,-0.201537 0.1843,-0.227232 0.075,-0.01408 0.1365,-0.03969 0.1365,-0.0569 0,-0.01722 0.047,-0.04315 0.105,-0.05764 0.057,-0.01449 0.097,-0.03391 0.088,-0.04313 -0.01,-0.0092 -2.2087,-0.39679 -4.8876,-0.861246 -2.6789,-0.464457 -4.8979,-0.856169 -4.931,-0.87047 -0.033,-0.0143 -0.096,-0.02859 -0.1403,-0.03176 -0.044,-0.0032 -0.3433,-0.06564 -0.6648,-0.138853 l -0.5845,-0.133101 -0.5584,-0.518134 c -0.3073,-0.284975 -0.8425,-0.764403 -1.1897,-1.065396 -0.6537,-0.56682 -0.6778,-0.59857 -0.7292,-0.962132 l -0.024,-0.170126 0.4115,-0.421341 0.4115,-0.421342 2.8676,0.321206 c 1.5771,0.176663 4.23,0.464556 5.8955,0.639761 1.6653,0.175206 3.2264,0.340788 3.469,0.36796 0.2427,0.02717 0.6127,0.05423 0.8222,0.06012 0.5463,0.01537 2.32,0.200118 2.3777,0.247674 0.08,0.06574 2.0354,0.260269 2.1322,0.212098 0.1177,-0.05859 0.4321,-0.139605 0.5051,-0.13018 0.034,0.0044 0.3229,-0.09265 0.6417,-0.215675 0.6361,-0.24544 0.6379,-0.245885 0.8417,-0.206607 0.1067,0.02058 0.1523,0.05561 0.185,0.142227 0.04,0.105151 0.063,0.116446 0.2794,0.132858 0.208,0.01581 0.2671,0.04153 0.4968,0.216327 0.1433,0.109115 0.4078,0.27484 0.5876,0.368279 l 0.327,0.169888 0.4846,0 c 0.2666,0 0.5635,-0.02111 0.66,-0.04689 0.1586,-0.04244 0.1894,-0.03822 0.323,0.04438 0.1017,0.06283 0.3191,0.120093 0.6975,0.183738 0.7927,0.133294 3.7853,0.436267 3.8686,0.391646 0.017,-0.0089 0.03,-0.229418 0.03,-0.490111 0,-0.357603 0.014,-0.485442 0.056,-0.520638 0.04,-0.03347 0.2869,-0.04149 0.8723,-0.02838 0.4489,0.01005 1.3666,0.02432 2.0393,0.03171 0.7186,0.0079 1.2507,0.02999 1.29,0.05354 0.037,0.02206 0.1475,0.116017 0.2464,0.208798 0.1376,0.129219 0.281,0.206074 0.6127,0.328439 0.4033,0.148703 0.5313,0.171014 0.477,0.08306 -0.013,-0.01974 0.055,-0.08501 0.1497,-0.145035 0.1682,-0.106758 0.318,-0.146994 0.7435,-0.199712 0.118,-0.01463 0.2105,-0.04653 0.2105,-0.07264 0,-0.163767 0.1034,-0.250057 0.4461,-0.372076 0.1933,-0.06885 0.357,-0.109819 0.3638,-0.09103 0.01,0.01879 0.076,0.02122 0.1526,0.0054 0.1189,-0.02436 0.1422,-0.04722 0.1523,-0.149348 0.01,-0.103943 -0.01,-0.130125 -0.133,-0.189725 -0.112,-0.05341 -0.1421,-0.08953 -0.1323,-0.158739 0.011,-0.07504 0.034,-0.08748 0.1431,-0.07654 l 0.1304,0.01305 0,-0.202138 c 0,-0.158802 0.017,-0.211039 0.078,-0.243655 0.043,-0.02284 0.3253,-0.04151 0.6283,-0.04151 l 0.5507,0 -0.1571,-0.142254 c -0.086,-0.07824 -0.2181,-0.169697 -0.2926,-0.203239 l -0.1355,-0.06099 0.027,-0.226361 c 0.015,-0.124498 0.046,-0.237996 0.068,-0.252216 0.023,-0.01422 0.038,-0.051 0.034,-0.08174 -0.01,-0.03074 -0.01,-0.09887 0,-0.151399 l 0.01,-0.09551 0.5514,0.03171 c 0.3033,0.01744 0.9252,0.03335 1.3819,0.03536 0.7812,0.0034 0.834,0.0084 0.891,0.08386 0.068,0.09014 0.087,0.501317 0.023,0.501317 -0.082,0 -0.038,0.151473 0.05,0.175248 0.1484,0.03976 0.5916,0.02866 0.5916,-0.01482 0,-0.02206 0.081,-0.04011 0.1805,-0.04011 0.099,0 0.1804,0.01586 0.1804,0.03524 0,0.01981 0.383,0.02611 0.8746,0.01439 0.9477,-0.02258 1.1707,0.0067 1.1707,0.154007 0,0.07298 0.036,0.0771 0.6699,0.0771 0.6957,0 1.1349,0.07329 1.1349,0.189364 0,0.03536 0.068,0.05139 0.2206,0.05166 2.5297,0.0045 4.1269,-0.0031 4.1435,-0.01966 0.012,-0.01146 0.098,-0.02084 0.1922,-0.02084 0.094,0 0.1826,-0.01805 0.1962,-0.0401 0.039,-0.06391 0.2457,-0.04642 0.3057,0.02593 0.05,0.05989 0.1959,0.06403 1.5714,0.04448 1.6758,-0.02381 1.5936,-0.0097 1.6486,-0.283299 0.021,-0.104806 0.034,-0.111765 0.193,-0.100264 l 0.1704,0.01236 -0.013,0.166368 c -0.01,0.0915 0.01,0.178292 0.031,0.192867 0.06,0.03682 0.058,1.290665 0,1.327518 -0.024,0.01492 -0.038,0.09711 -0.029,0.182708 0.014,0.148219 0.01,0.156767 -0.117,0.180326 -0.1552,0.02912 -0.2513,-0.03388 -0.2513,-0.164835 0,-0.187099 -0.033,-0.191547 -1.6293,-0.216803 -1.2362,-0.01956 -1.5139,-0.01415 -1.5506,0.03025 -0.034,0.04145 -0.1155,0.04754 -0.3475,0.02607 -0.1664,-0.0154 -0.3242,-0.04564 -0.3505,-0.06718 -0.076,-0.06229 -4.3525,-0.02657 -4.3735,0.03652 -0.01,0.02722 -0.1343,0.08587 -0.2782,0.130343 -0.216,0.0667 -0.3734,0.08086 -0.8993,0.08086 -0.6108,0 -0.6375,0.0033 -0.6375,0.08021 0,0.04411 -0.025,0.08021 -0.056,0.08021 -0.076,0 -0.2983,0.118468 -0.2352,0.125082 0.028,0.0029 0.072,0.0075 0.1003,0.01027 0.028,0.0027 0.056,0.04606 0.063,0.09624 0.01,0.05017 0.058,0.120798 0.1132,0.156944 0.1367,0.08951 0.5894,0.56408 0.6226,0.65268 0.016,0.04154 0.087,0.0829 0.1702,0.09848 0.1074,0.02015 0.1494,0.05149 0.1679,0.125374 0.013,0.05418 0.037,0.09851 0.053,0.09851 0.016,0 0.058,0.06317 0.095,0.140369 0.037,0.0772 0.085,0.140369 0.1069,0.140369 0.047,0 0.2019,0.289735 0.2019,0.375878 0,0.071 0.048,0.07881 1.1832,0.190381 0.8941,0.08792 0.9615,0.08645 1.4537,-0.03189 0.067,-0.01601 0.09,-0.0039 0.09,0.04615 0,0.03731 0.013,0.06164 0.03,0.05405 0.017,-0.0076 0.2509,-0.126406 0.5208,-0.264028 0.2699,-0.137622 0.5251,-0.250221 0.5672,-0.250221 0.048,0 0.086,-0.03716 0.1015,-0.100264 0.022,-0.08526 0.048,-0.100264 0.1799,-0.100264 0.2493,0 0.4144,0.04635 0.4342,0.121829 0.021,0.08081 0.1346,0.103214 0.7231,0.142754 l 0.411,0.02762 0,-0.241688 c 0,-0.216737 0.01,-0.244184 0.09,-0.26587 0.183,-0.04902 0.2289,-0.02545 0.3443,0.1766 0.1752,0.30665 0.3097,0.359106 0.9275,0.361745 1.6802,0.0072 11.2859,0.555263 11.6723,0.665999 0.1213,0.03477 0.9334,0.446995 1.8048,0.916053 0.8712,0.469058 1.9721,1.046443 2.4464,1.283076 0.4742,0.236633 0.8866,0.449962 0.9162,0.474065 0.03,0.0241 0.084,0.0485 0.1204,0.0542 0.037,0.0057 0.4904,0.170867 1.0087,0.367018 0.5184,0.19615 2.0139,0.733057 3.3232,1.193125 1.36,0.477803 2.3901,0.860551 2.4024,0.892606 0.039,0.102876 -0.1995,1.054592 -0.2847,1.134009 -0.062,0.05801 -0.069,0.08544 -0.032,0.130449 0.033,0.03941 0.044,0.234323 0.036,0.631813 l -0.011,0.574818 -0.4411,0.07078 c -0.2427,0.03893 -0.6939,0.118241 -1.0027,0.176253 l -0.5614,0.105475 -1.0055,0.534513 -1.0055,0.534515 -4.2282,0.219749 -4.2284,0.219749 -6.136,-0.01904 -6.1362,-0.01904 -0.4469,-0.467509 c -0.3504,-0.366581 -0.4587,-0.458044 -0.5013,-0.423667 -0.075,0.06024 -1.734,0.115925 -2.4407,0.08192 -0.078,-0.0037 -1.503,0.01783 -3.1683,0.04789 -2.6294,0.04745 -3.0426,0.06305 -3.1391,0.118514 -0.091,0.05257 -0.1254,0.05495 -0.1918,0.01345 -0.067,-0.04155 -0.1411,-0.03609 -0.4235,0.03097 -0.4254,0.10104 -0.5063,0.101509 -0.595,0.0034 -0.039,-0.04286 -0.1228,-0.08942 -0.1867,-0.10345 -0.096,-0.02104 -0.1161,-0.04604 -0.1161,-0.142643 l 0,-0.117129 -0.8395,0 c -0.9464,0 -0.9079,-0.01408 -0.8663,0.316888 0.019,0.152108 0.012,0.170063 -0.086,0.207225 -0.1223,0.04647 -1.5085,0.03097 -1.6429,-0.01837 -0.084,-0.03072 -0.085,-0.02421 -0.067,0.242692 0.016,0.226796 0.043,0.309464 0.1561,0.477717 0.1327,0.197759 0.1679,0.314194 0.1064,0.351434 -0.07,0.04245 -1.7155,0.05598 -2.697,0.02219 z"
         id="path3000"
         inkscape:connector-curvature="0" />
    </g>
  </g>
</svg>
