<?xml version="1.0" encoding="UTF-8" standalone="no"?>
<svg
   xmlns:dc="http://purl.org/dc/elements/1.1/"
   xmlns:cc="http://creativecommons.org/ns#"
   xmlns:rdf="http://www.w3.org/1999/02/22-rdf-syntax-ns#"
   xmlns:svg="http://www.w3.org/2000/svg"
   xmlns="http://www.w3.org/2000/svg"
   version="1.1"
   id="svg2"
   viewBox="0 0 22.505339 4.6998315"
   width="67.516017">
  <defs
     id="defs4" />
  <metadata
     id="metadata7">
    <rdf:RDF>
      <cc:Work
         rdf:about="">
        <dc:format>image/svg+xml</dc:format>
        <dc:type
           rdf:resource="http://purl.org/dc/dcmitype/StillImage" />
        <dc:title></dc:title>
      </cc:Work>
    </rdf:RDF>
  </metadata>
  <g
     transform="translate(579.0081,-713.59934)"
     id="layer1">
    <g
       transform="translate(-1818.2746,767.71593)"
       id="g2996">
      <path
         id="path3000"
         d="m 1249.1035,-49.422538 c -0.1753,-0.006 -0.3513,-0.01506 -0.391,-0.02005 -0.063,-0.0079 -0.072,-0.01217 -0.069,-0.03295 0,-0.01313 0.012,-0.02928 0.022,-0.0359 0.056,-0.03674 0.055,-0.03424 0.039,-0.08584 l -0.015,-0.04882 -0.1043,-0.01389 c -0.1364,-0.01817 -0.1356,-0.01824 -0.1281,0.01018 0,0.01323 0,0.02412 0,0.02419 0,7.2e-5 -0.3292,-0.04398 -0.722,-0.09788 -0.6649,-0.09125 -0.7185,-0.09695 -0.7778,-0.08272 -0.073,0.01762 -0.1243,0.0089 -0.1512,-0.02577 -0.027,-0.03475 -0.2049,-0.04796 -0.2384,-0.0177 -0.053,0.04849 -0.1547,0.04495 -0.1916,-0.0067 -0.021,-0.02938 -0.1611,-0.03099 -0.2182,-0.0025 -0.046,0.02305 -0.131,0.01605 -0.1519,-0.01254 -0.011,-0.01526 -0.064,-0.02108 -0.2832,-0.0315 -0.2456,-0.01164 -0.293,-0.01766 -0.5342,-0.06777 -0.1456,-0.03025 -0.2681,-0.06044 -0.2724,-0.06709 0,-0.0067 -0.013,-0.0089 -0.019,-0.0049 -0.01,0.0039 -0.045,9.9e-4 -0.085,-0.0065 -0.066,-0.01235 -0.074,-0.01696 -0.081,-0.04773 -0.01,-0.03309 -0.01,-0.03407 -0.085,-0.03407 l -0.077,0 0,-0.114808 c 0,-0.139398 -0.014,-0.163803 -0.062,-0.112099 -0.027,0.02879 -0.042,0.0344 -0.091,0.0344 -0.032,0 -0.065,-0.0061 -0.072,-0.01362 -0.01,-0.01014 -0.035,-3.6e-4 -0.096,0.03828 -0.061,0.03865 -0.093,0.05134 -0.1241,0.04968 -0.023,-0.0012 -0.3687,-0.02974 -0.7679,-0.06337 -0.7145,-0.06018 -0.7267,-0.06164 -0.7787,-0.0932 l -0.053,-0.03206 0,-0.325305 0,-0.325305 0.057,-0.05505 0.057,-0.05505 0.2768,-0.02097 c 0.1522,-0.01153 0.2794,-0.02259 0.2827,-0.02456 0,-0.002 0.01,-0.201732 0.01,-0.443898 0,-0.242166 0,-0.440302 0.01,-0.440302 0.01,0 0.01,-0.01039 0.01,-0.02308 0,-0.04294 0.014,-0.06046 0.055,-0.06817 0.023,-0.0042 0.041,-0.01191 0.041,-0.01707 0,-0.0052 0.014,-0.01294 0.032,-0.01729 0.017,-0.0043 0.029,-0.01017 0.026,-0.01294 0,-0.0028 -0.6626,-0.119037 -1.4662,-0.258373 -0.8037,-0.139337 -1.4694,-0.256851 -1.4793,-0.261141 -0.01,-0.0043 -0.029,-0.0086 -0.042,-0.0095 -0.013,-9.6e-4 -0.103,-0.01969 -0.1995,-0.04166 l -0.1753,-0.03993 -0.1675,-0.15544 c -0.092,-0.08549 -0.2528,-0.229321 -0.3569,-0.319619 -0.1962,-0.170046 -0.2034,-0.179571 -0.2188,-0.288639 l -0.01,-0.05104 0.1234,-0.126402 0.1235,-0.126403 0.8603,0.09636 c 0.4731,0.053 1.269,0.139367 1.7686,0.191928 0.4996,0.05256 0.9679,0.102237 1.0407,0.110388 0.073,0.0082 0.1838,0.01627 0.2467,0.01804 0.1639,0.0046 0.696,0.06004 0.7133,0.0743 0.024,0.01972 0.6106,0.07808 0.6397,0.06363 0.035,-0.01758 0.1296,-0.04188 0.1515,-0.03905 0.01,0.0013 0.097,-0.02779 0.1925,-0.0647 0.1908,-0.07363 0.1914,-0.07377 0.2525,-0.06198 0.032,0.0062 0.046,0.01668 0.055,0.04267 0.012,0.03155 0.019,0.03493 0.084,0.03986 0.062,0.0047 0.08,0.01246 0.1491,0.0649 0.043,0.03273 0.1223,0.08245 0.1762,0.110483 l 0.098,0.05097 0.1454,0 c 0.08,0 0.1691,-0.0063 0.198,-0.01407 0.048,-0.01273 0.057,-0.01147 0.097,0.01331 0.031,0.01885 0.096,0.03603 0.2093,0.05512 0.2378,0.03999 1.1356,0.13088 1.1606,0.117494 0.01,-0.0027 0.01,-0.06883 0.01,-0.147034 0,-0.10728 0,-0.145632 0.017,-0.156191 0.012,-0.01004 0.086,-0.01245 0.2616,-0.0085 0.1347,0.003 0.41,0.0073 0.6118,0.0095 0.2156,0.0024 0.3752,0.009 0.387,0.01606 0.011,0.0066 0.044,0.0348 0.074,0.06264 0.041,0.03877 0.084,0.06182 0.1838,0.09853 0.1209,0.04461 0.1593,0.0513 0.1431,0.02492 0,-0.0059 0.016,-0.0255 0.045,-0.04351 0.05,-0.03203 0.095,-0.0441 0.223,-0.05991 0.035,-0.0044 0.063,-0.01396 0.063,-0.02179 0,-0.04913 0.031,-0.07502 0.1338,-0.111623 0.058,-0.02066 0.1071,-0.03295 0.1091,-0.02731 0,0.0056 0.023,0.0064 0.046,0.0016 0.036,-0.0073 0.043,-0.01417 0.046,-0.0448 0,-0.03118 0,-0.03904 -0.04,-0.05692 -0.034,-0.01602 -0.043,-0.02686 -0.04,-0.04762 0,-0.02251 0.01,-0.02624 0.043,-0.02296 l 0.039,0.0039 0,-0.06064 c 0,-0.04764 0.01,-0.06331 0.023,-0.0731 0.013,-0.0069 0.098,-0.01245 0.1885,-0.01245 l 0.1652,0 -0.047,-0.04268 c -0.026,-0.02347 -0.065,-0.05091 -0.088,-0.06097 l -0.041,-0.0183 0.01,-0.06791 c 0,-0.03735 0.014,-0.0714 0.02,-0.07566 0.01,-0.0043 0.011,-0.0153 0.01,-0.02452 0,-0.0092 0,-0.02966 0,-0.04542 l 0,-0.02865 0.1654,0.0095 c 0.091,0.0052 0.2776,0.01 0.4146,0.01061 0.2344,10e-4 0.2502,0.0025 0.2673,0.02516 0.02,0.02704 0.026,0.150395 0.01,0.150395 -0.025,0 -0.011,0.04544 0.015,0.05257 0.044,0.01193 0.1775,0.0086 0.1775,-0.0044 0,-0.0066 0.024,-0.01203 0.054,-0.01203 0.03,0 0.054,0.0048 0.054,0.01057 0,0.0059 0.1149,0.0078 0.2624,0.0043 0.2843,-0.0068 0.3512,0.002 0.3512,0.0462 0,0.02189 0.011,0.02313 0.201,0.02313 0.2087,0 0.3405,0.02199 0.3405,0.05681 0,0.01061 0.02,0.01542 0.066,0.0155 0.7589,0.0013 1.238,-9.3e-4 1.243,-0.0059 0,-0.0034 0.029,-0.0063 0.058,-0.0063 0.028,0 0.055,-0.0054 0.059,-0.01203 0.012,-0.01917 0.074,-0.01393 0.092,0.0078 0.015,0.01797 0.059,0.01921 0.4715,0.01334 0.5027,-0.0071 0.478,-0.0029 0.4945,-0.08499 0.01,-0.03144 0.01,-0.03353 0.058,-0.03008 l 0.051,0.0037 0,0.04991 c 0,0.02745 0,0.05349 0.01,0.05786 0.018,0.01105 0.017,0.387199 0,0.398255 -0.01,0.0045 -0.011,0.02913 -0.01,0.05481 0,0.04447 0,0.04703 -0.035,0.0541 -0.047,0.0087 -0.075,-0.01016 -0.075,-0.04945 0,-0.05613 -0.01,-0.05746 -0.4888,-0.06504 -0.3709,-0.0059 -0.4542,-0.0042 -0.4652,0.0091 -0.01,0.01243 -0.035,0.01426 -0.1043,0.0078 -0.05,-0.0046 -0.097,-0.01369 -0.1051,-0.02015 -0.023,-0.01869 -1.3058,-0.008 -1.3121,0.01096 0,0.0082 -0.04,0.02576 -0.083,0.0391 -0.065,0.02001 -0.112,0.02426 -0.2698,0.02426 -0.1832,0 -0.1913,9.9e-4 -0.1913,0.02406 0,0.01323 -0.01,0.02406 -0.017,0.02406 -0.023,0 -0.089,0.03554 -0.071,0.03752 0.01,8.7e-4 0.022,0.0023 0.03,0.0031 0.01,8.1e-4 0.017,0.01382 0.019,0.02887 0,0.01505 0.017,0.03624 0.034,0.04708 0.041,0.02685 0.1769,0.169224 0.1868,0.195804 0,0.01246 0.026,0.02487 0.051,0.02954 0.032,0.006 0.045,0.01545 0.05,0.03761 0,0.01625 0.011,0.02955 0.016,0.02955 0,0 0.017,0.01895 0.028,0.04211 0.011,0.02316 0.025,0.04211 0.032,0.04211 0.014,0 0.061,0.08692 0.061,0.112764 0,0.0213 0.014,0.02364 0.3549,0.05711 0.2683,0.02638 0.2885,0.02594 0.4362,-0.0096 0.02,-0.0048 0.027,-0.0012 0.027,0.01384 0,0.01119 0,0.01849 0.01,0.01622 0.01,-0.0023 0.075,-0.03792 0.1562,-0.07921 0.081,-0.04129 0.1575,-0.07507 0.1702,-0.07507 0.014,0 0.026,-0.01115 0.03,-0.03008 0.01,-0.02558 0.014,-0.03008 0.054,-0.03008 0.075,0 0.1243,0.01391 0.1302,0.03655 0.01,0.02424 0.04,0.03096 0.217,0.04283 l 0.1233,0.0083 0,-0.07251 c 0,-0.06502 0,-0.07326 0.027,-0.07976 0.055,-0.01471 0.069,-0.0076 0.1033,0.05298 0.053,0.09199 0.093,0.107731 0.2782,0.108523 0.5041,0.0022 3.3858,0.166579 3.5017,0.1998 0.036,0.01043 0.28,0.134098 0.5414,0.274815 0.2614,0.140717 0.5917,0.313933 0.734,0.384923 0.1422,0.07099 0.2659,0.134988 0.2748,0.142219 0.01,0.0072 0.025,0.01455 0.036,0.01626 0.011,0.0017 0.1471,0.05126 0.3026,0.110105 0.1556,0.05884 0.6042,0.219917 0.997,0.357937 0.408,0.143341 0.717,0.258165 0.7207,0.267782 0.012,0.03086 -0.06,0.316377 -0.085,0.340202 -0.019,0.0174 -0.021,0.02563 -0.01,0.03914 0.01,0.01182 0.013,0.0703 0.011,0.189544 l 0,0.172445 -0.1323,0.02123 c -0.073,0.01168 -0.2082,0.03547 -0.3008,0.05288 l -0.1685,0.03164 -0.3016,0.160354 -0.3017,0.160354 -1.2684,0.06593 -1.2685,0.06592 -1.8408,-0.0057 -1.8409,-0.0057 -0.1341,-0.140252 c -0.1051,-0.109974 -0.1376,-0.137413 -0.1503,-0.1271 -0.023,0.01807 -0.5202,0.03478 -0.7323,0.02458 -0.023,-0.0011 -0.4509,0.0053 -0.9504,0.01437 -0.7889,0.01423 -0.9128,0.01891 -0.9418,0.03555 -0.027,0.01577 -0.038,0.01648 -0.058,0.004 -0.02,-0.01246 -0.042,-0.01083 -0.1271,0.0093 -0.1276,0.03031 -0.1519,0.03045 -0.1785,0.001 -0.012,-0.01286 -0.037,-0.02683 -0.056,-0.03103 -0.029,-0.0063 -0.035,-0.01381 -0.035,-0.04279 l 0,-0.03514 -0.2519,0 c -0.2839,0 -0.2723,-0.0042 -0.2598,0.09507 0.01,0.04563 0,0.05102 -0.026,0.06217 -0.037,0.01394 -0.4526,0.0093 -0.4929,-0.0055 -0.025,-0.0092 -0.025,-0.0073 -0.02,0.07281 0,0.06804 0.013,0.09284 0.047,0.143315 0.04,0.05933 0.05,0.09426 0.032,0.10543 -0.021,0.01274 -0.5146,0.01679 -0.8091,0.0067 z"
         style="fill:#000000;fill-opacity:1" />
    </g>
  </g>
</svg>
