<?xml version="1.0" encoding="UTF-8" standalone="no"?>
<!-- Created with Inkscape (http://www.inkscape.org/) -->

<svg
   xmlns:dc="http://purl.org/dc/elements/1.1/"
   xmlns:cc="http://creativecommons.org/ns#"
   xmlns:rdf="http://www.w3.org/1999/02/22-rdf-syntax-ns#"
   xmlns:svg="http://www.w3.org/2000/svg"
   xmlns="http://www.w3.org/2000/svg"
   xmlns:sodipodi="http://sodipodi.sourceforge.net/DTD/sodipodi-0.dtd"
   xmlns:inkscape="http://www.inkscape.org/namespaces/inkscape"
   width="166.06445"
   height="61.038898"
   id="svg4495"
   version="1.1"
   inkscape:version="0.48.5 r10040"
   sodipodi:docname="Hull-B.svg">
  <defs
     id="defs4497" />
  <sodipodi:namedview
     id="base"
     pagecolor="#ffffff"
     bordercolor="#666666"
     borderopacity="1.0"
     inkscape:pageopacity="0.0"
     inkscape:pageshadow="2"
     inkscape:zoom="3.959798"
     inkscape:cx="76.772441"
     inkscape:cy="42.471333"
     inkscape:document-units="px"
     inkscape:current-layer="g4514"
     showgrid="false"
     fit-margin-top="0"
     fit-margin-left="0"
     fit-margin-right="0"
     fit-margin-bottom="0"
     inkscape:window-width="1920"
     inkscape:window-height="1018"
     inkscape:window-x="-8"
     inkscape:window-y="-8"
     inkscape:window-maximized="1"
     showguides="true"
     inkscape:guide-bbox="true" />
  <metadata
     id="metadata4500">
    <rdf:RDF>
      <cc:Work
         rdf:about="">
        <dc:format>image/svg+xml</dc:format>
        <dc:type
           rdf:resource="http://purl.org/dc/dcmitype/StillImage" />
        <dc:title />
      </cc:Work>
    </rdf:RDF>
  </metadata>
  <g
     inkscape:label="Layer 1"
     inkscape:groupmode="layer"
     id="layer1"
     transform="translate(441.21952,-802.27119)">
    <g
       id="g4514"
       transform="translate(-440,-214.28571)">
      <path
         style="fill:#000000"
         d="m 56.348744,1077.5168 c 0,-0.041 0.04927,-0.1222 0.10948,-0.1824 0.08515,-0.085 0.05639,-0.1095 -0.129388,-0.1095 -0.507075,0 -0.711345,-0.2601 -0.354319,-0.4512 0.111852,-0.06 2.276361,-0.094 6.112639,-0.099 l 5.939466,-0.01 0,-0.4504 0,-0.4504 -1.66501,-0.025 -1.665009,-0.024 -0.02887,-0.2509 c -0.02188,-0.1902 -0.07816,-0.2509 -0.232646,-0.2509 -0.246086,0 -0.422737,-0.1601 -0.422737,-0.3832 0,-0.09 -0.05443,-0.1643 -0.120947,-0.1643 -0.06652,0 -0.21737,-0.1025 -0.33522,-0.228 -0.117851,-0.1255 -0.302074,-0.2281 -0.409384,-0.2281 -0.107312,0 -0.315695,-0.1257 -0.463073,-0.2794 l -0.267961,-0.2796 -0.02697,-2.4526 -0.02697,-2.4526 0.334096,-0.3698 c 0.183753,-0.2035 0.405066,-0.3699 0.491806,-0.3699 0.08674,0 0.23202,-0.082 0.322842,-0.1824 0.09083,-0.1006 0.236089,-0.1825 0.322816,-0.1825 0.08673,0 0.177819,-0.077 0.202426,-0.171 0.0386,-0.1476 0.168465,-0.1789 0.945782,-0.2276 0.495575,-0.032 1.055002,-0.055 1.24317,-0.053 0.331513,0 0.342126,-0.01 0.342126,-0.3198 0,-0.322 0.0012,-0.323 0.41055,-0.323 0.408377,0 0.41055,0 0.41055,0.3194 l 0,0.3192 0.5474,0 0.547401,0 0,-1.1774 0,-1.1775 -0.221009,0.1043 c -0.127403,0.06 -0.24236,0.211 -0.27142,0.3564 -0.04142,0.207 -0.09856,0.252 -0.320331,0.252 -0.226638,0 -0.27455,0.041 -0.298789,0.251 l -0.02887,0.2508 -0.957951,0.057 c -0.526873,0.031 -1.50193,0.063 -2.166793,0.068 -1.095699,0.01 -1.225922,-0.01 -1.39131,-0.1714 -0.100355,-0.1005 -0.182467,-0.2563 -0.182467,-0.3467 0,-0.09 -0.04463,-0.2087 -0.09919,-0.2633 -0.07142,-0.072 -0.07142,-0.1164 0,-0.1605 0.175422,-0.1084 0.108968,-0.557 -0.113479,-0.7659 -0.205886,-0.1934 -0.217503,-0.1944 -0.364547,-0.033 -0.109746,0.1213 -0.145713,0.3051 -0.129643,0.6628 0.01773,0.3945 -0.02066,0.5553 -0.189065,0.7916 l -0.211309,0.2965 -1.248247,-0.011 c -0.686536,-0.01 -1.679325,-0.037 -2.206198,-0.068 -0.95555,-0.057 -0.958022,-0.058 -0.986286,-0.3026 -0.0219,-0.1895 -0.08407,-0.2518 -0.2737,-0.2736 -0.191174,-0.022 -0.251741,-0.083 -0.274234,-0.2793 -0.01929,-0.1676 -0.0821,-0.2508 -0.189372,-0.2508 -0.08828,0 -0.256925,-0.1027 -0.374776,-0.2282 -0.117851,-0.1254 -0.284974,-0.228 -0.371386,-0.228 -0.08642,0 -0.284531,-0.1452 -0.440265,-0.3225 l -0.283151,-0.3225 0,-1.9128 0,-1.9127 -0.366323,-0.3663 c -0.392904,-0.3928 -0.415366,-0.6019 -0.116113,-1.0805 0.105186,-0.1681 0.157487,-0.1904 0.240039,-0.1025 0.08012,0.085 0.07807,0.1225 -0.0085,0.1542 -0.169513,0.062 -0.138962,0.4789 0.04015,0.5477 0.0897,0.034 0.170428,0.01 0.193016,-0.057 0.0802,-0.2405 0.590654,-0.7374 0.757653,-0.7374 0.09549,0 0.262861,-0.1027 0.371935,-0.228 0.109074,-0.1255 0.273023,-0.2281 0.364331,-0.2281 0.0913,0 0.166014,-0.017 0.166014,-0.038 0,-0.021 0.02492,-0.103 0.05537,-0.1824 0.03864,-0.1006 0.0024,-0.1444 -0.119782,-0.1444 -0.09634,0 -0.282262,-0.1128 -0.413166,-0.2508 -0.194862,-0.2055 -0.247206,-0.3666 -0.288761,-0.8896 -0.134899,-1.6973 -0.148728,-1.7665 -0.359114,-1.7965 -0.182089,-0.026 -0.200987,-0.093 -0.243057,-0.8648 -0.02509,-0.4602 -0.0802,-0.8707 -0.122472,-0.9124 -0.04228,-0.042 -0.24603,-0.076 -0.452799,-0.076 -0.363383,0 -0.3769,-0.011 -0.404529,-0.3194 -0.01572,-0.1756 -0.0049,-0.4166 0.02399,-0.5358 0.04605,-0.1895 0.09166,-0.2101 0.367341,-0.1654 l 0.314769,0.052 0,-0.4049 c 0,-0.4018 -0.0023,-0.4048 -0.319317,-0.4048 -0.249553,0 -0.319317,0.037 -0.319317,0.1685 0,0.2006 -0.274876,0.4702 -0.479537,0.4702 -0.08022,0 -0.226588,-0.1027 -0.325264,-0.2281 -0.102979,-0.1309 -0.273372,-0.2281 -0.399969,-0.2281 -0.121307,0 -0.308692,-0.082 -0.416414,-0.1825 -0.188426,-0.1755 -0.321963,-0.1824 -3.520677,-0.1824 l -3.324824,0 -0.188401,0.3193 c -0.154673,0.2622 -0.242188,0.3193 -0.488849,0.3193 -0.320973,0 -0.488962,0.172 -0.668195,0.6842 -0.06494,0.1857 -0.218042,0.3325 -0.475669,0.4562 -0.370006,0.1778 -0.379984,0.1944 -0.383204,0.6399 -0.0027,0.3884 0.02761,0.4708 0.201968,0.5474 0.153163,0.067 0.212679,0.1804 0.234438,0.4464 l 0.02917,0.3562 1.772697,-0.057 1.772696,-0.057 0,1.4221 0,1.4221 -1.779053,-0.037 -1.77905,-0.036 0,0.3471 c 0,0.2816 -0.04298,0.3666 -0.228085,0.4509 -0.222869,0.1016 -0.228083,0.1266 -0.228083,1.0928 l 0,0.9889 -3.694953,0 -3.694953,0 0,-0.228 c 0,-0.1254 -0.04105,-0.2281 -0.09123,-0.2281 -0.05018,0 -0.09123,0.042 -0.09123,0.091 0,0.051 -0.102637,0.091 -0.228083,0.091 -0.125445,0 -0.228083,-0.042 -0.228083,-0.091 0,-0.053 -0.304111,-0.091 -0.729868,-0.091 l -0.729867,0 0,0.5019 c 0,0.2759 -0.04105,0.5017 -0.09123,0.5017 -0.05018,0 -0.09123,0.062 -0.09123,0.1369 0,0.075 -0.04105,0.1367 -0.09123,0.1367 -0.05018,0 -0.09123,-0.042 -0.09123,-0.091 0,-0.051 -0.243289,-0.091 -0.5474,-0.091 -0.353082,0 -0.547401,0.037 -0.547401,0.1053 0,0.06 -0.07899,0.034 -0.182466,-0.06 -0.100354,-0.091 -0.182467,-0.2614 -0.182467,-0.3791 0,-0.136 -0.05361,-0.2139 -0.147206,-0.2139 -0.111666,0 -0.137506,-0.066 -0.107033,-0.2737 l 0.04017,-0.2738 -1.124616,0 c -0.688924,0 -1.124617,0.036 -1.124617,0.091 0,0.051 -0.123165,0.091 -0.2737,0.091 -0.150536,0 -0.273701,-0.042 -0.273701,-0.091 0,-0.057 -0.608223,-0.091 -1.642201,-0.091 l -1.642202,0 0,0.3011 c 0,0.3635 -0.184919,0.7921 -0.342126,0.7931 -0.06273,3e-4 -0.114041,-0.041 -0.114041,-0.09 0,-0.051 -0.225802,-0.091 -0.501784,-0.091 -0.275981,0 -0.501783,0.042 -0.501783,0.091 0,0.05 -0.04105,0.091 -0.09123,0.091 -0.05018,0 -0.09123,-0.062 -0.09123,-0.1368 0,-0.075 -0.04105,-0.1368 -0.09123,-0.1368 -0.05018,0 -0.09123,-0.1027 -0.09123,-0.2281 0,-0.1419 -0.0517,-0.2281 -0.13685,-0.2281 -0.08068,0 -0.137422,-0.084 -0.138246,-0.2053 -0.001,-0.1468 -0.02331,-0.1707 -0.07833,-0.084 -0.131751,0.2078 -0.58898,0.091 -0.720206,-0.1842 -0.113152,-0.2372 -0.125257,-0.2405 -0.365803,-0.1025 -0.236349,0.1357 -0.28806,0.1265 -1.034885,-0.1826 -0.468223,-0.1938 -0.864936,-0.3048 -0.981049,-0.2745 -0.195581,0.052 -0.499966,-0.1181 -0.426404,-0.2372 0.02159,-0.035 -0.201193,-0.047 -0.49508,-0.025 -0.498944,0.037 -0.536358,0.025 -0.564854,-0.1679 -0.01678,-0.1135 -0.146377,-0.2928 -0.287983,-0.3981 -0.224129,-0.1668 -0.411333,-0.1959 -1.445784,-0.2238 -0.785602,-0.021 -1.222418,0 -1.28894,0.068 -0.126155,0.1261 -1.583459,0.1345 -1.660716,0.01 -0.03554,-0.057 -1.060664,-0.091 -2.773987,-0.091 -1.494682,0 -3.0915008,-0.026 -3.5484884,-0.059 l -0.8308864,-0.059 -0.027039,-1.4556 c -0.014871,-0.8005 -7.298e-4,-1.4978 0.031355,-1.5496 0.036627,-0.059 0.9986459,-0.1114 2.5808594,-0.1409 l 2.5224654,-0.047 -0.206231,-0.2195 c -0.205172,-0.2184 -0.215601,-0.2194 -2.033458,-0.2099 -1.0049759,0.01 -1.8785474,0.01 -1.9412702,0.01 -0.068542,0 -0.1140421,-0.1324 -0.1140421,-0.3244 l 0,-0.3193 -1.2550616,0 c -0.6902839,0 -1.3882196,-0.038 -1.5509682,-0.085 -0.1824668,-0.052 -0.2959064,-0.052 -0.2959064,0 0,0.1792 -0.1816676,0.074 -0.2342518,-0.1353 -0.066512,-0.265 -0.1447729,-0.2861 -1.5447998,-0.4165 -0.6021407,-0.056 -1.8645831,-0.1885 -2.80542775,-0.2944 l -1.71062665,-0.1923 0,-3.4526 0,-3.4525 0.30029845,0 c 0.16516351,0 0.77072535,-0.062 1.34569296,-0.137 0.57496669,-0.075 1.35330729,-0.1537 1.72964519,-0.1742 0.3763378,-0.02 1.1218518,-0.089 1.6566975,-0.1523 0.9704545,-0.1146 0.9725575,-0.1154 1.026336,-0.3843 0.04169,-0.2085 0.080789,-0.2472 0.1727184,-0.1709 0.1887346,0.1567 0.519444,0.016 0.8669036,-0.3685 l 0.3212238,-0.3556 1.9923308,0.059 c 1.0957816,0.033 1.9923308,0.028 1.9923308,-0.011 0,-0.039 -0.3362203,-0.6997 -0.7471556,-1.4688 l -0.7471563,-1.3982 -0.8867782,0 -0.8867779,0 -0.6817052,-1.2772 -0.6817052,-1.2773 0.8559045,0 c 0.470747,0 0.8559045,-0.024 0.8559045,-0.054 0,-0.029 -0.4823968,-0.9533 -1.0719928,-2.0526 l -1.0719927,-1.9985 -0.8879885,-10e-5 -0.8879894,0 -0.236229,-0.4662 -0.2362279,-0.4662 7.9895327,0.068 c 7.878294,0.066 7.989532,0.066 7.989532,-0.1097 0,-0.097 0.0779,-0.2612 0.173108,-0.3633 0.09521,-0.1022 0.187938,-0.264 0.206063,-0.3594 0.04751,-0.2501 0.781065,-0.3048 0.868845,-0.065 0.03317,0.09 0.135433,0.2628 0.227249,0.3826 0.09181,0.1195 0.166937,0.3138 0.166937,0.4316 0,0.265 -0.268279,0.2099 3.527493,0.7262 3.065824,0.4169 3.12068,0.4211 3.344909,0.2542 0.125382,-0.093 0.251032,-0.2828 0.279221,-0.4208 0.03151,-0.1543 0.11052,-0.2509 0.205074,-0.2509 0.0846,0 1.335216,0.2053 2.779144,0.4561 1.443929,0.2509 2.66897,0.4562 2.722315,0.4562 0.05334,0 0.09866,0.113 0.1007,0.2509 0.002,0.1381 0.116214,0.3823 0.253722,0.5428 l 0.250016,0.2921 3.355316,0.57 c 3.338967,0.5675 3.35506,0.5713 3.302642,0.7801 l -0.05268,0.21 1.324624,0 1.324622,0 0.001,0.6613 10e-4,0.6615 0.706045,0.2851 0.706045,0.285 0.02553,1.0949 0.02553,1.0949 -0.720539,0.2904 -0.720538,0.2905 -0.06231,0.6082 c -0.06998,0.683 0.02651,0.8407 0.514296,0.8407 0.158555,0 0.372575,0.1037 0.552771,0.2678 0.161724,0.1471 0.450096,0.3997 0.640828,0.5609 0.190733,0.1613 0.407326,0.4103 0.481319,0.5534 0.07399,0.143 0.190893,0.2601 0.25978,0.2601 0.08813,0 0.14425,0.1893 0.189383,0.6387 l 0.06413,0.6387 3.284821,0 3.284823,0 0.17941,-0.2282 c 0.114295,-0.1453 0.271214,-0.2281 0.432349,-0.2281 0.139117,0 0.329006,-0.084 0.421978,-0.1868 0.258094,-0.2851 0.613548,-0.2045 0.722017,0.164 0.08383,0.2848 0.10592,0.2965 0.556069,0.2965 0.352911,0 0.509592,0.045 0.633907,0.1826 0.236484,0.2612 0.287601,0.228 0.245773,-0.1597 -0.02484,-0.2302 -0.136468,-0.4467 -0.341228,-0.6615 l -0.304324,-0.3193 -0.06482,-2.0341 -0.06482,-2.0342 -0.245352,0.054 c -0.15123,0.033 -0.279002,0.01 -0.333065,-0.064 -0.130621,-0.1758 -0.150437,-0.6734 -0.03538,-0.8883 0.08514,-0.1591 0.157054,-0.1798 0.457957,-0.1317 0.422654,0.067 0.443197,0.022 0.479696,-1.0596 0.02104,-0.6235 0.04059,-0.6868 0.220525,-0.7124 0.210376,-0.029 0.222636,-0.091 0.359681,-1.7965 0.03123,-0.3886 0.107426,-0.7011 0.194599,-0.7984 0.130628,-0.1454 0.1287,-0.1757 -0.02185,-0.342 -0.09083,-0.1006 -0.237679,-0.1825 -0.326347,-0.1825 -0.08867,0 -0.301784,-0.1642 -0.473588,-0.3649 -0.36173,-0.4226 -0.614182,-0.4789 -0.614182,-0.1369 0,0.1255 0.04105,0.2281 0.09123,0.2281 0.05018,0 0.09123,0.062 0.09123,0.1368 0,0.3259 -0.308607,0.091 -0.449749,-0.3413 -0.09932,-0.3046 -0.09068,-0.3701 0.08038,-0.6104 0.105401,-0.148 0.270515,-0.2942 0.366919,-0.3248 0.164888,-0.052 0.176917,-0.1766 0.202905,-2.098 l 0.02762,-2.0423 0.267961,-0.2795 c 0.147381,-0.1537 0.342664,-0.2794 0.433963,-0.2794 0.0913,0 0.255244,-0.1026 0.364319,-0.2282 0.109074,-0.1254 0.270294,-0.228 0.358269,-0.228 0.106675,0 0.169571,-0.083 0.188823,-0.2509 0.02267,-0.197 0.0827,-0.257 0.27976,-0.2797 0.166116,-0.019 0.250892,-0.082 0.250892,-0.1871 0,-0.3538 0.147253,-0.3771 2.379823,-0.3771 l 2.160863,0 0.163099,0.2489 c 0.11391,0.1738 0.158829,0.404 0.148939,0.7628 -0.01125,0.4081 0.02305,0.5475 0.166709,0.6775 0.173983,0.1575 0.187822,0.1575 0.36334,0 0.205389,-0.1858 0.251012,-0.7282 0.06843,-0.8134 -0.09123,-0.043 -0.09123,-0.064 0,-0.1065 0.06273,-0.03 0.114043,-0.1461 0.114043,-0.2595 0,-0.1135 0.07591,-0.275 0.168702,-0.3591 0.149514,-0.1354 0.416716,-0.1499 2.349259,-0.1281 l 2.18056,0.024 0.02887,0.2509 c 0.02188,0.1902 0.07816,0.251 0.232645,0.251 0.236713,0 0.422431,0.158 0.423449,0.3603 3.65e-4,0.077 0.10303,0.1888 0.228084,0.2469 l 0.227372,0.1055 0,-1.1775 0,-1.1774 -0.541894,0 -0.541892,0 -0.02831,0.342 c -0.02762,0.3337 -0.0374,0.3421 -0.39325,0.3421 -0.356489,0 -0.365593,-0.01 -0.393449,-0.3454 -0.02747,-0.3327 -0.04087,-0.3454 -0.364935,-0.3427 -0.185029,0 -0.741887,-0.022 -1.237462,-0.054 -0.777316,-0.049 -0.907187,-0.08 -0.945783,-0.2276 -0.0246,-0.094 -0.115696,-0.1712 -0.202424,-0.1712 -0.08673,0 -0.231995,-0.082 -0.322817,-0.1823 -0.09083,-0.1006 -0.2361,-0.1825 -0.322841,-0.1825 -0.08674,0 -0.306181,-0.1643 -0.487644,-0.3652 l -0.329932,-0.3652 0,-2.3715 0,-2.3717 0.329932,-0.3652 c 0.181463,-0.2008 0.40011,-0.365 0.485881,-0.365 0.08577,0 0.25237,-0.1027 0.370221,-0.2282 0.11785,-0.1255 0.268699,-0.2281 0.335219,-0.2281 0.06652,0 0.120948,-0.074 0.120948,-0.1642 0,-0.2248 0.177185,-0.3832 0.428797,-0.3832 0.159477,0 0.209837,-0.052 0.209837,-0.2145 0,-0.2032 0.0399,-0.2177 0.752675,-0.2732 0.413972,-0.031 1.17349,-0.059 1.687818,-0.059 0.86762,-5e-4 0.935144,-0.013 0.935144,-0.1792 0,-0.1756 -0.104077,-0.1789 -5.939467,-0.1843 -3.836277,0 -6.000786,-0.038 -6.11264,-0.099 -0.252124,-0.135 -0.211879,-0.348 0.07772,-0.4115 0.424423,-0.093 0.538368,-0.147 0.410549,-0.1949 -0.06273,-0.023 -0.11404,-0.08 -0.11404,-0.1261 0,-0.051 5.469858,-0.083 13.730629,-0.083 9.092931,0 13.73063,0.032 13.73063,0.091 0,0.051 -0.04927,0.091 -0.109481,0.091 -0.24689,0 0.0832,0.1712 0.383181,0.1988 0.244388,0.022 0.325802,0.075 0.346943,0.223 0.01602,0.1121 -0.03321,0.2169 -0.116987,0.2491 -0.07958,0.03 -2.849174,0.058 -6.15473,0.061 -6.216528,0.01 -6.118037,3e-4 -6.118037,0.3248 0,0.021 0.461868,0.043 1.026375,0.049 0.564506,0.01 1.293234,0.037 1.619393,0.068 0.514232,0.05 0.596711,0.083 0.620807,0.2527 0.01895,0.1328 0.113356,0.212 0.296509,0.2485 0.212331,0.042 0.268719,0.1021 0.268719,0.2842 0,0.1305 0.05244,0.2303 0.120948,0.2303 0.06652,0 0.217368,0.1026 0.335219,0.2281 0.117851,0.1255 0.284449,0.2282 0.370221,0.2282 0.08577,0 0.304417,0.1642 0.485881,0.3651 l 0.329932,0.3651 0,2.3584 c 0,2.3049 -0.0047,2.3654 -0.208434,2.6683 -0.114639,0.1706 -0.337301,0.3521 -0.494807,0.4036 -0.157505,0.052 -0.364591,0.1643 -0.460193,0.2509 -0.0956,0.086 -0.237643,0.1572 -0.315652,0.1572 -0.07801,0 -0.161966,0.076 -0.186572,0.1712 -0.03859,0.1475 -0.168613,0.1789 -0.945783,0.2278 -0.495575,0.032 -1.031929,0.056 -1.191899,0.055 -0.271086,0 -0.292788,0.021 -0.319317,0.3425 -0.02836,0.3433 -0.02992,0.3446 -0.439013,0.3446 -0.408558,0 -0.410688,0 -0.438867,-0.3422 l -0.02831,-0.342 -0.541893,0 -0.541894,0 0,1.1774 0,1.1775 0.227372,-0.1055 c 0.125055,-0.058 0.227693,-0.1691 0.228085,-0.2469 0.001,-0.2023 0.186734,-0.3603 0.423448,-0.3603 0.154481,0 0.21076,-0.061 0.232644,-0.2509 l 0.02887,-0.251 2.204291,-0.024 c 2.393169,-0.026 2.49423,-0.01 2.49423,0.4794 0,0.1178 0.05132,0.2379 0.114043,0.2672 0.09123,0.043 0.09123,0.064 0,0.1065 -0.169763,0.079 -0.134189,0.5083 0.06347,0.7656 0.170075,0.2212 0.177115,0.2224 0.36131,0.056 0.151441,-0.1371 0.18511,-0.2696 0.173693,-0.6839 -0.0099,-0.3589 0.03503,-0.589 0.148938,-0.7628 l 0.163099,-0.249 2.227008,0 2.227007,0 0.05373,0.2687 c 0.04105,0.2052 0.11048,0.2752 0.294228,0.2965 0.185992,0.022 0.247042,0.084 0.269367,0.2788 0.0193,0.1677 0.0821,0.2509 0.189372,0.2509 0.08828,0 0.256927,0.1026 0.374777,0.2281 0.117852,0.1254 0.281179,0.228 0.362946,0.228 0.08177,0 0.279884,0.1354 0.440259,0.3009 l 0.2916,0.3009 0,2.0194 c 0,1.9305 0.0076,2.022 0.180092,2.0766 0.319975,0.1016 0.549338,0.5257 0.488138,0.9029 -0.05783,0.3564 -0.329592,0.5997 -0.450761,0.4036 -0.03701,-0.06 -0.01897,-0.125 0.04004,-0.1447 0.160561,-0.053 0.134193,-0.4768 -0.02967,-0.4768 -0.07537,0 -0.285455,0.1643 -0.466786,0.3649 -0.181332,0.2007 -0.400664,0.365 -0.487406,0.365 -0.08674,0 -0.226692,0.076 -0.311004,0.1694 -0.136843,0.1512 -0.13836,0.1818 -0.01414,0.2849 0.07653,0.063 0.139153,0.1916 0.139153,0.2845 0,0.092 0.08196,0.3035 0.182127,0.4678 0.144822,0.2375 0.182192,0.4603 0.182461,1.0872 2.78e-4,0.6166 0.03018,0.8 0.137194,0.8411 0.106636,0.042 0.136848,0.2219 0.136848,0.8197 0,0.857 0.09775,1.0359 0.509331,0.9327 0.338098,-0.085 0.494241,0.086 0.494241,0.541 0,0.4545 -0.156235,0.6261 -0.493062,0.5414 l -0.236807,-0.06 -0.01964,1.2188 c -0.01079,0.6703 -0.02108,1.5692 -0.02285,1.9976 -0.0034,0.7663 -0.0087,0.7855 -0.345256,1.1796 -0.188167,0.2205 -0.342128,0.4961 -0.342128,0.6125 l 0,0.2117 3.473139,0 3.473129,0 -0.46242,-0.5317 -0.462436,-0.5317 0,-0.7829 0,-0.7828 -0.690738,-0.8279 -0.690739,-0.8279 0.302989,-0.3648 c 0.265797,-0.3201 0.350616,-0.3651 0.690738,-0.3665 l 0.38775,0 0,-0.9993 0,-0.9994 -0.422152,-0.1867 c -0.232179,-0.1027 -0.601678,-0.1867 -0.821103,-0.1867 -0.219425,0 -0.398952,-0.042 -0.398952,-0.091 0,-0.054 -0.334525,-0.091 -0.821104,-0.091 l -0.821095,0 0,0.2631 c 0,0.1896 0.05293,0.2769 0.189686,0.3126 0.136341,0.036 0.181238,0.1092 0.159658,0.2616 -0.02807,0.1982 -0.07586,0.2136 -0.737085,0.2386 l -0.707066,0.026 0.0017,-0.574 0.0017,-0.574 0.53816,-0.479 c 0.462379,-0.4115 0.590535,-0.479 0.910206,-0.479 0.311242,0 0.372062,-0.029 0.372062,-0.1824 0,-0.1691 0.06086,-0.1826 0.821103,-0.1826 0.486571,0 0.821103,-0.036 0.821103,-0.091 0,-0.1202 1.431068,-0.1202 1.505351,0 0.03102,0.051 0.172151,0.091 0.313636,0.091 0.198502,0 0.282554,0.061 0.368074,0.2676 0.06896,0.1664 0.158351,0.2494 0.236503,0.2193 0.07013,-0.027 0.318475,0.1319 0.56168,0.3591 1.103945,1.0311 1.300239,1.1353 0.982751,0.5212 -0.116279,-0.2248 -0.123032,-0.431 -0.04375,-1.3354 0.05159,-0.5881 0.111246,-1.087 0.132624,-1.1082 0.02141,-0.021 0.967426,-0.1163 2.102351,-0.2107 l 2.063497,-0.1718 2.925299,1.4163 c 1.60891,0.7788 3.12961,1.504 3.37932,1.6114 l 0.45403,0.1953 2.97835,-0.154 c 1.63809,-0.084 3.19388,-0.1532 3.45732,-0.1521 0.37858,0 0.47898,-0.029 0.47898,-0.1438 0,-0.1255 0.12192,-0.1413 0.88198,-0.1141 0.6008,0.022 0.89409,0.068 0.91993,0.1457 0.0292,0.087 0.6447,0.114 2.66637,0.114 2.32269,0 2.63491,-0.016 2.6843,-0.1456 0.047,-0.1225 0.19417,-0.1407 0.9255,-0.1141 0.64916,0.023 0.89104,0.066 0.95409,0.1685 0.0715,0.1157 0.48555,0.1396 2.68574,0.1552 1.61491,0.012 2.66952,0.055 2.78123,0.1148 0.13732,0.073 0.18648,0.2096 0.20751,0.5745 l 0.0275,0.4784 1.41412,0.1538 c 0.77776,0.084 1.42438,0.1564 1.43693,0.1596 0.0126,0 0.0229,0.062 0.0229,0.1306 0,0.088 0.23129,0.1545 0.78402,0.2258 0.74208,0.096 0.80305,0.09 1.13972,-0.1018 0.31217,-0.1783 0.35577,-0.2443 0.35639,-0.5399 0,-0.1852 0.0333,-0.3568 0.0731,-0.3815 0.0398,-0.024 0.47095,-0.021 0.95795,0.01 0.6364,0.038 0.88545,0.086 0.88545,0.171 0,0.065 0.037,0.1409 0.0823,0.1688 0.0453,0.027 0.81501,0.112 1.71063,0.1865 1.59871,0.1332 2.96423,0.3372 5.77951,0.8631 0.77777,0.1454 1.47571,0.2608 1.55098,0.2566 0.21774,-0.012 1.39593,0.2099 1.59658,0.3008 0.24296,0.11 2.09062,0.4177 4.05989,0.6761 1.34377,0.1764 1.60815,0.1895 1.66973,0.083 0.0973,-0.1678 0.79471,-0.069 0.95733,0.1362 0.0941,0.1185 0.27986,0.1471 0.91233,0.1402 0.43681,-0.01 0.81996,0.031 0.85146,0.078 0.0911,0.1388 1.90893,0.3145 2.198,0.2125 0.19295,-0.068 0.28585,-0.053 0.41774,0.066 0.0933,0.084 0.24973,0.1534 0.3477,0.1534 0.0979,0 0.73108,0.1058 1.40692,0.2351 0.88462,0.1694 1.38117,0.3164 1.77261,0.5246 0.68945,0.367 1.95074,1.5633 2.65401,2.5172 0.29854,0.4049 0.59329,0.7365 0.65498,0.7368 0.14078,8e-4 0.50898,0.7056 0.38977,0.7462 -0.0966,0.032 0.25837,1.0791 0.36616,1.0791 0.0368,0 0.0705,0.3092 0.0749,0.6872 0.004,0.378 0.0394,0.7373 0.0777,0.7983 0.0384,0.061 0.0567,0.7987 0.0407,1.6392 -0.0201,1.0615 0.002,1.5281 0.0706,1.5281 0.13853,0 0.12557,0.5213 -0.0144,0.5802 -0.0823,0.034 -0.0706,0.076 0.0419,0.1468 0.17105,0.1085 0.12373,0.3679 -0.0671,0.3679 -0.0659,0 -0.148,0.1281 -0.18239,0.2847 -0.0372,0.1694 -0.133,0.3032 -0.23634,0.3303 -0.16857,0.044 -0.22994,0.1876 -0.28309,0.6623 -0.0236,0.2107 -0.0741,0.2337 -0.66417,0.3032 -1.02563,0.1208 -1.06458,0.1344 -1.03231,0.3614 l 0.0288,0.202 2.26818,-0.012 2.26818,-0.012 -0.0547,0.3311 c -0.0301,0.1822 -0.0553,0.4473 -0.0558,0.5893 l -8.4e-4,0.2581 -0.70706,-0.058 c -0.87148,-0.071 -2.14012,-0.08 -2.60747,-0.02 -0.1922,0.024 -0.43853,0.1236 -0.5474,0.2197 -0.46319,0.4086 -0.97344,0.6135 -0.97344,0.3908 0,-0.051 -0.0865,-0.091 -0.19223,-0.091 -0.13174,0 -0.17602,0.043 -0.1407,0.1343 0.0359,0.093 -0.0785,0.1939 -0.37798,0.3311 -0.36107,0.1655 -0.64569,0.2033 -1.78604,0.2371 -2.1565,0.064 -3.00764,-0.146 -3.65416,-0.9013 -0.30555,-0.357 -0.32703,-0.4194 -0.27166,-0.7886 l 0.0601,-0.4012 -0.35399,0.056 c -1.13785,0.1779 -4.39754,0.5451 -6.9684,0.7851 -2.46188,0.2299 -3.35586,0.355 -5.26757,0.7367 -2.08827,0.417 -2.37356,0.454 -3.06679,0.3978 -0.63889,-0.052 -0.85989,-0.032 -1.34685,0.1264 -0.83009,0.2685 -2.92475,0.7981 -3.73011,0.9431 -0.50754,0.091 -1.59136,0.1195 -4.19673,0.1087 -3.88365,-0.016 -4.87375,-0.1068 -5.93018,-0.544 -0.51691,-0.2139 -1.15336,-0.3137 -4.9592,-0.7777 l -4.36619,-0.5325 -1.37962,-0.9815 c -1.17804,-0.8382 -3.52691,-2.3736 -4.11879,-2.6923 -0.0995,-0.054 -0.44843,-0.1657 -0.77549,-0.2491 l -0.59464,-0.1515 -4.21926,0.7363 c -2.66191,0.4646 -4.219348,0.7747 -4.219541,0.8402 -8.43e-4,0.2172 -0.651549,0.2281 -1.605682,0.026 -0.522026,-0.11 -0.949149,-0.2378 -0.949149,-0.284 0,-0.047 -1.611405,-1.149 -3.580913,-2.4509 l -3.580911,-2.3671 -1.665009,-5e-4 -1.664966,-3e-4 0,0.4893 0,0.4895 0.338048,-0.01 c 0.322283,-0.01 0.339413,0.01 0.367341,0.309 0.0161,0.1756 0.0059,0.4166 -0.02318,0.5355 -0.04738,0.195 -0.08749,0.2106 -0.409472,0.1592 -0.46854,-0.075 -0.546404,0.072 -0.546404,1.0356 0,0.5724 -0.03077,0.7505 -0.136848,0.7911 -0.101137,0.039 -0.136848,0.1992 -0.136848,0.6143 0,0.3875 -0.05664,0.6675 -0.18247,0.9024 -0.100354,0.1872 -0.182465,0.4765 -0.182465,0.643 0,0.3271 -0.386443,0.7927 -0.657893,0.7927 -0.101207,0 -0.131458,0.057 -0.09841,0.1826 0.02624,0.1006 0.117882,0.1825 0.203639,0.1825 0.08576,0 0.252345,0.1026 0.370196,0.228 0.117851,0.1254 0.281175,0.2281 0.362943,0.2281 0.173635,0 0.731858,0.5478 0.731858,0.7181 0,0.064 0.07182,0.1027 0.159659,0.086 0.194448,-0.037 0.268258,-0.435 0.09998,-0.539 -0.08579,-0.053 -0.09284,-0.1034 -0.02411,-0.1722 0.135474,-0.1354 0.362334,0.1433 0.436633,0.5367 0.05244,0.2775 0.02006,0.3468 -0.306799,0.6577 l -0.365393,0.3476 0,1.9473 0,1.9473 -0.300856,0.2916 c -0.165467,0.1603 -0.363581,0.2915 -0.440259,0.2915 -0.07671,0 -0.235836,0.1027 -0.353687,0.2282 -0.117851,0.1254 -0.2865,0.228 -0.374776,0.228 -0.107275,0 -0.170077,0.083 -0.189372,0.251 -0.02249,0.1954 -0.08306,0.2571 -0.274234,0.2791 -0.189628,0.022 -0.251802,0.084 -0.2737,0.2738 -0.02826,0.2448 -0.03074,0.2455 -0.986286,0.3026 -0.526873,0.032 -1.519662,0.062 -2.206198,0.068 l -1.248247,0.011 -0.211309,-0.2965 c -0.168408,-0.2363 -0.206794,-0.397 -0.189065,-0.7915 0.01607,-0.3577 -0.01989,-0.5416 -0.129643,-0.6629 -0.147044,-0.1625 -0.158661,-0.1615 -0.364547,0.033 -0.213148,0.2003 -0.300587,0.7154 -0.121428,0.7154 0.05018,0 0.09123,0.062 0.09123,0.1368 0,0.075 -0.04105,0.1369 -0.09123,0.1369 -0.05018,0 -0.09123,0.082 -0.09123,0.1825 0,0.1006 -0.08211,0.2645 -0.182467,0.3649 -0.165388,0.1654 -0.295611,0.1814 -1.39131,0.1713 -0.664863,-0.01 -1.63992,-0.037 -2.166793,-0.068 l -0.957951,-0.057 -0.02887,-0.2509 c -0.02188,-0.1903 -0.07816,-0.2509 -0.232645,-0.2509 -0.246085,0 -0.422737,-0.1601 -0.422737,-0.3832 0,-0.09 -0.0377,-0.1641 -0.08378,-0.1641 -0.04608,0 -0.148711,-0.025 -0.228083,-0.056 -0.12689,-0.049 -0.144312,0.083 -0.144312,1.0948 l 0,1.1501 0.54162,0 0.54162,0 0.0286,-0.2964 c 0.02742,-0.2844 0.04642,-0.2977 0.461948,-0.3244 l 0.433358,-0.027 0,0.3272 c 0,0.3089 0.01662,0.327 0.296508,0.3245 0.16308,0 0.70198,0.022 1.197554,0.054 0.77717,0.049 0.907195,0.08 0.945784,0.2277 0.0246,0.094 0.115695,0.1712 0.202424,0.1712 0.08672,0 0.231994,0.082 0.322816,0.1824 0.09083,0.1006 0.236101,0.1825 0.322841,0.1825 0.08674,0 0.308054,0.1664 0.491807,0.3698 l 0.334096,0.3698 -0.02698,2.4526 -0.02697,2.4526 -0.267961,0.2795 c -0.147379,0.1537 -0.355762,0.2795 -0.463073,0.2795 -0.10731,0 -0.291533,0.1027 -0.409384,0.2281 -0.11785,0.1255 -0.265973,0.2281 -0.32916,0.2281 -0.06319,0 -0.127879,0.113 -0.143755,0.2509 -0.02267,0.1971 -0.0827,0.2571 -0.279761,0.2798 -0.166115,0.019 -0.250892,0.082 -0.250892,0.1871 0,0.3399 -0.172951,0.377 -1.751681,0.377 l -1.532722,0 0,0.3119 c 0,0.6443 -0.530752,0.5926 6.142292,0.5985 5.052039,0.01 6.055202,0.026 6.162385,0.1334 0.193099,0.1931 0.05943,0.4001 -0.279442,0.4326 -0.228525,0.022 -0.295235,0.067 -0.274933,0.1886 0.02544,0.1516 -0.677832,0.1597 -13.707821,0.1597 -7.554046,0 -13.734629,-0.033 -13.734629,-0.073 z m 39.963636,-24.0147 c -0.02326,-0.074 -0.03195,-0.3704 -0.01939,-0.6587 0.01408,-0.3232 -0.05378,-0.8035 -0.177353,-1.2544 l -0.200223,-0.7305 -2.286504,0 -2.286506,0 1.137596,0.6993 c 2.998226,1.843 3.509613,2.1353 3.687269,2.1079 0.116786,-0.018 0.171418,-0.079 0.145101,-0.1636 z m -25.826164,-35.0979 c 0.09634,-0.397 0.337699,-0.5722 0.78806,-0.5722 0.3466,0 0.411396,-0.025 0.365827,-0.1444 -0.03045,-0.079 -0.05537,-0.1615 -0.05537,-0.1824 0,-0.021 -0.673016,-0.038 -1.495591,-0.038 -1.279621,0 -1.503587,0.021 -1.550968,0.1443 -0.0826,0.2152 -0.07736,0.2206 0.214768,0.2206 0.29276,0 0.642188,0.2989 0.642188,0.5493 0,0.2386 0.09991,0.2818 0.585806,0.2532 0.384667,-0.022 0.463676,-0.059 0.505288,-0.2303 z m -15.262313,57.1957 c -0.08384,-0.092 -0.152426,-0.2542 -0.152426,-0.3589 0,-0.1048 -0.05132,-0.2144 -0.114043,-0.2437 -0.09123,-0.043 -0.09123,-0.064 0,-0.1065 0.08391,-0.039 0.114043,-0.4201 0.114043,-1.4415 0,-0.9853 -0.03311,-1.4233 -0.114043,-1.5091 -0.09123,-0.097 -0.09123,-0.1293 0,-0.1628 0.08399,-0.03 0.114043,-0.3864 0.114043,-1.3494 0,-0.9569 -0.03059,-1.322 -0.114043,-1.3609 -0.09123,-0.043 -0.09123,-0.064 0,-0.1064 0.06273,-0.029 0.114043,-0.1256 0.114043,-0.214 0,-0.1769 0.272127,-0.4626 0.440542,-0.4626 0.06557,0 0.106857,-0.1562 0.106857,-0.4041 0,-0.5686 0.154474,-0.6908 0.873235,-0.6908 l 0.586501,0 0,-0.3194 c 0,-0.3175 0.0022,-0.3192 0.41055,-0.3192 0.409273,0 0.410551,0 0.410551,0.323 0,0.3131 0.0105,0.3229 0.342124,0.3193 0.188169,0 0.72476,0.022 1.192422,0.053 0.693723,0.047 0.869961,0.088 0.957088,0.2281 0.05873,0.094 0.152136,0.171 0.207557,0.171 0.05541,0 0.175073,0.082 0.265895,0.1825 0.09083,0.1005 0.256628,0.1825 0.368458,0.1825 0.12189,0 0.337139,0.1481 0.537422,0.3698 l 0.334097,0.3698 -0.02697,2.4395 -0.02697,2.4394 -0.319317,0.29 c -0.175625,0.1595 -0.384007,0.2911 -0.463073,0.2927 -0.07906,0 -0.240177,0.1053 -0.358028,0.2307 -0.11785,0.1254 -0.2687,0.2281 -0.33522,0.2281 -0.06652,0 -0.120948,0.074 -0.120948,0.1643 0,0.2229 -0.17665,0.3831 -0.422736,0.3831 -0.154481,0 -0.21076,0.061 -0.232645,0.2509 l -0.02887,0.2509 -2.196834,0.024 c -2.037704,0.022 -2.207876,0.012 -2.34926,-0.144 z m 24.906353,0.1044 c -0.03345,-0.034 -0.06082,-0.1539 -0.06082,-0.2676 0,-0.1578 -0.05947,-0.2137 -0.250892,-0.2357 -0.197062,-0.022 -0.257086,-0.082 -0.27976,-0.2798 -0.01929,-0.1676 -0.0821,-0.2509 -0.189372,-0.2509 -0.08828,0 -0.256927,-0.1026 -0.374777,-0.228 -0.117851,-0.1255 -0.284449,-0.2282 -0.37022,-0.2282 -0.08577,0 -0.304418,-0.1643 -0.485882,-0.3651 l -0.329933,-0.3652 0,-2.3599 0,-2.3599 0.330302,-0.3769 c 0.201338,-0.2297 0.409545,-0.3768 0.533261,-0.3768 0.111627,0 0.277267,-0.082 0.368088,-0.1824 0.09083,-0.1006 0.23609,-0.1825 0.322817,-0.1825 0.08673,0 0.179158,-0.082 0.205402,-0.1825 0.04035,-0.1542 0.124444,-0.1825 0.544276,-0.1825 0.273108,0 0.810667,-0.026 1.194575,-0.059 l 0.698016,-0.059 0,-0.306 c 0,-0.3018 0.0056,-0.3059 0.410551,-0.3059 0.408378,0 0.41055,0 0.41055,0.3192 l 0,0.3194 0.586501,0 c 0.718757,0 0.873231,0.1222 0.873231,0.6908 0,0.3136 0.03346,0.4041 0.149602,0.4041 0.176501,0 0.390784,0.2557 0.394898,0.4713 0.0017,0.083 0.05421,0.1761 0.116945,0.2053 0.09123,0.043 0.09123,0.064 0,0.1064 -0.143676,0.067 -0.165913,2.6838 -0.02285,2.6838 0.05015,0 0.09123,0.062 0.09123,0.1368 0,0.075 -0.04105,0.1369 -0.09123,0.1369 -0.143381,0 -0.12111,2.7991 0.02285,2.8662 0.09123,0.043 0.09123,0.064 0,0.1065 -0.06272,0.03 -0.114046,0.1495 -0.114046,0.2672 0,0.4787 -0.107621,0.5006 -2.454609,0.5006 -1.192334,0 -2.19525,-0.026 -2.228701,-0.061 z m -22.98648,-48.6231 c -0.03585,-0.037 -0.06517,-0.2019 -0.06517,-0.3692 l 0,-0.3041 -0.586501,0 c -0.718761,0 -0.873234,-0.1223 -0.873234,-0.6908 0,-0.3416 -0.02786,-0.404 -0.180338,-0.404 -0.198337,0 -0.596163,-0.6903 -0.449917,-0.7806 0.134593,-0.083 0.105086,-2.6607 -0.03119,-2.7243 -0.09123,-0.043 -0.09123,-0.064 0,-0.1064 0.14156,-0.066 0.164941,-2.824 0.02468,-2.9107 -0.0511,-0.033 -0.05744,-0.1218 -0.0148,-0.2107 0.04101,-0.085 0.13405,-0.2786 0.206751,-0.4292 l 0.13218,-0.2736 1.228309,-0.029 c 0.67557,-0.016 1.690179,0 2.254685,0.031 1.005865,0.06 1.026376,0.065 1.026376,0.2799 0,0.1677 0.04913,0.2191 0.209837,0.2191 0.251612,0 0.428797,0.1583 0.428797,0.3831 0,0.09 0.05443,0.1642 0.120947,0.1642 0.06652,0 0.21737,0.1027 0.335221,0.2281 0.11785,0.1254 0.281172,0.2281 0.36294,0.2281 0.08176,0 0.290149,0.1459 0.463071,0.3242 l 0.314406,0.3242 0.02703,2.4079 0.02703,2.4078 -0.33416,0.3699 c -0.183788,0.2034 -0.405129,0.3698 -0.491869,0.3698 -0.08674,0 -0.23202,0.082 -0.322842,0.1826 -0.09082,0.1005 -0.23811,0.1824 -0.327308,0.1824 -0.0892,0 -0.186703,0.077 -0.216677,0.1717 -0.0466,0.1468 -0.183022,0.1803 -0.94129,0.2307 -0.487737,0.033 -1.038224,0.057 -1.223304,0.055 -0.324242,-0.01 -0.337549,0.01 -0.364935,0.3393 -0.02656,0.3215 -0.04949,0.3457 -0.351,0.3711 -0.177417,0.015 -0.351901,0 -0.387741,-0.038 z m 24.906723,0 c -0.03584,-0.037 -0.06517,-0.2029 -0.06517,-0.3715 0,-0.294 -0.01363,-0.306 -0.342124,-0.3008 -0.188171,0 -0.727108,-0.022 -1.197641,-0.055 -0.730043,-0.052 -0.862061,-0.085 -0.900166,-0.2313 -0.02455,-0.094 -0.11561,-0.1708 -0.202338,-0.1708 -0.08672,0 -0.231994,-0.082 -0.322817,-0.1824 -0.09082,-0.1006 -0.256628,-0.1825 -0.368458,-0.1825 -0.121466,0 -0.336158,-0.1471 -0.53326,-0.3652 l -0.329933,-0.3651 0,-2.3716 0,-2.3716 0.329933,-0.3652 c 0.181463,-0.2008 0.40011,-0.3652 0.485882,-0.3652 0.08577,0 0.252369,-0.1027 0.37022,-0.228 0.11785,-0.1255 0.2865,-0.2282 0.374777,-0.2282 0.107273,0 0.170076,-0.083 0.189372,-0.2508 0.02249,-0.1955 0.08306,-0.2571 0.274137,-0.2792 0.17169,-0.019 0.253798,-0.088 0.2737,-0.2281 0.02451,-0.1723 0.10386,-0.2078 0.575832,-0.2583 0.30107,-0.033 1.294326,-0.063 2.207238,-0.068 1.617261,-0.01 1.663472,-0.01 1.801854,0.1929 0.07815,0.1115 0.142024,0.2757 0.142024,0.3649 0,0.089 0.04105,0.1621 0.09123,0.1621 0.05015,0 0.09123,0.062 0.09123,0.137 0,0.075 -0.04105,0.1368 -0.09123,0.1368 -0.143381,0 -0.121109,2.799 0.02285,2.8663 0.09123,0.043 0.09123,0.064 0,0.1064 -0.143675,0.067 -0.165913,2.6838 -0.02285,2.6838 0.05015,0 0.09123,0.062 0.09123,0.1368 0,0.075 -0.03203,0.1369 -0.07123,0.1369 -0.0392,0 -0.117721,0.1232 -0.174546,0.2737 -0.06929,0.1836 -0.16593,0.2737 -0.293699,0.2737 -0.161816,0 -0.190393,0.056 -0.190393,0.371 0,0.6372 -0.09796,0.7238 -0.8188,0.7238 l -0.629917,0 -0.02831,0.3421 c -0.02643,0.3195 -0.04972,0.3439 -0.350894,0.3693 -0.177417,0.015 -0.351901,0 -0.387742,-0.038 z"
         id="path4516"
         inkscape:connector-curvature="0" />
    </g>
  </g>
</svg>
