<?xml version="1.0" encoding="UTF-8" standalone="no"?>
<!-- Created with Inkscape (http://www.inkscape.org/) -->

<svg
   xmlns:dc="http://purl.org/dc/elements/1.1/"
   xmlns:cc="http://creativecommons.org/ns#"
   xmlns:rdf="http://www.w3.org/1999/02/22-rdf-syntax-ns#"
   xmlns:svg="http://www.w3.org/2000/svg"
   xmlns="http://www.w3.org/2000/svg"
   xmlns:sodipodi="http://sodipodi.sourceforge.net/DTD/sodipodi-0.dtd"
   xmlns:inkscape="http://www.inkscape.org/namespaces/inkscape"
   width="703.32349"
   height="257.04941"
   id="svg3123"
   version="1.1"
   inkscape:version="0.48.5 r10040"
   sodipodi:docname="Hull-D.svg">
  <defs
     id="defs3125" />
  <sodipodi:namedview
     id="base"
     pagecolor="#ffffff"
     bordercolor="#666666"
     borderopacity="1.0"
     inkscape:pageopacity="0.0"
     inkscape:pageshadow="2"
     inkscape:zoom="1.979899"
     inkscape:cx="383.9293"
     inkscape:cy="186.18863"
     inkscape:document-units="px"
     inkscape:current-layer="layer1"
     showgrid="false"
     fit-margin-top="0"
     fit-margin-left="0"
     fit-margin-right="0"
     fit-margin-bottom="0"
     inkscape:window-width="1920"
     inkscape:window-height="1018"
     inkscape:window-x="-8"
     inkscape:window-y="-8"
     inkscape:window-maximized="1"
     showguides="true"
     inkscape:guide-bbox="true" />
  <metadata
     id="metadata3128">
    <rdf:RDF>
      <cc:Work
         rdf:about="">
        <dc:format>image/svg+xml</dc:format>
        <dc:type
           rdf:resource="http://purl.org/dc/dcmitype/StillImage" />
        <dc:title />
      </cc:Work>
    </rdf:RDF>
  </metadata>
  <g
     inkscape:label="Layer 1"
     inkscape:groupmode="layer"
     id="layer1"
     transform="translate(76.5043,-530.4313)">
    <g
       id="g3142"
       transform="translate(-1354.2857,971.42857)">
      <path
         style="fill:#000000;fill-opacity:1"
         d="m 1533.0287,-184.93325 c -0.9689,-0.80022 -1.0641,-1.01921 -0.5797,-1.33277 0.3493,-0.22616 6.6049,-0.37756 15.7476,-0.38113 l 15.168,-0.006 0,-2.70512 0,-2.70511 -2.0715,0 c -3.2947,0 -5.6575,-0.4254 -5.6575,-1.01864 0,-0.28995 -0.3478,-0.52715 -0.7728,-0.52715 -0.4994,0 -0.7728,-0.25764 -0.7728,-0.72784 0,-0.40027 -0.3044,-0.83781 -0.6764,-0.97229 -0.8482,-0.3066 -2.1436,-1.07126 -2.9537,-1.74368 -0.525,-0.43571 -0.6209,-1.51513 -0.6209,-6.99021 0,-7.24137 -0.076,-7.05144 3.478,-8.74828 0.3188,-0.15226 0.6923,-0.44491 0.83,-0.65035 0.1377,-0.20543 1.5724,-0.45836 3.1882,-0.56204 2.4698,-0.15852 2.9378,-0.29641 2.9378,-0.86556 0,-0.37539 0.3874,-0.78082 0.8695,-0.91 1.3036,-0.34935 1.3852,-0.31569 1.5189,0.62592 0.1021,0.71902 0.4245,0.90293 1.8625,1.06273 1.5863,0.17625 1.7504,0.2935 1.8689,1.33424 0.072,0.62758 0.3979,1.3371 0.7257,1.57673 0.4963,0.36296 0.5915,1.47963 0.5697,6.6845 -0.022,5.13289 0.072,6.24879 0.5189,6.24879 0.4478,0 0.5378,-1.08248 0.504,-6.05986 -0.039,-5.6734 0.01,-6.10081 0.7528,-6.70262 0.4365,-0.35356 0.8514,-1.14809 0.9219,-1.76567 0.1164,-1.02075 0.2774,-1.13371 1.7704,-1.24173 1.2324,-0.0891 1.6456,-0.28213 1.6547,-0.77289 0.01,-0.35974 0.2676,-0.99162 0.5796,-1.40418 0.3122,-0.41261 0.5674,-0.89084 0.5674,-1.06272 0,-0.61009 -1.5574,-0.3009 -2.3187,0.46029 -0.9595,0.95958 -1.3512,0.96735 -2.2736,0.045 -0.4925,-0.49253 -0.6637,-1.06384 -0.5293,-1.76686 0.2479,-1.29657 -0.5802,-2.91546 -1.4913,-2.91546 -0.3772,0 -0.9443,0.3692 -1.2604,0.82046 -0.5762,0.82279 -1.7801,1.65997 -3.0437,2.11675 -0.3719,0.13448 -0.6763,0.38251 -0.6763,0.55119 0,0.16865 -1.4781,0.42981 -3.2848,0.58029 -2.8614,0.23836 -3.2848,0.36736 -3.2848,1.00081 0,0.51804 -0.2779,0.72718 -0.966,0.72718 -0.6996,0 -0.9662,-0.20753 -0.9662,-0.75172 0,-0.62263 -0.3152,-0.77196 -1.8356,-0.8695 -1.5666,-0.10051 -1.8537,-0.24528 -1.9592,-0.98729 -0.074,-0.51915 -0.3929,-0.8695 -0.7922,-0.8695 -0.3677,0 -0.8773,-0.20868 -1.1324,-0.46374 -0.3607,-0.36067 -0.5668,-0.36067 -0.9275,0 -0.2551,0.25506 -0.7646,0.46374 -1.1325,0.46374 -0.3992,0 -0.7184,0.35035 -0.7922,0.8695 -0.1133,0.79785 -0.3542,0.87885 -2.9251,0.98304 -2.4846,0.10067 -2.8018,0.19914 -2.8018,0.86951 0,0.5487 -0.2648,0.75596 -0.966,0.75596 -0.6859,0 -0.9662,0.20949 -0.9662,0.72208 0,0.62402 0.3912,0.74714 2.8809,0.90693 2.35,0.15084 3.1286,0.37386 4.2251,1.21017 0.7393,0.5639 1.5027,1.02527 1.6966,1.02527 0.1937,0 0.6401,0.31801 0.9918,0.70669 0.5408,0.59757 0.6396,1.69256 0.6396,7.08934 0,5.69265 -0.077,6.45179 -0.7067,7.02222 -0.3887,0.35178 -0.8304,0.63957 -0.9817,0.63957 -0.5676,0 -2.5625,1.71118 -2.5625,2.19814 0,0.27881 -0.3478,0.50697 -0.7729,0.50697 -0.4251,0 -0.7729,0.23721 -0.7729,0.52716 0,0.33416 -0.6563,0.61708 -1.7929,0.77288 -2.5833,0.35406 -9.13,0.29147 -9.7367,-0.0931 -0.4056,-0.2571 -0.5175,-2.23377 -0.523,-9.24107 0,-4.90268 0.1081,-9.10036 0.2489,-9.32817 0.1408,-0.22777 0.5065,-0.41416 0.8128,-0.41416 0.3789,0 0.5568,-0.43255 0.5568,-1.35255 0,-1.32552 0.032,-1.35256 1.582,-1.35256 1.2337,0 1.6246,-0.16296 1.7755,-0.74017 0.1065,-0.40707 0.6119,-0.84515 1.1232,-0.97348 2.1161,-0.53106 0.4361,-1.76436 -2.4034,-1.76436 -0.5049,0 -0.9179,-0.15361 -0.9179,-0.34139 0,-0.18773 -0.3043,-0.45137 -0.6762,-0.58585 -2.3555,-0.85149 -3.5747,-2.14979 -3.5747,-3.8068 0,-0.66932 -0.1593,-1.00981 -0.4021,-0.85972 -0.2213,0.13672 -0.2899,0.60232 -0.1527,1.03467 0.1779,0.56023 0.099,0.73664 -0.2741,0.61399 -0.288,-0.0946 -0.5775,-0.71589 -0.6434,-1.38054 -0.088,-0.88534 0.093,-1.3414 0.6763,-1.70557 0.7226,-0.4513 0.796,-0.87589 0.796,-4.603 0,-3.56861 0.1049,-4.23906 0.8009,-5.12405 0.4406,-0.56003 1.0058,-1.02402 1.2561,-1.03109 0.6233,-0.0176 2.1939,-1.36684 2.1939,-1.8847 0,-0.23162 0.2548,-0.42111 0.5662,-0.42111 0.3112,0 0.7521,-0.3478 0.9796,-0.77289 0.3843,-0.71793 0.8091,-0.7729 5.9752,-0.7729 l 5.5616,0 0.6135,1.22975 c 0.485,0.97231 0.5112,1.29359 0.1248,1.53478 -0.3675,0.22944 -0.3823,0.47536 -0.06,0.99231 0.6796,1.08993 1.5001,0.83707 1.5316,-0.47205 0.015,-0.63764 0.1491,-1.63756 0.2971,-2.22206 l 0.2694,-1.06273 5.7757,0 c 5.3802,0 5.8041,0.0529 6.1894,0.7729 0.2274,0.42509 0.6683,0.77289 0.9797,0.77289 0.3113,0 0.5661,0.18949 0.5661,0.42111 0,0.51786 1.5707,1.86709 2.1939,1.8847 0.2504,0.007 0.8154,0.47106 1.256,1.03109 0.6969,0.886 0.801,1.55512 0.801,5.15261 0,2.27389 0.1144,4.24882 0.2542,4.38863 0.1399,0.13985 0.4877,0.0606 0.7729,-0.1761 0.3733,-0.30982 0.5186,-1.56143 0.5186,-4.4662 0,-2.21966 0.1432,-4.32865 0.3182,-4.68663 0.3792,-0.77568 -0.324,-8.18656 -0.7768,-8.18656 -0.1728,0 -0.3142,-5.73872 -0.3142,-12.75269 0,-8.43174 0.1338,-12.75271 0.3951,-12.75271 0.2586,0 0.3588,-2.43611 0.2898,-7.05263 -0.089,-5.96455 -0.1947,-7.05262 -0.6849,-7.05262 -0.4777,0 -0.6138,0.92959 -0.7729,5.2748 -0.1639,4.47444 -0.305,5.39796 -0.9295,6.08652 -0.4049,0.44644 -0.9265,0.81749 -1.1593,0.82457 -0.5989,0.0182 -2.1621,1.38077 -2.1621,1.8847 0,0.23161 -0.2548,0.42111 -0.5661,0.42111 -0.3114,0 -0.7523,0.3478 -0.9797,0.7729 -0.3841,0.71773 -0.8092,0.77289 -5.9562,0.77289 -6.2166,0 -6.5735,-0.14222 -6.4819,-2.58227 0.062,-1.65479 -0.1519,-2.09328 -0.8849,-1.812 -0.3536,0.13572 -0.5248,0.72728 -0.4868,1.68212 0.1023,2.56512 -0.2507,2.71215 -6.5124,2.71215 -5.147,0 -5.572,-0.0552 -5.9562,-0.77289 -0.2274,-0.4251 -0.6683,-0.7729 -0.9796,-0.7729 -0.3114,0 -0.5661,-0.1895 -0.5661,-0.42111 0,-0.51787 -1.5706,-1.86709 -2.194,-1.8847 -0.2503,-0.007 -0.8155,-0.47106 -1.256,-1.0311 -0.7148,-0.9088 -0.8009,-1.54604 -0.8009,-5.93 0,-4.421 -0.078,-4.98167 -0.773,-5.61123 -0.9364,-0.8476 -1.0262,-2.71839 -0.1466,-3.05597 0.4815,-0.18476 0.5793,-0.0604 0.4228,0.53794 -0.306,1.1699 0.3271,1.28886 1.0431,0.19603 0.347,-0.52953 0.8608,-0.9628 1.1417,-0.9628 0.281,0 0.8031,-0.32286 1.1601,-0.71748 0.5479,-0.6053 0.5659,-0.78681 0.1151,-1.16091 -0.3348,-0.2779 -0.6141,-1.60734 -0.748,-3.56134 -0.2809,-4.09748 -0.5942,-4.42598 -4.534,-4.75456 -1.689,-0.14086 -3.3297,-0.35543 -3.6462,-0.47684 -0.8779,-0.33691 -1.072,-1.41957 -1.0383,-5.79389 0.024,-3.14677 -0.083,-4.01658 -0.4955,-4.01658 -0.2896,0 -0.6171,0.34693 -0.728,0.77094 -0.3301,1.26179 -1.3596,1.36845 -2.3283,0.24117 -0.6647,-0.77361 -1.231,-1.01311 -2.4031,-1.01636 -2.9054,-0.008 -4.4318,-0.42331 -4.4318,-1.20566 0,-0.60915 -0.3027,-0.72232 -1.9322,-0.72232 -1.3875,0 -1.9323,0.15071 -1.9323,0.5346 0,0.96088 -1.6189,1.17572 -10.434,1.38471 l -8.695,0.20614 -0.1189,1.64239 c -0.071,0.97175 0.048,1.6424 0.2898,1.6424 0.2268,0 0.4087,0.77426 0.4087,1.73901 0,0.95645 -0.1739,1.73899 -0.3864,1.73899 -0.2125,0 -0.3865,0.2929 -0.3865,0.65089 0,1.36811 -1.5794,3.9226 -2.6578,4.29851 -1.0173,0.35465 -1.1822,0.77944 -3.1688,8.16619 l -2.0955,7.79207 -10.2409,-0.23155 c -5.6323,-0.12736 -10.8059,-0.31804 -11.4967,-0.42375 -1.1979,-0.18334 -1.2559,-0.27081 -1.2559,-1.8962 0,-1.63125 -0.056,-1.71447 -1.3114,-1.95 -2.2124,-0.41505 -9.4647,0.0715 -14.1464,0.94895 -5.3739,1.00724 -18.9177,1.66084 -28.0173,1.35203 -8.5312,-0.2895 -23.3641,-1.95577 -24.2078,-2.71942 -0.7267,-0.65755 -0.6639,-0.99859 0.977,-5.30986 0.5556,-1.45999 1.0102,-2.72077 1.0102,-2.80173 0,-0.33926 -3.4527,-0.11427 -3.6712,0.23922 -0.1313,0.21256 -0.6634,0.38645 -1.1822,0.38645 -0.7485,0 -0.9433,0.19946 -0.9433,0.96613 0,0.74251 0.2012,0.96747 0.8695,0.97202 1.2053,0.008 1.6736,0.39814 1.9797,1.6484 0.2049,0.8369 2e-4,1.45677 -0.9251,2.80173 l -1.1883,1.72708 -2.3968,0.008 c -1.5454,0.005 -3.3575,0.34781 -5.1017,0.96444 -1.4879,0.52594 -2.7486,0.95703 -2.8018,0.95796 -0.053,7.7e-4 -0.097,0.61033 -0.097,1.35423 0,1.11509 -0.1421,1.35258 -0.8092,1.35258 -0.4453,0 -0.8886,-0.30399 -0.9862,-0.67629 -0.1447,-0.55249 -0.704,-0.6992 -3.0553,-0.80152 -2.192,-0.0954 -2.8795,-0.003 -2.8835,0.38644 0,0.28143 -0.1101,0.90297 -0.2383,1.3812 -0.2325,0.8677 -0.223,0.8695 4.589,0.8695 l 4.822,0 -0.4,1.83561 c -1.3539,6.21186 -9.8948,11.26599 -20.1928,11.94898 l -3.5031,0.23236 0.1641,-1.40507 0.164,-1.40509 -10.067,0 c -6.2946,0 -10.1566,0.14482 -10.3059,0.38646 -0.3188,0.5158 -2.1255,0.49701 -2.1255,-0.0221 0,-0.45408 -8.5359,-0.28387 -10.7438,0.21424 -1.0136,0.2287 -1.388,0.13931 -1.8232,-0.43522 -0.3173,-0.41908 -0.5528,-0.51997 -0.5599,-0.23999 -0.015,0.602 -10.8327,0.70813 -10.8327,0.10627 0,-0.21247 -0.5052,-0.27575 -1.1584,-0.14511 -0.724,0.14482 -1.3996,0.0325 -1.8019,-0.2995 -0.5014,-0.41393 -0.6792,-0.42455 -0.806,-0.0481 -0.2095,0.6223 -1.3501,0.6223 -1.9724,0 -0.3229,-0.32299 -1.8533,-0.4908 -4.618,-0.50642 -3.7799,-0.0214 -4.2721,-0.11055 -5.7315,-1.03857 -0.9494,-0.60377 -1.9106,-0.93303 -2.3716,-0.81247 -0.4264,0.1115 -0.8921,0.0137 -1.0349,-0.21738 -0.1538,-0.24886 -1.5896,-0.42014 -3.5217,-0.42014 l -3.262,0 0,-5.32399 0,-5.32399 2.6086,-2.54492 c 1.4347,-1.3997 2.9129,-2.65037 3.2848,-2.77923 0.8716,-0.30199 0.9569,-2.57725 0.097,-2.57725 -0.4534,0 -0.5797,-0.52625 -0.5797,-2.41756 0,-2.31439 0.05,-2.43946 1.1591,-2.93062 0.6375,-0.28219 1.3766,-0.43893 1.6424,-0.34831 0.2658,0.0906 1.132,-0.24265 1.9248,-0.74061 0.7929,-0.49794 1.9319,-0.90536 2.5313,-0.90536 0.5993,0 1.2874,-0.19781 1.5293,-0.43958 0.3148,-0.31491 0.8741,-0.32926 1.9719,-0.0506 0.8428,0.21393 1.7176,0.27454 1.9439,0.1347 0.2452,-0.15156 0.4555,-2.19953 0.5205,-5.06979 l 0.1091,-4.81552 1.9323,-0.48672 c 1.0627,-0.26771 3.1987,-0.59804 4.7469,-0.73408 1.5481,-0.13604 2.906,-0.39524 3.0178,-0.576 0.1116,-0.18075 0.7201,-0.32864 1.3517,-0.32864 0.6646,0 1.2425,-0.24431 1.3711,-0.57967 0.1224,-0.31882 0.478,-0.57968 0.7904,-0.57968 0.4105,0 0.5492,-0.40163 0.5009,-1.44916 -0.1354,-2.92451 -0.2341,-2.81516 2.3032,-2.54997 l 2.2953,0.23991 0.1199,-1.88823 c 0.1174,-1.84731 0.091,-1.89857 -1.2326,-2.36546 -0.7439,-0.26249 -1.7003,-0.48101 -2.1255,-0.48561 -0.425,-0.004 -1.2945,-0.35263 -1.9322,-0.77341 -0.644,-0.425 -1.4722,-0.66603 -1.8633,-0.54228 -0.3872,0.12251 -0.9958,-0.0305 -1.3526,-0.34018 -0.3734,-0.3242 -1.8777,-0.66318 -3.5468,-0.79928 -1.5942,-0.13 -3.681,-0.4651 -4.6374,-0.74467 l -1.7391,-0.50832 -0.1029,-10.09496 -0.1029,-10.09495 2.6911,-0.61209 c 1.4801,-0.33665 3.6148,-0.61208 4.744,-0.61208 1.6157,0 2.1528,-0.16021 2.5228,-0.75253 0.3037,-0.48638 0.7699,-0.69472 1.3185,-0.58909 0.4667,0.0899 1.4679,-0.21935 2.2249,-0.68719 0.7569,-0.46784 1.7539,-0.80112 2.2155,-0.74064 0.4615,0.0605 0.9553,-0.0777 1.0971,-0.30722 0.1662,-0.26897 1.1059,-0.33299 2.6454,-0.18022 1.5732,0.15615 2.7829,0.0687 3.5468,-0.2565 0.7219,-0.30723 3.566,-0.55206 7.5358,-0.6487 10.5155,-0.25597 9.9724,-0.20748 9.6332,-0.86028 -0.1662,-0.3196 -0.3963,-0.88542 -0.5115,-1.25737 -0.1665,-0.53798 -0.649,-0.67628 -2.3597,-0.67628 -1.4789,0 -2.7195,-0.28269 -3.9731,-0.9053 -1.0026,-0.49791 -3.7122,-1.48974 -6.0214,-2.20407 -3.9001,-1.20638 -4.2328,-1.25192 -4.68,-0.64047 -0.5877,0.80371 -2.471,0.86486 -3.0586,0.0993 -0.4713,-0.61407 -4.224,-0.81571 -7.0953,-0.38124 -1.0992,0.16632 -1.6424,0.10593 -1.6424,-0.1826 0,-0.44281 -5.2228,-0.52474 -5.9843,-0.0939 -0.2095,0.11853 -0.9485,0.1666 -1.6424,0.10682 -0.9369,-0.0806 -1.2615,0.0481 -1.2615,0.50059 0,0.43868 -0.3788,0.60928 -1.3525,0.60928 -0.8373,0 -1.3526,-0.18737 -1.3526,-0.4918 0,-0.27047 -0.6048,-0.81751 -1.344,-1.21561 -1.1086,-0.59694 -1.8158,-0.67999 -4.0346,-0.47379 -1.6568,0.15398 -2.7824,0.10136 -2.9297,-0.13693 -0.1315,-0.21284 -0.7672,-0.387 -1.4127,-0.387 -0.6453,0 -1.6784,-0.35955 -2.2956,-0.79901 -0.6973,-0.4966 -1.4118,-0.70704 -1.8878,-0.55599 -0.461,0.14635 -1.1481,-0.0354 -1.7271,-0.45693 -0.8246,-0.60042 -0.9631,-1.01005 -0.9736,-2.88067 -0.01,-1.59013 0.1449,-2.24095 0.5676,-2.40316 0.6779,-0.26012 0.804,-2.56536 0.1403,-2.56536 -0.2417,0 -1.7199,-1.14599 -3.2848,-2.54665 l -2.8454,-2.54663 0,-5.51399 0,-5.51399 4.2588,-0.20186 c 3.8343,-0.18174 4.4214,-0.30943 5.8891,-1.2807 1.508,-0.99794 1.9052,-1.07663 5.2969,-1.04922 3.5212,0.0284 3.7251,-0.0169 5.1481,-1.14389 l 1.4817,-1.17354 19.8561,0.0324 19.8562,0.0324 0.1188,-1.43035 c 0.1646,-1.9828 1.2336,-1.96841 1.398,0.0189 l 0.12,1.44917 2.0454,0 2.0453,0 -0.1809,-1.88382 -0.181,-1.88381 2.8462,0.16593 c 3.3437,0.19492 8.3939,1.35544 11.9277,2.74094 4.2244,1.65623 8.4957,5.89358 9.0728,9.00063 0.4368,2.35112 0.4672,2.47727 0.7596,3.1509 0.4503,1.0373 -0.3069,2.79712 -1.2643,2.93797 -1.1214,0.16503 -1.2409,2.38841 -0.1284,2.38841 0.6502,0 1.6079,1.40848 1.6079,2.36446 0,0.58766 -0.9175,1.39702 -1.7663,1.55823 -0.4798,0.0911 -0.7892,0.51938 -0.8678,1.20102 -0.109,0.94383 0,1.05942 1.0212,1.05942 1.9111,0 2.1891,2.02524 0.5942,4.32674 -0.9665,1.39483 -1.1251,1.46994 -3.104,1.46994 -1.1469,0 -2.6816,0.2492 -3.4106,0.55377 -0.729,0.30457 -2.1146,0.67212 -3.0792,0.81677 -0.9646,0.14465 -1.7538,0.41715 -1.7538,0.60557 0,0.18841 0.1739,0.34256 0.3865,0.34256 0.2125,0 0.3865,0.43476 0.3865,0.96612 0,0.77403 -0.193,0.96611 -0.9705,0.96611 l -0.9704,0 1.5834,3.14916 1.5833,3.14916 4.6648,-0.25083 c 2.5656,-0.13794 6.1155,-0.25081 7.8888,-0.25081 l 3.2241,0 -0.01,-1.06272 c -0.01,-1.02841 -0.7487,-2.7392 -0.7611,-1.7526 -0.01,0.83368 -1.6223,1.36633 -4.1686,1.37763 -2.2887,0.0102 -2.5754,-0.0842 -3.606,-1.18692 -0.8959,-0.95859 -1.1197,-1.54956 -1.1197,-2.95789 l 0,-1.75997 4.2007,0 4.2006,0 0.2026,-1.79735 c 0.1371,-1.21563 -0.035,-2.486 -0.5293,-3.92496 -0.4026,-1.17017 -0.732,-2.256 -0.732,-2.41295 0,-0.58529 3.3956,-0.62878 6.6961,-0.0857 1.876,0.30869 3.5058,0.46661 3.6213,0.35091 0.1158,-0.11568 -0.4404,-2.31288 -1.2359,-4.88262 -0.7956,-2.56974 -1.3489,-4.76992 -1.2294,-4.88928 0.3801,-0.38026 27.4995,0.618 38.3281,1.41089 15.4978,1.13476 16.1959,1.19865 16.6164,1.52111 0.213,0.16328 1.9523,0.50389 3.8651,0.75692 1.9131,0.25303 9.9125,1.57708 17.7766,2.94236 15.4161,2.67635 19.824,3.1355 34.6803,3.61247 5.2587,0.16883 9.6931,0.44127 9.8543,0.60541 0.1613,0.16414 -4.9697,5.49853 -11.402,11.8542 -9.9327,9.81438 -11.8643,11.55578 -12.8177,11.55578 -1.4691,0 -2.3452,0.35372 -2.3452,0.94683 0,0.4492 0.9516,0.7534 9.1223,2.91598 2.8906,0.76509 3.1962,0.94286 3.961,2.30359 0.4558,0.81097 0.8288,1.84212 0.8288,2.29139 0,0.4493 0.1738,0.8169 0.3864,0.8169 0.2126,0 0.3864,0.78254 0.3864,1.739 0,0.95645 -0.1738,1.73901 -0.3864,1.73901 -0.218,0 -0.3864,1.09492 -0.3864,2.51189 l 0,2.51189 5.1942,0 c 3.1478,0 5.2911,0.15687 5.4402,0.39816 0.1474,0.2384 1.8854,0.37657 4.3315,0.34435 3.3899,-0.0447 4.1445,0.052 4.4332,0.56795 0.2385,0.42613 0.8891,0.62177 2.0678,0.62177 1.4621,0 1.7198,-0.11578 1.7198,-0.77289 0,-0.50069 0.2576,-0.7729 0.7316,-0.7729 0.4023,0 0.8316,-0.26084 0.9539,-0.57966 0.1627,-0.42369 0.8297,-0.57967 2.4794,-0.57967 1.3246,0 2.5626,-0.22351 2.9968,-0.54105 0.6343,-0.46378 0.8504,-0.46378 1.5125,0 1.5162,1.06201 1.836,0.71954 1.7505,-1.87423 -0.1439,-4.36453 0,-6.0213 0.5696,-6.59164 0.3082,-0.30818 1.5255,-0.68091 2.7051,-0.8283 l 2.1449,-0.26798 0,-1.51796 c 0,-1.34345 0.1062,-1.51798 0.9247,-1.51798 0.9569,0 1.3939,-0.63639 1.3939,-2.03002 0,-0.44411 0.2678,-1.10333 0.595,-1.46494 0.3879,-0.42858 0.6758,-1.80318 0.8272,-3.94836 l 0.2323,-3.29092 -1.3103,-1.19113 c -1.545,-1.40451 -2.0395,-1.52065 -1.6823,-0.39516 0.1878,0.59143 0.1146,0.77084 -0.2637,0.64647 -0.8951,-0.29426 -0.8771,-2.24617 0.027,-2.87912 0.7436,-0.52088 0.8023,-0.93728 0.8023,-5.68975 0,-5.6724 0.015,-5.71037 2.9949,-7.41549 0.6909,-0.39531 1.2561,-0.93038 1.2561,-1.18904 0,-0.25867 0.3478,-0.5807 0.7729,-0.71561 0.425,-0.13493 0.7727,-0.49444 0.7727,-0.79893 0,-0.45663 1.0451,-0.55363 5.964,-0.55363 5.8379,0 5.9703,0.0184 6.2647,0.8695 0.1655,0.47823 0.3077,1.3912 0.3159,2.02883 0.019,1.45714 1.1618,1.64123 1.1996,0.19323 0.014,-0.53136 0.1476,-1.44434 0.2971,-2.02883 l 0.272,-1.06273 5.9826,0 c 5.2163,0 5.9825,0.0788 5.9825,0.61584 0,0.33872 0.3478,0.7068 0.7729,0.81797 0.4251,0.11116 0.773,0.41066 0.773,0.66554 0,0.2549 0.6611,0.83508 1.4694,1.28932 2.6727,1.50218 2.7462,1.69334 2.8661,7.44923 0.09,4.31605 0.207,5.19958 0.6882,5.19958 0.4688,0 0.6009,-0.73272 0.691,-3.83039 0.067,-2.28573 -0.051,-3.99217 -0.2898,-4.23158 -0.5082,-0.50818 -0.5576,-25.24368 -0.051,-25.42997 0.6605,-0.24279 1.4422,-13.23447 0.8636,-14.35405 -0.2405,-0.46537 -0.4816,-2.75903 -0.5358,-5.09703 -0.081,-3.47714 -0.2041,-4.2509 -0.6783,-4.2509 -0.4712,0 -0.6158,0.84608 -0.7729,4.52314 -0.1143,2.67682 -0.3771,4.70633 -0.6437,4.97194 -0.546,0.54394 -2.0076,1.41695 -2.9309,1.75073 -0.3719,0.13446 -0.6762,0.57199 -0.6762,0.9723 0,0.47018 -0.2737,0.72781 -0.7729,0.72781 -0.4252,0 -0.7729,0.24701 -0.7729,0.54892 0,0.70143 -3.5209,1.09394 -8.3043,0.92577 -3.1167,-0.10958 -3.4885,-0.20154 -3.6193,-0.89502 -0.08,-0.42509 -0.3429,-0.90331 -0.584,-1.06272 -0.3106,-0.20536 -0.2694,-0.39927 0.1413,-0.66528 0.4487,-0.29068 0.483,-0.53063 0.1511,-1.06273 -0.7958,-1.27628 -1.501,-0.81251 -1.5396,1.01254 -0.051,2.41822 -0.6692,2.74431 -5.2011,2.74431 -4.8671,0 -7.3225,-0.34156 -7.3225,-1.01865 0,-0.28993 -0.3478,-0.52714 -0.7727,-0.52714 -0.4995,0 -0.773,-0.25763 -0.773,-0.72781 0,-0.40031 -0.3044,-0.83784 -0.6763,-0.9723 -1.2027,-0.43479 -2.5831,-1.34265 -3.085,-2.02889 -0.3226,-0.44129 -0.4897,-2.07349 -0.4897,-4.78676 0,-3.62637 -0.092,-4.20052 -0.7728,-4.8166 -0.9343,-0.84557 -1.0264,-2.71835 -0.1503,-3.05459 0.5041,-0.19338 0.5763,-0.0539 0.3792,0.73155 -0.1407,0.5608 -0.078,0.97047 0.1501,0.97047 0.2167,0 0.3938,-0.35922 0.3938,-0.79828 0,-1.1539 0.6925,-2.27496 1.6661,-2.6973 1.0317,-0.44766 2.1804,-1.17116 2.886,-1.81804 0.2898,-0.26568 1.2971,-0.48305 2.2384,-0.48305 1.4537,0 1.7113,-0.11635 1.7113,-0.77289 0,-0.5668 -0.2576,-0.7729 -0.966,-0.7729 -0.7085,0 -0.9662,-0.2061 -0.9662,-0.77289 0,-0.65838 -0.2576,-0.77288 -1.739,-0.77288 -1.7298,0 -1.7389,-0.007 -1.7389,-1.35257 0,-0.92002 -0.1781,-1.35255 -0.557,-1.35255 -0.3062,0 -0.6725,-0.18731 -0.814,-0.41625 -0.1415,-0.22892 -0.2563,-4.43554 -0.255,-9.34799 0,-7.70509 0.087,-8.99328 0.6149,-9.37972 0.3369,-0.24638 0.4917,-0.56889 0.3439,-0.71668 -0.1477,-0.1478 0.2462,-0.68953 0.8755,-1.20385 l 1.1442,-0.9351 34.526,-0.0139 c 34.4481,-0.0139 34.5281,-0.0121 35.5529,0.79389 1.2022,0.94555 1.1401,0.36332 1.2326,11.54017 0.069,8.29511 0.037,8.70464 -0.7116,9.31115 -0.431,0.34893 -0.8412,1.13971 -0.9116,1.75729 -0.1164,1.02075 -0.2775,1.13369 -1.7706,1.24172 -1.3063,0.0945 -1.6423,0.26716 -1.6423,0.84382 0,0.50301 -0.3245,0.76246 -1.0594,0.84729 -0.6016,0.0694 -1.1107,0.39254 -1.1779,0.74761 -0.093,0.48899 0.2961,0.66517 1.783,0.80803 1.1061,0.10629 2.4126,0.54681 3.1239,1.0533 0.6725,0.47883 1.5014,0.9115 1.8419,0.96148 0.8892,0.1305 1.6716,1.3549 1.6716,2.61562 0,0.59702 0.1927,1.08548 0.4284,1.08548 0.2663,0 0.3346,-0.37321 0.1807,-0.98637 -0.2202,-0.87743 -0.1663,-0.94296 0.4868,-0.59335 0.8942,0.47856 0.7149,2.14479 -0.3583,3.32878 -0.5807,0.64065 -0.7298,1.55372 -0.8203,5.02379 l -0.1105,4.24086 -2.0288,1.308 c -1.1159,0.7194 -2.0289,1.54542 -2.0289,1.83561 0,0.29019 -0.2608,0.52762 -0.5797,0.52762 -0.3188,0 -0.5796,0.23663 -0.5796,0.52583 0,0.64883 -2.6997,1.01193 -7.5585,1.01659 -4.104,0.004 -4.9424,-0.39734 -4.9248,-2.35722 0.01,-0.72086 -0.1616,-1.53018 -0.3734,-1.79848 -0.6422,-0.81371 -1.3364,0.15015 -1.3364,1.85568 0,0.85465 -0.1249,1.67907 -0.2776,1.83204 -0.1527,0.15296 -1.8285,0.3389 -3.724,0.41318 -1.8955,0.0743 -3.4462,0.28932 -3.4462,0.47787 0,0.18853 0.6521,0.61818 1.4491,0.95474 1.1951,0.50465 2.9736,0.60054 10.1442,0.54693 11.7392,-0.0877 14.0167,-0.0334 14.6188,0.34823 0.4026,0.25523 0.5145,2.25292 0.5182,9.24885 0,4.90781 -0.1084,9.10616 -0.2466,9.32967 -0.1381,0.2235 -0.5017,0.40637 -0.808,0.40637 -0.3787,0 -0.5568,0.43254 -0.5568,1.35256 0,1.3454 -0.01,1.35255 -1.739,1.35255 -1.4814,0 -1.739,0.11451 -1.739,0.77289 0,0.60114 -0.2576,0.77289 -1.1594,0.77289 -0.8711,0 -1.1593,-0.17805 -1.1593,-0.71618 0,-0.61314 -0.4257,-0.75217 -2.9587,-0.96629 -2.3128,-0.19551 -3.2351,-0.46096 -4.2251,-1.21604 -0.6965,-0.53127 -1.425,-0.96594 -1.6187,-0.96594 -0.1938,0 -0.6402,-0.31802 -0.9919,-0.7067 -0.5399,-0.59652 -0.6396,-1.68504 -0.6396,-6.98144 0,-3.49896 0.1733,-6.59837 0.3915,-7.00638 0.2154,-0.40242 1.1719,-1.07681 2.1256,-1.49864 1.9177,-0.84832 2.3548,-1.96977 0.7677,-1.96977 -0.787,0 -0.9733,0.19705 -1.0047,1.06273 l -0.039,1.06271 -0.2667,-0.96611 c -0.2245,-0.8134 -0.5323,-0.9853 -1.9469,-1.08755 l -1.6802,-0.12143 0.2537,1.2687 c 0.1557,0.77872 0.116,1.12411 -0.1025,0.89432 -0.196,-0.2059 -0.418,-0.72217 -0.4936,-1.14726 -0.1961,-1.10408 -3.0292,-1.37406 -3.0292,-0.28868 0,0.47293 0.4835,0.91383 1.3941,1.27107 2.6515,1.04041 2.8568,1.64851 2.8568,8.46378 0,4.27918 -0.1438,6.2537 -0.4896,6.72677 -0.5018,0.68623 -1.8823,1.59411 -3.0849,2.02889 -0.372,0.13446 -0.6764,0.37568 -0.6764,0.53606 0,0.16037 -0.8695,0.40693 -1.9322,0.5479 -1.0627,0.14099 -1.9322,0.42423 -1.9322,0.62946 0,0.20522 0.1618,0.37313 0.3595,0.37313 0.1978,0 0.4152,0.39128 0.4831,0.8695 0.1143,0.80516 0.3462,0.87788 3.1343,0.98266 2.8174,0.10589 3.0346,0.17586 3.382,1.08954 0.2042,0.53702 0.2729,1.3685 0.1525,1.84775 -0.2908,1.1588 0.6829,2.03661 1.3573,1.22377 0.2584,-0.31124 0.364,-0.89907 0.2348,-1.30629 -0.1293,-0.40721 -0.061,-1.1981 0.1517,-1.75754 l 0.3867,-1.01716 5.6654,0 c 5.5771,0 5.6795,0.0153 6.5791,0.98603 0.5026,0.54231 0.9138,1.13068 0.9138,1.30749 0,0.17679 0.3043,0.43147 0.6763,0.56593 0.8483,0.30663 2.1435,1.07128 2.9537,1.74369 0.5129,0.42569 0.6209,1.40373 0.6209,5.62509 0,4.61902 0.074,5.17698 0.7729,5.80925 0.9786,0.88559 1.0852,3.28479 0.1459,3.28479 -0.4959,0 -0.5323,-0.11399 -0.1744,-0.54526 0.3221,-0.38821 0.3313,-0.62016 0.032,-0.80529 -0.2314,-0.14302 -0.7742,0.18931 -1.2061,0.73849 -0.4321,0.54917 -1.0337,0.99851 -1.3371,0.99851 -0.7075,0 -0.7247,1.67597 -0.029,2.81532 0.2875,0.47075 0.5617,1.72541 0.6095,2.78813 0.048,1.06273 0.2473,2.09743 0.4434,2.29935 0.1961,0.20193 0.3566,1.1182 0.3566,2.03621 0,1.58738 0.047,1.6572 0.9661,1.42659 1.0198,-0.25595 1.0427,-0.21311 1.0541,1.96676 0.014,2.59976 -0.075,2.89835 -0.8609,2.89835 -0.6232,0 -0.7729,0.25763 -0.7729,1.32975 0,0.73136 0.1739,1.43722 0.3865,1.56858 0.2125,0.13137 0.3864,0.91391 0.3864,1.73901 0,0.82509 -0.1739,1.60765 -0.3864,1.73901 -0.2126,0.13135 -0.3865,0.48942 -0.3865,0.7957 0,0.85222 8.5835,0.80637 9.4403,-0.0504 0.334,-0.334 0.6073,-0.76875 0.6073,-0.96612 0,-0.68988 0.847,-0.35195 1.0484,0.41828 0.2196,0.83975 1.4217,1.296 2.8734,1.09052 0.8848,-0.12525 0.9088,-0.23011 0.9088,-3.99258 0,-3.60614 -0.052,-3.86397 -0.7729,-3.86445 -0.8814,-7.7e-4 -1.1909,-1.387 -0.7883,-3.53214 0.1931,-1.02968 0.4081,-1.26644 1.0846,-1.19491 0.7168,0.0758 0.8777,-0.15313 1.0682,-1.51976 0.1234,-0.88492 0.4527,-1.88424 0.7321,-2.2207 0.2791,-0.33646 0.5796,-1.87315 0.6676,-3.41485 0.088,-1.5417 0.2248,-3.1074 0.3041,-3.47936 0.081,-0.37811 -0.083,-0.67627 -0.3714,-0.67627 -0.2835,0 -0.9794,-0.56518 -1.5464,-1.25595 l -1.0307,-1.25595 0.2168,1.23879 c 0.1727,0.98628 0.1006,1.19423 -0.3531,1.0201 -1.1083,-0.42532 -1.1245,-2.03419 -0.032,-3.17468 0.9888,-1.03212 1.0142,-1.18545 1.0142,-6.09809 0,-4.39126 0.091,-5.12162 0.7067,-5.67892 0.3888,-0.35177 0.8669,-0.64536 1.0627,-0.65243 0.5483,-0.0198 2.0951,-1.41132 2.0951,-1.8847 0,-0.23161 0.3275,-0.42111 0.7278,-0.42111 0.4028,0 0.8181,-0.34513 0.9299,-0.77289 0.1908,-0.72936 0.5271,-0.77289 5.973,-0.77289 5.7159,0 5.7749,0.009 6.1933,0.92721 0.2323,0.50997 0.3267,1.29345 0.2096,1.74107 -0.117,0.4476 0.01,1.07756 0.2735,1.39989 0.4289,0.51659 0.5513,0.49336 1.0342,-0.19596 0.3013,-0.43011 0.4515,-0.93774 0.3339,-1.12809 -0.1178,-0.19033 -0.1061,-0.88563 0.026,-1.54509 l 0.2398,-1.19903 5.1686,0 c 4.7071,0 5.942,-0.24946 4.7823,-0.96612 -0.2125,-0.13136 -0.3864,-0.55085 -0.3864,-0.93221 0,-0.58501 -0.4647,-0.73266 -2.9731,-0.94469 -1.635,-0.13823 -3.0697,-0.3938 -3.1881,-0.56795 -0.1184,-0.17415 -0.476,-0.44119 -0.7948,-0.59345 -3.5526,-1.69638 -3.4781,-1.50943 -3.4781,-8.72824 0,-7.13711 -0.012,-7.1015 2.8627,-8.53945 0.618,-0.30913 1.2034,-0.86638 1.301,-1.23833 0.098,-0.37196 0.4118,-0.67628 0.6984,-0.67628 0.2866,0 0.7035,-0.34081 0.9263,-0.75736 0.3437,-0.64203 0.8899,-0.77441 3.5883,-0.8695 3.1075,-0.1095 3.1828,-0.13502 3.1828,-1.07826 l 0,-0.96611 -5.4257,0.13731 c -6.0939,0.15424 -6.5448,-0.0181 -6.4752,-2.47488 0.038,-1.33014 -0.705,-2.3623 -1.3937,-1.9367 -0.2103,0.13002 -0.3542,0.9458 -0.3195,1.81285 0.091,2.26943 -0.6247,2.65539 -4.9125,2.65128 -4.8587,-0.005 -7.5584,-0.36776 -7.5584,-1.01659 0,-0.28921 -0.3478,-0.52584 -0.7729,-0.52584 -0.4993,0 -0.7729,-0.25763 -0.7729,-0.72781 0,-0.40031 -0.3044,-0.83784 -0.6763,-0.9723 -1.1349,-0.41027 -2.5016,-1.293 -2.848,-1.83956 -0.1806,-0.2849 -0.331,-2.31885 -0.3342,-4.5199 -0.01,-3.70042 -0.079,-4.08837 -0.9721,-5.15005 -1.1662,-1.38594 -1.2351,-2.46349 -0.1932,-3.02108 0.791,-0.42333 1.1407,0.11351 0.3801,0.58356 -0.4414,0.27281 -0.1436,0.96221 0.4156,0.96221 0.2,0 0.3637,-0.483 0.3637,-1.07334 0,-1.17413 1.0234,-2.92075 1.5284,-2.6086 0.1739,0.10748 0.5311,-0.0635 0.7937,-0.37999 0.2627,-0.31647 0.7027,-0.57541 0.9777,-0.57541 0.2752,0 0.57,-0.20957 0.6554,-0.46571 0.086,-0.25614 1.0999,-0.56047 2.2543,-0.67628 1.5146,-0.15194 2.0991,-0.37196 2.0991,-0.79023 0,-0.34509 -0.4302,-0.62915 -1.0628,-0.70195 -0.7383,-0.0849 -1.0627,-0.34365 -1.0627,-0.84728 0,-0.57668 -0.3361,-0.74931 -1.6424,-0.84384 -1.5416,-0.11154 -1.6499,-0.19592 -1.7635,-1.37478 -0.072,-0.74651 -0.3358,-1.25594 -0.6503,-1.25594 -0.291,0 -0.649,-0.3779 -0.7956,-0.83976 -0.3378,-1.06435 -0.3305,-17.52705 0.01,-18.07481 0.1385,-0.22423 0.5238,-0.4077 0.8561,-0.4077 0.491,0 0.5149,-0.10764 0.1268,-0.57509 -0.39,-0.46999 -0.3457,-0.62359 0.2426,-0.84037 0.3959,-0.14589 0.8589,-0.49575 1.0288,-0.77745 0.2529,-0.41916 6.5626,-0.51221 34.7346,-0.51221 34.2005,0 34.4338,0.005 35.7269,0.80441 1.2911,0.79787 1.7016,1.51426 0.8678,1.51426 -0.3013,0 -0.2881,0.17548 0.043,0.57477 0.3488,0.42029 0.4734,2.96204 0.4635,9.45674 -0.01,4.88508 -0.1241,9.06088 -0.2593,9.27958 -0.1351,0.2187 -0.4852,0.39763 -0.7782,0.39763 -0.3181,0 -0.581,0.50536 -0.6534,1.25594 -0.1137,1.17886 -0.2218,1.26324 -1.7634,1.37478 -1.3064,0.0945 -1.6424,0.26716 -1.6424,0.84384 0,0.50363 -0.3246,0.76234 -1.0627,0.84728 -0.6328,0.0728 -1.0628,0.35686 -1.0628,0.70195 0,0.4132 0.6074,0.65379 2.1149,0.83777 1.1631,0.14195 2.1776,0.44628 2.2543,0.67627 0.077,0.23 0.3644,0.41818 0.6395,0.41818 0.275,0 0.7201,0.26506 0.989,0.58902 0.2689,0.32394 0.5803,0.49747 0.6922,0.3856 0.4961,-0.49606 1.6187,1.17003 1.6187,2.40227 0,0.89235 0.1577,1.26972 0.483,1.15596 0.2657,-0.0929 0.4278,-0.47363 0.3601,-0.84609 -0.077,-0.42104 0.07,-0.61368 0.3864,-0.5093 0.8885,0.29278 0.7766,1.69915 -0.2303,2.89588 -0.8956,1.06437 -0.9816,1.50328 -1.0827,5.52953 l -0.1098,4.37341 -1.1593,0.71138 c -0.6376,0.39127 -1.4579,0.81509 -1.8228,0.94183 -0.3649,0.12675 -0.7679,0.55947 -0.8955,0.96162 -0.1277,0.40214 -0.4813,0.73116 -0.7857,0.73116 -0.3045,0 -0.5536,0.23663 -0.5536,0.52584 0,0.34577 -0.6948,0.60929 -2.0289,0.76953 -2.7698,0.33269 -8.8881,0.30322 -9.41,-0.0453 -0.7652,-0.51095 -1.2458,-1.81808 -1.0484,-2.85125 0.1066,-0.55731 0,-1.13562 -0.2459,-1.28509 -0.7769,-0.4801 -1.4599,0.52973 -1.4599,2.15824 0,0.92902 -0.2214,1.72365 -0.5358,1.92272 -0.6128,0.38805 -7.9248,0.46267 -10.1003,0.10309 -0.8523,-0.14089 -1.4492,-0.45744 -1.4492,-0.76864 0,-0.29101 -0.3477,-0.5291 -0.7729,-0.5291 -0.425,0 -0.7728,-0.25474 -0.7728,-0.56608 0,-0.4946 -1.0932,-1.36616 -1.7136,-1.36616 -0.1202,0 -0.2186,0.76983 -0.2186,1.71071 0,2.80721 0.6871,2.98137 11.4286,2.89682 6.5469,-0.0516 9.1586,0.0592 9.8265,0.41661 0.6391,0.34206 2.7171,0.46552 6.9881,0.4152 4.4229,-0.0521 6.1577,0.0565 6.369,0.39852 0.344,0.55645 0.3186,17.95159 -0.027,18.51066 -0.1305,0.2112 -0.4879,0.38399 -0.7942,0.38399 -0.3788,0 -0.5568,0.43254 -0.5568,1.35257 0,1.3255 -0.032,1.35255 -1.582,1.35255 -1.257,0 -1.6235,0.15879 -1.7841,0.77289 -0.2772,1.06001 -2.4307,1.11026 -2.4307,0.0567 0,-0.61344 -0.4265,-0.75224 -2.9729,-0.9675 -1.6352,-0.13822 -3.0699,-0.3938 -3.1882,-0.56795 -0.1183,-0.17415 -0.476,-0.44119 -0.7949,-0.59344 -3.5528,-1.69657 -3.478,-1.5085 -3.478,-8.73571 0,-7.14879 -0.055,-6.9813 2.771,-8.49495 1.2482,-0.66866 2.1295,-2.24831 1.0338,-1.85314 -0.286,0.10315 -1.1065,-0.0507 -1.8231,-0.34194 -0.7167,-0.2912 -1.9123,-0.52947 -2.6568,-0.52947 -1.3185,0 -1.3472,0.0323 -1.1049,1.24387 0.1527,0.76382 0.1113,1.0994 -0.1074,0.86951 -0.196,-0.2059 -0.418,-0.72217 -0.4937,-1.14726 -0.1077,-0.60565 -0.4921,-0.7986 -1.7765,-0.89172 -0.9694,-0.0703 -1.6391,0.0481 -1.6391,0.28983 0,0.22477 0.1537,0.40867 0.3415,0.40867 0.1877,0 0.4211,0.30432 0.5187,0.67628 0.098,0.37195 0.6831,0.9292 1.301,1.23834 2.8745,1.43794 2.8627,1.40233 2.8627,8.53944 0,7.21881 0.075,7.03186 -3.4781,8.72825 -0.3188,0.15225 -0.6839,0.43135 -0.8114,0.62023 -0.1275,0.18888 -1.5621,0.44404 -3.1881,0.56703 -2.4675,0.1866 -2.9565,0.33495 -2.9565,0.89684 0,0.45028 -0.3781,0.72875 -1.1416,0.8408 -0.9264,0.13597 -1.1631,0.0169 -1.2558,-0.63242 -0.085,-0.59002 -0.4441,-0.83175 -1.3704,-0.92106 -1.2048,-0.11615 -1.256,-0.0649 -1.256,1.25595 0,0.75736 -0.1738,1.37704 -0.3865,1.37704 -0.2125,0 -0.3863,0.76619 -0.3863,1.70264 0,1.67661 0.014,1.69582 0.9631,1.25595 0.5296,-0.24568 0.9644,-0.65236 0.9661,-0.90371 0,-0.25136 0.3508,-0.56741 0.7758,-0.70232 0.4252,-0.13493 0.7729,-0.49444 0.7729,-0.79893 0,-0.45598 1.0242,-0.55363 5.8063,-0.55363 l 5.8062,0 0.3867,1.01716 c 0.2127,0.55944 0.2915,1.31743 0.175,1.68444 -0.2477,0.78045 0.7307,1.73971 1.3709,1.34405 0.2418,-0.14949 0.3539,-0.72083 0.249,-1.26966 -0.1049,-0.54882 -0.039,-1.39794 0.1472,-1.88693 0.3314,-0.87145 0.4492,-0.88906 5.9491,-0.88906 l 5.6111,0 1.9734,1.93222 c 1.0853,1.06273 2.1895,1.93223 2.4539,1.93223 0.2644,0 0.7685,0.31802 1.1202,0.70671 0.5264,0.58159 0.6396,1.59943 0.6396,5.74937 0,4.08961 0.1134,5.13688 0.6008,5.54124 0.9377,0.77833 1.3967,1.87263 1.1336,2.7022 -0.3538,1.11451 -0.961,0.92314 -0.9659,-0.30442 l -0.01,-1.06273 -0.9898,1.25595 c -0.5444,0.69077 -1.2148,1.25595 -1.4897,1.25595 -0.3893,0 -0.4165,0.36281 -0.1233,1.64238 0.2069,0.90332 0.4599,2.64232 0.562,3.86446 0.1022,1.22213 0.3347,2.22206 0.5168,2.22206 0.1819,0 0.3839,0.82603 0.4486,1.83562 0.1071,1.66895 0.2056,1.83561 1.084,1.83561 0.9231,0 0.9662,0.10306 0.9662,2.31867 0,2.06104 -0.086,2.31868 -0.773,2.31868 -0.7026,0 -0.7832,0.29538 -0.8862,3.24885 -0.1247,3.58306 0.235,4.44415 1.3249,3.17117 0.8009,-0.93541 1.6868,-1.07594 1.6868,-0.2676 0,0.62564 2.2397,1.24588 2.694,0.74608 0.1645,-0.18091 0.2136,-1.82887 0.1091,-3.66213 -0.1725,-3.02656 -0.2568,-3.31572 -0.9169,-3.14311 -0.6584,0.17218 -0.7269,-0.0549 -0.7269,-2.40876 0,-2.54898 0.018,-2.59439 0.9258,-2.36648 1.0204,0.25607 1.3929,-0.27487 1.3929,-1.98538 0,-0.55038 0.2677,-1.29655 0.595,-1.65816 0.3863,-0.42689 0.6753,-1.7953 0.8239,-3.90179 l 0.229,-3.2443 -1.4043,-1.40429 c -1.3793,-1.37936 -2.0412,-1.4267 -1.5359,-0.10985 0.18,0.46922 0.095,0.61411 -0.2885,0.48813 -0.8666,-0.28504 -0.8562,-1.97237 0.018,-2.91072 0.7106,-0.76271 0.7898,-1.34645 0.7898,-5.82031 0,-5.49719 0.027,-5.56167 2.9949,-7.26033 0.6908,-0.39531 1.256,-0.92181 1.256,-1.17002 0,-0.2482 0.3478,-0.54223 0.7729,-0.65339 0.4251,-0.11117 0.7728,-0.47925 0.7728,-0.81796 0,-0.53591 0.7464,-0.61585 5.7494,-0.61585 6.4332,0 6.6516,0.084 6.7519,2.59774 0.067,1.69336 1.1998,2.14319 1.2429,0.49382 0.014,-0.53136 0.1476,-1.44434 0.2971,-2.02883 l 0.272,-1.06273 5.2096,0 c 4.3732,0 5.2097,-0.0931 5.2097,-0.57967 0,-0.31882 -0.174,-0.57967 -0.3864,-0.57967 -0.2125,0 -0.3865,-0.32228 -0.3865,-0.71618 0,-0.61314 -0.4257,-0.75217 -2.9587,-0.96629 -2.1918,-0.18527 -3.2687,-0.47749 -4.1543,-1.12729 -0.6576,-0.48245 -1.6738,-1.1204 -2.2584,-1.41768 l -1.0626,-0.54051 0,-6.52967 c 0,-3.67117 0.1714,-6.84998 0.3915,-7.26135 0.2154,-0.40242 1.1719,-1.07681 2.1255,-1.49864 0.9828,-0.43477 1.7339,-1.02747 1.7339,-1.36838 0,-0.33077 0.2608,-0.60139 0.5796,-0.60139 0.3189,0 0.5797,-0.24225 0.5797,-0.53833 0,-0.79837 0.8888,-1.00746 4.2825,-1.00746 l 3.06,0 0,-1.08296 0,-1.08296 -5.7117,0.16226 c -6.5124,0.185 -6.7501,0.0891 -6.8121,-2.74677 -0.026,-1.1718 -0.1976,-1.62592 -0.6154,-1.62592 -0.4219,0 -0.5894,0.46248 -0.6156,1.69983 -0.051,2.41821 -0.6691,2.7443 -5.2009,2.7443 -4.8672,0 -7.3226,-0.34156 -7.3226,-1.01864 0,-0.28993 -0.3477,-0.52714 -0.7728,-0.52714 -0.4993,0 -0.7729,-0.25764 -0.7729,-0.72782 0,-0.40031 -0.3044,-0.83783 -0.6763,-0.97229 -1.2028,-0.43479 -2.5832,-1.34266 -3.085,-2.0289 -0.3226,-0.44129 -0.4896,-2.07349 -0.4896,-4.78676 0,-3.62637 -0.092,-4.20052 -0.773,-4.8166 -0.9405,-0.85115 -1.0007,-2.22942 -0.129,-2.94763 0.5803,-0.47814 0.6176,-0.42571 0.379,0.53235 -0.1587,0.63725 -0.107,1.06272 0.1292,1.06272 0.2165,0 0.3938,-0.35923 0.3938,-0.79829 0,-1.1539 0.6923,-2.27496 1.6659,-2.69729 1.1285,-0.48958 2.3341,-1.25561 2.6403,-1.67759 0.1369,-0.18842 1.1368,-0.42794 2.2222,-0.53223 1.6035,-0.15409 1.9734,-0.32525 1.9734,-0.91334 0,-0.51434 -0.2796,-0.72373 -0.9661,-0.72373 -0.7084,0 -0.9661,-0.2061 -0.9661,-0.77288 0,-0.65839 -0.2577,-0.77289 -1.739,-0.77289 -1.7298,0 -1.739,-0.007 -1.739,-1.35257 0,-0.92002 -0.1781,-1.35255 -0.557,-1.35255 -0.3062,0 -0.6725,-0.18731 -0.8141,-0.41624 -0.1414,-0.22893 -0.2562,-4.43555 -0.2549,-9.348 0,-7.32041 0.1025,-9.00569 0.5582,-9.34151 0.3057,-0.22536 0.4789,-0.6386 0.3846,-0.91833 -0.094,-0.27972 0.1829,-0.60119 0.6157,-0.71436 0.4328,-0.11318 0.8804,-0.44949 0.9947,-0.74736 0.3018,-0.78641 69.5885,-0.81548 70.0628,-0.0293 0.1701,0.28171 0.6134,0.62404 0.9854,0.76076 0.8643,0.31768 0.8802,1.04572 0.023,1.04572 -0.6048,0 -0.6034,0.0367 0.018,0.49047 0.6016,0.43994 0.6733,1.40368 0.6955,9.35301 0.024,8.45198 -0.012,8.89191 -0.7587,9.49695 -0.4308,0.34893 -0.8411,1.13971 -0.9115,1.75729 -0.1165,1.02075 -0.2774,1.13368 -1.7704,1.24171 -1.3064,0.0945 -1.6425,0.26716 -1.6425,0.84383 0,0.50364 -0.3244,0.76235 -1.0627,0.84729 -1.7939,0.20641 -1.3191,1.25118 0.6763,1.48808 1.1364,0.13493 2.5424,0.74013 4.0577,1.74664 1.9382,1.28746 2.3385,1.745 2.4397,2.78848 0.067,0.68658 0.3028,1.24832 0.525,1.24832 0.24,0 0.3034,-0.40015 0.1563,-0.98637 -0.2254,-0.89811 -0.177,-0.94859 0.5412,-0.56421 0.9312,0.49835 0.7398,2.02401 -0.4142,3.29963 -0.5788,0.63991 -0.7284,1.55776 -0.8188,5.0238 l -0.1107,4.24082 -2.0289,1.308 c -1.1159,0.71941 -2.0289,1.54543 -2.0289,1.83562 0,0.29018 -0.2608,0.52761 -0.5796,0.52761 -0.3188,0 -0.5797,0.24601 -0.5797,0.54669 0,0.39803 -0.7795,0.61974 -2.8661,0.81528 -3.1906,0.29899 -8.909,0.13089 -9.3137,-0.27379 -0.1438,-0.14379 -0.2724,-0.92568 -0.286,-1.73753 -0.013,-0.81185 -0.1935,-1.69562 -0.4002,-1.96392 -0.6304,-0.81857 -1.327,0.1556 -1.327,1.85568 0,0.85465 -0.1246,1.6784 -0.2768,1.83056 -0.4174,0.4175 -6.0842,0.59305 -9.3287,0.289 -2.0867,-0.19554 -2.8662,-0.41725 -2.8662,-0.81528 0,-0.30068 -0.2608,-0.54669 -0.5797,-0.54669 -0.3187,0 -0.5796,-0.25473 -0.5796,-0.56607 0,-0.51739 -1.4451,-1.5996 -1.737,-1.30085 -0.069,0.0704 -0.031,0.95394 0.083,1.96354 0.1632,1.43739 0.3602,1.83561 0.9081,1.83561 0.385,0 0.8147,0.18566 0.955,0.41256 0.1716,0.27768 3.2456,0.38423 9.403,0.32592 6.7213,-0.0637 9.3874,0.0415 10.0503,0.3963 0.6148,0.329 2.706,0.47061 6.5607,0.44425 3.1121,-0.0213 5.8952,0.11526 6.1847,0.30343 0.4198,0.27289 0.5237,2.14896 0.5128,9.26624 -0.01,4.90826 -0.1243,9.10304 -0.2594,9.32173 -0.1351,0.21869 -0.4963,0.39762 -0.8026,0.39762 -0.3788,0 -0.5568,0.43254 -0.5568,1.35257 0,1.3454 -0.01,1.35255 -1.739,1.35255 -1.4814,0 -1.7391,0.11451 -1.7391,0.77289 0,0.60114 -0.2576,0.77289 -1.1593,0.77289 -0.8711,0 -1.1593,-0.17806 -1.1593,-0.71618 0,-0.61314 -0.4257,-0.75217 -2.9587,-0.96629 -2.3129,-0.19551 -3.2352,-0.46097 -4.2251,-1.21604 -0.6966,-0.53127 -1.425,-0.96594 -1.6187,-0.96594 -0.1939,0 -0.6403,-0.31802 -0.992,-0.70671 -0.9195,-1.01606 -0.9513,-12.97469 -0.038,-14.27868 0.3308,-0.47238 0.8177,-0.85888 1.082,-0.85888 0.2642,0 0.6978,-0.21737 0.9635,-0.48305 0.2656,-0.26568 0.6894,-0.48306 0.9415,-0.48306 0.2521,0 0.522,-0.32969 0.5995,-0.73266 0.097,-0.50167 -0.03,-0.66713 -0.4006,-0.52479 -0.2979,0.11432 -0.9677,-0.0281 -1.4884,-0.31637 -0.5206,-0.28833 -1.5987,-0.5304 -2.3957,-0.53793 -1.2919,-0.0122 -1.4492,0.0912 -1.4492,0.95242 0,0.53135 -0.1739,0.96611 -0.3864,0.96611 -0.2126,0 -0.3865,-0.43476 -0.3865,-0.96611 0,-0.88739 -0.1418,-0.96612 -1.7391,-0.96612 -0.9564,0 -1.7389,0.1739 -1.7389,0.38644 0,0.21256 0.1739,0.38646 0.3865,0.38646 0.2125,0 0.3863,0.31534 0.3863,0.70076 0,0.44612 0.5066,0.89951 1.3941,1.24774 2.6449,1.03777 2.8568,1.65881 2.8568,8.36982 0,6.22085 -0.2143,7.23245 -1.6658,7.86218 -1.0666,0.46273 -2.3264,1.24716 -2.607,1.62344 -0.1183,0.15864 -1.5765,0.40352 -3.2404,0.54417 -2.4868,0.21021 -3.0581,0.38238 -3.2112,0.96749 -0.2583,0.98791 -1.878,0.94165 -2.1402,-0.0611 -0.1366,-0.52227 -0.5272,-0.77289 -1.2045,-0.77289 -0.8515,0 -1.0022,0.17093 -1.0022,1.13654 0,0.62508 -0.1739,1.24399 -0.3864,1.37536 -0.2126,0.13136 -0.3865,0.90789 -0.3865,1.72563 0,1.29654 0.099,1.46092 0.7729,1.28468 0.4251,-0.11117 0.7729,-0.34678 0.7729,-0.52357 0,-0.17681 0.4112,-0.76518 0.9138,-1.30749 0.8996,-0.97067 1.002,-0.98602 6.5792,-0.98602 l 5.6653,0 0.3867,1.01715 c 0.2126,0.55944 0.2809,1.35033 0.1518,1.75754 -0.1293,0.40722 -0.024,0.99505 0.2346,1.30629 0.6746,0.81284 1.6483,-0.065 1.3574,-1.22377 -0.1203,-0.47925 -0.049,-1.31817 0.1587,-1.86429 l 0.3777,-0.99292 5.6652,0 c 5.5772,0 5.6796,0.0153 6.5792,0.98602 0.5025,0.54231 0.9138,1.13068 0.9138,1.30749 0,0.17679 0.3043,0.43147 0.6763,0.56593 0.8482,0.30663 2.1435,1.07128 2.9537,1.74369 0.5123,0.42512 0.6209,1.3987 0.6209,5.56347 0,4.38777 0.095,5.15255 0.7222,5.84597 1.0462,1.15581 1.385,2.88037 0.6232,3.1727 -0.7845,0.30105 -1.2867,-0.19452 -0.6167,-0.60861 0.3734,-0.23073 0.3924,-0.39174 0.07,-0.59104 -0.2519,-0.15566 -0.7823,0.1572 -1.2286,0.72458 -0.432,0.54917 -1.0337,0.99851 -1.3371,0.99851 -0.722,0 -0.7093,1.46027 0.029,3.22517 0.3188,0.76304 0.5797,2.07827 0.5797,2.92273 0,0.84447 0.1739,1.64287 0.3864,1.77423 0.2126,0.13137 0.3864,1.00039 0.3864,1.93117 0,1.60116 0.057,1.68842 1.0494,1.61959 1.0164,-0.0705 1.0479,-0.0123 1.0054,1.85947 -0.066,2.90054 -0.065,2.89835 -0.8954,2.89835 -0.6698,0 -0.7729,0.25763 -0.7729,1.93222 0,2.34015 0.062,2.35112 5.4102,0.96611 2.0192,-0.52284 4.6509,-0.9541 5.8483,-0.95836 l 2.1771,-0.008 0.1598,-2.51082 c 0.088,-1.38095 0.3521,-2.70302 0.587,-2.93794 0.2828,-0.28276 4.2607,-0.49557 11.7684,-0.6296 l 11.3412,-0.20247 2.5084,-2.75288 c 4.5028,-4.94191 8.5065,-9.30439 9.3792,-10.22 0.4707,-0.49365 1.336,-0.9936 1.9231,-1.11102 0.8061,-0.16122 1.0675,-0.43822 1.0675,-1.1313 0,-0.63978 0.2194,-0.91781 0.7244,-0.91781 0.3986,0 1.268,-0.10868 1.9323,-0.24152 0.8433,-0.16866 1.2077,-0.0941 1.2077,0.24723 0,1.07596 1.3047,1.48226 4.0577,1.26358 1.4878,-0.11818 2.937,-0.39855 3.2205,-0.62307 0.2957,-0.23414 2.1906,-0.38728 4.4441,-0.35918 2.1608,0.0269 5.6242,-0.14168 7.6965,-0.37473 3.5215,-0.39603 3.7679,-0.48047 3.7679,-1.29129 0,-0.81793 0.2155,-0.88585 3.7679,-1.18733 2.0722,-0.17588 6.1154,-0.30505 8.9848,-0.28706 4.5024,0.0281 5.614,0.16643 8.1153,1.00892 2.9626,0.99783 12.6734,2.17795 13.5358,1.64495 0.5859,-0.36213 -0.737,-1.31831 -1.8459,-1.33399 -0.7709,-0.0109 -0.8694,-0.20915 -0.8694,-1.75129 0,-1.647 0.057,-1.73901 1.0821,-1.73901 0.5952,0 1.2907,0.20868 1.5457,0.46373 0.3608,0.36069 0.4639,0.31577 0.4639,-0.20213 0,-0.60785 0.078,-0.61463 0.8973,-0.0779 0.6007,0.39359 2.2941,0.65715 5.1204,0.79698 8.5516,0.42307 9.0536,0.50965 9.0536,1.56188 0,0.91616 -0.067,0.93537 -3.2849,0.93537 -2.6122,0 -3.2847,0.11476 -3.2847,0.56046 0,0.30826 -0.28,0.71709 -0.622,0.90853 -0.5556,0.31096 -0.5453,0.37823 0.097,0.63093 0.3952,0.15557 2.3207,0.43725 4.2789,0.62595 2.0656,0.19905 5.5538,0.94168 8.3086,1.76887 5.168,1.55179 7.3196,2.89224 9.0549,5.64103 0.698,1.10571 1.1755,1.45793 1.978,1.45901 0.9644,8.4e-4 5.7932,1.69571 6.9511,2.43915 0.2657,0.17059 0.4831,0.98523 0.4831,1.81033 0,0.82509 0.1645,1.60181 0.3654,1.72604 0.2011,0.12422 2.2326,0.56889 4.5145,0.98815 2.282,0.41925 6.8563,1.57317 10.1652,2.56427 4.9798,1.4916 6.1868,1.99823 7.0066,2.9413 0.8349,0.96008 1.2869,1.14329 2.8739,1.1646 1.2933,0.0174 2.5294,0.37016 3.9461,1.12615 1.1347,0.60547 2.9717,1.4439 4.0823,1.86317 2.3543,0.88877 4.8156,3.06878 5.1439,4.55608 0.1263,0.57197 0.3956,1.58761 0.5984,2.25699 0.2029,0.66936 0.2536,1.6763 0.1128,2.23763 -0.1693,0.67464 -0.056,1.24456 0.3351,1.6813 0.3641,0.40689 0.5958,1.42423 0.603,2.64823 0.01,1.09315 0.2827,2.636 0.6139,3.4286 0.8972,2.14742 0.7732,3.84557 -0.364,4.98277 -0.5314,0.53136 -0.9662,1.14792 -0.9662,1.37013 0,0.25539 1.4927,0.404 4.0577,0.404 l 4.0577,0 0,1.14725 0,1.14723 -3.0818,-0.23765 c -2.8235,-0.21772 -3.1942,-0.16056 -4.4242,0.68224 -0.7384,0.50592 -1.8053,1.6521 -2.371,2.54704 -1.081,1.71031 -2.1933,2.22912 -4.8079,2.24261 -1.3125,0.007 -1.356,0.0554 -1.471,1.64037 -0.1126,1.55332 -0.1978,1.65662 -1.739,2.10665 -0.8913,0.26027 -1.7213,0.61781 -1.8445,0.79454 -0.123,0.17673 -1.7751,0.4004 -3.6712,0.49706 -1.896,0.0966 -5.1864,0.47314 -7.3118,0.83664 -2.9949,0.5122 -6.1254,0.65656 -13.912,0.64159 l -10.0476,-0.0194 -5.4103,-1.61163 c -2.9756,-0.8864 -5.8707,-1.86795 -6.4337,-2.18124 -0.9219,-0.5131 -1.1855,-0.49704 -2.6572,0.16189 -1.4984,0.67082 -1.7499,0.68338 -3.0343,0.15154 -0.7701,-0.31896 -1.5743,-0.71559 -1.7867,-0.8814 -0.8866,-0.69165 -2.9182,-0.79425 -4.8882,-0.24688 -1.1374,0.31601 -5.6329,1.03284 -9.99,1.59294 -7.2471,0.9316 -8.141,1.1315 -10.4906,2.34592 -1.4126,0.73015 -3.0647,1.32851 -3.6712,1.32969 -0.6066,8.5e-4 -1.7745,0.18867 -2.5955,0.41662 -0.821,0.22796 -4.3446,0.44436 -7.8303,0.48091 -5.8253,0.0611 -6.3556,0.01 -6.561,-0.6378 -0.1471,-0.464 -0.4413,-0.62058 -0.8623,-0.45904 -1.0963,0.42071 -30.8188,0.98103 -38.0324,0.71698 l -6.8594,-0.25109 0,-2.60491 c 0,-2.90421 -0.1506,-3.07405 -2.727,-3.07405 -1.097,0 -2.2566,0.45856 -4.28,1.69236 l -2.7755,1.69238 -1.8239,-0.75802 c -1.1013,-0.45764 -1.9947,-1.13256 -2.2547,-1.70322 -0.2369,-0.51986 -0.693,-1.04587 -1.0137,-1.16892 -0.3209,-0.12306 -0.5832,-0.55293 -0.5832,-0.95528 0,-0.67082 -0.3334,-0.73155 -4.0142,-0.73155 l -4.0143,0 -3.3614,-3.83087 c -3.2843,-3.7431 -4.8533,-4.81311 -5.747,-3.91943 -0.2243,0.22431 -0.7731,0.40784 -1.2198,0.40784 -0.7106,0 -0.8762,0.37352 -1.3283,2.99496 -0.284,1.64721 -0.7534,3.58136 -1.043,4.29808 -0.2896,0.71673 -0.5266,1.85578 -0.5266,2.53123 0,0.67543 -0.2173,1.45476 -0.483,1.73182 -0.389,0.40559 -0.3354,0.59012 0.2748,0.94679 0.4168,0.24368 1.2563,0.92126 1.8654,1.50577 1.3712,1.31588 1.585,1.32872 1.2707,0.0763 -0.2252,-0.89687 -0.1764,-0.94824 0.5377,-0.56608 0.432,0.23116 0.7853,0.50672 0.7853,0.61233 0,0.63643 -1.188,2.87234 -1.526,2.87234 -0.2636,0 -0.4062,1.80555 -0.4062,5.14314 0,3.54144 -0.1525,5.3517 -0.4896,5.81278 -0.5019,0.68624 -1.8824,1.59411 -3.0851,2.0289 -0.3719,0.13445 -0.6762,0.48503 -0.6762,0.77907 0,0.29402 -0.2609,0.5346 -0.5796,0.5346 -0.3189,0 -0.5797,0.24224 -0.5797,0.53831 0,0.29608 -0.2752,0.64388 -0.6113,0.77289 -1.1422,0.43829 -11.3056,0.26271 -11.5917,-0.20024 -0.1477,-0.23914 -0.2687,-1.10703 -0.2687,-1.92864 0,-1.73668 -0.7015,-2.58453 -1.421,-1.71753 -0.2583,0.31124 -0.3639,0.89906 -0.2346,1.30627 0.1291,0.40722 0.061,1.19812 -0.1517,1.75756 l -0.3868,1.01715 -5.3883,0 c -5.6923,0 -6.6107,-0.13996 -6.6107,-1.00746 0,-0.29607 -0.2608,-0.53831 -0.5797,-0.53831 -0.3187,0 -0.5796,-0.24058 -0.5796,-0.5346 0,-0.29404 -0.3477,-0.62555 -0.7729,-0.73672 -0.7219,-0.18879 -0.7729,-0.0119 -0.7729,2.68337 l 0,2.88549 1.4493,-0.11993 c 1.1639,-0.0963 1.4733,-0.29101 1.5726,-0.98944 0.088,-0.62132 0.3839,-0.86951 1.0358,-0.86951 0.652,0 0.9477,0.24819 1.0358,0.86951 0.113,0.79525 0.3767,0.886 3.0882,1.06271 2.2631,0.1475 3.2426,0.399 4.1386,1.06273 0.6457,0.47823 1.3247,0.86951 1.5087,0.86951 0.1841,0 0.7128,0.40248 1.1751,0.89441 0.7903,0.84135 0.8402,1.2611 0.8402,7.07537 0,4.37913 -0.1427,6.37618 -0.4897,6.8506 -0.4941,0.6757 -1.8689,1.58629 -3.0493,2.01954 -0.3522,0.12932 -0.7272,0.56685 -0.8332,0.97229 -0.106,0.40544 -0.4699,0.73717 -0.8086,0.73717 -0.3389,0 -0.6159,0.26085 -0.6159,0.57966 0,0.48554 -0.8158,0.57967 -5.0239,0.57967 l -5.0237,0 0,2.12544 c 0,1.44555 0.1545,2.12377 0.4831,2.12019 1.0919,-0.012 2.222,-0.50249 2.222,-0.96457 0,-0.82233 0.9889,-0.9624 6.7944,-0.9624 l 5.5719,0 0,0.96613 c 0,0.71242 0.2054,0.96611 0.7824,0.96611 0.479,0 0.9249,-0.37464 1.1498,-0.96611 0.3394,-0.89263 0.5665,-0.96938 2.9854,-1.00898 3.9707,-0.0651 7.9488,0.0652 8.7045,0.28483 0.3721,0.10811 0.6764,0.44569 0.6764,0.75019 0,0.3045 0.2608,0.55363 0.5797,0.55363 0.3187,0 0.5796,0.22535 0.5796,0.50079 0,0.27544 0.9129,1.02151 2.0288,1.65793 l 2.0289,1.15712 0.1101,4.42152 c 0.1014,4.06948 0.1844,4.49904 1.0427,5.39494 0.5129,0.53538 0.8876,1.27937 0.8328,1.65337 -0.1314,0.89466 -0.9279,1.67095 -1.3029,1.26975 -0.163,-0.17433 -0.078,-0.39495 0.1891,-0.49029 0.5263,-0.18789 0.2785,-0.88021 -0.3149,-0.88021 -0.2,0 -0.3637,0.49473 -0.3637,1.09943 0,0.99688 -0.9867,2.37858 -1.6987,2.37858 -0.1568,0 -0.8386,0.41628 -1.5153,0.92507 -0.7303,0.54918 -2.063,1.03618 -3.2798,1.19845 -1.6154,0.21548 -2.0232,0.40836 -1.925,0.91055 0.076,0.38725 0.5007,0.63717 1.0835,0.63717 0.693,0 0.9924,0.23518 1.0797,0.84843 0.099,0.69615 0.4113,0.86963 1.739,0.96612 1.5146,0.11013 1.626,0.19809 1.7393,1.37362 0.072,0.7506 0.3354,1.25595 0.6534,1.25595 0.2929,0 0.645,0.1821 0.7826,0.4046 0.4838,0.7829 0.2815,17.75254 -0.219,18.35543 -0.8421,1.01469 -11.9654,0.6311 -11.9654,-0.41265 0,-0.26441 -0.3478,-0.57171 -0.7728,-0.68289 -0.4251,-0.11114 -0.7728,-0.45894 -0.7728,-0.77289 0,-0.31391 -0.3044,-0.67597 -0.6764,-0.80454 -0.372,-0.12861 -1.1979,-0.55432 -1.8356,-0.94602 l -1.1593,-0.71222 0,-7.08636 0,-7.08637 1.1593,-0.68605 c 2.9889,-1.76877 3.6517,-2.00786 6.1832,-2.23049 2.0412,-0.1795 2.7051,-0.38018 2.7051,-0.81756 0,-0.34509 -0.4301,-0.62918 -1.0628,-0.70194 -0.7409,-0.0852 -1.0627,-0.34324 -1.0627,-0.85184 0,-0.63181 -0.3497,-0.74492 -2.6084,-0.84385 -2.2763,-0.0997 -2.6228,-0.21358 -2.7203,-0.89392 -0.1289,-0.89965 -2.7321,-1.92732 -3.347,-1.32126 -0.2019,0.19906 -0.668,0.36191 -1.0358,0.36191 -0.3993,0 -0.7186,0.35035 -0.7922,0.8695 -0.1027,0.7228 -0.4006,0.88956 -1.766,0.98833 -1.3277,0.0961 -1.6423,0.26263 -1.6423,0.8695 0,0.57647 -0.2691,0.75068 -1.1594,0.75068 -0.871,0 -1.1593,-0.17807 -1.1593,-0.71621 0,-0.61216 -0.423,-0.75194 -2.9135,-0.96244 -2.1987,-0.18588 -3.2635,-0.48421 -4.3405,-1.21607 -0.785,-0.53337 -1.6141,-0.96974 -1.8428,-0.96974 -0.8134,0 -1.7236,2.92551 -1.7236,5.54008 0,2.28953 0.083,2.57528 0.7484,2.57528 0.5618,0 0.7785,-0.31302 0.8694,-1.25595 0.1134,-1.17553 0.2248,-1.26349 1.7394,-1.37362 1.3278,-0.0965 1.64,-0.26997 1.7391,-0.96612 0.1796,-1.26313 2.1381,-1.42823 2.3128,-0.19496 0.1138,0.80241 0.3837,0.91444 2.6801,1.11201 2.4491,0.21072 5.0739,1.11623 5.5721,1.9224 0.13,0.21031 0.375,0.29671 0.5443,0.19198 0.1695,-0.10472 0.5964,0.12803 0.9487,0.51731 0.5549,0.61313 0.6263,1.62739 0.5347,7.59214 l -0.1058,6.88444 -1.1594,0.70156 c -0.6376,0.38586 -1.5505,0.87376 -2.0288,1.08421 -0.4782,0.21042 -0.8695,0.64776 -0.8695,0.97183 0,0.32412 -0.2609,0.58925 -0.5797,0.58925 -0.3188,0 -0.5796,0.23662 -0.5796,0.52584 0,0.5508 -2.5759,1.01022 -5.7001,1.01658 l -1.6424,0.004 0,2.70079 0,2.70079 15.7156,0.10093 c 11.3379,0.0728 15.7564,0.22364 15.8622,0.54138 0.081,0.24222 -0.4471,0.8074 -1.1728,1.25595 -1.3166,0.81377 -1.3936,0.81551 -35.7763,0.81551 -30.2717,0 -34.4838,-0.0705 -34.6793,-0.57967 -0.1222,-0.31881 -0.4543,-0.57966 -0.7378,-0.57966 -0.7734,0 -1.122,-0.81158 -0.5141,-1.19663 0.2929,-0.18554 7.3581,-0.33999 15.7005,-0.34324 l 15.1681,-0.006 0,-2.70513 0,-2.70511 -2.0716,0 c -3.2946,0 -5.6574,-0.42541 -5.6574,-1.01863 0,-0.28996 -0.3478,-0.52716 -0.7728,-0.52716 -0.4251,0 -0.773,-0.22815 -0.773,-0.50698 0,-0.51775 -2.0102,-2.19813 -2.6295,-2.19813 -0.1882,0 -0.6301,-0.31801 -0.9819,-0.7067 -0.5408,-0.59767 -0.6395,-1.69344 -0.6395,-7.10193 0,-7.15172 -0.072,-6.97365 3.4781,-8.66859 0.3188,-0.15223 0.7014,-0.45956 0.8501,-0.68292 0.1487,-0.22337 1.5834,-0.47248 3.1882,-0.55348 2.4808,-0.12528 2.9177,-0.24999 2.9177,-0.83294 0,-0.38428 0.382,-0.78796 0.8695,-0.91857 1.3034,-0.34936 1.3852,-0.3157 1.5188,0.62592 0.1024,0.72048 0.4011,0.88967 1.7431,0.98721 1.4999,0.10901 1.6282,0.20663 1.739,1.3228 0.066,0.66279 0.3369,1.27643 0.6026,1.36365 0.5782,0.18985 0.6671,-2.55382 0.1419,-4.385 -0.205,-0.71476 -0.1955,-1.44925 0.024,-1.84087 0.2007,-0.35835 0.261,-0.97801 0.1344,-1.37697 -0.3397,-1.07046 -1.6213,-0.57431 -1.8819,0.72855 -0.237,1.18485 -1.8824,1.90468 -2.7355,1.19671 -0.2872,-0.23828 -1.4981,-0.29934 -3.0546,-0.15399 -2.1678,0.20245 -2.5789,0.35514 -2.5789,0.95783 0,0.50718 -0.2827,0.71701 -0.9662,0.71701 -0.6994,0 -0.966,-0.20752 -0.966,-0.7517 0,-0.62264 -0.3153,-0.77197 -1.8357,-0.86951 -1.5664,-0.10051 -1.8537,-0.24527 -1.9591,-0.98729 -0.074,-0.51915 -0.3929,-0.8695 -0.7922,-0.8695 -0.3677,0 -0.8773,-0.20868 -1.1324,-0.46374 -0.3607,-0.36066 -0.5668,-0.36066 -0.9275,0 -0.2551,0.25506 -0.7647,0.46374 -1.1324,0.46374 -0.3993,0 -0.7186,0.35035 -0.7922,0.8695 -0.1134,0.79785 -0.3543,0.87885 -2.9253,0.98305 -2.4845,0.10066 -2.8017,0.19912 -2.8017,0.86949 0,0.54871 -0.2649,0.75596 -0.9662,0.75596 -0.6857,0 -0.966,0.20949 -0.966,0.72208 0,0.62528 0.3938,0.74735 2.9378,0.91062 1.6159,0.10368 3.0505,0.35662 3.1882,0.56205 0.1377,0.20543 0.5112,0.49808 0.8299,0.65034 3.553,1.69658 3.4781,1.5085 3.4781,8.73572 0,5.76982 -0.076,6.53089 -0.7067,7.1019 -0.3886,0.35178 -0.8305,0.63957 -0.9818,0.63957 -0.5677,0 -2.5624,1.71118 -2.5624,2.19813 0,0.27883 -0.3479,0.50698 -0.7729,0.50698 -0.4251,0 -0.7729,0.2372 -0.7729,0.52716 0,0.68659 -2.4665,1.01863 -7.5668,1.01863 -2.6888,0 -4.0744,-0.15118 -4.2688,-0.46571 -0.3424,-0.55397 -0.2962,-17.91162 0.049,-18.47039 0.1313,-0.21239 0.4893,-0.38618 0.7955,-0.38618 0.3771,0 0.557,-0.42964 0.557,-1.33033 0,-1.28884 0.051,-1.33405 1.6423,-1.44918 1.3854,-0.10024 1.6624,-0.26026 1.7703,-1.02238 0.1054,-0.74383 0.2932,-0.86203 1.0628,-0.66889 0.7423,0.18631 0.9348,0.0838 0.9348,-0.49736 0,-0.74193 -1.2978,-1.21498 -3.3332,-1.21498 -0.5047,0 -0.9177,-0.15362 -0.9177,-0.34139 0,-0.18773 -0.3044,-0.45136 -0.6763,-0.58585 -2.2514,-0.81385 -3.544,-2.20328 -3.5623,-3.82951 -0.01,-0.65128 -0.1732,-0.98609 -0.4145,-0.83701 -0.2212,0.13672 -0.2899,0.60231 -0.1526,1.03467 0.1777,0.56023 0.099,0.73664 -0.2742,0.61398 -0.2879,-0.0946 -0.5775,-0.71589 -0.6433,-1.38053 -0.088,-0.88534 0.093,-1.34139 0.6762,-1.70557 0.7227,-0.45134 0.7961,-0.87589 0.7961,-4.603 0,-3.5686 0.1048,-4.23905 0.8009,-5.12405 0.4405,-0.56003 1.0056,-1.02402 1.2559,-1.03109 0.6234,-0.0176 2.1941,-1.36684 2.1941,-1.8847 0,-0.23162 0.2547,-0.42111 0.566,-0.42111 0.3114,0 0.7522,-0.34781 0.9797,-0.77289 0.3841,-0.71773 0.8092,-0.7729 5.9562,-0.7729 6.2751,0 6.4554,0.077 6.5474,2.79376 0.04,1.18452 0.2196,1.65037 0.6356,1.65037 0.4161,0 0.5955,-0.46585 0.6356,-1.65037 0.092,-2.71758 0.2709,-2.79376 6.5609,-2.79376 l 5.5561,0 0,-0.92477 c 0,-1.19006 -0.5979,-1.39389 -4.0892,-1.39389 -2.2907,0 -2.8667,-0.11651 -2.8667,-0.57967 0,-0.31882 -0.2608,-0.57968 -0.5797,-0.57968 -0.3188,0 -0.5796,-0.22814 -0.5796,-0.50699 0,-0.51773 -2.0103,-2.19813 -2.6297,-2.19813 -0.1881,0 -0.6299,-0.318 -0.9816,-0.7067 -0.5399,-0.59653 -0.6396,-1.68505 -0.6396,-6.98142 0,-6.54081 0.2021,-7.53387 1.6658,-8.18037 0.4653,-0.20552 1.3678,-0.70619 2.0054,-1.11259 0.8526,-0.54345 1.9004,-0.74638 3.961,-0.76715 2.7234,-0.0276 2.8017,-0.0553 2.8017,-0.99436 0,-0.53137 0.174,-0.96611 0.3866,-0.96611 0.2124,0 0.3863,-0.17391 0.3863,-0.38645 0,-0.23763 -1.9163,-0.38645 -4.9764,-0.38645 -5.6501,0 -5.8906,-0.11226 -5.9813,-2.79376 -0.041,-1.18452 -0.2195,-1.65036 -0.6356,-1.65036 -0.416,0 -0.5954,0.46584 -0.6356,1.65036 -0.092,2.71681 -0.2723,2.79376 -6.5474,2.79376 -5.147,0 -5.5721,-0.0551 -5.9562,-0.77289 -0.2275,-0.42509 -0.6683,-0.7729 -0.9797,-0.7729 -0.3113,0 -0.566,-0.18948 -0.566,-0.42111 0,-0.51785 -1.5707,-1.86708 -2.1941,-1.88469 -0.2503,-0.007 -0.8154,-0.47107 -1.2559,-1.03109 -0.7149,-0.90881 -0.8009,-1.54605 -0.8009,-5.93001 0,-4.421 -0.078,-4.98168 -0.773,-5.61124 -0.9365,-0.84758 -1.0263,-2.71838 -0.1466,-3.05596 0.4815,-0.18477 0.5792,-0.0604 0.4228,0.53794 -0.3093,1.18272 0.3809,1.31507 1.1039,0.21167 0.3526,-0.53814 0.8549,-0.97844 1.1164,-0.97844 0.2614,0 0.7676,-0.32286 1.1247,-0.71748 0.5478,-0.6053 0.5658,-0.78681 0.115,-1.16091 -0.3349,-0.2779 -0.614,-1.60733 -0.748,-3.56134 -0.1411,-2.05871 -0.4224,-3.34849 -0.828,-3.79669 -0.3549,-0.39201 -0.6143,-1.35982 -0.6143,-2.29076 0,-1.53343 -0.057,-1.61196 -1.1594,-1.61196 -1.1593,0 -1.1593,0 -1.1593,-2.31866 0,-2.20073 0.1774,-2.53474 1.2559,-2.36445 0.1594,0.0251 0.2899,-0.12814 0.2899,-0.34068 0,-0.21254 -0.538,-0.38645 -1.1956,-0.38645 -0.8705,0 -1.2504,0.21012 -1.3976,0.7729 -0.1111,0.42509 -0.4427,0.77289 -0.7367,0.77289 -0.3838,0 -0.5346,0.54472 -0.5346,1.93223 0,1.88928 -0.026,1.93222 -1.1594,1.93222 -1.1084,0 -1.1593,0.0731 -1.1593,1.66172 0,0.91395 -0.156,1.82693 -0.3468,2.02884 -0.1908,0.20191 -0.4475,1.06272 -0.5705,1.9129 -0.123,0.85018 -0.3335,2.32833 -0.4679,3.28479 -0.1343,0.95645 -0.5102,2.04007 -0.8354,2.40802 -0.4804,0.54366 -0.4998,0.77904 -0.104,1.25596 0.2679,0.32281 0.714,0.58691 0.9913,0.58691 0.2774,0 0.8463,0.43476 1.2643,0.96612 0.9654,1.22732 1.2283,1.21719 1.2283,-0.0473 0,-0.85701 0.09,-0.93919 0.5797,-0.53236 0.8555,0.71002 0.7066,1.84044 -0.3863,2.93348 -0.9338,0.93366 -0.9662,1.13873 -0.9662,6.10566 0,4.48833 -0.09,5.22059 -0.7067,5.77913 -0.3887,0.35175 -0.8717,0.63955 -1.0732,0.63955 -0.2015,0 -0.9377,0.52171 -1.6358,1.15933 -0.6981,0.63764 -1.4122,1.15934 -1.5869,1.15934 -0.1747,0 -0.4084,0.3478 -0.5196,0.7729 -0.1904,0.72798 -0.5271,0.77288 -5.7945,0.77288 -6.2005,0 -6.5985,-0.14742 -6.5769,-2.43587 0.01,-0.67944 -0.1615,-1.45488 -0.3732,-1.72318 -0.5966,-0.75567 -1.5448,0.21857 -1.2717,1.3065 0.1209,0.48183 0.018,1.32076 -0.2304,1.8643 l -0.4503,0.98825 -5.5278,0 c -5.1324,0 -5.5575,-0.0553 -5.9416,-0.77288 -0.2274,-0.4251 -0.6683,-0.7729 -0.9796,-0.7729 -0.3114,0 -0.5661,-0.1982 -0.5661,-0.44045 0,-0.45685 -1.1223,-1.45795 -1.6587,-1.47948 -0.1683,-0.007 -0.2553,1.33543 -0.1932,2.98266 l 0.1129,2.99495 1.5457,0 c 1.3207,0 1.5643,-0.12999 1.6724,-0.8923 0.1014,-0.71552 0.331,-0.86863 1.1593,-0.77289 0.7098,0.082 1.0695,0.37594 1.1498,0.93954 0.1046,0.7334 0.3836,0.8259 2.6379,0.87479 1.5941,0.0345 2.955,0.30137 3.7013,0.72565 4.464,2.53751 4.1711,1.87986 4.1711,9.36601 0,5.75767 -0.076,6.51841 -0.7067,7.08935 -0.3888,0.35176 -0.8305,0.63956 -0.9818,0.63956 -0.5676,0 -2.5625,1.7112 -2.5625,2.19812 0,0.27885 -0.3477,0.507 -0.7729,0.507 -0.425,0 -0.7728,0.25581 -0.7728,0.56845 0,0.46628 -0.9203,0.58784 -5.1204,0.67628 l -5.1204,0.10783 0,1.93222 0,1.93223 1.35,-0.0672 c 0.8861,-0.0441 1.5332,-0.34296 1.8827,-0.8695 0.4994,-0.75199 0.8916,-0.80229 6.2554,-0.80229 5.6405,0 5.7245,0.0125 5.8462,0.86951 0.1414,0.9955 1.8625,1.51045 1.8625,0.55724 0,-1.22806 1.0639,-1.48393 6.0986,-1.46683 5.2811,0.018 6.2677,0.18283 6.2677,1.04754 0,0.29607 0.1631,0.53832 0.3626,0.53832 0.1994,0 0.9338,0.5217 1.6319,1.15934 0.6981,0.63763 1.4644,1.15933 1.7029,1.15933 0.2386,0 0.7214,0.31803 1.0732,0.70671 0.5125,0.56634 0.6396,1.54082 0.6396,4.90603 0,4.00597 0.047,4.24807 1.0143,5.25805 0.7726,0.80641 0.955,1.29499 0.7656,2.04998 -0.1369,0.5452 -0.4381,0.99127 -0.6692,0.99127 -0.2314,0 -0.3311,-0.23314 -0.2217,-0.51811 0.1093,-0.28496 0.051,-0.75832 -0.1311,-1.0519 -0.3782,-0.61186 -0.6299,-0.14171 -0.8356,1.56023 -0.1725,1.42769 -3.7995,3.721 -6.4177,4.05795 -1.6318,0.20996 -2.0255,0.39599 -1.925,0.90962 0.078,0.39588 0.4972,0.64566 1.0851,0.64566 0.7002,0 0.9922,0.23458 1.0825,0.86952 0.1067,0.75229 0.3543,0.8695 1.8355,0.8695 1.6992,0 1.7122,0.0104 1.7122,1.35255 0,0.92001 0.178,1.35256 0.5568,1.35256 0.3063,0 0.67,0.18287 0.8081,0.40635 0.138,0.22352 0.249,4.42186 0.2464,9.32968 0,6.99594 -0.1156,8.99362 -0.5182,9.24888 -0.6027,0.38211 -6.9618,0.43803 -9.8848,0.0869 -1.334,-0.16027 -2.0288,-0.42378 -2.0288,-0.76954 0,-0.28921 -0.2608,-0.52584 -0.5796,-0.52584 -0.3189,0 -0.5797,-0.22815 -0.5797,-0.507 0,-0.51772 -2.0103,-2.19811 -2.6296,-2.19811 -0.1882,0 -0.6344,-0.3228 -0.9913,-0.71732 -0.5636,-0.62272 -0.6352,-1.577 -0.543,-7.23572 l 0.1062,-6.51841 2.3186,-1.54532 c 2.0695,-1.37918 2.6199,-1.56135 5.1205,-1.69476 2.4374,-0.12999 2.8017,-0.24446 2.8017,-0.88008 0,-0.52175 -0.2763,-0.73067 -0.9661,-0.73067 -0.7014,0 -0.9661,-0.20724 -0.9661,-0.75595 0,-0.67037 -0.3172,-0.76884 -2.8017,-0.8695 -2.571,-0.10419 -2.812,-0.18519 -2.9253,-0.98304 -0.074,-0.51915 -0.393,-0.8695 -0.7922,-0.8695 -0.3678,0 -0.8774,-0.20868 -1.1324,-0.46374 -0.3607,-0.36067 -0.5668,-0.36067 -0.9275,0 -0.2551,0.25506 -0.8714,0.46374 -1.3695,0.46374 -0.5005,0 -0.8777,0.21617 -0.843,0.48306 0.1625,1.25103 -0.079,1.44916 -1.7679,1.44916 -1.4813,0 -1.739,0.11451 -1.739,0.77289 0,0.60112 -0.2576,0.77288 -1.1594,0.77288 -0.875,0 -1.1593,-0.17729 -1.1593,-0.72299 0,-0.62364 -0.4248,-0.76006 -3.0915,-0.99265 -1.7004,-0.14833 -3.0916,-0.41138 -3.0916,-0.58452 0,-0.17316 -0.3043,-0.42481 -0.6763,-0.55929 -0.372,-0.13444 -1.1018,-0.49222 -1.622,-0.79499 -0.8634,-0.50262 -0.997,-0.4777 -1.5318,0.28592 -0.6478,0.92489 -1.147,8.01024 -0.5635,7.99996 0.7482,-0.0131 1.2393,-0.63755 1.3637,-1.73437 0.1205,-1.06067 0.2778,-1.17429 1.8705,-1.35127 1.4381,-0.1598 1.7604,-0.34371 1.8626,-1.06273 0.088,-0.62133 0.3839,-0.86951 1.0359,-0.86951 0.6519,0 0.9475,0.24818 1.0357,0.86951 0.1129,0.79511 0.382,0.88782 3.1455,1.08367 1.6622,0.11778 3.1403,0.37863 3.2848,0.57967 0.3176,0.44166 1.5023,1.20057 2.6546,1.70048 0.4653,0.20187 1.0304,0.71172 1.2559,1.13301 0.6087,1.13743 0.541,12.46975 -0.08,13.3185 -0.502,0.68621 -1.8823,1.59408 -3.0851,2.02887 -0.372,0.13449 -0.6763,0.57201 -0.6763,0.97229 0,0.4702 -0.2736,0.72783 -0.7729,0.72783 -0.4293,0 -0.7729,0.25765 -0.7729,0.57967 0,0.31883 -0.044,0.59165 -0.097,0.60634 -0.053,0.0147 -1.6618,0.12042 -3.5746,0.23507 -1.9128,0.11462 -3.5368,0.26286 -3.6086,0.32937 -0.072,0.0666 -0.01,1.26306 0.1411,2.65894 l 0.2718,2.53793 15.5099,0.10094 c 13.269,0.0863 15.5098,0.18222 15.5098,0.66322 0,0.30924 -0.4346,0.68316 -0.966,0.83098 -0.5314,0.14782 -0.7923,0.28875 -0.5796,0.31317 0.2124,0.0243 0.1255,0.21301 -0.1934,0.41907 -0.3629,0.23461 -13.4739,0.37682 -35.082,0.38052 -30.316,0.005 -34.5294,-0.0645 -34.7248,-0.57375 -0.1224,-0.31881 -0.4775,-0.57966 -0.7891,-0.57966 -0.3317,0 -0.5127,-0.28049 -0.4365,-0.67628 0.121,-0.62852 1.2149,-0.68343 15.4862,-0.77734 l 15.356,-0.10106 0,-2.70067 0,-2.70067 -2.8018,-0.0661 c -1.541,-0.0363 -3.0626,-0.10481 -3.3814,-0.15216 -0.3188,-0.0473 -0.7971,-0.10449 -1.0627,-0.1271 -0.2656,-0.0228 -0.483,-0.30192 -0.483,-0.62075 0,-0.32201 -0.3435,-0.57966 -0.773,-0.57966 -0.4993,0 -0.7729,-0.25764 -0.7729,-0.72783 0,-0.40028 -0.3043,-0.83781 -0.6762,-0.9723 -1.2027,-0.43475 -2.5833,-1.34263 -3.0851,-2.02887 -0.6206,-0.84875 -0.6883,-12.18107 -0.08,-13.3185 0.2255,-0.42129 0.7906,-0.93113 1.256,-1.13301 1.1647,-0.50528 2.3385,-1.26052 2.6623,-1.71293 0.1488,-0.2079 1.6049,-0.44537 3.236,-0.52772 2.5079,-0.12664 2.9948,-0.26217 3.156,-0.87801 0.1047,-0.40051 0.3298,-0.72822 0.5001,-0.72822 0.1704,0 0.571,-0.10024 0.8904,-0.22279 0.3978,-0.15264 0.6207,0.0602 0.7079,0.67628 0.1067,0.75342 0.409,0.93038 1.8663,1.0923 1.6325,0.18139 1.7465,0.27013 1.8602,1.44916 0.067,0.69077 0.2839,1.25595 0.483,1.25595 0.5195,0 0.4468,-3.25545 -0.1,-4.45456 -0.3614,-0.79333 -0.3566,-1.18089 0.022,-1.78749 0.3728,-0.59691 0.379,-0.90054 0.028,-1.32393 -0.7115,-0.85729 -1.3122,-0.65271 -1.7885,0.60907 -0.5072,1.34384 -1.4825,1.84613 -2.4326,1.25278 -0.3962,-0.2474 -1.6277,-0.32862 -3.0404,-0.20053 -1.9807,0.17962 -2.3745,0.3346 -2.3745,0.93456 0,0.54147 -0.2865,0.7192 -1.1594,0.7192 -0.9016,0 -1.1592,-0.17174 -1.1592,-0.77289 0,-0.65838 -0.2577,-0.77289 -1.7391,-0.77289 -1.5973,0 -1.7389,-0.0787 -1.7389,-0.96611 0,-0.75048 -0.1985,-0.96611 -0.8889,-0.96611 -0.4888,0 -1.0974,-0.20868 -1.3525,-0.46374 -0.3607,-0.36067 -0.5668,-0.36067 -0.9275,0 -0.2551,0.25506 -0.7647,0.46374 -1.1325,0.46374 -0.3992,0 -0.7185,0.35035 -0.7921,0.8695 -0.1134,0.79785 -0.3543,0.87885 -2.9253,0.98304 -2.4845,0.10066 -2.8017,0.19913 -2.8017,0.8695 0,0.54871 -0.2649,0.75596 -0.9662,0.75596 -0.7084,0 -0.966,0.2061 -0.966,0.7729 0,0.69065 0.2576,0.77289 2.4213,0.77289 1.7187,0 2.8119,0.22495 3.7678,0.77532 0.7405,0.42644 1.7813,0.98949 2.3126,1.25124 1.8162,0.89462 1.907,1.27565 1.9199,8.05773 0.011,5.73145 -0.063,6.48104 -0.6944,7.05263 -0.3885,0.35178 -0.8304,0.63957 -0.9816,0.63957 -0.5677,0 -2.5624,1.71118 -2.5624,2.19814 0,0.27881 -0.2608,0.50697 -0.5797,0.50697 -0.3188,0 -0.5797,0.23663 -0.5797,0.52584 0,0.66584 -2.7221,1.0121 -7.9927,1.01658 -3.6594,0.004 -3.9531,-0.0535 -4.1925,-0.80802 -0.3334,-1.05055 -0.3358,-17.5615 0,-18.10063 0.1392,-0.22565 0.504,-0.41026 0.8102,-0.41026 0.3788,0 0.5568,-0.43255 0.5568,-1.35255 0,-1.34224 0.014,-1.35256 1.7122,-1.35256 1.4813,0 1.7287,-0.11721 1.8356,-0.8695 0.09,-0.63494 0.3823,-0.86952 1.0825,-0.86952 0.5878,0 1.0076,-0.24978 1.0851,-0.64566 0.1015,-0.51869 -0.307,-0.69981 -2.0774,-0.92098 -1.212,-0.15145 -2.4829,-0.50717 -2.8242,-0.79051 -0.3412,-0.28331 -1.2291,-0.91788 -1.973,-1.41013 -0.9504,-0.62883 -1.3902,-1.23609 -1.479,-2.04187 -0.1535,-1.39429 -0.6527,-1.99819 -0.9695,-1.17283 -0.1279,0.33308 -0.064,0.60564 0.1419,0.60564 0.2059,0 0.3743,0.1739 0.3743,0.38645 0,0.62372 -1.055,0.44282 -1.3112,-0.22483 -0.4107,-1.07061 -0.2585,-1.60356 0.7249,-2.53636 0.9082,-0.86159 0.9597,-1.13839 0.966,-5.19766 0.01,-3.65766 0.1106,-4.3816 0.7135,-4.92718 0.3887,-0.35177 0.8669,-0.64535 1.0626,-0.65242 0.5484,-0.0198 2.0951,-1.41133 2.0951,-1.8847 0,-0.23162 0.3478,-0.42111 0.7729,-0.42111 0.4251,0 0.7729,-0.24226 0.7729,-0.53833 0,-0.86236 0.9161,-1.00746 6.3607,-1.00746 5.7039,0 6.1441,0.17515 6.1227,2.43588 -0.01,0.67944 0.1614,1.45487 0.3732,1.72317 0.5948,0.75347 1.5448,-0.21823 1.2728,-1.30182 -0.1201,-0.47926 -0.049,-1.31818 0.1589,-1.8643 l 0.3775,-0.99293 5.4197,0 5.4199,0 0,-1.15933 0,-1.15934 -3.0916,0 c -2.4904,0 -3.0915,-0.11272 -3.0915,-0.57966 0,-0.31882 -0.1825,-0.57968 -0.4057,-0.57968 -0.223,0 -1.0323,-0.60866 -1.7983,-1.35255 -0.7658,-0.74391 -1.5998,-1.35257 -1.8531,-1.35257 -0.2532,0 -0.7483,-0.31801 -1.1001,-0.7067 -0.5407,-0.59748 -0.6396,-1.69202 -0.6396,-7.08187 0,-6.16424 0.029,-6.40298 0.8944,-7.21544 0.4921,-0.46213 1.006,-0.84024 1.1423,-0.84024 0.1362,0 0.8884,-0.43476 1.6714,-0.96612 1.1763,-0.7983 1.8842,-0.96611 4.0748,-0.96611 2.5704,0 2.6512,-0.0295 2.6512,-0.96611 0,-0.53138 0.1739,-0.96612 0.3864,-0.96612 0.2126,0 0.3865,-0.1739 0.3865,-0.38645 0,-0.23698 -1.8649,-0.38644 -4.8216,-0.38644 -4.6598,0 -4.842,-0.031 -5.428,-0.92519 -0.3649,-0.55705 -0.5124,-1.29888 -0.3704,-1.86429 0.2878,-1.14665 -0.6363,-2.15445 -1.2559,-1.36957 -0.2118,0.26829 -0.3797,1.04373 -0.3732,1.72317 0.022,2.26073 -0.4188,2.43588 -6.1227,2.43588 -5.4446,0 -6.3607,-0.1451 -6.3607,-1.00746 0,-0.29608 -0.1632,-0.53833 -0.3626,-0.53833 -0.1994,0 -0.9338,-0.5217 -1.6319,-1.15933 -0.6981,-0.63763 -1.4644,-1.15934 -1.703,-1.15934 -0.2385,0 -0.7214,-0.31801 -1.0731,-0.7067 -0.5269,-0.58205 -0.6396,-1.60149 -0.6396,-5.77913 0,-4.8953 -0.034,-5.10612 -0.9662,-6.03851 -1.0468,-1.04693 -1.2361,-2.12245 -0.5023,-2.85618 0.7497,-0.74973 1.1146,-0.53511 0.8542,0.50237 -0.3091,1.23153 -0.091,1.21502 1.2758,-0.0966 0.609,-0.5845 1.4485,-1.25799 1.8653,-1.49666 0.7094,-0.40613 0.7169,-0.48045 0.1175,-1.15934 -0.4399,-0.49837 -0.688,-1.65154 -0.7925,-3.68468 -0.086,-1.66735 -0.3752,-3.228 -0.6631,-3.57483 -0.281,-0.33855 -0.599,-1.39801 -0.7068,-2.35434 -0.1825,-1.61868 -0.2739,-1.73879 -1.3235,-1.73879 l -1.1275,0 0.1151,-2.41528 c 0.1033,-2.16932 0.2036,-2.42786 0.9844,-2.53878 1.4572,-0.20694 1.0554,-1.22907 -0.4829,-1.22907 -1.095,0 -1.3527,0.14722 -1.3527,0.77289 0,0.42939 -0.2577,0.7729 -0.5796,0.7729 -0.3188,0 -0.5797,0.26085 -0.5797,0.57966 0,0.31882 -0.1739,0.57967 -0.3864,0.57967 -0.5928,0 -1.9322,-1.47348 -1.9322,-2.12545 0,-0.48165 -0.7515,-0.57967 -4.4442,-0.57967 -3.5389,0 -4.4441,0.10954 -4.4441,0.53778 0,0.29578 0.4347,0.64689 0.9661,0.78025 0.8958,0.22483 0.9661,0.41068 0.9661,2.55379 0,2.27399 -0.018,2.31131 -1.0823,2.31131 -1.0506,0 -1.097,0.0885 -1.5717,2.99496 -0.2689,1.64722 -0.7383,3.56602 -1.0429,4.26401 -0.3047,0.69798 -0.554,1.83703 -0.554,2.53121 0,0.69419 -0.2173,1.48885 -0.483,1.76591 -0.3889,0.40558 -0.3353,0.59011 0.2749,0.9468 0.4168,0.24366 1.2562,0.92125 1.8653,1.50575 1.3667,1.31163 1.5847,1.32814 1.2757,0.0966 -0.2695,-1.07362 0.3128,-1.31262 0.8517,-0.3496 0.4938,0.88227 0.1018,2.45482 -0.7435,2.98269 -0.6457,0.40329 -0.7224,0.98724 -0.7224,5.50137 0,3.46639 -0.1536,5.26019 -0.4896,5.71981 -0.5018,0.68623 -1.8823,1.5941 -3.0851,2.0289 -0.3718,0.13446 -0.6762,0.48503 -0.6762,0.77905 0,0.29404 -0.2608,0.5346 -0.5797,0.5346 -0.3188,0 -0.5796,0.24225 -0.5796,0.53833 0,0.86317 -0.9164,1.00746 -6.3991,1.00746 -5.0341,0 -5.1932,-0.0254 -5.7827,-0.92519 -0.365,-0.55705 -0.5124,-1.29888 -0.3705,-1.86429 0.3069,-1.22264 -0.6402,-2.13518 -1.3403,-1.29151 -0.2584,0.31124 -0.364,0.89907 -0.2348,1.30629 0.1293,0.40721 0.061,1.1981 -0.1517,1.75754 -0.3782,0.99488 -0.4632,1.01716 -3.8743,1.01716 l -3.4876,0 0,1.35256 c 0,1.32879 0.029,1.35256 1.6059,1.35256 1.1175,0 1.9911,0.29378 2.8726,0.96611 0.6967,0.53136 1.4218,0.96612 1.6115,0.96612 0.1896,0 0.723,0.40247 1.1852,0.8944 0.7903,0.84134 0.8401,1.2611 0.8401,7.07539 0,4.37912 -0.1427,6.37617 -0.4896,6.85057 -0.5017,0.68625 -1.8822,1.59412 -3.0849,2.02891 -0.372,0.13445 -0.6763,0.50131 -0.6763,0.81524 0,0.31392 -0.3478,0.66173 -0.7729,0.77289 -0.4251,0.11116 -0.7729,0.43113 -0.7729,0.71104 0,0.27992 -0.4782,0.56395 -1.0627,0.63121 -0.8433,0.097 -1.0628,0.32173 -1.0628,1.0884 0,0.93595 0.091,0.96917 2.8984,1.06389 3.4677,0.11699 4.7505,0.37245 4.435,0.88313 -0.3493,0.56514 0.1811,1.91743 0.7521,1.91743 0.2738,0 0.6596,-0.56517 0.8575,-1.25594 l 0.3597,-1.25596 5.6484,-0.10673 c 4.5451,-0.0859 5.7586,0.003 6.2133,0.45822 0.394,0.39408 0.6875,0.44238 0.9701,0.15973 0.5977,-0.59771 1.3446,0.0342 1.1083,0.93774 -0.2044,0.78169 1.0079,2.18192 1.9129,2.20942 0.2327,0.007 0.711,0.33088 1.0628,0.71956 0.5136,0.56759 0.6395,1.54485 0.6395,4.96388 0,3.76641 0.089,4.33785 0.7729,4.95667 0.4251,0.3847 0.7729,1.18394 0.7729,1.7761 0,1.09348 -0.6075,1.81985 -1.0885,1.30123 -0.1453,-0.15665 -0.056,-0.35919 0.1972,-0.45008 0.2537,-0.0909 0.366,-0.41392 0.2494,-0.71778 -0.328,-0.85486 -0.9039,-0.24849 -0.9039,0.95177 0,0.97843 -0.9931,2.35577 -1.6985,2.35577 -0.157,0 -0.8553,0.43475 -1.552,0.96611 -0.6965,0.53137 -1.6197,0.96611 -2.0514,0.96611 -2.6994,0 -4.4803,1.34712 -2.1372,1.61674 0.752,0.0865 1.098,0.37037 1.1835,0.97072 0.099,0.69613 0.4112,0.86961 1.739,0.96611 1.5146,0.11013 1.626,0.19809 1.7394,1.37361 0.072,0.7506 0.3352,1.25595 0.6534,1.25595 0.2928,0 0.6449,0.18209 0.7826,0.40462 0.1374,0.22254 0.2495,4.34422 0.2487,9.15925 0,7.93991 -0.065,8.80133 -0.6875,9.25653 -1.3287,0.97152 -11.7456,0.51208 -11.7456,-0.51807 0,-0.28921 -0.2491,-0.52584 -0.5536,-0.52584 -0.3045,0 -0.6581,-0.32902 -0.7858,-0.73115 -0.1275,-0.40217 -0.5305,-0.83488 -0.8954,-0.96163 -0.365,-0.12675 -1.1853,-0.55096 -1.8228,-0.94266 l -1.1593,-0.71222 0,-7.08637 0,-7.08635 1.1593,-0.68606 c 2.9888,-1.76877 3.6517,-2.00786 6.183,-2.23049 2.0412,-0.17951 2.7051,-0.38018 2.7051,-0.81756 0,-0.34511 -0.43,-0.62918 -1.0627,-0.70194 -0.7408,-0.0852 -1.0627,-0.34325 -1.0627,-0.85184 0,-0.63181 -0.3496,-0.74492 -2.6085,-0.84384 -2.3701,-0.10385 -2.6198,-0.19373 -2.732,-0.98378 -0.074,-0.51915 -0.3929,-0.8695 -0.7922,-0.8695 -0.3678,0 -0.8339,-0.16285 -1.0358,-0.36191 -0.2284,-0.22507 -0.915,-0.18932 -1.8164,0.0946 -1.1112,0.35005 -1.4491,0.65967 -1.4491,1.32802 0,0.77533 -0.192,0.87155 -1.739,0.87155 -1.4814,0 -1.739,0.11451 -1.739,0.77289 0,0.60115 -0.2577,0.77289 -1.1593,0.77289 -0.9136,0 -1.1594,-0.16902 -1.1594,-0.79739 0,-0.66681 -0.2056,-0.77752 -1.256,-0.67627 -1.1384,0.10977 -1.2669,0.25242 -1.3732,1.52548 l -0.1172,1.40443 2.7485,0.15527 c 1.5116,0.0854 2.8686,0.33563 3.0155,0.55602 0.147,0.22043 0.528,0.52038 0.8469,0.66662 0.3188,0.14627 1.1013,0.58249 1.739,0.9694 l 1.1593,0.70345 0,7.08635 0,7.08637 -1.1593,0.71222 c -0.6377,0.3917 -1.4638,0.81742 -1.8356,0.94602 -0.372,0.12857 -0.6763,0.56131 -0.6763,0.96159 0,0.47019 -0.2736,0.72783 -0.7729,0.72783 -0.4251,0 -0.7729,0.23663 -0.7729,0.52584 0,0.5508 -2.5758,1.0102 -5.7001,1.01658 l -1.6424,0.004 0,2.70512 0,2.70512 15.2647,0.0483 c 8.3955,0.0267 15.4239,0.07 15.6188,0.0966 0.9316,0.12702 0.8631,0.74804 -0.1762,1.59729 l -1.1442,0.93511 -34.5869,0 -34.5868,0 -1.1593,-0.95753 z m 39.6105,-4.42493 0,-2.70511 -1.5238,0 c -1.1326,0 -1.677,-0.21861 -2.1201,-0.85138 l -0.5964,-0.85142 -0.7933,0.85142 c -0.4725,0.50728 -1.2556,0.85138 -1.9374,0.85138 l -1.1443,0 0,2.70511 0,2.70513 4.0577,0 4.0576,0 0,-2.70513 z m 91.5877,0 0,-2.70511 -1.3376,0 c -0.8592,0 -1.6066,-0.28895 -2.0903,-0.80802 l -0.7528,-0.80805 -0.808,0.80805 c -0.4606,0.4606 -1.3065,0.80802 -1.9674,0.80802 l -1.1594,0 0,2.70511 0,2.70513 4.0577,0 4.0578,0 0,-2.70513 z m 82.6993,0 0,-2.70511 -1.5238,0 c -1.1327,0 -1.6771,-0.21861 -2.1204,-0.85138 l -0.5963,-0.85142 -0.7931,0.85142 c -0.4727,0.50728 -1.2558,0.85138 -1.9375,0.85138 l -1.1443,0 0,2.70511 0,2.70513 4.0577,0 4.0577,0 0,-2.70513 z m -67.0183,-46.31099 c -0.8253,-0.16105 -1.1609,0.13139 -0.8073,0.7035 0.1913,0.3093 0.4373,0.2893 0.8718,-0.071 0.5456,-0.45212 0.5392,-0.51477 -0.065,-0.63259 z m -112.2924,-49.33425 c 0,-0.78051 1.0151,-0.74004 1.3193,0.0526 0.2246,0.5854 0.2943,0.5854 0.9413,0 0.3842,-0.34775 0.8809,-0.63227 1.1039,-0.63227 0.9753,0 1.2779,-1.03034 0.6642,-2.26077 -0.5995,-1.20157 -0.6442,-1.21723 -3.4773,-1.21723 -2.1802,0 -2.8701,0.12797 -2.8701,0.53235 0,0.29279 -0.2653,0.75247 -0.5894,1.02152 -0.5261,0.43668 -0.5198,0.56616 0.06,1.20665 0.3571,0.39462 0.8887,0.71748 1.1813,0.71748 0.2925,0 0.6319,0.26086 0.7543,0.57966 0.1224,0.31883 0.3778,0.57969 0.5676,0.57969 0.1897,0 0.345,-0.26086 0.345,-0.57969 z m -18.3561,-0.57967 c 0.1312,-0.21253 0.5545,-0.38644 0.9405,-0.38644 0.6225,0 1.1849,-1.30686 1.1849,-2.75342 0,-0.18598 -1.0434,-0.33814 -2.3187,-0.33814 -1.9485,0 -2.3195,0.10794 -2.324,0.67629 0,0.37195 -0.1101,1.06754 -0.2382,1.54577 -0.1864,0.69548 -0.074,0.8695 0.5621,0.8695 0.4373,0 0.9026,0.17391 1.0341,0.38644 0.1313,0.21256 0.3922,0.38645 0.5796,0.38645 0.1874,0 0.4483,-0.17389 0.5797,-0.38645 z m 40.2676,-0.38644 c 0.9009,0 1.235,-0.89972 0.5023,-1.35256 -0.2125,-0.13136 -0.3864,-0.57638 -0.3864,-0.98892 0,-0.64975 -0.2787,-0.75008 -2.0841,-0.75008 -2.2412,0 -2.6071,0.31698 -2.2888,1.98226 0.1958,1.02426 2.2874,2.0109 3.001,1.41559 0.2019,-0.16846 0.7671,-0.30629 1.256,-0.30629 z m 51.3199,0.38644 c 0.1314,-0.21253 0.682,-0.38644 1.2235,-0.38644 0.6645,0 0.92,-0.16847 0.7858,-0.5181 -0.1094,-0.28495 -0.053,-0.75381 0.1249,-1.04189 0.6773,-1.09582 -0.3165,-1.91801 -2.3182,-1.91801 -2.1155,0 -2.1229,0.006 -2.4879,2.02884 -0.2303,1.27597 -0.1697,1.44916 0.5062,1.44916 0.4221,0 0.8749,0.17391 1.0064,0.38644 0.1313,0.21256 0.3922,0.38645 0.5797,0.38645 0.1874,0 0.4483,-0.17389 0.5796,-0.38645 z m 39.4174,0 c 0.1314,-0.21253 0.5967,-0.38644 1.0339,-0.38644 0.6362,0 0.7487,-0.17402 0.5622,-0.8695 -0.1281,-0.47823 -0.2353,-1.17382 -0.2382,-1.54577 -0.01,-0.56835 -0.3754,-0.67629 -2.3239,-0.67629 -2.2469,0 -2.6066,0.21059 -2.3099,1.35256 0.056,0.21254 0.087,0.69077 0.07,1.06273 -0.021,0.46313 0.259,0.67627 0.8885,0.67627 0.5056,0 1.0269,0.17391 1.1581,0.38644 0.1314,0.21256 0.3923,0.38645 0.5797,0.38645 0.1875,0 0.4484,-0.17389 0.5797,-0.38645 z m 43.2819,0 c 0.1314,-0.21253 0.557,-0.38644 0.946,-0.38644 0.5027,0 0.7806,-0.3927 0.962,-1.35913 0.1402,-0.74752 0.1493,-1.53008 0.02,-1.739 -0.2728,-0.44145 -3.9279,-0.52031 -4.1733,-0.09 -0.091,0.1594 -0.2829,0.94197 -0.4267,1.73901 -0.2302,1.27597 -0.1697,1.44916 0.5061,1.44916 0.4221,0 0.8752,0.17391 1.0064,0.38644 0.1313,0.21256 0.3922,0.38645 0.5797,0.38645 0.1874,0 0.4484,-0.17389 0.5796,-0.38645 z m 39.031,0 c 0.1314,-0.21253 0.6633,-0.38644 1.1821,-0.38644 0.9501,0 1.3143,-0.88445 0.5569,-1.35256 -0.2125,-0.13136 -0.3864,-0.57638 -0.3864,-0.98892 0,-0.64975 -0.2788,-0.75008 -2.0841,-0.75008 -2.262,0 -2.608,0.31231 -2.2752,2.05333 0.129,0.67477 0.4453,1.03823 0.9035,1.03823 0.3877,0 0.8125,0.17391 0.9438,0.38644 0.1313,0.21256 0.3922,0.38645 0.5797,0.38645 0.1875,0 0.4483,-0.17389 0.5796,-0.38645 z m -62.7974,-18.16293 c 0,-0.21254 -0.3913,-0.37421 -0.8695,-0.35927 -0.8296,0.026 -0.834,0.0424 -0.097,0.35927 0.4251,0.18268 0.8163,0.34435 0.8695,0.35929 0.053,0.015 0.097,-0.14674 0.097,-0.35929 z m -304.1326,-30.35135 c 0,-0.11475 -0.3396,-0.87445 -0.7548,-1.68823 -1.5555,-3.04898 -8.526,-8.51673 -15.039,-11.79657 l -2.7554,-1.38768 0,2.12295 c 0,2.00029 0.061,2.13677 1.0627,2.36229 4.4993,1.01333 5.9315,1.8287 7.0448,4.01112 0.5241,1.02728 1.057,1.56094 1.559,1.56094 1.0875,0 3.1925,3.00156 2.9058,4.1437 -0.216,0.86103 -0.1537,0.8801 2.8781,0.8801 1.7043,0 3.0988,-0.0939 3.0988,-0.20862 z m 154.7715,-10.11861 c -0.4252,-0.10447 -0.9669,-0.34701 -1.2039,-0.53893 -0.2659,-0.21533 -0.858,-0.12632 -1.5458,0.23242 -1.1015,0.57449 -1.0873,0.58089 1.2039,0.53894 1.2752,-0.0233 1.9709,-0.12793 1.5458,-0.23243 z m 20.868,-0.1068 c 0.1313,-0.21254 -0.011,-0.38644 -0.3163,-0.38644 -0.3053,0 -0.7652,-0.25307 -1.0219,-0.56237 -0.3752,-0.45218 -0.614,-0.4711 -1.2184,-0.0966 -0.601,0.37234 -0.8184,0.35879 -1.0837,-0.0676 -0.2741,-0.4405 -0.5054,-0.40687 -1.3286,0.19323 -0.5482,0.3996 -1.0022,0.85697 -1.0088,1.01638 -0.019,0.43942 5.7036,0.34693 5.9777,-0.0966 z m 17.5295,-0.35545 c -0.7553,-0.61417 -1.0122,-0.65612 -1.492,-0.24365 -0.3188,0.27404 -0.8405,0.59416 -1.1593,0.71138 -0.3188,0.11723 0.3526,0.22687 1.4919,0.24365 l 2.0718,0.0305 -0.9124,-0.74189 z m 53.3833,0.46773 c -0.3189,-0.11722 -0.8406,-0.43734 -1.1594,-0.71138 -0.4798,-0.41247 -0.7367,-0.37052 -1.492,0.24365 l -0.9123,0.74189 2.0717,-0.0305 c 1.1393,-0.0168 1.8107,-0.12643 1.492,-0.24365 z m 38.4642,-0.32839 c -0.8256,-0.43051 -1.3663,-0.49182 -1.9322,-0.2191 -0.4323,0.20828 -1.0468,0.46463 -1.3655,0.56967 -0.3188,0.10503 0.5507,0.20363 1.9323,0.2191 2.4969,0.0279 2.505,0.0246 1.3654,-0.56967 z m 44.0418,0.32291 c -0.425,-0.10447 -0.9668,-0.34701 -1.2038,-0.53893 -0.266,-0.21533 -0.8579,-0.12632 -1.5458,0.23242 -1.1016,0.57449 -1.0873,0.58089 1.2039,0.53894 1.2753,-0.0233 1.9709,-0.12793 1.5457,-0.23243 z m 38.3976,-0.46225 c -0.7554,-0.61417 -1.0121,-0.65612 -1.492,-0.24365 -0.3187,0.27404 -0.8405,0.59416 -1.1593,0.71138 -0.3189,0.11723 0.3525,0.22687 1.492,0.24365 l 2.0716,0.0305 -0.9123,-0.74189 z m -407.2657,-1.86661 c -0.014,-0.62943 -2.9487,-5.65444 -3.3892,-5.80127 -0.2884,-0.0961 -0.4692,0.23356 -0.4692,0.85548 0,1.35768 -1.071,2.91694 -2.0036,2.91694 -0.5622,0 -0.7237,0.22227 -0.6318,0.86951 0.093,0.65438 0.4581,0.92863 1.4761,1.10847 1.9987,0.35311 5.0246,0.3838 5.0177,0.0509 z m 216.2223,-65.01327 c 1.2752,-0.84465 2.536,-1.53938 2.8017,-1.54384 0.7907,-0.0133 0.5476,-1.2229 -0.2899,-1.44192 -0.4251,-0.11117 -0.7729,-0.51963 -0.7729,-0.90772 0,-0.55385 -0.3532,-0.73115 -1.6424,-0.82443 -1.493,-0.10802 -1.654,-0.22096 -1.7704,-1.2417 -0.071,-0.61759 -0.497,-1.42148 -0.9476,-1.78641 -0.7374,-0.59714 -0.8089,-0.99722 -0.7151,-3.99753 0.068,-2.17216 -0.04,-3.33399 -0.3084,-3.33399 -0.262,0 -0.4128,1.26791 -0.4128,3.47473 0,3.05621 -0.093,3.53288 -0.7728,3.95741 -0.4251,0.26548 -0.7729,0.77442 -0.7729,1.13101 0,1.4867 -0.4449,1.87088 -2.1669,1.87088 -1.4399,0 -1.6976,0.11728 -1.6976,0.77289 0,0.60114 -0.2576,0.77288 -1.1593,0.77288 -0.888,0 -1.1594,-0.1747 -1.1594,-0.74633 0,-0.65281 -0.3874,-0.78012 -3.0915,-1.01601 -1.7004,-0.14833 -3.0915,-0.40085 -3.0915,-0.56116 0,-0.16031 -0.3044,-0.40148 -0.6764,-0.53594 -0.8482,-0.30663 -2.1436,-1.07129 -2.9537,-1.74369 -0.5245,-0.43528 -0.6209,-1.50908 -0.6209,-6.91602 0,-6.03992 0.047,-6.45116 0.8403,-7.29515 0.4621,-0.49193 1.0273,-0.90019 1.2559,-0.90726 0.5933,-0.0184 2.1548,-1.3841 2.1548,-1.88471 0,-0.23161 0.2547,-0.42111 0.566,-0.42111 0.3114,0 0.7522,-0.34781 0.9796,-0.77289 0.4061,-0.75886 0.294,-0.77289 -6.183,-0.77289 -6.4771,0 -6.5893,0.0141 -6.1832,0.77289 0.2275,0.42508 0.6684,0.77289 0.9797,0.77289 0.3114,0 0.5661,0.24057 0.5661,0.53459 0,0.29403 0.3043,0.64461 0.6763,0.77908 1.2027,0.43477 2.5832,1.34265 3.0849,2.02888 0.3483,0.47637 0.4897,2.50766 0.4897,7.03829 0,5.38381 -0.099,6.47796 -0.6396,7.07539 -0.3517,0.38868 -0.7981,0.7067 -0.9918,0.7067 -0.1939,0 -0.908,0.42374 -1.5869,0.94165 -0.9492,0.72391 -1.9261,1.0043 -4.2251,1.21263 -1.9955,0.18081 -2.9906,0.43222 -2.9906,0.75546 0,0.26647 0.4139,0.58838 0.9199,0.71537 0.506,0.127 1.0115,0.5806 1.1231,1.00801 0.1796,0.68639 0.5233,0.77712 2.9447,0.77712 2.6663,0 2.7412,0.0264 2.7412,0.96611 0,0.6727 0.2113,0.96611 0.6956,0.96611 0.3826,0 0.9042,0.20868 1.1593,0.46374 0.3607,0.36067 0.5668,0.36067 0.9275,0 0.2551,-0.25506 0.7647,-0.46374 1.1324,-0.46374 0.3993,0 0.7186,-0.35035 0.7922,-0.8695 0.1022,-0.71902 0.4245,-0.90294 1.8626,-1.06272 1.4379,-0.15979 1.7604,-0.3437 1.8624,-1.06273 0.088,-0.6213 0.3839,-0.8695 1.036,-0.8695 0.6519,0 0.9475,0.2482 1.0357,0.8695 0.1073,0.75485 0.3784,0.88121 2.0558,0.95824 2.6587,0.12208 4.4441,0.4635 4.4441,0.84982 0,0.17812 0.3044,0.43542 0.6763,0.57176 1.2437,0.45592 2.6507,1.35355 3.3734,2.15206 0.6531,0.72176 0.7863,0.73966 1.5212,0.20473 0.4429,-0.3224 1.8489,-1.27728 3.1242,-2.12193 z m 90.3705,0.74325 c 1.1522,-0.50106 2.3249,-1.25736 2.6468,-1.70705 0.1487,-0.20788 1.5835,-0.44426 3.1882,-0.52529 2.4871,-0.1256 2.9176,-0.24907 2.9176,-0.83665 0,-1.32835 2.203,-1.59486 2.3884,-0.28894 0.1027,0.72282 0.4006,0.88955 1.7659,0.98834 1.3374,0.0967 1.6424,0.26049 1.6424,0.88162 0,0.41954 0.3044,0.857 0.6763,0.97211 0.372,0.11512 0.9726,0.36694 1.3347,0.55962 0.4064,0.21623 0.7479,0.20543 0.8923,-0.0281 0.1286,-0.20819 0.6584,-0.37853 1.1772,-0.37853 0.7441,0 0.9433,-0.20047 0.9433,-0.94918 0,-0.91023 0.115,-0.95385 2.8017,-1.06272 2.6038,-0.10553 2.8108,-0.17738 2.9298,-1.01708 0.1053,-0.74383 0.2931,-0.86206 1.0627,-0.66892 0.7432,0.18655 0.9348,0.084 0.9348,-0.50024 0,-0.63529 -0.4058,-0.77212 -2.995,-1.00996 -2.2803,-0.20947 -3.2886,-0.49698 -4.2252,-1.20475 -0.6765,-0.51128 -1.3584,-0.92961 -1.5153,-0.92961 -0.1568,0 -0.6032,-0.2878 -0.9918,-0.63956 -0.6327,-0.57245 -0.7067,-1.33811 -0.7067,-7.29515 0,-5.64099 0.095,-6.73414 0.6208,-7.17087 0.8101,-0.67241 2.1055,-1.43705 2.9537,-1.74369 0.372,-0.13447 0.6763,-0.48505 0.6763,-0.77907 0,-0.29403 0.2609,-0.53459 0.5797,-0.53459 0.3188,0 0.5796,-0.24637 0.5796,-0.54747 0,-0.3011 0.2174,-0.63518 0.4831,-0.74238 0.2657,-0.10721 -2.5229,-0.20866 -6.1967,-0.22542 -6.5644,-0.0299 -6.6726,-0.0172 -6.2661,0.74238 0.2274,0.42508 0.6683,0.77289 0.9796,0.77289 0.3114,0 0.5661,0.18949 0.5661,0.4211 0,0.51786 1.5706,1.86709 2.194,1.88471 0.2503,0.007 0.8155,0.47105 1.256,1.03108 0.7339,0.93315 0.7999,1.52248 0.7886,7.05264 -0.014,6.40281 -0.1424,6.92095 -2.0017,8.01403 -0.4863,0.28595 -1.1886,0.62992 -1.5606,0.76438 -0.372,0.13446 -0.6763,0.38247 -0.6763,0.55115 0,0.16867 -1.4781,0.42981 -3.2847,0.5803 -2.8615,0.23835 -3.2849,0.36735 -3.2849,1.00081 0,0.51803 -0.2778,0.72718 -0.9661,0.72718 -0.7085,0 -0.9661,-0.20611 -0.9661,-0.77289 0,-0.64408 -0.2577,-0.77289 -1.5457,-0.77289 -0.8502,0 -1.5459,0.1739 -1.5459,0.38645 0,0.21254 -0.313,0.38644 -0.6955,0.38644 -1.2705,0 -1.6231,0.83293 -1.6231,3.8345 0,2.77567 0.028,2.86713 0.6187,2.02378 0.3402,-0.4858 0.9923,-1.04578 1.4491,-1.24441 z m 83.9653,-0.84069 c 2.0567,-1.25352 2.704,-1.45044 4.9271,-1.49864 2.4199,-0.0525 2.5596,-0.10553 2.5596,-0.9718 0,-0.76048 0.1972,-0.9163 1.1593,-0.9163 0.979,0 1.1594,0.15029 1.1594,0.96612 0,0.88739 0.1417,0.96611 1.7389,0.96611 1.4904,0 1.739,0.11226 1.739,0.78501 0,0.43177 0.3043,0.87922 0.6764,0.99433 0.372,0.11512 0.938,0.34541 1.2579,0.51176 0.32,0.16634 0.8417,0.1662 1.1594,-3.3e-4 0.3177,-0.16652 0.8819,-0.39682 1.2539,-0.51175 0.3719,-0.11495 0.6762,-0.56224 0.6762,-0.99401 0,-0.71354 0.2439,-0.78501 2.6782,-0.78501 2.4833,0 2.6873,-0.0634 2.8018,-0.8695 0.09,-0.63328 0.3849,-0.87153 1.0857,-0.87696 0.5729,-0.004 1.0108,-0.25902 1.082,-0.62906 0.098,-0.51028 -0.4202,-0.67124 -2.8945,-0.89856 -2.2992,-0.21123 -3.306,-0.49743 -4.2444,-1.20655 -0.6765,-0.51128 -1.3584,-0.92961 -1.5153,-0.92961 -0.1569,0 -0.6032,-0.2878 -0.9919,-0.63956 -0.6319,-0.57187 -0.7067,-1.33562 -0.7067,-7.21542 0,-5.5766 0.097,-6.68325 0.6396,-7.28257 0.3517,-0.38869 0.8444,-0.70671 1.0949,-0.70671 0.2505,0 0.9627,-0.51687 1.5825,-1.1486 0.6199,-0.63173 1.3242,-1.15342 1.5652,-1.15933 0.2408,-0.006 0.5289,-0.35855 0.64,-0.78363 0.196,-0.74957 0.012,-0.77289 -6.1019,-0.77289 -6.1137,0 -6.2978,0.0233 -6.1018,0.77289 0.1112,0.42508 0.4427,0.77289 0.7366,0.77289 0.2941,0 0.5347,0.24057 0.5347,0.53459 0,0.29403 0.3043,0.64461 0.6763,0.77908 0.8482,0.30663 2.1436,1.07128 2.9537,1.74368 0.939,0.7793 0.9227,13.35868 -0.018,14.39888 -0.3518,0.38868 -0.7981,0.7067 -0.992,0.7067 -0.1938,0 -0.9079,0.42374 -1.5868,0.94165 -0.9492,0.72391 -1.9261,1.0043 -4.2252,1.21263 -2.562,0.23217 -2.9905,0.3741 -2.9905,0.99058 0,0.54192 -0.2863,0.71959 -1.1594,0.71959 -0.8902,0 -1.1593,-0.17422 -1.1593,-0.75066 0,-0.60687 -0.3146,-0.77344 -1.6424,-0.86951 -1.5415,-0.11154 -1.6498,-0.19592 -1.7635,-1.37478 -0.2096,-2.17452 -1.6179,-1.39019 -1.6179,0.90111 0,0.78749 0.1977,0.94156 1.256,0.97934 0.799,0.0285 0.9748,0.11067 0.483,0.22582 -1.3102,0.30682 -1.7396,1.29115 -1.7267,3.9575 0.01,2.0534 0.1017,2.42452 0.4831,1.95464 0.2589,-0.31901 1.5362,-1.22943 2.8384,-2.02316 z m -4.7216,-3.11967 c 0.2598,-4.51398 0.2541,-4.5589 -0.5273,-4.14068 -0.523,0.2799 -0.79,0.81003 -0.79,1.56854 0,1.10027 -0.069,1.14574 -1.7391,1.14574 -1.4813,0 -1.739,0.1145 -1.739,0.77289 0,0.60114 -0.2576,0.77288 -1.1593,0.77288 -0.8879,0 -1.1592,-0.1747 -1.1592,-0.74633 0,-0.65281 -0.3875,-0.78012 -3.0916,-1.01601 -1.7005,-0.14833 -3.0917,-0.40085 -3.0917,-0.56116 0,-0.16031 -0.3043,-0.40148 -0.6761,-0.53594 -0.8484,-0.30663 -2.1436,-1.07129 -2.9538,-1.74369 -0.5245,-0.43528 -0.6209,-1.50908 -0.6209,-6.91602 0,-6.03992 0.047,-6.45116 0.8402,-7.29515 0.4621,-0.49193 1.0273,-0.90019 1.256,-0.90726 0.5933,-0.0184 2.1546,-1.3841 2.1546,-1.88471 0,-0.23161 0.2548,-0.42111 0.5662,-0.42111 0.3113,0 0.7521,-0.34781 0.9797,-0.77289 0.4061,-0.75886 0.2938,-0.77289 -6.1832,-0.77289 -6.4769,0 -6.5892,0.0141 -6.1831,0.77289 0.2275,0.42508 0.6684,0.77289 0.9798,0.77289 0.3113,0 0.566,0.1895 0.566,0.42111 0,0.52986 1.5772,1.86753 2.2221,1.88471 0.2657,0.007 0.8308,0.36065 1.2559,0.78575 0.7118,0.71183 0.7729,1.28813 0.7729,7.29514 0,5.51854 -0.096,6.60155 -0.6209,7.03754 -0.8102,0.6724 -2.1054,1.43706 -2.9538,1.74369 -0.3718,0.13446 -0.6762,0.38614 -0.6762,0.55929 0,0.17315 -1.3912,0.43616 -3.0916,0.5845 -2.5707,0.22426 -3.0915,0.38243 -3.0915,0.93907 0,0.49954 0.237,0.6241 0.9341,0.49083 0.7506,-0.14347 0.9594,-1e-5 1.0627,0.72988 0.1197,0.84571 0.322,0.91628 2.9303,1.02198 2.6867,0.10887 2.8017,0.1525 2.8017,1.06272 0,0.65639 0.2146,0.94918 0.6956,0.94918 0.3827,0 0.9044,0.20868 1.1594,0.46374 0.3608,0.36067 0.5669,0.36067 0.9275,0 0.255,-0.25506 0.7646,-0.46374 1.1324,-0.46374 0.3993,0 0.7186,-0.35035 0.7923,-0.8695 0.1021,-0.71902 0.4244,-0.90294 1.8624,-1.06272 1.4381,-0.15979 1.7603,-0.3437 1.8625,-1.06273 0.1741,-1.22554 1.8977,-1.22554 2.0718,0 0.107,0.75354 0.3811,0.8824 2.0556,0.96616 2.7192,0.13602 4.4442,0.46281 4.4442,0.8419 0,0.17812 0.3043,0.42906 0.6762,0.55765 0.372,0.12859 1.198,0.56016 1.8357,0.95905 0.6376,0.39889 1.1792,0.70524 1.2035,0.68078 0.024,-0.0245 0.1625,-2.09804 0.307,-4.60797 z m -151.9345,3.4445 c 0.372,-0.11511 0.6764,-0.56256 0.6764,-0.99433 0,-0.71354 0.2438,-0.78501 2.6782,-0.78501 2.4832,0 2.6873,-0.0634 2.8017,-0.8695 0.089,-0.62257 0.4253,-0.90423 1.1863,-0.99178 0.5845,-0.0673 1.0627,-0.35116 1.0627,-0.63088 0,-0.35308 -0.9158,-0.59273 -2.995,-0.78372 -2.2802,-0.20947 -3.2885,-0.49697 -4.2251,-1.20475 -0.6766,-0.51128 -1.3585,-0.92961 -1.5153,-0.92961 -0.1568,0 -0.6032,-0.2878 -0.992,-0.63956 -0.6318,-0.57187 -0.7067,-1.33562 -0.7067,-7.21542 0,-5.5766 0.097,-6.68325 0.6397,-7.28257 0.3517,-0.38869 0.8443,-0.70671 1.0948,-0.70671 0.2504,0 0.9626,-0.51687 1.5825,-1.1486 0.62,-0.63173 1.3243,-1.15342 1.5651,-1.15933 0.241,-0.006 0.529,-0.35855 0.6402,-0.78363 0.196,-0.74957 0.012,-0.77289 -6.1018,-0.77289 -6.1138,0 -6.298,0.0233 -6.102,0.77289 0.1111,0.42508 0.3451,0.77289 0.5196,0.77289 0.1747,0 0.8888,0.5217 1.5869,1.15933 0.698,0.63764 1.4342,1.15934 1.6358,1.15934 0.2016,0 0.6845,0.28781 1.0733,0.63956 0.6317,0.57187 0.7067,1.33562 0.7067,7.21543 0,5.57659 -0.098,6.68325 -0.6396,7.28257 -0.3518,0.38868 -0.7982,0.7067 -0.9919,0.7067 -0.1938,0 -0.9059,0.41859 -1.5825,0.93019 -0.8752,0.66176 -1.983,1.00931 -3.8387,1.20437 -1.9366,0.20354 -2.6085,0.42316 -2.6085,0.85266 0,0.42431 0.3123,0.53269 1.1715,0.40657 1.2601,-0.18493 1.0762,0.30393 -0.2009,0.5342 -0.4227,0.0763 -0.8233,0.4235 -0.8905,0.77176 -0.095,0.49073 0.1872,0.6332 1.2516,0.6332 1.063,0 1.3734,-0.15664 1.3734,-0.6929 0,-0.68847 0.7215,-1.16204 1.7706,-1.16204 0.327,0 0.5481,0.38974 0.5481,0.96612 0,0.88739 0.1416,0.96611 1.739,0.96611 1.4904,0 1.739,0.11226 1.739,0.78501 0,0.43177 0.3044,0.87906 0.6762,0.99401 0.372,0.11493 0.9363,0.34523 1.254,0.51175 0.3177,0.16653 0.8393,0.16667 1.1593,3.3e-4 0.3199,-0.16635 0.8861,-0.39664 1.2579,-0.51176 z m 52.5567,0 c 0.3718,-0.11511 0.6762,-0.55257 0.6762,-0.97211 0,-0.62113 0.305,-0.78486 1.6425,-0.88162 1.3652,-0.0988 1.6631,-0.26552 1.7658,-0.98834 0.1855,-1.30592 2.3884,-1.03941 2.3884,0.28894 0,0.58856 0.4336,0.7112 2.9664,0.83911 1.8762,0.0947 3.0243,0.32331 3.1238,0.62191 0.087,0.25966 0.3465,0.4721 0.5777,0.4721 0.2314,0 0.6951,0.24028 1.0306,0.53396 0.3356,0.29368 1.0014,0.6532 1.4796,0.79893 0.8653,0.2637 0.8695,0.24426 0.8695,-4.01196 0,-2.4008 -0.1588,-4.27694 -0.362,-4.27694 -0.199,0 -0.4164,0.56517 -0.483,1.25594 -0.1161,1.20426 -0.1966,1.2608 -1.9567,1.37374 -1.5204,0.0976 -1.8357,0.24687 -1.8357,0.8695 0,0.5442 -0.2666,0.75171 -0.9661,0.75171 -0.6933,0 -0.9661,-0.20841 -0.9661,-0.73819 0,-0.64728 -0.4045,-0.7719 -3.2847,-1.01182 -1.8067,-0.1505 -3.2848,-0.40668 -3.2848,-0.56929 0,-0.16263 -0.3044,-0.40568 -0.6763,-0.54014 -0.3719,-0.13446 -1.0742,-0.47842 -1.5607,-0.76438 -1.8592,-1.09308 -1.9886,-1.61122 -2.0016,-8.01403 -0.011,-5.53015 0.055,-6.11949 0.7886,-7.05263 0.4404,-0.56003 1.0056,-1.02401 1.2559,-1.03108 0.6234,-0.0177 2.1941,-1.36685 2.1941,-1.88471 0,-0.23161 0.2547,-0.42111 0.566,-0.42111 0.3114,0 0.7522,-0.34781 0.9797,-0.77289 0.4059,-0.75832 0.2939,-0.77289 -5.94,-0.77289 -6.1635,0 -6.3478,0.0232 -6.1518,0.77289 0.1112,0.42508 0.4428,0.77289 0.7367,0.77289 0.2941,0 0.5346,0.24057 0.5346,0.53459 0,0.29403 0.3043,0.64461 0.6763,0.77908 0.8483,0.30663 2.1436,1.07128 2.9538,1.74368 0.9391,0.7793 0.9227,13.35868 -0.019,14.39888 -0.3518,0.38868 -0.7982,0.7067 -0.9919,0.7067 -0.1938,0 -0.908,0.42374 -1.587,0.94165 -0.9491,0.72391 -1.926,1.0043 -4.225,1.21263 -2.574,0.23324 -2.9906,0.37229 -2.9906,0.99795 0,0.57595 0.1941,0.67821 0.9348,0.49234 0.7695,-0.19315 0.9574,-0.0749 1.0627,0.66892 0.1188,0.83969 0.3259,0.91154 2.9297,1.01707 2.5002,0.10132 2.8017,0.19621 2.8017,0.88163 0,0.42244 0.3043,0.86212 0.6762,0.97707 0.3719,0.11493 0.9363,0.34523 1.254,0.51175 0.3177,0.16653 0.8394,0.16667 1.1593,3.3e-4 0.3199,-0.16635 0.886,-0.39664 1.258,-0.51176 z m 19.7263,-5.93363 c -0.2694,-1.74549 -0.3073,-1.7993 -1.0637,-1.50904 -0.3817,0.14647 -0.5963,0.72 -0.5963,1.59353 0,1.18864 0.1214,1.36468 0.9418,1.36468 0.8704,0 0.9249,-0.10982 0.7182,-1.44917 z m -93.2842,-17.06254 c -0.03,-1.67965 0.062,-3.24475 0.2066,-3.47802 0.1661,-0.2687 -0.1286,-0.4241 -0.8041,-0.4241 -0.8293,0 -0.9631,0.10305 -0.6025,0.46373 0.2814,0.28141 0.4637,1.64884 0.4637,3.47801 0,1.79969 0.1595,3.01427 0.396,3.01427 0.2414,0 0.374,-1.19104 0.3403,-3.05389 z m 91.6242,0.73523 c 0,-1.28815 -0.1717,-2.31868 -0.3864,-2.31868 -0.2149,0 -0.3865,1.03053 -0.3865,2.31868 0,1.28813 0.1716,2.31866 0.3865,2.31866 0.2147,0 0.3864,-1.03053 0.3864,-2.31866 z m 82.6611,-0.8173 c -0.041,-2.28737 0.087,-3.22692 0.4737,-3.4721 0.365,-0.23123 0.1426,-0.33796 -0.7129,-0.34203 -1.122,-0.005 -1.2126,0.0776 -0.927,0.84962 0.1741,0.47052 0.2321,2.03563 0.1288,3.478 -0.1617,2.26041 -0.099,2.62247 0.4534,2.62247 0.5491,0 0.6329,-0.44979 0.584,-3.13596 z m -82.4076,-2.85696 c 0.4192,-0.90406 0.3801,-0.96309 -0.6399,-0.96309 -1.0201,0 -1.0593,0.0591 -0.64,0.96309 0.2457,0.52971 0.5336,0.9631 0.64,0.9631 0.1062,0 0.3943,-0.43339 0.6399,-0.9631 z m -128.1669,195.73761 -2.1255,-0.19322 -0.1037,-8.97714 c -0.1,-8.64413 -0.075,-8.99522 0.6763,-9.46426 0.5187,-0.32398 0.7799,-0.90188 0.7799,-1.72554 0,-1.20326 0.052,-1.24177 1.8357,-1.35621 1.5814,-0.10148 1.8531,-0.24134 1.9621,-1.01008 0.1014,-0.71552 0.331,-0.86863 1.1593,-0.77289 0.6969,0.0806 1.0698,0.37723 1.1463,0.91202 0.1008,0.70444 0.4219,0.80323 2.886,0.88791 2.2569,0.0775 3.0037,0.27154 4.0151,1.04298 0.6833,0.52125 1.4154,0.94773 1.6267,0.94773 0.2113,0 0.7445,0.4582 1.185,1.01821 0.733,0.93176 0.801,1.53268 0.801,7.07539 0,4.27917 -0.1437,6.2537 -0.4896,6.72677 -0.4941,0.6757 -1.8689,1.5863 -3.0493,2.01955 -0.3523,0.12932 -0.7272,0.56684 -0.8333,0.97228 -0.106,0.40544 -0.4699,0.73717 -0.8086,0.73717 -0.3388,0 -0.6159,0.24967 -0.6159,0.55481 0,0.43812 -0.8331,0.58035 -3.9611,0.67627 -2.1785,0.0668 -4.9174,0.0345 -6.0864,-0.0718 z m 27.7274,0.0863 c -4.7147,-0.0884 -5.7001,-0.20537 -5.7001,-0.67628 0,-0.31314 -0.2609,-0.56934 -0.5796,-0.56934 -0.3188,0 -0.5797,-0.22814 -0.5797,-0.507 0,-0.51772 -2.0102,-2.19812 -2.6295,-2.19812 -0.1884,0 -0.6301,-0.31802 -0.9818,-0.70671 -0.5405,-0.5973 -0.6396,-1.69073 -0.6396,-7.06325 0,-6.78266 0.3126,-8.07429 1.9542,-8.07429 0.413,0 0.7509,-0.16118 0.7509,-0.35815 0,-0.76559 2.5054,-1.56452 5.0718,-1.61726 2.5235,-0.0519 2.6572,-0.10074 2.6572,-0.97184 0,-0.7615 0.1968,-0.91721 1.1593,-0.91721 0.9789,0 1.1593,0.15027 1.1593,0.96611 0,0.8874 0.1417,0.96611 1.739,0.96611 1.7298,0 1.739,0.007 1.739,1.35255 0,0.92004 0.1781,1.35258 0.5569,1.35258 0.3063,0 0.6744,0.19022 0.8182,0.42273 0.1971,0.31897 0.3233,12.35331 0.1867,17.79546 -0.023,0.89077 -0.2962,0.92372 -6.6822,0.80391 z m 39.4175,0 c -4.7148,-0.0884 -5.7001,-0.20537 -5.7001,-0.67628 0,-0.31314 -0.2608,-0.56934 -0.5797,-0.56934 -0.3188,0 -0.5797,-0.22814 -0.5797,-0.507 0,-0.51772 -2.0102,-2.19812 -2.6296,-2.19812 -0.1881,0 -0.6299,-0.31802 -0.9817,-0.70671 -0.5398,-0.59652 -0.6395,-1.68504 -0.6395,-6.98142 0,-6.54103 0.2023,-7.5346 1.6658,-8.17944 0.4654,-0.20502 1.3965,-0.7066 2.0692,-1.11465 0.8072,-0.48963 2.1212,-0.78365 3.8644,-0.86469 2.4012,-0.11163 2.6527,-0.20186 2.7647,-0.9923 0.096,-0.6758 0.3759,-0.8695 1.2561,-0.8695 0.9503,0 1.1324,0.15537 1.1324,0.96611 0,0.8874 0.1418,0.96611 1.739,0.96611 1.7298,0 1.7391,0.007 1.7391,1.35255 0,0.92004 0.178,1.35258 0.5568,1.35258 0.3063,0 0.6703,0.1836 0.809,0.40801 0.1943,0.31436 0.3313,12.34604 0.2004,17.61696 -0.011,0.45548 -0.2379,0.89023 -0.5036,0.96611 -0.2656,0.0759 -3.048,0.0898 -6.183,0.031 z m 172.6926,-0.003 c -3.3001,-0.0881 -4.1059,-0.22089 -4.1059,-0.67627 0,-0.31163 -0.2609,-0.5666 -0.5796,-0.5666 -0.3188,0 -0.5797,-0.22815 -0.5797,-0.507 0,-0.51772 -2.0103,-2.19813 -2.6295,-2.19813 -0.1883,0 -0.6301,-0.31801 -0.9818,-0.7067 -0.5399,-0.59652 -0.6397,-1.68505 -0.6397,-6.98143 0,-6.54103 0.2024,-7.53459 1.6661,-8.17943 0.4652,-0.20502 1.3963,-0.70661 2.069,-1.11465 0.8073,-0.48963 2.1213,-0.78365 3.8645,-0.8647 2.4012,-0.11163 2.6526,-0.20186 2.7649,-0.9923 0.096,-0.6758 0.3756,-0.8695 1.2559,-0.8695 0.9503,0 1.1325,0.15537 1.1325,0.96611 0,0.8874 0.1416,0.96612 1.739,0.96612 1.7298,0 1.7389,0.007 1.7389,1.35256 0,0.92002 0.1781,1.35256 0.5569,1.35256 0.3063,0 0.6764,0.1935 0.8225,0.43 0.2007,0.32469 0.3272,12.56288 0.1839,17.79378 -0.021,0.76758 -2.0449,0.96209 -8.2779,0.79558 z m -150.2959,-0.59546 c -0.2665,-0.69426 0.031,-17.59103 0.3178,-18.05509 0.1254,-0.20285 0.4917,-0.36881 0.8139,-0.36881 0.4293,0 0.5524,-0.33589 0.4602,-1.25594 -0.1226,-1.22591 -0.084,-1.26058 1.6134,-1.44918 1.453,-0.16145 1.7598,-0.33997 1.8655,-1.08551 0.1769,-1.24824 2.1336,-1.06571 2.3156,0.216 0.1142,0.80423 0.3205,0.86951 2.7479,0.86951 2.1619,0 2.875,0.1702 4.0479,0.96611 0.783,0.53136 1.5595,0.96612 1.7256,0.96612 0.1661,0 0.68,0.40248 1.1422,0.8944 0.7927,0.84385 0.8401,1.25556 0.8401,7.28257 0,5.69796 -0.077,6.45726 -0.7066,7.02772 -0.3887,0.35173 -0.8305,0.63953 -0.9818,0.63953 -0.5676,0 -2.5624,1.7112 -2.5624,2.19811 0,0.27886 -0.3479,0.50701 -0.7729,0.50701 -0.4295,0 -0.7729,0.25763 -0.7729,0.57966 0,0.49016 -0.9186,0.57967 -5.9486,0.57967 -4.5812,0 -5.9936,-0.11767 -6.1449,-0.51191 z m 63.8773,-0.0678 c 0,-0.31882 -0.1827,-0.57967 -0.4058,-0.57967 -0.223,0 -1.0322,-0.60866 -1.7982,-1.35255 -0.766,-0.74391 -1.5999,-1.35257 -1.8532,-1.35257 -0.2533,0 -0.7482,-0.31802 -1.1,-0.70671 -0.5408,-0.59747 -0.6396,-1.69202 -0.6396,-7.08187 0,-6.16423 0.03,-6.40297 0.8944,-7.21543 0.4919,-0.46214 1.0059,-0.84024 1.1421,-0.84024 0.1364,0 0.8885,-0.43476 1.6715,-0.96613 1.1729,-0.7959 1.886,-0.96611 4.0479,-0.96611 2.4273,0 2.6336,-0.0653 2.7478,-0.8695 0.182,-1.28172 2.1388,-1.46424 2.3158,-0.21601 0.1061,0.74912 0.39,0.91136 1.7689,1.01112 1.5912,0.11512 1.6423,0.16033 1.6423,1.44917 0,0.90068 0.1798,1.33035 0.5569,1.33035 0.3063,0 0.6764,0.1935 0.8226,0.42999 0.2013,0.32577 0.3255,12.36853 0.1839,17.82955 -0.016,0.61423 -0.5672,0.67627 -6.0075,0.67627 -5.0668,0 -5.9898,-0.0893 -5.9898,-0.57966 z m 18.733,0.17797 c -0.3186,-0.51563 -0.3063,-16.76653 0.014,-17.77423 0.1327,-0.41793 0.4904,-0.75989 0.7949,-0.75989 0.3733,0 0.5535,-0.4334 0.5535,-1.3314 0,-1.31415 0.024,-1.3329 1.8357,-1.44916 1.5815,-0.10148 1.8531,-0.24133 1.962,-1.01008 0.1014,-0.71552 0.3311,-0.86863 1.1593,-0.77289 0.707,0.0817 1.0696,0.37623 1.1491,0.93339 0.1035,0.72482 0.3944,0.82165 2.6555,0.88385 1.5724,0.0432 2.982,0.32192 3.7021,0.73179 4.4356,2.52488 4.1535,1.90334 4.1535,9.14977 0,4.42887 -0.1423,6.43714 -0.4896,6.91221 -0.5018,0.68623 -1.8823,1.5941 -3.0851,2.02889 -0.3718,0.13445 -0.6762,0.50131 -0.6762,0.81524 0,0.31393 -0.3478,0.66173 -0.7729,0.7729 -0.4251,0.11116 -0.7729,0.44268 -0.7729,0.7367 0,0.43209 -1.1442,0.5346 -5.9671,0.5346 -3.7123,0 -6.061,-0.15178 -6.2154,-0.40169 z m -169.166,-124.39587 c -0.149,-0.56958 -0.5987,-0.77751 -1.8807,-0.8695 -1.5482,-0.1111 -1.6955,-0.21396 -1.8153,-1.26751 -0.072,-0.63063 -0.463,-1.37957 -0.8695,-1.66431 -0.691,-0.48401 -0.7391,-1.0896 -0.7391,-9.30675 0,-6.32065 0.1302,-8.91927 0.4637,-9.25277 0.3159,-0.31591 2.165,-0.46374 5.8006,-0.46374 4.8584,0 5.3958,0.0693 5.9984,0.77289 0.364,0.42509 0.884,0.7729 1.1556,0.7729 0.2716,0 0.4937,0.35806 0.4937,0.79569 0,0.43764 0.1542,0.7004 0.3427,0.58392 0.1885,-0.11648 0.5576,0.0472 0.8201,0.36364 0.2627,0.31648 0.7046,0.57541 0.9819,0.57541 0.2775,0 0.8647,0.45821 1.3052,1.01824 0.7317,0.93019 0.801,1.53377 0.801,6.98142 0,6.22085 -0.2143,7.23245 -1.6659,7.86218 -1.0982,0.47646 -2.3304,1.2515 -2.6235,1.65023 -0.1274,0.17338 -1.5621,0.41585 -3.1882,0.53883 -2.5417,0.19223 -2.9563,0.32417 -2.9563,0.94071 0,1.03623 -2.1525,1.00827 -2.4244,-0.0314 z m 24.0653,0.0324 c 0,-0.61314 -0.4257,-0.75217 -2.9587,-0.96629 -2.3129,-0.19551 -3.2353,-0.46096 -4.2252,-1.21604 -0.6966,-0.53127 -1.4249,-0.96594 -1.6188,-0.96594 -0.1937,0 -0.6401,-0.31802 -0.9918,-0.7067 -0.9196,-1.01607 -0.9514,-12.97469 -0.038,-14.27869 0.3309,-0.47238 0.8587,-0.85887 1.173,-0.85887 0.8513,0 2.4763,-1.17033 2.4763,-1.78346 0,-0.29437 0.2609,-0.53521 0.5797,-0.53521 0.3188,0 0.5796,-0.24225 0.5796,-0.53833 0,-0.29607 0.2752,-0.64387 0.6113,-0.77289 0.9309,-0.3572 10.7173,-0.26818 11.3024,0.10281 0.4026,0.25524 0.5145,2.25293 0.5182,9.24886 0,4.90781 -0.1084,9.10616 -0.2465,9.32967 -0.1381,0.2235 -0.5017,0.40637 -0.8079,0.40637 -0.3789,0 -0.5569,0.43253 -0.5569,1.35255 0,1.34541 -0.01,1.35256 -1.7391,1.35256 -1.4814,0 -1.739,0.11451 -1.739,0.77289 0,0.60114 -0.2576,0.77289 -1.1593,0.77289 -0.8712,0 -1.1593,-0.17805 -1.1593,-0.71618 z m 67.5159,-0.0567 c -0.1606,-0.6141 -0.5271,-0.77289 -1.7841,-0.77289 -1.5503,0 -1.582,-0.0271 -1.582,-1.35256 0,-0.92002 -0.1779,-1.35255 -0.5568,-1.35255 -0.3063,0 -0.6674,-0.17893 -0.8026,-0.39763 -0.33,-0.53402 -0.3428,-17.97244 -0.014,-18.5052 0.167,-0.27022 2.2398,-0.41945 5.8263,-0.41945 5.1715,0 5.5965,0.0549 5.9807,0.77289 0.2275,0.42509 0.648,0.7729 0.9346,0.7729 0.2865,0 0.6008,0.30432 0.6984,0.67627 0.098,0.37196 0.6831,0.92921 1.301,1.23835 2.8739,1.43763 2.8626,1.40395 2.8626,8.52687 0,5.75043 -0.076,6.51101 -0.7067,7.08187 -0.3886,0.35176 -0.8351,0.63957 -0.9918,0.63957 -0.1569,0 -0.8718,0.44736 -1.5886,0.99414 -1.0398,0.79303 -1.8945,1.03885 -4.2251,1.21513 -2.509,0.18974 -2.9218,0.32227 -2.9218,0.93807 0,1.05437 -2.1533,1.00495 -2.4307,-0.0558 z m 82.7057,0.0244 c -0.1489,-0.56957 -0.5987,-0.7775 -1.8807,-0.8695 -1.5394,-0.11046 -1.696,-0.21786 -1.8131,-1.24378 -0.071,-0.61759 -0.4803,-1.40814 -0.9108,-1.75678 -0.745,-0.60331 -0.7818,-1.04955 -0.7607,-9.24834 0.015,-5.98931 0.1602,-8.78079 0.4752,-9.16031 0.3504,-0.42223 1.6684,-0.54586 5.8197,-0.54586 4.8884,0 5.4257,0.0689 6.0284,0.77289 0.3641,0.42509 0.884,0.7729 1.1555,0.7729 0.2716,0 0.494,0.31534 0.494,0.70075 0,0.44613 0.5065,0.89952 1.3939,1.24775 2.6449,1.03777 2.8569,1.6588 2.8569,8.36981 0,6.22086 -0.2144,7.23246 -1.6659,7.86219 -1.0666,0.46273 -2.3262,1.24716 -2.6069,1.62343 -0.1185,0.15865 -1.553,0.40154 -3.1882,0.53976 -2.5465,0.21527 -2.9731,0.35406 -2.9731,0.96751 0,1.03541 -2.1526,1.00663 -2.4242,-0.0324 z"
         id="path3146"
         inkscape:connector-curvature="0" />
    </g>
  </g>
</svg>
