<?xml version="1.0" encoding="UTF-8" standalone="no"?>
<svg
   xmlns:dc="http://purl.org/dc/elements/1.1/"
   xmlns:cc="http://creativecommons.org/ns#"
   xmlns:rdf="http://www.w3.org/1999/02/22-rdf-syntax-ns#"
   xmlns:svg="http://www.w3.org/2000/svg"
   xmlns="http://www.w3.org/2000/svg"
   version="1.1"
   id="svg4464"
   viewBox="0 0 21.999201 4.3390508"
   width="65.997603">
  <defs
     id="defs4466" />
  <metadata
     id="metadata4469">
    <rdf:RDF>
      <cc:Work
         rdf:about="">
        <dc:format>image/svg+xml</dc:format>
        <dc:type
           rdf:resource="http://purl.org/dc/dcmitype/StillImage" />
        <dc:title></dc:title>
      </cc:Work>
    </rdf:RDF>
  </metadata>
  <g
     transform="translate(581.736,-726.00049)"
     id="layer1">
    <g
       id="g4483">
      <path
         id="path4485"
         d="m -565.86727,730.32931 c -0.3164,-0.0252 -0.43303,-0.0791 -0.91985,-0.42471 -0.11561,-0.0821 -0.30691,-0.21029 -0.42512,-0.28494 -0.18146,-0.11459 -0.23039,-0.1398 -0.31424,-0.16193 l -0.0993,-0.0262 -0.64962,0.11353 c -0.42183,0.0737 -0.64963,0.11847 -0.64963,0.12762 0,0.0365 -0.0914,0.0378 -0.251,0.004 -0.0817,-0.0176 -0.12684,-0.0338 -0.14784,-0.0533 -0.0487,-0.0452 -1.07354,-0.71912 -1.09363,-0.71912 -0.0139,0 -0.0183,0.0145 -0.0183,0.0604 0,0.0524 0.003,0.0604 0.0242,0.0604 0.0133,0 0.0242,-0.006 0.0242,-0.0129 0,-0.007 0.015,-0.0112 0.0332,-0.009 0.0332,0.004 0.0332,0.004 0.0332,0.10052 0,0.0965 -7e-5,0.0967 -0.0332,0.10051 -0.0183,0.002 -0.0332,-0.002 -0.0332,-0.009 0,-0.007 -0.0134,-0.0129 -0.0298,-0.0129 -0.0457,0 -0.058,0.0385 -0.0595,0.18473 -10e-4,0.12111 -0.004,0.13342 -0.0285,0.15367 -0.0239,0.0194 -0.0272,0.0331 -0.0272,0.11501 0,0.0751 -0.006,0.10458 -0.0302,0.15315 -0.0195,0.0388 -0.0302,0.0805 -0.0302,0.11723 0,0.0487 -0.006,0.0627 -0.0399,0.0957 -0.028,0.0271 -0.0514,0.0386 -0.0786,0.0386 -0.0255,0 -0.0387,0.006 -0.0387,0.0172 0,0.0142 -0.0316,0.0172 -0.17785,0.0169 -0.11938,-2.5e-4 -0.17932,0.004 -0.1823,0.0129 -0.006,0.0174 -0.2925,0.0186 -0.2925,10e-4 0,-0.007 -0.0185,-0.0121 -0.0411,-0.0121 -0.0319,0 -0.0494,-0.01 -0.0786,-0.0427 -0.0207,-0.0235 -0.0375,-0.0534 -0.0375,-0.0665 0,-0.0226 -0.009,-0.0237 -0.19338,-0.0237 l -0.19337,0 0,0.0278 c 0,0.0385 -0.0712,0.1051 -0.11238,0.1051 -0.0179,0 -0.0326,0.005 -0.0326,0.0121 0,0.007 -0.0584,0.0121 -0.15108,0.0121 -0.0927,0 -0.15108,-0.005 -0.15108,-0.0121 0,-0.007 -0.0105,-0.0121 -0.0234,-0.0121 -0.0129,0 -0.027,-0.006 -0.0313,-0.0127 -0.005,-0.008 -0.0128,-0.009 -0.0219,-9e-4 -0.008,0.006 -0.0755,0.0117 -0.15071,0.0118 -0.10751,1.8e-4 -0.13808,-0.003 -0.1433,-0.0171 -0.004,-0.01 -0.0226,-0.0173 -0.043,-0.0173 -0.0263,0 -0.0497,-0.0134 -0.0847,-0.0483 -0.0266,-0.0266 -0.0501,-0.0484 -0.0523,-0.0484 -0.002,0 -0.006,0.0286 -0.008,0.0634 l -0.004,0.0635 -0.16618,0.003 -0.16618,0.003 0,-0.0668 c 0,-0.0632 -0.002,-0.0668 -0.0302,-0.0668 -0.02,0 -0.0451,0.0165 -0.0739,0.0484 -0.031,0.0343 -0.0534,0.0483 -0.0772,0.0483 -0.0185,0 -0.0365,0.008 -0.0402,0.0173 -0.005,0.0136 -0.0358,0.0172 -0.1433,0.0171 -0.0752,-1.2e-4 -0.14299,-0.005 -0.1507,-0.0118 -0.009,-0.008 -0.0168,-0.007 -0.0219,9e-4 -0.004,0.007 -0.0184,0.0127 -0.0313,0.0127 -0.0129,0 -0.0235,0.005 -0.0235,0.0121 0,0.007 -0.0584,0.0121 -0.15108,0.0121 -0.0927,0 -0.15108,-0.005 -0.15108,-0.0121 0,-0.007 -0.0152,-0.0121 -0.0338,-0.0121 -0.0382,0 -0.12331,-0.0775 -0.12331,-0.11231 0,-0.0186 -0.0187,-0.0207 -0.18734,-0.0207 -0.17885,0 -0.18733,9e-4 -0.18733,0.024 0,0.0349 -0.0836,0.10822 -0.12388,0.10861 -0.0183,1.8e-4 -0.0332,0.006 -0.0332,0.0124 0,0.0172 -0.28139,0.016 -0.29871,-0.002 -0.009,-0.009 -0.0736,-0.0133 -0.18272,-0.0129 -0.13627,6.1e-4 -0.17053,-0.003 -0.17589,-0.0167 -0.004,-0.01 -0.0221,-0.0173 -0.0409,-0.0173 -0.0229,0 -0.0471,-0.0132 -0.0729,-0.0399 -0.0375,-0.0387 -0.0386,-0.043 -0.0386,-0.14564 0,-0.0723 -0.006,-0.11734 -0.0189,-0.14231 -0.0119,-0.023 -0.016,-0.0496 -0.0111,-0.0719 l 0.008,-0.0354 -0.0614,0 -0.0614,0 0,0.13295 0,0.13295 -0.25079,6e-5 c -0.3436,7e-5 -0.52272,0.011 -0.52272,0.032 0,0.0122 -0.0227,0.0163 -0.0906,0.0163 -0.0783,0 -0.0906,-0.003 -0.0906,-0.0211 -10e-6,-0.014 -0.0326,-0.0387 -0.0967,-0.0733 l -0.0967,-0.0522 -6e-4,0.0764 c -2.5e-4,0.0509 -0.007,0.0844 -0.0195,0.10053 -0.0132,0.0167 -0.0209,0.0195 -0.0248,0.009 -0.007,-0.0181 -0.12451,-0.021 -0.12451,-0.003 0,0.007 -0.008,0.0121 -0.0176,0.0121 -0.0103,0 -0.0207,-0.0163 -0.025,-0.0393 l -0.007,-0.0393 -0.0959,0.004 c -0.0886,0.004 -0.0959,0.003 -0.0959,-0.0193 0,-0.0173 -0.028,-0.0386 -0.10511,-0.0798 -0.11344,-0.0607 -0.13362,-0.066 -0.14433,-0.0381 -0.005,0.0141 -0.0293,0.0181 -0.10759,0.0181 l -0.10064,0 -0.004,0.0332 c -0.003,0.0296 -0.01,0.0339 -0.0578,0.0393 -0.0496,0.006 -0.0546,0.009 -0.062,0.0459 -0.01,0.0493 -0.0192,0.0593 -0.0377,0.0409 -0.0193,-0.0193 -0.12664,-0.0187 -0.13411,9e-4 -0.004,0.0101 -0.0124,0.006 -0.0259,-0.0121 -0.011,-0.015 -0.0306,-0.0272 -0.0436,-0.0272 -0.0153,0 -0.0235,-0.008 -0.0235,-0.0237 0,-0.0432 -0.0374,-0.0488 -0.32553,-0.0488 l -0.27877,0 0,0.0363 0,0.0362 -0.0786,0 c -0.0739,0 -0.0786,-10e-4 -0.0786,-0.0278 0,-0.0153 -0.007,-0.0343 -0.0145,-0.0423 -0.0175,-0.0175 -0.13812,-0.0195 -0.14866,-0.002 -0.004,0.007 -0.0476,0.0121 -0.0967,0.0121 -0.0491,0 -0.0926,-0.005 -0.0967,-0.0121 -0.005,-0.008 -0.13967,-0.0126 -0.36027,-0.0135 -0.19404,-9e-4 -0.38815,-0.005 -0.43136,-0.009 l -0.0786,-0.008 -0.003,-0.17129 -0.003,-0.17128 -0.24745,0.002 -0.24744,0.002 0,-0.0363 0,-0.0363 0.19943,0.004 0.19942,0.004 1e-5,-0.0284 10e-6,-0.0285 -0.17637,0.004 c -0.10863,0.003 -0.19786,-10e-4 -0.23237,-0.01 -0.0394,-0.01 -0.0573,-0.0103 -0.0603,-10e-4 -0.009,0.0263 -0.0256,0.0117 -0.0332,-0.0287 -0.006,-0.0326 -0.0148,-0.043 -0.0398,-0.0479 -0.0774,-0.0152 -0.31378,-0.0458 -0.3523,-0.0456 -0.0232,1.3e-4 -0.13748,-0.0135 -0.25381,-0.0302 -0.11633,-0.0167 -0.22374,-0.03 -0.23869,-0.0294 l -0.0272,9e-4 0,-0.61368 0,-0.61367 0.2387,-0.0331 c 0.13129,-0.0182 0.26045,-0.0331 0.28704,-0.0331 0.0266,2e-5 0.11905,-0.0106 0.20547,-0.0236 0.0864,-0.013 0.16059,-0.0237 0.16483,-0.0239 0.004,-1.5e-4 0.0113,-0.0193 0.0157,-0.0426 0.008,-0.041 0.0245,-0.0558 0.0333,-0.0293 0.009,0.0279 0.0683,-0.005 0.11196,-0.0622 l 0.0454,-0.0596 0.15884,-0.001 c 0.0874,-9e-4 0.23152,-1.7e-4 0.32035,9e-4 0.13024,0.002 0.16046,-9e-4 0.15614,-0.0139 -0.004,-0.0117 -0.0378,-0.0171 -0.12237,-0.0197 l -0.11701,-0.003 -0.0905,-0.1807 c -0.0498,-0.0994 -0.0905,-0.18348 -0.0905,-0.18689 0,-0.003 0.0489,-0.006 0.10878,-0.006 0.0598,0 0.10877,-0.005 0.10877,-0.0102 0,-0.006 -0.0626,-0.13885 -0.13921,-0.29611 l -0.1392,-0.28591 -0.11824,0 -0.11824,0 -0.0266,-0.0547 c -0.0146,-0.0301 -0.0266,-0.06 -0.0266,-0.0665 0,-0.007 0.0942,-0.0117 0.24486,-0.0117 l 0.24486,0 -1.3e-4,-0.0393 -1.2e-4,-0.0393 0.28402,-0.003 0.28403,-0.003 0.0273,0.0423 0.0273,0.0423 0.30651,0 0.30651,0 0.006,-0.0549 c 0.003,-0.0302 0.015,-0.0646 0.0257,-0.0765 0.0108,-0.0119 0.0196,-0.0328 0.0196,-0.0466 0,-0.0276 0.0217,-0.0397 0.0705,-0.0395 0.0579,2.6e-4 0.0866,0.0134 0.0866,0.0396 0,0.0137 0.009,0.0345 0.0196,0.0464 0.0107,0.0119 0.0223,0.0463 0.0257,0.0765 l 0.006,0.0549 0.10675,0 c 0.068,0 0.28764,0.0267 0.60455,0.0734 l 0.49779,0.0734 0.0301,-0.0301 c 0.0181,-0.0181 0.0306,-0.0451 0.0314,-0.0677 0.001,-0.0335 0.005,-0.0369 0.0316,-0.0313 0.0166,0.003 0.17706,0.0338 0.35653,0.0674 0.41403,0.0775 0.38071,0.0682 0.38071,0.10578 0,0.0172 0.0139,0.0514 0.031,0.076 0.0296,0.0428 0.0359,0.0456 0.14805,0.0657 0.0644,0.0116 0.22587,0.0415 0.35881,0.0666 0.16498,0.0311 0.24639,0.0418 0.25642,0.0336 0.008,-0.007 0.0357,-0.009 0.0639,-0.004 0.0773,0.013 0.0846,8e-5 0.0846,-0.14986 0,-0.1396 0.013,-0.17752 0.0635,-0.1847 0.0248,-0.004 0.0272,-0.0105 0.0279,-0.0824 6e-4,-0.0432 0.007,-0.0939 0.0151,-0.11258 0.008,-0.0187 0.0143,-0.0788 0.0143,-0.13352 0,-0.0992 1.3e-4,-0.0996 0.0458,-0.14424 0.03,-0.0293 0.0571,-0.0448 0.0786,-0.0448 0.018,0 0.0327,-0.005 0.0327,-0.0118 0,-0.007 0.0667,-0.0114 0.17044,-0.0109 0.10886,6e-4 0.17523,-0.004 0.18371,-0.0123 0.0171,-0.0171 0.2985,-0.0182 0.2985,-10e-4 0,0.007 0.018,0.0121 0.04,0.0121 0.0287,0 0.0499,0.0103 0.0748,0.0363 l 0.0347,0.0363 0.20095,0 0.20094,0 0.0347,-0.0363 c 0.0225,-0.0234 0.0467,-0.0363 0.0687,-0.0363 0.0187,0 0.034,-0.005 0.034,-0.0121 0,-0.007 0.0584,-0.0121 0.15108,-0.0121 0.0927,0 0.15108,0.005 0.15108,0.0121 0,0.007 0.01,0.0121 0.0218,0.0121 0.012,0 0.0283,0.007 0.0363,0.0145 0.0109,0.0109 0.0145,0.011 0.0145,2.5e-4 0,-0.0101 0.0435,-0.0141 0.15108,-0.014 0.0879,1.1e-4 0.15107,0.005 0.15107,0.0117 0,0.006 0.0157,0.0116 0.0348,0.0116 0.0191,0 0.0416,0.008 0.0498,0.0181 0.0224,0.027 0.54566,0.027 0.56804,0 0.008,-0.01 0.0304,-0.0181 0.0491,-0.0181 0.0187,0 0.0374,-0.005 0.0415,-0.0121 0.005,-0.007 0.077,-0.0113 0.18432,-0.01 0.12644,0.002 0.17819,-0.002 0.18158,-0.0121 0.006,-0.0182 0.30488,-0.0203 0.30488,-0.002 0,0.007 0.0154,0.0121 0.0341,0.0121 0.0208,0 0.0453,0.0118 0.0625,0.0302 0.0282,0.03 0.0298,0.0302 0.24172,0.0302 0.21193,0 0.21352,-2e-4 0.24172,-0.0302 0.0192,-0.0205 0.0413,-0.0302 0.0686,-0.0302 0.0221,0 0.0402,-0.005 0.0402,-0.0121 0,-0.0172 0.2867,-0.0161 0.29246,10e-4 0.003,0.009 0.0636,0.0131 0.1823,0.0127 0.10459,-2.5e-4 0.17789,0.004 0.17789,0.0109 0,0.006 0.0152,0.0115 0.0338,0.0115 0.0377,0 0.12331,0.0773 0.12331,0.11131 0,0.0108 0.0136,0.0467 0.0302,0.0798 0.0267,0.0531 0.0302,0.0755 0.0302,0.19146 0,0.11822 0.002,0.13281 0.0242,0.1464 0.0214,0.0134 0.0242,0.0282 0.0242,0.12982 l 0,0.11471 0.11353,0 c 0.0898,0 0.11498,-0.004 0.12048,-0.0181 0.01,-0.0261 0.2036,-0.0261 0.22527,0 0.008,0.01 0.0305,0.0181 0.0495,0.0181 0.0261,0 0.039,0.009 0.0532,0.0363 0.0111,0.0216 0.0284,0.0363 0.0424,0.0363 0.013,0 0.0756,0.047 0.13902,0.1044 0.0635,0.0574 0.11762,0.10216 0.12037,0.0994 0.003,-0.003 -0.006,-0.0291 -0.019,-0.0587 -0.0226,-0.0505 -0.0232,-0.0634 -0.0103,-0.21726 0.008,-0.09 0.0162,-0.16612 0.0194,-0.16923 0.003,-0.003 0.14812,-0.0173 0.32227,-0.0316 l 0.31663,-0.0259 0.51357,0.24784 0.51358,0.24783 0.36871,-0.0196 c 0.20279,-0.0108 0.44348,-0.0231 0.53489,-0.0275 0.13355,-0.006 0.16618,-0.0113 0.16618,-0.0254 0,-0.0145 0.0238,-0.0168 0.13945,-0.0135 0.0934,0.003 0.14248,0.009 0.14861,0.0189 0.0122,0.0198 0.14319,0.0275 0.53585,0.0316 0.24406,0.002 0.32698,0.007 0.34143,0.0192 0.0134,0.0111 0.0191,0.0369 0.0191,0.0869 0,0.0413 0.005,0.071 0.0126,0.071 0.0221,0 0.35445,0.036 0.3953,0.0429 0.0226,0.004 0.0393,0.0138 0.0393,0.0236 0,0.0177 0.0189,0.0226 0.16143,0.0418 0.078,0.0105 0.0864,0.009 0.14184,-0.0213 0.0577,-0.0318 0.059,-0.0338 0.0591,-0.0899 l 1.7e-4,-0.0574 0.0707,0 c 0.0389,0 0.10417,0.003 0.14503,0.008 0.0678,0.007 0.0743,0.0103 0.0743,0.0363 0,0.0266 0.005,0.0285 0.0695,0.0287 0.20814,6e-4 0.60228,0.0545 1.09562,0.15037 0.11899,0.0231 0.22025,0.0396 0.22502,0.0367 0.0111,-0.007 0.23798,0.0362 0.27774,0.0528 0.0404,0.0168 0.28733,0.0568 0.60128,0.0974 0.23499,0.0304 0.25683,0.0315 0.25683,0.013 0,-0.0174 0.008,-0.0189 0.0574,-0.0108 0.0316,0.005 0.0642,0.01 0.0725,0.0101 0.008,6.1e-4 0.0152,0.009 0.0152,0.0181 0,0.0233 0.0895,0.0361 0.17629,0.0253 0.0507,-0.006 0.0724,-0.004 0.0875,0.009 0.0257,0.0221 0.26668,0.0481 0.34528,0.0373 0.0358,-0.005 0.061,-0.003 0.0659,0.005 0.004,0.007 0.10731,0.0326 0.22884,0.057 0.25114,0.0504 0.28108,0.0609 0.38513,0.13517 0.0947,0.0676 0.29802,0.27966 0.36115,0.3767 0.0264,0.0406 0.0564,0.074 0.0667,0.0743 0.0213,6.1e-4 0.0804,0.11251 0.0626,0.11844 -0.0131,0.004 0.0349,0.14574 0.0536,0.15808 0.0163,0.0108 0.0284,0.0609 0.0164,0.0683 -0.0133,0.008 -0.002,0.1095 0.0197,0.18113 0.0127,0.0415 0.0144,0.0614 0.005,0.0645 -0.009,0.003 -0.0132,0.0848 -0.0132,0.2559 0,0.21241 0.003,0.25259 0.0181,0.25847 0.0249,0.01 0.0229,0.045 -0.003,0.0518 -0.0212,0.006 -0.0514,0.0557 -0.0514,0.0853 0,0.009 -0.0106,0.0157 -0.0236,0.0157 -0.018,0 -0.0254,0.0109 -0.0309,0.0453 -0.0167,0.10411 -0.007,0.096 -0.1236,0.10508 -0.0582,0.005 -0.1154,0.011 -0.12703,0.0143 -0.0266,0.008 -0.0281,0.0596 -0.002,0.0696 0.0332,0.0127 0.51062,0.008 0.51871,-0.005 0.004,-0.007 0.0432,-0.0121 0.087,-0.0121 l 0.0795,0 -0.009,0.0574 c -0.005,0.0316 -0.01,0.0737 -0.0108,0.0937 l -0.002,0.0363 -0.10261,-0.004 c -0.0564,-0.002 -0.11178,-0.009 -0.12297,-0.0151 -0.0271,-0.0142 -0.20737,-0.0138 -0.22197,6e-4 -0.006,0.006 -0.0332,0.0134 -0.0598,0.0161 -0.0332,0.003 -0.0691,0.0205 -0.11482,0.0551 -0.0636,0.0482 -0.10877,0.0642 -0.10877,0.0384 0,-0.007 -0.0136,-0.0121 -0.0302,-0.0121 -0.0207,0 -0.0303,0.007 -0.0304,0.0212 -1.4e-4,0.0141 -0.0233,0.0312 -0.0695,0.0512 -0.0777,0.0337 -0.10401,0.0351 -0.43234,0.0229 -0.18783,-0.007 -0.2112,-0.0104 -0.26589,-0.0382 -0.033,-0.0167 -0.0856,-0.0576 -0.11696,-0.0908 -0.0563,-0.0596 -0.0569,-0.0612 -0.0496,-0.12298 l 0.007,-0.0626 -0.0411,0.007 c -0.14205,0.024 -0.78071,0.0966 -1.12561,0.12792 -0.36536,0.0332 -0.44509,0.0445 -0.76746,0.10929 -0.35528,0.0714 -0.36111,0.0721 -0.46999,0.0601 -0.0978,-0.0108 -0.11799,-0.01 -0.17871,0.0113 -0.12541,0.0432 -0.48684,0.13274 -0.6103,0.15129 -0.095,0.0143 -0.22767,0.0179 -0.60235,0.0165 -0.26428,-9e-4 -0.53217,-0.006 -0.59532,-0.0109 z m -3.32097,-1.03276 c -0.004,-0.0297 -0.005,-0.0539 -0.003,-0.13899 9e-4,-0.0418 -0.0115,-0.10683 -0.0328,-0.17524 l -0.034,-0.10878 -0.36214,-0.003 c -0.32755,-0.002 -0.35983,-9e-4 -0.33796,0.0158 0.021,0.0161 0.62375,0.38903 0.6889,0.42622 0.0384,0.022 0.0852,0.0126 0.0812,-0.0163 z m -1.07342,-1.13609 c 0.0224,-0.0341 0.0684,-0.0402 0.0918,-0.0121 0.016,0.0193 0.16921,0.027 0.16921,0.009 0,-0.005 -0.0245,-0.0336 -0.0544,-0.063 l -0.0544,-0.0534 0,-0.12318 0,-0.12317 -0.10879,-0.13067 -0.10878,-0.13067 0.0509,-0.0518 c 0.0443,-0.0451 0.0576,-0.0518 0.10274,-0.0518 l 0.0519,0 0,-0.15778 0,-0.15779 -0.0668,-0.0295 c -0.0823,-0.0364 -0.12224,-0.038 -0.1326,-0.005 -0.008,0.0249 -0.0665,0.0356 -0.0665,0.0121 0,-0.007 -0.01,-0.0121 -0.0223,-0.0121 -0.021,0 -0.0228,0.0213 -0.0309,0.36435 l -0.009,0.36435 -0.0597,0.0687 -0.0597,0.0687 0,0.11086 0,0.11086 0.0469,0 c 0.0269,0 0.0533,-0.008 0.0619,-0.0181 0.008,-0.01 0.0307,-0.0181 0.0498,-0.0181 0.029,0 0.0348,0.005 0.0348,0.0302 0,0.027 0.005,0.0302 0.047,0.0302 0.0367,0 0.0512,-0.007 0.0667,-0.0302 z"
         style="fill:#000000" />
    </g>
  </g>
</svg>
