<?xml version="1.0" encoding="UTF-8" standalone="no"?>
<svg
   xmlns:dc="http://purl.org/dc/elements/1.1/"
   xmlns:cc="http://creativecommons.org/ns#"
   xmlns:rdf="http://www.w3.org/1999/02/22-rdf-syntax-ns#"
   xmlns:svg="http://www.w3.org/2000/svg"
   xmlns="http://www.w3.org/2000/svg"
   version="1.1"
   id="svg4495"
   viewBox="0 0 48.999935 18.0021"
   width="146.999805">
  <defs
     id="defs4497" />
  <metadata
     id="metadata4500">
    <rdf:RDF>
      <cc:Work
         rdf:about="">
        <dc:format>image/svg+xml</dc:format>
        <dc:type
           rdf:resource="http://purl.org/dc/dcmitype/StillImage" />
        <dc:title></dc:title>
      </cc:Work>
    </rdf:RDF>
  </metadata>
  <g
     transform="translate(441.21956,-845.30329)"
     id="layer1">
    <g
       transform="translate(-440,-214.28571)"
       id="g4514">
      <path
         id="path4516"
         d="m 15.766926,1077.5725 c 0,-0.012 0.01454,-0.036 0.0323,-0.054 0.02513,-0.025 0.01664,-0.032 -0.03818,-0.032 -0.149621,0 -0.209894,-0.077 -0.104547,-0.1332 0.033,-0.018 0.671677,-0.028 1.803633,-0.029 l 1.752535,0 0,-0.1329 0,-0.1329 -0.491288,-0.01 -0.491288,-0.01 -0.0085,-0.074 c -0.0065,-0.056 -0.02306,-0.074 -0.06865,-0.074 -0.07261,0 -0.124736,-0.047 -0.124736,-0.113 0,-0.027 -0.01606,-0.049 -0.03569,-0.049 -0.01963,0 -0.06414,-0.03 -0.09891,-0.067 -0.03477,-0.037 -0.08913,-0.067 -0.120796,-0.067 -0.03166,0 -0.09315,-0.037 -0.136637,-0.082 l -0.07907,-0.082 -0.008,-0.7237 -0.008,-0.7237 0.09858,-0.1091 c 0.05422,-0.06 0.119522,-0.1091 0.145116,-0.1091 0.02559,0 0.06846,-0.024 0.09526,-0.054 0.0268,-0.03 0.06966,-0.054 0.09525,-0.054 0.02559,0 0.05247,-0.023 0.05973,-0.051 0.01139,-0.043 0.04971,-0.053 0.279068,-0.067 0.146227,-0.01 0.311295,-0.016 0.366817,-0.016 0.09782,0 0.10095,0 0.10095,-0.094 0,-0.095 3.54e-4,-0.095 0.12114,-0.095 0.120498,0 0.121139,0 0.121139,0.094 l 0,0.094 0.161519,0 0.16152,0 0,-0.3474 0,-0.3475 -0.06521,0.031 c -0.03759,0.018 -0.07151,0.062 -0.08009,0.1052 -0.01222,0.061 -0.02908,0.074 -0.09452,0.074 -0.06687,0 -0.08101,0.012 -0.08816,0.074 l -0.0085,0.074 -0.282659,0.017 c -0.155463,0.01 -0.443169,0.019 -0.639348,0.02 -0.323303,0 -0.361728,0 -0.410528,-0.051 -0.02961,-0.03 -0.05384,-0.076 -0.05384,-0.1023 0,-0.026 -0.01317,-0.062 -0.02927,-0.078 -0.02107,-0.021 -0.02107,-0.034 0,-0.047 0.05176,-0.032 0.03215,-0.1644 -0.03348,-0.226 -0.06075,-0.057 -0.06418,-0.057 -0.107566,-0.01 -0.03238,0.036 -0.043,0.09 -0.03825,0.1956 0.0052,0.1164 -0.0061,0.1639 -0.05579,0.2336 l -0.06235,0.088 -0.368315,0 c -0.202574,0 -0.495512,-0.011 -0.650975,-0.02 -0.28195,-0.017 -0.28268,-0.017 -0.291019,-0.089 -0.0065,-0.056 -0.02481,-0.074 -0.08076,-0.081 -0.05641,-0.01 -0.07428,-0.024 -0.08092,-0.082 -0.0057,-0.049 -0.02422,-0.074 -0.05588,-0.074 -0.02605,0 -0.07581,-0.03 -0.110584,-0.067 -0.03477,-0.037 -0.08409,-0.067 -0.109584,-0.067 -0.0255,0 -0.08395,-0.043 -0.129907,-0.095 l -0.08355,-0.095 0,-0.5644 0,-0.5644 -0.10809,-0.1081 c -0.115932,-0.1159 -0.12256,-0.1776 -0.03426,-0.3188 0.03104,-0.05 0.04647,-0.056 0.07083,-0.03 0.02364,0.025 0.02304,0.036 -0.0025,0.045 -0.05002,0.018 -0.041,0.1413 0.01185,0.1616 0.02647,0.01 0.05029,0 0.05695,-0.017 0.02366,-0.071 0.174282,-0.2176 0.223558,-0.2176 0.02818,0 0.07756,-0.03 0.109745,-0.067 0.03218,-0.037 0.08056,-0.067 0.107502,-0.067 0.02694,0 0.04899,0 0.04899,-0.011 0,-0.01 0.0074,-0.03 0.01634,-0.054 0.0114,-0.03 7.08e-4,-0.043 -0.03534,-0.043 -0.02843,0 -0.08329,-0.033 -0.121911,-0.074 -0.0575,-0.061 -0.07294,-0.1082 -0.0852,-0.2625 -0.0398,-0.5008 -0.04388,-0.5213 -0.105962,-0.5301 -0.05373,-0.01 -0.0593,-0.027 -0.07172,-0.2552 -0.0074,-0.1358 -0.02366,-0.2569 -0.03614,-0.2692 -0.01248,-0.012 -0.0726,-0.022 -0.133606,-0.022 -0.107222,0 -0.11121,0 -0.119363,-0.094 -0.0046,-0.052 -0.0014,-0.1229 0.0071,-0.1581 0.01359,-0.056 0.02705,-0.062 0.10839,-0.049 l 0.09288,0.015 0,-0.1195 c 0,-0.1186 -6.79e-4,-0.1195 -0.09422,-0.1195 -0.07364,0 -0.09422,0.011 -0.09422,0.05 0,0.059 -0.08111,0.1387 -0.141495,0.1387 -0.02367,0 -0.06686,-0.03 -0.09597,-0.067 -0.03039,-0.039 -0.08066,-0.067 -0.118018,-0.067 -0.03579,0 -0.09108,-0.024 -0.122869,-0.054 -0.0556,-0.052 -0.095,-0.054 -1.038833,-0.054 l -0.981043,0 -0.05559,0.094 c -0.04564,0.077 -0.07146,0.094 -0.144243,0.094 -0.09471,0 -0.144276,0.051 -0.197161,0.2018 -0.01916,0.055 -0.06434,0.098 -0.140354,0.1347 -0.109176,0.052 -0.112121,0.057 -0.113071,0.1888 -7.96e-4,0.1146 0.0081,0.1389 0.05959,0.1615 0.04519,0.02 0.06275,0.053 0.06917,0.1317 l 0.0086,0.1051 0.523063,-0.017 0.523063,-0.017 0,0.4196 0,0.4196 -0.524939,-0.011 -0.524937,-0.011 0,0.1024 c 0,0.083 -0.01268,0.1081 -0.0673,0.133 -0.06576,0.03 -0.0673,0.037 -0.0673,0.3225 l 0,0.2918 -1.090256,0 -1.0902552,0 0,-0.067 c 0,-0.037 -0.012112,-0.067 -0.026919,-0.067 -0.014806,0 -0.026919,0.012 -0.026919,0.027 0,0.015 -0.030285,0.027 -0.0673,0.027 -0.037015,0 -0.0673,-0.012 -0.0673,-0.027 0,-0.016 -0.089733,-0.027 -0.2153593,-0.027 l -0.2153591,0 0,0.1481 c 0,0.081 -0.012113,0.148 -0.026919,0.148 -0.014806,0 -0.026919,0.018 -0.026919,0.04 0,0.022 -0.012112,0.04 -0.026919,0.04 -0.014806,0 -0.026919,-0.012 -0.026919,-0.027 0,-0.015 -0.071786,-0.027 -0.1615193,-0.027 -0.1041825,0 -0.1615195,0.011 -0.1615195,0.031 0,0.018 -0.023307,0.01 -0.05384,-0.018 -0.029611,-0.027 -0.05384,-0.077 -0.05384,-0.1119 0,-0.04 -0.015818,-0.063 -0.043435,-0.063 -0.032949,0 -0.040573,-0.019 -0.031582,-0.081 l 0.011853,-0.081 -0.3318361,0 c -0.2032782,0 -0.3318364,0.011 -0.3318364,0.027 0,0.015 -0.036342,0.027 -0.08076,0.027 -0.044418,0 -0.08076,-0.012 -0.08076,-0.027 0,-0.017 -0.1794661,-0.027 -0.484558,-0.027 l -0.4845582,0 0,0.089 c 0,0.1073 -0.054563,0.2337 -0.1009498,0.234 -0.018509,10e-5 -0.03365,-0.012 -0.03365,-0.026 0,-0.015 -0.066626,-0.027 -0.1480594,-0.027 -0.081433,0 -0.1480592,0.012 -0.1480592,0.027 0,0.015 -0.012112,0.027 -0.026919,0.027 -0.014806,0 -0.026919,-0.018 -0.026919,-0.04 0,-0.022 -0.012112,-0.04 -0.026919,-0.04 -0.014806,0 -0.026919,-0.03 -0.026919,-0.067 0,-0.042 -0.015255,-0.067 -0.04038,-0.067 -0.023806,0 -0.040549,-0.025 -0.040792,-0.061 -2.951e-4,-0.043 -0.00688,-0.05 -0.023112,-0.025 -0.038875,0.061 -0.1737881,0.027 -0.2125084,-0.054 -0.033387,-0.07 -0.036959,-0.071 -0.1079361,-0.03 -0.069739,0.04 -0.084997,0.037 -0.3053596,-0.054 -0.1381567,-0.057 -0.2552133,-0.09 -0.2894743,-0.081 -0.057709,0.015 -0.1475231,-0.035 -0.1258174,-0.07 0.00637,-0.01 -0.059365,-0.014 -0.1460814,-0.01 -0.1472215,0.011 -0.1582611,0.01 -0.1666693,-0.049 -0.00495,-0.034 -0.043191,-0.086 -0.084974,-0.1175 -0.066133,-0.049 -0.1213705,-0.058 -0.426602,-0.066 -0.2318045,-0.01 -0.3606941,0 -0.3803225,0.02 -0.037224,0.037 -0.4672252,0.04 -0.4900211,0 -0.010487,-0.017 -0.3129661,-0.027 -0.8185097,-0.027 -0.4410301,0 -0.9121973,-0.01 -1.0470389,-0.017 l -0.2451664,-0.017 -0.00798,-0.4295 c -0.00439,-0.2362 -2.154e-4,-0.442 0.00925,-0.4572 0.010807,-0.017 0.2946666,-0.033 0.7615242,-0.042 l 0.7442942,-0.014 -0.060852,-0.065 c -0.060539,-0.064 -0.063617,-0.065 -0.6000046,-0.062 -0.2965344,0 -0.5542958,0 -0.5728032,0 -0.020224,0 -0.03365,-0.039 -0.03365,-0.096 l 0,-0.094 -0.3703262,0 c -0.20367946,0 -0.40961666,-0.011 -0.45763827,-0.025 -0.0538398,-0.015 -0.087312,-0.015 -0.087312,0 0,0.053 -0.053604,0.022 -0.0691198,-0.04 -0.0196255,-0.078 -0.0427176,-0.084 -0.45581815,-0.1229 -0.17767135,-0.017 -0.55017538,-0.056 -0.8277868,-0.087 l -0.50474808,-0.057 0,-1.0187 0,-1.0187 0.088608,0 c 0.048734,0 0.22741502,-0.018 0.39706851,-0.041 0.16965321,-0.022 0.39931519,-0.045 0.51035976,-0.051 0.11104455,-0.01 0.33102051,-0.026 0.48883538,-0.045 0.28634828,-0.034 0.28696881,-0.034 0.30283702,-0.1134 0.0123013,-0.062 0.0238381,-0.073 0.0509634,-0.05 0.0556892,0.046 0.15327034,0 0.25579391,-0.1087 l 0.0947823,-0.105 0.58786942,0.017 c 0.3233281,0.01 0.5878694,0.01 0.5878694,0 0,-0.012 -0.099207,-0.2065 -0.2204604,-0.4334 l -0.2204605,-0.4126 -0.2616582,0 -0.2616582,0 -0.20114812,-0.3768 -0.20114814,-0.3769 0.25254846,0 c 0.1389015,0 0.2525485,-0.01 0.2525485,-0.016 0,-0.01 -0.142339,-0.2813 -0.31630885,-0.6057 l -0.31630877,-0.5897 -0.26201536,0 -0.26201562,0 -0.06970319,-0.1376 -0.06970286,-0.1375 2.35744075,0.02 c 2.324618,0.019 2.3574405,0.019 2.3574405,-0.032 0,-0.029 0.022986,-0.077 0.051078,-0.1072 0.028093,-0.03 0.055454,-0.078 0.060802,-0.1061 0.014019,-0.074 0.2304658,-0.09 0.2563667,-0.019 0.00979,0.027 0.039962,0.078 0.067054,0.1129 0.02709,0.035 0.049257,0.093 0.049257,0.1274 0,0.078 -0.07916,0.062 1.0408438,0.2143 0.9046209,0.123 0.9208071,0.1242 0.9869695,0.075 0.036996,-0.027 0.074071,-0.083 0.082389,-0.1242 0.0093,-0.045 0.032611,-0.074 0.06051,-0.074 0.024963,0 0.3939771,0.061 0.8200314,0.1345 0.4260546,0.074 0.7875227,0.1347 0.803263,0.1347 0.015739,0 0.029111,0.033 0.029713,0.074 5.901e-4,0.041 0.034291,0.1128 0.074865,0.1601 l 0.073771,0.086 0.9900408,0.1682 c 0.985216,0.1675 0.989965,0.1686 0.974498,0.2302 l -0.01554,0.062 0.390851,0 0.390851,0 2.96e-4,0.1951 2.95e-4,0.1952 0.20833,0.084 0.20833,0.084 0.0075,0.3231 0.0075,0.323 -0.212607,0.086 -0.212606,0.086 -0.01839,0.1795 c -0.02065,0.2015 0.0078,0.2481 0.151751,0.2481 0.04678,0 0.109935,0.031 0.163104,0.079 0.04772,0.043 0.132809,0.1179 0.189087,0.1655 0.05628,0.048 0.120188,0.121 0.142021,0.1633 0.02183,0.042 0.05633,0.077 0.07665,0.077 0.026,0 0.04256,0.056 0.05588,0.1885 l 0.01892,0.1884 0.96924,0 0.96924,0 0.05294,-0.067 c 0.03372,-0.043 0.08003,-0.067 0.127571,-0.067 0.04105,0 0.09708,-0.025 0.124512,-0.055 0.07615,-0.084 0.181037,-0.06 0.213043,0.048 0.02474,0.084 0.03125,0.088 0.164077,0.088 0.104132,0 0.150363,0.013 0.187044,0.054 0.06978,0.077 0.08486,0.067 0.07252,-0.047 -0.0073,-0.068 -0.04027,-0.1318 -0.100685,-0.1952 l -0.0898,-0.094 -0.01913,-0.6002 -0.01913,-0.6002 -0.0724,0.016 c -0.04462,0.01 -0.08232,0 -0.09828,-0.019 -0.03854,-0.052 -0.04439,-0.1987 -0.01044,-0.2621 0.02512,-0.047 0.04634,-0.053 0.135128,-0.039 0.12471,0.02 0.130772,0.01 0.141542,-0.3127 0.0062,-0.1839 0.01198,-0.2026 0.06507,-0.2102 0.06208,-0.01 0.06569,-0.027 0.10613,-0.5301 0.0092,-0.1146 0.0317,-0.2068 0.05742,-0.2355 0.03854,-0.043 0.03797,-0.052 -0.0064,-0.101 -0.0268,-0.03 -0.07013,-0.054 -0.09629,-0.054 -0.02616,0 -0.08905,-0.049 -0.13974,-0.1077 -0.106734,-0.1247 -0.181224,-0.1413 -0.181224,-0.04 0,0.037 0.01211,0.067 0.02692,0.067 0.01481,0 0.02692,0.018 0.02692,0.04 0,0.096 -0.09106,0.027 -0.132706,-0.1007 -0.02931,-0.09 -0.02676,-0.1092 0.02372,-0.1801 0.0311,-0.044 0.07982,-0.087 0.108265,-0.096 0.04865,-0.015 0.0522,-0.052 0.05987,-0.619 l 0.0082,-0.6026 0.07907,-0.082 c 0.04349,-0.045 0.101109,-0.082 0.128048,-0.082 0.02694,0 0.07531,-0.03 0.107498,-0.067 0.03218,-0.037 0.07975,-0.067 0.105713,-0.067 0.03148,0 0.05003,-0.024 0.05572,-0.074 0.0067,-0.058 0.0244,-0.076 0.08255,-0.082 0.04902,-0.01 0.07403,-0.024 0.07403,-0.055 0,-0.1044 0.04345,-0.1113 0.702205,-0.1113 l 0.637598,0 0.04813,0.073 c 0.03361,0.051 0.04686,0.1192 0.04395,0.225 -0.0033,0.1205 0.0068,0.1616 0.04919,0.1999 0.05134,0.046 0.05542,0.046 0.107209,0 0.0606,-0.055 0.07406,-0.2148 0.02019,-0.24 -0.02692,-0.013 -0.02692,-0.019 0,-0.031 0.01851,-0.01 0.03365,-0.043 0.03365,-0.077 0,-0.033 0.0224,-0.081 0.04978,-0.1059 0.04412,-0.04 0.122959,-0.044 0.693187,-0.038 l 0.643409,0.01 0.0085,0.074 c 0.0065,0.056 0.02306,0.074 0.06865,0.074 0.06985,0 0.124645,0.047 0.124945,0.1063 1.08e-4,0.023 0.0304,0.056 0.0673,0.073 l 0.06709,0.031 0,-0.3475 0,-0.3474 -0.159895,0 -0.159894,0 -0.0084,0.1009 c -0.0081,0.099 -0.01104,0.101 -0.116035,0.101 -0.105188,0 -0.107874,0 -0.116093,-0.102 -0.0081,-0.098 -0.01206,-0.1019 -0.10768,-0.1011 -0.0546,0 -0.218906,-0.01 -0.365134,-0.016 -0.229359,-0.014 -0.26768,-0.024 -0.279068,-0.067 -0.0073,-0.028 -0.03414,-0.051 -0.05973,-0.051 -0.02559,0 -0.06845,-0.024 -0.09525,-0.054 -0.0268,-0.03 -0.06967,-0.054 -0.09526,-0.054 -0.02559,0 -0.09034,-0.048 -0.143888,-0.1078 l -0.09735,-0.1077 0,-0.6998 0,-0.6998 0.09735,-0.1077 c 0.05354,-0.059 0.118059,-0.1077 0.143367,-0.1077 0.02531,0 0.07447,-0.03 0.10924,-0.067 0.03477,-0.037 0.07928,-0.067 0.09891,-0.067 0.01963,0 0.03569,-0.022 0.03569,-0.048 0,-0.066 0.05228,-0.1131 0.126523,-0.1131 0.04706,0 0.06192,-0.015 0.06192,-0.063 0,-0.06 0.01177,-0.064 0.222089,-0.081 0.122149,-0.01 0.346257,-0.017 0.498018,-0.017 0.256005,-2e-4 0.275929,0 0.275929,-0.053 0,-0.052 -0.03071,-0.053 -1.752536,-0.054 -1.131955,0 -1.770629,-0.011 -1.803633,-0.029 -0.07439,-0.04 -0.06252,-0.1027 0.02293,-0.1214 0.125233,-0.027 0.158854,-0.043 0.121139,-0.058 -0.01851,-0.01 -0.03365,-0.024 -0.03365,-0.037 0,-0.015 1.61397,-0.024 4.051444,-0.024 2.683017,0 4.051445,0.01 4.051445,0.027 0,0.015 -0.01454,0.027 -0.0323,0.027 -0.07285,0 0.02455,0.051 0.113063,0.059 0.07211,0.01 0.09613,0.022 0.102371,0.066 0.0047,0.033 -0.0098,0.064 -0.03452,0.073 -0.02348,0.01 -0.840695,0.017 -1.816053,0.018 -1.834287,0 -1.805226,10e-5 -1.805226,0.096 0,0.01 0.136282,0.013 0.302849,0.014 0.166566,0 0.381589,0.011 0.477828,0.02 0.151732,0.015 0.176069,0.024 0.183179,0.075 0.0056,0.039 0.03345,0.062 0.08749,0.073 0.06265,0.012 0.07929,0.03 0.07929,0.084 0,0.038 0.01547,0.068 0.03569,0.068 0.01963,0 0.06414,0.03 0.09891,0.067 0.03477,0.037 0.08393,0.067 0.10924,0.067 0.02531,0 0.08982,0.049 0.143367,0.1078 l 0.09735,0.1077 0,0.6959 c 0,0.6801 -0.0014,0.6979 -0.0615,0.7873 -0.03383,0.05 -0.09953,0.1039 -0.146001,0.1191 -0.04647,0.015 -0.107578,0.049 -0.135787,0.074 -0.02821,0.025 -0.07012,0.046 -0.09314,0.046 -0.02302,0 -0.04779,0.022 -0.05505,0.051 -0.01139,0.044 -0.04975,0.053 -0.279068,0.067 -0.146228,0.01 -0.304488,0.017 -0.351689,0.016 -0.07999,0 -0.08639,0.01 -0.09422,0.101 -0.0084,0.1013 -0.0088,0.1017 -0.129538,0.1017 -0.120551,0 -0.12118,0 -0.129495,-0.101 l -0.0084,-0.1009 -0.159894,0 -0.159895,0 0,0.3474 0,0.3475 0.06709,-0.031 c 0.0369,-0.017 0.06719,-0.05 0.0673,-0.073 2.95e-4,-0.06 0.0551,-0.1063 0.124945,-0.1063 0.04558,0 0.06219,-0.018 0.06865,-0.074 l 0.0085,-0.074 0.650412,-0.01 c 0.706143,-0.01 0.735963,0 0.735963,0.1415 0,0.035 0.01514,0.07 0.03365,0.079 0.02692,0.013 0.02692,0.019 0,0.031 -0.05009,0.023 -0.0396,0.15 0.01873,0.2259 0.05018,0.065 0.05226,0.066 0.10661,0.017 0.04468,-0.041 0.05462,-0.08 0.05125,-0.2018 -0.0029,-0.1059 0.01034,-0.1738 0.04395,-0.2251 l 0.04812,-0.073 0.657114,0 0.657115,0 0.01585,0.079 c 0.01211,0.061 0.0326,0.081 0.08682,0.088 0.05488,0.01 0.07289,0.025 0.07948,0.082 0.0057,0.049 0.02423,0.074 0.05588,0.074 0.02605,0 0.07581,0.03 0.110584,0.067 0.03477,0.037 0.08297,0.067 0.107093,0.067 0.02413,0 0.08258,0.04 0.129905,0.089 l 0.08604,0.089 0,0.5959 c 0,0.5696 0.0022,0.5966 0.05314,0.6127 0.09441,0.03 0.162091,0.1551 0.144033,0.2664 -0.01706,0.1052 -0.09725,0.177 -0.133004,0.1191 -0.01092,-0.018 -0.0056,-0.037 0.01181,-0.043 0.04738,-0.016 0.0396,-0.1407 -0.0088,-0.1407 -0.02224,0 -0.08423,0.049 -0.137732,0.1077 -0.0535,0.059 -0.118223,0.1077 -0.143817,0.1077 -0.02559,0 -0.06689,0.022 -0.09177,0.05 -0.04038,0.045 -0.04083,0.054 -0.0042,0.084 0.02258,0.019 0.04106,0.057 0.04106,0.084 0,0.027 0.02418,0.09 0.05374,0.138 0.04273,0.07 0.05376,0.1359 0.05384,0.3208 8.2e-5,0.182 0.0089,0.2361 0.04048,0.2482 0.03147,0.012 0.04038,0.066 0.04038,0.2419 0,0.2529 0.02884,0.3056 0.150286,0.2752 0.09976,-0.025 0.145834,0.025 0.145834,0.1596 0,0.1341 -0.0461,0.1848 -0.145486,0.1598 l -0.06987,-0.018 -0.0058,0.3596 c -0.0032,0.1978 -0.0062,0.463 -0.0067,0.5894 -0.001,0.2261 -0.0026,0.2318 -0.101873,0.3481 -0.05552,0.065 -0.100951,0.1464 -0.100951,0.1807 l 0,0.062 1.024806,0 1.024803,0 -0.136444,-0.1569 -0.13645,-0.1569 0,-0.231 0,-0.231 -0.203813,-0.2443 -0.203814,-0.2443 0.0894,-0.1076 c 0.07843,-0.094 0.103455,-0.1077 0.203813,-0.1081 l 0.114412,0 0,-0.2949 0,-0.2949 -0.124562,-0.055 c -0.06851,-0.03 -0.177535,-0.055 -0.24228,-0.055 -0.06474,0 -0.117717,-0.012 -0.117717,-0.027 0,-0.016 -0.09871,-0.027 -0.24228,-0.027 l -0.242278,0 0,0.078 c 0,0.056 0.01562,0.082 0.05597,0.092 0.04023,0.011 0.05348,0.032 0.04711,0.077 -0.0083,0.059 -0.02238,0.063 -0.217489,0.07 l -0.208631,0.01 5.01e-4,-0.1694 5.02e-4,-0.1694 0.158793,-0.1413 c 0.136432,-0.1214 0.174247,-0.1413 0.268571,-0.1413 0.09184,0 0.109783,-0.01 0.109783,-0.054 0,-0.05 0.01796,-0.054 0.242279,-0.054 0.143571,0 0.24228,-0.011 0.24228,-0.027 0,-0.035 0.42226,-0.035 0.444178,0 0.0092,0.015 0.0508,0.027 0.09254,0.027 0.05857,0 0.08337,0.018 0.108606,0.079 0.02035,0.049 0.04672,0.074 0.06978,0.065 0.02069,-0.01 0.09397,0.039 0.165733,0.106 0.325736,0.3042 0.383656,0.335 0.289976,0.1538 -0.03431,-0.066 -0.0363,-0.1272 -0.01291,-0.3941 0.01522,-0.1735 0.03282,-0.3207 0.03913,-0.327 0.0063,-0.01 0.285455,-0.034 0.620333,-0.062 l 0.608868,-0.051 0.863156,0.4179 c 0.474735,0.2298 0.923442,0.4438 0.997123,0.4755 l 0.133969,0.058 0.878811,-0.045 c 0.483345,-0.025 0.942406,-0.045 1.020138,-0.045 0.111706,0 0.141331,-0.01 0.141331,-0.043 0,-0.037 0.03597,-0.042 0.260242,-0.034 0.177276,0.01 0.263816,0.02 0.27144,0.043 0.0086,0.026 0.190229,0.034 0.786756,0.034 0.685347,0 0.777473,0 0.792046,-0.043 0.01387,-0.036 0.05729,-0.042 0.273084,-0.034 0.191545,0.01 0.262915,0.019 0.281519,0.05 0.0211,0.034 0.14327,0.041 0.792471,0.046 0.476506,0 0.787685,0.016 0.820647,0.034 0.04052,0.021 0.05502,0.062 0.06123,0.1695 l 0.0081,0.1411 0.417259,0.045 c 0.22949,0.025 0.420286,0.046 0.423989,0.047 0.0037,0 0.0068,0.018 0.0068,0.038 0,0.026 0.06825,0.046 0.231338,0.067 0.218962,0.028 0.236953,0.026 0.336293,-0.03 0.09211,-0.053 0.104975,-0.072 0.105158,-0.1593 0,-0.055 0.0098,-0.1053 0.02157,-0.1125 0.01174,-0.01 0.138961,-0.01 0.282658,0 0.18778,0.011 0.261267,0.025 0.261267,0.05 0,0.019 0.01092,0.042 0.02428,0.05 0.01337,0.01 0.240482,0.033 0.504749,0.055 0.471726,0.039 0.874644,0.1 1.705338,0.2547 0.229494,0.043 0.435432,0.077 0.457642,0.076 0.06425,0 0.411892,0.062 0.471097,0.089 0.07169,0.033 0.616871,0.1233 1.197936,0.1995 0.396501,0.052 0.474511,0.056 0.492681,0.024 0.02871,-0.05 0.234492,-0.02 0.282475,0.04 0.02777,0.035 0.08258,0.043 0.269198,0.041 0.128888,0 0.241943,0.01 0.251237,0.023 0.02688,0.041 0.563261,0.093 0.648556,0.063 0.05693,-0.02 0.08434,-0.016 0.123261,0.019 0.02753,0.025 0.07369,0.045 0.102594,0.045 0.02889,0 0.215717,0.031 0.415135,0.069 0.261021,0.05 0.407536,0.093 0.523037,0.1548 0.203433,0.1083 0.575597,0.4613 0.783108,0.7427 0.08809,0.1195 0.17506,0.2174 0.193263,0.2174 0.04154,3e-4 0.150183,0.2082 0.115008,0.2202 -0.0285,0.01 0.07624,0.3184 0.108041,0.3184 0.01086,0 0.0208,0.091 0.0221,0.2028 0.0012,0.1115 0.01163,0.2175 0.02293,0.2355 0.01133,0.018 0.01673,0.2357 0.01201,0.4837 -0.0059,0.3132 5.91e-4,0.4509 0.02083,0.4509 0.04088,0 0.03705,0.1538 -0.0042,0.1712 -0.02428,0.01 -0.02083,0.022 0.01236,0.043 0.05047,0.032 0.03651,0.1086 -0.0198,0.1086 -0.01944,0 -0.04367,0.038 -0.05382,0.084 -0.01098,0.05 -0.03924,0.089 -0.06974,0.097 -0.04974,0.013 -0.06785,0.055 -0.08353,0.1955 -0.007,0.062 -0.02186,0.069 -0.195974,0.089 -0.302629,0.036 -0.314122,0.04 -0.3046,0.1067 l 0.0085,0.06 0.669263,0 0.669264,0 -0.01614,0.098 c -0.0089,0.054 -0.01632,0.132 -0.01646,0.1739 l -2.48e-4,0.076 -0.20863,-0.017 c -0.257144,-0.021 -0.631477,-0.024 -0.769376,-0.01 -0.05671,0.01 -0.129395,0.036 -0.161519,0.065 -0.136672,0.1206 -0.287229,0.1811 -0.287229,0.1153 0,-0.015 -0.02552,-0.027 -0.05672,-0.027 -0.03887,0 -0.05194,0.013 -0.04152,0.04 0.01059,0.027 -0.02316,0.057 -0.111529,0.098 -0.106539,0.049 -0.190521,0.06 -0.527,0.07 -0.63631,0.019 -0.887452,-0.043 -1.078219,-0.266 -0.09016,-0.1053 -0.09649,-0.1237 -0.08016,-0.2327 l 0.01773,-0.1183 -0.10445,0.016 c -0.335741,0.053 -1.297566,0.1608 -2.056139,0.2316 -0.726418,0.068 -0.990201,0.1048 -1.554282,0.2174 -0.616178,0.1231 -0.700357,0.134 -0.904906,0.1174 -0.188515,-0.015 -0.253724,-0.01 -0.39741,0.037 -0.244931,0.079 -0.862995,0.2355 -1.100629,0.2783 -0.149758,0.027 -0.469557,0.035 -1.238313,0.032 -1.145934,0 -1.438079,-0.032 -1.749796,-0.1605 -0.152522,-0.063 -0.340317,-0.092 -1.463292,-0.2294 l -1.288315,-0.1572 -0.407079,-0.2896 c -0.347599,-0.2473 -1.040672,-0.7003 -1.215315,-0.7944 -0.02936,-0.016 -0.132317,-0.049 -0.228821,-0.073 l -0.175458,-0.045 -1.244961,0.2173 c -0.78544,0.1371 -1.244987,0.2286 -1.245044,0.2479 -2.49e-4,0.064 -0.19225,0.067 -0.473782,0.01 -0.154033,-0.033 -0.280062,-0.07 -0.280062,-0.084 0,-0.014 -0.475471,-0.3391 -1.056606,-0.7232 l -1.056606,-0.6985 -0.491288,-10e-5 -0.491275,-10e-5 0,0.1444 0,0.1444 0.09975,0 c 0.09509,0 0.100149,0 0.108389,0.091 0.0048,0.052 0.0017,0.123 -0.0068,0.158 -0.01398,0.058 -0.02582,0.062 -0.120822,0.047 -0.13825,-0.022 -0.161225,0.021 -0.161225,0.3056 0,0.1689 -0.0091,0.2214 -0.04038,0.2334 -0.02984,0.012 -0.04038,0.059 -0.04038,0.1813 0,0.1143 -0.01671,0.1969 -0.05384,0.2662 -0.02961,0.055 -0.05384,0.1406 -0.05384,0.1898 0,0.096 -0.114026,0.2339 -0.194122,0.2339 -0.02986,0 -0.03879,0.017 -0.02904,0.054 0.0077,0.03 0.03478,0.054 0.06009,0.054 0.0253,0 0.07446,0.03 0.109233,0.067 0.03477,0.037 0.08297,0.067 0.107092,0.067 0.05123,0 0.215946,0.1616 0.215946,0.2119 0,0.019 0.02119,0.03 0.04711,0.025 0.05738,-0.011 0.07915,-0.1283 0.0295,-0.159 -0.02531,-0.016 -0.02739,-0.031 -0.0071,-0.051 0.03997,-0.04 0.106913,0.042 0.128836,0.1583 0.01547,0.082 0.0059,0.1024 -0.09053,0.1941 l -0.107815,0.1026 0,0.5746 0,0.5745 -0.08877,0.086 c -0.04882,0.047 -0.10728,0.086 -0.129905,0.086 -0.02264,0 -0.06959,0.03 -0.104362,0.067 -0.03477,0.037 -0.08454,0.067 -0.110583,0.067 -0.03165,0 -0.05018,0.024 -0.05588,0.074 -0.0066,0.058 -0.02451,0.076 -0.08092,0.082 -0.05595,0.01 -0.0743,0.025 -0.08076,0.081 -0.0083,0.072 -0.0091,0.072 -0.29102,0.089 -0.155462,0.01 -0.448401,0.018 -0.650974,0.02 l -0.368316,0 -0.06235,-0.087 c -0.04969,-0.07 -0.06102,-0.1171 -0.05579,-0.2335 0.0047,-0.1056 -0.0059,-0.1598 -0.03825,-0.1956 -0.04339,-0.048 -0.04681,-0.048 -0.107565,0.01 -0.06289,0.059 -0.08869,0.2111 -0.03583,0.2111 0.01481,0 0.02692,0.018 0.02692,0.04 0,0.022 -0.01211,0.04 -0.02692,0.04 -0.01481,0 -0.02692,0.024 -0.02692,0.054 0,0.03 -0.02423,0.078 -0.05384,0.1077 -0.0488,0.049 -0.08723,0.053 -0.410529,0.051 -0.196178,0 -0.483885,-0.011 -0.639347,-0.02 l -0.282659,-0.017 -0.0085,-0.074 c -0.0065,-0.056 -0.02306,-0.074 -0.06865,-0.074 -0.07261,0 -0.124736,-0.047 -0.124736,-0.1131 0,-0.026 -0.01112,-0.048 -0.02472,-0.048 -0.0136,0 -0.04388,-0.01 -0.0673,-0.017 -0.03744,-0.014 -0.04258,0.024 -0.04258,0.323 l 0,0.3394 0.159813,0 0.159814,0 0.0084,-0.088 c 0.0081,-0.084 0.0137,-0.088 0.136305,-0.096 l 0.127869,-0.01 0,0.097 c 0,0.091 0.0049,0.096 0.08749,0.096 0.04812,0 0.20713,0.01 0.353358,0.016 0.229316,0.014 0.267682,0.024 0.279068,0.067 0.0073,0.028 0.03414,0.05 0.05973,0.05 0.02559,0 0.06845,0.024 0.09525,0.054 0.0268,0.03 0.06967,0.054 0.09526,0.054 0.02559,0 0.0909,0.049 0.145116,0.1091 l 0.09858,0.1091 -0.008,0.7237 -0.008,0.7237 -0.07907,0.082 c -0.04349,0.045 -0.104973,0.082 -0.136637,0.082 -0.03166,0 -0.08602,0.03 -0.120795,0.067 -0.03477,0.037 -0.07848,0.067 -0.09712,0.067 -0.01864,0 -0.03773,0.033 -0.04242,0.074 -0.0067,0.058 -0.0244,0.076 -0.08255,0.083 -0.04902,0.01 -0.07403,0.024 -0.07403,0.055 0,0.1002 -0.05103,0.1112 -0.516862,0.1112 l -0.452254,0 0,0.092 c 0,0.1901 -0.156607,0.1749 1.812382,0.1766 1.490686,0 1.786685,0.01 1.818312,0.039 0.05698,0.057 0.01753,0.118 -0.08245,0.1276 -0.06743,0.01 -0.08711,0.02 -0.08112,0.056 0.0075,0.045 -0.200005,0.047 -4.044714,0.047 -2.228943,0 -4.052624,-0.01 -4.052624,-0.022 z m 11.791917,-7.0859 c -0.0069,-0.022 -0.0094,-0.1093 -0.0057,-0.1944 0.0042,-0.095 -0.01587,-0.2371 -0.05233,-0.3701 l -0.05908,-0.2156 -0.67467,0 -0.674671,0 0.335666,0.2064 c 0.884675,0.5438 1.035568,0.63 1.087989,0.6219 0.03446,-0.01 0.05058,-0.023 0.04281,-0.048 z m -7.620427,-10.3562 c 0.02843,-0.1172 0.09964,-0.1689 0.23253,-0.1689 0.10227,0 0.121389,-0.01 0.107943,-0.043 -0.009,-0.023 -0.01634,-0.048 -0.01634,-0.054 0,-0.01 -0.198584,-0.011 -0.441298,-0.011 -0.377573,0 -0.443658,0.01 -0.457638,0.043 -0.02437,0.063 -0.02283,0.065 0.06337,0.065 0.08638,0 0.189488,0.088 0.189488,0.162 0,0.07 0.02948,0.083 0.172852,0.075 0.113502,-0.01 0.136815,-0.017 0.149093,-0.068 z m -4.503392,16.8765 c -0.02474,-0.027 -0.04498,-0.075 -0.04498,-0.1059 0,-0.031 -0.01514,-0.063 -0.03365,-0.072 -0.02692,-0.013 -0.02692,-0.019 0,-0.031 0.02476,-0.012 0.03365,-0.1239 0.03365,-0.4253 0,-0.2907 -0.0098,-0.42 -0.03365,-0.4453 -0.02692,-0.029 -0.02692,-0.038 0,-0.048 0.02478,-0.01 0.03365,-0.114 0.03365,-0.3982 0,-0.2823 -0.009,-0.3901 -0.03365,-0.4015 -0.02692,-0.013 -0.02692,-0.019 0,-0.031 0.01851,-0.01 0.03365,-0.037 0.03365,-0.063 0,-0.052 0.0803,-0.1365 0.129989,-0.1365 0.01935,0 0.03153,-0.046 0.03153,-0.1192 0,-0.1678 0.04558,-0.2038 0.257662,-0.2038 l 0.173057,0 0,-0.094 c 0,-0.094 6.49e-4,-0.094 0.121139,-0.094 0.120763,0 0.12114,0 0.12114,0.095 0,0.092 0.0031,0.095 0.100949,0.094 0.05552,0 0.213852,0.01 0.351843,0.016 0.204695,0.014 0.256696,0.026 0.282405,0.067 0.01733,0.028 0.04489,0.05 0.06124,0.05 0.01635,0 0.05166,0.024 0.07846,0.054 0.0268,0.03 0.07572,0.054 0.10872,0.054 0.03597,0 0.09948,0.044 0.158575,0.1091 l 0.09858,0.1091 -0.008,0.7198 -0.008,0.7198 -0.09422,0.086 c -0.05182,0.047 -0.113307,0.086 -0.136637,0.086 -0.02333,0 -0.07087,0.031 -0.105642,0.068 -0.03477,0.037 -0.07928,0.067 -0.09891,0.067 -0.01963,0 -0.03569,0.022 -0.03569,0.048 0,0.066 -0.05212,0.113 -0.124735,0.113 -0.04558,0 -0.06219,0.018 -0.06865,0.074 l -0.0085,0.074 -0.648211,0.01 c -0.601258,0.01 -0.65147,0 -0.693188,-0.043 z m 7.349022,0.031 c -0.0099,-0.01 -0.01795,-0.045 -0.01795,-0.079 0,-0.046 -0.01755,-0.063 -0.07403,-0.069 -0.05815,-0.01 -0.07586,-0.024 -0.08255,-0.083 -0.0057,-0.049 -0.02422,-0.074 -0.05588,-0.074 -0.02605,0 -0.07581,-0.03 -0.110584,-0.067 -0.03477,-0.037 -0.08393,-0.067 -0.109239,-0.067 -0.02531,0 -0.08982,-0.048 -0.143368,-0.1078 l -0.09735,-0.1077 0,-0.6963 0,-0.6964 0.09746,-0.1112 c 0.05941,-0.068 0.120843,-0.1112 0.157348,-0.1112 0.03294,0 0.08181,-0.024 0.10861,-0.054 0.0268,-0.03 0.06966,-0.054 0.09525,-0.054 0.02559,0 0.05286,-0.024 0.06061,-0.054 0.01191,-0.045 0.03672,-0.054 0.160598,-0.054 0.08059,0 0.2392,-0.01 0.352479,-0.017 l 0.20596,-0.017 0,-0.09 c 0,-0.089 0.0017,-0.09 0.12114,-0.09 0.120499,0 0.12114,0 0.12114,0.094 l 0,0.094 0.173056,0 c 0.212081,0 0.257661,0.036 0.257661,0.2039 0,0.092 0.0099,0.1192 0.04414,0.1192 0.05208,0 0.115307,0.076 0.116521,0.1391 5.01e-4,0.024 0.016,0.052 0.03451,0.061 0.02692,0.013 0.02692,0.019 0,0.031 -0.04239,0.02 -0.04896,0.7919 -0.0067,0.7919 0.0148,0 0.02692,0.018 0.02692,0.04 0,0.022 -0.01211,0.04 -0.02692,0.04 -0.04231,0 -0.03574,0.8259 0.0067,0.8457 0.02692,0.013 0.02692,0.019 0,0.031 -0.01851,0.01 -0.03365,0.044 -0.03365,0.079 0,0.1412 -0.03176,0.1477 -0.724272,0.1477 -0.351817,0 -0.647744,-0.01 -0.657614,-0.018 z m -6.782533,-14.347 c -0.01058,-0.011 -0.01923,-0.06 -0.01923,-0.109 l 0,-0.09 -0.173057,0 c -0.212082,0 -0.257661,-0.036 -0.257661,-0.2038 0,-0.1008 -0.0082,-0.1193 -0.05321,-0.1193 -0.05852,0 -0.175908,-0.2036 -0.132755,-0.2303 0.03971,-0.024 0.03101,-0.7851 -0.0092,-0.8038 -0.02692,-0.013 -0.02692,-0.019 0,-0.031 0.04177,-0.019 0.04867,-0.8333 0.0073,-0.8589 -0.01508,-0.01 -0.01695,-0.036 -0.0044,-0.062 0.0121,-0.025 0.03955,-0.082 0.061,-0.1267 l 0.039,-0.081 0.362432,-0.01 c 0.199338,0 0.498715,0 0.665281,0.01 0.296797,0.018 0.302849,0.019 0.302849,0.083 0,0.049 0.0145,0.065 0.06192,0.065 0.07424,0 0.126524,0.047 0.126524,0.113 0,0.027 0.01606,0.049 0.03569,0.049 0.01963,0 0.06414,0.03 0.09891,0.067 0.03477,0.037 0.08296,0.067 0.107092,0.067 0.02412,0 0.08561,0.043 0.136636,0.096 l 0.09277,0.096 0.008,0.7105 0.008,0.7105 -0.0986,0.1091 c -0.05423,0.06 -0.11954,0.1091 -0.145134,0.1091 -0.02559,0 -0.06846,0.024 -0.09526,0.054 -0.0268,0.03 -0.07026,0.054 -0.09658,0.054 -0.02632,0 -0.05509,0.023 -0.06393,0.051 -0.01375,0.043 -0.054,0.053 -0.277743,0.068 -0.143915,0.01 -0.306345,0.017 -0.360956,0.016 -0.09567,0 -0.0996,0 -0.10768,0.1001 -0.0078,0.095 -0.0146,0.102 -0.103568,0.1095 -0.05235,0 -0.103834,0 -0.114409,-0.011 z m 7.349132,0 c -0.01058,-0.011 -0.01923,-0.06 -0.01923,-0.1097 0,-0.087 -0.004,-0.09 -0.100949,-0.089 -0.05552,0 -0.214545,-0.01 -0.353383,-0.016 -0.215411,-0.015 -0.254366,-0.025 -0.265609,-0.068 -0.0072,-0.028 -0.03411,-0.05 -0.0597,-0.05 -0.02559,0 -0.06845,-0.024 -0.09525,-0.054 -0.0268,-0.03 -0.07572,-0.054 -0.10872,-0.054 -0.03584,0 -0.09919,-0.043 -0.157347,-0.1077 l -0.09735,-0.1078 0,-0.6997 0,-0.6998 0.09735,-0.1078 c 0.05354,-0.059 0.118059,-0.1077 0.143367,-0.1077 0.02531,0 0.07447,-0.03 0.10924,-0.067 0.03477,-0.037 0.08454,-0.067 0.110584,-0.067 0.03165,0 0.05018,-0.024 0.05588,-0.074 0.0066,-0.058 0.02451,-0.076 0.08089,-0.082 0.05066,-0.01 0.07489,-0.026 0.08076,-0.067 0.0072,-0.051 0.03065,-0.061 0.169909,-0.076 0.08883,-0.01 0.381912,-0.019 0.651281,-0.02 0.477199,0 0.490834,0 0.531666,0.057 0.02306,0.033 0.04191,0.081 0.04191,0.1077 0,0.026 0.01211,0.048 0.02692,0.048 0.0148,0 0.02692,0.018 0.02692,0.04 0,0.022 -0.01211,0.04 -0.02692,0.04 -0.04231,0 -0.03574,0.8259 0.0067,0.8457 0.02692,0.013 0.02692,0.019 0,0.031 -0.04239,0.02 -0.04896,0.7919 -0.0067,0.7919 0.0148,0 0.02692,0.018 0.02692,0.04 0,0.022 -0.0095,0.04 -0.02102,0.04 -0.01157,0 -0.03474,0.036 -0.0515,0.081 -0.02045,0.054 -0.04896,0.081 -0.08666,0.081 -0.04775,0 -0.05618,0.016 -0.05618,0.1095 0,0.188 -0.0289,0.2136 -0.2416,0.2136 l -0.185867,0 -0.0084,0.1009 c -0.0078,0.094 -0.01467,0.1015 -0.103537,0.109 -0.05235,0 -0.103834,0 -0.114409,-0.011 z"
         style="fill:#000000" />
    </g>
  </g>
</svg>
