<?xml version="1.0" encoding="UTF-8" standalone="no"?>
<svg
   xmlns:dc="http://purl.org/dc/elements/1.1/"
   xmlns:cc="http://creativecommons.org/ns#"
   xmlns:rdf="http://www.w3.org/1999/02/22-rdf-syntax-ns#"
   xmlns:svg="http://www.w3.org/2000/svg"
   xmlns="http://www.w3.org/2000/svg"
   version="1.1"
   id="svg4526"
   viewBox="0 0 125.00001 52.088165"
   width="375.00003">
  <defs
     id="defs4528" />
  <metadata
     id="metadata4531">
    <rdf:RDF>
      <cc:Work
         rdf:about="">
        <dc:format>image/svg+xml</dc:format>
        <dc:type
           rdf:resource="http://purl.org/dc/dcmitype/StillImage" />
        <dc:title></dc:title>
      </cc:Work>
    </rdf:RDF>
  </metadata>
  <g
     transform="translate(620.38603,-798.31716)"
     id="layer1">
    <g
       id="g4545">
      <g
         transform="matrix(0.06861162,0,0,0.06861162,-461.96472,758.53596)"
         id="g2995">
        <g
           id="g3018">
          <path
             id="path3024"
             d="m -1563.9068,1337.4764 c 0,-0.8501 -0.8966,-1.5 -2.0695,-1.5 -1.5742,0 -1.9931,-0.5385 -1.75,-2.25 l 0.3195,-2.25 45.127,-0.2601 45.1271,-0.2601 0.6229,-3.1149 c 0.3427,-1.7132 0.623,-5.3086 0.623,-7.9899 l 0,-4.875 -10.9915,0 c -9.9085,0 -11.1146,-0.197 -12.2405,-2 -0.687,-1.1 -1.8299,-2 -2.5399,-2 -0.71,0 -1.5923,-0.7875 -1.9608,-1.75 -0.7781,-2.0322 -4.2829,-5.1683 -5.8302,-5.2167 -0.5846,-0.018 -2.2721,-1.2954 -3.75,-2.838 l -2.6871,-2.8047 0,-19.021 c 0,-18.5894 0.053,-19.0703 2.3145,-21.1953 1.2729,-1.1958 2.9979,-2.1743 3.8333,-2.1743 0.8354,0 2.8314,-1.3375 4.4356,-2.9722 2.54,-2.5884 3.643,-2.9758 8.5416,-3 8.46,-0.042 11.875,-0.9485 11.875,-3.1528 0,-1.3333 0.7222,-1.875 2.5,-1.875 1.375,0 2.8375,-0.1125 3.25,-0.25 0.4125,-0.1375 0.8938,0.7625 1.0696,2 0.2764,1.9467 0.9168,2.25 4.75,2.25 l 4.4304,0 0,-7 c 0,-3.85 -0.3375,-6.9981 -0.75,-6.9957 -0.4125,0 -2.775,1.3504 -5.25,2.9957 -3.9484,2.6248 -5.3801,2.992 -11.6804,2.9957 -6.6836,0 -7.2026,0.16 -7.5,2.2543 -0.2567,1.8073 -1.0574,2.3111 -4.0696,2.5604 -3.4377,0.2845 -3.75,0.097 -3.75,-2.25 0,-2.3115 -0.3808,-2.5604 -3.9182,-2.5604 -5.1417,0 -7.0818,-0.8192 -7.0818,-2.9903 0,-0.9771 -0.7875,-2.0408 -1.75,-2.364 -0.9625,-0.3232 -2.5638,-1.1632 -3.5585,-1.8667 -1.5175,-1.0731 -2.0182,-0.9973 -3.1103,0.471 -0.7159,0.9625 -1.9908,1.75 -2.833,1.75 -0.8423,0 -1.8137,1.125 -2.1588,2.5 -0.6037,2.4054 -0.9294,2.5 -8.6084,2.5 -7.8464,0 -7.981,0.042 -7.981,2.5 0,2.1111 -0.4666,2.5 -3,2.5 -2.2317,0 -3,0.465 -3,1.8155 0,1.596 1.0485,1.8443 8.6772,2.0546 8.1053,0.2233 8.8758,0.4333 11.6899,3.1845 1.6569,1.62 3.7945,2.9454 4.7502,2.9454 0.9557,0 2.6702,1.1857 3.8101,2.6349 1.9288,2.452 2.0726,3.931 2.0726,21.3129 l 0,18.678 -2.8047,2.6871 c -1.5426,1.4779 -3.2347,2.6871 -3.7602,2.6871 -1.2853,0 -6.4351,4.834 -6.4351,6.0405 0,0.5277 -0.8475,0.9595 -1.8833,0.9595 -1.0424,0 -2.117,0.8931 -2.4064,2 -0.4973,1.9014 -1.364,2 -17.5815,2 -16.1129,0 -17.1186,-0.1124 -18.1436,-2.0278 -1.489,-2.7821 -1.4953,-50.1505 -0.01,-52.9313 0.6007,-1.1225 1.7514,-2.0409 2.557,-2.0409 0.9905,0 1.4648,-1.0685 1.4648,-3.3 0,-4.3772 1.5388,-5.7 6.6305,-5.7 3.6258,0 4.2761,-0.3216 4.55,-2.25 0.2288,-1.611 1.1005,-2.3399 3.0695,-2.5664 5.2745,-0.6069 3.0503,-2.8786 -3.3902,-3.4626 -3.3771,-0.3062 -6.4146,-0.9609 -6.75,-1.4548 -0.3354,-0.4939 -3.1973,-2.5996 -6.3598,-4.6793 -5.3718,-3.5327 -5.75,-4.038 -5.75,-7.6841 0,-2.1465 -0.4857,-3.9028 -1.0794,-3.9028 -0.6792,0 -0.8351,1.1125 -0.4206,3 0.6865,3.1255 -0.2453,3.8547 -2.3,1.8 -2.0069,-2.0069 -1.3746,-6.2873 1.3,-8.8 2.4109,-2.2649 2.5,-2.7991 2.5,-14.9862 l 0,-12.6377 2.9595,-2.188 c 1.6278,-1.2035 3.3153,-2.2031 3.75,-2.2214 1.5872,-0.067 5.2905,-3.8307 5.2905,-5.377 0,-0.9045 0.833,-1.5897 1.9326,-1.5897 1.063,0 2.2183,-0.9 2.5674,-2 0.6016,-1.8955 1.5131,-2 17.445,-2 19.1859,0 19.4275,0.097 19.5072,7.846 0.041,3.9714 0.3412,4.654 2.0478,4.654 1.7103,0 2.0125,-0.6953 2.0859,-4.8002 0.1377,-7.6882 0.8664,-8.008 17.9406,-7.8723 12.881,0.1024 14.5935,-0.072 14.0698,-1.4372 -0.328,-0.8546 -0.5963,-2.1921 -0.5963,-2.9721 0,-1.0769 -1.5443,-1.4182 -6.4182,-1.4182 -7.3126,0 -9.5818,-0.6174 -9.5818,-2.607 0,-0.7661 -0.6891,-1.393 -1.5314,-1.393 -0.8422,0 -1.8265,-0.769 -2.1871,-1.709 -0.8184,-2.1325 -5.373,-6.217 -6.98,-6.2594 -0.6591,-0.017 -2.3466,-1.0957 -3.75,-2.3963 l -2.5515,-2.3646 0,-18.4483 0,-18.4482 2.8047,-2.6871 c 1.5426,-1.4779 3.2301,-2.7054 3.75,-2.7277 0.5199,-0.022 2.5033,-1.3724 4.4076,-3 1.945,-1.6626 4.6226,-2.9594 6.1104,-2.9594 1.4565,0 4.736,-0.2862 7.2878,-0.6359 4.5124,-0.6185 4.6395,-0.7316 4.6395,-4.1285 l 0,-3.4926 -11.7776,0.703 c -11.1377,0.6647 -11.8801,0.5897 -13.6638,-1.3813 -1.2524,-1.3838 -1.9152,-3.6771 -1.9724,-6.8244 -0.073,-4.0449 -0.3796,-4.7403 -2.0862,-4.7403 -1.7256,0 -2.0137,0.7001 -2.1003,5.1034 -0.055,2.8068 -0.4193,5.6193 -0.809,6.25 -0.4893,0.7916 -6.1371,1.1466 -18.2433,1.1466 -16.6936,0 -17.5597,-0.096 -18.0576,-2 -0.2895,-1.1069 -1.364,-2 -2.4064,-2 -1.0547,0 -1.8834,-0.6995 -1.8834,-1.5897 0,-1.5463 -3.7033,-5.3102 -5.2905,-5.377 -0.4347,-0.018 -2.1222,-1.0179 -3.75,-2.2213 l -2.9595,-2.1881 0,-15.1376 c 0,-14.8539 -0.047,-15.1817 -2.5,-17.4863 -1.6947,-1.5921 -2.5,-3.4199 -2.5,-5.6743 0,-1.8291 0.1882,-3.3257 0.4182,-3.3257 0.2301,0 1.1529,-0.2819 2.0508,-0.6265 1.3417,-0.5148 1.5151,-0.1584 0.9734,2 -0.7764,3.0937 0.5515,3.4672 2.3109,0.65 0.6789,-1.0871 3.0843,-2.9203 5.3455,-4.0739 l 4.1111,-2.0973 -1.9768,-2.1761 c -1.5643,-1.7221 -2.0973,-4.1536 -2.5547,-11.6529 -0.41,-6.7238 -1.0111,-9.7935 -2.0695,-10.5673 -0.8203,-0.5999 -1.8019,-3.4306 -2.1813,-6.2906 -0.6438,-4.8531 -0.8632,-5.1821 -3.2894,-4.9327 -2.3711,0.2438 -2.6531,-0.1209 -3.2084,-4.1501 -0.9144,-6.6355 0.2028,-10.6374 2.8878,-10.3444 2.0071,0.2191 2.1824,-0.2027 2.1824,-5.25 l 0,-5.4882 -15,0 -15,0 0,9 c 0,11.7569 -0.7159,12.5469 -12.2402,13.5069 -13.2776,1.106 -56.8609,0.1669 -59.4421,-1.2808 -2.9782,-1.6704 -3.4764,-3.7839 -3.4541,-14.6535 0.019,-9.0835 -0.052,-9.3754 -2.3707,-9.8187 -1.3144,-0.2513 -2.815,-0.032 -3.3345,0.4877 -0.5928,0.5928 -1.8224,0.3936 -3.3015,-0.5347 -1.2963,-0.8136 -3.8194,-1.5004 -5.6069,-1.5262 -2.562,-0.037 -3.25,0.3623 -3.25,1.8862 0,1.608 -0.7147,1.9326 -4.25,1.9303 -4.4046,0 -37.6653,12.5496 -42.75,16.1338 -1.375,0.9692 -5.4611,2.9285 -9.0803,4.354 l -6.5803,2.5918 -2.6716,11.2116 c -1.4695,6.1664 -4.1471,16.8366 -5.9504,23.7116 l -3.2787,12.5 -18.4693,-0.2574 c -10.1582,-0.1415 -23.9599,-0.5231 -30.6705,-0.8478 l -12.2011,-0.5905 -0.2989,-5.1522 -0.2989,-5.1521 -13.25,-0.279 -13.25,-0.279 0,2.3798 c 0,4.5806 -2.0619,8.3966 -5.5528,10.2766 -1.896,1.021 -3.4472,1.9586 -3.4472,2.0836 0,0.1249 1.056,1.2831 2.3466,2.5737 2.7514,2.7514 4.0673,2.5246 8.2448,-1.4209 2.6122,-2.467 4.002,-2.9519 8.9649,-3.1272 5.1359,-0.1815 5.924,0.041 6.2753,1.7675 0.221,1.0863 0.9709,2.4363 1.6664,3 0.6956,0.5637 1.545,3.5955 1.8877,6.7374 0.7421,6.8048 -0.3078,7.7875 -8.3199,7.7875 -3.6489,0 -5.0658,0.3873 -5.0658,1.3848 0,1.5036 -3.6631,2.0848 -20.0697,3.1846 -9.2821,0.6221 -9.7513,0.5498 -15.6104,-2.4079 l -6.0407,-3.0493 -10.3896,0.9697 c -5.7143,0.5334 -11.7396,1.3849 -13.3896,1.8923 -4.072,1.2522 -22.7571,2.2558 -27.0398,1.4524 -4.2818,-0.8033 -4.795,-3.9686 -0.8844,-5.4554 3.6651,-1.3935 18.6238,-2.8604 34.8351,-3.4162 7.6511,-0.2622 14.3786,-0.9444 14.95,-1.5159 0.7188,-0.7188 0.5333,-1.0391 -0.6019,-1.0391 -0.9025,0 -1.894,-0.4094 -2.2032,-0.9097 -0.8352,-1.3515 0.4666,-4.0903 1.9442,-4.0903 0.7073,0 1.5451,-0.675 1.8617,-1.5 0.3915,-1.0203 -0.054,-1.5 -1.3931,-1.5 -1.4397,0 -1.9686,-0.6801 -1.9686,-2.5314 0,-1.3922 0.6253,-2.7713 1.3895,-3.0646 0.7642,-0.2932 1.1782,-1.3413 0.9199,-2.329 -0.4417,-1.6888 -2.1291,-1.7659 -28.3432,-1.2935 -21.8472,0.3936 -31.6131,0.1332 -45.1699,-1.2046 -21.5234,-2.1238 -38.8012,-5.1511 -40.7878,-7.1466 -1.3451,-1.3511 -1.1103,-2.6479 2.1675,-11.9727 l 3.6759,-10.4576 -4.2723,0 c -5.3805,0 -10.5796,2.4931 -10.5796,5.0733 0,1.362 0.6968,1.9267 2.3776,1.9267 5.2561,0 6.7135,5.796 3.0884,12.282 -2.9299,5.2422 -5.1889,6.2868 -11.7056,5.4127 -2.9532,-0.3961 -5.1889,-0.01 -7.8998,1.3764 -2.0795,1.0609 -4.5863,1.9432 -5.5707,1.9607 -2.9948,0.053 -5.1164,2.3922 -5.4618,6.0214 -0.2595,2.7261 -0.8138,3.5156 -2.651,3.7759 -1.624,0.2301 -2.4752,-0.2532 -2.829,-1.6061 -0.4368,-1.6703 -1.5217,-1.9621 -7.9271,-2.1316 l -7.421,-0.1964 0,3.0525 0,3.0525 8.25,0.2153 c 4.5375,0.1185 9.9811,0.231 12.0969,0.25 l 3.8468,0.035 -0.6597,5 c -2.3073,17.4893 -28.6672,34.2859 -54.654,34.8259 l -8.38,0.1741 -0.3117,-3.7728 -0.3117,-3.7728 -17.6883,0.2728 -17.6883,0.2728 -0.5839,6.7982 c -0.6964,8.1074 -2.2583,10.2248 -6.8055,9.2261 -2.0335,-0.4466 -3.1106,-1.2883 -3.1106,-2.4307 0,-0.9611 -2.9766,-4.551 -6.6147,-7.9775 l -6.6146,-6.2301 -11.6354,0.4352 c -6.3994,0.2393 -13.1711,0.7768 -15.0482,1.1944 -2.6614,0.5921 -3.6862,0.3855 -4.654,-0.938 -0.7911,-1.0819 -1.4786,-1.313 -1.8961,-0.6374 -0.797,1.2895 -27.1639,1.4724 -27.9541,0.1939 -0.2943,-0.4762 -1.67,-0.6489 -3.0572,-0.3838 -1.4167,0.2709 -3.6184,-0.2363 -5.0238,-1.1571 -2.1898,-1.4349 -2.5019,-1.4493 -2.5019,-0.1162 0,1.9027 -3.3612,1.9976 -4.9041,0.1385 -0.8553,-1.0305 -3.7895,-1.3555 -11.4773,-1.2711 -9.8304,0.108 -10.5402,-0.027 -14.7235,-2.8033 -2.6207,-1.7393 -5.5053,-2.8346 -7.1451,-2.7131 -1.5125,0.1121 -2.75,-0.2534 -2.75,-0.8121 0,-0.6126 -3.5728,-1.0159 -9,-1.0159 l -9,0 0,-15.3182 0,-15.3182 7.5016,-7.4318 c 4.1258,-4.0875 7.9508,-7.5818 8.5,-7.7651 1.681,-0.5612 1.2187,-7.1667 -0.5016,-7.1667 -1.1889,0 -1.5,-1.4363 -1.5,-6.9267 0,-6.7827 0.066,-6.9598 3.1765,-8.5114 1.747,-0.8716 4.0184,-1.3174 5.0475,-0.9908 1.1739,0.3726 3.1325,-0.3684 5.2568,-1.9886 1.8622,-1.4204 4.5469,-2.5825 5.9661,-2.5825 1.4191,0 3.4629,-0.5512 4.5417,-1.2249 1.368,-0.8543 2.2787,-0.9078 3.0098,-0.1767 0.5766,0.5766 2.3755,0.8536 3.9975,0.6155 l 2.9491,-0.4328 0.2775,-13.6405 0.2775,-13.6406 5.3368,-1.7701 c 2.9353,-0.9735 8.78,-2.0611 12.9883,-2.4169 4.2157,-0.3563 8.2506,-1.2458 8.9856,-1.9808 0.7938,-0.7938 2.317,-1.0873 3.7617,-0.7247 1.5427,0.3872 2.4276,0.1793 2.4276,-0.5705 0,-0.6489 0.675,-1.85485 1.5,-2.67985 0.8756,-0.87562 1.5,-3.31884 1.5,-5.86955 0,-2.40326 0.5335,-4.69927 1.1855,-5.10225 0.6521,-0.40298 3.5771,-0.62191 6.5,-0.48652 l 5.3145,0.24618 0,-5.01123 0,-5.01122 -4.7495,-0.71225 c -2.6123,-0.39173 -6.4998,-1.87044 -8.6389,-3.28602 -2.443,-1.61674 -4.9531,-2.46219 -6.7504,-2.27367 -1.5736,0.16507 -2.8612,-0.11917 -2.8612,-0.63164 0,-0.51248 -3.2625,-1.22909 -7.25,-1.59247 -7.2359,-0.65943 -16.1341,-3.00722 -18.5,-4.88126 -1.8045,-1.42939 -1.8045,-55.08006 0,-56.44771 2.0389,-1.54522 9.7735,-3.5036 17.0493,-4.31681 4.1444,-0.46321 7.5464,-1.4361 8.7128,-2.49161 1.1196,-1.01323 2.6164,-1.46192 3.6078,-1.08148 1.0253,0.39344 3.2034,-0.34843 5.5158,-1.87872 2.1018,-1.3909 5.1545,-2.52891 6.7839,-2.52891 1.6293,0 3.2349,-0.44091 3.5679,-0.9798 0.3558,-0.57561 3.0142,-0.72806 6.4443,-0.36954 4.0911,0.4276 6.6963,0.18615 8.7035,-0.80663 2.1933,-1.0848 6.7694,-1.35968 19.524,-1.17275 13.8297,0.20268 16.7542,-0.003 17.2186,-1.21357 0.6365,-1.65875 3.8999,-1.91463 6.5219,-0.51137 1.6165,0.86514 1.6757,0.65063 0.6895,-2.5 -1.0489,-3.35114 -1.223,-3.44634 -6.3041,-3.44634 -3.7785,0 -6.8257,-0.80551 -11.0053,-2.90918 -3.1789,-1.60004 -7.8049,-3.45657 -10.2799,-4.12562 -2.475,-0.66905 -5.9265,-1.83898 -7.6701,-2.59986 -5.5005,-2.40031 -8.9699,-2.74585 -9.6546,-0.96156 -0.8448,2.20154 -7.2631,2.15522 -8.5035,-0.0614 -0.8075,-1.4429 -2.3004,-1.57985 -11.5262,-1.0574 -6.7405,0.38172 -10.8267,0.23093 -11.2254,-0.41423 -0.3889,-0.62917 -4.1006,-0.81822 -9.7736,-0.49779 -5.0306,0.28414 -10.1591,0.54146 -11.3966,0.57181 -1.3088,0.0321 -2.25,0.68265 -2.25,1.55519 0,1 -1,1.5 -3,1.5 -1.65,0 -3.3375,0.1125 -3.75,0.25 -0.4125,0.1375 -0.8938,-0.7625 -1.0695,-2 -0.1758,-1.2375 -0.9774,-2.25 -1.7814,-2.25 -0.804,0 -1.6794,-0.5625 -1.9454,-1.25 -0.5441,-1.40658 -9.8966,-1.69918 -12.6255,-0.395 -0.9335,0.44614 -2.5606,0.32336 -3.6843,-0.278 -1.1068,-0.59235 -3.0545,-1.08952 -4.3281,-1.10482 -1.2737,-0.0153 -4.1093,-1.38461 -6.3015,-3.04291 -2.1921,-1.65831 -4.1421,-2.54579 -4.3333,-1.97218 -0.5384,1.61509 -3.4444,1.1738 -5.931,-0.90061 -1.9452,-1.6228 -2.25,-2.83727 -2.25,-8.96673 0,-4.05981 0.4274,-7.08971 1,-7.08971 0.55,0 1,-1.24743 1,-2.77208 0,-2.14955 -1.9142,-4.67596 -8.5238,-11.25 l -8.5239,-8.47792 0.2739,-15 0.2738,-15 11.633,-0.63443 c 10.3195,-0.56279 12.0676,-0.92976 15.4821,-3.25 2.1171,-1.43856 4.8758,-2.61557 6.1306,-2.61557 1.2548,0 3.1754,-0.55825 4.2679,-1.24055 1.4361,-0.89688 2.4712,-0.94674 3.7364,-0.17997 3.1461,1.90667 9.0565,0.74189 13.3035,-2.6218 l 3.9785,-3.15109 41.6988,-0.0288 41.6989,-0.0288 3.7851,-3.04185 c 2.0819,-1.67303 3.7852,-3.81145 3.7852,-4.75206 0,-2.5105 2.4619,-4.12823 5.2265,-3.43436 2.4924,0.62554 4.7735,5.06992 4.7735,9.30028 0,1.51233 0.6119,2.179 2,2.179 1.7085,0 2,-0.66667 2,-4.57332 0,-3.81534 0.2901,-4.51831 1.75,-4.24138 1.2766,0.24215 1.8332,1.47941 2.0575,4.57333 l 0.3075,4.24137 4.8903,0 4.8902,0 0.3023,-5.18859 0.3022,-5.18858 6.5,0.2343 c 8.1418,0.29348 21.5507,3.55517 29.8184,7.25325 8.2276,3.68018 18.189,11.66772 22.045,17.67677 1.685,2.62585 3.5598,7.23545 4.1663,10.24356 0.6064,3.00811 1.3647,6.14429 1.6851,6.96929 1.4948,3.84885 -1.1931,10 -4.3698,10 -2.3197,0 -1.4699,3.08092 1.655,6 4.444,4.15133 3.6191,10.29649 -1.5,11.17419 -1.3106,0.22471 -2.1066,1.26301 -2.3094,3.0122 -0.2636,2.27306 0.1075,2.71711 2.5,2.99145 2.3195,0.26598 2.9716,0.97855 3.7392,4.08598 0.8281,3.35257 0.6049,4.22669 -2.043,8 -2.8642,4.08162 -3.2083,4.25695 -9.4297,4.80532 -3.5514,0.31302 -7.4427,1.10197 -8.6473,1.75321 -1.2047,0.65125 -3.9014,1.5396 -5.9928,1.97412 -3.66,0.76043 -3.7905,0.92892 -3.4831,4.49678 0.2929,3.39922 0.1056,3.70675 -2.2573,3.70675 -1.4171,0 -2.5766,0.23499 -2.5766,0.5222 0,0.28721 1.8214,4.14466 4.0475,8.57213 l 4.0474,8.04993 8.7026,-0.65935 c 4.7864,-0.36264 13.99,-0.65345 20.4525,-0.64625 l 11.75,0.0131 0,-2.75921 c 0,-3.899 -0.7076,-4.1976 -4.5604,-1.92439 -2.5718,1.5174 -4.584,1.89027 -8.3123,1.54028 -5.5263,-0.51876 -6.4933,-0.9503 -10.3495,-4.61877 -2.2781,-2.16718 -2.7268,-3.44618 -2.75,-7.83967 l -0.028,-5.25 11,0 11,0 0,-3.3 c 0,-1.815 0.4303,-3.73027 0.9562,-4.25616 0.6082,-0.60821 0.1864,-3.59494 -1.1592,-8.20751 -1.1634,-3.98824 -1.8345,-7.53218 -1.4912,-7.87542 1.1224,-1.12239 16.0639,-0.49698 21.7481,0.91032 l 5.5539,1.37503 -3.7955,-13.43226 c -2.0875,-7.38774 -3.5477,-13.83315 -3.2449,-14.32313 0.3029,-0.48998 4.3923,-0.89087 9.0876,-0.89087 7.6913,0 9.2705,-0.34806 15.941,-3.5135 7.0676,-3.35387 7.404,-3.66819 7.404,-6.91821 0,-4.69934 0.8841,-6.56829 3.107,-6.56829 1.2526,0 1.893,-0.70598 1.893,-2.08686 0,-1.40044 0.9868,-2.45934 3,-3.21924 1.65,-0.62281 3,-1.72284 3,-2.44452 0,-0.72168 0.675,-1.57117 1.5,-1.88775 0.825,-0.31659 1.5,-1.20246 1.5,-1.96862 0,-0.98834 -1.3333,-1.39301 -4.5897,-1.39301 -3.5369,0 -5.0203,0.51613 -6.4667,2.25 l -1.8771,2.25 -0.033,-3.06144 c -0.032,-2.95536 2.9849,-7.43856 5.0058,-7.43856 1.9493,0 0.8826,-2.0793 -1.539,-3 -3.107,-1.18129 -3.2203,-3.34698 -0.25,-4.77951 1.8071,-0.8715 0.2813,-1.13627 -7.75,-1.34488 -5.5,-0.14286 -11.125,-0.1922 -12.5,-0.10963 -11.4456,0.68728 -26.1986,-0.0183 -28.9361,-1.38401 -3.7163,-1.85393 -3.8282,-2.83507 -0.567,-4.97191 2.2236,-1.45694 5.2665,-1.55617 27.7953,-0.90635 l 25.2984,0.72971 5.0653,-3.11671 5.0653,-3.11671 15.2464,0 c 12.9423,0 15.1619,0.22021 14.6872,1.45716 -0.452,1.17791 0.821,1.51327 6.643,1.75 l 7.2022,0.29284 0.2957,6.75 c 0.2376,5.42455 0.01,6.75 -1.1836,6.75 -0.8622,0 -1.6112,1.126 -1.7957,2.69921 -0.3086,2.63263 -0.4644,2.69249 -6.3164,2.42679 -4.7532,-0.21582 -6.5309,-0.77671 -8.5547,-2.69922 -3.1072,-2.95157 -6.0288,-3.09699 -8.4508,-0.42065 -0.9986,1.10337 -1.6308,2.11587 -1.405,2.25 0.2258,0.13413 1.3105,0.80744 2.4105,1.49626 1.1,0.68881 3.0125,1.69017 4.25,2.22525 2.5777,1.11453 3.0384,4.78261 0.7128,5.67503 -0.8455,0.32444 -2.3435,-0.13968 -3.3288,-1.03139 -1.5199,-1.37552 -11.134,-2.4764 -11.134,-1.27492 0,1.94068 3.5356,6.65364 4.9915,6.65364 3.1808,0 5.0085,1.14284 5.0085,3.13174 0,1.11362 1.0245,2.30728 2.4433,2.84671 2.0321,0.77261 2.495,1.71042 2.75,5.57235 l 0.3067,4.64339 5.964,2.42087 c 3.2803,1.33148 7.1533,3.5602 8.6067,4.95271 2.4929,2.38828 3.714,2.61908 21.536,4.07063 10.3913,0.84633 20.4683,1.49108 22.3933,1.43277 1.925,-0.0583 6.65,0.56585 10.5,1.38703 25.3427,5.4054 74.5516,14.88783 88,16.95736 12.56,1.93282 23.6016,2.73221 51.3561,3.71808 27.6548,0.98233 35.4676,1.54644 35.868,2.58976 0.5235,1.36427 -3.4024,5.9268 -18.7383,21.7766 -4.7895,4.95 -16.2425,17.1 -25.4512,27 -18.3959,19.77684 -17.694,19.32628 -30.2846,19.44237 l -6.25,0.0576 0,14.84803 0,14.84804 10.7181,0.65579 c 6.7362,0.41216 11.2073,1.14494 12.0348,1.97243 0.8554,0.85544 1.3309,4.04687 1.3573,9.11097 0.037,7.17527 0.1583,7.62636 1.522,5.67954 1.5308,-2.18556 5.7798,-2.87527 6.8678,-1.1148 1.2182,1.97115 2.5,0.94575 2.5,-2 l 0,-3 33,0 33,0 0,3 c 0,2.73184 0.2972,3 3.325,3 1.8751,0 4.1645,-0.80684 5.25,-1.85025 1.4899,-1.432 2.4192,-1.62833 4.1112,-0.86854 4.1118,1.84634 5.4709,0.30162 5.3028,-6.02703 -0.3662,-13.79116 -0.079,-16.05429 2.3757,-18.70266 l 2.3646,-2.55152 32.5005,0 c 40.0575,0 37.7702,-0.82192 37.7702,13.57258 l 0,9.42742 15,0 15,0 0,-3.06286 c 0,-2.60233 -0.3383,-3.01582 -2.25,-2.75 -2.1611,0.3005 -2.25,0.0167 -2.25,-7.18714 l 0,-7.5 2.75,0.28785 c 2.6383,0.27615 2.75,0.1035 2.75,-4.25 0,-3.24772 0.5853,-5.12318 2.0588,-6.59665 1.6658,-1.66583 2.1907,-3.88709 2.75,-11.63753 l 0.6912,-9.57874 -3.8676,-3.86246 c -2.1272,-2.12436 -4.0755,-3.86247 -4.3295,-3.86247 -0.254,0 -0.1653,1.35 0.1971,3 0.6865,3.12548 -0.2453,3.85469 -2.3,1.8 -2.1037,-2.1037 -1.4178,-6.84082 1.3,-8.97866 2.4717,-1.94424 2.5,-2.1394 2.5,-17.23893 0,-14.01991 0.1646,-15.42139 2.0069,-17.08864 2.2889,-2.07148 5.6826,-4.1688 8.2431,-5.09442 0.9625,-0.34794 1.75,-1.48013 1.75,-2.51598 0,-1.03585 0.5109,-1.88337 1.1353,-1.88337 0.6245,0 2.178,-1.125 3.4523,-2.5 2.2782,-2.45823 2.5725,-2.49974 17.6147,-2.48469 8.4137,0.008 15.8321,0.35508 16.4851,0.77035 1.7787,1.13098 3.4473,6.21448 2.7555,8.39441 -0.3345,1.05375 -0.061,2.57486 0.6072,3.38025 2.0004,2.41036 3.776,-0.11174 3.6982,-5.25318 -0.1011,-6.68944 1.2044,-7.30714 15.4428,-7.30714 l 11.8089,0 0,-3.5 0,-3.5 -6.85,0 c -6.0241,0 -7.3492,-0.3617 -10.9913,-3 -2.2778,-1.65 -4.5111,-3 -4.9629,-3 -0.4519,0 -2.0308,-1.26212 -3.5087,-2.80472 l -2.6871,-2.80472 0,-18.50819 0,-18.50819 2.8047,-2.68709 c 1.5426,-1.4779 3.2301,-2.70206 3.75,-2.72036 1.4511,-0.0511 4.9626,-3.25775 5.7125,-5.21673 0.3685,-0.9625 1.5317,-1.75 2.5848,-1.75 1.0737,0 2.1445,-0.87845 2.4378,-2 0.461,-1.76288 1.364,-2 7.6166,-2 5.4569,0 7.0936,-0.32721 7.0936,-1.41821 0,-0.78002 0.2731,-2.13002 0.607,-3 0.5363,-1.39752 -1.0804,-1.58179 -13.8776,-1.58179 -16.5183,0 -17.0877,-0.2514 -16.9782,-7.49566 0.072,-4.73452 -1.7398,-7.47416 -3.4822,-5.26667 -0.548,0.69428 -0.9827,3.43942 -0.966,6.10031 0.02,3.11284 -0.4748,5.15773 -1.3863,5.73468 -0.7792,0.4932 -8.7254,0.90361 -17.6582,0.91203 -15.1675,0.0143 -16.3241,-0.11695 -17.4906,-1.98469 -0.6869,-1.1 -1.8299,-2 -2.5398,-2 -0.71,0 -1.586,-0.76904 -1.9467,-1.70897 -0.7874,-2.05209 -5.3479,-6.21509 -6.8571,-6.25943 -0.5916,-0.0174 -2.0541,-1.0731 -3.25,-2.34605 -1.9889,-2.11715 -2.1743,-3.36228 -2.1743,-14.60608 0,-11.92 -0.076,-12.35108 -2.5,-14.25813 -3.3817,-2.66003 -3.2898,-9.82134 0.126,-9.82134 1.0069,0 1.2321,0.7174 0.7846,2.5 -0.3866,1.5404 -0.202,2.5 0.481,2.5 0.6096,0 1.1084,-1.50526 1.1084,-3.34501 0,-4.00067 2.7677,-6.84867 10,-10.29036 0.825,-0.39259 1.8599,-1.31024 2.2997,-2.03922 0.5204,-0.86245 2.8781,-1.32541 6.75,-1.32541 5.2836,0 5.9503,-0.22408 5.9503,-2 0,-1.55556 -0.6667,-2 -3,-2 -2.5162,0 -3,-0.3947 -3,-2.44774 0,-2.24778 -0.4289,-2.47243 -5.25,-2.75 -5.2434,-0.30188 -5.2504,-0.30679 -5.5519,-3.91108 -0.2197,-2.62541 -0.9691,-3.96585 -2.75,-4.91898 -1.3681,-0.73216 -2.462,-2.22824 -2.4795,-3.39118 -0.017,-1.14456 -0.039,-12.53272 -0.048,-25.30701 -0.016,-22.45663 0.5418,-27.27401 3.1584,-27.27401 0.5548,0 0.9356,-0.5625 0.8464,-1.25 -0.3619,-2.78631 0.1713,-3.75 2.0746,-3.75 1.1,0 1.8875,-0.5625 1.75,-1.25 -0.1987,-0.99359 21.0833,-1.25 103.75,-1.25 82.6667,0 103.9487,0.25641 103.75,1.25 -0.1492,0.74603 0.8083,1.25 2.375,1.25 2.3535,0 2.566,0.29517 2.0542,2.85417 -0.314,1.56979 -0.1235,3.3015 0.4232,3.84826 0.6061,0.60608 0.9979,10.90877 1.0038,26.39583 l 0.01,25.40174 -2.4864,2.14051 c -1.5185,1.30727 -2.6115,3.44828 -2.8079,5.5 -0.3099,3.23846 -0.4904,3.37038 -5.0088,3.66172 -3.9536,0.25492 -4.7362,0.64623 -5,2.5 -0.2386,1.67696 -1.0971,2.27309 -3.623,2.51562 -2.4712,0.23729 -3.2292,0.74422 -2.9906,2 0.2448,1.28829 1.6052,1.75015 5.8103,1.97258 3.0198,0.15973 5.9406,0.86262 6.4906,1.56197 0.55,0.69935 1.675,1.59881 2.5,1.99879 7.3381,3.55777 10,6.30051 10,10.3038 0,1.83975 0.4988,3.34501 1.1084,3.34501 0.683,0 0.8676,-0.9596 0.481,-2.5 -0.4474,-1.7826 -0.2223,-2.5 0.7846,-2.5 3.4003,0 3.4865,6.84297 0.126,10 -2.4007,2.2553 -2.5,2.8315 -2.5,14.5 0,11.40872 -0.1415,12.28426 -2.3145,14.32569 -1.2729,1.19587 -2.7354,2.18853 -3.25,2.20591 -1.3987,0.0472 -5.9665,4.30388 -6.7169,6.25943 -0.3607,0.93993 -1.2367,1.70897 -1.9467,1.70897 -0.7099,0 -1.8529,0.9 -2.5398,2 -1.1121,1.78065 -2.332,2 -11.1239,2 -9.0339,0 -9.9195,0.17033 -10.3979,2 -0.6734,2.57481 -3.3323,2.57481 -4.7103,0 -0.6905,-1.2902 -2.0938,-2 -3.9541,-2 -1.5861,0 -4.2617,-0.7875 -5.9457,-1.75 -2.5391,-1.45121 -3.3639,-1.53162 -4.831,-0.47097 -0.9731,0.70347 -2.5821,1.55011 -3.5758,1.88142 -1.0041,0.33484 -1.5733,1.21025 -1.2813,1.97097 0.2971,0.77525 -0.112,1.36858 -0.9439,1.36858 -0.8077,0 -1.4686,-0.675 -1.4686,-1.5 0,-1.11111 -1.1667,-1.5 -4.5,-1.5 -3.9901,0 -4.5038,0.25493 -4.5333,2.25 l -0.033,2.25 -1.877,-2.25 c -1.3944,-1.67149 -2.9459,-2.25 -6.0341,-2.25 -3.8282,0 -4.108,0.17803 -3.5369,2.25 l 0.6203,2.25 -1.9632,-2.25 c -1.0797,-1.2375 -2.8484,-2.25 -3.9304,-2.25 -1.082,0 -2.5443,-0.69531 -3.2496,-1.54513 -0.9396,-1.13217 -2.7764,-1.46626 -6.8724,-1.25 l -5.5901,0.29513 -0.2974,4.0431 c -0.2673,3.63372 -0.065,4.0446 2,4.05793 28.7297,0.18543 30.9735,0.35627 31.5077,2.39897 0.2876,1.1 0.9428,2 1.4559,2 0.5131,0 2.5547,1.575 4.5368,3.5 1.9821,1.925 4.1256,3.5 4.7633,3.5 0.6377,0 2.3687,1.26212 3.8466,2.80472 l 2.6871,2.80472 0,18.52096 c 0,18.38755 -0.018,18.53764 -2.4625,20.83438 -2.3038,2.16432 -4.9972,3.95937 -8.5375,5.69004 -0.825,0.4033 -2.0946,1.32095 -2.8214,2.03923 -0.8618,0.85173 -4.0549,1.30595 -9.1805,1.30595 -7.3887,0 -7.8781,0.13464 -8.1785,2.25 -0.2619,1.8439 -0.9513,2.25 -3.8196,2.25 -2.8683,0 -3.5577,-0.4061 -3.8195,-2.25 -0.2777,-1.95468 -0.9134,-2.25 -4.8437,-2.25 -3.6745,0 -4.6217,-0.37345 -5.0441,-1.98875 -1.2345,-4.72068 -2.2927,-0.0831 -2.2927,10.04777 0,8.62643 0.2914,10.94098 1.3776,10.94098 0.7576,0 1.9377,-0.675 2.6224,-1.5 0.6847,-0.825 1.8648,-1.5 2.6224,-1.5 0.7577,0 1.3776,-0.71713 1.3776,-1.59362 0,-0.87649 0.9,-1.82897 2,-2.11663 1.1,-0.28766 2,-1.1297 2,-1.8712 0,-0.7415 0.8704,-1.81402 1.9343,-2.38337 2.2139,-1.18485 30.938,-1.40368 32.7531,-0.24952 1.7787,1.13098 3.4473,6.21448 2.7555,8.39441 -0.3345,1.05375 -0.061,2.57486 0.6072,3.38025 2.0004,2.41036 3.776,-0.11174 3.6982,-5.25318 -0.1044,-6.90697 0.9092,-7.30714 18.5086,-7.30714 14.8588,0 18.7431,0.73262 18.7431,3.53518 0,0.80565 0.7171,1.46482 1.5936,1.46482 0.8765,0 1.8181,0.8584 2.0925,1.90755 0.2743,1.04915 1.2447,2.18134 2.1564,2.51598 2.494,0.91549 5.9027,3.03595 8.1506,5.07024 1.8423,1.66725 2.0069,3.06873 2.0069,17.08864 0,15.09953 0.028,15.29469 2.5,17.23893 2.7178,2.13784 3.4037,6.87496 1.3,8.97866 -2.0547,2.05469 -2.9865,1.32548 -2.3,-1.8 0.8654,-3.94022 -0.4099,-3.75802 -3.5,0.5 -1.375,1.89472 -3.0021,3.45733 -3.6157,3.47247 -1.1501,0.0284 -0.4238,6.53656 0.9836,8.81379 0.7061,1.14248 2.3083,10.63531 3.299,19.54652 0.4973,4.47268 0.712,4.78893 2.8823,4.24423 3.2141,-0.80668 4.0185,1.052 3.612,8.34512 -0.3157,5.66301 -0.5034,6.07787 -2.75,6.07787 -2.1807,0 -2.4047,0.40637 -2.3435,4.25 0.06,3.79161 0.1847,4.00732 1.1528,2 1.0631,-2.20436 3.7795,-3.15409 3.7795,-1.32143 0,2.13319 3.3664,4.07143 7.0714,4.07143 l 3.9286,0 0,-4.5 c 0,-2.475 -0.3375,-4.44671 -0.75,-4.38158 -4.0031,0.63207 -4.3429,0.0129 -4.0438,-7.36842 0.2891,-7.13418 0.3357,-7.24727 2.9187,-7.07887 2.3959,0.15621 2.6799,-0.22998 3.2551,-4.42691 0.3466,-2.52893 1.3755,-5.42151 2.2863,-6.42797 1.7062,-1.88537 2.1422,-3.97949 2.992,-14.37188 0.4899,-5.99174 0.4526,-6.09817 -3.5369,-10.08766 -2.4774,-2.4774 -4.2119,-3.56325 -4.4986,-2.81622 -0.2566,0.66869 -0.012,1.66984 0.5425,2.22479 0.6766,0.67662 0.6774,1.21389 0,1.63104 -1.4765,0.91248 -4.1678,-2.18289 -4.1678,-4.79343 0,-1.23985 1.125,-3.31114 2.5,-4.60289 2.448,-2.29982 2.5,-2.65591 2.5,-17.13385 l 0,-14.78521 2.7398,-2.54047 c 1.5069,-1.39726 3.199,-2.54047 3.7602,-2.54047 1.3339,0 6.5,-4.80089 6.5,-6.04047 0,-0.52774 0.5109,-0.95953 1.1353,-0.95953 0.6245,0 2.178,-1.125 3.4523,-2.5 2.2782,-2.45823 2.5725,-2.49974 17.6147,-2.48469 8.4137,0.008 15.7995,0.34592 16.4129,0.75 1.5412,1.0153 2.7844,5.05913 2.839,9.23469 0.032,2.42409 0.5069,3.5 1.5458,3.5 1.4236,0 1.5939,-0.72986 1.9081,-8.17857 0.1954,-4.63221 2.2888,-5.32143 16.1633,-5.32143 l 12.9286,0 0,-3.5 0,-3.5 -7.6061,0 c -6.9428,0 -7.9364,-0.26161 -11.3939,-3 -2.0833,-1.65 -4.2249,-3 -4.759,-3 -0.5342,0 -2.157,-0.93266 -3.6061,-2.07258 l -2.6349,-2.07258 0,-19.47287 c 0,-19.34158 0.017,-19.48943 2.4545,-21.92742 1.35,-1.35 3.0375,-2.46952 3.75,-2.48782 1.7402,-0.0447 5.2334,-3.05041 6.0627,-5.21673 0.3685,-0.9625 1.2509,-1.75 1.9609,-1.75 0.7099,0 1.8529,-0.9 2.5398,-2 1.0685,-1.71087 2.3321,-2 8.7406,-2 5.8004,0 7.4915,-0.32014 7.4915,-1.41821 0,-0.78002 0.2731,-2.13002 0.607,-3 0.5375,-1.40065 -1.1762,-1.58179 -14.9648,-1.58179 -17.7588,0 -17.7258,0.0163 -18.0001,-8.88578 -0.1038,-3.37169 -0.546,-4.61422 -1.6421,-4.61422 -1.0961,0 -1.5383,1.24253 -1.6421,4.61422 -0.2724,8.92209 -0.1976,8.88578 -18.3088,8.88578 -16.6543,0 -19.0466,-0.32744 -19.0466,-2.60699 0,-0.76615 -0.8754,-1.39301 -1.9454,-1.39301 -1.1391,0 -2.4867,-1.13982 -3.2512,-2.75 -0.7181,-1.5125 -2.7987,-3.49587 -4.6236,-4.4075 -7.059,-3.52644 -7.1798,-3.82874 -7.1798,-17.97443 0,-12.64325 -0.036,-12.84527 -2.5522,-14.49425 -3.1649,-2.07373 -3.1132,-7.24287 0.089,-8.85102 1.12,-0.56254 3.3654,-2.2603 4.9898,-3.7728 1.6243,-1.5125 3.4455,-2.75 4.0469,-2.75 0.6015,0 2.4061,-1.3375 4.0102,-2.97222 2.5552,-2.60387 3.6293,-2.97567 8.6667,-3 5.0741,-0.0245 5.75,-0.26288 5.75,-2.02778 0,-1.55556 -0.6667,-2 -3,-2 -2.5333,0 -3,-0.38889 -3,-2.5 0,-2.27907 -0.38,-2.5 -4.3,-2.5 -4.8614,0 -6.7,-1.31438 -6.7,-4.78971 0,-1.31434 -0.954,-3.1622 -2.12,-4.10636 -2.0649,-1.67204 -2.1186,-2.39703 -2.0667,-27.89778 0.029,-14.39963 0.3348,-26.63677 0.679,-27.19364 0.3441,-0.55688 1.232,-1.01251 1.9731,-1.01251 0.8679,0 1.1558,-0.7327 0.8089,-2.05908 -0.3918,-1.4983 0.023,-2.206 1.5244,-2.59854 1.1346,-0.29671 2.305,-1.17012 2.6007,-1.94092 0.8028,-2.09206 206.0961,-2.10486 207.3009,-0.0129 0.4398,0.76369 1.6997,1.55768 2.7997,1.76442 2.4285,0.45643 2.3155,-1.02243 2.5101,32.83715 0.1484,25.81041 0.099,26.52556 -1.9289,27.87198 -1.2462,0.82743 -2.0812,2.45635 -2.0812,4.05989 0,3.75201 -1.7314,5.07803 -6.6304,5.07803 -3.6258,0 -4.2762,0.3216 -4.55,2.25 -0.2288,1.61101 -1.1006,2.33986 -3.0696,2.56642 -1.9427,0.22354 -2.75,0.88402 -2.75,2.25 0,1.68404 0.7421,1.93716 5.75,1.96136 5.0374,0.0243 6.1115,0.39613 8.6667,3 1.6041,1.63472 3.4041,2.9743 4,2.97685 0.5958,0.003 2.5214,1.35254 4.2791,3 1.7576,1.64745 3.6543,2.99537 4.2148,2.99537 1.2581,0 3.0894,3.28421 3.0894,5.54034 0,0.9195 -1.125,2.55674 -2.5,3.63832 -2.4335,1.91422 -2.5,2.30607 -2.5,14.73893 0,14.09034 -0.1241,14.40014 -7.1798,17.92491 -1.8249,0.91163 -3.9055,2.895 -4.6236,4.4075 -0.7645,1.61018 -2.1121,2.75 -3.2512,2.75 -1.07,0 -1.9454,0.62686 -1.9454,1.39301 0,2.08452 -2.3076,2.60699 -11.5144,2.60699 -7.4726,0 -8.4176,0.21034 -8.9856,2 -0.3491,1.1 -1.2636,2 -2.0322,2 -0.7686,0 -1.8791,-0.9 -2.4678,-2 -0.7853,-1.46728 -2.0938,-2 -4.9127,-2 -2.1955,0 -4.376,-0.64292 -5.0873,-1.5 -0.6847,-0.825 -2.3148,-1.5 -3.6224,-1.5 -2.6575,0 -6.7775,3.544 -5.8551,5.03647 0.3276,0.52994 0.1049,0.96353 -0.4949,0.96353 -0.5997,0 -1.3494,-0.675 -1.666,-1.5 -0.4015,-1.04646 -2.034,-1.5 -5.399,-1.5 -4.2043,0 -4.8803,0.28882 -5.2661,2.25 l -0.4426,2.25 -0.7436,-2.25 c -0.6229,-1.88493 -1.4657,-2.25 -5.1943,-2.25 -3.9957,0 -4.3859,0.20449 -3.816,2 0.386,1.21607 0.1797,2 -0.5262,2 -0.6386,0 -1.3964,-0.9 -1.6841,-2 -0.3665,-1.40183 -1.364,-2 -3.3349,-2 -1.5466,0 -3.5119,-0.69995 -4.3674,-1.55544 -1.0786,-1.07862 -3.0165,-1.46181 -6.3214,-1.25 l -4.766,0.30544 -0.3075,4.25 -0.3075,4.25 15.549,0 c 14.466,0 15.636,0.1393 16.7981,2 0.6869,1.1 1.8299,2 2.5398,2 0.71,0 1.5924,0.7875 1.9609,1.75 0.7107,1.85635 4.2312,5.1609 5.5577,5.21673 0.4348,0.0183 2.1223,1.0179 3.75,2.22133 l 2.9595,2.18806 0,19.63762 c 0,19.23402 -0.048,19.68232 -2.3145,21.81195 -1.2729,1.19587 -2.8518,2.17431 -3.5086,2.17431 -0.6568,0 -3.0578,1.35 -5.3356,3 -3.7643,2.72684 -4.8561,3 -11.9913,3 -7.7067,0 -7.85,0.0457 -7.85,2.5 0,2.19048 -0.4333,2.5 -3.5,2.5 -3.0308,0 -3.5,-0.32275 -3.5,-2.40745 0,-2.21002 -0.4512,-2.43554 -5.5014,-2.75 l -5.5013,-0.34255 0,9.75 c 8e-4,5.3625 0.3389,9.73503 0.7514,9.71673 1.3061,-0.0579 5.25,-3.74025 5.25,-4.90177 0,-0.61296 1.125,-1.54219 2.5,-2.06496 1.375,-0.52277 2.5,-1.58849 2.5,-2.36826 0,-0.77977 0.7118,-1.69091 1.5818,-2.02475 2.2698,-0.87102 31.6903,-0.72134 33.0889,0.16834 1.3613,0.86593 2.6533,5.42331 2.757,9.72467 0.1081,4.48522 3.0365,4.02682 3.1942,-0.5 0.3525,-10.12055 0.124,-10 18.9495,-10 13.893,0 15.6201,0.19153 17.3529,1.92431 1.0584,1.05836 2.8584,2.4242 4,3.03518 1.1416,0.61098 2.0757,1.58541 2.0757,2.1654 0,1.21756 4.0174,4.77726 5.5,4.87344 0.55,0.0357 2.2375,1.15407 3.75,2.48531 l 2.75,2.42043 0,14.65361 c 0,14.17156 0.082,14.75135 2.5,17.62469 1.375,1.63409 2.5,3.80441 2.5,4.82293 0,2.28637 -2.8,5.23635 -4.1678,4.39102 -0.6749,-0.41715 -0.6741,-0.95442 0,-1.63104 0.555,-0.55495 0.7991,-1.5561 0.5425,-2.22479 -0.2874,-0.74877 -1.986,0.30359 -4.4219,2.7395 -4.2676,4.26762 -5.0193,7.72923 -2.4235,11.16114 0.8956,1.18413 1.4682,4.18344 1.4682,7.69098 0,3.16242 0.45,6.02797 1,6.36789 0.55,0.33992 1,2.84319 1,5.56282 l 0,4.94479 3.25,-0.2538 3.25,-0.25381 0.2969,6.80251 c 0.2559,5.86276 0.5322,6.73296 2,6.29914 9.2945,-2.74707 19.1833,-4.60165 24.5363,-4.60165 5.8619,0 6.6875,0.25743 8.4102,2.62235 2.6372,3.62021 5.3095,2.53385 8.5889,-3.49163 l 2.6279,-4.82831 10.2661,0.49435 c 11.8383,0.57005 12.6929,1.13704 12.7419,8.45324 l 0.032,4.75 19,0 19,0 0,-2.5 c 0,-2.27907 0.38,-2.5 4.3,-2.5 5.1548,0 6.7,-1.30981 6.7,-5.67943 0,-2.62683 1.0512,-4.32825 5.2823,-8.55 8.397,-8.37826 38.1669,-40.86746 38.7177,-42.25432 0.8658,-2.17992 6.4493,-6.30393 9.027,-6.66747 1.917,-0.27036 2.4024,-0.85621 2.159,-2.6056 -0.35,-2.51523 0.2579,-2.82837 7.064,-3.63911 3.7372,-0.44516 4.75,-0.25755 4.75,0.87988 0,2.77607 4.0159,3.81125 12.3057,3.172 4.365,-0.33661 8.6272,-1.1844 9.4715,-1.88398 1.1031,-0.91413 5.2187,-1.20848 14.6289,-1.04628 11.2943,0.19468 21.0938,-0.56355 29.2333,-2.26189 1.1918,-0.24866 2.3985,-1.47851 2.7242,-2.7765 0.5732,-2.28376 0.9682,-2.3545 19.8606,-3.55661 22.4896,-1.431 33.1301,-0.64963 42.7758,3.14119 5.2971,2.08178 8.9059,2.66975 19.5,3.17706 7.15,0.34238 14.8,0.88641 17,1.20896 l 4,0.58645 -1.905,-2.12217 c -1.0944,-1.21923 -3.1155,-2.12218 -4.75,-2.12218 -2.7818,0 -2.845,-0.12214 -2.845,-5.5 0,-5.35714 0.073,-5.5 2.8,-5.5 1.54,0 3.3587,0.55874 4.0416,1.24164 0.9889,0.98886 1.4022,0.98196 2.03,-0.0339 0.7654,-1.23854 4.1284,-0.6806 4.1284,0.68493 0,0.90019 0.5563,0.94667 22,1.83818 l 18.5,0.76912 0.3134,3.25 0.3133,3.25 -10.0633,0 c -9.3967,0 -10.0634,0.13249 -10.0634,2 0,1.65991 -0.7227,2.02859 -4.25,2.1681 l -4.25,0.16811 3.9873,0.40641 c 2.193,0.22352 4.443,0.7667 5,1.20706 0.557,0.44036 5.2276,1.11971 10.3791,1.50967 8.6209,0.65257 34.6033,7.35644 39.2771,10.13409 4.9807,2.96005 11.6245,9.29682 13.196,12.58621 1.624,3.39909 2.2296,3.82086 5.4929,3.82495 4.2444,0.005 19.123,5.45197 20.8108,7.61827 0.6288,0.80703 1.4393,3.44132 1.8011,5.85398 0.5613,3.74333 1.0536,4.46436 3.3567,4.91647 1.4845,0.2914 6.749,1.27832 11.699,2.19317 4.95,0.91484 17.325,4.11116 27.5,7.10293 16.2091,4.76599 18.8427,5.83196 21.2675,8.60827 2.2628,2.59086 3.6305,3.22276 7.5,3.46516 2.6029,0.16305 5.3796,0.35812 6.1706,0.43347 0.7909,0.0754 4.6159,1.78203 8.5,3.79261 3.884,2.01059 9.8744,4.69045 13.3119,5.95526 3.4375,1.26481 6.25,2.85249 6.25,3.52817 0,0.67568 1.2985,2.22366 2.8856,3.43996 3.3091,2.53599 6.1144,10.90909 6.1144,18.24965 0,2.49191 0.6419,5.83739 1.4264,7.43439 0.7846,1.597 1.3076,4.92864 1.1623,7.40363 -0.1575,2.6837 0.4776,6.2489 1.5736,8.8329 2.8434,6.7042 2.4445,11.4065 -1.2841,15.1351 -1.717,1.717 -2.8206,3.423 -2.4524,3.7911 0.3681,0.3682 5.7923,0.6923 12.0537,0.7204 6.2614,0.028 11.6828,0.3495 12.0476,0.7142 0.3648,0.3648 0.3699,1.9989 0.011,3.6313 l -0.6519,2.9681 -9.7563,-0.3911 c -9.0927,-0.3646 -9.9813,-0.2252 -13.0642,2.0494 -3.2985,2.4335 -8.066,8.58153 -8.066,10.40163 0,1.6408 -8.7555,4.0609 -12.4957,3.454 l -3.5043,-0.5687 0,4.0594 c 0,3.9804 -1.8811,7.1406 -4.3214,7.26 -0.6482,0.032 -3.4264,1.1202 -6.1738,2.4189 -2.7473,1.2988 -5.4473,1.9984 -6,1.5549 -0.5526,-0.4436 -9.1048,0.2998 -19.0048,1.652 -9.9,1.3522 -26.55,2.9359 -37,3.5192 -26.2166,1.4636 -39.6911,0.1479 -59.3888,-5.7987 -8.0362,-2.426 -16.2185,-5.2932 -18.1831,-6.3714 -2.9896,-1.6408 -3.8046,-1.7431 -5,-0.6278 -0.7854,0.7329 -2.8728,1.812 -4.6386,2.3981 -2.7233,0.9038 -3.9311,0.7007 -7.9597,-1.3389 -6.7809,-3.4329 -12.4022,-4.0455 -19.1787,-2.09 -3.1081,0.8968 -16.2261,3.0103 -29.1511,4.6966 -22.5308,2.9396 -23.8244,3.2282 -31.3658,6.9977 -5.034,2.5162 -9.2407,3.9317 -11.6849,3.9317 -2.1005,0 -4.9754,0.4396 -6.3887,0.977 -1.4133,0.5373 -11.4016,1.1477 -22.1963,1.3564 -18.7644,0.3628 -19.649,0.294 -20.135,-1.5645 -0.4602,-1.76 -1.1336,-1.8858 -7.1188,-1.3298 -3.6358,0.3378 -10.4355,0.8263 -15.1105,1.0858 -12.4935,0.6932 -110.9038,0.6526 -112.0345,-0.046 -0.531,-0.3282 -0.9655,-4.1702 -0.9655,-8.5377 l 0,-7.941 -6.6234,0 c -6.0851,0 -7.2256,0.3657 -14.0354,4.5 -4.0767,2.475 -7.9587,4.4901 -8.6267,4.478 -3.3515,-0.061 -9.9,-4.1781 -11.8199,-7.4321 -1.1507,-1.9502 -2.6613,-3.5459 -3.357,-3.5459 -0.808,0 -1.2649,-1.438 -1.2649,-3.9815 0,-3.8725 0.2053,-4.1094 7.4995,-8.6557 5.6273,-3.50733 7.9025,-4.43673 9.1136,-3.72293 0.909,0.5357 6.0349,0.713 11.7333,0.4057 9.9839,-0.5383 10.108,-0.5757 9.2822,-2.7956 -0.678,-1.823 -1.6021,-2.25 -4.8691,-2.25 -3.8092,0 -4.0322,-0.1651 -4.0322,-2.9856 0,-2.635 -0.6822,-3.33 -5.8098,-5.9184 -3.1954,-1.613 -6.4005,-3.6445 -7.1225,-4.5144 -1.0372,-1.2539 -3.4331,-1.5816 -11.5616,-1.5816 l -10.2526,0 -0.625,3.125 c -0.3437,1.7188 -0.625,4.8137 -0.625,6.8776 0,2.0639 -0.5625,4.2022 -1.25,4.7518 -0.6875,0.5497 -5.8037,1.2085 -11.3694,1.464 l -10.1194,0.4647 -2.6197,-5.3415 c -1.4409,-2.9379 -3.0212,-5.3416 -3.5119,-5.3416 -0.4907,0 -2.0935,1.575 -3.5618,3.5 -2.6181,3.4325 -2.8084,3.4997 -9.8687,3.4829 -3.9595,-0.01 -10.5741,-0.9017 -14.6991,-1.9829 -11.2282,-2.9429 -11,-3.0259 -11,4 0,6.07903 -0.2658,6.45763 -4.25,6.05233 -1.4307,-0.14553 -1.75,0.6323 -1.75,4.2624 0,2.7271 -0.5788,4.9208 -1.5,5.6853 -0.8962,0.7438 -1.5,2.93 -1.5,5.4313 0,2.3026 -0.6607,5.06 -1.4682,6.1276 -0.8075,1.0676 -1.4825,3.7057 -1.5,5.8624 -0.018,2.1889 -0.7555,4.7209 -1.6698,5.7312 -1.3354,1.4756 -1.4051,2.0906 -0.3776,3.3288 0.6933,0.8353 1.7962,1.5187 2.451,1.5187 0.6547,0 2.4685,1.334 4.0305,2.9645 1.5621,1.6304 3.2605,2.7046 3.7743,2.3871 0.5566,-0.344 0.4948,-1.0166 -0.1531,-1.6645 -1.5186,-1.5186 -1.3544,-2.6871 0.3777,-2.6871 1.6078,0 3.5352,2.9664 3.5352,5.4409 0,0.8648 -1.125,2.5505 -2.5,3.7461 -2.4608,2.1396 -2.5,2.4112 -2.5,17.3063 l 0,15.1325 -2.8047,2.6871 c -1.5426,1.4779 -3.2301,2.7021 -3.75,2.7204 -1.4511,0.051 -4.9626,3.2577 -5.7125,5.2167 -0.3685,0.9625 -1.5317,1.75 -2.5848,1.75 -1.0737,0 -2.1445,0.8785 -2.4377,2 -0.4964,1.8982 -1.3641,2 -17.0453,2 -17.3589,0 -19.5218,-0.5278 -19.7569,-4.8214 -0.051,-0.9232 -0.163,-3.0286 -0.25,-4.6786 -0.2568,-4.8721 -3.1267,-3.9017 -3.3013,1.1162 -0.2941,8.4556 -0.1239,8.3838 -19.892,8.3838 -16.7981,0 -17.4648,-0.076 -17.4648,-2 0,-1.3436 -0.6667,-2 -2.0314,-2 -1.1172,0 -2.3329,-0.7875 -2.7014,-1.75 -0.6999,-1.8282 -4.2228,-5.1593 -5.5172,-5.2167 -1.2474,-0.055 -0.8402,12.3738 0.5,15.2595 1.0688,2.3015 1.8659,2.6927 5.5,2.6994 3.8967,0.01 4.25,-0.2053 4.25,-2.5556 0,-2.2895 0.3471,-2.5298 3.25,-2.25 2.4254,0.2339 3.3268,0.8516 3.5527,2.4347 0.242,1.6959 1.2225,2.2474 4.8896,2.75 2.5227,0.3458 6.3718,0.6287 8.5534,0.6287 2.8988,0 4.9861,0.8075 7.7543,3 2.0833,1.65 4.2071,3 4.7196,3 0.5125,0 1.9102,1.0415 3.1061,2.3145 2.075,2.2087 2.1743,3.1827 2.1743,21.3256 0,18.5793 -0.053,19.0607 -2.3145,21.1856 -1.2729,1.1959 -2.7354,2.1885 -3.25,2.2059 -1.377,0.047 -6.4355,4.7001 -6.4355,5.9204 0,0.5764 -0.4179,1.048 -0.9286,1.048 -1.2026,0 -4.0714,2.8688 -4.0714,4.0714 0,0.5107 2.2201,0.9286 4.9336,0.9286 4.602,0 4.9548,-0.1796 5.25,-2.6729 0.174,-1.4701 0.8027,-2.8322 1.3972,-3.0269 0.6753,-0.2212 0.9141,0.7815 0.6365,2.6729 -0.4403,3 -0.4028,3.0269 4.2189,3.0269 2.5647,0 5.9337,-0.657 7.4867,-1.4601 1.5529,-0.8031 3.0717,-1.212 3.375,-0.9087 0.9694,0.9694 4.7021,-0.715 4.7021,-2.1218 0,-2.106 -4.9754,-7.5094 -6.9146,-7.5094 -0.9552,0 -2.7152,-1.0415 -3.9111,-2.3144 -2.0711,-2.2046 -2.1743,-3.1951 -2.1743,-20.8652 0,-17.253 0.145,-18.735 2.0726,-21.1855 1.1399,-1.4492 2.7413,-2.6349 3.5586,-2.6349 0.8174,0 3.1472,-1.319 5.1774,-2.9311 3.1483,-2.4999 4.9052,-3.0338 11.9414,-3.6291 7.1974,-0.609 8.25,-0.9407 8.25,-2.6003 0,-2.3172 2.1552,-3.2683 5.5022,-2.4283 1.6121,0.4046 2.4978,1.3293 2.4978,2.6079 0,1.627 0.6788,1.9809 3.8,1.9809 4.6658,0 6.2,1.4105 6.2,5.7 0,2.1363 0.4858,3.3 1.3776,3.3 3.3883,0 3.7294,2.5517 3.7277,27.8859 0,16.5889 -0.3805,25.7597 -1.1228,27.1468 -1.0824,2.0225 -1.7205,2.0838 -18.5422,1.781 -12.8753,-0.2318 -17.5409,-5e-4 -17.8802,0.8865 -0.2525,0.6601 -2.1693,2.1027 -4.2596,3.2058 l -3.8005,2.0056 14.3436,0.044 c 13.4834,0.042 14.375,0.1642 14.8667,2.0442 0.2932,1.1216 1.364,2 2.4377,2 1.0531,0 2.2163,0.7875 2.5848,1.75 0.778,2.0323 4.2828,5.1683 5.8301,5.2168 0.5846,0.018 2.2721,1.2953 3.75,2.8379 2.6133,2.7277 2.6871,3.1368 2.6871,14.8951 0,11.5749 0.1058,12.1907 2.4827,14.4453 3.4385,3.2615 3.2113,8.1783 -0.417,9.0247 -0.7784,0.1816 -2.7333,1.7927 -4.3441,3.5802 -1.6108,1.7875 -3.3622,3.25 -3.8919,3.25 -0.5297,0 -2.5406,1.2032 -4.4686,2.6737 -2.4955,1.9034 -5.0692,2.8034 -8.9332,3.1239 -6.013,0.4986 -7.418,2.5544 -2.4279,3.5524 2.1481,0.4297 3,1.175 3,2.625 0,1.6548 0.652,2.025 3.5657,2.025 5.2205,0 7.4343,1.5261 7.4343,5.1249 0,1.8879 0.795,3.6983 2.0816,4.7401 2.0093,1.6271 2.0814,2.5597 2.0763,26.882 0,13.858 -0.2949,26.1092 -0.6489,27.2247 -0.6122,1.9288 -1.446,2.0283 -16.9946,2.0283 -17.1187,0 -19.5144,-0.32 -19.5144,-2.607 0,-0.7661 -0.6891,-1.393 -1.5314,-1.393 -0.8422,0 -1.8329,-0.7875 -2.2014,-1.75 -0.8227,-2.149 -4.3173,-5.1716 -6.0313,-5.2167 -0.6952,-0.018 -2.5946,-1.4958 -4.2207,-3.2833 l -2.9566,-3.25 -0.029,-17.6151 c -0.027,-16.4867 0.1072,-17.7887 2.102,-20.3247 1.1723,-1.4903 3.0848,-3.1249 4.25,-3.6325 3.256,-1.4183 6.0355,-3.2976 6.9184,-4.6777 0.4756,-0.7434 2.9579,-1.25 6.125,-1.25 7.1717,0 11.5753,-0.9733 11.5753,-2.5586 0,-0.7197 -1.2375,-1.4509 -2.75,-1.625 -1.9517,-0.2245 -2.8412,-0.9576 -3.0642,-2.5255 -0.2887,-2.0297 -0.9381,-2.2327 -8,-2.5 -7.106,-0.2689 -7.7099,-0.4606 -8.0054,-2.5409 -0.1794,-1.2638 -1.0215,-2.25 -1.9212,-2.25 -0.8809,0 -2.4247,-0.7447 -3.4305,-1.655 -1.7016,-1.54 -1.9558,-1.54 -3.6574,0 -1.0058,0.9103 -2.5496,1.655 -3.4305,1.655 -0.8997,0 -1.7418,0.9862 -1.9212,2.25 -0.272,1.915 -1.0176,2.295 -5.0069,2.5522 -3.9536,0.255 -4.7362,0.6463 -5,2.5 -0.2487,1.7483 -1.0796,2.2613 -4.0627,2.5082 -3.4003,0.2814 -3.75,0.081 -3.75,-2.1474 0,-2.3854 -0.2452,-2.4681 -8.329,-2.8104 -7.2462,-0.3067 -8.7976,-0.7101 -11.9333,-3.1026 -1.9823,-1.5125 -4.0001,-2.75 -4.4839,-2.75 -0.4838,0 -2.173,-1.35 -3.7538,-3 -4.7812,-4.9905 -5.5019,-4.1691 -5.4847,6.25 0.01,5.0875 0.3636,9.7981 0.7893,10.4681 0.8526,1.3418 4.3103,1.5517 11.2448,0.6826 3.3825,-0.4239 4.7931,-1.1255 5.5,-2.7354 1.2882,-2.9342 5.6195,-2.9197 6.9112,0.023 1.1803,2.6888 3.2058,3.2725 11.5394,3.3256 5.861,0.037 6.7867,0.3337 9.4167,3.0137 1.6041,1.6347 3.4766,2.9722 4.1611,2.9722 0.6844,0 2.4094,1.3846 3.8333,3.0767 2.5736,3.0585 2.5889,3.1825 2.5889,20.9233 0,17.7408 -0.015,17.8648 -2.5889,20.9233 -1.4239,1.6922 -3.3364,3.0845 -4.25,3.094 -1.8425,0.019 -6.1611,4.1363 -6.1611,5.8737 0,0.6099 -0.8475,1.109 -1.8834,1.109 -1.0423,0 -2.1169,0.8931 -2.4063,2 -0.4795,1.8334 -1.3641,2 -10.6167,2 l -10.0936,0 0,8 0,8 45.3,0 c 32.147,0 45.6257,0.3258 46.4219,1.1219 1.5537,1.5537 0.4575,3.8781 -1.8289,3.8781 -1.0411,0 -1.893,0.675 -1.893,1.5 0,1.3237 -12.2341,1.5 -104.107,1.5 -90.1235,0 -104.0329,-0.1931 -103.5553,-1.4377 0.3564,-0.9287 -0.1975,-1.5482 -1.5647,-1.75 -3.145,-0.4641 -3.3116,-2.657 -0.2892,-3.8061 1.6276,-0.6188 19.3678,-1.0062 46.0813,-1.0062 l 43.4349,0 0,-8 0,-8 -11.0936,0 c -10.2526,0 -11.1333,-0.1516 -11.6167,-2 -0.2932,-1.1215 -1.364,-2 -2.4377,-2 -1.0531,0 -2.2093,-0.7675 -2.5693,-1.7057 -1.0586,-2.7586 -3.6056,-5.2943 -5.3178,-5.2943 -0.8749,0 -2.7999,-1.2621 -4.2778,-2.8047 l -2.6871,-2.8047 0,-18.5082 0,-18.5082 2.8047,-2.6871 c 1.5426,-1.4779 3.2676,-2.6871 3.8334,-2.6871 0.5657,0 2.3411,-1.3375 3.9452,-2.9722 2.63,-2.68 3.5557,-2.9763 9.4167,-3.0137 8.1353,-0.052 10.6908,-0.7237 11.2769,-2.965 0.9237,-3.5322 7.7231,-2.9591 7.7231,0.6509 0,0.8131 1.2802,1.3 3.4182,1.3 1.88,0 4.13,0.2732 5,0.607 1.357,0.5207 1.5818,-0.4742 1.5818,-7 0,-6.7749 -0.2054,-7.607 -1.8776,-7.607 -1.0326,0 -2.4377,0.675 -3.1224,1.5 -0.6847,0.825 -1.8273,1.5 -2.5391,1.5 -0.7118,0 -1.4812,0.561 -1.7098,1.2467 -0.2763,0.8289 -3.3201,1.3659 -9.0833,1.6026 -8.4427,0.3467 -8.6678,0.4198 -8.6678,2.8137 0,2.2286 -0.3497,2.4288 -3.75,2.1474 -2.9831,-0.2469 -3.814,-0.7599 -4.0627,-2.5082 -0.2638,-1.8537 -1.0464,-2.245 -5,-2.5 -3.9893,-0.2572 -4.7349,-0.6372 -5.0069,-2.5522 -0.1794,-1.2638 -1.0215,-2.25 -1.9212,-2.25 -0.8809,0 -2.4247,-0.7447 -3.4305,-1.655 -1.7016,-1.54 -1.9558,-1.54 -3.6574,0 -1.0058,0.9103 -2.5496,1.655 -3.4305,1.655 -0.8997,0 -1.7418,0.9862 -1.9212,2.25 -0.2955,2.0803 -0.8994,2.272 -8.0054,2.5409 -7.0619,0.2673 -7.7113,0.4703 -8,2.5 -0.2389,1.6796 -1.0933,2.2842 -3.5642,2.5225 -2.3228,0.2239 -3.25,0.8177 -3.25,2.0811 0,1.5411 1.1217,1.7921 8.75,1.958 5.7657,0.1254 9.0911,0.6305 9.75,1.4809 0.55,0.7098 1.675,1.6178 2.5,2.0178 10.2476,4.9684 10,4.3181 10,26.2584 l 0,19.2995 -2.5455,2.5455 c -1.4,1.4 -3.0875,2.5604 -3.75,2.5787 -1.6644,0.046 -5.1618,3.1012 -5.9717,5.2167 -0.3685,0.9625 -1.2509,1.75 -1.9609,1.75 -0.7099,0 -1.8529,0.9 -2.5398,2 -1.1664,1.8677 -2.3321,2 -17.6181,2 -13.2078,0 -16.6055,-0.2849 -17.5934,-1.4751 -0.8977,-1.0817 -1.2159,-8.3459 -1.1928,-27.2338 0.03,-24.8247 0.1064,-25.8194 2.1018,-27.4351 1.2761,-1.0334 2.0704,-2.8484 2.0704,-4.7311 0,-3.5852 2.2125,-5.1249 7.3647,-5.1249 2.8643,0 3.5539,-0.4066 3.8157,-2.25 0.2554,-1.798 0.872,-2.1922 3.0696,-1.9621 2.1424,0.2242 2.75,-0.1351 2.75,-1.6262 0,-1.6019 -0.9119,-1.9896 -5.592,-2.3778 -3.0757,-0.255 -5.8882,-0.8732 -6.25,-1.3738 -0.7912,-1.0943 -3.8812,-3.0758 -6.7467,-4.3264 -1.1487,-0.5013 -3.2862,-2.3348 -4.75,-4.0743 -1.4637,-1.7396 -2.6613,-2.8875 -2.6613,-2.5509 0,0.3365 -0.9,0.1302 -2,-0.4585 -2.8497,-1.5251 -2.596,-6.0914 0.5,-9 2.4004,-2.255 2.5,-2.8323 2.5,-14.4872 0,-11.9941 0.033,-12.1706 2.8047,-14.8257 1.5426,-1.4779 3.2347,-2.6871 3.7602,-2.6871 1.2854,0 6.4351,-4.8339 6.4351,-6.0404 0,-0.5278 0.8475,-0.9596 1.8834,-0.9596 1.0423,0 2.1169,-0.8931 2.4063,-2 0.4973,-1.9014 1.3641,-2 17.5815,-2 19.3085,0 19.1922,-0.05 19.4856,8.3839 0.1019,2.9285 0.576,4.1161 1.6432,4.1161 1.0833,0 1.5108,-1.1398 1.5389,-4.1033 0.021,-2.2568 0.7836,-5.24 1.6939,-6.6292 l 1.655,-2.5259 15.7203,0.5283 c 14.6164,0.4912 15.6737,0.4068 15.0561,-1.2026 -0.3653,-0.952 -0.6642,-2.369 -0.6642,-3.1491 0,-1.1033 -1.7359,-1.4182 -7.8197,-1.4182 -7.0946,0 -8.0212,-0.2318 -9.9934,-2.5 -1.1955,-1.375 -2.6266,-2.5 -3.1803,-2.5 -0.5536,0 -1.0066,-0.4716 -1.0066,-1.0479 0,-1.2891 -5.0957,-5.877 -6.5757,-5.9205 -0.5916,-0.017 -2.0541,-1.0731 -3.25,-2.346 -2.075,-2.2088 -2.1743,-3.1827 -2.1743,-21.3257 0,-18.5793 0.053,-19.0607 2.3145,-21.1856 1.2729,-1.1958 2.7354,-2.1926 3.25,-2.2149 0.5145,-0.022 2.4935,-1.3724 4.3977,-3 2.7254,-2.3295 4.428,-2.9617 8,-2.9704 2.4958,-0.01 6.2253,-0.2899 8.2878,-0.6308 3.502,-0.5789 3.75,-0.8516 3.75,-4.124 l 0,-3.5042 -12.6478,0.4872 c -11.3652,0.4379 -12.8356,0.2995 -14.5,-1.365 -1.0187,-1.0187 -1.8936,-2.6397 -1.9441,-3.6022 -0.051,-0.9625 -0.163,-3.1 -0.25,-4.75 -0.1017,-1.9297 -0.6932,-3 -1.6581,-3 -1.0833,0 -1.5108,1.1399 -1.5389,4.1033 -0.021,2.2569 -0.8603,5.3571 -1.8644,6.8894 -1.8151,2.7703 -1.8716,2.7825 -9.9611,2.1527 -4.4746,-0.3484 -12.0731,-0.6361 -16.8856,-0.6394 -8.0813,-0.01 -8.75,-0.1588 -8.75,-2.006 0,-1.3333 -0.6667,-2 -2,-2 -1.1,0 -2,-0.4318 -2,-0.9595 0,-1.266 -5.1793,-6.0405 -6.5527,-6.0405 -0.5902,0 -2.2823,-1.2621 -3.7602,-2.8047 -2.6647,-2.7813 -2.6871,-2.9263 -2.6871,-17.3636 0,-14.3057 -0.045,-14.6037 -2.5726,-17.1315 -2.9212,-2.9212 -3.0303,-7.308 -0.2254,-9.0639 2.1602,-1.3523 3.4651,-0.145 1.8919,1.7505 -2.3607,2.8445 0.6664,2.4729 3.4402,-0.4223 1.562,-1.6305 3.3758,-2.9645 4.0305,-2.9645 0.6548,0 1.7577,-0.6834 2.451,-1.5187 1.0275,-1.2382 0.9578,-1.8532 -0.3776,-3.3288 -1.1413,-1.2611 -1.638,-3.6635 -1.638,-7.9222 0,-3.3617 -0.4683,-6.4017 -1.0407,-6.7554 -0.5723,-0.3538 -0.7549,-1.5436 -0.4056,-2.6441 0.4136,-1.303 -0.072,-2.7561 -1.3928,-4.1659 -1.2607,-1.3459 -2.1476,-3.8672 -2.3444,-6.6649 -0.2592,-3.6855 -0.6785,-4.5184 -2.3165,-4.6019 -4.6637,-0.2377 -4.5988,-0.1221 -4.2938,-7.64813 0.2753,-6.7924 0.4358,-7.245 2.5438,-7.1706 2.1047,0.074 2.25,-0.3293 2.25,-6.25 l 0,-6.3294 -4.8916,0 c -4.4175,0 -4.954,0.2488 -5.5357,2.5665 -0.8165,3.253 -3.7134,2.8991 -4.6792,-0.5717 -0.4523,-1.6256 -0.7289,-0.1473 -0.7938,4.2434 -0.095,6.4172 0.01,6.7269 2.1503,6.5 2.1545,-0.2281 2.25,0.08 2.25,7.2618 l 0,7.50003 -2.652,-0.2725 c -2.4809,-0.25493 -2.6828,0.035 -3.1302,4.5 -0.2631,2.6249 -1.2413,7.6975 -2.1738,11.2725 -0.9325,3.575 -1.9312,8.525 -2.2194,11 -0.2907,2.497 -1.4165,5.4687 -2.5292,6.6762 l -2.0053,2.1761 4.1112,2.0974 c 2.2611,1.1535 4.6665,2.9867 5.3454,4.0738 1.7291,2.7686 3.0925,2.4639 2.3427,-0.5235 -0.3451,-1.375 -0.4307,-2.5 -0.1902,-2.5 4.2738,0 4.9741,6.3613 1.1008,10 -2.4547,2.3061 -2.5,2.6247 -2.5,17.6018 l 0,15.2531 -2.6349,2.0725 c -1.4491,1.14 -3.1366,2.0876 -3.75,2.1059 -1.5903,0.047 -5.0923,3.1532 -5.8823,5.2167 -0.3685,0.9625 -1.3067,1.75 -2.0848,1.75 -0.7781,0 -1.6501,0.9 -1.9377,2 -0.4971,1.9009 -1.3641,2 -17.4942,2 -19.3458,0 -19.4875,-0.056 -19.6297,-7.7996 -0.074,-4.0049 -0.3823,-4.7004 -2.0864,-4.7004 -1.6549,0 -2.0122,0.6903 -2.0708,4 -0.087,4.8975 -1.1062,8.1759 -2.7173,8.7383 -0.6665,0.2327 -8.581,0.2191 -17.5876,-0.03 -14.9673,-0.4143 -16.4179,-0.6148 -16.8666,-2.3307 -0.2703,-1.0325 -1.1279,-1.8773 -1.906,-1.8773 -0.7781,0 -1.7085,-0.7875 -2.0675,-1.75 -0.696,-1.8659 -3.5791,-4.2902 -6.5025,-5.4678 -1.6136,-0.6499 -1.782,-0.017 -1.782,6.691 0,4.0748 0.45,7.6869 1,8.0268 0.55,0.3399 1,1.8065 1,3.259 0,2.0541 0.2667,2.3743 1.2,1.441 0.66,-0.66 2.8787,-1.2 4.9305,-1.2 3.1072,0 3.7838,-0.3759 4.05,-2.25 0.2618,-1.8439 0.9512,-2.25 3.8195,-2.25 2.8049,0 3.5601,0.4213 3.8027,2.1213 0.242,1.6959 1.2225,2.2474 4.8896,2.75 2.5227,0.3458 6.2285,0.6287 8.2351,0.6287 2.5958,0 4.6469,0.8537 7.1104,2.9594 1.9042,1.6276 3.9122,2.9918 4.4622,3.0316 0.55,0.04 2.2375,1.1614 3.75,2.4926 l 2.75,2.4205 0,18.4131 c 0,17.1138 -0.1462,18.599 -2.0726,21.0479 -1.1399,1.4492 -2.9048,2.6349 -3.9221,2.6349 -1.0172,0 -3.3902,1.8 -5.2733,4 -1.8831,2.2 -3.8907,4 -4.4613,4 -0.5706,0 -1.2728,0.9 -1.5604,2 -0.4637,1.7731 -0.031,2 3.8169,2 3.9586,0 4.3678,-0.2349 4.6564,-2.6729 0.174,-1.4701 0.8027,-2.8322 1.3972,-3.0269 0.6753,-0.2212 0.9141,0.7815 0.6365,2.6729 -0.4403,3 -0.4028,3.0269 4.2189,3.0269 2.5647,0 5.9337,-0.657 7.4867,-1.4601 1.5529,-0.8031 3.0717,-1.212 3.375,-0.9087 1.0635,1.0635 4.606,-0.753 5.2158,-2.6745 0.4327,-1.3631 -0.222,-2.6783 -2.1988,-4.4172 -1.5482,-1.362 -3.299,-2.4905 -3.8906,-2.5079 -0.5916,-0.017 -2.0541,-1.0731 -3.25,-2.346 -2.075,-2.2088 -2.1743,-3.1827 -2.1743,-21.3257 0,-18.5793 0.053,-19.0607 2.3145,-21.1856 1.2729,-1.1958 2.7354,-2.1926 3.25,-2.2149 0.5145,-0.022 2.4935,-1.3724 4.3977,-3 2.629,-2.2471 4.4606,-2.9594 7.6105,-2.9594 2.2815,0 6.236,-0.2862 8.7877,-0.6359 4.0706,-0.5579 4.6396,-0.9336 4.6396,-3.0634 0,-2.1362 0.3899,-2.3898 3.25,-2.114 2.491,0.2401 3.3246,0.8388 3.5696,2.5633 0.2738,1.9284 0.9242,2.25 4.55,2.25 5.0917,0 6.6304,1.3228 6.6304,5.7 0,2.2066 0.4774,3.3 1.441,3.3 0.7925,0 1.7314,0.4699 2.0864,1.0443 0.355,0.5744 0.6439,12.7457 0.6421,27.0475 0,19.5519 -0.3185,26.3829 -1.2738,27.5339 -1.0734,1.2933 -4.0343,1.4799 -19.0841,1.2026 -9.7975,-0.1806 -17.8132,0.016 -17.8126,0.4364 6e-4,0.4206 -1.3474,1.5847 -2.9954,2.5869 -1.648,1.0023 -2.698,2.1206 -2.3333,2.4853 0.3647,0.3647 6.6327,0.6631 13.929,0.6631 12.3877,0 13.308,0.1324 13.9007,2 0.3491,1.1 1.5045,2 2.5674,2 1.0997,0 1.9326,0.6852 1.9326,1.5897 0,1.7058 3.7766,5.3222 5.6151,5.377 0.6134,0.018 2.3009,0.966 3.75,2.1059 2.5971,2.0428 2.6351,2.2545 2.6522,14.75 0.017,12.1893 0.1128,12.7681 2.5,15.0324 2.6637,2.5266 3.2954,6.9323 1.2827,8.945 -2.0547,2.0547 -2.9865,1.3255 -2.3,-1.8 0.4146,-1.8875 0.2586,-3 -0.4205,-3 -0.5937,0 -1.0795,1.7303 -1.0795,3.845 0,4.1259 -1.3152,5.8078 -6.6553,8.5111 -1.7353,0.8785 -3.8844,2.3265 -4.7757,3.2178 -0.9633,0.9632 -4.0433,1.8401 -7.5947,2.1622 -5.0514,0.458 -5.9743,0.8403 -5.9743,2.4744 0,1.3916 0.6299,1.8816 2.25,1.7504 3.9918,-0.3234 4.75,0 4.75,2.0391 0,1.6491 0.6667,2 3.8,2 4.6658,0 6.2,1.4105 6.2,5.7 0,2.1363 0.4858,3.3 1.3776,3.3 3.4016,0 3.7326,2.5329 3.7258,28.5081 0,18.1315 -0.3505,26.0847 -1.1775,27.0812 -0.9236,1.1129 -4.7537,1.4107 -18.142,1.4107 -16.1301,0 -16.9971,-0.099 -17.4941,-2 -0.2877,-1.1 -1.2983,-2 -2.2459,-2 -0.9476,0 -2.1865,-1.0176 -2.7532,-2.2613 -0.5667,-1.2438 -2.3264,-2.9098 -3.9105,-3.7023 -1.5841,-0.7925 -4.1177,-2.5591 -5.6302,-3.9257 l -2.75,-2.4849 0,-18.6669 c 0,-18.4284 0.031,-18.7006 2.4523,-21.3129 1.3487,-1.4553 3.0484,-2.646 3.7771,-2.646 0.7287,0 2.8029,-1.35 4.6095,-3 2.7862,-2.5448 4.0907,-3 8.5978,-3 2.9223,0 6.7196,-0.2812 8.4383,-0.625 4.0651,-0.813 4.16,-3.375 0.125,-3.375 -2.5333,0 -3,-0.3889 -3,-2.5 0,-2.4578 -0.1346,-2.5 -7.9809,-2.5 -7.6791,0 -8.0047,-0.095 -8.6085,-2.5 -0.3451,-1.375 -1.3165,-2.5 -2.1588,-2.5 -0.8422,0 -2.1171,-0.7875 -2.833,-1.75 -1.0921,-1.4683 -1.5928,-1.5441 -3.1102,-0.471 -0.9947,0.7035 -2.5961,1.5435 -3.5586,1.8667 -0.9625,0.3232 -1.75,1.3869 -1.75,2.364 0,2.1711 -1.94,2.9903 -7.0818,2.9903 -3.5127,0 -3.9182,0.2587 -3.9182,2.5 0,2.1905 -0.4333,2.5 -3.5,2.5 -3.0667,0 -3.5,-0.3095 -3.5,-2.5 0,-2.4453 -0.1646,-2.5 -7.5306,-2.5 -7.073,0 -7.9627,-0.2578 -14.6428,-4.2422 -3.9117,-2.3333 -7.6062,-5.0333 -8.21,-6 -0.6037,-0.9668 -1.8527,-1.7578 -2.7756,-1.7578 -1.4652,0 -1.7205,1.6162 -2.0142,12.75 -0.3547,13.4429 0.1305,18.75 1.7142,18.75 2.3555,0 5.6944,-3.5358 5.9084,-6.2567 0.3486,-4.4308 1.2845,-5.2433 6.0401,-5.2433 3.772,0 4.4152,-0.3085 4.691,-2.25 0.2502,-1.7623 0.9697,-2.25 3.3195,-2.25 2.4964,0 3.0512,0.442 3.3051,2.6328 0.3016,2.6028 0.4033,2.6345 8.9013,2.7792 8.0924,0.1379 8.7742,0.3206 11.6347,3.1172 1.6712,1.634 3.7747,2.9708 4.6744,2.9708 0.8997,0 2.6143,1.0415 3.8102,2.3145 2.0749,2.2086 2.1743,3.183 2.1743,21.3129 l 0,18.9984 -2.8047,2.6871 c -1.5426,1.4779 -3.2301,2.7021 -3.75,2.7204 -1.4511,0.051 -4.9625,3.2577 -5.7125,5.2167 -0.3685,0.9625 -1.2509,1.75 -1.9609,1.75 -0.7099,0 -1.8529,0.9 -2.5398,2 -1.1137,1.7832 -2.332,2 -11.2406,2 l -9.9915,0 0,8 0,8 45.0657,0 c 28.5829,0 45.7596,0.3713 46.9628,1.0153 2.5022,1.3391 1.4372,3.9847 -1.6041,3.9847 -1.6884,0 -2.1975,0.4276 -1.786,1.5 0.5094,1.3274 -11.4027,1.5 -103.5314,1.5 -91.8729,0 -104.107,-0.1763 -104.107,-1.5 z m 115,-14.5 0,-8 -5.0936,0 c -4.2526,0 -5.18,-0.3302 -5.6166,-2 -0.2877,-1.1 -1.0931,-2 -1.7898,-2 -0.6967,0 -1.5021,0.9 -1.7897,2 -0.4156,1.5891 -1.364,2 -4.6167,2 -4.6123,0 -4.5112,-0.2887 -3.4511,9.8533 l 0.6424,6.1467 10.8576,0 10.8575,0 0,-8 z m 243,0 0,-8 -4.378,0 c -3.415,0 -4.7184,-0.4949 -5.9255,-2.25 l -1.5474,-2.25 -1.6312,2.25 c -1.1469,1.5819 -2.6538,2.25 -5.0746,2.25 l -3.4433,0 0,8 0,8 11,0 11,0 0,-8 z m -126.0153,-98.25 c -0.012,-1.7567 -0.2167,-1.9316 -0.934,-0.7977 -0.5053,0.7987 -0.6969,1.8112 -0.4257,2.25 0.8674,1.4034 1.3754,0.8607 1.3597,-1.4523 z m 229.3646,-0.282 c -0.7932,-2.0671 -1.3493,-1.8235 -1.3493,0.591 0,1.1325 0.4303,1.7931 0.9563,1.468 0.526,-0.3251 0.7029,-1.2516 0.393,-2.059 z m -298.7625,-40.5856 c 0.048,-2.5241 0.3711,-5.3302 0.7186,-6.2358 0.5202,-1.3557 -0.059,-1.6466 -3.2775,-1.6466 l -3.9093,0 1.4067,2.7114 c 0.7737,1.4913 1.1485,3.7403 0.8329,4.9978 -0.7953,3.1687 0.2983,5.5037 2.3888,5.1005 1.3507,-0.2605 1.7729,-1.3912 1.8398,-4.9273 z m 242.984,0.5307 c 0.039,-2.1522 0.4068,-4.9256 0.8174,-6.1631 0.6955,-2.0959 0.4575,-2.25 -3.4758,-2.25 -4.1643,0 -4.1974,0.028 -2.4056,2.0075 1.1318,1.2506 1.7653,3.3757 1.6803,5.6364 -0.1554,4.1327 0.4826,5.6345 2.1545,5.072 0.6371,-0.2144 1.1903,-2.1506 1.2292,-4.3028 z m -290.973,0.5869 c 1.1187,-0.825 2.3277,-2.2875 2.6867,-3.25 0.359,-0.9625 1.2894,-1.75 2.0675,-1.75 0.7781,0 1.6501,-0.9 1.9378,-2 0.4561,-1.7441 0.031,-2 -3.3244,-2 -2.116,0 -4.1255,0.45 -4.4654,1 -0.3399,0.55 -1.4915,1 -2.559,1 -1.6608,0 -1.941,0.717 -1.941,4.9678 0,5.3527 0.7341,5.6192 5.5978,2.0322 z m 242.9508,0.2167 c 1.1268,-0.9442 2.3502,-2.5042 2.7186,-3.4667 0.3685,-0.9625 1.5317,-1.75 2.5848,-1.75 1.0737,0 2.1445,-0.8784 2.4377,-2 0.4428,-1.693 0.031,-2 -2.684,-2 -1.7638,0 -4.4182,0.5625 -5.8985,1.25 -2.3015,1.0689 -2.6927,1.866 -2.6994,5.5 -0.01,4.671 0.4932,5.0206 3.5408,2.4667 z m -266.5486,-7.7167 c 0,-4.3333 -0.4222,-7.5 -1,-7.5 -1.1052,0 -1.4134,13.2533 -0.3333,14.3333 1.2296,1.2296 1.3333,0.6979 1.3333,-6.8333 z m 20,-67.559 c 0,-1.7847 -0.4166,-2.8016 -1,-2.441 -0.55,0.3399 -1,1.7165 -1,3.059 0,1.3426 0.45,2.441 1,2.441 0.55,0 1,-1.3765 1,-3.059 z m -303.8195,-122.1292 c 0.2599,-1.78 2.8165,-3.226 13.7024,-7.75 l 13.3828,-5.5618 -17.1328,-0.2736 c -16.3057,-0.2604 -17.1329,-0.369 -17.1329,-2.25 0,-2.0895 -1.4597,-2.6596 -2.5,-0.9764 -1.0844,1.7547 -5.3348,1.0739 -6.8562,-1.0982 -1.3415,-1.9152 -1.4718,-1.3362 -1.494,6.6373 -0.014,4.9973 -0.4966,9.2117 -1.1278,9.8482 -0.6069,0.612 -5.9226,1.6071 -11.8127,2.2115 l -10.7093,1.0987 20.6805,0.1513 c 20.563,0.1504 20.6822,0.1388 21,-2.037 z m 688.2275,-6.3118 1.6381,-2.5 -6.0366,0 c -3.3202,0 -6.9054,0.5425 -7.9671,1.2056 -1.576,0.9843 -2.2766,0.8924 -3.8152,-0.5 -1.0366,-0.9381 -3.2852,-1.7056 -4.9969,-1.7056 -1.7118,0 -3.3904,-0.45 -3.7303,-1 -0.7918,-1.2812 -10.5,-1.3168 -10.5,-0.038 0,1.7832 20.1018,6.8374 27.635,6.9483 5.4905,0.081 6.3071,-0.1724 7.773,-2.4097 z m -929.408,-96.03983 c 0,-0.29691 -0.8582,-2.20941 -1.9072,-4.25 -4.6391,-9.02476 -20.4614,-22.90444 -35.5928,-31.22286 -3.3,-1.81415 -7.0125,-3.95521 -8.25,-4.75789 -2.2471,-1.45758 -2.25,-1.45167 -2.25,4.65558 0,4.81342 0.3246,6.11501 1.525,6.11501 3.0389,0 12.8679,4.02013 15.2401,6.23327 1.3363,1.2467 3.2949,3.95423 4.3526,6.01673 1.2415,2.42114 2.6238,3.75 3.9008,3.75 2.6748,0 8.1871,8.67224 7.4686,11.75 -0.5112,2.18994 -0.3111,2.25 7.4939,2.25 4.4105,0 8.019,-0.24293 8.019,-0.53984 z m -108.8401,-43.21016 c -4.3457,-8.34639 -4.5851,-8.61162 -5.1906,-5.75 -0.7705,3.64193 -3.7273,9.5 -4.795,9.5 -0.4258,0 -1.3489,-0.5625 -2.0512,-1.25 -1.031,-1.00919 -1.214,-0.67205 -0.95,1.75 0.2826,2.59325 0.6868,2.9581 2.9814,2.69095 1.46,-0.16998 2.949,0.16752 3.309,0.75 0.36,0.58248 3.039,1.05905 5.9534,1.05905 l 5.2989,0 -4.5559,-8.75 z m 705.8401,-125.05 c 0,-2.70046 -2.05,-4.40338 -3.6762,-3.05376 -2.3227,1.92766 -1.6136,4.85376 1.1762,4.85376 1.7408,0 2.5,-0.54667 2.5,-1.8 z m 243,-0.0776 c 0,-2.0866 -2.3149,-4.47425 -3.342,-3.4471 -0.3619,0.3619 -0.658,1.70799 -0.658,2.99133 0,1.66666 0.5714,2.33333 2,2.33333 1.2899,0 2,-0.66667 2,-1.87756 z m -174,-39.68146 c 0,-0.85746 -0.4573,-1.27636 -1.0163,-0.9309 -0.559,0.34546 -0.7574,1.04702 -0.441,1.55902 0.8572,1.38704 1.4573,1.12841 1.4573,-0.62812 z m 229.4573,-0.51008 c -0.8572,-1.38704 -1.4573,-1.12841 -1.4573,0.62812 0,0.85746 0.4573,1.27636 1.0163,0.9309 0.559,-0.34546 0.7574,-1.04702 0.441,-1.55902 z m -351.076,-9.00319 c 3.256,-1.41837 6.0355,-3.29766 6.9184,-4.67771 0.47,-0.73456 2.9441,-1.25454 6,-1.26101 8.6114,-0.0182 12.7003,-1.00367 12.7003,-3.06082 0,-2.39483 1.5645,-3.25429 4.5569,-2.50326 1.5623,0.39211 2.4431,1.32741 2.4431,2.59414 0,1.66748 0.6805,1.98095 4.3,1.98095 4.6068,0 6.7,1.3122 6.7,4.2 0,1.0942 0.7362,1.8 1.8776,1.8 1.0326,0 2.3882,0.61534 3.0124,1.36742 0.955,1.15066 1.6826,1.11103 4.5899,-0.25 1.9002,-0.88958 3.4696,-2.31492 3.4876,-3.16742 0.063,-3.00886 2.3655,-3.95 9.663,-3.95 6.7369,0 7.2522,-0.15359 7.55,-2.25 0.2288,-1.61101 1.1005,-2.33986 3.0695,-2.56642 1.5125,-0.17403 2.75,-0.9051 2.75,-1.6246 0,-0.93894 -2.3751,-1.43284 -8.4147,-1.74984 -7.2024,-0.37803 -8.9216,-0.82828 -11.9333,-3.1254 -1.9352,-1.47602 -3.8614,-2.6837 -4.2805,-2.6837 -0.4191,0 -2.0242,-1.20919 -3.5668,-2.68709 l -2.8047,-2.68709 0,-18.50819 0,-18.50819 2.6871,-2.80472 c 1.4779,-1.5426 3.1654,-2.81969 3.75,-2.83799 1.5473,-0.0484 5.0521,-3.18449 5.8302,-5.21673 0.3685,-0.9625 1.5841,-1.75 2.7013,-1.75 1.3648,0 2.0314,-0.65637 2.0314,-2 0,-1.92554 -0.6666,-2 -17.9064,-2 -17.414,0 -17.892,0.055 -17.3833,2 0.2876,1.1 1.1596,2 1.9377,2 0.7782,0 1.7163,0.7875 2.0848,1.75 0.8086,2.11204 4.3063,5.17067 5.9657,5.21673 0.6592,0.0183 2.3467,1.09737 3.75,2.39794 l 2.5515,2.36467 0,19.09486 0,19.09486 -2.7398,2.54047 c -1.5068,1.39726 -3.1119,2.54047 -3.5667,2.54047 -0.4548,0 -2.4103,1.20768 -4.3455,2.68374 -3.0117,2.29712 -4.7308,2.74737 -11.9333,3.1254 -8.0665,0.42339 -8.4147,0.53992 -8.4147,2.81626 0,2.04716 -0.4826,2.3746 -3.5,2.3746 -3.0666,0 -3.5,-0.30952 -3.5,-2.5 0,-2.27907 -0.38,-2.5 -4.3,-2.5 -5.0079,0 -6.7,-1.31327 -6.7,-5.2 0,-2.54891 -0.3233,-2.8 -3.6053,-2.8 l -3.6053,0 0.4524,11.75 c 0.2744,7.12505 0.9893,12.77995 1.8163,14.36666 l 1.3639,2.61665 1.9203,-2.44133 c 1.0562,-1.34274 2.8738,-2.85666 4.039,-3.36427 z m 243.5246,0.0723 c 0.9684,0 3.0733,-1.3375 4.6774,-2.97222 2.109,-2.14911 3.886,-2.98232 6.4167,-3.00869 1.925,-0.0201 5.8625,-0.32024 8.75,-0.66707 4.1472,-0.49814 5.25,-1.00729 5.25,-2.42392 0,-0.98633 0.9,-2.07897 2,-2.4281 2.9577,-0.93873 6,0.36307 6,2.56739 0,1.57109 0.7108,1.93261 3.8,1.93261 4.1409,0 6.2,1.39488 6.2,4.2 0,1.01531 0.7286,1.8 1.6713,1.8 0.9192,0 2.4942,0.74474 3.5,1.65499 1.7016,1.53998 1.9558,1.53998 3.6574,0 1.0058,-0.91025 2.5808,-1.65499 3.5,-1.65499 0.9427,0 1.6713,-0.78469 1.6713,-1.8 0,-3.19568 2.174,-4.2 9.0916,-4.2 6.3037,0 6.728,-0.14491 7.319,-2.5 0.4584,-1.82627 1.2961,-2.5 3.1085,-2.5 1.438,0 2.4809,-0.57784 2.4809,-1.3746 0,-1.02128 -2.144,-1.48713 -8.3413,-1.8124 -7.3447,-0.3855 -8.6877,-0.75895 -11.2398,-3.12541 -1.5942,-1.47817 -3.6506,-2.68759 -4.5698,-2.68759 -0.9192,0 -2.8363,-1.38453 -4.2602,-3.07673 -2.5729,-3.05766 -2.5889,-3.1869 -2.5889,-20.86514 0,-16.41208 0.1584,-17.98982 2.0476,-20.39152 1.9659,-2.49927 5.495,-4.89929 9.2024,-6.25836 0.9625,-0.35283 1.75,-1.48903 1.75,-2.52488 0,-1.17783 0.7055,-1.88337 1.8834,-1.88337 1.0423,0 2.1169,-0.89308 2.4063,-2 0.509,-1.94623 0.031,-2 -17.7897,-2 -17.8204,0 -18.2987,0.0538 -17.7897,2 0.2894,1.10692 1.364,2 2.4063,2 1.1779,0 1.8834,0.70554 1.8834,1.88337 0,1.03585 0.7875,2.17205 1.75,2.52488 3.7074,1.35907 7.2365,3.75909 9.2024,6.25836 1.8892,2.4017 2.0476,3.97944 2.0476,20.39152 0,17.67824 -0.016,17.80748 -2.5889,20.86514 -1.4239,1.6922 -3.463,3.07673 -4.5314,3.07673 -1.0683,0 -2.2015,0.675 -2.5181,1.5 -0.3166,0.825 -1.1649,1.5 -1.8853,1.5 -0.7203,0 -1.4742,0.49369 -1.6753,1.09708 -0.2082,0.62456 -4.0983,1.32995 -9.0319,1.63775 -7.8542,0.49001 -8.6943,0.73855 -8.9676,2.65291 -0.2412,1.68992 -1.0013,2.11226 -3.8015,2.11226 -2.8683,0 -3.5577,-0.4061 -3.8196,-2.25 -0.276,-1.94359 -0.9181,-2.25 -4.7148,-2.25 -4.6568,0 -6.4656,-1.66017 -6.4656,-5.93426 0,-2.53407 -4.453,-2.93367 -5.393,-0.48395 -1.2641,3.29414 -0.5824,16.71901 1.0877,21.42133 l 1.6947,4.77155 1.8779,-2.38734 c 1.0328,-1.31303 2.6702,-2.38733 3.6386,-2.38733 z m -302.9384,-3.05 c 0.056,-2.65391 2.2648,-3.95 6.7325,-3.95 3.6555,0 4.3,-0.30448 4.3,-2.03138 0,-2.43666 2.0981,-3.41182 5.5023,-2.55741 1.5346,0.38517 2.4977,1.33832 2.4977,2.47192 0,1.43687 1.0264,1.9857 4.6396,2.48095 2.5518,0.34975 6.3909,0.63592 8.5314,0.63592 2.5369,0 4.0922,0.52222 4.4674,1.5 0.3166,0.825 1.1474,1.5 1.8462,1.5 0.6988,0 1.8307,0.675 2.5154,1.5 1.9834,2.3898 3.0657,1.73827 1.7843,-1.07409 -0.9009,-1.97722 -0.8959,-3.01753 0.021,-4.48643 0.6569,-1.05179 1.1943,-3.26845 1.1943,-4.92591 0,-2.90497 -0.1621,-3.01357 -4.5,-3.01357 -4.1333,0 -4.5,0.2037 -4.5,2.5 0,2.19048 -0.4333,2.5 -3.5,2.5 -3.0174,0 -3.5,-0.32744 -3.5,-2.3746 0,-2.27634 -0.3482,-2.39287 -8.4147,-2.81626 -7.2024,-0.37803 -8.9216,-0.82828 -11.9333,-3.1254 -1.9352,-1.47606 -3.7918,-2.68374 -4.1257,-2.68374 -0.334,0 -1.939,-0.98463 -3.5668,-2.18806 l -2.9595,-2.18806 0,-19.3599 0,-19.35991 2.75,-2.42043 c 1.5125,-1.33124 3.2,-2.44963 3.75,-2.48531 1.5198,-0.0986 5.0126,-3.27707 5.7673,-5.24833 0.3685,-0.9625 1.3066,-1.75 2.0847,-1.75 0.7781,0 1.6501,-0.9 1.9378,-2 0.5086,-1.94501 0.031,-2 -17.3834,-2 -17.2397,0 -17.9064,0.0745 -17.9064,2 0,1.34363 0.6667,2 2.0314,2 1.1173,0 2.3329,0.7875 2.7014,1.75 0.8299,2.16769 4.3229,5.17207 6.0652,5.21673 0.7139,0.0183 2.3872,1.27077 3.7184,2.78327 2.3709,2.69372 2.4211,3.12752 2.452,21.19528 l 0.032,18.44528 -2.6871,2.80472 c -1.4779,1.5426 -3.0568,2.80472 -3.5086,2.80472 -0.4519,0 -2.6852,1.35 -4.963,3 -3.7643,2.72684 -4.8561,3 -11.9913,3 -6.1494,0 -7.85,0.31056 -7.85,1.43358 0,0.82053 1.176,1.56889 2.75,1.75 1.969,0.22656 2.8408,0.95541 3.0696,2.56642 0.2977,2.09641 0.8131,2.25 7.55,2.25 7.4682,0 9.6304,0.94299 9.6304,4.2 0,1.0942 0.7362,1.8 1.8776,1.8 1.0326,0 2.3882,0.61534 3.0124,1.36742 0.955,1.15066 1.6826,1.11103 4.5899,-0.25 1.9002,-0.88958 3.4696,-2.31492 3.4876,-3.16742 z m 239.0325,3.55 c 0.6847,-0.825 2.0898,-1.5 3.1224,-1.5 1.1414,0 1.8776,-0.7058 1.8776,-1.8 0,-2.80512 2.0591,-4.2 6.2,-4.2 3.0892,0 3.8,-0.36152 3.8,-1.93261 0,-2.20432 3.0423,-3.50612 6,-2.56739 1.1,0.34913 2,1.44177 2,2.4281 0,1.41663 1.1028,1.92578 5.25,2.42392 2.8875,0.34683 6.8894,0.63451 8.893,0.63929 2.0037,0.005 3.8599,0.57119 4.1249,1.25869 0.6365,1.65109 8.7321,6.1689 8.7321,4.873 0,-0.55273 -0.45,-1.28308 -1,-1.623 -0.55,-0.33992 -1,-1.91492 -1,-3.5 0,-1.58508 0.45,-3.16008 1,-3.5 0.55,-0.33992 1.0003,-2.05398 1.0006,-3.80902 l 6e-4,-3.19098 -4.9432,0.34264 c -4.1719,0.28918 -4.9911,0.67924 -5.2506,2.5 -0.248,1.74033 -0.984,2.15736 -3.8074,2.15736 -2.8081,0 -3.56,-0.42056 -3.8035,-2.12741 -0.2765,-1.93815 -1.0622,-2.16723 -8.8329,-2.57508 -4.6911,-0.24622 -8.8296,-0.89671 -9.1965,-1.44554 -0.3669,-0.54882 -1.3421,-1.32018 -2.1671,-1.71413 -3.4155,-1.63098 -6.215,-3.49122 -8.5375,-5.67306 -2.446,-2.29787 -2.4625,-2.43866 -2.4625,-20.96478 0,-18.52612 0.016,-18.66691 2.4625,-20.96478 2.6441,-2.48398 5.9711,-4.61776 8.7875,-5.63587 0.9625,-0.34794 1.75,-1.48013 1.75,-2.51598 0,-1.17783 0.7055,-1.88337 1.8834,-1.88337 1.0423,0 2.1169,-0.89308 2.4063,-2 0.509,-1.94623 0.031,-2 -17.7897,-2 -17.8204,0 -18.2987,0.0538 -17.7897,2 0.2876,1.1 1.1596,2 1.9377,2 0.7781,0 1.7163,0.7875 2.0848,1.75 0.8579,2.2409 4.345,5.17368 6.2027,5.21673 0.7896,0.0183 2.4771,1.01171 3.75,2.20758 2.2678,2.13047 2.3145,2.57271 2.3145,21.92742 l 0,19.75311 -2.6349,2.07258 c -1.4491,1.13992 -3.028,2.07258 -3.5086,2.07258 -0.4806,0 -2.7374,1.35 -5.0152,3 -3.7643,2.72684 -4.8561,3 -11.9913,3 -6.3111,0 -7.85,0.29406 -7.85,1.5 0,0.825 0.8632,1.5 1.9182,1.5 3.2411,0 5.0818,1.12542 5.0818,3.10699 0,1.67176 0.7948,1.89301 6.8,1.89301 7.0283,0 9.2,0.99145 9.2,4.2 0,1.0942 0.7362,1.8 1.8776,1.8 1.0326,0 2.4377,0.675 3.1224,1.5 0.6847,0.825 1.5847,1.5 2,1.5 0.4153,0 1.3153,-0.675 2,-1.5 z m -298.946,500.06502 c -1.2938,-1.5589 -1.8109,-49.6048 -0.5757,-53.4964 0.3611,-1.1377 1.3012,-2.0686 2.0891,-2.0686 0.9541,0 1.4326,-1.1023 1.4326,-3.3 0,-4.3904 1.5394,-5.7 6.7,-5.7 3.6555,0 4.3,-0.3045 4.3,-2.0314 0,-2.4366 2.0981,-3.4118 5.5023,-2.5574 1.5377,0.386 2.4977,1.338 2.4977,2.477 0,2.0509 4.0002,3.0813 12.0378,3.1008 3.572,0.01 5.2746,0.6409 8,2.9704 1.9042,1.6276 3.9463,2.9776 4.5379,3 0.5916,0.022 2.0541,1.0821 3.25,2.3551 2.075,2.2087 2.1743,3.1827 2.1743,21.3256 0,18.5793 -0.053,19.0607 -2.3144,21.1856 -1.273,1.1959 -2.7355,2.1885 -3.25,2.2059 -1.3988,0.047 -5.9666,4.3039 -6.717,6.2594 -0.3607,0.94 -1.3449,1.709 -2.1872,1.709 -0.8423,0 -1.5314,0.6269 -1.5314,1.393 0,2.2782 -2.3916,2.607 -18.9593,2.607 -12.5028,0 -16.0441,-0.2992 -16.9867,-1.435 z m 242.9294,-0.596 c -0.6995,-1.307 -1.0876,-10.9611 -1.0887,-27.0831 0,-25.3342 0.3394,-27.8859 3.7277,-27.8859 0.8918,0 1.3776,-1.1637 1.3776,-3.3 0,-4.2743 1.5333,-5.7 6.1304,-5.7 3.1073,0 3.7839,-0.3759 4.05,-2.25 0.2619,-1.8439 0.9513,-2.25 3.8196,-2.25 2.8049,0 3.5601,0.4213 3.8027,2.1213 0.242,1.6959 1.2225,2.2474 4.8896,2.75 2.5227,0.3458 6.2285,0.6287 8.235,0.6287 2.5959,0 4.647,0.8537 7.1105,2.9594 1.9042,1.6276 3.9405,2.9776 4.5251,3 0.5846,0.022 2.2721,1.3027 3.75,2.8453 l 2.6871,2.8048 0,18.5209 c 0,18.0668 -0.057,18.5743 -2.3145,20.6953 -1.2729,1.1959 -3.0378,2.1743 -3.922,2.1743 -0.8842,0 -3.1484,1.8 -5.0315,4 -1.8831,2.2 -3.9432,4 -4.5779,4 -0.6348,0 -1.1541,0.6269 -1.1541,1.393 0,2.2796 -2.3923,2.607 -19.0466,2.607 -14.9404,0 -15.9475,-0.1205 -16.97,-2.031 z m -40.2708,-364.58975 c -0.3919,-0.39191 -0.7126,-1.76257 -0.7126,-3.04591 0,-2.25254 -0.2806,-2.33333 -8.1061,-2.33333 -7.4983,0 -8.39,-0.22491 -11.8939,-3 -2.0833,-1.65 -4.4321,-3 -5.2196,-3 -0.7874,0 -2.4102,-1.0415 -3.6061,-2.31445 -2.079,-2.21304 -2.1743,-3.16935 -2.1743,-21.82569 0,-19.10189 0.049,-19.55685 2.3145,-21.68555 1.2729,-1.19587 2.9604,-2.18928 3.75,-2.20758 1.8577,-0.043 5.3448,-2.97583 6.2028,-5.21673 0.3685,-0.9625 1.3066,-1.75 2.0847,-1.75 0.7781,0 1.6501,-0.9 1.9378,-2 0.4979,-1.90421 1.364,-2 18.0814,-2 16.4855,0 17.6233,0.12119 18.6198,1.98324 0.6735,1.25839 1.0292,10.98325 0.9731,26.60756 -0.088,24.52685 -0.098,24.63372 -2.4614,26.99741 -1.3052,1.3052 -2.5148,3.8443 -2.6879,5.64244 -0.3069,3.18684 -0.4457,3.27692 -5.5032,3.56947 -4.8049,0.27794 -5.2114,0.49969 -5.5,3 -0.2358,2.04326 -0.9287,2.77185 -2.849,2.99579 -1.3956,0.16275 -2.8581,-0.0247 -3.25,-0.41667 z m 243.5374,-0.023 c -0.6875,-0.28759 -1.25,-1.55465 -1.25,-2.8157 0,-2.18174 -0.3754,-2.29926 -7.75,-2.42584 -6.8706,-0.11793 -8.2356,-0.4724 -12.0292,-3.12385 -2.3536,-1.64496 -4.6319,-2.99083 -5.0629,-2.99083 -0.4311,0 -1.9929,-1.26212 -3.4708,-2.80472 l -2.6871,-2.80472 0,-18.50819 0,-18.50819 2.8047,-2.68709 c 1.5426,-1.4779 3.2301,-2.70206 3.75,-2.72036 1.4511,-0.0511 4.9626,-3.25775 5.7125,-5.21673 0.3685,-0.9625 1.5317,-1.75 2.5848,-1.75 1.0737,0 2.1445,-0.87845 2.4377,-2 0.4971,-1.90089 1.3641,-2 17.4942,-2 13.4178,0 17.2173,0.29647 18.1463,1.41594 0.83,1.00004 1.1802,8.75487 1.1924,26.40164 0.018,25.36539 -0.4878,29.18242 -3.8631,29.18242 -0.7744,0 -1.2595,1.35751 -1.2595,3.52475 0,2.86346 -0.4813,3.70772 -2.5651,4.5 -1.4108,0.53639 -3.5541,0.97525 -4.7629,0.97525 -1.32,0 -2.592,0.89861 -3.1849,2.25 -0.967,2.2042 -3.7534,3.14515 -6.2371,2.10622 z m -432.25,-2.79587 c 0,-2.31152 -0.3808,-2.56037 -3.9182,-2.56037 -5.7351,0 -7.0818,-0.79803 -7.0818,-4.1967 0,-1.81613 -0.8149,-3.64262 -2.0836,-4.66995 -2.0163,-1.63272 -2.0832,-2.534 -2.069,-27.89419 0.01,-14.41382 0.2973,-26.6642 0.6427,-27.22306 0.3866,-0.62563 7.3662,-1.0161 18.1626,-1.0161 16.6936,0 17.5596,0.0959 18.0576,2 0.2876,1.1 1.1596,2 1.9377,2 0.7782,0 1.7163,0.7875 2.0848,1.75 0.8849,2.31133 4.3668,5.17501 6.3429,5.21673 0.8666,0.0183 2.5541,1.07477 3.75,2.34772 2.0791,2.21304 2.1743,3.16935 2.1743,21.82569 0,19.10189 -0.049,19.55685 -2.3144,21.68555 -1.273,1.19587 -2.8957,2.17431 -3.6061,2.17431 -0.7104,0 -2.9679,1.32761 -5.0166,2.95024 -3.2937,2.60865 -4.6079,2.97843 -11.3498,3.19366 -6.8382,0.21831 -7.6551,0.45554 -7.9189,2.29976 -0.2272,1.58842 -1.1475,2.12696 -4.0442,2.36671 -3.4377,0.28452 -3.75,0.0971 -3.75,-2.25 z m 243.6667,1.77296 c -0.3667,-0.36666 -0.6667,-1.46701 -0.6667,-2.44521 0,-1.41232 -0.9781,-1.8413 -4.75,-2.08333 -4.7042,-0.30185 -4.753,-0.34094 -5.0604,-4.05479 -0.1885,-2.27827 -0.8273,-3.75 -1.6275,-3.75 -3.2869,0 -3.6405,-2.67273 -3.6846,-27.84991 -0.024,-13.77763 0.2488,-25.97271 0.6067,-27.10017 0.6233,-1.96384 1.3866,-2.04992 18.1768,-2.04992 16.6852,0 17.5513,0.096 18.0493,2 0.2876,1.1 0.9428,2 1.4559,2 0.5131,0 2.5547,1.575 4.5368,3.5 1.9821,1.925 4.1256,3.5 4.7633,3.5 0.6377,0 2.3687,1.26212 3.8466,2.80472 l 2.6871,2.80472 0,18.52096 c 0,18.38755 -0.018,18.53764 -2.4625,20.83438 -2.3038,2.16432 -4.9972,3.95937 -8.5375,5.69004 -0.825,0.4033 -2.0946,1.32095 -2.8214,2.03923 -0.8638,0.85368 -4.0672,1.30595 -9.25,1.30595 -7.7905,0 -7.9286,0.0435 -7.9286,2.5 0,2.16667 -0.4444,2.5 -3.3333,2.5 -1.8334,0 -3.6334,-0.3 -4,-0.66667 z"
             style="fill:#000000;fill-opacity:1" />
        </g>
      </g>
    </g>
  </g>
</svg>
