<?xml version="1.0" encoding="UTF-8" standalone="no"?>
<!-- Created with Inkscape (http://www.inkscape.org/) -->

<svg
   xmlns:dc="http://purl.org/dc/elements/1.1/"
   xmlns:cc="http://creativecommons.org/ns#"
   xmlns:rdf="http://www.w3.org/1999/02/22-rdf-syntax-ns#"
   xmlns:svg="http://www.w3.org/2000/svg"
   xmlns="http://www.w3.org/2000/svg"
   xmlns:sodipodi="http://sodipodi.sourceforge.net/DTD/sodipodi-0.dtd"
   xmlns:inkscape="http://www.inkscape.org/namespaces/inkscape"
   width="73.076607"
   height="14.40947"
   id="svg4464"
   version="1.1"
   inkscape:version="0.48.5 r10040"
   sodipodi:docname="Hull-A.svg">
  <defs
     id="defs4466" />
  <sodipodi:namedview
     id="base"
     pagecolor="#ffffff"
     bordercolor="#666666"
     borderopacity="1.0"
     inkscape:pageopacity="0.0"
     inkscape:pageshadow="2"
     inkscape:zoom="15.839192"
     inkscape:cx="40.610678"
     inkscape:cy="11.638452"
     inkscape:document-units="px"
     inkscape:current-layer="g4483"
     showgrid="false"
     fit-margin-top="0"
     fit-margin-left="0"
     fit-margin-right="0"
     fit-margin-bottom="0"
     inkscape:window-width="1920"
     inkscape:window-height="1018"
     inkscape:window-x="-8"
     inkscape:window-y="-8"
     inkscape:window-maximized="1"
     showguides="true"
     inkscape:guide-bbox="true" />
  <metadata
     id="metadata4469">
    <rdf:RDF>
      <cc:Work
         rdf:about="">
        <dc:format>image/svg+xml</dc:format>
        <dc:type
           rdf:resource="http://purl.org/dc/dcmitype/StillImage" />
        <dc:title />
      </cc:Work>
    </rdf:RDF>
  </metadata>
  <g
     inkscape:label="Layer 1"
     inkscape:groupmode="layer"
     id="layer1"
     transform="translate(581.73629,-715.9305)">
    <g
       id="g4483">
      <path
         style="fill:#000000"
         d="m -529.02473,730.30458 c -1.05097,-0.0839 -1.43838,-0.2628 -3.05543,-1.41076 -0.38401,-0.2726 -1.01946,-0.69852 -1.41211,-0.94648 -0.60276,-0.38062 -0.76527,-0.46436 -1.04379,-0.53787 l -0.32989,-0.0871 -2.15783,0.3771 c -1.40116,0.24488 -2.15784,0.39353 -2.15784,0.42393 0,0.12119 -0.3037,0.12545 -0.83373,0.0117 -0.2715,-0.0583 -0.42134,-0.1123 -0.49109,-0.17708 -0.16171,-0.15021 -3.56594,-2.38869 -3.63265,-2.38869 -0.0461,0 -0.0607,0.0483 -0.0607,0.20073 0,0.17397 0.0106,0.20073 0.0803,0.20073 0.0442,0 0.0803,-0.0192 0.0803,-0.0428 0,-0.0235 0.0497,-0.0371 0.11041,-0.0301 0.11018,0.0127 0.11039,0.0133 0.11039,0.33387 0,0.32052 -2.3e-4,0.3212 -0.11039,0.33387 -0.0607,0.007 -0.11041,-0.007 -0.11041,-0.0301 0,-0.0235 -0.0445,-0.0428 -0.0989,-0.0428 -0.15164,0 -0.19282,0.12778 -0.19773,0.61362 -0.004,0.40227 -0.0117,0.44315 -0.0948,0.51043 -0.0795,0.0643 -0.0903,0.11011 -0.0903,0.38202 0,0.24944 -0.0193,0.34737 -0.10036,0.50873 -0.0647,0.12875 -0.10037,0.26723 -0.10037,0.38937 0,0.16172 -0.0194,0.2084 -0.13238,0.31787 -0.0929,0.0901 -0.17073,0.12831 -0.26095,0.12831 -0.0847,0 -0.12856,0.0196 -0.12856,0.0573 0,0.0472 -0.10492,0.0571 -0.59075,0.056 -0.39652,-8.4e-4 -0.59562,0.0132 -0.60553,0.043 -0.0192,0.0577 -0.9716,0.0618 -0.9716,0.004 0,-0.0221 -0.0613,-0.0401 -0.13635,-0.0401 -0.10582,0 -0.16425,-0.0317 -0.26095,-0.1419 -0.0686,-0.078 -0.12459,-0.17741 -0.12459,-0.2208 0,-0.0752 -0.0306,-0.0788 -0.64234,-0.0788 l -0.64232,0 0,0.0925 c 0,0.128 -0.2364,0.3491 -0.37327,0.3491 -0.0596,0 -0.10848,0.018 -0.10848,0.0401 0,0.0246 -0.19404,0.0401 -0.50183,0.0401 -0.30778,0 -0.50182,-0.0155 -0.50182,-0.0401 0,-0.0221 -0.035,-0.0401 -0.0779,-0.0401 -0.0428,0 -0.0897,-0.019 -0.10393,-0.0421 -0.0168,-0.0272 -0.0425,-0.0285 -0.0727,-0.003 -0.0256,0.0212 -0.25089,0.0389 -0.50058,0.0393 -0.35714,5.8e-4 -0.45867,-0.0115 -0.47601,-0.0567 -0.0123,-0.0322 -0.0751,-0.0574 -0.14289,-0.0574 -0.0875,0 -0.16522,-0.0444 -0.28145,-0.16058 -0.0883,-0.0883 -0.16654,-0.16059 -0.17384,-0.16059 -0.008,0 -0.0187,0.0949 -0.0254,0.21077 l -0.0121,0.21076 -0.55201,0.0111 -0.55201,0.0112 0,-0.22194 c 0,-0.21002 -0.005,-0.22193 -0.10047,-0.22193 -0.0663,0 -0.14985,0.0547 -0.24554,0.16059 -0.10296,0.11396 -0.17744,0.16058 -0.25655,0.16058 -0.0613,0 -0.12138,0.0259 -0.1335,0.0574 -0.0173,0.0452 -0.11887,0.0572 -0.47601,0.0567 -0.24969,-4.1e-4 -0.47495,-0.018 -0.50058,-0.0393 -0.0301,-0.0249 -0.0558,-0.0236 -0.0727,0.003 -0.0142,0.0232 -0.061,0.0421 -0.10393,0.0421 -0.0428,0 -0.0779,0.018 -0.0779,0.0401 0,0.0246 -0.19404,0.0401 -0.50183,0.0401 -0.30779,0 -0.50183,-0.0155 -0.50183,-0.0401 0,-0.0221 -0.0506,-0.0401 -0.11228,-0.0401 -0.12702,0 -0.40961,-0.25735 -0.40961,-0.37304 0,-0.0617 -0.0622,-0.0686 -0.62226,-0.0686 -0.59409,0 -0.62226,0.003 -0.62226,0.0797 0,0.1161 -0.27756,0.35945 -0.41149,0.36076 -0.0607,6e-4 -0.1104,0.0191 -0.1104,0.0412 0,0.0572 -0.93468,0.053 -0.99223,-0.005 -0.0289,-0.0289 -0.24431,-0.0441 -0.60692,-0.0428 -0.45265,0.002 -0.56646,-0.009 -0.58425,-0.0556 -0.0121,-0.0317 -0.0734,-0.0576 -0.13593,-0.0576 -0.0761,0 -0.15641,-0.0439 -0.24214,-0.13239 -0.12446,-0.12841 -0.1283,-0.14293 -0.1283,-0.48375 0,-0.24013 -0.0198,-0.38978 -0.0627,-0.47272 -0.0396,-0.0765 -0.0533,-0.16477 -0.0369,-0.23889 l 0.0258,-0.11751 -0.20392,0 -0.20391,0 0,0.44161 0,0.4416 -0.83303,2e-4 c -1.14134,2.5e-4 -1.73631,0.0367 -1.73631,0.10632 0,0.0406 -0.0754,0.054 -0.30109,0.054 -0.25998,0 -0.3011,-0.01 -0.30113,-0.0702 -3e-5,-0.0466 -0.10822,-0.12865 -0.32117,-0.24361 l -0.32113,-0.17336 -0.002,0.25364 c -8.4e-4,0.16917 -0.0224,0.28038 -0.0648,0.33393 -0.044,0.0556 -0.0693,0.0649 -0.0824,0.0301 -0.0226,-0.0603 -0.41358,-0.0698 -0.41358,-0.01 0,0.0221 -0.0263,0.0401 -0.0583,0.0401 -0.0341,0 -0.0686,-0.0543 -0.0829,-0.13067 l -0.0245,-0.13065 -0.31855,0.0144 c -0.29429,0.0133 -0.31854,0.009 -0.31854,-0.064 0,-0.0575 -0.0931,-0.12827 -0.34914,-0.2652 -0.37681,-0.20151 -0.44384,-0.21919 -0.47942,-0.12648 -0.018,0.0469 -0.0973,0.0602 -0.35738,0.0602 l -0.33428,0 -0.0126,0.11041 c -0.0113,0.0984 -0.0322,0.11258 -0.19191,0.13046 -0.16481,0.0185 -0.18137,0.0308 -0.20612,0.15259 -0.0332,0.16381 -0.0639,0.19708 -0.12519,0.1358 -0.0642,-0.0641 -0.42066,-0.062 -0.44548,0.003 -0.0129,0.0336 -0.0412,0.0203 -0.0859,-0.0401 -0.0366,-0.0497 -0.10177,-0.0904 -0.14467,-0.0904 -0.0509,0 -0.078,-0.0276 -0.078,-0.0788 0,-0.14341 -0.12411,-0.16201 -1.0813,-0.16201 l -0.92599,0 0,0.12044 0,0.12043 -0.26095,0 c -0.24552,0 -0.26095,-0.005 -0.26095,-0.0924 0,-0.0509 -0.0217,-0.11402 -0.0481,-0.14051 -0.0581,-0.0581 -0.45879,-0.0647 -0.49379,-0.008 -0.0137,0.0221 -0.15818,0.0401 -0.32117,0.0401 -0.16299,0 -0.30752,-0.018 -0.32117,-0.0401 -0.0155,-0.0251 -0.46393,-0.0419 -1.1967,-0.0449 -0.64455,-0.003 -1.28932,-0.0161 -1.43285,-0.0301 l -0.26094,-0.0255 -0.011,-0.56897 -0.0111,-0.56895 -0.82192,0.007 -0.82192,0.007 10e-6,-0.12044 0,-0.12044 0.66241,0.0142 0.66242,0.0142 3e-5,-0.0945 3e-5,-0.0945 -0.58582,0.0138 c -0.36085,0.009 -0.65725,-0.004 -0.77187,-0.033 -0.13084,-0.033 -0.19032,-0.0341 -0.20041,-0.004 -0.0292,0.0873 -0.0851,0.039 -0.11023,-0.0952 -0.0203,-0.10815 -0.0491,-0.14275 -0.13229,-0.15911 -0.25695,-0.0505 -1.04228,-0.1521 -1.17023,-0.15139 -0.0772,4.2e-4 -0.45666,-0.0448 -0.84306,-0.10038 -0.38641,-0.0556 -0.7432,-0.0996 -0.79288,-0.0977 l -0.0903,0.003 0,-2.03843 0,-2.03842 0.79288,-0.11001 c 0.43609,-0.0605 0.86514,-0.10993 0.95346,-0.10985 0.0883,8e-5 0.39545,-0.0351 0.68248,-0.0783 0.28705,-0.0432 0.53343,-0.0788 0.54754,-0.0793 0.0141,-5.1e-4 0.0375,-0.0642 0.052,-0.14143 0.0256,-0.13626 0.0814,-0.18533 0.11071,-0.0974 0.0309,0.0926 0.22675,-0.0162 0.37191,-0.20658 l 0.15092,-0.1979 0.52762,-0.004 c 0.29019,-0.003 0.76903,-5.7e-4 1.06408,0.003 0.43261,0.006 0.53301,-0.003 0.51864,-0.0462 -0.0129,-0.0388 -0.12555,-0.0569 -0.40647,-0.0653 l -0.38864,-0.0115 -0.30062,-0.60023 c -0.16534,-0.33011 -0.30062,-0.60947 -0.30062,-0.62079 0,-0.0113 0.1626,-0.0206 0.36133,-0.0206 0.19871,0 0.3613,-0.0152 0.3613,-0.0338 0,-0.0186 -0.20808,-0.46122 -0.4624,-0.98358 l -0.46239,-0.94971 -0.39273,0 -0.39276,0 -0.0883,-0.18174 c -0.0486,-0.0999 -0.0883,-0.19931 -0.0883,-0.2208 0,-0.024 0.31278,-0.039 0.81334,-0.039 l 0.81334,0 -4e-4,-0.13046 -4.1e-4,-0.13049 0.94343,-0.01 0.94343,-0.0101 0.0907,0.14056 0.0907,0.14055 1.01813,0 1.01812,0 0.0206,-0.18228 c 0.0113,-0.10026 0.0498,-0.21459 0.0855,-0.25407 0.0357,-0.0395 0.065,-0.10909 0.065,-0.15466 0,-0.0917 0.0719,-0.1319 0.23412,-0.13107 0.19244,8.4e-4 0.28777,0.0445 0.28777,0.13145 0,0.0454 0.0293,0.11479 0.065,0.15428 0.0357,0.0395 0.0742,0.15381 0.0855,0.25407 l 0.0206,0.18228 0.35461,0 c 0.22575,0 0.95543,0.0887 2.0081,0.24397 l 1.65349,0.24397 0.0999,-0.0999 c 0.06,-0.06 0.10171,-0.14973 0.10437,-0.22479 0.004,-0.11123 0.0153,-0.12258 0.10483,-0.10393 0.0551,0.0115 0.58813,0.11224 1.1843,0.22382 1.37524,0.25743 1.26459,0.22669 1.26459,0.35136 0,0.0571 0.0463,0.17068 0.10285,0.25231 0.0984,0.1421 0.11938,0.15137 0.49179,0.21812 0.21391,0.0384 0.75025,0.13793 1.19184,0.22131 0.54802,0.10346 0.81842,0.13885 0.85173,0.11147 0.0279,-0.0229 0.11867,-0.0283 0.21214,-0.0125 0.25671,0.0433 0.28102,2.7e-4 0.28102,-0.49781 0,-0.4637 0.0433,-0.58966 0.21112,-0.61349 0.0823,-0.0117 0.0902,-0.0349 0.0926,-0.27374 0.002,-0.14351 0.024,-0.3118 0.0502,-0.37396 0.0262,-0.0621 0.0476,-0.26172 0.0476,-0.44349 0,-0.32965 4e-4,-0.33085 0.15224,-0.47913 0.0997,-0.0974 0.18974,-0.14866 0.26094,-0.14866 0.0598,0 0.10871,-0.0176 0.10871,-0.0393 0,-0.0239 0.22166,-0.038 0.56613,-0.0362 0.36159,0.002 0.58207,-0.0128 0.61023,-0.041 0.0568,-0.0569 0.99152,-0.0606 0.99152,-0.004 0,0.0221 0.0598,0.0401 0.13299,0.0401 0.0954,0 0.16565,0.0341 0.24839,0.12044 l 0.11538,0.12043 0.66747,0 0.66746,0 0.11538,-0.12043 c 0.0747,-0.0779 0.15524,-0.12044 0.22831,-0.12044 0.0621,0 0.11292,-0.018 0.11292,-0.0401 0,-0.0246 0.19404,-0.0401 0.50183,-0.0401 0.30779,0 0.50183,0.0155 0.50183,0.0401 0,0.0221 0.0325,0.0401 0.0723,0.0401 0.0397,0 0.094,0.0217 0.12044,0.0482 0.0362,0.0362 0.0482,0.0364 0.0482,8.3e-4 0,-0.0335 0.14451,-0.0469 0.50182,-0.0465 0.29209,3.6e-4 0.50182,0.0167 0.50182,0.039 0,0.0211 0.052,0.0384 0.11553,0.0384 0.0635,0 0.138,0.0272 0.16549,0.0602 0.0744,0.0896 1.8125,0.0896 1.88686,0 0.0275,-0.0331 0.10089,-0.0602 0.16312,-0.0602 0.0622,0 0.12433,-0.018 0.13798,-0.0401 0.015,-0.0244 0.25576,-0.0374 0.61225,-0.0331 0.41998,0.005 0.5919,-0.007 0.60314,-0.0401 0.0202,-0.0604 1.0127,-0.0673 1.0127,-0.007 0,0.0221 0.0511,0.0401 0.11343,0.0401 0.0692,0 0.15029,0.0392 0.20774,0.10038 0.0937,0.0997 0.0989,0.10036 0.8029,0.10036 0.70396,0 0.70925,-6.7e-4 0.80292,-0.10036 0.0639,-0.0681 0.1373,-0.10038 0.22779,-0.10038 0.0735,0 0.13352,-0.018 0.13352,-0.0401 0,-0.0573 0.95234,-0.0535 0.97148,0.004 0.01,0.0293 0.21132,0.0434 0.60554,0.0422 0.34741,-8.3e-4 0.59086,0.0138 0.59086,0.0362 0,0.0209 0.0506,0.0381 0.11229,0.0381 0.12522,0 0.4096,0.25671 0.4096,0.36973 0,0.0358 0.0452,0.1552 0.10037,0.2651 0.0886,0.17646 0.10036,0.25079 0.10036,0.63597 0,0.39267 0.008,0.44115 0.0803,0.48629 0.0712,0.0444 0.0803,0.0937 0.0803,0.4312 l 0,0.38104 0.37709,0 c 0.29817,0 0.38194,-0.0126 0.4002,-0.0602 0.0332,-0.0867 0.67628,-0.0867 0.74826,0 0.0275,0.0331 0.10149,0.0602 0.16446,0.0602 0.0866,0 0.12966,0.0293 0.17677,0.12044 0.037,0.0716 0.0942,0.12044 0.14083,0.12044 0.0432,0 0.25101,0.15605 0.46179,0.34678 0.21078,0.19074 0.39069,0.33934 0.3998,0.33024 0.009,-0.009 -0.0194,-0.0967 -0.0632,-0.19487 -0.0751,-0.16767 -0.0771,-0.21071 -0.0343,-0.72166 0.025,-0.29884 0.0539,-0.55181 0.0643,-0.56215 0.0104,-0.0104 0.492,-0.0576 1.07046,-0.10505 l 1.05174,-0.0862 1.70593,0.82323 1.70592,0.82322 1.22473,-0.0651 c 0.6736,-0.0358 1.47311,-0.0768 1.77672,-0.0913 0.44361,-0.0211 0.552,-0.0376 0.552,-0.0844 0,-0.0483 0.0789,-0.0559 0.46322,-0.0448 0.31013,0.009 0.47325,0.0298 0.49362,0.0628 0.0406,0.0659 0.47563,0.0915 1.77991,0.10506 0.8107,0.008 1.08612,0.0239 1.13413,0.0638 0.0446,0.037 0.0634,0.12253 0.0634,0.28858 0,0.13706 0.0175,0.23597 0.0419,0.23597 0.0735,0 1.17735,0.11972 1.31305,0.1424 0.0752,0.0126 0.13047,0.0458 0.13047,0.0783 0,0.0587 0.0627,0.075 0.53623,0.13874 0.2591,0.0348 0.28684,0.0308 0.47114,-0.0709 0.19152,-0.1056 0.19586,-0.11219 0.19642,-0.29867 l 5.7e-4,-0.19069 0.23499,0 c 0.12924,0 0.34602,0.0115 0.48174,0.0258 0.22518,0.0235 0.24676,0.0341 0.24676,0.12044 0,0.0884 0.0152,0.0947 0.23085,0.0952 0.69136,0.002 2.00058,0.18111 3.63927,0.49947 0.39526,0.0767 0.73161,0.13161 0.74745,0.12182 0.037,-0.0229 0.79049,0.12027 0.92256,0.17527 0.13428,0.0559 0.95443,0.18886 1.99725,0.32371 0.78055,0.10094 0.85311,0.1046 0.85311,0.0431 0,-0.0578 0.0266,-0.0628 0.19069,-0.0358 0.10489,0.0173 0.21327,0.0324 0.24087,0.0337 0.0277,0.002 0.0503,0.0284 0.0503,0.0601 0,0.0773 0.29737,0.12006 0.5856,0.084 0.16837,-0.021 0.24039,-0.0137 0.29081,0.0297 0.0852,0.0733 0.88581,0.15978 1.14688,0.124 0.11904,-0.0163 0.20265,-0.0105 0.21879,0.0155 0.0143,0.0231 0.35643,0.10821 0.76011,0.18924 0.83421,0.16746 0.93367,0.20236 1.27928,0.44899 0.31451,0.22443 0.98993,0.92891 1.19963,1.25125 0.0877,0.13476 0.18741,0.24579 0.22164,0.24675 0.0706,0.002 0.2671,0.3737 0.20803,0.39339 -0.0434,0.0144 0.11581,0.4841 0.17803,0.5251 0.0542,0.0357 0.0943,0.20222 0.0546,0.22672 -0.0442,0.0273 -0.008,0.36371 0.0655,0.60164 0.0423,0.13778 0.0477,0.20401 0.0174,0.21411 -0.0299,0.01 -0.0439,0.28182 -0.0439,0.85003 0,0.70556 0.009,0.83901 0.0602,0.85853 0.0828,0.0317 0.076,0.14949 -0.01,0.17196 -0.0703,0.0184 -0.17062,0.18488 -0.17062,0.2832 0,0.0288 -0.0352,0.0523 -0.0784,0.0523 -0.0596,0 -0.0843,0.0362 -0.10268,0.15055 -0.0556,0.34581 -0.0239,0.31891 -0.41056,0.34903 -0.19344,0.0151 -0.38333,0.0365 -0.42197,0.0476 -0.0884,0.0255 -0.0934,0.19807 -0.007,0.23133 0.11012,0.0422 1.6961,0.0277 1.72299,-0.0158 0.0136,-0.0221 0.14363,-0.0401 0.28884,-0.0401 l 0.26404,0 -0.0309,0.19069 c -0.0169,0.10488 -0.0331,0.24489 -0.0359,0.31113 l -0.005,0.12043 -0.34085,-0.0146 c -0.18747,-0.008 -0.37128,-0.0306 -0.40847,-0.0502 -0.0899,-0.0473 -0.6888,-0.0458 -0.7373,0.002 -0.021,0.0206 -0.11041,0.0445 -0.19873,0.0533 -0.11047,0.0109 -0.22949,0.068 -0.38139,0.18315 -0.21135,0.16025 -0.36131,0.21322 -0.36131,0.12762 0,-0.0221 -0.0452,-0.0401 -0.10036,-0.0401 -0.0686,0 -0.10058,0.0223 -0.10105,0.0703 -4.4e-4,0.0469 -0.0773,0.10356 -0.23084,0.17017 -0.25824,0.11212 -0.34548,0.11674 -1.43609,0.0761 -0.6239,-0.0233 -0.70154,-0.0344 -0.8832,-0.12675 -0.10955,-0.0556 -0.28437,-0.19145 -0.3885,-0.30171 -0.18689,-0.19792 -0.18899,-0.20314 -0.16467,-0.4085 l 0.0246,-0.20801 -0.13642,0.0231 c -0.47184,0.0798 -2.59325,0.32093 -3.73889,0.42492 -1.21363,0.11016 -1.47845,0.14788 -2.54927,0.36303 -1.18012,0.23714 -1.19947,0.2396 -1.56115,0.19962 -0.32482,-0.0359 -0.39191,-0.0316 -0.59359,0.0377 -0.41658,0.14333 -1.61713,0.44093 -2.02722,0.50252 -0.31564,0.0474 -0.75624,0.0594 -2.00082,0.0549 -0.87783,-0.003 -1.76769,-0.0196 -1.97745,-0.0362 z m -11.03115,-3.43048 c -0.0137,-0.0988 -0.0155,-0.17921 -0.0108,-0.46168 0.003,-0.13888 -0.0381,-0.35485 -0.10908,-0.58211 l -0.11283,-0.36132 -1.2029,-0.009 c -1.08803,-0.008 -1.19524,-0.003 -1.12261,0.0525 0.0699,0.0536 2.0719,1.29225 2.2883,1.41578 0.12768,0.073 0.28317,0.0417 0.2699,-0.054 z m -3.56555,-3.77371 c 0.0743,-0.11344 0.22724,-0.13358 0.30478,-0.0401 0.0532,0.0641 0.56204,0.0898 0.56204,0.0285 0,-0.0175 -0.0813,-0.11158 -0.18065,-0.20909 l -0.18065,-0.1773 0,-0.40914 0,-0.40914 -0.36135,-0.43406 -0.36134,-0.43404 0.16897,-0.17217 c 0.14703,-0.1498 0.19135,-0.17217 0.34127,-0.17217 l 0.1723,0 0,-0.52411 0,-0.5241 -0.22194,-0.0981 c -0.27339,-0.1209 -0.40605,-0.12627 -0.44047,-0.0179 -0.0263,0.0828 -0.2208,0.11822 -0.2208,0.0401 0,-0.0221 -0.0333,-0.0401 -0.0741,-0.0401 -0.0698,0 -0.0757,0.0708 -0.10272,1.21025 l -0.0287,1.21023 -0.19839,0.22809 -0.19839,0.22809 0,0.36823 0,0.36824 0.15568,0 c 0.0894,0 0.17693,-0.0256 0.20564,-0.0602 0.0275,-0.033 0.10196,-0.0602 0.16549,-0.0602 0.0965,0 0.11553,0.0165 0.11553,0.10037 0,0.0898 0.0163,0.10036 0.15597,0.10036 0.12206,0 0.17026,-0.0218 0.22172,-0.10036 z"
         id="path4485"
         inkscape:connector-curvature="0" />
    </g>
  </g>
</svg>
