<?xml version="1.0" encoding="UTF-8" standalone="no"?>
<!-- Created with Inkscape (http://www.inkscape.org/) -->

<svg
   xmlns:dc="http://purl.org/dc/elements/1.1/"
   xmlns:cc="http://creativecommons.org/ns#"
   xmlns:rdf="http://www.w3.org/1999/02/22-rdf-syntax-ns#"
   xmlns:svg="http://www.w3.org/2000/svg"
   xmlns="http://www.w3.org/2000/svg"
   xmlns:sodipodi="http://sodipodi.sourceforge.net/DTD/sodipodi-0.dtd"
   xmlns:inkscape="http://www.inkscape.org/namespaces/inkscape"
   width="20.602255mm"
   height="4.2224464mm"
   viewBox="0 0 73.000116 14.961424"
   id="svg2"
   version="1.1"
   inkscape:version="0.91 r13725"
   sodipodi:docname="Hurricane.svg">
  <defs
     id="defs4" />
  <sodipodi:namedview
     id="base"
     pagecolor="#ffffff"
     bordercolor="#666666"
     borderopacity="1.0"
     inkscape:pageopacity="0.0"
     inkscape:pageshadow="2"
     inkscape:zoom="15.839192"
     inkscape:cx="35.378113"
     inkscape:cy="10.436714"
     inkscape:document-units="px"
     inkscape:current-layer="g4147"
     showgrid="false"
     fit-margin-top="0"
     fit-margin-left="0"
     fit-margin-right="0"
     fit-margin-bottom="0"
     inkscape:window-width="1920"
     inkscape:window-height="1017"
     inkscape:window-x="1912"
     inkscape:window-y="-8"
     inkscape:window-maximized="1" />
  <metadata
     id="metadata7">
    <rdf:RDF>
      <cc:Work
         rdf:about="">
        <dc:format>image/svg+xml</dc:format>
        <dc:type
           rdf:resource="http://purl.org/dc/dcmitype/StillImage" />
        <dc:title></dc:title>
      </cc:Work>
    </rdf:RDF>
  </metadata>
  <g
     inkscape:label="Layer 1"
     inkscape:groupmode="layer"
     id="layer1"
     transform="translate(-326.46802,-464.10435)">
    <g
       id="g4147"
       transform="translate(178.99566,821.91754)">
      <path
         style="fill:#000000;fill-opacity:1"
         d="m 184.69168,-343.35789 -2.39971,-0.50259 -4.23006,-9.1e-4 -4.23006,-9e-4 -0.25153,-0.15771 -0.25153,-0.15771 -2.36636,9.2e-4 c -1.30149,5.1e-4 -2.77898,0.0117 -3.28331,0.0248 -0.50433,0.0132 -1.28621,0.005 -1.73752,-0.0182 l -0.82055,-0.0421 -2.03867,-0.44818 c -1.12127,-0.2465 -2.05577,-0.45875 -2.07666,-0.47166 -0.0209,-0.0129 -0.038,-0.0923 -0.038,-0.17651 0,-0.12738 -0.0147,-0.15603 -0.0878,-0.17093 -0.0483,-0.01 -0.82274,-0.0264 -1.72101,-0.0369 -1.58565,-0.0184 -1.63573,-0.0213 -1.71938,-0.0999 -0.0782,-0.0735 -0.13371,-0.0809 -0.60066,-0.0809 l -0.51449,0 0,-0.32689 c 0,-0.22636 -0.0162,-0.34029 -0.0525,-0.37048 -0.0361,-0.03 -0.23392,-0.037 -0.63407,-0.0224 -1.23574,0.0451 -1.44653,0.0412 -1.52409,-0.0281 -0.049,-0.0437 -0.34418,-0.1082 -0.92441,-0.20183 -0.59933,-0.0967 -0.87429,-0.15734 -0.92603,-0.20416 -0.0676,-0.0612 -0.0744,-0.14272 -0.084,-1.0074 l -0.0104,-0.94079 -0.68281,-0.0195 c -0.3756,-0.0107 -0.7111,-0.0371 -0.7456,-0.0585 -0.034,-0.0215 -0.2741,-0.26569 -0.5325,-0.54273 -0.6008,-0.64411 -0.6169,-0.71213 -0.3216,-1.36326 0.1304,-0.28767 0.1459,-0.42113 0.057,-0.49472 -0.033,-0.0273 -0.5781,-0.12463 -1.2117,-0.21635 -0.6336,-0.0917 -1.1774,-0.18785 -1.2084,-0.21361 -0.086,-0.0711 -0.071,-0.10854 0.1065,-0.26449 0.7001,-0.61644 2.1325,-1.90393 2.1869,-1.96557 0.2066,-0.23456 1.1323,-1.0214 1.2985,-1.10374 0.1073,-0.0532 0.318,-0.11422 0.46821,-0.13567 0.42037,-0.06 4.81545,-0.0522 4.92516,0.009 0.0477,0.0265 0.49261,0.53984 0.98869,1.14075 1.2278,1.4872 1.10668,1.3587 1.25645,1.33305 0.0695,-0.0119 0.50389,-0.0595 0.9653,-0.10583 0.7572,-0.076 0.84842,-0.0929 0.93647,-0.17389 0.0861,-0.0792 0.16408,-0.0953 0.66333,-0.13688 0.91707,-0.0764 0.85607,-0.0561 1.46552,-0.48837 0.2992,-0.21221 0.682,-0.50626 0.85067,-0.65343 0.16867,-0.14717 0.35303,-0.28547 0.4097,-0.30735 0.11625,-0.0449 2.07362,0.008 3.88794,0.105 0.60091,0.0321 1.57542,0.0842 2.16559,0.11568 0.59018,0.0315 1.22926,0.0619 1.4202,0.0676 l 0.34715,0.0103 0.0902,-0.25362 c 0.0903,-0.25382 0.11915,-0.46576 0.0641,-0.47106 -0.0161,-0.002 -0.0907,-0.008 -0.16583,-0.0144 -0.24171,-0.0204 -0.87639,-0.10239 -0.92672,-0.11969 -0.0365,-0.0126 -0.0488,-0.18872 -0.0488,-0.70179 l 0,-0.68504 0.0975,-0.0371 c 0.12334,-0.0469 0.12371,-0.11789 0.001,-0.23299 -0.053,-0.0498 -0.0871,-0.10551 -0.0757,-0.12386 0.0113,-0.0183 0.13054,-0.0333 0.2649,-0.0333 0.21194,0 0.25552,-0.0129 0.32911,-0.0976 0.0673,-0.0774 0.12159,-0.0976 0.2626,-0.0976 0.17728,0 0.39254,-0.0832 0.46655,-0.18022 0.0215,-0.0281 0.15818,-0.0631 0.30381,-0.0776 0.22177,-0.0221 0.27249,-0.0159 0.31216,0.0383 0.042,0.0574 0.0998,0.0609 0.50944,0.0313 0.44124,-0.0319 0.49436,-0.0486 0.54205,-0.16991 0.006,-0.0145 0.32884,-0.0481 0.71806,-0.0747 0.69641,-0.0475 0.71138,-0.0469 0.9409,0.039 0.15431,0.0577 0.27795,0.0797 0.36537,0.0651 0.1634,-0.0273 0.86534,-0.0785 2.42844,-0.17726 1.01911,-0.0644 1.21662,-0.0679 1.28765,-0.0231 0.067,0.0422 0.17336,0.0456 0.52848,0.0169 0.37703,-0.0305 0.45448,-0.0271 0.50972,0.0229 0.0575,0.0521 0.14669,0.0529 0.76511,0.007 0.49026,-0.0364 0.73736,-0.0713 0.82476,-0.11651 0.1859,-0.0961 0.31827,-0.0841 0.36279,0.033 0.0465,0.12227 0.21182,0.13408 0.27314,0.0195 0.0542,-0.1013 0.14591,-0.0992 0.23048,0.005 0.057,0.0704 0.0805,0.0762 0.15257,0.0377 0.0469,-0.0251 0.0852,-0.069 0.0852,-0.0976 0,-0.0316 0.0652,-0.0611 0.16584,-0.0751 0.22458,-0.0312 0.26992,0.0334 0.25519,0.36381 l -0.0113,0.25378 -0.18208,0.0118 c -0.15495,0.01 -0.18586,-1.6e-4 -0.20748,-0.0683 -0.0349,-0.10982 -0.16098,-0.10056 -0.23834,0.0175 -0.0777,0.11854 -0.15469,0.12477 -0.21227,0.0172 -0.0623,-0.11633 -0.24166,-0.089 -0.27195,0.0414 -0.0272,0.11696 -0.12419,0.13838 -0.38188,0.0843 -0.27457,-0.0576 -1.51731,0.0402 -1.58079,0.12438 -0.0355,0.0471 -0.1501,0.068 -0.476,0.0866 -0.31335,0.0179 -0.45555,0.0428 -0.52676,0.0923 -0.0794,0.0551 -0.32822,0.085 -1.33715,0.16017 -0.68178,0.0508 -1.25909,0.10444 -1.2829,0.11915 -0.0238,0.0147 -0.03,0.0482 -0.0138,0.0745 0.0317,0.0513 0.18271,0.046 1.74792,-0.061 0.70226,-0.048 0.82301,-0.048 0.89745,1.3e-4 0.0705,0.0456 0.16628,0.0491 0.5317,0.0193 0.37435,-0.0305 0.45587,-0.0271 0.5093,0.0212 0.0557,0.0504 0.15159,0.051 0.76946,0.005 0.48383,-0.0361 0.74588,-0.0726 0.83312,-0.11614 0.18752,-0.0936 0.30524,-0.0821 0.34939,0.0341 0.0465,0.12227 0.21182,0.13408 0.27314,0.0195 0.0536,-0.10014 0.15922,-0.0997 0.2455,10e-4 0.0543,0.0634 0.0831,0.0709 0.14524,0.0376 0.0426,-0.0228 0.0775,-0.0649 0.0775,-0.0935 0,-0.0677 0.31131,-0.11157 0.38108,-0.0537 0.0358,0.0297 0.0479,0.12651 0.04,0.31938 l -0.0113,0.27682 -0.18208,0.0118 c -0.15495,0.01 -0.18586,-1.6e-4 -0.20748,-0.0683 -0.0349,-0.10983 -0.16098,-0.10056 -0.23834,0.0175 -0.0777,0.11853 -0.15469,0.12476 -0.21227,0.0172 -0.0623,-0.11635 -0.24168,-0.089 -0.27189,0.0414 -0.0265,0.11427 -0.1374,0.13918 -0.37856,0.085 -0.24881,-0.0559 -1.52386,0.0437 -1.58419,0.12371 -0.0355,0.0471 -0.15017,0.0679 -0.47598,0.0866 -0.31369,0.0179 -0.45547,0.0428 -0.52676,0.0924 -0.0764,0.0531 -0.2791,0.0819 -0.93455,0.13278 -0.46035,0.0357 -0.85229,0.0802 -0.87098,0.0989 -0.0392,0.0392 0.12414,0.66792 0.22333,0.85973 0.062,0.11998 0.062,0.1305 -5.9e-4,0.17628 -0.0625,0.0457 -0.0626,0.0606 -0.001,0.24568 l 0.0654,0.19701 0.3593,0.0253 c 0.19761,0.0139 1.1231,0.0686 2.05665,0.12145 0.93354,0.0529 1.89253,0.10749 2.13108,0.12139 0.27941,0.0163 0.4774,0.0101 0.55651,-0.0175 0.0675,-0.0235 0.34434,-0.0551 0.61513,-0.0702 0.48479,-0.0269 0.49338,-0.026 0.56082,0.0635 0.10318,0.13679 0.35207,0.18499 1.40411,0.27194 0.52579,0.0435 1.44763,0.12192 2.04853,0.17435 0.60091,0.0524 1.5403,0.13221 2.08755,0.17728 0.54725,0.0451 2.66309,0.24718 4.70187,0.44914 5.62005,0.55671 5.34796,0.53249 5.45158,0.48527 0.071,-0.0324 0.62028,0.0216 2.41225,0.23698 1.43567,0.17254 2.38518,0.27023 2.49046,0.25622 0.0949,-0.0126 0.27611,0.002 0.40971,0.0327 0.13175,0.0304 0.5117,0.10259 0.84435,0.16036 0.33264,0.0578 0.65748,0.12833 0.72186,0.15678 0.0644,0.0285 0.38044,0.10302 0.70235,0.1657 l 0.5853,0.11396 2.84843,1.19325 c 1.56664,0.65629 2.93576,1.2128 3.04248,1.23669 0.10673,0.0239 0.28232,0.0932 0.3902,0.154 0.10788,0.0608 0.36624,0.1848 0.57414,0.27552 0.2079,0.0907 0.38708,0.18863 0.39819,0.21759 0.0111,0.029 -0.0933,0.28286 -0.23214,0.56425 -0.13879,0.28138 -0.24231,0.52783 -0.23005,0.54766 0.0122,0.0198 0.26268,0.0366 0.5565,0.0373 0.41754,9.7e-4 0.55126,0.0143 0.61226,0.0608 0.0611,0.0467 0.17293,0.0576 0.51627,0.0506 0.36344,-0.007 0.45053,0.002 0.51032,0.0562 0.10216,0.0925 1.31952,0.0958 1.58884,0.004 0.23487,-0.0797 0.34091,-0.0623 0.36951,0.0609 0.0303,0.13041 0.20969,0.15769 0.27194,0.0414 0.0549,-0.10259 0.1836,-0.10398 0.21586,-0.002 0.0156,0.0491 0.059,0.078 0.11706,0.078 0.058,0 0.10149,-0.029 0.11706,-0.078 0.0204,-0.0641 0.059,-0.078 0.21724,-0.078 l 0.19247,0 0,0.31216 0,0.31216 -0.17422,0 c -0.13428,0 -0.18378,-0.0179 -0.21598,-0.078 -0.023,-0.0429 -0.0808,-0.078 -0.12855,-0.078 -0.0477,0 -0.10873,0.0351 -0.13553,0.078 -0.0632,0.10118 -0.16668,0.10006 -0.1934,-0.002 -0.0316,-0.12087 -0.25933,-0.0921 -0.27733,0.035 -0.0121,0.0857 -0.0245,0.0897 -0.1951,0.0644 -0.10018,-0.0149 -0.538,-0.0348 -0.97293,-0.0442 -0.68645,-0.0149 -0.79382,-0.009 -0.81383,0.0429 -0.019,0.0494 -0.10707,0.0603 -0.49687,0.0613 -0.35468,9.2e-4 -0.49286,0.0156 -0.54956,0.0585 -0.0584,0.0442 -0.20356,0.0573 -0.63407,0.0573 l -0.55832,0 -0.001,0.12681 c -0.002,0.17306 -0.65696,1.38926 -0.78423,1.4555 -0.0716,0.0373 -1.34975,0.0524 -5.65279,0.0668 l -5.5603,0.0187 -5.05304,0.47412 c -5.88835,0.55249 -8.50443,0.74684 -9.98903,0.74213 l -0.995,-0.003 -2.39971,-0.50259 z"
         id="path4153"
         inkscape:connector-curvature="0" />
    </g>
  </g>
</svg>
