<?xml version="1.0" encoding="UTF-8" standalone="no"?>
<svg
   xmlns:dc="http://purl.org/dc/elements/1.1/"
   xmlns:cc="http://creativecommons.org/ns#"
   xmlns:rdf="http://www.w3.org/1999/02/22-rdf-syntax-ns#"
   xmlns:svg="http://www.w3.org/2000/svg"
   xmlns="http://www.w3.org/2000/svg"
   version="1.1"
   id="svg2"
   viewBox="0 0 22.001327 4.5088595"
   width="66.003981">
  <defs
     id="defs4" />
  <metadata
     id="metadata7">
    <rdf:RDF>
      <cc:Work
         rdf:about="">
        <dc:format>image/svg+xml</dc:format>
        <dc:type
           rdf:resource="http://purl.org/dc/dcmitype/StillImage" />
        <dc:title></dc:title>
      </cc:Work>
    </rdf:RDF>
  </metadata>
  <g
     transform="translate(-326.46816,-474.55804)"
     id="layer1">
    <g
       transform="translate(178.99566,821.91754)"
       id="g4147">
      <path
         id="path4153"
         d="m 158.68912,-343.0043 -0.7232,-0.15146 -1.27481,-2.8e-4 -1.27481,-2.7e-4 -0.0758,-0.0475 -0.0758,-0.0475 -0.71314,2.8e-4 c -0.39223,1.6e-4 -0.8375,0.004 -0.98949,0.007 -0.15199,0.004 -0.38763,0.001 -0.52364,-0.005 l -0.24729,-0.0127 -0.61439,-0.13506 c -0.33792,-0.0743 -0.61955,-0.13826 -0.62584,-0.14215 -0.006,-0.004 -0.0115,-0.0278 -0.0115,-0.0532 0,-0.0384 -0.004,-0.047 -0.0265,-0.0515 -0.0146,-0.003 -0.24795,-0.008 -0.51866,-0.0111 -0.47787,-0.006 -0.49296,-0.006 -0.51817,-0.0301 -0.0236,-0.0222 -0.0403,-0.0244 -0.18102,-0.0244 l -0.15505,0 0,-0.0985 c 0,-0.0682 -0.005,-0.10255 -0.0158,-0.11165 -0.0109,-0.009 -0.0705,-0.0111 -0.19109,-0.007 -0.37241,0.0136 -0.43594,0.0124 -0.45931,-0.008 -0.0148,-0.0132 -0.10372,-0.0326 -0.27859,-0.0608 -0.18062,-0.0292 -0.26348,-0.0474 -0.27908,-0.0615 -0.0204,-0.0184 -0.0224,-0.043 -0.0253,-0.3036 l -0.003,-0.28353 -0.20578,-0.006 c -0.1132,-0.003 -0.21431,-0.0112 -0.2247,-0.0176 -0.0102,-0.006 -0.0826,-0.0801 -0.16048,-0.16357 -0.18107,-0.19411 -0.18592,-0.21461 -0.0969,-0.41084 0.0393,-0.0867 0.044,-0.12692 0.0172,-0.14909 -0.01,-0.008 -0.17422,-0.0376 -0.36516,-0.0652 -0.19095,-0.0276 -0.35484,-0.0566 -0.36418,-0.0644 -0.0259,-0.0214 -0.0214,-0.0327 0.0321,-0.0797 0.21099,-0.18578 0.64267,-0.57379 0.65906,-0.59236 0.0623,-0.0707 0.34124,-0.30782 0.39133,-0.33264 0.0323,-0.016 0.0958,-0.0344 0.1411,-0.0409 0.12669,-0.0181 1.45123,-0.0157 1.4843,0.003 0.0144,0.008 0.14845,0.16269 0.29796,0.34379 0.37002,0.44819 0.33352,0.40947 0.37865,0.40174 0.0209,-0.004 0.15186,-0.0179 0.29091,-0.0319 0.2282,-0.0229 0.25569,-0.028 0.28223,-0.0524 0.026,-0.0239 0.0495,-0.0287 0.19991,-0.0413 0.27637,-0.023 0.25799,-0.0169 0.44166,-0.14718 0.0902,-0.064 0.20553,-0.15258 0.25636,-0.19693 0.0508,-0.0443 0.1064,-0.086 0.12348,-0.0926 0.035,-0.0135 0.62492,0.002 1.1717,0.0316 0.1811,0.01 0.47478,0.0254 0.65264,0.0349 0.17787,0.01 0.37047,0.0187 0.42801,0.0204 l 0.10462,0.003 0.0272,-0.0764 c 0.0272,-0.0765 0.0359,-0.14037 0.0193,-0.14197 -0.005,-6e-4 -0.0273,-0.002 -0.05,-0.004 -0.0728,-0.006 -0.26411,-0.0308 -0.27928,-0.0361 -0.011,-0.004 -0.0147,-0.0569 -0.0147,-0.2115 l 0,-0.20645 0.0294,-0.0112 c 0.0372,-0.0141 0.0373,-0.0355 3e-4,-0.0702 -0.016,-0.015 -0.0263,-0.0318 -0.0228,-0.0373 0.003,-0.006 0.0393,-0.01 0.0798,-0.01 0.0639,0 0.077,-0.004 0.0992,-0.0294 0.0203,-0.0233 0.0366,-0.0294 0.0791,-0.0294 0.0534,0 0.1183,-0.0251 0.1406,-0.0543 0.006,-0.008 0.0477,-0.019 0.0916,-0.0234 0.0668,-0.007 0.0821,-0.005 0.0941,0.0115 0.0127,0.0173 0.0301,0.0183 0.15353,0.009 0.13297,-0.01 0.14898,-0.0146 0.16335,-0.0512 0.002,-0.004 0.0991,-0.0145 0.21641,-0.0225 0.20987,-0.0143 0.21438,-0.0141 0.28355,0.0118 0.0465,0.0174 0.0838,0.024 0.11012,0.0196 0.0492,-0.008 0.26078,-0.0237 0.73185,-0.0534 0.30713,-0.0194 0.36666,-0.0205 0.38806,-0.007 0.0202,0.0127 0.0523,0.0137 0.15927,0.005 0.11362,-0.009 0.13697,-0.008 0.15361,0.007 0.0173,0.0157 0.0442,0.0159 0.23058,0.002 0.14775,-0.011 0.22222,-0.0215 0.24856,-0.0351 0.056,-0.029 0.0959,-0.0254 0.10934,0.01 0.014,0.0369 0.0638,0.0404 0.0823,0.006 0.0163,-0.0305 0.044,-0.0299 0.0695,0.002 0.0172,0.0212 0.0243,0.023 0.046,0.0114 0.0141,-0.008 0.0257,-0.0208 0.0257,-0.0294 0,-0.01 0.0197,-0.0184 0.05,-0.0226 0.0677,-0.009 0.0813,0.0101 0.0769,0.10964 l -0.003,0.0765 -0.0549,0.004 c -0.0467,0.003 -0.056,-5e-5 -0.0625,-0.0206 -0.0105,-0.0331 -0.0485,-0.0303 -0.0718,0.005 -0.0234,0.0357 -0.0466,0.0376 -0.064,0.005 -0.0188,-0.0351 -0.0728,-0.0268 -0.082,0.0125 -0.008,0.0353 -0.0374,0.0417 -0.11509,0.0254 -0.0828,-0.0174 -0.45727,0.0121 -0.4764,0.0375 -0.0107,0.0142 -0.0452,0.0205 -0.14345,0.0261 -0.0944,0.005 -0.13729,0.0129 -0.15875,0.0278 -0.0239,0.0166 -0.0989,0.0256 -0.40298,0.0483 -0.20546,0.0153 -0.37945,0.0315 -0.38662,0.0359 -0.007,0.004 -0.009,0.0145 -0.004,0.0225 0.01,0.0155 0.0551,0.0139 0.52677,-0.0184 0.21164,-0.0145 0.24803,-0.0145 0.27046,4e-5 0.0213,0.0137 0.0501,0.0148 0.16024,0.006 0.11282,-0.009 0.13738,-0.008 0.15349,0.006 0.0168,0.0152 0.0457,0.0154 0.23189,10e-4 0.14581,-0.0109 0.22478,-0.0219 0.25107,-0.035 0.0565,-0.0282 0.092,-0.0247 0.1053,0.0103 0.014,0.0369 0.0638,0.0404 0.0823,0.006 0.0161,-0.0302 0.048,-0.03 0.074,3e-4 0.0164,0.0191 0.0251,0.0214 0.0438,0.0113 0.0128,-0.007 0.0234,-0.0196 0.0234,-0.0282 0,-0.0204 0.0938,-0.0336 0.11485,-0.0162 0.0108,0.009 0.0144,0.0381 0.0121,0.0962 l -0.003,0.0834 -0.0549,0.004 c -0.0467,0.003 -0.056,-5e-5 -0.0625,-0.0206 -0.0105,-0.0331 -0.0485,-0.0303 -0.0718,0.005 -0.0234,0.0357 -0.0466,0.0376 -0.064,0.005 -0.0188,-0.0351 -0.0728,-0.0268 -0.0819,0.0125 -0.008,0.0344 -0.0414,0.042 -0.11408,0.0256 -0.075,-0.0168 -0.45925,0.0132 -0.47743,0.0373 -0.0107,0.0142 -0.0453,0.0205 -0.14344,0.0261 -0.0945,0.005 -0.13727,0.0129 -0.15875,0.0278 -0.023,0.016 -0.0841,0.0247 -0.28165,0.04 -0.13873,0.0108 -0.25685,0.0242 -0.26249,0.0298 -0.0118,0.0118 0.0374,0.20129 0.0673,0.25909 0.0187,0.0362 0.0187,0.0393 -1.8e-4,0.0531 -0.0188,0.0138 -0.0189,0.0183 -3e-4,0.074 l 0.0197,0.0594 0.10828,0.008 c 0.0596,0.004 0.33847,0.0207 0.61981,0.0366 0.28134,0.0159 0.57035,0.0324 0.64225,0.0366 0.0842,0.005 0.14387,0.003 0.16771,-0.005 0.0203,-0.007 0.10377,-0.0166 0.18538,-0.0212 0.1461,-0.008 0.14869,-0.008 0.16902,0.0191 0.0311,0.0412 0.1061,0.0557 0.42315,0.082 0.15846,0.0131 0.43627,0.0367 0.61737,0.0525 0.18109,0.0158 0.4642,0.0399 0.62912,0.0534 0.16492,0.0136 0.80257,0.0745 1.417,0.13536 1.69371,0.16777 1.61171,0.16047 1.64294,0.14624 0.0214,-0.01 0.18693,0.007 0.72698,0.0714 0.43266,0.052 0.71882,0.0814 0.75055,0.0772 0.0286,-0.004 0.0832,6e-4 0.12347,0.01 0.0397,0.009 0.15421,0.0309 0.25446,0.0483 0.10025,0.0174 0.19814,0.0387 0.21755,0.0473 0.0194,0.009 0.11465,0.031 0.21166,0.0499 l 0.1764,0.0343 0.85843,0.35961 c 0.47213,0.19779 0.88474,0.3655 0.91691,0.3727 0.0322,0.007 0.0851,0.0281 0.11759,0.0464 0.0325,0.0183 0.11037,0.0557 0.17303,0.083 0.0626,0.0273 0.11665,0.0568 0.12,0.0656 0.003,0.009 -0.0281,0.0852 -0.07,0.17005 -0.0418,0.0848 -0.073,0.15907 -0.0693,0.16505 0.004,0.006 0.0792,0.011 0.16771,0.0112 0.12584,2.9e-4 0.16614,0.004 0.18452,0.0183 0.0184,0.0141 0.0521,0.0174 0.15559,0.0153 0.10953,-0.002 0.13577,6e-4 0.15379,0.0169 0.0308,0.0279 0.39766,0.0289 0.47883,10e-4 0.0708,-0.024 0.10274,-0.0188 0.11136,0.0184 0.009,0.0393 0.0632,0.0475 0.082,0.0125 0.0165,-0.0309 0.0553,-0.0313 0.0651,-6e-4 0.005,0.0148 0.0178,0.0235 0.0353,0.0235 0.0175,0 0.0306,-0.009 0.0353,-0.0235 0.006,-0.0193 0.0178,-0.0235 0.0655,-0.0235 l 0.058,0 0,0.0941 0,0.0941 -0.0525,0 c -0.0405,0 -0.0554,-0.005 -0.0651,-0.0235 -0.007,-0.0129 -0.0243,-0.0235 -0.0387,-0.0235 -0.0144,0 -0.0328,0.0106 -0.0408,0.0235 -0.019,0.0305 -0.0502,0.0301 -0.0583,-6.1e-4 -0.01,-0.0364 -0.0781,-0.0278 -0.0836,0.0106 -0.004,0.0258 -0.007,0.027 -0.0588,0.0194 -0.0302,-0.004 -0.16214,-0.0105 -0.29322,-0.0133 -0.20687,-0.004 -0.23923,-0.003 -0.24526,0.0129 -0.006,0.0149 -0.0323,0.0182 -0.14974,0.0185 -0.10689,2.8e-4 -0.14853,0.005 -0.16562,0.0176 -0.0176,0.0133 -0.0613,0.0173 -0.19109,0.0173 l -0.16826,0 -3e-4,0.0382 c -6e-4,0.0522 -0.19799,0.41868 -0.23634,0.43864 -0.0216,0.0112 -0.40678,0.0158 -1.70358,0.0201 l -1.67571,0.006 -1.52283,0.14288 c -1.77457,0.16651 -2.56297,0.22508 -3.01039,0.22366 l -0.29986,-9.1e-4 -0.7232,-0.15146 z"
         style="fill:#000000;fill-opacity:1" />
    </g>
  </g>
</svg>
