<?xml version="1.0" encoding="UTF-8" standalone="no"?>
<!-- Created with Inkscape (http://www.inkscape.org/) -->

<svg
   xmlns:dc="http://purl.org/dc/elements/1.1/"
   xmlns:cc="http://creativecommons.org/ns#"
   xmlns:rdf="http://www.w3.org/1999/02/22-rdf-syntax-ns#"
   xmlns:svg="http://www.w3.org/2000/svg"
   xmlns="http://www.w3.org/2000/svg"
   xmlns:sodipodi="http://sodipodi.sourceforge.net/DTD/sodipodi-0.dtd"
   xmlns:inkscape="http://www.inkscape.org/namespaces/inkscape"
   width="813.97211"
   height="168.37431"
   id="svg2"
   version="1.1"
   inkscape:version="0.48.5 r10040"
   sodipodi:docname="Idris.svg">
  <defs
     id="defs4" />
  <sodipodi:namedview
     id="base"
     pagecolor="#ffffff"
     bordercolor="#666666"
     borderopacity="1.0"
     inkscape:pageopacity="0.0"
     inkscape:pageshadow="2"
     inkscape:zoom="1.4"
     inkscape:cx="521.56257"
     inkscape:cy="166.74066"
     inkscape:document-units="px"
     inkscape:current-layer="layer1"
     showgrid="false"
     inkscape:window-width="1920"
     inkscape:window-height="1018"
     inkscape:window-x="-8"
     inkscape:window-y="-8"
     inkscape:window-maximized="1"
     fit-margin-top="0"
     fit-margin-left="0"
     fit-margin-right="0"
     fit-margin-bottom="0"
     showguides="true"
     inkscape:guide-bbox="true" />
  <metadata
     id="metadata7">
    <rdf:RDF>
      <cc:Work
         rdf:about="">
        <dc:format>image/svg+xml</dc:format>
        <dc:type
           rdf:resource="http://purl.org/dc/dcmitype/StillImage" />
        <dc:title />
      </cc:Work>
    </rdf:RDF>
  </metadata>
  <g
     inkscape:label="Layer 1"
     inkscape:groupmode="layer"
     id="layer1"
     transform="translate(551.8723,-550.95748)">
    <g
       id="g2996"
       transform="matrix(-0.85321922,0,0,0.85321922,208.09028,1115.3248)">
      <path
         style="fill:#000000;fill-opacity:1"
         d="m 80.16242,-465.48628 c -0.65514,-0.75345 -1.51653,-1.3699 -1.91424,-1.3699 -0.39771,0 -0.72315,-0.24659 -0.72315,-0.54796 0,-0.30138 -0.48538,-0.54796 -1.07871,-0.54796 -0.78019,0 -0.98206,0.25186 -0.72945,0.91017 0.32078,0.83598 -0.51799,0.88267 -10.29147,0.57278 -15.58159,-0.49406 -21.87393,-1.62589 -21.87393,-3.93454 0,-0.77459 -7.19407,-1.26536 -24.65823,-1.68219 -14.81741,-0.35365 -41.09689,-2.26246 -49.31647,-3.5821 -3.76723,-0.60483 -11.41128,-1.76694 -16.98678,-2.58248 l -10.13727,-1.4828 -1.25697,-6.30155 c -0.79783,-3.99978 -1.07773,-6.60177 -0.76621,-7.12349 0.29222,-0.4894 1.6875,-0.95207 3.44881,-1.14359 2.50588,-0.27249 2.18318,-0.33531 -2.11058,-0.41097 l -5.06864,-0.0893 0.008,-2.32883 0.0762,-2.38395 c 0,0 4.17985,-0.0613 6.26977,-0.0919 1.87148,-0.0274 2.53268,-0.16746 3.83288,-1.46764 0.33432,-0.33432 4.46704,-1.4334 9.18377,-2.4424 4.71674,-1.00899 8.57592,-2.05007 8.57592,-2.3135 0,-0.26343 0.60029,-0.47896 1.33401,-0.47896 1.58355,0 9.6252,-6.18595 9.6252,-7.40407 0,-0.45004 -0.49103,-0.81535 -1.09592,-0.81535 -0.60276,0 -1.09592,-0.24658 -1.09592,-0.54796 0,-0.30137 0.84287,-0.54796 1.87304,-0.54796 2.41387,0 3.60656,-0.4724 3.60656,-1.42852 0,-0.62327 -1.75342,-0.76332 -9.55698,-0.76332 -9.81792,0 -12.07316,-0.49701 -7.85732,-1.7316 l 2.34538,-0.68683 -2.46582,-0.29767 -2.46582,-0.29768 1.35483,-0.95893 c 0.74517,-0.52742 1.86712,-0.95894 2.49322,-0.95894 0.6261,0 1.37264,-0.22372 1.65895,-0.49715 0.98409,-0.93982 16.99939,-1.75307 40.93267,-2.07854 13.1853,-0.1793 23.97328,-0.16823 23.97328,0.0246 0,0.19284 -0.92468,0.78504 -2.05485,1.316 -2.60112,1.22201 -3.21944,3.42693 -0.96102,3.42693 0.79422,0 1.9291,-0.25961 2.52199,-0.5769 1.05362,-0.56387 3.61419,-0.0644 6.09891,1.18955 0.5923,0.29892 1.8246,0.19112 3.28777,-0.2876 3.60766,-1.18035 8.95905,-1.04451 12.47767,0.31673 1.65758,0.64127 3.28108,1.4901 3.60777,1.88628 1.15888,1.40546 4.66391,0.28954 7.40678,-2.35815 l 2.52117,-2.43369 -0.75536,-4.71715 c -0.80381,-5.01973 -0.31497,-4.14878 -7.63512,-13.60374 -0.33464,-0.43219 -1.1339,-0.78579 -1.77611,-0.78579 -0.83575,0 -2.61936,-1.83057 -6.27338,-6.43854 l -5.10562,-6.43854 -0.12423,-5.16127 c -0.0895,-3.72061 0.0724,-5.28601 0.58018,-5.6082 0.44763,-0.28402 0.0552,-0.45 -1.07646,-0.45533 -1.61156,-0.008 -1.78088,-0.16466 -1.78088,-1.65227 0,-0.90414 0.24659,-1.64389 0.54796,-1.64389 0.66419,0 0.73641,-1.47823 0.0848,-1.73521 -0.25474,-0.10045 -0.62358,-0.8379 -0.81964,-1.63876 l -0.35644,-1.45612 6.89657,-1.25 6.89664,-1.24999 -3.2002,-0.72965 c -1.76005,-0.40131 -3.95737,-0.97128 -4.88294,-1.26661 -0.92556,-0.29532 -2.58999,-0.53695 -3.69873,-0.53695 -1.1088,0 -2.01595,-0.21472 -2.01595,-0.47716 0,-0.26243 -1.72043,-0.64668 -3.82312,-0.85388 -2.10274,-0.20719 -3.96663,-0.60893 -4.14203,-0.89274 -0.17541,-0.28381 0.077,-0.51602 0.56094,-0.51602 0.79268,0 0.78764,-0.12214 -0.051,-1.23291 -0.91224,-1.20809 -1.18513,-1.23579 -13.55167,-1.37579 -7.00907,-0.0793 -12.7585,0.0752 -12.93061,0.34766 -0.23299,0.36872 -14.01777,-0.46689 -15.92681,-0.96546 -0.15069,-0.0393 0.96376,-0.78153 2.47657,-1.6493 l 2.75059,-1.57774 12.86629,-0.3296 c 7.07647,-0.18128 13.40361,-0.4795 14.06034,-0.66271 0.65673,-0.1832 2.5044,-0.0521 4.10592,0.2914 1.61934,0.34728 4.19059,0.46473 5.7925,0.26459 l 2.88057,-0.35991 0,-6.78637 0,-6.78637 1.3699,0 c 0.93356,0 1.3699,0.30208 1.3699,0.94838 0,0.5216 0.76874,3.09741 1.70827,5.72401 1.70679,4.77144 1.70942,4.7749 2.99263,3.93411 2.57838,-1.68939 18.88761,-2.33275 31.84567,-1.25623 8.95949,0.74434 22.30825,2.79117 30.0145,4.6023 10.06231,2.36482 9.41917,3.26442 -3.33139,4.65992 -5.09055,0.55714 -11.41314,1.1882 -14.0502,1.40233 -2.63706,0.21414 -4.79466,0.58265 -4.79466,0.81889 0,0.96635 -3.812,1.63811 -9.80806,1.72841 -3.49621,0.0527 -5.3088,0.19012 -4.02795,0.30549 2.16467,0.19497 2.32884,0.32342 2.32884,1.82213 l 0,1.61237 7.022,0 7.02201,0 0.91455,-1.91786 0.9146,-1.91786 14.11886,-0.0921 c 7.76537,-0.0507 13.17884,-0.18976 12.03004,-0.30909 -1.28464,-0.13343 -2.01151,-0.46715 -1.88805,-0.86681 0.70731,-2.28916 9.73611,-3.66364 24.06599,-3.66364 7.77162,0 8.73236,0.0971 8.13081,0.82194 -0.57043,0.68735 -0.48889,0.82195 0.4981,0.82195 0.64911,0 1.33888,-0.4135 1.53281,-0.91887 0.31551,-0.82219 0.39612,-0.80777 0.76621,0.13699 0.36182,0.92352 0.41848,0.93567 0.45212,0.0969 0.0214,-0.52741 0.25639,-0.95893 0.52259,-0.95893 0.26626,0 0.61301,-0.49316 0.77065,-1.09592 0.39229,-1.50016 2.92683,-1.50016 3.40295,0 0.34494,1.08672 0.60484,1.23291 2.19184,1.23291 1.58706,0 1.84696,-0.14619 2.19185,-1.23291 0.22691,-0.71492 0.82912,-1.09592 1.7321,-1.09592 0.92348,0 1.47971,0.36484 1.6709,1.09592 0.15759,0.60276 0.50439,1.09592 0.77065,1.09592 0.2662,0 0.50138,0.43152 0.52253,0.95893 0.0334,0.82779 0.0958,0.81237 0.45766,-0.11268 0.39678,-1.0143 0.44856,-1.01913 0.9683,-0.0904 0.52007,0.92932 2.58912,0.97842 39.09683,0.92787 33.30199,-0.0461 38.67025,-0.16431 39.44846,-0.86856 0.51207,-0.46343 1.94844,-0.81519 3.3287,-0.81519 2.37508,0 2.4279,-0.0389 2.4227,-1.78087 l -0.005,-1.78087 7.67145,0 7.67145,0 -0.0808,1.78087 -0.0808,1.78087 47.62105,0 c 46.8121,0 47.60987,-0.0179 46.9644,-1.05142 -0.517,-0.82784 -0.50371,-1.23568 0.0624,-1.91787 0.58728,-0.70763 2.00885,-0.86643 7.75619,-0.86643 6.54895,0 7.07911,0.0784 7.64238,1.13095 0.43119,0.80567 0.4364,1.33442 0.0181,1.8384 -0.4782,0.57619 4.66173,0.72667 27.70185,0.81099 25.91875,0.0948 28.26035,0.0289 27.94714,-0.7873 -0.18783,-0.48996 -0.34166,-1.24054 -0.34166,-1.66796 0,-0.52283 -0.62756,-0.77712 -1.91786,-0.77712 -1.05483,0 -1.91787,-0.24658 -1.91787,-0.54796 0,-0.34382 -3.47041,-0.54796 -9.31533,-0.54796 -5.84491,0 -9.31533,-0.20415 -9.31533,-0.54796 0,-0.31705 -1.74791,-0.54796 -4.14782,-0.54796 -3.95866,0 -4.13983,-0.0549 -3.97271,-1.20291 0.17472,-1.20034 0.20478,-1.20305 14.01248,-1.26374 l 13.83738,-0.0608 1.94665,-1.88704 c 1.85956,-1.8026 2.15405,-1.89569 6.58157,-2.08056 3.44189,-0.14371 5.23243,0.0457 6.95633,0.73586 1.27678,0.51116 4.38649,1.29004 6.91046,1.73086 4.48799,0.78382 11.34192,3.02732 12.36059,4.046 1.13178,1.13178 -0.1539,1.37602 -13.25089,2.51725 -2.61287,0.22768 -3.42475,0.50144 -3.42475,1.15482 0,0.7358 0.63664,0.80685 4.52067,0.50449 2.48638,-0.19355 9.82537,-0.35339 16.30889,-0.3552 12.95598,-0.004 12.05419,0.22129 13.43796,-3.35134 0.25457,-0.65725 1.34362,-0.9529 4.27056,-1.15935 4.80134,-0.33867 11.06655,0.1993 11.01324,0.94567 -0.0214,0.30137 0.28669,0.8738 0.68495,1.27205 0.39826,0.39825 0.72407,1.04836 0.72407,1.4447 0,0.39633 0.8014,0.85065 1.78088,1.0096 1.78651,0.28991 5.68487,-1.70992 13.68575,-7.02062 l 2.58956,-1.71886 -5.46635,-2.63764 c -4.19563,-2.02448 -5.46635,-2.88995 -5.46635,-3.72303 0,-1.00328 -0.14997,-0.97102 -1.98219,0.42649 -1.93205,1.47367 -2.10866,1.50269 -6.9865,1.14825 -2.75235,-0.19999 -7.28519,-0.51743 -10.07294,-0.70541 -3.92898,-0.26493 -5.06864,-0.52215 -5.06864,-1.14396 0,-0.68549 -1.25529,-0.74995 -8.63038,-0.44319 -4.74671,0.19743 -10.35646,0.58209 -12.4661,0.85478 -4.75547,0.61471 -6.80482,0.0771 -12.32912,-3.23415 -4.84517,-2.90421 -5.28008,-3.40035 -5.75621,-6.56663 -0.29298,-1.9484 -0.14561,-2.69955 0.77355,-3.94278 l 1.13548,-1.53583 -2.45919,-1.76605 c -1.35255,-0.97133 -2.33789,-1.88735 -2.18964,-2.03559 0.14824,-0.14825 6.00416,-0.47805 13.01316,-0.7329 7.00898,-0.25484 16.75752,-0.6528 21.66341,-0.88434 l 8.9198,-0.42099 2.04392,-2.37318 2.04395,-2.37319 6.31251,-0.21027 c 3.47182,-0.11564 7.5384,-0.44295 9.0368,-0.72735 3.04661,-0.57826 46.47513,-0.37342 49.69067,0.23438 l 2.03354,0.38437 0.1583,-5.12563 c 0.0871,-2.81908 0.37853,-5.12562 0.64769,-5.12562 0.26916,0 0.4393,2.28089 0.37798,5.06864 l -0.1114,5.06864 2.16094,0 c 1.70005,0 2.22204,-0.23372 2.44747,-1.09592 0.36428,-1.39296 1.48514,-1.4346 1.48514,-0.0552 0,0.84203 0.4799,1.07892 2.51338,1.24064 1.38234,0.10994 2.62983,0.0114 2.77214,-0.2188 0.1423,-0.23029 3.69637,-0.4187 7.89786,-0.4187 6.42501,0 7.63912,0.13063 7.63912,0.82194 0,0.68046 1.03055,0.82194 5.98741,0.82194 5.12644,0 8.14017,0.4419 20.95949,3.07324 8.23465,1.69028 19.84966,3.76041 25.81109,4.6003 l 10.83894,1.52706 2.69574,2.7386 2.69575,2.7386 -10.24692,0.21925 c -9.25873,0.19811 -10.46945,0.33587 -12.554,1.42847 -1.26886,0.66508 -2.66029,1.20922 -3.09214,1.20922 -0.43179,0 -0.92704,0.36988 -1.10053,0.82194 -0.17348,0.45207 -0.80857,0.82194 -1.41138,0.82194 -0.60275,0 -6.7934,2.8357 -13.75693,6.30155 l -12.66102,6.30155 -6.19371,0 c -4.70676,0 -6.3501,0.18841 -6.84507,0.7848 -0.3582,0.43165 -2.91586,1.29838 -5.68367,1.92608 -7.08891,1.60768 -9.75649,2.33694 -9.49709,2.59633 0.12335,0.12339 3.39763,0.717 7.27615,1.31914 3.87852,0.60213 7.12459,1.30173 7.21347,1.55465 0.0888,0.25293 0.95186,0.28384 1.91786,0.0687 0.96594,-0.21515 5.57829,-0.20487 10.24966,0.0229 4.67136,0.2277 12.84836,0.43219 18.17109,0.45442 l 9.6777,0.0404 3.05422,-2.9819 c 9.76088,-9.52969 24.82996,-9.54696 34.79715,-0.0399 l 3.16798,3.02177 9.65956,0 c 8.36117,0 9.6172,-0.11048 9.34416,-0.82194 -0.24938,-0.64989 -1.39276,-0.82194 -5.46241,-0.82194 l -5.14699,0 0,-3.56174 c 0,-2.00919 0.23886,-3.56175 0.54796,-3.56175 0.3091,0 0.54796,-1.55255 0.54796,-3.56174 0,-2.56406 0.20028,-3.56175 0.71503,-3.56175 0.57706,0 4.37728,-12.77528 7.33501,-24.65823 0.1217,-0.48893 -1.10825,-1.87647 -3.03571,-3.42475 l -3.24025,-2.60282 -10.50359,0 c -8.4627,0 -10.82606,-0.16677 -12.16335,-0.85833 -1.81589,-0.93903 -3.3224,-3.8275 -2.87954,-5.52102 0.56654,-2.16645 2.29207,-2.63898 10.37553,-2.84135 7.20207,-0.1803 7.7332,-0.2673 8.21941,-1.34619 0.28587,-0.63438 1.2396,-1.34188 2.11935,-1.5722 3.43193,-0.89852 20.29115,-1.68893 30.99117,-1.45295 l 11.24613,0.24802 0.16603,-7.42134 c 0.0913,-4.08174 0.27623,-7.53157 0.41097,-7.6663 0.69241,-0.6924 0.96573,1.13474 1.21763,8.13991 0.21606,6.00806 0.4405,7.68864 1.02682,7.68864 0.55618,0 0.71684,-0.74412 0.621,-2.8768 -0.0711,-1.58223 -0.0733,-5.15768 -0.005,-7.94543 0.10016,-4.08491 0.28378,-5.06864 0.94621,-5.06864 0.6586,0 0.84638,0.95274 0.94502,4.79466 0.0677,2.63706 0.06,6.18831 -0.017,7.89166 l -0.14017,3.097 2.73537,0.37621 c 2.8318,0.38948 3.72438,1.34431 3.00622,3.21588 -0.2313,0.60368 -0.0553,0.89914 0.5359,0.89914 0.48435,0 0.88058,-0.27514 0.88058,-0.61143 0,-0.43058 2.14746,-0.54433 7.26048,-0.38458 7.75156,0.2422 9.50087,0.76994 10.07732,3.04013 0.39251,1.54578 -1.33297,4.57624 -3.1208,5.48104 -1.65089,0.83547 -14.217,0.96478 -14.217,0.14629 0,-0.67482 -8.87795,-0.74555 -9.61671,-0.0766 -0.28631,0.25924 -2.73981,0.89851 -5.45221,1.42061 -4.38785,0.84458 -11.90324,3.50556 -13.01785,4.60921 -0.22806,0.22586 0.3005,0.93944 1.17466,1.58573 l 1.58936,1.17507 -0.30379,-1.16166 c -0.41267,-1.57809 -0.0616,-1.41021 8.81099,4.21344 7.544,4.78152 8.92502,6.09599 8.42271,8.01681 -0.15343,0.58674 0.009,1.03991 0.37376,1.03991 0.6632,0 1.99151,5.80763 1.99151,8.70731 0,0.88694 0.26225,1.70002 0.58276,1.80686 0.3205,0.10684 0.62144,1.73017 0.66873,3.60741 l 0.086,3.41316 4.53684,0 c 4.17157,0 4.53689,0.0882 4.53689,1.09592 0,1.03239 0.36533,1.09592 6.30155,1.09592 l 6.30155,0 0,2.46583 0,2.46582 -7.94543,0 c -4.36999,0 -7.94543,0.11626 -7.94543,0.25836 0,0.14209 0.58867,1.58942 1.30815,3.21628 1.53752,3.47659 -1.17198,2.83532 22.52814,5.33184 14.64239,1.5424 16.57828,1.85943 17.71491,2.90111 1.21313,1.11182 1.98313,1.18596 15.61688,1.5036 7.8874,0.18376 15.26657,0.51964 16.39805,0.74639 1.52838,0.30628 2.41273,0.17936 3.43994,-0.49367 2.03967,-1.33645 11.59885,-2.02275 22.31181,-1.60185 8.33864,0.32761 10.43355,0.69118 8.49339,1.47405 -0.37672,0.15201 0.13403,0.29585 1.13504,0.31965 1.87688,0.0446 2.90551,-0.62024 3.5361,-2.28558 0.50626,-1.33695 2.96847,-1.2581 3.4024,0.10897 0.18642,0.58733 0.81016,1.21745 1.38612,1.40026 1.14234,0.36256 3.28042,-0.54438 3.28042,-1.39151 0,-0.29078 0.67953,-0.52869 1.51013,-0.52869 1.13844,0 1.68279,0.39012 2.21179,1.58519 0.72648,1.6412 1.97156,2.23022 4.7415,2.24306 0.95011,0.004 2.18965,0.55401 3.01379,1.33629 0.87569,0.83126 3.0231,1.74209 5.73501,2.43252 4.61174,1.1741 6.05765,2.17337 6.64895,4.59507 0.361,1.47853 0.32056,1.50689 -2.14844,1.50689 l -2.51635,0 0.91455,1.91786 c 0.86594,1.81594 1.06206,1.9185 3.68986,1.92976 l 2.77531,0.0119 2.68797,5.74785 c 1.47839,3.16132 2.54045,5.89538 2.36017,6.07569 -0.18033,0.18031 -2.12214,0.5248 -4.31513,0.76553 -2.193,0.24073 -4.077,0.70689 -4.1867,1.03591 -0.10965,0.32901 -0.9186,0.59821 -1.79758,0.59821 -0.87904,0 -1.59824,0.20711 -1.59824,0.46025 0,0.45999 -1.81244,1.08537 -6.71252,2.31617 -2.20466,0.55376 -2.60281,0.85587 -2.60281,1.97493 0,1.03261 0.50861,1.53889 2.32883,2.3181 1.44925,0.62041 2.46089,0.79237 2.67854,0.45529 0.19234,-0.29791 0.66128,-0.3491 1.04206,-0.11376 0.42346,0.2617 0.99159,0.0229 1.46283,-0.61474 0.71674,-0.96999 0.80748,-0.97736 1.30163,-0.10576 0.29217,0.5153 1.38755,1.09755 2.43421,1.2939 1.0466,0.19635 1.90295,0.57614 1.90295,0.84397 0,0.26784 4.1919,0.48698 9.31534,0.48698 5.84493,0 9.31533,0.20414 9.31533,0.54796 0,0.30138 -0.24658,0.54796 -0.54796,0.54796 -0.30138,0 -0.54796,0.24803 -0.54796,0.55116 0,0.35442 1.66257,0.42336 4.65766,0.19314 4.51016,-0.34667 4.65767,-0.32075 4.65767,0.81874 0,1.17254 -0.0499,1.17678 -13.83601,1.18066 -7.6098,0.002 -15.4874,0.15988 -17.50575,0.35051 -3.44361,0.32526 -3.67994,0.43474 -3.83573,1.77698 -0.1337,1.15229 -0.57421,1.53119 -2.26598,1.949 -1.74252,0.43036 -2.82726,0.26713 -6.37284,-0.95893 -2.35009,-0.81266 -4.82161,-1.47757 -5.49237,-1.47757 -3.23549,0 -13.15884,-3.37645 -13.15884,-4.47735 0,-0.57451 -0.47722,-0.47873 4.93165,-0.98993 5.81123,-0.54923 8.2947,-1.20484 10.17919,-2.68721 0.83925,-0.66014 2.27113,-1.16084 3.31976,-1.16084 1.01417,0 1.84394,-0.24658 1.84394,-0.54796 0,-0.30138 -0.26713,-0.54796 -0.59366,-0.54796 -0.53722,0 -8.16154,1.83642 -10.50254,2.52968 -0.8386,0.24834 -0.95893,-0.13041 -0.95893,-3.01855 l 0,-3.30254 4.52068,-0.1846 c 2.48637,-0.10153 -9.11944,-0.23479 -25.79071,-0.29614 l -30.31138,-0.11153 -1.79605,1.3699 c -1.00348,0.76538 -2.52949,1.3699 -3.45807,1.3699 -0.91416,0 -1.96904,0.36987 -2.34423,0.82194 -0.37519,0.45207 -1.11636,0.82194 -1.64706,0.82194 -0.5307,0 -1.09389,0.49317 -1.25149,1.09592 -0.39233,1.50017 -2.92687,1.50017 -3.403,0 -0.47513,-1.49694 -3.30201,-1.49694 -4.23688,0 -0.7923,1.26872 -3.05308,1.46577 -3.49851,0.30494 -0.16691,-0.43503 -1.27642,-1.29807 -2.4655,-1.91786 -2.4462,-1.27502 -3.20201,-1.43354 -2.23781,-0.46933 0.36165,0.36166 0.65755,0.85482 0.65755,1.09592 0,1.22134 -25.80451,-0.0791 -30.48695,-1.53645 l -2.81498,-0.87609 -21.56927,4.74739 c -11.86313,2.61107 -22.12413,4.88204 -22.80223,5.04661 -0.6781,0.16456 -1.23291,0.67681 -1.23291,1.13833 0,0.46151 -0.43152,1.15928 -0.95893,1.5506 -0.91028,0.67539 -0.90792,0.7493 0.0471,1.45733 0.67772,0.50249 0.94589,1.27342 0.82194,2.36271 -0.1771,1.55642 -0.31716,1.63203 -3.74575,2.0226 -7.87578,0.8972 -11.54739,1.52786 -13.26541,2.27857 -1.71178,0.74796 -1.48996,0.79031 4.36105,0.83274 3.39051,0.0246 6.16456,0.2649 6.16456,0.53403 0,0.76472 -1.49528,1.15455 -4.42851,1.15455 -1.86372,0 -2.65273,0.21126 -2.55799,0.68495 0.0956,0.47804 -0.92704,0.73499 -3.3853,0.85062 -2.08702,0.0982 -3.7617,0.46236 -4.10971,0.89376 -0.58456,0.72455 -8.4798,1.11262 -35.19129,1.72972 -5.16875,0.11941 -9.73053,0.33696 -10.13728,0.48345 -0.56473,0.20338 -13.11615,2.23734 -15.63491,2.53363 -0.24614,0.029 1.77167,0.50824 4.48408,1.06507 10.16302,2.08634 11.5595,2.61327 13.2001,4.98064 1.0689,1.54241 1.32968,2.33141 0.9095,2.75162 -1.05186,1.05184 -33.58736,-0.94254 -47.53521,-2.91384 l -12.05513,-1.7038 -19.02783,1.04801 c -16.56195,0.91219 -19.1184,1.1697 -19.72658,1.987 -0.54933,0.7382 -2.16335,1.05873 -7.54827,1.49899 -9.26596,0.75756 -9.31533,0.77222 -9.31533,2.76633 l 0,1.64848 -7.80844,-0.15203 -7.80844,-0.15204 -0.0219,-1.64388 c -0.017,-1.25264 -0.27765,-1.6487 -1.09592,-1.66411 -0.5906,-0.0111 -2.33306,-0.21435 -3.87217,-0.45161 -1.70525,-0.26286 -10.48144,0.0173 -22.4664,0.71705 -65.30163,3.813 -113.56008,6.64789 -118.46501,6.9591 l -5.6437,0.35807 -0.80203,1.91954 c -0.44112,1.05575 -0.73716,1.9839 -0.65786,2.06255 0.43565,0.43212 10.58627,4.62037 11.1979,4.62037 0.40009,0 0.72744,-0.39408 0.72744,-0.87575 0,-0.7487 0.49681,-0.82166 3.42476,-0.50292 11.38689,1.23954 20.43614,2.57362 20.59419,3.03608 0.28633,0.8378 1.70467,0.62924 3.2945,-0.48445 1.56935,-1.09935 13.45914,-3.32397 14.13786,-2.64524 0.70425,0.70425 -0.52519,1.3707 -6.6558,3.60797 -4.34279,1.58483 -12.89379,3.65503 -30.59252,7.40644 l -24.56494,5.20678 -5.73253,-1.19095 c -5.13635,-1.06709 -5.71592,-1.30688 -5.57289,-2.30581 0.14652,-1.02332 0.51961,-1.10792 4.54332,-1.03018 2.41102,0.0466 3.69341,-0.0326 2.84973,-0.176 -0.84367,-0.14338 -4.52782,-0.8338 -8.18701,-1.53425 -3.65917,-0.70046 -6.91421,-1.17592 -7.2334,-1.05658 -0.31924,0.11934 -8.71762,0.44107 -18.6631,0.71495 -18.05641,0.49725 -30.40125,0.0416 -31.91872,-1.17817 -1.2191,-0.97998 -0.72922,-1.93 1.18004,-2.28818 1.55407,-0.29154 2.5187,-1.16421 2.5187,-2.27858 0,-1.00786 -44.88867,3.32398 -76.98848,7.42954 -4.52068,0.57819 -12.65789,1.56629 -18.0827,2.19578 -5.42482,0.62949 -14.67165,1.78494 -20.54853,2.56766 -8.6049,1.14606 -13.67233,1.47178 -26.02813,1.67303 -15.17561,0.24718 -15.36192,0.26428 -17.08717,1.56868 -1.08529,0.82053 -2.48276,1.31878 -3.69874,1.31878 -1.07493,0 -1.95446,0.24658 -1.95446,0.54796 0,0.30137 -0.32538,0.54796 -0.72309,0.54796 -0.39771,0 -1.25916,0.61645 -1.91425,1.3699 -1.42903,1.64349 -2.83992,1.77123 -3.22672,0.29213 -0.48675,-1.86021 -4.54753,-2.14046 -4.54753,-0.31383 0,0.60837 -1.10666,1.3916 -1.9663,1.3916 -0.128,0 -0.76879,-0.61646 -1.42387,-1.3699 z m 245.04087,-14.24698 c 0,-0.63802 -0.72563,-0.82194 -3.24294,-0.82194 -1.78362,0 -3.69464,-0.16258 -4.2467,-0.36129 -0.55206,-0.19871 -0.83473,-0.17353 -0.62816,0.0559 0.32844,0.36486 5.53585,1.68054 7.43285,1.87795 0.37673,0.0392 0.68495,-0.29859 0.68495,-0.75066 z m 40.00114,-4.52686 c -1.05483,-0.087 -5.01009,-0.52194 -8.78947,-0.96646 -8.49429,-0.99908 -8.74528,-0.99869 -8.74528,0.0137 0,0.59115 0.65391,0.84079 2.32884,0.88908 1.28085,0.0369 4.91794,0.22187 8.08242,0.41097 3.16447,0.18911 6.49333,0.22393 7.39747,0.0774 l 1.64388,-0.26644 -1.91786,-0.15824 z m 317.37889,-114.5176 0.16434,-3.15078 9.17834,-0.15024 9.17834,-0.15024 0,-1.35665 c 0,-1.00835 -0.29234,-1.35665 -1.13872,-1.35665 -0.62632,0 -2.9072,-0.84418 -5.06863,-1.87595 -2.16149,-1.03177 -6.42523,-2.97607 -9.47507,-4.32067 l -5.54508,-2.44471 -0.34549,3.30512 c -0.57427,5.49437 -0.43432,7.92466 0.4765,8.27417 0.59355,0.22776 0.82194,1.15767 0.82194,3.34639 0,2.28254 0.19623,3.03098 0.7946,3.03098 0.58298,0 0.83838,-0.83914 0.95893,-3.15077 z m 14.38392,-11.02313 c -0.28631,-0.26118 -2.7523,-1.96058 -5.48005,-3.77644 -4.6032,-3.06444 -5.05581,-3.24976 -6.30155,-2.58028 -1.31329,0.70582 -1.25976,0.75861 2.49366,2.46124 2.10965,0.95697 5.06864,2.31159 6.57553,3.01026 3.11269,1.4432 3.4418,1.55061 2.71241,0.88522 z m -13.68318,-10.88945 c 1.84405,-2.7488 2.47738,-4.2197 2.47738,-5.75359 l 0,-2.0607 -2.7398,0 -2.73981,0 -0.005,2.87679 c 0,1.58224 -0.16027,4.17135 -0.35031,5.75359 -0.46954,3.90923 0.31535,3.71845 3.3573,-0.81609 z"
         id="path3000"
         inkscape:connector-curvature="0"
         sodipodi:nodetypes="cssssssssscsssscccsssssssssssscccssssssscssscscscssccscsscccccssssscscsccscsccscccssssssssscsscccccsscssssccsccscscscssscsccccccsccsccscsssssscscsssssssscsscsssscssssssssssscscsscccsssccsccscsscssssscccssscsscscscscccscsscscscsssssscscsscsscscssscssccscsssscscscsccscsssscssscccsssscsscsscsccsssccssscsscscscsssssccccsssssssscscssssscssssscsscssssccccsssccscsscsscssscccsscsscscsssscccccssscscsssssssscssscscscssssssssssccsscccsscccccsscsccccscccssssccsssscccssccsccccscc" />
    </g>
  </g>
</svg>
