<?xml version="1.0" encoding="UTF-8" standalone="no"?>
<svg
   xmlns:dc="http://purl.org/dc/elements/1.1/"
   xmlns:cc="http://creativecommons.org/ns#"
   xmlns:rdf="http://www.w3.org/1999/02/22-rdf-syntax-ns#"
   xmlns:svg="http://www.w3.org/2000/svg"
   xmlns="http://www.w3.org/2000/svg"
   version="1.1"
   id="svg2"
   viewBox="0 0 241.99999 45.690297"
   width="726">
  <defs
     id="defs4" />
  <metadata
     id="metadata7">
    <rdf:RDF>
      <cc:Work
         rdf:about="">
        <dc:format>image/svg+xml</dc:format>
        <dc:type
           rdf:resource="http://purl.org/dc/dcmitype/StillImage" />
        <dc:title></dc:title>
      </cc:Work>
    </rdf:RDF>
  </metadata>
  <g
     transform="translate(899.95753,-721.63692)"
     id="layer1">
    <g
       transform="matrix(0.10348165,0,0,0.10348165,-1007.8785,677.27911)"
       id="g4147">
      <path
         id="path4153"
         d="m 2791.6496,869.61823 c -3.0937,-0.22711 -10.4062,-0.9971 -16.25,-1.7111 -11.9957,-1.46566 -226.2502,-33.31274 -231.548,-34.4176 -2.9344,-0.612 -3.7994,-0.0759 -6.0609,3.75725 l -2.6381,4.47113 -21.0944,0 -21.0943,0 -1.9072,-3.68793 c -1.0488,-2.02836 -1.9071,-5.38356 -1.9071,-7.45602 0,-4.96882 -1.456,-5.58583 -19.375,-8.21045 -8.25,-1.2084 -16.9066,-2.97708 -19.2367,-3.93039 -3.553,-1.45354 -36.6415,-1.72693 -205.0001,-1.69376 -176.2157,0.0347 -201.652,-0.1941 -208.0325,-1.87138 -3.9981,-1.051 -23.288,-8.93972 -42.8665,-17.5305 -19.5785,-8.59076 -36.3408,-15.61957 -37.2496,-15.61957 -0.9088,0 -3.2605,1.26562 -5.226,2.8125 -3.5223,2.77213 -4.176,2.81765 -45.5507,3.17147 l -41.9771,0.35896 -4.9304,-3.48396 -4.9304,-3.48397 -53.75,-0.625 -53.75,-0.625 -26.875,-12.65735 c -14.7812,-6.96154 -29.4062,-13.04029 -32.5,-13.50835 -3.0937,-0.46805 -6.8448,-1.45217 -8.3357,-2.1869 -1.7832,-0.87882 -5.2048,-0.96749 -10,-0.25917 -4.0091,0.5922 -8.9768,0.9393 -11.0393,0.77135 -4.4721,-0.36418 -18.8395,-6.15502 -32.0233,-12.90717 -10.3989,-5.32581 -13.0711,-5.66139 -24.1026,-3.02683 -4.0568,0.96884 -9.1193,1.44097 -11.25,1.04917 -5.5959,-1.02899 -92.0332,-41.2683 -95.7491,-44.57424 -1.7187,-1.52913 -5.7482,-4.59043 -8.9543,-6.80288 -5.6067,-3.86898 -6.3037,-4.02263 -18.2463,-4.02263 -10.3765,0 -12.8639,-0.38774 -15.1376,-2.35965 -1.5424,-1.33774 -5.724,-2.73489 -9.6555,-3.2261 -3.8142,-0.47655 -8.8454,-1.66472 -11.1805,-2.64035 -2.335,-0.97565 -7.8866,-1.7739 -12.3369,-1.7739 -10.9799,0 -11.8826,-2.28273 -1.0893,-2.75453 8.3035,-0.36296 8.4837,-0.44327 8.8856,-3.96025 0.2257,-1.97437 -0.056,-4.05607 -0.6259,-4.62599 -0.57,-0.56991 -9.1501,-1.61226 -19.0671,-2.31632 -12.042,-0.85493 -18.3668,-1.80951 -19.0424,-2.87401 -1.6609,-2.6171 -1.1844,-7.24569 0.8252,-8.01687 2.9485,-1.13142 2.1988,-3.97025 -1.5625,-5.917 -1.8906,-0.97855 -7.2809,-4.93048 -11.9784,-8.7821 l -8.541,-7.00293 -144.7028,0 c -136.2589,0 -144.8131,-0.12765 -146.5929,-2.1875 -3.9624,-4.58602 -33.4974,-55.91664 -33.4974,-58.21722 0,-4.01512 7.2621,-15.48982 10.3223,-16.30998 1.5415,-0.41314 29.0446,-0.75885 61.1179,-0.76824 l 58.3153,-0.0171 1.2432,-3.56638 c 0.9603,-2.7548 5.895,-6.51715 21.6848,-16.53324 l 20.4415,-12.96686 10,-0.65426 10,-0.65426 0.625,-40 c 0.3438,-22 1.0331,-38.59375 1.5319,-36.875 0.9676,3.33446 5.969,82.07041 5.9685,93.96026 -5e-4,10.55524 0.3785,11.03974 8.6371,11.03974 6.0669,0 7.9367,-0.60088 12.6414,-4.0625 l 5.5214,-4.0625 65.6624,-0.88013 c 67.7848,-0.90856 87.6476,-1.8524 90.0736,-4.2801 0.775,-0.77562 1.2246,-3.02562 0.9989,-5 -0.4002,-3.50207 -0.6239,-3.60505 -9.1602,-4.21477 -7.5675,-0.54054 -8.1799,-0.75169 -4.5312,-1.5625 2.3203,-0.51563 7.209,-0.9375 10.8637,-0.9375 3.6547,0 6.9433,-0.48273 7.308,-1.07273 0.3646,-0.59 4.8574,-1.74937 9.9841,-2.57639 5.1266,-0.82701 9.9458,-2.25643 10.7094,-3.17647 1.5493,-1.86674 -0.9709,-1.62653 73.7589,-7.03061 49.8008,-3.60135 53.3581,-3.71294 57.3705,-1.79958 5.1704,2.46559 7.9371,0.88549 5.4428,-3.10846 -0.8421,-1.34851 -1.5312,-5.7943 -1.5312,-9.87951 0,-7.48039 -1.8996,-11.35625 -5.5659,-11.35625 -0.9006,0 -3.2069,-2.10938 -5.1253,-4.6875 -1.9184,-2.57813 -3.7173,-4.96875 -3.9975,-5.3125 -0.2803,-0.34375 -8.2943,-0.90625 -17.8089,-1.25 -15.3824,-0.55574 -22.191,-1.83195 -17.9322,-3.3612 0.7949,-0.28542 3.0755,-2.07695 5.0681,-3.9812 2.5144,-2.40284 6.0883,-3.969 11.6798,-5.11828 4.4313,-0.91081 9.4632,-2.419 11.1819,-3.35154 1.7188,-0.93252 31.25,-6.02401 65.625,-11.31441 l 62.5,-9.6189 98.125,-0.0648 c 100.5996,-0.0664 123.8061,0.75055 141.25,4.97229 4.4688,1.08151 12.3438,2.43957 17.5,3.01791 5.1563,0.57834 20.625,4.40951 34.375,8.51371 l 25,7.46219 -0.2137,6.10958 c -0.1958,5.5984 -0.7048,6.5443 -6.0829,11.3052 -4.3511,3.8517 -9.6308,6.60001 -20.4113,10.625 l -14.5421,5.4294 -59.6885,0.625 c -38.2268,0.40027 -59.8005,1.07445 -60,1.875 -0.1985,0.79671 11.2475,1.47665 31.5635,1.875 34.3644,0.67381 33.9979,1.43585 -1.875,3.89816 -30.4955,2.09321 -34.9315,2.70336 -35.2755,4.85184 -0.1651,1.03125 5.4932,7.92187 12.5739,15.3125 l 12.8741,13.4375 88.9118,0 88.9119,0 3.3288,3.085 c 1.8308,1.69675 4.5316,3.44883 6.0019,3.89351 8.6469,2.61539 31.83,12.47917 34.0547,14.48942 2.4285,2.19439 4.8676,2.3764 31.6083,2.35862 l 28.9768,-0.0192 4.1346,-3.15365 4.1347,-3.15364 42.3148,0 42.3148,0 4.4528,3.08575 4.4527,3.08575 70.2915,0.1195 c 38.6604,0.0656 70.8078,-0.19956 71.4387,-0.58945 1.7997,-1.11228 27.9678,-2.57135 44.4987,-2.48115 8.25,0.045 22.5938,0.0788 31.875,0.0751 9.2813,-0.004 23.3438,0.0469 31.25,0.1125 7.9063,0.0656 52.7764,0.35955 99.7115,0.65323 l 85.3365,0.53395 6.198,2.90302 c 6.0793,2.84737 6.3005,2.86129 11.5386,0.72638 19.3792,-7.89856 25.7822,-9.47453 38.4943,-9.47453 9.3292,0 14.3521,0.63915 19.6465,2.5 6.6284,2.32969 10.3094,2.49964 54.0312,2.49462 40.9672,-0.005 50.6444,0.38263 76.2934,3.05377 16.1563,1.68255 38.7744,4.00161 50.2625,5.15349 l 20.8874,2.09432 5.4637,-3.2019 5.4637,-3.2019 38.0238,1.77055 c 20.9132,0.97379 39.8089,1.7855 41.9905,1.8038 2.4635,0.0206 5.5087,1.33079 8.036,3.4574 l 4.0694,3.42417 31.964,1.47943 c 41.4845,1.9201 48.402,1.98522 46.8578,0.44102 -0.6772,-0.67718 -10.7741,-2.69578 -22.4376,-4.48577 -16.8718,-2.58933 -22.1142,-3.87063 -25.6485,-6.26877 -2.4431,-1.65783 -5.9957,-3.01423 -7.8946,-3.01423 -8.8385,0 -11.5606,-6.53635 -3.6006,-8.64596 19.8757,-5.26767 34.0267,-6.71329 70.7817,-7.23081 27.4877,-0.38704 32.7833,-0.16771 35.2685,1.46067 2.1098,1.38237 6.2378,1.9161 14.8195,1.9161 11.2925,0 11.931,0.14249 12.6035,2.8125 0.7043,2.79638 0.8633,2.81419 27.7353,3.10792 26.7447,0.29232 31.604,0.72738 31.604,2.82958 0,1.95064 -4.0746,2.3887 -28.75,3.09094 -23.9204,0.68076 -24.4216,0.75048 -26.875,3.7383 -1.67,2.03381 -4.3675,3.32205 -8.125,3.88029 -6.5425,0.97196 -11.25,3.56395 -11.25,6.19429 0,1.44968 1.8505,1.84618 8.6162,1.84618 6.5058,0 8.7926,0.45927 9.3358,1.875 0.446,1.16227 2.3489,1.875 5.006,1.875 3.3204,0 6.3556,1.61982 13.4679,7.1875 l 9.1815,7.1875 25.0087,0.625 25.0089,0.625 0.3697,9.18387 0.3697,9.18386 -6.494,6.44114 c -3.5718,3.54262 -29.4054,31.75363 -57.408,62.69113 -28.0028,30.9375 -52.528,57.74599 -54.5007,59.57443 -2.9391,2.7242 -6.5207,3.89514 -19.8367,6.48534 -34.2165,6.6557 -43.125,8.6246 -43.125,9.53126 0,0.51546 4.9219,1.24807 10.9375,1.62802 9.6385,0.60878 11.9766,1.26028 19.6875,5.48588 l 8.75,4.79507 63.75,0.88025 c 73.501,1.01489 120.1354,2.10572 140.625,3.28934 14.3146,0.82693 14.3736,0.84326 14.0336,3.88885 -0.1877,1.68215 -1.1721,3.97644 -2.1875,5.09843 -2.6355,2.91217 -2.3497,3.51705 2.2164,4.6922 3.5765,0.92046 4.1099,1.61277 4.458,5.78641 0.2889,3.46319 -0.4716,6.051 -2.8218,9.60225 -5.6456,8.53119 -6.3757,8.63727 -59.4483,8.63727 -53.556,0 -52.5765,-0.18141 -46.2414,8.56413 l 3.7566,5.18587 44.8395,0 c 50.4728,0 51.4785,0.15215 57.0936,8.63728 2.3502,3.55125 3.1107,6.13906 2.8218,9.60225 -0.3481,4.17364 -0.8815,4.86595 -4.458,5.78641 -4.5661,1.17515 -4.8519,1.78003 -2.2164,4.6922 1.0154,1.12199 1.9998,3.41628 2.1875,5.09843 0.3404,3.04906 0.2989,3.06035 -13.5362,3.68343 -9.7507,0.43914 -14.547,1.18259 -16.1288,2.5 -1.9265,1.60449 -12.997,1.96518 -76.731,2.5 l -74.4797,0.625 -1.6472,3.4375 -1.6471,3.4375 -47.4816,0 c -45.3798,0 -47.7036,-0.11325 -52.4976,-2.55901 -4.9348,-2.51751 -5.7094,-2.53582 -47.7628,-1.12955 -34.3461,1.14855 -44.0976,1.85959 -49.6216,3.6182 -6.0556,1.9279 -10.0034,2.08514 -33.125,1.31934 -15.8042,-0.52344 -44.4057,-0.21571 -71.875,0.77331 -41.9415,1.5101 -84.9322,1.89235 -98.75,0.87804 z m 365.9115,-303.65554 c -0.4154,-0.41536 -1.4935,-0.45976 -2.3959,-0.0986 -0.9971,0.39902 -0.701,0.69522 0.7553,0.7552 1.3176,0.0542 2.056,-0.24116 1.6406,-0.65653 z"
         style="fill:#000000;fill-opacity:1" />
    </g>
  </g>
</svg>
