<?xml version="1.0" encoding="UTF-8" standalone="no"?>
<!-- Created with Inkscape (http://www.inkscape.org/) -->

<svg
   xmlns:dc="http://purl.org/dc/elements/1.1/"
   xmlns:cc="http://creativecommons.org/ns#"
   xmlns:rdf="http://www.w3.org/1999/02/22-rdf-syntax-ns#"
   xmlns:svg="http://www.w3.org/2000/svg"
   xmlns="http://www.w3.org/2000/svg"
   xmlns:sodipodi="http://sodipodi.sourceforge.net/DTD/sodipodi-0.dtd"
   xmlns:inkscape="http://www.inkscape.org/namespaces/inkscape"
   width="1149.998"
   height="243.75974"
   id="svg2"
   version="1.1"
   inkscape:version="0.48.5 r10040"
   sodipodi:docname="Javelin.svg">
  <defs
     id="defs4" />
  <sodipodi:namedview
     id="base"
     pagecolor="#ffffff"
     bordercolor="#666666"
     borderopacity="1.0"
     inkscape:pageopacity="0.0"
     inkscape:pageshadow="2"
     inkscape:zoom="0.98994949"
     inkscape:cx="667.52877"
     inkscape:cy="187.40715"
     inkscape:document-units="px"
     inkscape:current-layer="g2996"
     showgrid="false"
     fit-margin-top="0"
     fit-margin-left="0"
     fit-margin-right="0"
     fit-margin-bottom="0"
     inkscape:window-width="1920"
     inkscape:window-height="1018"
     inkscape:window-x="-8"
     inkscape:window-y="-8"
     inkscape:window-maximized="1"
     showguides="true"
     inkscape:guide-bbox="true" />
  <metadata
     id="metadata7">
    <rdf:RDF>
      <cc:Work
         rdf:about="">
        <dc:format>image/svg+xml</dc:format>
        <dc:type
           rdf:resource="http://purl.org/dc/dcmitype/StillImage" />
        <dc:title />
      </cc:Work>
    </rdf:RDF>
  </metadata>
  <g
     inkscape:label="Layer 1"
     inkscape:groupmode="layer"
     id="layer1"
     transform="translate(-780.65275,797.37925)">
    <g
       id="g2996">
      <path
         style="fill:#000000;fill-opacity:1"
         d="m 1131.623,-556.08402 c -8.516,-4.3912 -15.098,-6.69057 -19.152,-6.69057 -3.5918,0 -3.8086,-0.0904 -3.8086,-1.58792 0,-1.5788 -0.047,-1.5899 -8.3642,-1.93316 -4.6004,-0.1899 -10.1355,-0.54848 -12.3004,-0.79686 -2.1649,-0.24839 -9.4906,-0.57178 -16.2792,-0.71865 -11.204,-0.24238 -12.3232,-0.37042 -12.1267,-1.38732 0.1956,-1.01194 1.3571,-1.10931 12.0084,-1.00654 7.0623,0.0682 12.1086,-0.14899 12.5813,-0.54131 0.4341,-0.3603 2.4254,-0.5793 4.425,-0.48667 1.9996,0.0926 3.8369,-0.0328 4.0828,-0.27872 0.246,-0.24591 3.0605,-0.44712 6.2545,-0.44712 l 5.8074,0 -0.4117,-1.64006 c -0.4868,-1.93949 -0.5259,-1.93541 5.8726,-0.61218 2.7607,0.57093 5.3595,0.78965 5.8457,0.49202 0.4816,-0.29472 2.1347,-1.91941 3.6735,-3.61044 2.4078,-2.64584 2.697,-3.26334 2.0735,-4.42813 -0.4816,-0.90013 -1.3759,-1.35354 -2.6693,-1.35354 l -1.9449,0 0,-4.63997 0,-4.63997 -6.8919,6.11602 c -3.7905,3.3638 -7.9972,6.89319 -9.3483,7.84309 l -2.4564,1.72708 -17.0565,-0.5479 c -44.4361,-1.42739 -54.2022,-2.00014 -67.5699,-3.96276 -17.10815,-2.51174 -28.89966,-4.11421 -42.76926,-5.81229 -6.20409,-0.75959 -16.97921,-2.57453 -23.94469,-4.03319 -6.96548,-1.45867 -18.67418,-3.77552 -26.0193,-5.14855 l -13.35481,-2.49642 -25.91597,12.71757 c -14.25378,6.99467 -26.47326,12.71758 -27.15437,12.71758 -2.30143,0 -1.25829,-1.18077 3.18972,-3.61059 24.31393,-13.28194 40.2704,-22.26701 39.78573,-22.40328 -0.65359,-0.18377 -29.78534,-2.19496 -31.79357,-2.19496 -0.69738,0 -1.26796,0.44282 -1.26796,0.98403 0,0.71356 0.73411,0.98403 2.67093,0.98403 1.46901,0 3.07344,0.40251 3.5654,0.89446 0.49195,0.49196 2.68493,1.09703 4.87328,1.34461 2.18835,0.24759 3.97882,0.7417 3.97882,1.09802 0,0.81424 -18.2563,0.23933 -34.113,-1.07423 -6.31418,-0.52308 -14.66731,-1.08939 -18.56249,-1.25849 -8.75998,-0.3803 -17.64588,-1.53206 -21.02903,-2.7257 -1.40726,-0.49651 -3.22799,-0.90275 -4.04605,-0.90275 -1.24971,0 -2.77189,-1.69861 -2.11281,-2.35769 0.11101,-0.11101 3.20737,0.0993 6.88078,0.4673 8.66917,0.86854 10.39717,0.15213 5.55341,-2.30239 -3.32906,-1.68697 -3.57889,-1.71139 -17.50349,-1.71139 l -14.12622,0 0,-17.0565 0,-17.0565 15.53734,0 c 14.63383,0 15.70948,-0.0833 18.49758,-1.43303 1.62814,-0.78817 2.61316,-1.54873 2.18893,-1.69013 -0.42423,-0.14142 -3.92847,0.0606 -7.78721,0.449 -9.09538,0.91539 -9.44778,0.90643 -9.01209,-0.22895 0.19735,-0.51427 1.59032,-1.14085 3.0955,-1.39237 1.50518,-0.25154 2.91549,-0.73867 3.13401,-1.08252 0.55262,-0.86954 13.17804,-2.48117 22.23535,-2.83834 4.14932,-0.16362 12.78875,-0.76592 19.19873,-1.33845 12.0476,-1.07608 17.43836,-0.7993 21.80247,1.1194 l 1.96806,0.86526 -3.44411,0.21124 c -1.89425,0.11619 -3.44409,0.52483 -3.44409,0.90811 0,0.76762 15.25196,0.36815 32.47294,-0.85051 7.3997,-0.52366 11.14195,-1.12017 15.08845,-2.40513 4.30788,-1.40263 6.95241,-1.77338 14.76046,-2.06935 l 9.51228,-0.36059 0.20154,-3.53777 c 0.23334,-4.0967 -0.31115,-4.89065 -3.28712,-4.79268 -1.18943,0.0392 -5.40987,-0.79178 -9.37882,-1.8465 -3.96891,-1.05473 -8.83986,-2.34101 -10.82432,-2.8584 -1.98445,-0.51739 -6.8554,-1.83279 -10.82431,-2.9231 -3.96891,-1.09033 -10.38178,-2.63843 -14.25081,-3.44024 l -7.03459,-1.45782 -1.05584,-2.76469 -1.05585,-2.76469 -6.99748,-0.35712 c -6.94985,-0.35471 -9.79368,0.0298 -6.66391,0.90085 0.8984,0.25005 2.66667,0.49588 3.92951,0.5463 l 2.29607,0.0917 -1.75624,0.95365 c -2.22123,1.20616 -9.24028,2.21939 -13.0459,1.88323 -10.53968,-0.93099 -26.48823,-2.09515 -29.80717,-2.17577 -5.3906,-0.13095 -20.26101,-2.03851 -20.66461,-2.65083 -0.1804,-0.2737 -1.50817,-0.71493 -2.95058,-0.9805 -2.3108,-0.42544 -3.56755,-1.24543 -3.59957,-2.34862 -0.005,-0.19037 3.74588,0.0338 8.33644,0.49795 4.59057,0.46424 8.64969,0.74041 9.02027,0.6137 0.37058,-0.1267 -0.5691,-0.86739 -2.08817,-1.64596 -2.57804,-1.32134 -3.71379,-1.4162 -17.0565,-1.42455 -7.862,-0.005 -14.95877,-0.18697 -15.7706,-0.40454 l -1.47604,-0.39556 0,-16.65198 0,-16.65197 2.78808,-0.0278 c 1.53345,-0.0153 7.86682,-0.003 14.07418,0.0264 10.92731,0.0525 11.39387,-4.1e-4 14.67617,-1.66368 5.04246,-2.55521 3.62157,-3.24463 -5.08943,-2.46944 -3.90304,0.34733 -7.17719,0.57632 -7.27588,0.50888 -0.0987,-0.0674 0.002,-0.59353 0.22211,-1.16907 0.24154,-0.62943 1.55482,-1.21938 3.29554,-1.48042 1.59169,-0.2387 2.89398,-0.64601 2.89398,-0.90515 0,-0.58741 19.26345,-2.64226 24.60072,-2.62417 2.16487,0.008 8.80706,-0.43294 14.76043,-0.97839 5.95338,-0.54543 14.0061,-0.987 17.89494,-0.98125 3.88885,0.006 7.35755,-0.16687 7.70823,-0.38361 1.86412,-1.15208 -0.34164,-5.56478 -2.78164,-5.56478 -0.56093,0 -1.16489,-0.55459 -1.34215,-1.23243 -0.36967,-1.4136 -3.65292,-1.70601 -27.54755,-2.45337 -10.86272,-0.33975 -13.6124,-0.6068 -13.6124,-1.32206 0,-0.71311 1.77654,-0.89434 8.69225,-0.8867 13.20193,0.0146 29.61207,-1.25596 36.24507,-2.8063 4.78836,-1.11918 8.25976,-1.39862 18.36854,-1.47861 6.8554,-0.0543 12.70805,0.0311 13.00589,0.18959 0.29783,0.15852 2.5119,0.40152 4.92014,0.53999 7.34411,0.4223 9.95478,0.92481 9.95478,1.91614 0,0.54628 -0.98993,1.07863 -2.46007,1.32296 -4.22027,0.70138 -4.41827,0.83579 -3.20539,2.176 1.95266,2.15767 1.31714,2.72276 -3.0621,2.72276 -3.90156,0 -4.2633,0.13464 -6.39619,2.38068 l -2.26076,2.38068 2.62408,-0.36497 c 1.44324,-0.20073 5.42856,-0.99328 8.85626,-1.76122 14.066,-3.15132 15.4258,-3.29113 32.03863,-3.29388 17.84071,-0.002 31.11031,-1.31236 66.03629,-6.51626 17.49,-2.60599 26.0273,-3.18266 64.8392,-4.37966 7.1576,-0.22076 12.7665,-0.61191 12.4644,-0.86922 -0.3022,-0.25733 -4.5347,-2.21442 -9.4056,-4.34911 -8.4306,-3.69469 -9.1716,-3.89724 -15.4165,-4.21445 -6.1921,-0.31453 -6.572,-0.41625 -6.7704,-1.81332 -0.1441,-1.01529 0.2159,-1.63772 1.1465,-1.98196 1.0583,-0.3915 -2.2855,-2.0967 -15.2062,-7.75465 -11.1466,-4.88096 -16.6324,-7.61173 -16.7752,-8.35035 -0.3962,-2.05093 3.6082,-1.20737 16.8233,3.54393 7.1004,2.55281 16.2297,5.81783 20.2875,7.25561 l 7.3777,2.61413 19.847,-4.38951 c 14.8772,-3.29031 20.9971,-4.937 24.4393,-6.57591 2.5257,-1.20252 7.1007,-2.82616 10.1668,-3.60807 3.5966,-0.91724 5.8904,-1.87266 6.4648,-2.69275 0.713,-1.01787 1.5627,-1.24121 4.2657,-1.12112 1.8565,0.0825 3.7444,0.43407 4.1955,0.78133 0.5213,0.40146 1.1186,0.40326 1.64,0.005 1.1193,-0.85504 6.9363,-1.09606 7.9068,-0.32759 0.432,0.34209 3.4021,0.82628 6.6003,1.07597 6.5949,0.51489 16.5254,2.85803 21.2084,5.00419 2.4506,1.12311 4.8123,1.51818 10.5941,1.77222 7.4037,0.32531 7.439,0.33461 7.1431,1.88211 -0.2794,1.46165 -0.1077,1.55522 2.8532,1.55522 1.7328,0 3.3328,0.29521 3.5558,0.65602 0.2237,0.36192 3.1647,0.65602 6.5602,0.65602 3.3955,0 6.3365,0.2941 6.5602,0.65602 0.2547,0.41202 7.223,0.65602 18.7353,0.65602 l 18.3297,0 0,1.64004 c 0,1.90565 2.1783,1.73614 -21.099,1.64201 -10.1659,-0.0412 -15.6693,0.1741 -15.9472,0.62365 -0.2466,0.39898 -3.0016,0.68643 -6.579,0.68643 -3.3955,0 -6.3365,0.2941 -6.5602,0.65603 -0.2255,0.36491 -3.2496,0.65601 -6.8151,0.65601 l -6.4096,0 -4.0479,3.66315 c -3.1971,2.89311 -4.048,4.06528 -4.048,5.57616 0,1.05216 0.2583,1.91302 0.574,1.91302 0.3157,0 0.7512,0.88562 0.9677,1.96806 l 0.3936,1.96806 9.6927,0.007 c 5.331,0.004 10.7997,0.19021 12.1529,0.41387 1.9727,0.32608 5.3486,2.86096 17.0358,12.79203 8.0166,6.81196 14.8007,12.30849 15.0758,12.2145 0.2752,-0.094 4.0332,-3.12298 8.3512,-6.73108 5.5904,-4.67137 7.8607,-6.97878 7.8847,-8.01398 0.018,-0.79958 0.5284,-2.49117 1.1331,-3.75907 1.2089,-2.53518 1.422,-2.62185 14.6249,-5.94607 3.7774,-0.95109 7.2396,-1.93715 7.6937,-2.19128 0.8539,-0.47786 -6.6024,-2.94572 -11.1847,-3.70189 -1.3899,-0.22936 -2.419,-0.5251 -2.2869,-0.6572 0.1321,-0.13211 6.1494,-1.44902 13.3716,-2.92647 10.8505,-2.21965 14.9727,-3.41203 23.7311,-6.86427 l 10.5996,-4.17801 17.425,0.29139 17.425,0.29137 0.063,-2.16488 c 0.035,-1.19067 0.032,-5.85498 -0.01,-10.36511 -0.038,-4.51014 0.2024,-9.08587 0.536,-10.1683 l 0.6066,-1.96806 0.1025,2.29607 c 0.057,1.26284 0.1183,5.89483 0.1377,10.29332 0.027,6.15866 0.2947,8.59681 0.8344,9.10988 1.5944,1.51596 2.4616,1.60323 4.3629,1.86566 1.8462,0.24491 3.5083,0.29373 3.6935,0.10848 0.1852,-0.18524 0.4878,-5.07093 0.6725,-10.85707 0.4791,-15.01617 1.7544,-13.55018 2.5473,2.92812 0.2083,4.32973 0.492,7.99524 0.6305,8.14558 0.1385,0.15033 0.2518,-4.3516 0.2518,-10.00429 0,-6.41442 0.2466,-10.27764 0.656,-10.27764 0.3608,0 0.656,-1.64107 0.656,-3.64683 0,-2.00575 0.2505,-3.49204 0.5566,-3.30286 0.3061,0.18916 0.7203,6.22819 0.9205,13.42004 l 0.3639,13.07609 2.5237,2.34538 2.5236,2.34538 -3.9034,0.0177 c -2.2377,0.0102 -3.6373,0.25966 -3.2801,0.58466 1.7178,1.56259 18.8222,4.24796 38.3432,6.01984 4.1486,0.37656 9.8067,1.26266 12.5736,1.9691 4.601,1.17473 7.711,1.29761 36.4103,1.4386 l 31.3796,0.15416 -30.5049,0.33786 c -16.7777,0.18581 -29.5454,0.55188 -28.3729,0.81346 2.5442,0.56755 2.6441,1.11079 0.5634,3.06547 -1.5853,1.48933 -6.4706,2.52021 -31.5602,6.65962 -7.9284,1.30806 -11.1825,2.23505 -11.8955,3.38855 -0.2242,0.36293 0.6777,0.57602 2.1462,0.50704 4.6555,-0.21871 12.2681,0.004 11.9234,0.34883 -0.1875,0.18739 -4.0898,0.35018 -8.672,0.36178 -9.1612,0.0232 -10.2307,0.21871 -10.2307,1.87062 0,0.95723 -1.48,1.29465 -10.147,2.31312 -5.5809,0.65584 -11.348,1.00039 -12.8157,0.76569 -2.497,-0.39929 -3.7753,0.14906 -19.8658,8.52137 -9.4584,4.92146 -17.3262,9.06562 -17.484,9.20922 -0.1577,0.14362 12.9791,0.14044 29.1928,-0.008 16.2139,-0.1475 34.4245,-0.3007 40.468,-0.34044 6.0436,-0.0398 10.9884,-0.32216 10.9884,-0.62762 0,-0.30545 -0.5399,-1.04395 -1.1997,-1.64108 -1.0215,-0.92445 -2.9297,-1.0857 -12.847,-1.0857 -8.287,0 -11.5769,-0.21143 -11.4031,-0.73282 0.1343,-0.40304 4.6608,-2.34805 10.0589,-4.32223 l 9.8147,-3.58977 16.7285,-0.1059 c 12.6359,-0.08 17.0919,0.10157 18.2137,0.74213 0.8169,0.46642 4.507,1.00605 8.2002,1.1992 3.6933,0.19314 7.3055,0.6324 8.0271,0.97611 0.7216,0.34372 7.6551,0.68971 15.4077,0.76886 12.383,0.12644 14.1205,0.27267 14.2995,1.20355 0.1804,0.93767 -1.3665,1.10675 -13.4396,1.46912 -23.6628,0.71022 -27.5892,1.05779 -27.9599,2.47496 -0.178,0.68057 -0.9025,1.22847 -1.6245,1.22847 -0.7168,0 -1.4824,0.46687 -1.7013,1.03747 -0.35,0.91194 0.4948,1.02397 6.982,0.92583 4.0591,-0.0614 8.8561,0.21656 10.6601,0.61766 1.8041,0.4011 11.6936,1.15648 21.9767,1.67861 10.2831,0.52213 29.6193,1.54202 42.9693,2.26642 13.35,0.7244 33.2766,1.78096 44.2813,2.34791 11.0047,0.56695 27.8316,1.43654 37.3931,1.93243 150.2555,7.7927 177.9034,9.08203 178.3755,8.31825 0.3536,-0.57241 2.4679,-0.75011 7.3316,-0.6162 5.8836,0.16199 6.8357,0.34146 6.843,1.2899 0.01,0.60596 0.226,1.31938 0.492,1.58539 0.2659,0.266 0.4835,3.68174 0.4835,7.59052 0,5.75819 0.1799,7.10687 0.9476,7.10687 0.5211,0 5.761,0.43333 11.6444,0.96293 33.4091,3.00749 102.4813,8.72801 123.204,10.20369 5.5926,0.39826 11.423,0.87126 12.9565,1.05112 l 2.7881,0.32703 0,5.49725 c 0,3.20885 -0.2933,5.67847 -0.7045,5.93258 -0.3874,0.23943 -12.7124,1.42177 -27.3888,2.62742 -14.6764,1.20564 -30.2269,2.50527 -34.5567,2.88806 -7.9658,0.70424 -50.7996,4.28998 -61.6657,5.16221 -4.122,0.33087 -5.8547,0.71705 -5.7402,1.27936 0.1217,0.59769 -1.6972,0.80543 -7.0522,0.80543 -6.7789,0 -7.2162,0.0795 -7.2162,1.31204 0,1.23252 0.4373,1.31204 7.2162,1.31204 4.3735,0 7.2162,0.25843 7.2162,0.65602 0,0.42466 7.9816,0.65601 22.6326,0.65601 22.1954,0 22.6327,0.0253 22.6327,1.31205 0,1.2027 -0.4373,1.31203 -5.2481,1.31203 -4.2277,0 -5.2482,0.19134 -5.2482,0.98404 0,0.97343 -7.6599,1.20927 -42.0944,1.29605 -3.4877,0.009 -6.5168,0.19145 -6.7314,0.4059 -0.2146,0.21446 11.4953,0.61653 26.0219,0.89351 14.5266,0.27696 32.3162,0.70921 39.5324,0.96055 l 13.1204,0.45697 -11.9724,0.12557 c -15.2309,0.15975 -16.2023,1.33359 -1.312,1.58536 9.6241,0.16273 10.4053,0.25961 8.0363,0.99662 -1.8983,0.59057 -9.5284,0.81738 -27.5857,0.82002 -19.0911,0.002 -25.1541,0.19651 -25.7804,0.82369 -0.5598,0.5605 -3.9116,0.89073 -10.5908,1.04346 -7.6721,0.17542 -9.8151,0.41927 -9.9726,1.13481 -0.1105,0.50125 -2.5624,2.36666 -5.4489,4.14535 l -5.2482,3.234 -0.1915,-4.86082 -0.1916,-4.86081 -4.055,0 c -2.2302,0 -8.7862,0.29157 -14.5688,0.64794 -5.7827,0.35636 -19.5178,1.09698 -30.5225,1.64582 -47.0491,2.34648 -101.4505,5.18284 -118.4115,6.17371 l -9.1843,0.53655 -36.737,18.2001 -36.7371,18.2001 -9.1084,1.3305 -9.1082,1.3305 -8.0391,5.81627 c -4.4215,3.19894 -8.6719,5.81626 -9.4454,5.81626 -1.3126,0 -2.8831,2.3341 -2.273,3.37823 0.1369,0.23437 5.5637,0.64107 12.0594,0.90378 6.4956,0.26271 11.8103,0.73517 11.8103,1.04991 0,0.31474 -3.3211,0.58742 -7.3802,0.60594 -12.4934,0.057 -15.5812,0.61529 -18.842,3.40636 -3.2662,2.79566 -7.2718,3.70982 -11.1564,2.54599 -2.869,-0.8596 -7.7006,-4.96218 -6.626,-5.62631 0.7735,-0.47801 0.9391,-2.92834 0.3091,-4.57019 -0.3549,-0.92491 -3.5989,-1.03769 -29.8488,-1.03769 l -29.4507,0 0,1.55805 c 0,1.71486 1.8524,2.37807 6.6421,2.37807 1.3982,0 2.5421,0.2952 2.5421,0.65602 0,0.36081 -1.3092,0.65602 -2.9093,0.65602 -3.6482,0 -5.6568,0.75351 -7.8469,2.94369 -2.0894,2.08943 -5.5662,3.6165 -8.234,3.6165 -5.2336,0 -10.8184,-4.30113 -10.1199,-7.79383 0.3826,-1.91272 -0.762,-6.63551 -1.6096,-6.64194 -0.2426,-0.002 -8.2642,-1.53532 -17.8257,-3.40773 l -17.3845,-3.40438 -69.8249,-0.20043 -69.8249,-0.20041 -10.4633,-1.96801 c -8.5581,-1.60968 -12.1789,-1.96802 -19.8857,-1.96802 -7.9381,0 -9.4224,0.15501 -9.4224,0.98403 0,0.71068 -0.729,0.98402 -2.6241,0.98402 -1.4432,0 -2.6241,0.17059 -2.6241,0.37907 0,0.20849 1.9927,2.56485 4.4282,5.23635 l 4.4281,4.85728 14.2684,0.0118 c 18.4106,0.0153 18.809,0.68872 2.624,4.43527 -6.4043,1.48251 -14.1535,3.2896 -17.2204,4.01575 -3.0669,0.72617 -6.9481,1.49962 -8.6249,1.71879 -2.828,0.36965 -3.0785,0.55732 -3.4603,2.59218 -0.2837,1.5125 -0.8649,2.31931 -1.8714,2.59822 -3.0562,0.84685 -16.1509,2.34957 -17.1462,1.96764 -0.6791,-0.26059 -1.0422,-0.0416 -1.0422,0.62863 0,1.90011 -6.266,1.10574 -11.1523,-1.41381 z m -27.3098,-34.49569 c 3.6549,-2.66444 7.3833,-5.4591 8.2853,-6.21036 l 1.6401,-1.36591 -1.6961,-0.0218 c -1.1636,-0.0149 -3.8847,1.72873 -8.6678,5.55434 -3.8344,3.06689 -7.2779,5.57616 -7.6522,5.57616 -0.3743,0 -0.6805,0.29521 -0.6805,0.65602 0,1.56263 2.5576,0.34132 8.7712,-4.18842 z M 871.37807,-728.67972 c 0.99493,-0.99493 -0.52563,-1.35646 -3.98301,-0.94699 -2.5761,0.30511 -3.23749,0.61205 -2.94743,1.3679 0.28913,0.75348 1.0523,0.88155 3.36436,0.56465 1.64472,-0.22543 3.24945,-0.66893 3.56608,-0.98556 z m 238.46523,-25.12768 c 0.4329,-0.43297 0.7871,-1.84997 0.7871,-3.14889 0,-3.6658 -0.6566,-3.93612 -9.5614,-3.93612 -13.6093,0 -13.8063,0.2984 -2.8305,4.28753 10.7354,3.90176 10.546,3.85612 11.6048,2.79748 z"
         id="path3002"
         inkscape:connector-curvature="0"
         sodipodi:nodetypes="cssssscscsssccscccscccsccssssscsssssssssssssssssscccsssssssssscssssscsssssscccssscssssscssscscccscssscsssscsssssssscsssssscsscssssscsscsscssssscccssscscscscsscscscsssscsssssccsssssscccccccccscccscssscscccccssscsscscscssssscssssscccssssssscscsssssscsccssssscscssscsssssssssssscsssscscscccsssscccccsscsssssscscssssssccscccsssssscsssssscscccsccsssccssssscsssc" />
    </g>
  </g>
</svg>
