<?xml version="1.0" encoding="UTF-8" standalone="no"?>
<svg
   xmlns:dc="http://purl.org/dc/elements/1.1/"
   xmlns:cc="http://creativecommons.org/ns#"
   xmlns:rdf="http://www.w3.org/1999/02/22-rdf-syntax-ns#"
   xmlns:svg="http://www.w3.org/2000/svg"
   xmlns="http://www.w3.org/2000/svg"
   version="1.1"
   id="svg2"
   viewBox="0 0 480.00455 101.74335"
   width="1440.01365">
  <defs
     id="defs4" />
  <metadata
     id="metadata7">
    <rdf:RDF>
      <cc:Work
         rdf:about="">
        <dc:format>image/svg+xml</dc:format>
        <dc:type
           rdf:resource="http://purl.org/dc/dcmitype/StillImage" />
        <dc:title></dc:title>
      </cc:Work>
    </rdf:RDF>
  </metadata>
  <g
     transform="translate(-780.65273,655.36292)"
     id="layer1">
    <g
       id="g2996">
      <path
         id="path3002"
         d="m 927.14493,-554.64818 c -3.55451,-1.83285 -6.30179,-2.79259 -7.99389,-2.79259 -1.49919,0 -1.58968,-0.0377 -1.58968,-0.66279 0,-0.65897 -0.0196,-0.66361 -3.49115,-0.80688 -1.92017,-0.0793 -4.23048,-0.22893 -5.13409,-0.3326 -0.90361,-0.10368 -3.9613,-0.23866 -6.79481,-0.29996 -4.67646,-0.10117 -5.1436,-0.15461 -5.06159,-0.57906 0.0816,-0.42238 0.56645,-0.46302 5.01221,-0.42012 2.94775,0.0285 5.05404,-0.0622 5.25134,-0.22594 0.18119,-0.15039 1.01234,-0.2418 1.84696,-0.20313 0.83461,0.0387 1.60149,-0.0137 1.70413,-0.11634 0.10267,-0.10264 1.27742,-0.18662 2.61057,-0.18662 l 2.42397,0 -0.17184,-0.68455 c -0.20319,-0.80953 -0.21951,-0.80782 2.45117,-0.25552 1.1523,0.2383 2.23701,0.32959 2.43995,0.20537 0.20102,-0.12302 0.89101,-0.80115 1.53329,-1.50697 1.005,-1.10436 1.12571,-1.36209 0.86546,-1.84827 -0.20101,-0.37571 -0.57429,-0.56496 -1.11414,-0.56496 l -0.81179,0 0,-1.93668 0,-1.93669 -2.87662,2.55278 c -1.58213,1.40402 -3.33797,2.87716 -3.90191,3.27364 l -1.02528,0.72087 -7.11925,-0.22869 c -18.54727,-0.59578 -22.62356,-0.83484 -28.20313,-1.65402 -7.14081,-1.04838 -12.06249,-1.71724 -17.85155,-2.426 -2.58954,-0.31705 -7.08699,-1.07459 -9.99432,-1.68343 -2.90734,-0.60883 -7.79446,-1.57587 -10.86025,-2.14896 l -5.57419,-1.04199 -10.81712,5.30822 c -5.94941,2.91952 -11.04973,5.30821 -11.33402,5.30821 -0.9606,0 -0.5252,-0.49284 1.33137,-1.50703 10.14844,-5.54377 16.80854,-9.29407 16.60624,-9.35095 -0.2728,-0.0767 -12.43216,-0.91616 -13.27038,-0.91616 -0.29108,0 -0.52924,0.18483 -0.52924,0.41073 0,0.29783 0.30642,0.41073 1.11483,0.41073 0.61315,0 1.28283,0.168 1.48817,0.37334 0.20533,0.20534 1.12067,0.45789 2.03407,0.56123 0.9134,0.10334 1.66072,0.30957 1.66072,0.4583 0,0.33986 -7.62003,0.0999 -14.23849,-0.44838 -2.63549,-0.21832 -6.12202,-0.4547 -7.74784,-0.52528 -3.65634,-0.15873 -7.36524,-0.63947 -8.77734,-1.13768 -0.58738,-0.20724 -1.34734,-0.3768 -1.68879,-0.3768 -0.52162,0 -1.15697,-0.70899 -0.88187,-0.98409 0.0463,-0.0463 1.33873,0.0414 2.87198,0.19505 3.61844,0.36252 4.3397,0.0635 2.31795,-0.961 -1.38952,-0.70413 -1.4938,-0.71432 -7.30582,-0.71432 l -5.89617,0 0,-7.11925 0,-7.11924 6.48516,0 c 6.10805,0 6.55701,-0.0348 7.72074,-0.59814 0.67958,-0.32897 1.09072,-0.64642 0.91365,-0.70544 -0.17707,-0.059 -1.63972,0.0253 -3.25032,0.1874 -3.79634,0.38208 -3.94343,0.37834 -3.76158,-0.0956 0.0824,-0.21465 0.66379,-0.47618 1.29204,-0.58116 0.62825,-0.10499 1.2169,-0.30832 1.30811,-0.45184 0.23066,-0.36294 5.50041,-1.03562 9.28086,-1.1847 1.73189,-0.0683 5.33792,-0.31969 8.01339,-0.55866 5.02858,-0.44914 7.27864,-0.33362 9.10018,0.46723 l 0.82145,0.36116 -1.43754,0.0882 c -0.79065,0.0485 -1.43754,0.21906 -1.43754,0.37903 0,0.3204 6.36605,0.15367 13.55395,-0.35499 3.08857,-0.21857 4.65056,-0.46755 6.2978,-1.00388 1.79807,-0.58545 2.90188,-0.7402 6.1609,-0.86373 l 3.97035,-0.15051 0.0841,-1.47664 c 0.0974,-1.70993 -0.12987,-2.04132 -1.37202,-2.00043 -0.49646,0.0164 -2.25804,-0.33048 -3.91465,-0.77071 -1.65659,-0.44024 -3.68968,-0.97712 -4.51798,-1.19307 -0.82829,-0.21596 -2.86139,-0.76499 -4.51798,-1.22008 -1.65659,-0.4551 -4.33327,-1.10126 -5.94818,-1.43593 l -2.93618,-0.60848 -0.4407,-1.15396 -0.4407,-1.15396 -2.92069,-0.14906 c -2.90081,-0.14805 -4.08781,0.0124 -2.78146,0.37601 0.37498,0.10437 1.11304,0.20697 1.64014,0.22802 l 0.95836,0.0383 -0.73304,0.39805 c -0.92712,0.50344 -3.85682,0.92635 -5.44525,0.78604 -4.39918,-0.38858 -11.05598,-0.87449 -12.44128,-0.90814 -2.24999,-0.0547 -8.45678,-0.85086 -8.62524,-1.10644 -0.0753,-0.11424 -0.6295,-0.29841 -1.23155,-0.40925 -0.96451,-0.17758 -1.48907,-0.51984 -1.50243,-0.9803 -0.002,-0.0795 1.5635,0.0141 3.47956,0.20784 1.91607,0.19377 3.61031,0.30904 3.76499,0.25616 0.15468,-0.0529 -0.23754,-0.36205 -0.87158,-0.68701 -1.07606,-0.55152 -1.55011,-0.59112 -7.11925,-0.5946 -3.28154,-0.002 -6.24367,-0.078 -6.58252,-0.16885 l -0.61609,-0.16511 0,-6.9504 0,-6.9504 1.16372,-0.0116 c 0.64005,-0.006 3.28355,-10e-4 5.87445,0.011 4.56097,0.0219 4.75571,-1.7e-4 6.12572,-0.69441 2.10468,-1.06652 1.51161,-1.35428 -2.12429,-1.03072 -1.6291,0.14497 -2.9957,0.24055 -3.03689,0.2124 -0.0412,-0.0281 8.3e-4,-0.24774 0.0927,-0.48796 0.10082,-0.26272 0.64897,-0.50896 1.37554,-0.61792 0.66435,-0.0996 1.20792,-0.26964 1.20792,-0.3778 0,-0.24518 8.04041,-1.10286 10.26814,-1.09531 0.9036,0.003 3.676,-0.1807 6.16089,-0.40837 2.48489,-0.22766 5.84603,-0.41197 7.4692,-0.40957 1.62318,0.003 3.07099,-0.0696 3.21736,-0.16011 0.77807,-0.48087 -0.1426,-2.3227 -1.16104,-2.3227 -0.23412,0 -0.48621,-0.23148 -0.5602,-0.5144 -0.1543,-0.59003 -1.5247,-0.71208 -11.49813,-1.02402 -4.53401,-0.14181 -5.6817,-0.25327 -5.6817,-0.55182 0,-0.29764 0.74151,-0.37329 3.62807,-0.3701 5.51038,0.006 12.35984,-0.52423 15.12841,-1.17133 1.99862,-0.46713 3.44755,-0.58377 7.66688,-0.61716 2.86139,-0.0227 5.30424,0.013 5.42855,0.0791 0.12431,0.0662 1.04845,0.16759 2.05363,0.22539 3.06537,0.17626 4.15504,0.386 4.15504,0.79978 0,0.22801 -0.41318,0.45021 -1.02681,0.55219 -1.76151,0.29275 -1.84415,0.34885 -1.3379,0.90824 0.81502,0.9006 0.54976,1.13646 -1.2781,1.13646 -1.62848,0 -1.77947,0.0562 -2.66972,0.99368 l -0.94362,0.99368 1.09527,-0.15234 c 0.6024,-0.0838 2.26584,-0.41459 3.69653,-0.73512 5.87104,-1.31533 6.43861,-1.37369 13.37267,-1.37484 7.44657,-8.3e-4 12.98519,-0.54777 27.56302,-2.71983 7.30019,-1.08772 10.86359,-1.32842 27.06336,-1.82804 2.98753,-0.0921 5.32864,-0.2554 5.20254,-0.3628 -0.12613,-0.10741 -1.89274,-0.92428 -3.92582,-1.81529 -3.51886,-1.54213 -3.82815,-1.62667 -6.43472,-1.75907 -2.58453,-0.13129 -2.7431,-0.17374 -2.82591,-0.75687 -0.0602,-0.42377 0.0901,-0.68357 0.47854,-0.82725 0.44172,-0.16341 -0.95395,-0.87515 -6.34695,-3.23673 -4.6525,-2.03728 -6.94223,-3.17708 -7.00183,-3.48537 -0.16537,-0.85604 1.50603,-0.50395 7.02191,1.47921 2.96365,1.06552 6.77414,2.42831 8.46784,3.02843 l 3.07939,1.09112 8.28398,-1.83215 c 6.20962,-1.37335 8.76402,-2.06066 10.20077,-2.74473 1.05421,-0.50192 2.96377,-1.17962 4.24354,-1.50598 1.50119,-0.38285 2.45861,-0.78164 2.69836,-1.12393 0.2976,-0.42486 0.65225,-0.51808 1.78047,-0.46795 0.77488,0.0344 1.56288,0.18118 1.75116,0.32612 0.21759,0.16757 0.4669,0.16832 0.68453,0.002 0.46718,-0.35689 2.89515,-0.45749 3.30023,-0.13674 0.18031,0.14279 1.42001,0.34489 2.75491,0.4491 2.75266,0.21492 6.89757,1.19292 8.85222,2.08871 1.02286,0.46878 2.00862,0.63368 4.42189,0.73971 3.09025,0.13579 3.10498,0.13967 2.98148,0.78558 -0.11662,0.61008 -0.045,0.64914 1.1909,0.64914 0.72326,0 1.39108,0.12322 1.48416,0.27382 0.0934,0.15106 1.32092,0.27381 2.73818,0.27381 1.41725,0 2.6448,0.12276 2.73817,0.27382 0.10631,0.17197 3.01482,0.27382 7.81997,0.27382 l 7.65067,0 0,0.68454 c 0,0.7954 0.9092,0.72465 -8.80656,0.68536 -4.24316,-0.0172 -6.54024,0.0727 -6.65623,0.26031 -0.10293,0.16653 -1.25285,0.28651 -2.74602,0.28651 -1.41726,0 -2.64481,0.12275 -2.73818,0.27382 -0.0941,0.15231 -1.35636,0.27381 -2.84457,0.27381 l -2.67531,0 -1.68956,1.52897 c -1.33445,1.20756 -1.68961,1.69682 -1.68961,2.32745 0,0.43916 0.10782,0.79848 0.23959,0.79848 0.13177,0 0.31354,0.36965 0.40391,0.82145 l 0.16428,0.82145 4.04566,0.003 c 2.22511,0.002 4.50771,0.0794 5.07252,0.17275 0.82339,0.1361 2.23246,1.19414 7.11061,5.33929 3.34606,2.84326 6.17769,5.13746 6.29252,5.09823 0.11486,-0.0392 1.68342,-1.3035 3.48572,-2.8095 2.33339,-1.94979 3.28099,-2.91288 3.29101,-3.34497 0.008,-0.33373 0.22055,-1.03979 0.47295,-1.569 0.50458,-1.05817 0.59353,-1.09434 6.10431,-2.48184 1.57666,-0.39698 3.02176,-0.80856 3.21129,-0.91463 0.35641,-0.19945 -2.75579,-1.22952 -4.6684,-1.54514 -0.58013,-0.0957 -1.00967,-0.21917 -0.95453,-0.27431 0.0551,-0.0551 2.56671,-0.60481 5.58119,-1.22148 4.52892,-0.92647 6.24949,-1.42416 9.90518,-2.86509 l 4.42425,-1.74387 7.273,0.12162 7.2731,0.12162 0.026,-0.90361 c 0.015,-0.49697 0.013,-2.44382 0,-4.32631 -0.016,-1.8825 0.085,-3.79237 0.2237,-4.24417 l 0.2532,-0.82145 0.043,0.95836 c 0.024,0.5271 0.049,2.46046 0.058,4.29635 0.011,2.57058 0.123,3.58824 0.3482,3.80239 0.6655,0.63275 1.0275,0.66918 1.8211,0.77871 0.7706,0.10223 1.4643,0.1226 1.5416,0.0453 0.077,-0.0773 0.2036,-2.11656 0.2807,-4.53165 0.2,-6.26763 0.7323,-5.65574 1.0632,1.22217 0.087,1.8072 0.2054,3.33715 0.2632,3.3999 0.058,0.0628 0.1051,-1.81632 0.1051,-4.17571 0,-2.67733 0.1029,-4.2898 0.2738,-4.2898 0.1506,0 0.2738,-0.68497 0.2738,-1.52216 0,-0.83718 0.1046,-1.45755 0.2323,-1.37859 0.1278,0.079 0.3007,2.5996 0.3842,5.60142 l 0.1519,5.45786 1.0534,0.97894 1.0533,0.97894 -1.6292,0.007 c -0.934,0.004 -1.5182,0.10838 -1.3691,0.24403 0.717,0.65221 7.8562,1.77307 16.0041,2.51263 1.7316,0.15718 4.0933,0.52703 5.2482,0.82189 1.9204,0.49032 3.2185,0.54161 15.1973,0.60046 l 13.0976,0.0643 -12.7325,0.14102 c -7.0029,0.0775 -12.332,0.23035 -11.8426,0.33953 1.0619,0.23689 1.1036,0.46363 0.2352,1.2795 -0.6617,0.62164 -2.7008,1.05192 -13.173,2.77967 -3.3093,0.54598 -4.6675,0.93289 -4.9651,1.41436 -0.094,0.15148 0.2829,0.24042 0.8958,0.21163 1.9432,-0.0913 5.1206,0.002 4.9767,0.1456 -0.078,0.0782 -1.707,0.14616 -3.6196,0.151 -3.8238,0.01 -4.2702,0.0913 -4.2702,0.78079 0,0.39954 -0.6177,0.54037 -4.2353,0.96547 -2.3294,0.27375 -4.7365,0.41756 -5.3491,0.3196 -1.0423,-0.16666 -1.5758,0.0622 -8.2919,3.55675 -3.9478,2.05418 -7.2318,3.78392 -7.2977,3.84385 -0.066,0.06 5.4174,0.0586 12.1849,-0.003 6.7675,-0.0616 14.3685,-0.12551 16.891,-0.14209 2.5226,-0.0166 4.5865,-0.13447 4.5865,-0.26197 0,-0.12749 -0.2254,-0.43573 -0.5008,-0.68497 -0.4263,-0.38586 -1.2228,-0.45316 -5.3622,-0.45316 -3.4589,0 -4.8321,-0.0883 -4.7596,-0.30588 0.056,-0.16822 1.9454,-0.98005 4.1985,-1.80406 l 4.0966,-1.49834 6.9824,-0.0442 c 5.2741,-0.0334 7.134,0.0424 7.6022,0.30976 0.341,0.19468 1.8812,0.41991 3.4227,0.50053 1.5416,0.0806 3.0493,0.26396 3.3505,0.40742 0.3011,0.14347 3.1951,0.28788 6.431,0.32092 5.1686,0.0528 5.8938,0.11381 5.9685,0.50235 0.075,0.39138 -0.5704,0.46195 -5.6096,0.6132 -9.8766,0.29644 -11.5155,0.44151 -11.6702,1.03303 -0.074,0.28406 -0.3767,0.51275 -0.6781,0.51275 -0.2992,0 -0.6187,0.19487 -0.7101,0.43303 -0.1461,0.38064 0.2065,0.4274 2.9143,0.38644 1.6942,-0.0256 3.6964,0.0904 4.4494,0.2578 0.753,0.16742 4.8808,0.48271 9.1729,0.70064 4.2921,0.21794 12.3628,0.64363 17.935,0.94599 5.5722,0.30236 13.8894,0.74336 18.4827,0.98 4.5933,0.23664 11.6167,0.5996 15.6076,0.80658 62.7154,3.25261 74.2554,3.79076 74.4525,3.47197 0.1476,-0.23892 1.0301,-0.31309 3.0601,-0.2572 2.4558,0.0676 2.8532,0.14252 2.8562,0.5384 0,0.25292 0.094,0.55069 0.2054,0.66172 0.111,0.11103 0.2018,1.53673 0.2018,3.16823 0,2.40342 0.075,2.96635 0.3955,2.96635 0.2175,0 2.4046,0.18087 4.8603,0.40192 13.9447,1.2553 42.7749,3.643 51.4244,4.25894 2.3343,0.16623 4.7678,0.36365 5.4079,0.43873 l 1.1637,0.13649 0,2.29451 c 0,1.33935 -0.1224,2.37015 -0.294,2.47621 -0.1617,0.0999 -5.3061,0.59344 -11.4319,1.09667 -6.1258,0.50322 -12.6164,1.04568 -14.4237,1.20545 -3.3248,0.29395 -21.2033,1.79061 -25.7387,2.15467 -1.7205,0.1381 -2.4437,0.29929 -2.3959,0.53399 0.051,0.24947 -0.7084,0.33618 -2.9436,0.33618 -2.8294,0 -3.012,0.0332 -3.012,0.54764 0,0.51444 0.1826,0.54763 3.012,0.54763 1.8255,0 3.012,0.10787 3.012,0.27382 0,0.17725 3.3315,0.27381 9.4467,0.27381 9.2642,0 9.4467,0.0106 9.4467,0.54764 0,0.502 -0.1825,0.54763 -2.1905,0.54763 -1.7646,0 -2.1906,0.0799 -2.1906,0.41073 0,0.40631 -3.1972,0.50474 -17.5699,0.54096 -1.4557,0.004 -2.72,0.0799 -2.8096,0.16942 -0.09,0.0895 4.7981,0.25734 10.8613,0.37295 6.0633,0.1156 13.4886,0.29602 16.5006,0.40092 l 5.4763,0.19074 -4.9972,0.0524 c -6.3572,0.0667 -6.7627,0.55663 -0.5476,0.66172 4.017,0.0679 4.3431,0.10836 3.3543,0.41598 -0.7923,0.2465 -3.9771,0.34117 -11.5141,0.34227 -7.9684,8.3e-4 -10.4991,0.082 -10.7605,0.3438 -0.2337,0.23395 -1.6327,0.37178 -4.4205,0.43553 -3.2023,0.0732 -4.0968,0.175 -4.1625,0.47366 -0.046,0.20922 -1.0695,0.98783 -2.2743,1.73024 l -2.1906,1.34984 -0.08,-2.02886 -0.08,-2.02887 -1.6925,0 c -0.9309,0 -3.6673,0.1217 -6.0809,0.27045 -2.4137,0.14874 -8.1466,0.45787 -12.7399,0.68695 -19.6379,0.9794 -42.3446,2.16328 -49.424,2.57686 l -3.8334,0.22395 -15.3338,7.59658 -15.3337,7.59657 -3.8018,0.55534 -3.8017,0.55534 -3.3554,2.42767 c -1.8455,1.33521 -3.6196,2.42766 -3.9425,2.42766 -0.5478,0 -1.2034,0.97423 -0.9487,1.41004 0.057,0.0978 2.3222,0.26758 5.0335,0.37723 2.7112,0.10966 4.9295,0.30686 4.9295,0.43823 0,0.13137 -1.3862,0.24518 -3.0804,0.25291 -5.2147,0.0238 -6.5035,0.25682 -7.8645,1.42179 -1.3633,1.16689 -3.0352,1.54845 -4.6566,1.06268 -1.1975,-0.35879 -3.2142,-2.07118 -2.7657,-2.34838 0.3229,-0.19952 0.392,-1.22227 0.1291,-1.90756 -0.1482,-0.38605 -1.5022,-0.43312 -12.4587,-0.43312 l -12.2925,0 0,0.65031 c 0,0.71577 0.7732,0.99259 2.7724,0.99259 0.5836,0 1.061,0.12321 1.061,0.27382 0,0.1506 -0.5464,0.27382 -1.2143,0.27382 -1.5227,0 -2.3611,0.3145 -3.2752,1.22867 -0.8721,0.87211 -2.3233,1.5095 -3.4368,1.5095 -2.1845,0 -4.5155,-1.79526 -4.224,-3.25309 0.1597,-0.79835 -0.318,-2.76961 -0.6718,-2.77229 -0.1013,-8.3e-4 -3.4494,-0.64083 -7.4403,-1.42236 l -7.2562,-1.42096 -29.14436,-0.0837 -29.14435,-0.0836 -4.3673,-0.82143 c -3.57208,-0.67187 -5.08337,-0.82143 -8.30013,-0.82143 -3.3133,0 -3.93284,0.0647 -3.93284,0.41072 0,0.29663 -0.30427,0.41072 -1.09527,0.41072 -0.60238,0 -1.09528,0.0712 -1.09528,0.15823 0,0.087 0.83173,1.07054 1.84829,2.18561 l 1.84826,2.02739 5.95551,0.005 c 7.68444,0.006 7.85073,0.28747 1.09524,1.85125 -2.6731,0.61878 -5.90756,1.37305 -7.18766,1.67614 -1.2801,0.3031 -2.90008,0.62593 -3.59996,0.71741 -1.18039,0.15429 -1.28494,0.23262 -1.4443,1.08195 -0.11842,0.63131 -0.36101,0.96806 -0.78111,1.08448 -1.27564,0.35347 -6.74126,0.98069 -7.15669,0.82128 -0.28345,-0.10877 -0.435,-0.0174 -0.435,0.26238 0,0.79309 -2.61538,0.46153 -4.65489,-0.59011 z m -11.39889,-14.39823 c 1.52552,-1.11211 3.08173,-2.27858 3.45821,-2.59215 l 0.68457,-0.57012 -0.70794,-0.009 c -0.48568,-0.006 -1.62144,0.72156 -3.61787,2.31834 -1.60045,1.28009 -3.03774,2.32744 -3.19397,2.32744 -0.15623,0 -0.28403,0.12322 -0.28403,0.27382 0,0.65223 1.06752,0.14246 3.66103,-1.74821 z m -97.22527,-57.64184 c 0.41528,-0.41527 -0.21939,-0.56617 -1.66247,-0.39526 -1.07525,0.12735 -1.35131,0.25546 -1.23024,0.57095 0.12068,0.31449 0.43923,0.36795 1.40426,0.23568 0.68649,-0.0941 1.3563,-0.27921 1.48845,-0.41137 z m 99.53349,-10.48809 c 0.18069,-0.18072 0.32853,-0.77216 0.32853,-1.31432 0,-1.53008 -0.27406,-1.64291 -3.99086,-1.64291 -5.68041,0 -5.76264,0.12455 -1.18142,1.78958 4.48087,1.62857 4.40181,1.60952 4.84375,1.16765 z"
         style="fill:#000000;fill-opacity:1" />
    </g>
  </g>
</svg>
