<?xml version="1.0" encoding="UTF-8" standalone="no"?>
<!-- Created with Inkscape (http://www.inkscape.org/) -->

<svg
   xmlns:dc="http://purl.org/dc/elements/1.1/"
   xmlns:cc="http://creativecommons.org/ns#"
   xmlns:rdf="http://www.w3.org/1999/02/22-rdf-syntax-ns#"
   xmlns:svg="http://www.w3.org/2000/svg"
   xmlns="http://www.w3.org/2000/svg"
   xmlns:sodipodi="http://sodipodi.sourceforge.net/DTD/sodipodi-0.dtd"
   xmlns:inkscape="http://www.inkscape.org/namespaces/inkscape"
   width="410"
   height="69.483818"
   id="svg3092"
   version="1.1"
   inkscape:version="0.48.5 r10040"
   sodipodi:docname="890Jump.svg">
  <defs
     id="defs3094" />
  <sodipodi:namedview
     id="base"
     pagecolor="#ffffff"
     bordercolor="#666666"
     borderopacity="1.0"
     inkscape:pageopacity="0.0"
     inkscape:pageshadow="2"
     inkscape:zoom="3.959798"
     inkscape:cx="194.65584"
     inkscape:cy="23.224686"
     inkscape:document-units="px"
     inkscape:current-layer="g3111"
     showgrid="false"
     fit-margin-top="0"
     fit-margin-left="0"
     fit-margin-right="0"
     fit-margin-bottom="0"
     inkscape:window-width="1920"
     inkscape:window-height="1018"
     inkscape:window-x="-8"
     inkscape:window-y="-8"
     inkscape:window-maximized="1" />
  <metadata
     id="metadata3097">
    <rdf:RDF>
      <cc:Work
         rdf:about="">
        <dc:format>image/svg+xml</dc:format>
        <dc:type
           rdf:resource="http://purl.org/dc/dcmitype/StillImage" />
        <dc:title />
      </cc:Work>
    </rdf:RDF>
  </metadata>
  <g
     inkscape:label="Layer 1"
     inkscape:groupmode="layer"
     id="layer1"
     transform="translate(516.33537,-714.21182)">
    <g
       id="g3111">
      <path
         style="fill:#000000"
         d="m -458.32412,783.58144 -16.44591,-0.12341 -0.068,-0.93164 c -0.0602,-0.82392 -0.14286,-0.94662 -0.71533,-1.06111 -0.43514,-0.087 -0.67131,-0.2875 -0.72049,-0.61158 -0.0598,-0.39398 -0.8558,-0.81181 -4.35361,-2.28532 -2.35424,-0.99176 -4.406,-1.90545 -4.55944,-2.03044 -0.16777,-0.13667 -3.17595,-0.27362 -7.5471,-0.3436 -3.99746,-0.064 -7.44551,-0.2082 -7.66235,-0.32045 -0.28348,-0.14675 -0.39425,-0.47854 -0.39425,-1.18086 l 0,-0.97676 -1.35172,-0.15293 -1.35173,-0.15292 0,-2.83048 0,-2.83047 -0.99961,0.1499 c -0.85534,0.12826 -1.03418,0.0853 -1.23908,-0.29755 -0.1317,-0.24609 -0.23946,-0.70755 -0.23946,-1.02546 0,-0.52418 0.084,-0.57803 0.90115,-0.57803 0.7936,0 1.20835,-0.27649 0.73219,-0.48811 -0.26014,-0.11562 -1.18276,-1.92246 -1.18276,-2.31628 0,-0.19229 -0.10138,-0.34962 -0.22528,-0.34962 -0.12689,0 -0.2253,-0.63388 -0.2253,-1.45106 0,-0.79809 0.10139,-1.51373 0.2253,-1.5903 0.1239,-0.0766 0.22528,-0.33602 0.22528,-0.57652 0,-0.28708 0.15475,-0.43727 0.45057,-0.43727 0.36475,0 0.45058,-0.1502 0.45058,-0.7885 0,-0.56397 0.1,-0.78851 0.35122,-0.78851 0.19318,0 0.28857,-0.10138 0.212,-0.22529 -0.0766,-0.1239 -0.4821,-0.22528 -0.90115,-0.22528 -0.92478,0 -1.10265,-0.24419 -0.91327,-1.2537 0.1422,-0.75799 0.16811,-0.77388 1.2614,-0.77388 l 1.11622,0 0,-2.47815 0,-2.47815 4.61838,0 4.61837,0 0,-0.50738 c 0,-0.4735 -0.21445,-0.54891 -3.21112,-1.12926 -4.34255,-0.841 -4.92879,-1.01871 -5.06383,-1.53506 -0.0789,-0.30184 -0.32689,-0.4415 -0.8191,-0.46135 l -0.7059,-0.0285 0.84481,-0.23655 c 0.75934,-0.21261 0.84483,-0.31232 0.84483,-0.98532 0,-0.41182 0.10138,-0.74877 0.22529,-0.74877 0.12391,0 0.22298,-0.2281 0.22017,-0.5069 -0.007,-0.65907 -5.19218,-7.81838 -6.03732,-8.33528 -0.35423,-0.21667 -1.26856,-0.45921 -2.03183,-0.53899 -1.33681,-0.13972 -1.38777,-0.16832 -1.38777,-0.77861 0,-0.54784 -0.10861,-0.65392 -0.80276,-0.78416 -0.44154,-0.0828 -1.19289,-0.0983 -1.66969,-0.0343 -0.92293,0.12379 -1.12152,-0.11475 -1.12904,-1.35618 -0.003,-0.4297 0.11699,-0.50689 0.78541,-0.50689 0.75915,0 1.0324,-0.27324 0.56322,-0.56321 -0.12391,-0.0766 -0.22529,-0.3962 -0.22529,-0.71025 0,-0.38155 -0.1495,-0.6101 -0.45058,-0.68884 -0.49378,-0.12912 -0.5977,-0.42926 -0.19511,-0.56346 0.16746,-0.0558 0.12864,-0.21198 -0.11264,-0.45325 -0.43697,-0.43697 -0.5401,-3.32901 -0.11871,-3.32901 0.13716,0 0.19104,-0.15207 0.11971,-0.33793 -0.0912,-0.23781 0.0185,-0.33793 0.37015,-0.33793 0.4496,0 0.49982,-0.11319 0.49982,-1.12643 0,-1.07865 -0.0263,-1.12643 -0.61953,-1.12643 -0.34075,0 -0.61954,-0.10138 -0.61954,-0.22529 0,-0.12391 -0.1992,-0.22528 -0.44265,-0.22528 -0.72422,0 -0.90907,-0.7258 -0.90907,-3.56955 l 0,-2.69803 1.97126,-0.18919 c 3.00214,-0.28813 13.32069,-0.22613 21.12061,0.12692 4.51753,0.20446 8.9331,0.26413 12.5034,0.16893 3.03573,-0.0809 8.48485,-0.21298 12.10914,-0.29344 4.95436,-0.10998 6.58963,-0.21447 6.58963,-0.42107 0,-0.15113 0.38017,-0.33762 0.84483,-0.41443 1.11109,-0.18365 85.35446,-0.13379 86.21562,0.051 0.78878,0.16928 0.8965,0.56336 0.18173,0.66486 -0.27879,0.0396 -0.50691,0.19167 -0.50695,0.33794 -5e-5,0.20066 2.62656,0.26594 10.70095,0.26594 8.41053,0 10.70105,-0.0602 10.70117,-0.28161 1.2e-4,-0.21137 0.75871,-0.28161 3.04153,-0.28161 2.49567,0 3.04136,0.0582 3.04136,0.32413 0,0.41401 0.89509,0.5238 5.63217,0.69084 4.49682,0.15857 13.35975,0.72331 15.99533,1.01921 1.05322,0.11825 1.99098,0.21582 2.0839,0.21684 0.0929,8.3e-4 0.16897,0.19005 0.16897,0.42007 0,0.47532 -0.73948,0.38223 9.40571,1.18409 3.50039,0.27666 6.36434,0.57279 6.36434,0.65806 0,0.20624 -2.01212,0.43867 -3.8186,0.4411 -0.83387,8.4e-4 -1.36189,0.0851 -1.23908,0.19713 0.11771,0.10734 1.83609,0.80792 3.8186,1.55684 7.85192,2.96614 11.31849,4.57049 13.95867,6.46013 l 2.46907,1.76717 2.37459,0.0531 c 2.02302,0.0453 3.04172,0.22555 6.88033,1.21784 2.47816,0.64061 5.54579,1.46667 6.81697,1.8357 1.27118,0.36902 3.14669,0.72932 4.1678,0.80066 1.3314,0.093 23.78667,3.38173 27.03866,3.95998 0.15141,0.0269 -1.68073,0.10295 -4.07138,0.16896 l -4.34666,0.12002 2.99495,1.52183 2.99493,1.52184 4.11871,-8.3e-4 c 3.33674,-8.4e-4 4.27774,0.0693 4.95631,0.36984 0.72812,0.3225 2.1185,0.37916 10.63755,0.43354 5.38998,0.0344 13.93892,0.19036 18.99764,0.34656 7.56976,0.23372 9.22994,0.23181 9.37994,-0.0108 0.13614,-0.2203 0.57324,-0.25882 1.72869,-0.15234 4.60298,0.42419 5.47678,0.43248 5.62229,0.0533 0.12571,-0.32761 0.98363,-0.36531 8.31145,-0.36531 6.98853,0 8.21188,0.0489 8.45174,0.33792 0.24349,0.29338 2.02989,0.33793 13.55183,0.33793 11.58896,0 13.28782,-0.0428 13.40108,-0.33793 0.19521,-0.50872 16.33045,-0.50872 16.75266,0 0.15425,0.18587 0.48651,0.33793 0.73833,0.33793 0.25183,0 2.11555,0.61433 4.14162,1.36517 l 3.68375,1.36517 4.6733,0.32106 c 2.57029,0.17659 4.97234,0.3226 5.33787,0.32448 0.45055,0.002 0.59079,0.0772 0.43543,0.23258 -0.12605,0.12604 -1.05873,0.29314 -2.07263,0.37132 l -1.84348,0.14216 0,0.87925 c 0,0.79454 -0.0772,0.9115 -0.80105,1.21396 -0.63965,0.26726 -0.77257,0.4245 -0.65959,0.78042 0.0853,0.26892 -0.0412,0.74121 -0.31899,1.1907 l -0.46041,0.74499 0.45568,1.1993 c 0.25064,0.65961 0.405,1.33143 0.34303,1.49293 -0.062,0.1615 0.087,0.35701 0.33103,0.43446 0.38743,0.12296 1.76165,2.36039 1.44976,2.36039 -0.21393,0 3.78094,7.56309 4.24346,8.03374 0.0196,0.0198 1.19282,0.19664 2.60739,0.39289 2.23421,0.30996 3.88203,0.85191 3.56232,1.1716 -0.1137,0.11371 -11.40882,0.84852 -18.52501,1.20515 -9.49729,0.47597 -19.18168,0.72905 -30.63896,0.80071 -9.63945,0.0602 -12.00687,0.13646 -13.36296,0.42997 -1.25374,0.27135 -2.98083,0.3567 -7.21858,0.3567 l -5.57053,0 -0.99495,1.01378 -0.99495,1.01379 -3.64401,0 -3.64401,0 -0.75849,-1.00682 -0.7585,-1.00682 -2.14022,-0.007 c -1.83501,-0.007 -2.65428,-0.15193 -5.74481,-1.0182 -1.98251,-0.5557 -4.08613,-1.01151 -4.67469,-1.01292 l -1.07011,-0.002 0,1.08118 c 0,1.02003 -0.0423,1.09647 -0.74818,1.35172 -0.41148,0.1488 -0.9341,0.27054 -1.16135,0.27054 -0.38601,0 -0.38867,0.0271 -0.0403,0.412 0.20507,0.22659 0.37285,0.58141 0.37285,0.7885 0,0.34785 -1.17918,0.37908 -15.48845,0.41022 -20.05117,0.0437 -26.40887,0.11051 -26.5779,0.27953 -0.0755,0.0755 -2.12534,0.13733 -4.55514,0.13733 l -4.41782,0 0.086,0.90115 c 0.0836,0.87631 0.0667,0.90114 -0.61359,0.90114 -0.68922,0 -0.69952,0.0166 -0.69952,1.12643 l 0,1.12644 -1.53773,0 c -1.34898,0 -1.6027,0.0692 -2.06685,0.56321 -0.5012,0.5335 -0.65782,0.56322 -2.968,0.56322 -2.0177,0 -2.43888,0.0583 -2.43888,0.33793 0,0.29841 -3.01633,0.33793 -25.7953,0.33793 l -25.7953,0 0,0.78057 c 0,0.54117 -0.13366,0.85211 -0.43577,1.0138 -0.53994,0.28896 -11.48042,0.31281 -11.93343,0.026 -0.21697,-0.13736 -0.96027,0.14111 -2.36551,0.88622 -3.41552,1.81102 -3.32873,1.79913 -13.12906,1.79913 l -8.63264,0 0,-2.32276 0,-2.32275 -8.61721,1.29771 c -10.9079,1.64269 -10.08157,1.47956 -10.08157,1.99019 0,0.71671 -0.57876,1.05798 -2.05617,1.2124 -0.77883,0.0814 -1.51678,0.24876 -1.63992,0.37189 -0.13695,0.13694 -2.51859,0.22388 -6.13284,0.22388 -4.952,0 -5.96367,-0.0548 -6.24685,-0.33792 -0.18587,-0.18586 -0.62398,-0.33905 -0.97358,-0.34041 -1.62103,-0.007 -2.38493,-0.27718 -2.63266,-0.93345 -0.22598,-0.59873 -0.32475,-0.64108 -1.49491,-0.64108 -1.17015,0 -1.26892,0.0423 -1.4949,0.64108 -0.24773,0.65627 -1.01163,0.92712 -2.63266,0.93345 -0.3496,0.002 -0.78771,0.15455 -0.97358,0.34041 -0.28327,0.28328 -1.29807,0.33792 -6.27582,0.33792 -4.97775,0 -5.99255,-0.0547 -6.27583,-0.33792 -0.21846,-0.21846 -0.776,-0.33794 -1.57701,-0.33794 -1.32862,0 -1.94712,-0.36292 -1.94712,-1.14252 0,-0.40225 -0.18019,-0.43448 -2.42878,-0.43448 l -2.42874,0 -0.24198,0.64108 c -0.24773,0.65627 -1.01163,0.92712 -2.63265,0.93345 -0.3496,0.002 -0.78772,0.15455 -0.97358,0.34041 -0.2659,0.2659 -0.96542,0.33792 -3.28204,0.33792 -2.54405,0 -2.98324,0.0536 -3.23205,0.39426 -0.34489,0.47222 -0.6108,0.47533 -24.99382,0.29237 z m -30.1183,-39.40214 c 0.51877,-0.14608 0.51735,-0.15171 -0.38934,-1.55455 -0.82344,-1.27403 -0.98309,-1.40793 -1.67845,-1.40793 -0.99516,0 -1.35524,-0.33348 -3.27621,-3.03419 -1.0586,-1.48829 -1.59733,-2.45706 -1.59733,-2.87241 l 0,-0.6267 -5.29423,0 c -2.91182,0 -5.29423,0.0644 -5.29423,0.14323 0,0.12336 3.14817,4.57762 5.90961,8.36132 l 0.8632,1.18276 5.11815,-0.0224 c 2.815,-0.0123 5.35247,-0.0885 5.63883,-0.16908 z"
         id="path3113"
         inkscape:connector-curvature="0" />
    </g>
  </g>
</svg>
