<?xml version="1.0" encoding="UTF-8" standalone="no"?>
<svg
   xmlns:dc="http://purl.org/dc/elements/1.1/"
   xmlns:cc="http://creativecommons.org/ns#"
   xmlns:rdf="http://www.w3.org/1999/02/22-rdf-syntax-ns#"
   xmlns:svg="http://www.w3.org/2000/svg"
   xmlns="http://www.w3.org/2000/svg"
   version="1.1"
   id="svg3092"
   viewBox="0 0 122.99997 20.845627"
   width="368.99991">
  <defs
     id="defs3094" />
  <metadata
     id="metadata3097">
    <rdf:RDF>
      <cc:Work
         rdf:about="">
        <dc:format>image/svg+xml</dc:format>
        <dc:type
           rdf:resource="http://purl.org/dc/dcmitype/StillImage" />
        <dc:title></dc:title>
      </cc:Work>
    </rdf:RDF>
  </metadata>
  <g
     transform="translate(516.33527,-762.85011)"
     id="layer1">
    <g
       id="g3111">
      <path
         id="path3113"
         d="m -498.93199,783.66138 -4.93378,-0.037 -0.0204,-0.2795 c -0.0181,-0.24717 -0.0429,-0.28398 -0.2146,-0.31833 -0.13054,-0.0261 -0.20139,-0.0862 -0.21614,-0.18347 -0.0179,-0.1182 -0.25674,-0.24355 -1.30609,-0.6856 -0.70627,-0.29753 -1.3218,-0.57163 -1.36783,-0.60913 -0.0503,-0.041 -0.95278,-0.0821 -2.26413,-0.10308 -1.19924,-0.0192 -2.23365,-0.0625 -2.2987,-0.0961 -0.0851,-0.044 -0.11828,-0.14356 -0.11828,-0.35425 l 0,-0.29303 -0.40551,-0.0459 -0.40552,-0.0459 0,-0.84914 0,-0.84914 -0.29989,0.045 c -0.2566,0.0385 -0.31025,0.0256 -0.37172,-0.0893 -0.0395,-0.0738 -0.0718,-0.21226 -0.0718,-0.30763 0,-0.15726 0.0252,-0.17341 0.27035,-0.17341 0.23808,0 0.3625,-0.0829 0.21965,-0.14644 -0.078,-0.0347 -0.35482,-0.57673 -0.35482,-0.69488 0,-0.0577 -0.0304,-0.10489 -0.0676,-0.10489 -0.0381,0 -0.0676,-0.19016 -0.0676,-0.43531 0,-0.23943 0.0304,-0.45412 0.0676,-0.47709 0.0372,-0.023 0.0676,-0.10081 0.0676,-0.17296 0,-0.0861 0.0464,-0.13118 0.13517,-0.13118 0.10942,0 0.13517,-0.0451 0.13517,-0.23655 0,-0.16919 0.03,-0.23655 0.10537,-0.23655 0.0579,0 0.0866,-0.0304 0.0636,-0.0676 -0.023,-0.0372 -0.14463,-0.0676 -0.27035,-0.0676 -0.27743,0 -0.33079,-0.0732 -0.27398,-0.37611 0.0427,-0.22739 0.0504,-0.23216 0.37842,-0.23216 l 0.33487,0 0,-0.74344 0,-0.74345 1.38551,0 1.38551,0 0,-0.15221 c 0,-0.14205 -0.0643,-0.16468 -0.96333,-0.33878 -1.30277,-0.2523 -1.47864,-0.30561 -1.51915,-0.46052 -0.0237,-0.0906 -0.0981,-0.13245 -0.24573,-0.1384 l -0.21177,-0.009 0.25344,-0.071 c 0.2278,-0.0638 0.25345,-0.0937 0.25345,-0.2956 0,-0.12354 0.0304,-0.22463 0.0676,-0.22463 0.0372,0 0.0669,-0.0684 0.0661,-0.15207 -0.002,-0.19772 -1.55766,-2.34551 -1.8112,-2.50058 -0.10627,-0.065 -0.38057,-0.13776 -0.60955,-0.1617 -0.40104,-0.0419 -0.41633,-0.0505 -0.41633,-0.23358 0,-0.16435 -0.0326,-0.19618 -0.24083,-0.23525 -0.13246,-0.0248 -0.35786,-0.0295 -0.5009,-0.0103 -0.27688,0.0371 -0.33646,-0.0344 -0.33872,-0.40685 -9e-4,-0.12891 0.0351,-0.15207 0.23563,-0.15207 0.22774,0 0.30972,-0.082 0.16896,-0.16896 -0.0372,-0.023 -0.0676,-0.11886 -0.0676,-0.21308 0,-0.11446 -0.0448,-0.18303 -0.13518,-0.20665 -0.14813,-0.0387 -0.17931,-0.12878 -0.0585,-0.16904 0.0502,-0.0167 0.0386,-0.0636 -0.0338,-0.13597 -0.13109,-0.13109 -0.16203,-0.99871 -0.0356,-0.99871 0.0412,0 0.0573,-0.0456 0.0359,-0.10137 -0.0274,-0.0713 0.006,-0.10138 0.11104,-0.10138 0.13488,0 0.14995,-0.034 0.14995,-0.33793 0,-0.3236 -0.008,-0.33793 -0.18586,-0.33793 -0.10223,0 -0.18586,-0.0304 -0.18586,-0.0676 0,-0.0372 -0.0598,-0.0676 -0.1328,-0.0676 -0.21726,0 -0.27272,-0.21774 -0.27272,-1.07087 l 0,-0.80941 0.59138,-0.0567 c 0.90064,-0.0864 3.99621,-0.0678 6.33618,0.0381 1.35526,0.0613 2.67993,0.0792 3.75102,0.0507 0.91072,-0.0243 2.54546,-0.0639 3.63274,-0.088 1.48631,-0.033 1.97689,-0.0643 1.97689,-0.12632 0,-0.0453 0.11405,-0.10129 0.25345,-0.12433 0.33333,-0.0551 25.60634,-0.0401 25.86469,0.0153 0.23663,0.0508 0.26895,0.16901 0.0545,0.19946 -0.0836,0.0119 -0.15208,0.0575 -0.15209,0.10138 -1e-5,0.0602 0.78797,0.0798 3.21029,0.0798 2.52316,0 3.21031,-0.0181 3.21035,-0.0845 3e-5,-0.0634 0.22761,-0.0845 0.91246,-0.0845 0.7487,0 0.9124,0.0175 0.9124,0.0972 0,0.12421 0.26853,0.15714 1.68966,0.20726 1.34904,0.0476 4.00792,0.21699 4.79859,0.30576 0.31597,0.0355 0.5973,0.0648 0.62517,0.0651 0.0279,2.5e-4 0.0507,0.057 0.0507,0.12602 0,0.1426 -0.22185,0.11467 2.82171,0.35523 1.05012,0.083 1.9093,0.17184 1.9093,0.19742 0,0.0619 -0.60364,0.1316 -1.14558,0.13233 -0.25016,2.5e-4 -0.40857,0.0255 -0.37172,0.0591 0.0353,0.0322 0.55082,0.24237 1.14558,0.46705 2.35557,0.88984 3.39554,1.37115 4.1876,1.93804 l 0.74072,0.53015 0.71238,0.0159 c 0.6069,0.0136 0.91251,0.0677 2.06409,0.36535 0.74345,0.19218 1.66374,0.44 2.0451,0.55071 0.38135,0.11071 0.944,0.2188 1.25034,0.2402 0.39942,0.0279 7.136,1.01452 8.11159,1.18799 0.0454,0.008 -0.50422,0.0309 -1.22141,0.0507 l -1.304,0.036 0.89849,0.45655 0.89848,0.45655 1.23561,-2.5e-4 c 1.00102,-2.5e-4 1.28332,0.0208 1.48689,0.11095 0.21844,0.0967 0.63555,0.11375 3.19127,0.13006 1.61699,0.0103 4.18167,0.0571 5.69929,0.10397 2.27093,0.0701 2.76898,0.0695 2.81398,-0.003 0.0408,-0.0661 0.17197,-0.0777 0.51861,-0.0457 1.38089,0.12726 1.64303,0.12974 1.68668,0.016 0.0377,-0.0983 0.29509,-0.10959 2.49344,-0.10959 2.09656,0 2.46356,0.0147 2.53552,0.10137 0.0731,0.088 0.60897,0.10138 4.06555,0.10138 3.47669,0 3.98635,-0.0128 4.02032,-0.10138 0.0586,-0.15261 4.89914,-0.15261 5.0258,0 0.0463,0.0558 0.14596,0.10138 0.2215,0.10138 0.0756,0 0.63467,0.1843 1.24249,0.40955 l 1.10512,0.40955 1.40199,0.0963 c 0.77109,0.053 1.4917,0.0968 1.60136,0.0973 0.13517,6e-4 0.17724,0.0232 0.13063,0.0698 -0.0378,0.0378 -0.31762,0.0879 -0.62179,0.11139 l -0.55304,0.0426 0,0.26378 c 0,0.23836 -0.0232,0.27345 -0.24032,0.36419 -0.19189,0.0802 -0.23177,0.12735 -0.19787,0.23412 0.0256,0.0807 -0.0124,0.22236 -0.0957,0.35721 l -0.13812,0.2235 0.1367,0.35979 c 0.0752,0.19788 0.1215,0.39943 0.10291,0.44788 -0.0186,0.0485 0.0261,0.1071 0.0993,0.13034 0.11623,0.0369 0.52849,0.70811 0.43493,0.70811 -0.0642,0 1.13428,2.26893 1.27304,2.41012 0.006,0.006 0.35784,0.059 0.78221,0.11787 0.67027,0.093 1.16461,0.25557 1.0687,0.35148 -0.0341,0.0341 -3.42265,0.25456 -5.5575,0.36155 -2.84919,0.14279 -5.75451,0.21871 -9.19169,0.24021 -2.89184,0.0181 -3.60206,0.0409 -4.00889,0.12899 -0.37612,0.0814 -0.89425,0.10701 -2.16557,0.10701 l -1.67116,0 -0.29849,0.30413 -0.29848,0.30414 -1.09321,0 -1.0932,0 -0.22755,-0.30204 -0.22755,-0.30205 -0.64206,-0.002 c -0.55051,-0.002 -0.79629,-0.0456 -1.72345,-0.30546 -0.59475,-0.16671 -1.22583,-0.30345 -1.4024,-0.30388 l -0.32104,-6e-4 0,0.32436 c 0,0.30601 -0.0127,0.32894 -0.22445,0.40551 -0.12344,0.0446 -0.28023,0.0812 -0.3484,0.0812 -0.11581,0 -0.11661,0.008 -0.0121,0.1236 0.0615,0.068 0.11185,0.17442 0.11185,0.23655 0,0.10435 -0.35375,0.11372 -4.64653,0.12306 -6.01536,0.0131 -7.92267,0.0332 -7.97337,0.0839 -0.0226,0.0226 -0.63761,0.0412 -1.36655,0.0412 l -1.32534,0 0.0258,0.27034 c 0.0251,0.2629 0.02,0.27035 -0.18408,0.27035 -0.20677,0 -0.20986,0.005 -0.20986,0.33793 l 0,0.33793 -0.46131,0 c -0.4047,0 -0.48081,0.0208 -0.62006,0.16896 -0.15036,0.16005 -0.19735,0.16897 -0.8904,0.16897 -0.60531,0 -0.73166,0.0175 -0.73166,0.10138 0,0.0895 -0.9049,0.10137 -7.73859,0.10137 l -7.73859,0 0,0.23418 c 0,0.16235 -0.0401,0.25563 -0.13073,0.30414 -0.16199,0.0867 -3.44413,0.0938 -3.58003,0.008 -0.0651,-0.0412 -0.28808,0.0423 -0.70966,0.26586 -1.02465,0.54331 -0.99862,0.53974 -3.93871,0.53974 l -2.5898,0 0,-0.69683 0,-0.69682 -2.58516,0.38931 c -3.27237,0.49281 -3.02447,0.44387 -3.02447,0.59706 0,0.21501 -0.17363,0.31739 -0.61685,0.36372 -0.23365,0.0244 -0.45504,0.0746 -0.49198,0.11156 -0.0411,0.0411 -0.75557,0.0672 -1.83985,0.0672 -1.4856,0 -1.7891,-0.0164 -1.87405,-0.10138 -0.0558,-0.0558 -0.1872,-0.10171 -0.29208,-0.10212 -0.48631,-0.002 -0.71548,-0.0832 -0.7898,-0.28004 -0.0678,-0.17961 -0.0974,-0.19232 -0.44847,-0.19232 -0.35104,0 -0.38068,0.0127 -0.44847,0.19232 -0.0743,0.19689 -0.30349,0.27814 -0.7898,0.28004 -0.10488,6e-4 -0.23631,0.0464 -0.29207,0.10212 -0.085,0.085 -0.38942,0.10138 -1.88275,0.10138 -1.49332,0 -1.79776,-0.0164 -1.88275,-0.10138 -0.0655,-0.0655 -0.2328,-0.10138 -0.4731,-0.10138 -0.39859,0 -0.58414,-0.10888 -0.58414,-0.34276 0,-0.12067 -0.054,-0.13034 -0.72863,-0.13034 l -0.72862,0 -0.0726,0.19232 c -0.0743,0.19689 -0.30348,0.27814 -0.78979,0.28004 -0.10488,6e-4 -0.23632,0.0464 -0.29207,0.10212 -0.0798,0.0798 -0.28963,0.10138 -0.98462,0.10138 -0.76321,0 -0.89497,0.0161 -0.96961,0.11828 -0.10347,0.14166 -0.18324,0.1426 -7.49815,0.0877 z m -9.03549,-11.82064 c 0.15563,-0.0438 0.1552,-0.0455 -0.11681,-0.46637 -0.24703,-0.38221 -0.29492,-0.42238 -0.50353,-0.42238 -0.29855,0 -0.40657,-0.10004 -0.98286,-0.91025 -0.31758,-0.44649 -0.4792,-0.73712 -0.4792,-0.86173 l 0,-0.18801 -1.58827,0 c -0.87355,0 -1.58827,0.0193 -1.58827,0.043 0,0.037 0.94445,1.37329 1.77288,2.5084 l 0.25896,0.35483 1.53545,-0.007 c 0.8445,-0.004 1.60574,-0.0266 1.69165,-0.0507 z"
         style="fill:#000000" />
    </g>
  </g>
</svg>
