<?xml version="1.0" encoding="UTF-8" standalone="no"?>
<!-- Created with Inkscape (http://www.inkscape.org/) -->

<svg
   xmlns:dc="http://purl.org/dc/elements/1.1/"
   xmlns:cc="http://creativecommons.org/ns#"
   xmlns:rdf="http://www.w3.org/1999/02/22-rdf-syntax-ns#"
   xmlns:svg="http://www.w3.org/2000/svg"
   xmlns="http://www.w3.org/2000/svg"
   xmlns:sodipodi="http://sodipodi.sourceforge.net/DTD/sodipodi-0.dtd"
   xmlns:inkscape="http://www.inkscape.org/namespaces/inkscape"
   width="29.347151"
   height="80.000015"
   id="svg3061"
   version="1.1"
   inkscape:version="0.48.5 r10040"
   sodipodi:docname="Khartu.svg">
  <defs
     id="defs3063" />
  <sodipodi:namedview
     id="base"
     pagecolor="#ffffff"
     bordercolor="#666666"
     borderopacity="1.0"
     inkscape:pageopacity="0.0"
     inkscape:pageshadow="2"
     inkscape:zoom="5.6"
     inkscape:cx="61.276444"
     inkscape:cy="47.76222"
     inkscape:document-units="px"
     inkscape:current-layer="g3080"
     showgrid="false"
     fit-margin-top="0"
     fit-margin-left="0"
     fit-margin-right="0"
     fit-margin-bottom="0"
     inkscape:window-width="1920"
     inkscape:window-height="1018"
     inkscape:window-x="-8"
     inkscape:window-y="-8"
     inkscape:window-maximized="1" />
  <metadata
     id="metadata3066">
    <rdf:RDF>
      <cc:Work
         rdf:about="">
        <dc:format>image/svg+xml</dc:format>
        <dc:type
           rdf:resource="http://purl.org/dc/dcmitype/StillImage" />
        <dc:title />
      </cc:Work>
    </rdf:RDF>
  </metadata>
  <g
     inkscape:label="Layer 1"
     inkscape:groupmode="layer"
     id="layer1"
     transform="translate(68.999995,2.0884179)">
    <g
       id="g3080">
      <path
         style="fill:#000000"
         d="m -42.571042,77.83321 c -0.05643,-0.06798 -0.978387,-1.423013 -2.048823,-3.011184 l -1.946244,-2.887589 0,-1.096826 c 0,-1.892324 0,-1.891341 -1.376997,-3.54478 -0.653461,-0.784447 -1.302634,-1.608439 -1.442594,-1.831109 -0.13996,-0.22267 -0.615123,-0.972222 -1.055923,-1.665672 -0.440789,-0.693451 -1.043152,-1.722827 -1.338581,-2.2875 -0.29543,-0.564682 -1.203278,-2.085586 -2.017441,-3.379804 -1.164051,-1.850405 -1.627578,-2.679806 -2.169696,-3.882291 -0.37917,-0.841047 -0.733623,-1.556508 -0.787673,-1.589913 -0.05405,-0.03341 -0.30972,-0.08716 -0.568155,-0.119444 -0.382682,-0.04782 -0.487681,-0.09777 -0.565792,-0.269209 -0.05275,-0.115775 -0.132022,-0.210501 -0.176158,-0.210501 -0.08234,0 -2.121098,1.122114 -4.687479,2.579949 -1.439825,0.81789 -1.449952,0.821967 -1.80504,0.726354 -0.306679,-0.08258 -0.350466,-0.123273 -0.310164,-0.28824 0.02581,-0.105648 0.09463,-0.385583 0.152931,-0.622076 l 0.106006,-0.429988 2.054472,-1.309073 c 1.129959,-0.71999 2.408891,-1.575238 2.842069,-1.900548 l 0.787598,-0.591476 -0.363907,-0.773727 -0.363909,-0.773727 -0.961418,-0.0043 -0.96142,-0.0043 -1.103716,-1.907651 -1.103715,-1.907649 0,-0.738909 0,-0.738909 0.27918,-0.02725 c 0.215563,-0.02104 0.290671,-0.07678 0.329608,-0.24463 0.04476,-0.192934 0.101371,-0.220338 0.503396,-0.243665 l 0.45297,-0.02628 0,-1.343228 c 0,-0.911736 0.03046,-1.343228 0.09481,-1.343228 0.05215,0 -0.276653,-0.420635 -0.730666,-0.934745 -0.468929,-0.531001 -0.881822,-0.924545 -0.955923,-0.911128 -0.165287,0.02993 -0.206963,-0.289487 -0.320754,-2.458302 -0.138368,-2.637226 -0.130682,-2.595508 -0.518306,-2.813364 -0.369236,-0.207524 -0.438612,-0.402691 -0.438612,-1.233913 0,-0.489202 0.0077,-0.505616 0.260786,-0.561219 0.211701,-0.0465 0.252843,-0.0928 0.21859,-0.24603 -0.02321,-0.103813 -0.200496,-1.421311 -0.393975,-2.927772 -0.193477,-1.506461 -0.488568,-3.764188 -0.655757,-5.017169 l -0.303981,-2.278147 0.393692,-1.717631 c 0.216531,-0.944696 0.393692,-1.759539 0.393692,-1.810759 0,-0.05122 -0.366869,-0.275371 -0.815264,-0.498112 -0.741708,-0.368441 -0.820049,-0.431014 -0.868295,-0.693509 -0.08879,-0.483092 -2.142375,-16.13125612 -2.142375,-16.32474117 0,-0.14262003 0.05478,-0.18053004 0.260859,-0.18053004 0.143473,0 0.260859,-0.0170833 0.260859,-0.0379667 0,-0.0208833 -0.07798,-0.36326009 -0.173296,-0.76083849 -0.09531,-0.3975792 -0.173572,-0.7505802 -0.173906,-0.7844452 -3.48e-4,-0.033867 0.498283,-0.051375 1.108042,-0.038917 0.806602,0.016483 1.178158,0.0599 1.363772,0.15934 0.219365,0.117525 0.400022,0.4703009 1.289003,2.5170772 1.023048,2.3554497 6.064267,14.5644464 6.064267,14.6866484 0,0.03484 -0.235604,0.151463 -0.523566,0.259153 -0.287961,0.10769 -0.541709,0.225158 -0.563885,0.261039 -0.02217,0.03588 0.164517,0.138404 0.414874,0.227828 l 0.455194,0.16259 0.751168,1.521678 c 0.413143,0.836923 1.626053,3.407862 2.695356,5.713198 l 1.94419,4.191521 0.300445,0.0257 c 0.266684,0.02282 0.335103,0.08536 0.608859,0.556607 0.182896,0.314839 0.538176,0.730648 0.872969,1.021699 0.462409,0.401993 0.621484,0.490792 0.879206,0.490792 l 0.314651,0 0.981322,2.152088 c 0.539726,1.183648 1.425552,3.041944 1.968503,4.129545 0.888643,1.780068 0.987187,2.023867 0.987187,2.442394 0,0.394223 0.0719,0.60227 0.472781,1.367907 0.532735,1.017491 0.523935,1.125009 -0.09214,1.125009 l -0.380645,0 0,1.253707 c 0,0.689539 -0.02403,1.316331 -0.0534,1.39287 -0.04493,0.117094 -0.01843,0.125865 0.167168,0.0553 0.164402,-0.06251 0.246521,-0.05259 0.322482,0.03892 0.08128,0.09794 0.03423,0.206988 -0.23239,0.538745 -0.183862,0.228774 -0.360707,0.436015 -0.392993,0.460537 -0.03229,0.02453 0.04582,0.470016 0.173567,0.989988 l 0.232269,0.945401 1.32799,-0.04463 c 1.048993,-0.03526 1.341556,-0.02039 1.392553,0.07074 0.04158,0.07428 0.281007,0.124699 0.672269,0.141559 0.583272,0.02513 0.607706,0.03493 0.607706,0.243566 l 0,0.217383 -1.556477,0.07798 c -1.140015,0.05711 -1.599197,0.05129 -1.71614,-0.02174 -0.08781,-0.05484 -0.258581,-0.09971 -0.37948,-0.09971 l -0.219818,0 0.252208,0.49998 0.252207,0.49998 1.640273,-0.04348 c 0.902147,-0.02391 1.691298,-0.0287 1.75367,-0.01063 0.06564,0.01902 0.102257,0.128867 0.08695,0.260859 -0.0257,0.221614 -0.04536,0.228724 -0.700328,0.253408 -0.510884,0.01925 -0.673886,0.05514 -0.673886,0.148358 0,0.09233 -0.157072,0.129329 -0.630409,0.148511 l -0.63041,0.02555 0.591098,0.413028 c 0.325108,0.227164 0.625244,0.413026 0.666982,0.413026 0.06592,0 0.165628,0.299223 0.188341,0.565195 0.0041,0.04783 0.07627,0.184775 0.16041,0.304335 0.08415,0.119561 0.236434,0.382266 0.338421,0.583787 l 0.185419,0.366405 -0.195801,0.101877 c -0.1077,0.05603 -0.207887,0.111913 -0.222643,0.124178 -0.01476,0.01227 0.03658,0.173262 0.114074,0.357771 0.0775,0.18451 0.190453,0.58981 0.250998,0.900668 0.103223,0.529952 0.217053,0.715689 1.825431,2.978682 0.943441,1.327416 1.691307,2.452371 1.661934,2.499899 -0.02937,0.04753 -0.100013,0.0864 -0.156967,0.08637 -0.05696,-1.7e-5 -0.783456,-0.844193 -1.614449,-1.875934 -0.830984,-1.031742 -1.539695,-1.843648 -1.574911,-1.804232 -0.03523,0.03941 -0.128481,0.3355 -0.207252,0.657965 -0.289319,1.184387 -0.992795,2.313194 -1.955557,3.137892 -1.697784,1.454333 -4.22531,1.812354 -6.250932,0.885443 -0.476621,-0.218096 -0.522097,-0.196749 -0.356252,0.167236 0.06492,0.142473 0.195173,0.238 0.36955,0.271007 0.199881,0.03783 0.358957,0.176289 0.617111,0.537135 0.191297,0.26739 0.556187,0.687877 0.810872,0.934415 0.381263,0.369063 0.506701,0.441835 0.710154,0.411975 0.226191,-0.0332 0.259538,-0.08702 0.394098,-0.636123 0.08086,-0.329926 0.172993,-0.599863 0.204765,-0.599863 0.03177,0 0.413584,0.831489 0.848488,1.847753 l 0.790734,1.847752 0.522805,-0.01436 c 0.487797,-0.01339 0.529952,0.0012 0.629757,0.217383 1.336972,2.896641 2.728109,6.751539 2.491492,6.904054 -0.05451,0.03514 -0.226278,0.06448 -0.381707,0.06522 -0.155428,8.33e-4 -0.282597,0.02382 -0.282597,0.0513 0,0.02748 0.570203,1.381118 1.267115,3.008079 0.696911,1.626953 1.254497,2.969968 1.23908,2.984463 -0.01542,0.0145 -0.231017,0.08624 -0.47912,0.159412 -0.389263,0.11482 -0.465138,0.116116 -0.553647,0.0095 z m -16.299753,-48.274242 -0.138326,-0.608171 -0.486167,-0.05714 c -0.267391,-0.03142 -0.497341,-0.04597 -0.510999,-0.03231 -0.01366,0.01366 0.251175,0.329236 0.588519,0.701286 0.337342,0.372049 0.629539,0.660264 0.649325,0.640478 0.01978,-0.01978 -0.02628,-0.309652 -0.102352,-0.644147 z m 0.181565,-1.956706 c 0.02425,-0.02425 -0.463002,-1.8169 -1.082787,-3.983662 -0.934122,-3.265672 -1.161588,-3.966239 -1.329759,-4.095502 -0.11158,-0.08576 -0.242003,-0.143937 -0.289827,-0.12927 -0.04782,0.01467 -0.508524,0.558969 -1.023778,1.209563 l -0.936825,1.182897 1.146624,2.543403 c 1.48528,3.294597 1.45112,3.235732 1.919489,3.307608 0.402229,0.06173 1.524731,0.0371 1.596863,-0.03503 z"
         id="path3082"
         inkscape:connector-curvature="0" />
    </g>
  </g>
</svg>
