<?xml version="1.0" encoding="UTF-8" standalone="no"?>
<svg
   xmlns:dc="http://purl.org/dc/elements/1.1/"
   xmlns:cc="http://creativecommons.org/ns#"
   xmlns:rdf="http://www.w3.org/1999/02/22-rdf-syntax-ns#"
   xmlns:svg="http://www.w3.org/2000/svg"
   xmlns="http://www.w3.org/2000/svg"
   version="1.1"
   id="svg3061"
   viewBox="0 0 11.555437 31.499897"
   width="34.666311">
  <defs
     id="defs3063" />
  <metadata
     id="metadata3066">
    <rdf:RDF>
      <cc:Work
         rdf:about="">
        <dc:format>image/svg+xml</dc:format>
        <dc:type
           rdf:resource="http://purl.org/dc/dcmitype/StillImage" />
        <dc:title></dc:title>
      </cc:Work>
    </rdf:RDF>
  </metadata>
  <g
     transform="translate(68.999991,-46.41159)"
     id="layer1">
    <g
       id="g3080">
      <path
         id="path3082"
         d="m -58.593596,77.880731 c -0.02222,-0.02677 -0.38524,-0.560311 -0.806724,-1.185654 l -0.766334,-1.136988 0,-0.431875 c 0,-0.745102 0,-0.744715 -0.542192,-1.395757 -0.2573,-0.308876 -0.512912,-0.633323 -0.568022,-0.720999 -0.05511,-0.08768 -0.242204,-0.382812 -0.415769,-0.655858 -0.173561,-0.273046 -0.410741,-0.678363 -0.527066,-0.900703 -0.116326,-0.222344 -0.473791,-0.821199 -0.794368,-1.330798 -0.458345,-0.728596 -0.640858,-1.055173 -0.854317,-1.528651 -0.149298,-0.331163 -0.288864,-0.612875 -0.310146,-0.626029 -0.02128,-0.01316 -0.121953,-0.03432 -0.223711,-0.04703 -0.150682,-0.01883 -0.192025,-0.0385 -0.222781,-0.106001 -0.02077,-0.04559 -0.05198,-0.08288 -0.06936,-0.08288 -0.03242,0 -0.835182,0.441832 -1.845695,1.015854 -0.566931,0.322044 -0.570918,0.32365 -0.710734,0.286002 -0.120755,-0.03252 -0.137996,-0.04854 -0.122127,-0.113494 0.01016,-0.0416 0.03726,-0.151824 0.06022,-0.244943 l 0.04174,-0.169307 0.808948,-0.515448 c 0.444922,-0.283496 0.948501,-0.62025 1.119065,-0.748341 l 0.310117,-0.232893 -0.143289,-0.304655 -0.143289,-0.304655 -0.378558,-0.0017 -0.378559,-0.0017 -0.434588,-0.751138 -0.434588,-0.751137 0,-0.290945 0,-0.290945 0.109927,-0.01073 c 0.08488,-0.0083 0.114452,-0.03023 0.129783,-0.09632 0.01762,-0.07597 0.03991,-0.08676 0.198212,-0.09594 l 0.178357,-0.01035 0,-0.528896 c 0,-0.358996 0.01199,-0.528896 0.03733,-0.528896 0.02053,0 -0.108933,-0.165625 -0.2877,-0.368055 -0.184641,-0.209082 -0.347217,-0.36404 -0.376395,-0.358757 -0.06508,0.01179 -0.08149,-0.113986 -0.126297,-0.967956 -0.05448,-1.038408 -0.05146,-1.021981 -0.204083,-1.107762 -0.145386,-0.08171 -0.172703,-0.15856 -0.172703,-0.485853 0,-0.192624 0.003,-0.199087 0.102684,-0.22098 0.08336,-0.01831 0.09956,-0.03654 0.08607,-0.09688 -0.0091,-0.04088 -0.07894,-0.559641 -0.155127,-1.15281 -0.07618,-0.593169 -0.192374,-1.482148 -0.258205,-1.97551 l -0.119692,-0.89702 0.155016,-0.676317 c 0.08526,-0.371974 0.155016,-0.692818 0.155016,-0.712986 0,-0.02017 -0.144454,-0.108428 -0.32101,-0.196132 -0.292047,-0.145073 -0.322894,-0.169712 -0.341891,-0.273069 -0.03496,-0.190217 -0.84356,-6.351681 -0.84356,-6.427866 0,-0.05616 0.02157,-0.07108 0.102713,-0.07108 0.05649,0 0.102713,-0.0067 0.102713,-0.01495 0,-0.0082 -0.0307,-0.143033 -0.06824,-0.29958 -0.03753,-0.156547 -0.06834,-0.295541 -0.06848,-0.308875 -1.37e-4,-0.01333 0.196199,-0.02023 0.436291,-0.01532 0.3176,0.0065 0.4639,0.02359 0.536985,0.06274 0.08638,0.04628 0.157509,0.185181 0.507545,0.991099 0.402825,0.927459 2.387805,5.73475 2.387805,5.782867 0,0.01372 -0.09277,0.05964 -0.206154,0.102042 -0.113385,0.0424 -0.213298,0.08866 -0.22203,0.102784 -0.0087,0.01413 0.06478,0.0545 0.163357,0.08971 l 0.179232,0.06402 0.295773,0.59916 c 0.162675,0.329539 0.640258,1.341846 1.061296,2.249572 l 0.765525,1.650411 0.1183,0.01012 c 0.105007,0.009 0.131947,0.03361 0.239738,0.219164 0.07202,0.123968 0.211907,0.287693 0.343732,0.402294 0.182073,0.158285 0.244709,0.19325 0.346187,0.19325 l 0.123894,0 0.386395,0.847384 c 0.212517,0.466061 0.561311,1.197765 0.775098,1.626008 0.349903,0.700902 0.388705,0.796898 0.388705,0.961693 0,0.155225 0.02831,0.237143 0.186157,0.538613 0.209765,0.400637 0.2063,0.442972 -0.03628,0.442972 l -0.149879,0 0,0.493647 c 0,0.271506 -0.0095,0.518305 -0.02103,0.548443 -0.01769,0.0461 -0.0073,0.04956 0.06582,0.02177 0.06473,-0.02461 0.09707,-0.02071 0.126978,0.01533 0.032,0.03856 0.01348,0.0815 -0.0915,0.212131 -0.0724,0.09008 -0.142028,0.171681 -0.154741,0.181336 -0.01271,0.0097 0.01804,0.185069 0.06834,0.389808 l 0.09146,0.372251 0.522896,-0.01757 c 0.413041,-0.01388 0.528238,-0.008 0.548318,0.02785 0.01637,0.02925 0.110646,0.0491 0.264706,0.05574 0.229663,0.0099 0.239284,0.01375 0.239284,0.0959 l 0,0.08559 -0.612863,0.0307 c -0.448881,0.02249 -0.629684,0.0202 -0.67573,-0.0086 -0.03458,-0.02159 -0.101816,-0.03926 -0.14942,-0.03926 l -0.08655,0 0.09931,0.196867 0.09931,0.196868 0.645857,-0.01712 c 0.355221,-0.0094 0.665949,-0.0113 0.690508,-0.0042 0.02584,0.0075 0.04026,0.05074 0.03424,0.102713 -0.01012,0.08726 -0.01786,0.09006 -0.275754,0.09978 -0.20116,0.0076 -0.265342,0.02171 -0.265342,0.05842 0,0.03636 -0.06185,0.05092 -0.248224,0.05848 l -0.248224,0.01006 0.232745,0.16263 c 0.128011,0.08944 0.24619,0.162628 0.262624,0.162628 0.02596,0 0.06522,0.11782 0.07416,0.222546 0.0016,0.01883 0.03003,0.07276 0.06316,0.119832 0.03313,0.04708 0.0931,0.150517 0.133253,0.229866 l 0.07301,0.144272 -0.0771,0.04011 c -0.04241,0.02206 -0.08186,0.04407 -0.08767,0.0489 -0.0058,0.0048 0.0144,0.06822 0.04492,0.140872 0.03052,0.07265 0.07499,0.232238 0.09883,0.354638 0.04064,0.208669 0.08546,0.281803 0.718763,1.172856 0.37148,0.52267 0.665952,0.965621 0.654386,0.984335 -0.01156,0.01872 -0.03938,0.03402 -0.0618,0.03401 -0.02243,-6e-6 -0.308486,-0.332401 -0.63569,-0.738648 -0.3272,-0.406249 -0.606254,-0.725937 -0.620121,-0.710417 -0.01387,0.01552 -0.05059,0.132103 -0.08161,0.259074 -0.11392,0.466352 -0.390913,0.91082 -0.770001,1.235545 -0.668502,0.572643 -1.663715,0.713614 -2.461304,0.348643 -0.187669,-0.08588 -0.205575,-0.07747 -0.140274,0.06585 0.02556,0.0561 0.07685,0.09371 0.14551,0.106709 0.0787,0.0149 0.14134,0.06941 0.242988,0.211497 0.07532,0.105285 0.218998,0.270851 0.319281,0.367926 0.150122,0.145318 0.199513,0.173972 0.279623,0.162215 0.08906,-0.01307 0.102193,-0.03426 0.155176,-0.250474 0.03184,-0.129908 0.06812,-0.236196 0.08063,-0.236196 0.01251,0 0.162849,0.327399 0.334092,0.727553 l 0.311351,0.727552 0.205855,-0.0057 c 0.19207,-0.0053 0.208668,4.73e-4 0.247967,0.08559 0.526432,1.140552 1.074192,2.658418 0.981025,2.71847 -0.02146,0.01384 -0.0891,0.02539 -0.150298,0.02568 -0.0612,3.28e-4 -0.111272,0.0094 -0.111272,0.0202 0,0.01082 0.224517,0.543815 0.498926,1.184431 0.274409,0.640613 0.493958,1.169425 0.487888,1.175132 -0.0061,0.0057 -0.09096,0.03396 -0.188653,0.06277 -0.153273,0.04521 -0.183149,0.04572 -0.217999,0.0037 z m -6.418027,-19.00798 -0.05447,-0.239467 -0.191428,-0.0225 c -0.105285,-0.01237 -0.195828,-0.0181 -0.201206,-0.01272 -0.0054,0.0054 0.0989,0.129636 0.231729,0.276131 0.132829,0.146494 0.247881,0.259979 0.255672,0.252188 0.0078,-0.0078 -0.01035,-0.121925 -0.0403,-0.253633 z m 0.07149,-0.770453 c 0.0095,-0.0095 -0.182307,-0.715404 -0.426347,-1.568566 -0.367811,-1.285859 -0.457375,-1.561707 -0.523593,-1.612604 -0.04393,-0.03377 -0.09529,-0.05668 -0.114119,-0.0509 -0.01883,0.0058 -0.200231,0.220094 -0.403113,0.476265 l -0.368874,0.465766 0.451483,1.001465 c 0.584829,1.297247 0.571378,1.274069 0.755798,1.30237 0.158378,0.02431 0.600363,0.01461 0.628765,-0.01379 z"
         style="fill:#000000" />
    </g>
  </g>
</svg>
