<?xml version="1.0" encoding="UTF-8" standalone="no"?>
<svg
   xmlns:dc="http://purl.org/dc/elements/1.1/"
   xmlns:cc="http://creativecommons.org/ns#"
   xmlns:rdf="http://www.w3.org/1999/02/22-rdf-syntax-ns#"
   xmlns:svg="http://www.w3.org/2000/svg"
   xmlns="http://www.w3.org/2000/svg"
   version="1.1"
   id="svg2"
   viewBox="0 0 270.00002 63.286879"
   width="810">
  <defs
     id="defs4" />
  <metadata
     id="metadata7">
    <rdf:RDF>
      <cc:Work
         rdf:about="">
        <dc:format>image/svg+xml</dc:format>
        <dc:type
           rdf:resource="http://purl.org/dc/dcmitype/StillImage" />
        <dc:title></dc:title>
      </cc:Work>
    </rdf:RDF>
  </metadata>
  <g
     transform="translate(759.7587,-765.11104)"
     id="layer1">
    <g
       transform="matrix(0.11672688,0,0,0.11672688,-646.07711,842.0672)"
       id="g4159">
      <path
         id="path4165"
         d="m -409.08216,-117.89551 -14.20384,0.79065 -2.1875,-3.78244 c -1.20312,-2.08033 -2.1875,-5.17365 -2.1875,-6.87402 0,-1.70036 0.84375,-3.79183 1.875,-4.64769 1.03125,-0.85586 1.89289,-2.47161 1.91475,-3.59055 0.0219,-1.11895 0.86562,-3.12634 1.875,-4.46086 1.00939,-1.33453 1.83525,-2.82515 1.83525,-3.3125 0,-0.48735 -2.025,-2.91109 -4.5,-5.38609 -2.475,-2.475 -5.14688,-4.49139 -5.9375,-4.48086 -0.79062,0.01 -2.07555,0.4324 -2.8554,0.9375 -0.77984,0.5051 -1.62934,2.04336 -1.88776,3.41836 -0.28943,1.53988 -1.66514,2.66841 -3.58211,2.93853 -1.71173,0.24117 -3.52549,1.08492 -4.03059,1.875 -0.5051,0.79006 -0.92698,3.2646 -0.9375,5.49897 -0.0188,3.97608 -0.1383,4.0625 -5.62033,4.0625 -4.79747,0 -5.6873,-0.40356 -6.20132,-2.8125 -0.33009,-1.54687 -0.76268,-3.88714 -0.96133,-5.20057 -0.24066,-1.59134 -2.02925,-2.8558 -5.36091,-3.78999 -3.70846,-1.03983 -6.4526,-1.03471 -10.625,0.0199 -5.28175,1.3349 -5.66341,1.71899 -6.25025,6.28998 -0.62186,4.84387 -0.65319,4.86827 -6.25,4.86827 -5.61537,0 -5.62607,-0.009 -6.25,-4.9542 -0.54754,-4.34017 -1.10329,-5.05133 -4.48411,-5.73802 -2.12251,-0.43111 -4.54784,-1.20949 -5.3896,-1.72973 -0.84178,-0.52025 -2.04438,-2.29751 -2.67245,-3.94947 -1.09768,-2.88717 -1.6131,-3.00364 -13.292,-3.00364 -11.06391,0 -12.43552,0.26564 -15.34344,2.9716 -1.75637,1.63437 -9.66215,6.22144 -17.5684,10.19347 -8.02265,4.03053 -15.65789,8.79353 -17.2781,10.77842 -1.5967,1.95607 -3.94041,3.55651 -5.20824,3.55651 -1.26782,0 -3.43235,1.54688 -4.81002,3.4375 l -2.50489,3.4375 -63.53687,-0.27854 c -42.55418,-0.18656 -64.90612,0.16418 -67.683,1.06204 -3.49173,1.12899 -4.39709,0.99739 -5.73605,-0.83376 -1.18345,-1.61845 -3.99275,-2.32855 -10.98837,-2.7775 -8.80776,-0.56525 -9.52967,-0.41679 -11.48668,2.3623 -1.76387,2.50481 -2.2738,2.6742 -3.2827,1.09046 -0.65694,-1.03125 -1.3442,-2.26835 -1.52725,-2.7491 -0.18306,-0.48075 -16.98079,-1.39577 -37.3283,-2.03339 -28.92454,-0.90637 -39.01445,-0.80635 -46.25,0.45849 -7.841,1.37068 -9.67739,1.34714 -12.02305,-0.15411 -1.52269,-0.97454 -3.84862,-1.77189 -5.16874,-1.77189 -1.32012,0 -3.30865,-1.38646 -4.41898,-3.08103 -1.11032,-1.69456 -2.02737,-5.21018 -2.0379,-7.8125 -0.01,-2.60231 -0.4939,-5.48038 -1.07416,-6.39572 -0.79083,-1.24751 -5.71589,-1.71702 -19.66836,-1.875 l -18.61334,-0.21075 0,-46.25 0,-46.25 3.125,-0.34994 c 1.71875,-0.19247 4.39063,-0.62506 5.9375,-0.96132 2.56447,-0.55745 2.8125,-1.3258 2.8125,-8.71255 0,-4.45565 -0.23462,-8.10119 -0.52137,-8.10119 -0.28675,0 -2.95863,1.03506 -5.9375,2.30014 -2.97887,1.26506 -7.23268,2.65494 -9.45292,3.0886 -2.22023,0.43366 -7.84523,2.57966 -12.5,4.76888 -4.65476,2.18923 -10.99446,4.22429 -14.08821,4.52236 -3.29434,0.31738 -9.50944,-0.47167 -15,-1.90435 -8.97367,-2.34158 -9.39176,-2.61381 -9.76657,-6.35931 -0.24229,-2.42117 -1.39195,-4.44838 -3.01549,-5.31727 -1.44315,-0.77235 -4.97254,-1.55211 -7.8431,-1.7328 -2.87055,-0.18067 -7.13858,-0.73946 -9.48451,-1.24173 -2.34593,-0.50226 -4.96845,-1.47962 -5.82783,-2.17192 -1.19753,-0.9647 -1.5625,-11.72395 -1.5625,-46.06168 0,-44.51812 0.017,-44.81207 2.67835,-46.23637 1.4731,-0.78838 6.54626,-1.91909 11.2737,-2.51269 4.72743,-0.59359 9.70968,-1.67564 11.07164,-2.40453 1.62254,-0.86837 2.47631,-2.61656 2.47631,-5.07054 0,-2.05989 0.70313,-3.93678 1.5625,-4.17086 0.85938,-0.23409 5.6533,-1.41379 10.65317,-2.62158 5.04731,-1.21924 11.25161,-1.90612 13.9491,-1.54431 2.67213,0.35841 8.42508,2.33705 12.78433,4.39697 4.35924,2.05993 11.58215,4.8895 16.0509,6.28795 4.46875,1.39844 9.02545,2.89514 10.12599,3.32599 1.68291,0.65885 2.11939,-0.62881 2.74578,-8.10042 0.40963,-4.88609 0.43338,-9.69532 0.0528,-10.68717 -0.4336,-1.12995 -2.45203,-1.80336 -5.40522,-1.80336 -2.59226,0 -5.35168,-0.76931 -6.13203,-1.70957 -1.01475,-1.22271 -1.32533,-14.66148 -1.09056,-47.1875 l 0.32827,-45.47793 5.625,0.20215 c 3.09375,0.11112 7.3125,0.26584 9.375,0.34369 2.0625,0.0779 10.21875,-0.31595 18.125,-0.87512 11.02667,-0.77986 14.94931,-0.64155 16.84064,0.5938 1.35609,0.88577 3.65954,1.61048 5.11876,1.61048 1.45923,0 3.64374,-1.0946 4.85446,-2.43245 1.22142,-1.34965 4.22895,-2.60163 6.75624,-2.8125 l 4.5549,-0.38005 0.75096,-9.375 c 0.57433,-7.16975 0.3538,-9.61014 -0.9375,-10.37461 -0.92865,-0.54979 -1.68846,-2.94042 -1.68846,-5.3125 l 0,-4.31289 8.18707,0 c 4.94222,0 9.66879,-0.76622 11.92557,-1.93325 3.2361,-1.67345 12.45612,-1.92659 68.60821,-1.88364 35.67835,0.0272 65.74935,-0.28794 66.82444,-0.70049 1.07508,-0.41255 1.96332,-1.95553 1.97385,-3.42886 0.01,-1.47331 0.48125,-3.4072 1.04603,-4.29751 0.73389,-1.15686 3.84929,-1.51354 10.91837,-1.25 l 9.89146,0.36875 0.625,4.375 0.625,4.375 27.85258,0.33653 27.85256,0.33651 1.11615,2.93569 c 1.04446,2.74713 2.16228,3.03928 17.40575,4.54898 12.41342,1.22943 16.7071,1.26684 18.04412,0.15721 0.96498,-0.80086 11.76729,-5.11725 24.00514,-9.59196 16.43684,-6.01005 23.2596,-7.95267 26.11216,-7.43484 2.47496,0.4493 7.20324,-0.44465 13.16804,-2.48957 5.11856,-1.75483 9.70174,-3.83013 10.18482,-4.61178 0.48309,-0.78165 0.2895,-3.11031 -0.43018,-5.17481 -0.94233,-2.70317 -0.9066,-4.3972 0.12767,-6.05334 0.7899,-1.26483 1.43619,-2.55295 1.43619,-2.86246 0,-0.30952 -1.82812,-0.73902 -4.0625,-0.95446 -3.86655,-0.37281 -4.07821,-0.66301 -4.38815,-6.0167 -0.1791,-3.09375 0.15157,-6.35439 0.73484,-7.24586 0.58327,-0.89147 4.10481,-1.83408 7.82565,-2.09468 3.72083,-0.26061 14.35551,-0.85542 23.63261,-1.32181 12.91627,-0.64935 17.96725,-1.40906 21.5625,-3.24323 2.58227,-1.31737 4.69505,-3.25371 4.69505,-4.30296 0,-1.04926 -1.68394,-2.86595 -3.7421,-4.0371 -2.05815,-1.17115 -3.74565,-2.8127 -3.75,-3.64789 -0.004,-0.83518 -1.15234,-2.131 -2.55109,-2.87958 -1.43448,-0.76772 -8.38243,-1.29999 -15.9375,-1.22095 -7.36687,0.0771 -14.09743,0.10725 -14.95681,0.0671 -0.85937,-0.0402 -1.5625,-0.91681 -1.5625,-1.94806 0,-1.56309 2.50936,-1.875 15.08424,-1.875 14.16656,0 15.03909,-0.14223 14.34223,-2.33781 -0.64034,-2.01758 0.0874,-2.41751 5.3125,-2.91958 3.32998,-0.31997 7.89068,-1.49776 10.13488,-2.61732 2.61181,-1.30294 9.19181,-2.34114 18.28244,-2.88463 l 14.20207,-0.84909 2.80057,5.76443 c 2.52572,5.1987 2.61431,5.98299 0.90261,7.9917 -1.04388,1.22501 -3.14861,4.69781 -4.67721,7.71732 -2.12348,4.19462 -2.43035,5.81683 -1.30055,6.875 1.087,1.01809 1.63176,0.96727 2.05641,-0.19185 0.31774,-0.86725 1.7943,-2.27272 3.28125,-3.12328 1.84022,-1.05262 12.08405,-1.74659 32.07856,-2.17318 l 29.375,-0.62671 0.27517,-21.57495 c 0.15136,-11.86621 0.85448,-22.65736 1.5625,-23.98031 0.70803,-1.32297 1.28733,-3.52947 1.28733,-4.90333 0,-1.40012 1.09872,-2.84666 2.5,-3.29141 1.375,-0.43641 3.625,-0.43641 5,0 2.28834,0.72629 2.5,1.89129 2.5,13.76046 0,7.2963 -0.54665,13.30484 -1.25,13.73954 -0.6875,0.4249 -1.25,1.91996 -1.25,3.32236 0,1.4024 0.90784,4.46295 2.01743,6.80123 1.24297,2.61936 2.92246,4.25141 4.375,4.25141 2.07114,0 2.38684,-1.10101 2.59856,-9.0625 0.13255,-4.98438 0.0891,-11.76693 -0.0964,-15.07232 -0.21698,-3.86544 0.36605,-7.08339 1.634,-9.01853 1.08426,-1.65479 1.97138,-4.11557 1.97138,-5.46844 0,-1.36192 1.11578,-2.81387 2.5,-3.25321 1.375,-0.43641 3.625,-0.43641 5,0 2.27925,0.7234 2.5,1.89129 2.5,13.2262 0,7.14597 -0.60657,13.40397 -1.42644,14.71681 -0.8555,1.36988 -1.08688,4.09413 -0.57805,6.80635 0.56055,2.98804 2.10467,5.41682 4.55144,7.15907 3.02912,2.15693 3.70305,3.53127 3.70305,7.55168 0,3.28375 0.55797,4.91489 1.68126,4.91489 0.9247,0 2.62639,-1.04435 3.78154,-2.32077 1.8749,-2.07174 1.89568,-2.49055 0.19373,-3.90305 -1.04858,-0.87027 -1.90652,-2.85079 -1.90652,-4.40118 0,-1.55039 0.79173,-3.47596 1.75938,-4.27904 1.09083,-0.90531 5.24694,-1.31971 10.9375,-1.09056 l 9.17812,0.3696 0.625,6.25 0.625,6.25 7.5,-0.33023 c 4.125,-0.18161 10.03125,-0.33835 13.125,-0.34828 3.09375,-0.01 8.71875,0.13866 12.5,0.33022 6.34779,0.32158 6.90633,0.12733 7.28345,-2.53301 0.22465,-1.58473 -0.2661,-3.6941 -1.09055,-4.6875 -0.82446,-0.99341 -2.97701,-1.81481 -4.78345,-1.82534 -1.80645,-0.0105 -4.1282,-0.56441 -5.15945,-1.23086 -1.25817,-0.81309 4.11189,-1.21801 16.32359,-1.23086 14.08906,-0.0147 18.74651,0.39529 20.625,1.81611 1.91601,1.44919 7.07811,1.8436 24.54013,1.875 16.35479,0.0294 22.37709,-0.36716 23.125,-1.52275 0.5562,-0.85938 1.3596,-16.1875 1.78534,-34.0625 0.42574,-17.875 1.26949,-35.03125 1.875,-38.125 0.95378,-4.87309 1.51868,-5.625 4.22594,-5.625 l 3.125,0 0.3396,24.89059 c 0.32049,23.48935 0.19774,25.0416 -2.18044,27.57305 -1.97422,2.10146 -2.43741,4.0368 -2.13856,8.93546 0.26837,4.39891 1.18846,7.05996 3.10304,8.97454 2.21608,2.21608 2.65118,3.90293 2.34266,9.0823 -0.20839,3.4984 -1.10079,6.80689 -1.98309,7.35219 -0.88231,0.54528 -1.4018,2.04903 -1.15442,3.34166 0.39645,2.07155 1.85456,2.3933 12.29761,2.71359 7.45842,0.22874 12.87881,-0.18839 14.63061,-1.12593 2.16948,-1.16107 3.19339,-1.1485 4.64594,0.057 1.36592,1.13361 8.633248,1.48656 27.23011,1.32247 19.2125,-0.16952 26.731651,0.21494 30.991938,1.58465 4.58155,1.473 5.698363,2.42192 6.020475,5.11534 0.307563,2.57185 -0.304262,3.5729 -2.752637,4.50376 -1.73145,0.6583 -4.018788,2.88064 -5.082963,4.93854 -1.064187,2.05789 -1.934875,4.6676 -1.934875,5.79934 0,1.7537 0.969588,1.9359 6.5625,1.23316 3.609375,-0.4535 20.765275,-1.10539 38.1242251,-1.44864 l 31.5617249,-0.62408 3.759062,4.11565 c 2.067475,2.2636 3.563163,4.68932 3.323725,5.3905 -0.239425,0.70116 -1.995812,1.27485 -3.903075,1.27485 -2.552175,0 -4.254612,1.1458 -6.447962,4.33972 -1.639113,2.38685 -2.9802,5.6582 -2.9802,7.26968 0,1.61147 -0.663413,4.1586 -1.474263,5.66027 -0.810837,1.50168 -1.357612,4.53025 -1.215062,6.73015 0.185875,2.86837 -0.434638,4.37115 -2.193563,5.3125 -1.3696,0.73299 -9.9872119,1.31268 -19.5140999,1.31268 -13.0912871,0 -16.9411251,0.36358 -16.5446871,1.5625 0.335512,1.01467 3.757437,1.69325 9.760012,1.93542 6.0004631,0.2421 9.96786305,1.0286 11.3084381,2.2418 1.56905,1.41998 5.47985,1.88229 16.2816499,1.9247 7.819112,0.0307 15.904075,0.37418 17.966575,0.76329 l 3.75,0.70746 -3.75,1.62604 c -2.0625,0.89431 -7.306875,1.6514 -11.65415,1.68241 -6.837325,0.0488 -7.847713,0.35163 -7.48595,2.24388 0.365125,1.90979 2.613862,2.29021 17.71325,2.99658 9.512262,0.44499 17.896862,1.41093 18.63245,2.14652 0.949925,0.94992 0.82415,1.52782 -0.434075,1.99451 -0.974337,0.36138 -12.459025,0.8017 -25.521525,0.97848 -19.9200629,0.26957 -23.7499999,0.61782 -23.7499999,2.1595 0,1.01093 1.249612,2.46107 2.776925,3.22252 1.5273,0.76145 5.7929749,4.23691 9.4792749,7.72325 6.626837,6.26739 6.81385,6.34779 16.598075,7.1348 5.44265,0.43779 13.69695,1.65783 18.342887,2.71119 7.468478,1.69331 28.902438,1.81821 185,1.07801 125.00884,-0.59277 177.55646,-0.44416 179.99034,0.50904 2.95388,1.15681 3.4375,2.05072 3.4375,6.35335 0,4.19139 0.45825,5.0994 2.8125,5.57359 1.54687,0.31156 4.61887,0.86636 6.82662,1.2329 2.67888,0.44473 4.65388,0.0266 5.9375,-1.25696 1.05788,-1.05784 1.92338,-3.60387 1.92338,-5.65784 0,-2.17136 0.52325,-3.41113 1.25,-2.96194 0.6875,0.4249 1.25,1.80416 1.25,3.06503 0,1.26088 0.88975,2.63393 1.97725,3.05123 1.0875,0.41731 7.55462,0.75874 14.37138,0.75874 l 12.39425,0 1.7305,-4.0625 1.73049,-4.0625 0.93413,6.5625 c 0.51375,3.60937 1.183,6.5625 1.48738,6.5625 0.30424,0 1.39699,-0.84375 2.42824,-1.875 1.13888,-1.13895 4.19963,-1.875 7.79675,-1.875 3.27176,0 7.00763,0.8213 8.34825,1.83525 2.00376,1.51555 8.87763,1.84216 39.46088,1.875 31.42812,0.0337 37.27,-0.24409 38.5905,-1.83525 1.0225,-1.23202 3.812,-1.875 8.13425,-1.875 5.63737,0 6.87113,0.44694 8.62575,3.125 1.12625,1.71875 2.67575,3.125 3.4435,3.125 0.76775,0 2.06725,-0.91815 2.88787,-2.04034 1.29563,-1.77195 5.58875,-2.09574 32.63776,-2.46154 17.13024,-0.23166 31.51824,-0.43851 31.97349,-0.45966 0.45525,-0.0211 1.24375,-2.42909 1.7525,-5.35096 l 0.92476,-5.3125 1.68862,4.0625 1.68862,4.0625 12.39425,0 c 6.81676,0 13.28388,-0.34143 14.37138,-0.75874 1.0875,-0.4173 1.97725,-1.79035 1.97725,-3.05123 0,-1.26087 0.5625,-2.64013 1.25,-3.06503 0.71888,-0.44425 1.25725,0.71956 1.26712,2.73872 0.0125,1.9312 0.35313,4.76503 0.76388,6.29738 0.68762,2.56544 0.95575,2.63969 3.386,0.9375 1.59613,-1.11793 5.51775,-1.8486 9.92175,-1.8486 l 7.2825,0 6.05575,-12.96865 c 3.33063,-7.13276 6.80825,-13.43373 7.728,-14.00214 0.91975,-0.56841 8.15175,-1.50998 16.07113,-2.09236 7.91937,-0.58239 19.84637,-1.34925 26.50437,-1.70413 11.7625,-0.62695 12.16163,-0.5594 14.09087,2.38507 1.09213,1.66666 2.74413,6.6251 3.67138,11.01875 0.92713,4.39366 2.93863,10.09783 4.47,12.67596 2.47763,4.17139 3.33475,4.6875 7.78425,4.6875 3.94375,0 5.74,0.79216 8.503,3.75 l 3.503,3.75 63.98213,0 63.982,0 1.4155,3.75 c 0.7785,2.0625 2.10937,3.75 2.9575,3.75 1.11387,0 1.35187,-1.82211 0.85725,-6.5625 -0.38238,-3.66326 -2.56525,-10.46935 -4.94113,-15.40574 -2.341,-4.86379 -4.25412,-9.64504 -4.25162,-10.625 0,-0.97997 1.1645,-3.68417 2.58212,-6.00935 l 2.57725,-4.2276 13.33758,0.89344 c 7.3357,0.49137 14.7519,1.6512 16.4805,2.57737 1.7285,0.92619 5.055,2.28594 7.3919,3.02168 2.337,0.73574 5.5538,1.3377 7.1483,1.3377 2.035,0 2.6895,0.54681 2.1953,1.83431 -0.5898,1.53715 1.6923,1.89153 14.08671,2.1875 12.9275,0.3087 14.8433,0.62872 15.2097,2.54069 0.3828,1.99664 -1.0637,2.1875 -16.5782,2.1875 -16.82001,0 -17.00971,0.0315 -18.14521,3.01804 -0.631,1.65992 -2.2526,3.36883 -3.6035,3.79758 -1.3508,0.42875 -2.7835,1.6325 -3.1835,2.67502 -0.4001,1.04251 -1.3127,5.55942 -2.0281,10.03757 -1.2625,7.90288 -1.1986,8.27746 2.1744,12.74938 1.9114,2.53401 4.0987,5.73006 4.8611,7.10235 1.327,2.38907 2.8478,2.50623 35.79881,2.75827 18.927,0.14478 40.2408,0.842 47.364,1.54939 7.1232,0.70739 25.978,2.56072 41.8995,4.11851 28.3427,2.77309 29.0148,2.90411 32.1278,6.26311 2.2163,2.39144 4.4283,3.43658 7.3018,3.44992 2.2671,0.01 4.7527,0.4324 5.5234,0.9375 0.7707,0.5051 3.1155,4.32701 5.2105,8.49315 2.0951,4.16613 4.5582,8.16386 5.4737,8.88383 0.9155,0.71998 8.4145,2.84347 16.6645,4.71887 8.25,1.87538 17.25,4.18396 20,5.13016 2.75,0.9462 8.6563,2.30044 13.125,3.00941 4.4688,0.70898 13.3281,1.2933 19.6875,1.2985 10.2155,0.009 11.5523,-0.24541 11.4746,-2.17806 -0.049,-1.20313 -0.487,-3.19893 -0.9748,-4.4351 -0.488,-1.23618 -2.2765,-2.95595 -3.9748,-3.82171 -2.6212,-1.33643 -3.0511,-2.37233 -2.8464,-6.86042 0.2237,-4.8996 -0.023,-5.33895 -3.357,-6.00596 l -3.5983,-0.71965 2.7321,-4.3377 2.7321,-4.33769 23.125,0.84813 c 12.7188,0.46646 23.711,1.32814 24.4271,1.91481 0.7162,0.58668 5.2162,1.23569 10,1.44224 4.7839,0.20655 8.6979,0.93805 8.6979,1.62555 0,0.6875 -1.8281,1.42626 -4.0625,1.6417 -2.2344,0.21544 -4.0625,0.91856 -4.0625,1.5625 0,0.67916 8.4349,1.1708 20.087,1.1708 l 20.0869,0 -0.3994,2.8125 c -0.3936,2.7712 -0.7024,2.81739 -21.0245,3.14544 l -20.625,0.33293 -8.8672,4.36643 c -5.9709,2.94016 -9.3608,5.44945 -10.378,7.682 -1.2352,2.71086 -1.177,3.64915 0.3185,5.14472 1.3882,1.3882 5.5361,1.86677 17.2056,1.98508 l 15.3762,0.1559 1.1658,4.0625 1.1657,4.0625 15.3704,0 c 8.4538,0 15.691,0.51855 16.0826,1.15232 0.3918,0.63379 -3.467,4.60922 -8.5748,8.83429 -5.1078,4.22508 -9.5962,8.48778 -9.9742,9.47266 -0.378,0.9849 -1.4591,1.79073 -2.4025,1.79073 -0.9435,0 -4.3951,2.53125 -7.6703,5.625 -3.2753,3.09375 -6.3579,5.625 -6.8503,5.625 -0.4924,0 -3.4779,2.39062 -6.6344,5.3125 -3.1566,2.92187 -7.1947,6.32314 -8.9736,7.55835 -1.779,1.23522 -3.2345,2.97541 -3.2345,3.86709 0,1.23277 5.1576,1.82398 21.5259,2.46747 11.8391,0.46543 21.9171,1.25649 22.3955,1.75791 0.4784,0.50143 1.0574,2.03668 1.2866,3.41168 0.3733,2.23797 -0.3691,2.53694 -7.083,2.85244 -6.7187,0.31572 -7.8484,0.77145 -10.845,4.375 l -3.3449,4.02256 -17.9902,0.40099 -17.9903,0.40098 0.3674,7.72402 c 0.202,4.24821 0.7248,9.84113 1.1615,12.42872 0.5045,2.98963 0.232,5.38198 -0.7477,6.5625 -0.848,1.02179 -2.8019,1.85779 -4.3419,1.85779 -1.5401,0 -4.9235,1.6875 -7.5189,3.75 -2.5954,2.0625 -5.3445,3.7747 -6.1094,3.80489 -0.7648,0.0301 -5.4965,0.5306 -10.5147,1.11202 -5.3684,0.62199 -10.0489,1.89408 -11.3709,3.09043 -1.3601,1.23085 -8.1187,3.00167 -17.1259,4.48706 -12.3505,2.03676 -21.0827,2.45817 -51.3827,2.47969 -25.6294,0.0181 -37.482,0.47166 -39.7879,1.52223 -1.8062,0.82298 -4.3414,3.56884 -5.6336,6.1019 -1.4289,2.80098 -3.5643,4.91045 -5.4496,5.38363 -2.507,0.62924 -3.1742,1.6737 -3.4877,5.4606 l -0.3876,4.68256 -8.75,0.80426 c -4.8125,0.44234 -10.715,1.42671 -13.1167,2.1875 -2.4018,0.76078 -7.6002,1.38324 -11.5519,1.38324 -5.9348,0 -7.459,0.45168 -8.7583,2.59536 -0.8652,1.42744 -3.8231,3.74583 -6.5731,5.15198 -2.75,1.40613 -9.5,3.09585 -15,3.75492 -5.5,0.65907 -20.125,1.68025 -32.5,2.26929 -12.375,0.58905 -24.75001,1.37101 -27.50001,1.7377 -2.75,0.36669 -7.8125,1.2019 -11.25,1.85604 -3.4375,0.65413 -15.0872,0.86478 -25.88823,0.46814 -14.56212,-0.53478 -20.11513,-0.32555 -21.48262,0.80942 -1.42138,1.17964 -2.471,1.19528 -4.57688,0.0683 -1.503,-0.80435 -4.34462,-1.14006 -6.31475,-0.74604 -2.97825,0.59567 -3.68575,0.24813 -4.19737,-2.06178 -0.33838,-1.52803 -0.76713,-4.74697 -0.95275,-7.15322 -0.33175,-4.30186 -0.43138,-4.375 -5.96238,-4.375 -5.57662,0 -5.62825,0.0395 -6.00725,4.59237 -0.21025,2.5258 -1.19462,5.26655 -2.1875,6.09055 -0.99287,0.82401 -1.80525,3.41613 -1.80525,5.76028 0,2.34415 0.815,6.21278 1.81125,8.59695 0.99613,2.38417 2.6975,4.33485 3.78088,4.33485 1.08337,0 2.49812,1.38979 3.144,3.0884 1.1575,3.04457 1.41,3.09338 17.7815,3.4375 13.77362,0.28954 16.60737,0.66904 16.60737,2.2241 0,1.5403 -2.62175,1.93787 -14.6875,2.22718 -11.59275,0.27796 -14.6875,0.72114 -14.6875,2.10326 0,0.9631 -0.98437,2.02114 -2.1875,2.35118 -1.20312,0.33005 -4.4375,0.97207 -7.1875,1.42671 -2.75,0.45464 -6.16625,1.57662 -7.59175,2.49331 -1.4255,0.91669 -8.31212,2.07225 -15.30362,2.56793 -9.99313,0.70848 -13.15625,0.53275 -14.78938,-0.82167 -1.14262,-0.9476 -2.86387,-3.60427 -3.82512,-5.90373 -1.55875,-3.72913 -1.50913,-4.53947 0.45937,-7.5 1.21388,-1.82554 3.24788,-5.28792 4.52013,-7.69417 1.27237,-2.40625 2.63775,-7.32812 3.03425,-10.9375 l 0.72087,-6.5625 -11.32075,0 c -11.0125,0 -11.3495,0.0865 -12.37925,3.17574 l -1.05862,3.17574 -56.233,-0.0429 c -30.92825,-0.0236 -56.61588,-0.0464 -57.08363,-0.0507 -0.46787,-0.004 -1.03037,-1.2735 -1.25,-2.82037 -0.396,-2.78823 -0.6015,-2.81544 -23.80625,-3.15246 l -23.40687,-0.33998 -0.814,3.24363 c -0.45013,1.79326 -2.14063,3.74796 -3.78075,4.37153 -2.19413,0.8342 -2.96663,2.0853 -2.96663,4.80458 0,2.56087 1.032,4.42845 3.40063,6.15382 2.68237,1.95403 3.334,3.35034 3.0855,6.61198 -0.17338,2.27415 -1.05563,5.00322 -1.96063,6.06461 -0.905,1.06139 -1.99462,2.91416 -2.42125,4.11729 -0.46,1.29701 -2.05425,2.1875 -3.91625,2.1875 -2.30725,0 -3.3485,0.82903 -3.92475,3.125 -0.43137,1.71875 -0.45412,4.4403 -0.05,6.04788 0.40338,1.60759 0.0175,3.90188 -0.85725,5.09839 -1.10875,1.51634 -2.89962,2.05101 -5.9105,1.76461 -3.78537,-0.36003 -4.36075,-0.87491 -4.65,-4.16088 -0.1815,-2.0625 -0.61725,-5.51633 -0.96837,-7.67517 -0.523,-3.21615 -1.3665,-4.07613 -4.66988,-4.761 -2.21737,-0.45972 -5.15662,-0.85382 -6.53162,-0.87578 -1.375,-0.022 -4.46875,0.45325 -6.875,1.056 -4.28613,1.07363 -4.38775,1.2474 -5,8.55092 l -0.625,7.45503 -5.625,0 -5.625,0 -0.625,-7.45503 c -0.61038,-7.28075 -0.72263,-7.47485 -4.80325,-8.30331 -2.29813,-0.46655 -4.75238,-1.42225 -5.45388,-2.12376 -0.7015,-0.70153 -1.56962,-3.88563 -1.92925,-7.07578 -0.57237,-5.07855 -0.23175,-6.24084 2.73813,-9.34067 2.3985,-2.50347 3.272,-4.56792 2.98262,-7.04868 -0.321,-2.75132 -1.2675,-3.72912 -4.38675,-4.53171 -2.76987,-0.71271 -4.098,-1.87313 -4.375,-3.82224 -0.36062,-2.53825 -1.18187,-2.83321 -8.8215,-3.16812 -6.85062,-0.30033 -8.66812,-0.82563 -9.7315,-2.8125 -0.74725,-1.39514 -2.61112,-2.44324 -4.34525,-2.44324 -1.73413,0 -3.598,1.0481 -4.34462,2.4432 -1.06188,1.98409 -2.88076,2.51259 -9.67938,2.8125 -7.7655,0.34255 -8.425,0.59546 -9.10462,3.49167 -0.52575,2.23989 -1.777,3.30145 -4.42713,3.75594 -2.95538,0.50684 -3.7765,1.35276 -4.10562,4.22926 -0.30925,2.70355 0.50987,4.43709 3.30137,6.98679 2.96275,2.70605 3.581,4.12484 3.06063,7.02336 -0.35863,1.99775 -1.33688,4.47603 -2.17388,5.50728 -0.837,1.03125 -1.87087,2.85937 -2.2975,4.0625 -0.46,1.29701 -2.05425,2.1875 -3.91625,2.1875 -2.28237,0 -3.3485,0.82916 -3.902,3.03479 -0.419,1.66912 -0.3985,4.17913 0.045,5.57778 0.44388,1.39865 0.17663,3.721 -0.59387,5.16079 -1.104,2.0628 -2.3775,2.53659 -6.00675,2.23473 -4.41113,-0.3669 -4.61988,-0.59443 -4.93888,-5.38309 -0.18325,-2.75 -0.59963,-6.20098 -0.92525,-7.66883 -0.40062,-1.80561 -1.91012,-2.94123 -4.66687,-3.51101 -2.24113,-0.4632 -5.19975,-0.86015 -6.57475,-0.88211 -1.375,-0.022 -4.46876,0.45325 -6.875,1.056 -4.28613,1.07364 -4.38775,1.2474 -5,8.55092 l -0.625,7.45503 -5.625,0 -5.625,0 -0.625,-7.45503 c -0.61038,-7.28075 -0.72263,-7.47485 -4.80325,-8.30331 -2.29813,-0.46655 -4.76813,-1.43806 -5.489,-2.1589 -0.72088,-0.72082 -1.56638,-4.01559 -1.87913,-7.32169 -0.4965,-5.24968 -0.1575,-6.39491 2.6765,-9.04146 2.0255,-1.89164 3.24488,-4.36932 3.24488,-6.59344 0,-2.62038 -0.8015,-3.86776 -3.02925,-4.71476 -1.7545,-0.66709 -3.201,-2.36354 -3.4375,-4.03156 -0.37313,-2.63166 -1.12288,-2.91143 -8.70075,-3.24615 -6.33038,-0.27964 -8.81625,-0.94509 -10.50626,-2.8125 -1.21712,-1.34541 -3.164,-2.4462 -4.32587,-2.4462 -1.16188,0 -3.13063,1.125 -4.375,2.5 -1.76625,1.95169 -3.85,2.5 -9.5005,2.5 -6.66463,0 -7.36825,0.27236 -8.8805,3.4375 -1.00638,2.10617 -2.84812,3.60734 -4.75575,3.87603 -1.71225,0.24117 -3.5265,1.08492 -4.03162,1.875 -0.50513,0.79006 -0.92701,2.66379 -0.9375,4.16386 -0.0125,1.61804 1.50612,3.81347 3.73087,5.39761 2.33925,1.66568 3.75,3.77165 3.75,5.59794 0,1.61024 -1.50612,5.22818 -3.347,8.03989 -2.32725,3.55457 -4.23162,5.11217 -6.25,5.11217 -2.71375,0 -2.903,0.48741 -2.903,7.47619 0,6.84756 -0.25212,7.53945 -2.99788,8.2286 -1.64875,0.41382 -4.32062,0.56516 -5.9375,0.33631 -2.45762,-0.34786 -2.99425,-1.23604 -3.27274,-5.4161 -0.18325,-2.75 -0.59963,-6.20097 -0.92525,-7.66882 -0.40063,-1.80562 -1.91013,-2.94124 -4.66688,-3.51102 -2.24112,-0.4632 -5.19975,-0.86015 -6.57475,-0.88211 -1.375,-0.022 -4.46875,0.45325 -6.875,1.056 -4.28613,1.07364 -4.38775,1.2474 -5,8.55093 l -0.625,7.45502 -4.482,0.3757 c -2.62,0.21963 -5.0535,-0.31287 -5.8575,-1.28174 -0.75663,-0.91159 -1.55225,-4.43527 -1.768,-7.83041 -0.37437,-5.8884 -0.58512,-6.21211 -4.57075,-7.02158 -2.29812,-0.46672 -4.76813,-1.43837 -5.489,-2.15921 -0.72087,-0.72082 -1.56637,-4.01559 -1.87913,-7.32168 -0.4965,-5.24969 -0.1575,-6.39492 2.6765,-9.04147 2.23525,-2.0875 3.24488,-4.32386 3.24488,-7.1875 0,-2.96301 -0.56975,-4.15711 -1.98363,-4.15711 -1.09087,0 -2.62049,-1.6875 -3.39899,-3.75 -1.36613,-3.61924 -1.68963,-3.75 -9.27863,-3.75 -6.31638,0 -8.28438,-0.4918 -10.00375,-2.5 -1.17737,-1.375 -3.2865,-2.5 -4.68713,-2.5 -1.40062,0 -3.24912,1.125 -4.10775,2.5 -1.29687,2.07654 -2.91512,2.5 -9.55337,2.5 -7.7145,0 -8.0365,0.12728 -9.26938,3.66371 -1.01637,2.91549 -2.12625,3.74515 -5.43475,4.0625 -3.53875,0.33943 -4.21887,0.93489 -4.569,4.00043 -0.30949,2.70992 0.50788,4.44122 3.30138,6.99272 2.96275,2.70605 3.581,4.12484 3.06062,7.02337 -0.35862,1.99775 -1.33687,4.47602 -2.17387,5.50727 -0.837,1.03125 -1.87088,2.85938 -2.2975,4.0625 -0.46,1.29701 -2.05425,2.1875 -3.91625,2.1875 -2.23725,0 -3.321,0.80884 -3.7685,2.8125 -0.3455,1.54688 -0.77813,5.0625 -0.96138,7.8125 -0.329,4.93801 -0.39462,5 -5.29699,5 l -4.964,0 -1.286,-7.31195 c -1.23713,-7.03335 -1.47663,-7.37726 -6.28613,-9.0265 -3.87063,-1.32729 -5.98812,-1.40047 -9.375,-0.32404 -2.40625,0.76479 -5.04925,1.56358 -5.87325,1.7751 -0.88975,0.22843 -1.65113,3.32915 -1.875,7.63599 l -0.37675,7.2514 -5.625,0 -5.625,0 -0.625,-7.45502 c -0.6147,-7.33224 -0.69605,-7.46945 -4.93892,-8.33105 -2.37267,-0.48182 -5.04454,-1.87519 -5.9375,-3.09639 -0.89298,-1.2212 -1.62358,-4.54605 -1.62358,-7.38856 0,-3.89653 0.76893,-5.89056 3.125,-8.10398 1.88537,-1.77122 3.125,-4.31945 3.125,-6.42391 0,-2.16674 -0.91399,-3.97729 -2.4127,-4.77937 -1.32699,-0.71018 -2.59261,-2.5581 -2.8125,-4.10648 -0.36354,-2.55988 -1.16746,-2.84882 -8.86274,-3.18543 -6.79356,-0.29717 -8.7638,-0.85196 -9.98819,-2.8125 -0.85745,-1.37301 -2.90378,-2.44231 -4.67387,-2.44231 -1.79488,0 -3.8199,1.07488 -4.70991,2.5 -1.47187,2.35682 -2.91503,2.5 -25.19938,2.5 -18.83202,0 -24.35762,0.38851 -27.17691,1.91084 -1.94634,1.05095 -15.88074,4.42617 -30.96534,7.5005 -15.0846,3.07432 -27.90001,6.29257 -28.478702,7.15166 -0.57869,0.8591 -0.72374,4.42039 -0.32232,7.91396 0.68301,5.94442 0.4708,6.60522 -3.30759,10.29929 -2.22059,2.17104 -5.05583,4.27056 -6.30051,4.66561 -1.2447,0.39505 -3.51917,-0.1615 -5.05435,-1.23678 -1.53519,-1.07529 -5.22013,-1.95508 -8.18874,-1.95508 -3.50493,0 -6.62965,0.91099 -8.91156,2.59807 -3.01754,2.23097 -4.20264,2.42039 -8.38689,1.34059 -2.95046,-0.7614 -33.227725,-1.32762 -76.7478,-1.43527 -39.53125,-0.0978 -88.749998,0.21412 -109.374998,0.69313 -20.625,0.47902 -38.44509,1.36077 -39.6002,1.95947 -1.15511,0.59868 -2.28011,2.35539 -2.5,3.90377 -0.27114,1.90928 -1.40544,2.95635 -3.5248,3.25377 -1.71875,0.24117 -3.53826,1.08492 -4.04336,1.875 -0.5051,0.79006 -0.92698,3.2646 -0.9375,5.49897 -0.0187,3.97608 -0.1383,4.0625 -5.62033,4.0625 -4.79747,0 -5.6873,-0.40356 -6.20132,-2.8125 -0.33009,-1.54687 -0.76608,-3.91514 -0.96886,-5.2628 -0.24519,-1.62937 -1.83197,-2.81141 -4.73618,-3.52815 -2.4021,-0.59282 -5.2112,-1.07786 -6.24245,-1.07786 -1.03125,0 -3.84375,0.48328 -6.25,1.07396 -3.91903,0.96204 -4.44014,1.5903 -5,6.02815 -0.62095,4.92212 -0.66345,4.95666 -6.5625,5.33519 l -5.9375,0.38098 0,-5.10771 c 0,-3.03141 -0.63516,-5.2765 -1.5625,-5.52291 -0.85937,-0.22835 -3.24869,-0.9269 -5.3096,-1.55234 -2.2044,-0.669 -4.44371,-2.59064 -5.43916,-4.66756 -1.4682,-3.0633 -2.2128,-3.43558 -5.6279,-2.81375 -2.16471,0.39415 -8.347,1.44222 -13.73843,2.32906 -6.14632,1.01101 -10.36073,2.37573 -11.29898,3.65886 -0.82302,1.12554 -2.8806,2.24173 -4.57242,2.48041 -2.55152,0.35997 -3.18257,1.28652 -3.70101,5.43397 -0.625,5 -0.625,5 -6.25,5 -5.59681,0 -5.62814,-0.0244 -6.25,-4.86828 -0.5916,-4.60809 -0.93951,-4.94777 -6.51032,-6.35601 -3.23693,-0.81826 -6.61193,-1.02677 -7.5,-0.46337 -0.88808,0.56341 -3.10138,1.033 -4.91844,1.04352 -1.84574,0.0113 -3.63861,0.89174 -4.0625,1.99638 -0.41731,1.08747 -0.75874,3.61872 -0.75874,5.625 0,3.48994 -0.24336,3.64776 -5.625,3.64776 -4.99494,0 -5.62691,-0.31503 -5.64206,-2.8125 -0.01,-1.54687 -0.32808,-3.9704 -0.70819,-5.38561 -0.52864,-1.96818 -2.36135,-2.90875 -7.79544,-4.00079 -3.90737,-0.78523 -10.82572,-1.74464 -15.37412,-2.13202 -6.49095,-0.55284 -8.60768,-0.29723 -9.84055,1.18828 -0.86391,1.04095 -2.84794,1.89264 -4.40896,1.89264 -1.56102,0 -3.17964,0.88975 -3.59694,1.97724 -0.41731,1.08747 -0.75874,3.8398 -0.75874,6.11626 0,2.62114 0.7251,4.41728 1.97724,4.89776 1.08747,0.41731 5.58747,0.75874 10,0.75874 6.29801,0 8.02276,0.40309 8.02276,1.875 0,1.5635 -2.5162,1.875 -15.14579,1.875 -14.53037,0 -15.11922,0.10163 -14.49202,2.5 0.55115,2.1076 0.0345,2.50295 -3.29171,2.51882 -2.17002,0.01 -5.91423,0.71803 -8.32048,1.57262 -2.40625,0.85459 -5.01452,1.96501 -5.79616,2.4676 -0.78164,0.50258 -7.81289,1.26958 -15.625,1.70446 z m 29.95187,-21.69546 c 0.22315,-1.66608 0.10013,-3.82545 -0.27326,-4.79863 -0.40816,-1.06366 -2.43965,-1.76941 -5.09323,-1.76941 -2.42782,0 -4.40561,0.42188 -4.39508,0.9375 0.01,0.51563 0.49234,1.68389 1.07069,2.59613 0.57833,0.91224 2.6791,2.64975 4.66835,3.86113 3.58901,2.18557 3.61995,2.1792 4.02253,-0.82672 z M 1219.5265,-243.67815 c 1.5469,0.01 2.8125,-0.54336 2.8125,-1.23086 0,-0.6875 -0.4219,-1.24139 -0.9375,-1.23086 -0.5156,0.01 -1.7812,0.56441 -2.8125,1.23086 -1.5162,0.97984 -1.3367,1.21538 0.9375,1.23086 z m 67.4134,-45.24275 c 10.1882,-0.009 19.5449,-0.55447 20.7924,-1.21376 1.8023,-0.95256 1.9635,-1.5658 0.7843,-2.98653 -1.1643,-1.40305 -5.4188,-1.7837 -19.7681,-1.76868 -10.0565,0.01 -19.0696,0.51626 -20.0291,1.12385 -0.9596,0.60759 -1.4204,1.94969 -1.0241,2.98245 0.5965,1.55441 3.9102,1.87515 19.2446,1.86267 z M 369.33163,-443.7566 c 1.1265,-0.93497 2.33399,-0.93179 4.09525,0.0112 1.37374,0.7352 5.00124,1.33674 8.06112,1.33674 4.58838,0 5.93063,-0.56031 7.65825,-3.19697 l 2.09475,-3.19699 2.474,3.14527 c 2.32738,2.95868 2.97175,3.1021 10.8615,2.41746 4.61313,-0.4003 9.1635,-1.45442 10.11213,-2.3425 1.09562,-1.02583 1.42912,-2.79131 0.91475,-4.84112 l -0.80988,-3.22644 -16.8515,0.11388 c -9.26837,0.0626 -17.155,0.60476 -17.52575,1.2047 -0.37087,0.59993 -2.3325,0.75912 -4.35937,0.35376 -3.05275,-0.61054 -3.86725,-0.24501 -4.74575,2.12965 -0.69588,1.88135 -1.37138,2.36359 -1.965,1.40299 -0.49763,-0.80504 -1.434,-1.46372 -2.08088,-1.46372 -0.647,0 -1.17625,1.3125 -1.17625,2.91667 0,1.60417 0.37013,3.28678 0.8225,3.73916 0.45238,0.45236 1.54138,0.22584 2.42013,-0.50341 z m 557.45612,257.59759 c -0.30313,0 -0.87488,-0.52364 -1.27038,-1.16362 -0.39549,-0.64 -0.1475,-1.51696 0.55125,-1.94878 0.69875,-0.43183 1.27038,0.0918 1.27038,1.16362 0,1.07183 -0.248,1.94878 -0.55125,1.94878 z"
         style="fill:#000000;fill-opacity:1" />
    </g>
  </g>
</svg>
