<?xml version="1.0" encoding="UTF-8" standalone="no"?>
<svg
   xmlns:dc="http://purl.org/dc/elements/1.1/"
   xmlns:cc="http://creativecommons.org/ns#"
   xmlns:rdf="http://www.w3.org/1999/02/22-rdf-syntax-ns#"
   xmlns:svg="http://www.w3.org/2000/svg"
   xmlns="http://www.w3.org/2000/svg"
   id="svg8"
   version="1.1"
   viewBox="0 0 23.298233 5.4336487"
   width="69.9">
  <defs
     id="defs2" />
  <metadata
     id="metadata5">
    <rdf:RDF>
      <cc:Work
         rdf:about="">
        <dc:format>image/svg+xml</dc:format>
        <dc:type
           rdf:resource="http://purl.org/dc/dcmitype/StillImage" />
        <dc:title></dc:title>
      </cc:Work>
    </rdf:RDF>
  </metadata>
  <g
     transform="translate(539.77931,-321.46719)"
     id="layer1">
    <path
       id="path826"
       d="m -539.06032,326.89524 c -0.0158,-0.004 -0.038,-0.0124 -0.0492,-0.0186 -0.0132,-0.007 -0.0743,-0.0819 -0.17286,-0.21098 -0.17069,-0.22377 -0.17058,-0.22362 -0.1795,-0.25594 -0.015,-0.0543 -0.0119,-0.0609 0.43521,-0.94609 0.30355,-0.60093 0.42862,-0.84252 0.44483,-0.8592 0.0124,-0.0128 0.0356,-0.029 0.0516,-0.0361 0.0281,-0.0124 0.0372,-0.0127 0.2903,-0.008 0.24271,0.004 0.26213,0.004 0.27351,-0.006 0.0107,-0.01 0.0122,-0.0203 0.0122,-0.0821 v -0.071 l -0.58661,-0.0888 c -0.32275,-0.0489 -0.61249,-0.0958 -0.64415,-0.10445 -0.0597,-0.0162 -0.0799,-0.028 -0.0799,-0.0464 0,-0.009 -0.0237,-0.017 -0.11668,-0.0414 -0.0642,-0.0169 -0.1232,-0.0347 -0.13116,-0.0396 -0.009,-0.006 -0.0588,-0.0975 -0.14298,-0.2659 -0.10765,-0.21523 -0.12762,-0.25947 -0.12299,-0.27237 0.004,-0.0113 0.0158,-0.019 0.0439,-0.029 0.0367,-0.013 0.0383,-0.0144 0.0364,-0.0335 -10e-4,-0.0139 0.002,-0.0248 0.0128,-0.036 0.0134,-0.0145 0.0275,-0.018 0.14904,-0.0368 0.13034,-0.0202 0.18683,-0.029 0.58501,-0.092 0.10374,-0.0164 0.36637,-0.0579 0.58362,-0.0922 l 0.39501,-0.0623 0.009,-0.0181 c 0.005,-0.01 0.009,-0.0338 0.009,-0.0531 v -0.035 l -0.24456,0.005 c -0.1345,0.003 -0.38285,0.005 -0.55189,0.005 l -0.30734,-3.8e-4 -0.0635,-0.0398 c -0.0767,-0.0481 -0.10314,-0.0723 -0.11146,-0.10226 -0.003,-0.0125 -0.006,-0.0845 -0.006,-0.16012 2.8e-4,-0.1566 0.004,-0.17654 0.0425,-0.20991 0.0169,-0.0148 0.20647,-0.1041 0.62214,-0.29309 0.32879,-0.14948 0.60902,-0.27587 0.62273,-0.28085 0.0371,-0.0135 0.0864,-0.0127 0.11936,0.002 0.0327,0.0146 0.98945,0.67524 1.00102,0.69124 0.0236,0.0327 0.0189,0.0314 0.17176,0.0456 0.0809,0.008 0.17709,0.0128 0.2138,0.0117 l 0.0667,-0.002 0.0266,-0.0914 c 0.0146,-0.0503 0.0303,-0.0982 0.0348,-0.10661 0.01,-0.0179 0.0143,-0.0193 0.10959,-0.0325 0.0649,-0.009 1.56587,-0.24049 1.61376,-0.24885 l 0.0194,-0.003 -0.005,-0.0559 c -0.004,-0.0478 -0.003,-0.0575 0.006,-0.0666 0.0182,-0.0181 0.38241,-0.20995 0.39848,-0.20995 0.0163,0 0.32129,0.18971 0.33868,0.21067 0.01,0.0116 0.0146,0.012 0.0671,0.007 0.0312,-0.003 0.0589,-0.006 0.0616,-0.006 0.003,-7e-5 0.005,-0.006 0.005,-0.0121 0,-0.007 0.004,-0.015 0.008,-0.0186 0.006,-0.005 0.26542,-0.0277 0.4044,-0.0349 l 0.032,-0.002 0.003,-0.03 c 0.002,-0.0206 0.01,-0.0379 0.0236,-0.0551 0.0133,-0.0165 0.019,-0.0295 0.0168,-0.038 -0.005,-0.0177 0.0149,-0.0455 0.0353,-0.0503 0.009,-0.002 0.024,-0.0103 0.0328,-0.0181 0.0149,-0.0133 0.27208,-0.17691 0.30666,-0.19514 0.0111,-0.006 0.061,-0.009 0.16943,-0.0114 0.14998,-0.003 0.15411,-0.003 0.17175,-0.0182 l 0.0181,-0.0151 h 0.22208 0.22208 l 0.0142,-0.0192 0.0142,-0.0192 h 0.32871 0.32872 l 0.0113,0.0192 0.0113,0.0192 h 0.21736 0.21736 l 0.0132,-0.0165 0.0132,-0.0165 0.1505,-0.004 0.1505,-0.004 0.0145,0.0184 c 0.0144,0.0183 0.0157,0.0186 0.25535,0.0549 0.18697,0.0283 0.25805,0.0366 0.31767,0.0369 0.0737,3.6e-4 0.0771,-2.1e-4 0.0831,-0.014 0.006,-0.0142 0.008,-0.0144 0.14956,-0.0161 0.12775,-0.002 0.14574,-4.7e-4 0.16623,0.01 0.0195,0.01 0.0335,0.0111 0.0933,0.008 l 0.0703,-0.003 -0.0511,-0.0119 c -0.0281,-0.007 -0.0547,-0.0148 -0.0591,-0.0184 -0.0105,-0.009 -0.0105,-0.062 0,-0.0657 0.004,-0.002 0.50285,-0.0257 1.10768,-0.0536 l 1.09969,-0.0508 1.81835,-0.007 c 1.19769,-0.005 1.8205,-0.005 1.82466,-9.1e-4 0.007,0.007 -0.10581,0.13155 -0.1726,0.19019 l -0.0403,0.0353 v 0.053 0.053 l 0.0907,0.0142 c 0.0822,0.0129 0.38814,0.0892 0.84594,0.21111 0.0809,0.0215 0.37866,0.0996 0.66173,0.17352 0.28308,0.0739 0.59668,0.15699 0.6969,0.18465 0.18075,0.0499 0.18302,0.0503 0.28132,0.0546 0.0628,0.003 0.127,0.01 0.17534,0.0197 0.0419,0.008 0.0766,0.016 0.077,0.0169 3.9e-4,8.6e-4 0.006,0.0159 0.0134,0.0334 l 0.0127,0.0318 0.0728,0.0228 c 0.0511,0.016 0.0755,0.0269 0.082,0.0367 0.007,0.0102 0.0365,0.0225 0.11248,0.0465 0.15133,0.0478 0.39087,0.1307 0.88965,0.30798 0.0492,0.0175 0.10526,0.0374 0.1245,0.0442 0.0193,0.007 0.0378,0.0152 0.0412,0.0186 0.003,0.003 0.0107,0.006 0.0162,0.006 0.0218,4e-5 0.63938,0.23603 0.75834,0.28978 0.035,0.0158 0.27358,0.13333 0.53028,0.26121 0.34272,0.17073 0.48881,0.24689 0.54984,0.28666 0.13526,0.0881 0.32315,0.24279 0.46993,0.38682 0.0721,0.0707 0.15984,0.15022 0.195,0.17664 0.0352,0.0264 0.16751,0.11723 0.29411,0.20178 0.12659,0.0846 0.23585,0.16008 0.24281,0.16783 0.013,0.0144 0.0162,0.046 0.008,0.0772 -0.004,0.0153 -0.002,0.0172 0.0432,0.0339 0.0547,0.0203 0.1028,0.0513 0.11677,0.0752 0.007,0.012 0.008,0.0247 0.005,0.0457 -0.004,0.0237 -0.008,0.0304 -0.0217,0.036 -0.01,0.004 -0.0816,0.0166 -0.16018,0.0285 -0.0952,0.0144 -0.1447,0.0245 -0.14833,0.0303 -0.003,0.005 -0.0149,0.0124 -0.0265,0.0169 l -0.0211,0.008 0.0202,-0.004 c 0.0184,-0.003 0.0206,-0.002 0.0244,0.0159 0.006,0.0258 4.2e-4,0.0325 -0.0254,0.0325 h -0.0215 l 0.004,0.0344 c 0.003,0.0324 0.002,0.0357 -0.018,0.0578 l -0.0216,0.0234 -0.18542,0.0317 c -0.10197,0.0174 -0.1926,0.0351 -0.20139,0.0392 -0.009,0.004 -0.0302,0.009 -0.0475,0.0111 -0.0298,0.003 -0.0326,0.005 -0.0501,0.0356 -0.0542,0.0934 -0.1405,0.14386 -0.24621,0.14386 -0.10313,0 -0.18966,-0.0494 -0.2406,-0.13747 l -0.0111,-0.0192 -0.0954,-0.002 -0.0954,-0.002 v 0.019 c 0,0.0295 -0.0193,0.0389 -0.0794,0.0389 -0.0451,0 -0.0539,0.002 -0.0762,0.0175 -0.0218,0.0151 -0.0336,0.018 -0.0867,0.0212 -0.083,0.005 -0.0838,0.006 -0.0838,0.0515 v 0.0377 h 0.0863 c 0.0533,0 0.0863,0.002 0.0863,0.006 0,0.009 0.0176,0.008 0.0205,-7.6e-4 0.003,-0.01 0.0682,0.005 0.0946,0.0209 l 0.0192,0.0117 v 0.0929 0.0929 l -0.0207,0.0126 c -0.0114,0.007 -0.0361,0.016 -0.0549,0.0202 -0.0283,0.006 -0.0351,0.006 -0.0397,-10e-4 -0.005,-0.007 -0.008,-0.007 -0.0176,0.002 -0.0105,0.009 -0.0277,0.0109 -0.13018,0.0109 -0.0822,0 -0.12039,-0.002 -0.12564,-0.008 -0.006,-0.006 -0.0109,-0.006 -0.0221,1.2e-4 -0.011,0.006 -0.13802,0.007 -0.526,0.006 l -0.51148,-0.002 -0.002,-0.0183 -0.002,-0.0183 -0.12258,0.002 c -0.0674,10e-4 -0.12618,0 -0.13057,-0.003 -0.004,-0.003 -0.008,-0.0177 -0.008,-0.033 0,-0.0275 -2.4e-4,-0.0278 -0.0176,-0.0222 -0.01,0.003 -0.27,0.0219 -0.57851,0.0418 -0.63904,0.0412 -0.57116,0.0437 -0.62252,-0.0225 l -0.0289,-0.0372 -0.0898,-0.003 -0.0898,-0.003 -0.44982,-0.22474 -0.44981,-0.22475 -0.0402,0.0193 -0.0402,0.0193 -0.4674,-0.004 -0.46741,-0.004 -0.004,0.0167 c -0.002,0.009 -0.009,0.0191 -0.0153,0.022 -0.006,0.003 -0.47289,0.002 -1.03728,-0.002 -0.56439,-0.004 -1.44334,-0.0108 -1.95323,-0.0146 l -0.92706,-0.007 -0.0991,0.0313 c -0.13783,0.0435 -0.25223,0.0744 -0.34562,0.0935 -0.086,0.0175 -0.24617,0.0415 -0.27772,0.0415 -0.0144,0 -0.0917,0.0451 -0.2969,0.17301 -0.15257,0.0952 -0.28834,0.1786 -0.3017,0.18542 -0.0232,0.0118 -0.0406,0.0124 -0.37214,0.0124 -0.39522,0 -0.36842,0.004 -0.39207,-0.0548 l -0.0118,-0.0293 -0.0703,0.005 c -0.0387,0.003 -0.14272,0.005 -0.23121,0.005 h -0.16088 l -0.004,0.0235 c -0.002,0.0149 -0.01,0.0285 -0.0209,0.037 -0.0167,0.0131 -0.0221,0.0135 -0.19793,0.0117 -0.20244,-0.002 -0.18869,0.001 -0.21091,-0.0514 l -0.0101,-0.024 h -0.31537 c -0.20089,0 -0.32165,-0.002 -0.33269,-0.007 -0.01,-0.004 -0.0285,-0.0154 -0.0422,-0.0263 -0.0242,-0.0191 -0.0279,-0.0199 -0.13494,-0.029 -0.0606,-0.005 -0.20503,-0.0156 -0.32107,-0.0233 l -0.21099,-0.014 -0.002,-0.027 -0.002,-0.027 -0.0716,-0.002 -0.0716,-0.002 7.3e-4,-0.024 7.3e-4,-0.024 h -0.12146 c -0.0668,0 -0.13331,-0.003 -0.14779,-0.007 -0.0145,-0.004 -0.0354,-0.009 -0.0465,-0.012 -0.0151,-0.004 -0.0227,-0.003 -0.0303,0.005 -0.0128,0.0128 0.026,0.0259 -0.49379,-0.16755 l -0.42277,-0.15736 h -0.21268 -0.21268 l -0.78029,0.13798 -0.78029,0.13798 -0.1283,-0.005 c -0.12725,-0.005 -0.12933,-0.005 -0.25618,-0.0379 -0.12691,-0.033 -0.17215,-0.0501 -0.19981,-0.0754 -0.0169,-0.0155 -0.0182,-0.0281 -0.004,-0.0433 0.005,-0.006 0.16875,-0.0807 0.36284,-0.16597 0.19408,-0.0852 0.35561,-0.15748 0.35895,-0.16054 0.004,-0.003 -0.007,-0.006 -0.0256,-0.006 -0.0174,-6e-5 -0.18541,-0.009 -0.37333,-0.019 -0.40308,-0.0223 -0.36465,-0.0127 -0.48526,-0.12138 l -0.0782,-0.0705 -0.13882,2.1e-4 c -0.0865,1.2e-4 -0.16294,0.004 -0.20275,0.009 -0.0466,0.007 -0.1299,0.009 -0.30689,0.01 -0.18752,2.5e-4 -0.27068,0.003 -0.36444,0.0122 -0.0903,0.009 -0.12266,0.01 -0.12609,0.005 -0.0137,-0.0217 -0.0174,-0.0258 -0.0205,-0.0227 -0.002,0.002 0.003,0.0521 0.01,0.1117 0.0163,0.13366 0.0141,0.18878 -0.009,0.22795 -0.0242,0.0413 -2.08298,1.70324 -2.12594,1.71617 -0.0341,0.0103 -0.0702,0.0103 -0.11001,9e-5 z"
       style="fill:#000000;stroke-width:0.00639355" />
  </g>
</svg>
