<?xml version="1.0" encoding="UTF-8" standalone="no"?>
<svg
   xmlns:dc="http://purl.org/dc/elements/1.1/"
   xmlns:cc="http://creativecommons.org/ns#"
   xmlns:rdf="http://www.w3.org/1999/02/22-rdf-syntax-ns#"
   xmlns:svg="http://www.w3.org/2000/svg"
   xmlns="http://www.w3.org/2000/svg"
   version="1.1"
   id="svg2"
   viewBox="0 0 10.999999 2.3687851"
   width="32.999997">
  <defs
     id="defs4" />
  <metadata
     id="metadata7">
    <rdf:RDF>
      <cc:Work
         rdf:about="">
        <dc:format>image/svg+xml</dc:format>
        <dc:type
           rdf:resource="http://purl.org/dc/dcmitype/StillImage" />
        <dc:title></dc:title>
      </cc:Work>
    </rdf:RDF>
  </metadata>
  <g
     transform="translate(395.85708,-712.8344)"
     id="layer1">
    <g
       transform="matrix(0.02410204,0,0,0.02410204,-375.50463,721.03443)"
       id="g2996">
      <path
         id="path2998"
         d="m -577.92849,-245.56876 0,-3.62911 -0.8125,-0.38087 c -0.44687,-0.20947 -4.39975,-1.16386 -8.78415,-2.12087 -4.3844,-0.957 -8.09127,-1.85965 -8.2375,-2.00587 -0.14622,-0.14621 -0.6318,-0.26585 -1.0791,-0.26585 -0.90015,0 -1.00867,0.22398 -1.6354,3.375 -0.1641,0.825 -0.3203,1.53438 -0.3471,1.57641 -0.0268,0.042 -2.28702,-1.19793 -5.0227,-2.75546 l -4.97395,-2.83185 -3.23215,-0.3345 c -2.34583,-0.24276 -3.25751,-0.2584 -3.32463,-0.057 -0.22584,0.6775 -4.91152,0.005 -5.32308,-0.76415 -0.18029,-0.33687 -0.46943,-0.46434 -0.93205,-0.41089 -0.63015,0.0728 -0.67521,0.16398 -0.74548,1.50865 l -0.0748,1.43117 -1.05021,0.28133 c -0.57762,0.15473 -5.15647,1.40196 -10.17522,2.77162 l -9.125,2.4903 -13.625,0.47989 -13.625,0.47989 -27.375,-1.23624 c -15.05625,-0.67994 -27.82501,-1.28345 -28.37501,-1.34114 -0.63847,-0.067 -2.16322,-0.7585 -4.21753,-1.9128 -3.07191,-1.72608 -3.33217,-1.82339 -5.75,-2.15 -1.39286,-0.18815 -2.89809,-0.40526 -3.34497,-0.48247 -3.13136,-0.3266 -6.23515,-0.70662 -10.0625,-1.09897 -11.52138,-1.22668 -13.05757,-1.3472 -13.99173,-1.09772 -0.86035,0.22977 -0.87493,0.25759 -1.98034,3.78022 -1.09551,3.4911 -1.12536,3.54875 -1.83719,3.54875 l -0.72358,0 0.17985,-3.3125 c 0.0989,-1.82188 0.19067,-3.47467 0.20391,-3.67288 -0.39277,-1.19696 -1.51437,-1.23411 -2.43096,-1.37985 -2.55938,-0.19188 -2.81844,-0.27945 -2.95485,-0.99881 -0.051,-0.26897 -0.31962,-0.55022 -0.59692,-0.625 -0.41835,-0.11281 -0.50984,-0.3594 -0.53736,-1.44846 -0.0287,-1.13555 0.031,-1.3125 0.443,-1.3125 0.36079,0 0.47617,-0.17899 0.47617,-0.73867 0,-0.63737 -0.11143,-0.75829 -0.8125,-0.88171 -0.44687,-0.0787 -4.71471,-0.75516 -9.48406,-1.50331 l -8.67157,-1.36028 -14.07844,1.10558 c -7.74314,0.60807 -14.72531,1.17255 -15.51593,1.2544 l -1.4375,0.14882 0,-1.71595 0,-1.71596 1.625,-1.22746 c 0.89375,-0.67511 1.62421,-1.28664 1.62323,-1.35896 -8.9e-4,-0.0723 -1.43534,-0.51005 -3.1875,-0.97272 -3.55006,-0.93741 -10.03779,-3.05889 -15.61171,-5.10501 -2.80192,-1.02854 -3.70658,-1.26967 -3.80466,-1.01409 -0.177,0.46127 -0.64437,0.42306 -0.64437,-0.0527 0,-0.2134 -0.3368,-0.50541 -0.74845,-0.64891 l -0.74846,-0.26092 0.0106,-6.52756 c 0.007,-4.26881 0.10348,-6.63951 0.27906,-6.85108 0.19256,-0.23201 0.18913,-0.32352 -0.0121,-0.32352 -0.18966,0 -0.28061,-0.85076 -0.28061,-2.625 0,-1.77424 0.091,-2.625 0.28061,-2.625 0.20124,0 0.20467,-0.0915 0.0121,-0.32352 -0.17559,-0.21158 -0.27215,-2.58227 -0.27907,-6.85109 l -0.0106,-6.52755 0.74846,-0.26092 c 0.41165,-0.1435 0.74845,-0.43552 0.74845,-0.64892 0,-0.50579 0.41351,-0.49817 0.69951,0.0129 0.1772,0.31664 0.3243,0.34275 0.69992,0.12422 0.92882,-0.54037 12.29091,-4.45653 16.41658,-5.65828 2.30506,-0.67143 4.16131,-1.29128 4.125,-1.37743 -0.0363,-0.0862 -3.55351,-3.4207 -7.81601,-7.41009 -4.2625,-3.98939 -7.95679,-7.48719 -8.20953,-7.77291 -0.29147,-0.32949 -0.51032,-1.07963 -0.59842,-2.05113 l -0.13888,-1.53166 5.2364,0.0462 c 3.86338,0.0341 5.39689,-0.0382 5.84842,-0.27567 0.33661,-0.17704 0.78077,-0.39904 0.98702,-0.49333 0.2085,-0.0953 0.4785,-0.74406 0.60812,-1.46115 l 0.23312,-1.2897 1.06449,0 c 0.97333,0 1.15678,0.10945 2.14188,1.27796 1.43634,1.70376 2.50653,2.15173 5.4999,2.30222 1.33239,0.067 2.53311,0.19014 2.66827,0.27367 0.13516,0.0835 0.31856,0.48338 0.40754,0.88854 0.26342,1.19931 1.60399,2.11092 5.16428,3.51178 1.83557,0.72223 6.69933,2.64311 10.80835,4.26861 7.04094,2.78534 7.50966,2.93545 8.14321,2.60782 0.36974,-0.1912 0.81846,-0.5238 0.99716,-0.73912 0.22568,-0.27194 0.76221,-0.39148 1.75698,-0.39148 2.2296,0 2.93607,-0.34208 3.13471,-1.51785 0.14684,-0.8691 0.24639,-0.98215 0.86487,-0.98215 0.49923,0 0.95941,0.28831 1.61055,1.00905 0.50139,0.55497 1.1968,1.11747 1.54537,1.25 0.3822,0.14531 6.86348,0.24095 16.32906,0.24095 17.63888,0 17.27214,0.0349 17.27214,-1.64331 0,-0.81 0.047,-0.85669 0.86228,-0.85669 0.69235,0 0.99434,0.17315 1.53248,0.87868 0.92141,1.20803 1.89441,1.59566 4.20914,1.67688 l 1.9789,0.0694 -5.1664,2.24302 c -2.84152,1.23367 -5.1664,2.31273 -5.1664,2.39793 0,0.0852 0.45159,0.2902 1.00354,0.45557 0.55194,0.16537 2.30975,0.91443 3.90624,1.66457 1.95337,0.91784 3.21955,1.36391 3.87147,1.36391 0.79856,0 0.96875,0.0869 0.96875,0.4946 0,0.47329 0.20703,0.49753 4.80534,0.5625 4.71286,0.0666 4.81078,0.0788 5.08776,0.63483 0.15533,0.31181 0.34827,0.63277 0.42876,0.71326 0.0805,0.0805 4.90661,0.45297 10.72474,0.82774 l 10.5784,0.68141 5.8389,-0.67263 c 3.25709,-0.37521 5.91425,-0.79455 6.00931,-0.94836 0.0937,-0.15164 0.89747,-0.33703 1.7861,-0.41196 2.67264,-0.22536 13.68965,-2.47993 20.61569,-4.21889 9.62928,-2.41766 19.23248,-4.44531 24.50001,-5.173 1.10817,-0.15309 2.12056,-0.43092 2.27037,-0.62307 0.14871,-0.19072 0.57058,-0.46091 0.9375,-0.60041 0.61173,-0.23258 0.66713,-0.36834 0.66713,-1.63483 l 0,-1.38119 1.19794,0 c 1.08925,0 1.29797,0.1019 2.30018,1.12308 0.69245,0.70557 1.40989,1.18081 1.92981,1.27834 0.45518,0.0854 0.89207,0.25958 0.97087,0.38709 0.0788,0.1275 0.35881,0.16342 0.62224,0.0798 1.18746,-0.37688 13.97896,-0.7504 13.97896,-0.40819 0,0.77509 -2.51914,5.40939 -6.73543,12.39075 -0.97052,1.60698 -1.76457,3.02314 -1.76457,3.14703 0,0.2924 10.47391,0.0122 11.07317,-0.29625 0.24649,-0.12687 1.42774,-0.38524 2.625,-0.57416 7.00896,-1.10597 11.55638,-1.93554 12.48933,-2.27839 1.26012,-0.46309 1.24877,-0.37307 0.60027,-4.77061 l -0.44927,-3.04651 0.59225,-0.14865 c 0.32572,-0.0817 0.67875,-0.0952 0.7845,-0.0298 0.10572,0.0653 0.78895,1.63124 1.5183,3.47977 1.30465,3.30672 1.33997,3.36322 2.1886,3.50093 0.79163,0.12847 3.6779,-0.30429 10.57785,-1.58601 1.44375,-0.26818 3.075,-0.53801 3.625,-0.5996 0.55,-0.0616 1.55905,-0.23874 2.24233,-0.39365 0.68327,-0.1549 1.52702,-0.2054 1.875,-0.11221 1.84895,0.49519 3.59217,0.50579 14.13267,0.0859 3.9875,-0.15882 7.53125,-0.27971 7.875,-0.26863 1.27045,0.041 9.74252,1.0054 13.375,1.5226 7.97275,1.13517 20.233,4.90097 27.1006,8.32408 2.28217,1.13754 4.1869,2.15263 4.23272,2.25575 0.0459,0.10313 0.17718,0.1875 0.29186,0.1875 0.44802,0 4.2327,2.39457 6.24982,3.95426 1.16875,0.90371 3.3625,2.78404 4.875,4.1785 3.08675,2.84587 4.48393,3.86724 5.29018,3.86724 0.302,0 0.70287,0.15378 0.89082,0.34172 0.40523,0.40522 4.84093,3.16439 7.64518,4.75557 2.32717,1.32049 3.72355,1.7044 12.91095,3.54961 6.6906,1.34376 8.47367,1.57103 8.75495,1.11593 0.2943,-0.47621 -0.42352,-2.54893 -0.96455,-2.78505 -0.399,-0.17415 -0.31435,-0.19494 0.34747,-0.0853 1.46788,0.24308 1.58396,0.32767 2.875,2.0955 0.6875,0.94139 1.5875,1.88109 2,2.08823 1.17056,0.58779 16.01156,3.38389 16.94623,3.19274 0.62178,-0.12717 0.84065,-0.33769 1.02713,-0.98797 0.21712,-0.75704 0.30157,-0.81368 1.00682,-0.67527 0.79665,0.15634 0.978,0.33008 1.6945,1.62356 0.2336,0.42166 0.7961,0.93554 1.25,1.14195 0.45393,0.20642 6.90032,1.55151 14.32533,2.98909 10.04487,1.94482 13.72252,2.56678 14.36945,2.43015 l 0.86945,-0.18363 0.97512,-3.52319 c 0.97435,-3.52046 0.97563,-3.52305 1.63055,-3.34565 l 0.65543,0.17755 0,3.80445 c 0,3.79755 0,3.80508 0.625,4.15642 0.34375,0.19359 4.54877,1.14407 9.34447,2.11218 6.38998,1.28995 8.96143,1.91066 9.625,2.32334 0.79735,0.49585 0.84145,0.57226 0.36913,0.63959 -0.295,0.0421 -0.69688,0.26706 -0.89303,0.5 -0.60342,0.71664 -2.69557,4.22482 -2.69557,4.52004 0,0.15317 0.36562,0.27905 0.8125,0.27974 0.83693,10e-4 2.68607,1.20276 1.9375,1.25889 -0.20625,0.0155 -0.59088,0.0686 -0.85475,0.11807 -0.26385,0.0495 -2.37893,0.21845 -4.70015,0.37551 -3.17048,0.21451 -7.49803,0.84358 -17.39525,2.52861 -7.24618,1.23369 -13.5686,2.28978 -14.04985,2.34688 -1.0738,0.1274 -2.99648,0.41781 -16.625,2.51109 -9.18333,1.41052 -10.83198,1.72735 -11.31251,2.17401 -0.30937,0.28757 -0.56249,0.43895 -0.56249,0.33642 0,-0.10254 -0.17513,-0.0113 -0.38918,0.20274 -0.30077,0.30077 -0.42855,1.25609 -0.5625,4.20536 l -0.17332,3.81618 -0.6875,0.0791 c -0.37813,0.0435 -0.6875,0.0331 -0.6875,-0.0231 0,-0.0562 -0.33165,-1.66665 -0.737,-3.57878 -0.97893,-4.61788 -0.67595,-4.39947 -5.8581,-4.2228 -18.28416,0.62335 -27.72248,0.93061 -38.24811,1.24516 -8.39815,0.25098 -12.32732,0.45569 -12.5672,0.65477 -0.2686,0.22292 -0.44865,0.20243 -0.7818,-0.089 -0.36345,-0.31793 -2.0351,-0.40669 -10.4328,-0.55398 -5.5,-0.0965 -10.64092,-0.19547 -11.42428,-0.22002 -1.17107,-0.0367 -1.44467,0.0334 -1.53907,0.39448 -0.0988,0.37783 -0.42922,0.43911 -2.3678,0.43911 -2.46425,0 -3.04385,-0.1241 -3.04385,-0.65175 0,-0.27386 -0.52068,-0.34823 -2.4375,-0.34816 -3.59277,1.2e-4 -13.41287,-0.28485 -13.59215,-0.39445 -0.0851,-0.052 -3.07545,-0.10327 -6.6453,-0.11395 -6.86432,-0.0205 -7.72165,0.0994 -7.95827,1.11367 -0.0667,0.2858 -0.43698,1.86964 -0.82285,3.51964 l -0.70165,3 -0.79613,0.0783 -0.79615,0.0783 z"
         style="fill:#000000" />
    </g>
  </g>
</svg>
