<?xml version="1.0" encoding="UTF-8" standalone="no"?>
<!-- Created with Inkscape (http://www.inkscape.org/) -->

<svg
   xmlns:dc="http://purl.org/dc/elements/1.1/"
   xmlns:cc="http://creativecommons.org/ns#"
   xmlns:rdf="http://www.w3.org/1999/02/22-rdf-syntax-ns#"
   xmlns:svg="http://www.w3.org/2000/svg"
   xmlns="http://www.w3.org/2000/svg"
   xmlns:sodipodi="http://sodipodi.sourceforge.net/DTD/sodipodi-0.dtd"
   xmlns:inkscape="http://www.inkscape.org/namespaces/inkscape"
   width="37"
   height="7.9677458"
   id="svg2"
   version="1.1"
   inkscape:version="0.48.5 r10040"
   sodipodi:docname="M50.svg">
  <defs
     id="defs4" />
  <sodipodi:namedview
     id="base"
     pagecolor="#ffffff"
     bordercolor="#666666"
     borderopacity="1.0"
     inkscape:pageopacity="0.0"
     inkscape:pageshadow="2"
     inkscape:zoom="22.627417"
     inkscape:cx="23.769673"
     inkscape:cy="9.0651988"
     inkscape:document-units="px"
     inkscape:current-layer="g2996"
     showgrid="false"
     fit-margin-top="0"
     fit-margin-left="0"
     fit-margin-right="0"
     fit-margin-bottom="0"
     inkscape:window-width="1920"
     inkscape:window-height="1018"
     inkscape:window-x="-8"
     inkscape:window-y="-8"
     inkscape:window-maximized="1" />
  <metadata
     id="metadata7">
    <rdf:RDF>
      <cc:Work
         rdf:about="">
        <dc:format>image/svg+xml</dc:format>
        <dc:type
           rdf:resource="http://purl.org/dc/dcmitype/StillImage" />
        <dc:title />
      </cc:Work>
    </rdf:RDF>
  </metadata>
  <g
     inkscape:label="Layer 1"
     inkscape:groupmode="layer"
     id="layer1"
     transform="translate(395.85708,-707.23545)">
    <g
       id="g2996"
       transform="matrix(0.02410204,0,0,0.02410204,-375.50463,721.03443)">
      <path
         style="fill:#000000"
         d="m 51.980572,-254.14668 0,-12.20701 -2.732955,-1.28109 c -1.503125,-0.70459 -14.79916,-3.91482 -29.546688,-7.13385 -14.7475277,-3.21901 -27.2161078,-6.25517 -27.7079555,-6.747 -0.4918478,-0.49183 -2.1251455,-0.89424 -3.6297005,-0.89424 -3.027777,0 -3.392816,0.75338 -5.500891,11.35228 -0.551973,2.775 -1.077373,5.1611 -1.167518,5.30246 -0.09015,0.14135 -7.692721,-4.0294 -16.894537,-9.26835 l -16.730582,-9.52534 -10.871778,-1.12511 c -7.890486,-0.81658 -10.957071,-0.86919 -11.182838,-0.19188 -0.759627,2.27888 -16.520551,0.0163 -17.90489,-2.57033 -0.606421,-1.13311 -1.578983,-1.56186 -3.135094,-1.38208 -2.119595,0.24487 -2.271144,0.55158 -2.507498,5.07457 l -0.251558,4.81394 -3.532529,0.94629 c -1.9429,0.52044 -17.34447,4.71567 -34.22572,9.32272 l -30.69318,8.37645 -45.82955,1.61418 -45.82955,1.61418 -92.07955,-4.15828 c -50.64375,-2.28705 -93.59319,-4.31705 -95.44319,-4.5111 -2.1476,-0.22527 -7.27629,-2.55132 -14.18626,-6.43397 -10.33277,-5.80589 -11.20819,-6.13322 -19.34091,-7.23182 -4.68506,-0.63286 -9.74811,-1.36314 -11.25124,-1.62284 -10.53275,-1.09858 -20.97279,-2.37683 -33.84659,-3.69655 -38.75375,-4.12608 -43.92093,-4.53148 -47.0631,-3.69233 -2.8939,0.77286 -2.94294,0.86646 -6.66113,12.7153 -3.68491,11.74279 -3.7853,11.9367 -6.17964,11.9367 l -2.43389,0 0.60495,-11.14204 c 0.33271,-6.12813 0.64137,-11.68753 0.68591,-12.35423 -1.32114,-4.02614 -5.09379,-4.15112 -8.17688,-4.64132 -8.60883,-0.64543 -9.48022,-0.93998 -9.93905,-3.35962 -0.17155,-0.90473 -1.07507,-1.85075 -2.00782,-2.10228 -1.40718,-0.37947 -1.7149,-1.20891 -1.80746,-4.8721 -0.0965,-3.81956 0.10438,-4.41477 1.49009,-4.41477 1.21355,0 1.60165,-0.60206 1.60165,-2.48463 0,-2.14386 -0.37482,-2.5506 -2.73295,-2.96575 -1.50313,-0.26462 -15.85856,-2.54008 -31.90095,-5.05659 l -29.16799,-4.57546 -47.35474,3.71876 c -26.04511,2.04532 -49.53059,3.94402 -52.18997,4.21934 l -4.83523,0.50057 0,-5.77184 0,-5.77184 5.46591,-4.12874 c 3.00625,-2.27081 5.46325,-4.32779 5.45998,-4.57106 -0.003,-0.24327 -4.82797,-1.71561 -10.72159,-3.27185 -11.94111,-3.15312 -33.76349,-10.28901 -52.51214,-17.17141 -9.42462,-3.45965 -12.46758,-4.27072 -12.79748,-3.41102 -0.59538,1.55154 -2.16741,1.423 -2.16741,-0.17723 0,-0.71781 -1.13289,-1.70003 -2.51753,-2.18272 l -2.51754,-0.87762 0.0356,-21.95634 c 0.0232,-14.35874 0.34807,-22.3329 0.93868,-23.04455 0.64768,-0.78041 0.63616,-1.08821 -0.0407,-1.08821 -0.63797,0 -0.94388,-2.86165 -0.94388,-8.82954 0,-5.96789 0.30591,-8.82955 0.94388,-8.82955 0.6769,0 0.68842,-0.3078 0.0407,-1.0882 -0.59062,-0.71166 -0.91544,-8.68582 -0.93869,-23.04456 l -0.0356,-21.95633 2.51754,-0.87763 c 1.38465,-0.48269 2.51754,-1.46491 2.51754,-2.18272 0,-1.70129 1.39088,-1.67566 2.35288,0.0434 0.59604,1.06506 1.09082,1.15287 2.35429,0.41781 3.12419,-1.81761 41.34214,-14.99013 55.2194,-19.03239 7.75337,-2.25845 13.99712,-4.34338 13.875,-4.63318 -0.12212,-0.28983 -11.95271,-11.506 -26.29021,-24.92484 -14.3375,-13.41885 -26.76375,-25.1842 -27.61388,-26.14523 -0.9804,-1.1083 -1.71655,-3.63151 -2.01286,-6.89928 l -0.46716,-5.15194 17.61336,0.1555 c 12.99499,0.11472 18.15315,-0.12841 19.67195,-0.92725 1.13223,-0.5955 2.62621,-1.34223 3.31996,-1.65939 0.70133,-0.32063 1.60951,-2.50273 2.0455,-4.91476 l 0.78414,-4.3381 3.58057,0 c 3.27393,0 3.89096,0.36815 7.2045,4.29862 4.83131,5.7308 8.43104,7.23761 18.49967,7.74381 4.48167,0.22532 8.52045,0.63956 8.97508,0.92054 0.45463,0.28097 1.0715,1.62589 1.37082,2.98871 0.88603,4.03405 5.39522,7.10036 17.37076,11.81235 6.17418,2.42934 22.53409,8.89046 36.35536,14.35805 23.68315,9.36888 25.25974,9.87378 27.3908,8.77177 1.24366,-0.64313 2.75299,-1.76188 3.35406,-2.48612 0.75913,-0.91471 2.5638,-1.31682 5.90986,-1.31682 7.49956,0 9.87585,-1.15061 10.54402,-5.10548 0.4939,-2.92334 0.82876,-3.30361 2.90911,-3.30361 1.67922,0 3.22711,0.96979 5.4173,3.39407 1.68649,1.86674 4.02561,3.75879 5.19805,4.20455 1.28559,0.48878 23.08627,0.81047 54.92504,0.81047 59.33075,0 58.09719,0.11737 58.09719,-5.52749 0,-2.72455 0.15807,-2.8816 2.90038,-2.8816 2.32884,0 3.34462,0.58242 5.15472,2.95558 3.09927,4.06335 6.37211,5.36722 14.15802,5.64041 l 6.6563,0.23356 -17.3779,7.54472 c -9.55784,4.14959 -17.37789,7.77918 -17.37789,8.06576 0,0.28657 1.51899,0.97613 3.37553,1.53237 1.85654,0.55623 7.76918,3.07579 13.1392,5.59901 6.57041,3.08726 10.82939,4.58768 13.0222,4.58768 2.68607,0 3.25853,0.29228 3.25853,1.66367 0,1.59198 0.69636,1.6735 16.16342,1.89204 15.85233,0.22399 16.18169,0.26509 17.11337,2.13532 0.52248,1.04882 1.17146,2.12844 1.44219,2.39916 0.27071,0.27072 16.50406,1.52362 36.07411,2.78422 l 35.58191,2.29201 19.63994,-2.26249 c 10.95564,-1.26207 19.89339,-2.67258 20.21312,-3.18992 0.31526,-0.51008 3.01875,-1.13364 6.00779,-1.38568 8.98978,-0.75803 46.047,-8.3416 69.3437,-14.19081 32.38937,-8.13215 64.69104,-14.95241 82.4091,-17.40009 3.72749,-0.51494 7.1328,-1.44948 7.63672,-2.09578 0.50019,-0.64154 1.91922,-1.55035 3.15341,-2.01959 2.05762,-0.78231 2.24396,-1.23895 2.24396,-5.49897 l 0,-4.64581 4.02946,0 c 3.66384,0 4.36587,0.34277 7.73695,3.77765 2.32917,2.37325 4.74236,3.97179 6.49119,4.29987 1.53104,0.28722 3.00058,0.87313 3.26564,1.30201 0.26506,0.42888 1.20692,0.54969 2.09301,0.26845 3.99416,-1.26769 47.020121,-2.52407 47.020121,-1.373 0,2.60712 -8.473461,18.19521 -22.655551,41.67799 -3.26446,5.40528 -5.93536,10.16874 -5.93536,10.58546 0,0.98353 35.230426,0.041 37.246111,-0.99649 0.829111,-0.42674 4.802407,-1.2958 8.829546,-1.93126 23.57561,-3.72007 38.871467,-6.51044 42.009571,-7.66368 4.238603,-1.55765 4.200425,-1.25487 2.019107,-16.0466 l -1.511198,-10.24733 1.992114,-0.5 c 1.095621,-0.27499 2.283068,-0.32014 2.638773,-0.10033 0.35562,0.2198 2.653741,5.48691 5.107009,11.70469 4.388369,11.12262 4.507189,11.31265 7.361655,11.77587 2.662739,0.4321 12.3711189,-1.02355 35.580043,-5.33476 4.85625,-0.90208 10.343182,-1.80967 12.193182,-2.01685 1.85,-0.2072 5.244078,-0.80304 7.542366,-1.32409 2.298289,-0.52105 5.136357,-0.69089 6.306819,-0.37743 6.219196,1.66563 12.082771,1.70129 47.537182,0.2891 13.4125,-0.53423 25.33239,-0.94084 26.48864,-0.90357 4.27333,0.13773 32.77029,3.38179 44.98862,5.12145 26.81743,3.81831 68.05646,16.48508 91.15657,27.9992 7.6764,3.82625 14.08321,7.24064 14.23734,7.58751 0.15423,0.34688 0.59596,0.63068 0.98168,0.63068 1.507,0 14.23727,8.05447 21.02214,13.30071 3.93125,3.03974 11.31023,9.36447 16.39773,14.05495 10.3827,9.57246 15.08229,13.00798 17.79423,13.00798 1.01581,0 2.36421,0.51725 2.99641,1.14943 1.36303,1.363 16.28311,10.64386 25.71559,15.99601 7.82777,4.44164 12.52467,5.73298 43.42774,11.9396 22.50475,4.5199 28.50236,5.28437 29.44847,3.75356 0.98992,-1.60179 -1.42458,-8.57365 -3.2444,-9.36789 -1.34209,-0.58577 -1.05736,-0.65571 1.16878,-0.28707 4.9374,0.81762 5.32784,1.10215 9.67046,7.0485 2.3125,3.16649 5.33977,6.3273 6.72727,7.02403 3.93731,1.9771 53.85704,11.38219 57.00094,10.73921 2.09143,-0.42775 2.82764,-1.13584 3.45488,-3.32315 0.73033,-2.54642 1.01439,-2.73695 3.38659,-2.27139 2.67964,0.5259 3.28964,1.1103 5.69968,5.46107 0.78575,1.41831 2.67779,3.14682 4.20455,3.84113 1.52684,0.69431 23.21018,5.2187 48.18519,10.0542 33.7873,6.54166 46.15758,8.63371 48.3336,8.17413 l 2.92452,-0.61767 3.27996,-11.85073 c 3.27736,-11.84154 3.28165,-11.85026 5.48458,-11.25353 l 2.20461,0.5972 0,12.79678 c 0,12.77359 0,12.79893 2.10227,13.9807 1.15625,0.65115 15.30043,3.84823 31.43142,7.10462 21.49355,4.33892 30.14298,6.42676 32.375,7.81485 2.682,1.66788 2.83033,1.92487 1.2416,2.15135 -0.99227,0.14146 -2.34403,0.89828 -3.00381,1.68182 -2.0297,2.41053 -9.06693,14.21076 -9.06693,15.20376 0,0.51522 1.22983,0.93864 2.73295,0.94094 2.81512,0.004 9.03498,4.04566 6.51705,4.23447 -0.69375,0.0521 -1.98749,0.23073 -2.87507,0.39714 -0.88749,0.16642 -8.00184,0.73479 -15.8096,1.26307 -10.66432,0.72155 -25.22063,2.83749 -58.51129,8.50534 -24.3735,4.14967 -45.63984,7.70198 -47.25859,7.89404 -3.61187,0.42852 -10.07905,1.40535 -55.92046,8.44639 -30.88937,4.74448 -36.43483,5.81019 -38.05114,7.31257 -1.04062,0.96728 -1.89204,1.4765 -1.89204,1.1316 0,-0.34491 -0.58906,-0.038 -1.30905,0.68196 -1.01169,1.01169 -1.44148,4.22504 -1.89204,14.14529 l -0.583,12.83623 -2.3125,0.26608 c -1.27188,0.14634 -2.3125,0.11142 -2.3125,-0.0776 0,-0.18904 -1.11555,-5.606 -2.479,-12.0377 -3.29275,-15.53287 -2.27365,-14.79824 -19.70452,-14.20399 -61.50124,2.09672 -93.24833,3.13024 -128.65271,4.18829 -28.24832,0.84419 -41.46464,1.53277 -42.27149,2.20239 -0.90347,0.74983 -1.5091,0.68091 -2.62969,-0.29925 -1.22252,-1.0694 -6.84534,-1.36797 -35.09215,-1.86339 -18.5,-0.32446 -35.7922,-0.65749 -38.42711,-0.74006 -3.93907,-0.12344 -4.85936,0.11243 -5.17689,1.32688 -0.33241,1.27089 -1.44375,1.477 -7.96442,1.477 -8.28884,0 -10.2384,-0.41744 -10.2384,-2.19224 0,-0.92118 -1.75136,-1.17134 -8.19887,-1.1711 -12.08477,4.3e-4 -45.11601,-0.95813 -45.71903,-1.32676 -0.28608,-0.1749 -10.3447,-0.34739 -22.352374,-0.3833 -23.089094,-0.069 -25.972824,0.33449 -26.768745,3.74598 -0.22427,0.96133 -1.469825,6.28879 -2.767768,11.83879 l -2.360095,10.09091 -2.677876,0.2635 -2.677959,0.26351 z"
         id="path2998"
         inkscape:connector-curvature="0"
         sodipodi:nodetypes="ccssssccscssssscsscccssssccssscsccssssssscsscccscssssscssssscscssssscssscsssscssscssssssssssssssscsssssssscscscsssssscsssssssssssscsccssssssssscsssssssccsssscsccsscsscscscscscccsssssssscsssssccsscssscscccccc" />
    </g>
  </g>
</svg>
