<?xml version="1.0" encoding="UTF-8" standalone="no"?>
<svg
   xmlns:dc="http://purl.org/dc/elements/1.1/"
   xmlns:cc="http://creativecommons.org/ns#"
   xmlns:rdf="http://www.w3.org/1999/02/22-rdf-syntax-ns#"
   xmlns:svg="http://www.w3.org/2000/svg"
   xmlns="http://www.w3.org/2000/svg"
   version="1.1"
   id="svg2"
   viewBox="0 0 160.0011 77.129227"
   width="480.0033">
  <defs
     id="defs4" />
  <metadata
     id="metadata7">
    <rdf:RDF>
      <cc:Work
         rdf:about="">
        <dc:format>image/svg+xml</dc:format>
        <dc:type
           rdf:resource="http://purl.org/dc/dcmitype/StillImage" />
        <dc:title></dc:title>
      </cc:Work>
    </rdf:RDF>
  </metadata>
  <g
     transform="translate(1400.0328,-1573.8376)"
     id="layer1">
    <path
       id="path2996"
       d="m -1357.2255,1573.8376 -0.2838,0.029 -0.6669,0.1176 -2.714,0.519 c 0,0 -1.9051,0.4743 -2.8522,0.7325 -0.4501,0.1227 -0.9014,0.2431 -1.3448,0.388 -0.248,0.081 -0.5117,0.1342 -0.7349,0.2693 -0.2265,0.137 -0.432,0.3198 -0.5881,0.5335 -0.1351,0.1848 -0.2101,0.4084 -0.285,0.6245 -0.067,0.1931 -0.106,0.395 -0.1456,0.5955 -0.034,0.172 -0.074,0.3663 -0.1169,0.5479 -0.046,0.1904 -0.1086,0.3764 -0.1498,0.5677 -0.041,0.1912 -0.097,0.5785 -0.097,0.5785 l -0.2558,0.2389 -0.416,0.3674 -0.048,0.1043 0.1771,0.052 0.2473,0.064 -0.045,0.171 -0.3626,0.021 -0.024,0.1177 0,0.171 0.079,0.1079 0.074,0.103 -0.015,0.1662 -0.097,0 -0.1079,0.1031 -0.079,0.074 0.024,0.1067 0.1322,0.1577 -0.025,0.088 -0.382,0.6851 -0.7203,1.2248 -0.3384,0.3723 c 0,0 -0.1038,0.029 -0.1418,0.064 -0.015,0.013 -0.025,0.033 -0.029,0.053 0,0.03 0,0.062 0.014,0.088 0.016,0.03 0.074,0.069 0.074,0.069 l -1.1375,1.0186 -0.7931,0.6027 -0.2898,0 c 0,0 -0.1975,0.1513 -0.2935,0.2303 -0.073,0.061 -0.145,0.1232 -0.2158,0.1868 -0.1694,0.1521 -0.3216,0.3238 -0.4996,0.4657 -0.1291,0.1028 -0.2701,0.19 -0.4099,0.2777 -0.7963,0.4996 -1.6169,0.9599 -2.4399,1.414 -0.749,0.4132 -1.5102,0.8041 -2.2726,1.192 -1.3956,0.7101 -2.8077,1.3872 -4.2128,2.0785 -1.0217,0.5028 -2.0517,0.9889 -3.0668,1.5049 -0.4805,0.2443 -1.4309,0.7531 -1.4309,0.7531 0,0 -0.629,0.075 -0.9423,0.1213 -0.06,0.01 -0.1807,0.03 -0.1807,0.03 0,0 -0.056,0.038 -0.07,0.067 -0.02,0.039 -0.015,0.1309 -0.015,0.1309 l 0,0.1928 0.057,0.041 0.2219,0.012 0.012,0.072 c 0,0 -0.053,-0.01 -0.078,0 -0.029,0.01 -0.057,0.023 -0.08,0.042 -0.025,0.021 -0.048,0.046 -0.061,0.075 -0.01,0.022 -0.01,0.072 -0.01,0.072 l -3.0596,0.462 -1.2539,0.7409 -0.6027,-0.1176 -1.7256,-0.034 -4.9283,3.8757 -0.3238,0.5396 0.02,0.2159 -0.068,0.019 -0.02,0.3033 -0.3929,0.3334 0,2.9104 0.4026,0 0,0.2353 -0.4026,0 0,2.891 0.4414,0.2934 0,0.3335 0.048,0.064 0,0.3128 c 0,0 0.054,0.042 0.074,0.069 0.052,0.07 0.071,0.1591 0.1128,0.2353 0.033,0.059 0.1079,0.1709 0.1079,0.1709 l 4.8701,3.8806 1.8723,-0.01 1.1363,0.6766 0.8925,-0.3044 1.4165,1.6008 1.1568,1.2053 0.4026,0.4233 0.422,-0.076 0.9908,1.1011 0.8731,0.873 0.1673,0.1601 c 0,0 0.1492,-0.025 0.2208,-0.049 0.048,-0.016 0.1394,-0.063 0.1394,-0.063 l 0.8149,0.8913 0.7058,0.6852 0.382,0.3334 -0.627,0.6173 0.3335,0.2753 c 0,0 2.1402,1.8985 3.2633,2.783 0.314,0.2473 0.6244,0.5041 0.9701,0.7046 1.0941,0.6347 3.4598,1.5582 3.4598,1.5582 0,0 0.4647,-0.063 0.6949,-0.1066 0.2039,-0.039 0.4014,-0.1128 0.6075,-0.1383 0.8531,-0.1056 1.7237,0.036 2.5781,-0.058 0.1656,-0.018 0.49,-0.098 0.49,-0.098 l 0.092,-0.067 0.1358,0.114 0.1698,-0.1104 0.03,0.056 -0.1007,0.1795 0.5578,0.5299 0.1322,0 c 0,0 0.011,-0.06 0.035,-0.073 0.014,-0.01 0.034,0 0.045,0.01 0.029,0.027 0.03,0.114 0.03,0.114 l -0.075,0.022 0.013,0.1176 1.9233,1.836 c 0,0 0.4692,0 0.7034,0.011 0.5112,0.025 1.0199,0.1678 1.5303,0.1285 0.192,-0.015 0.3732,-0.096 0.5615,-0.1358 0.1242,-0.026 0.2477,-0.066 0.3747,-0.069 0.1677,0 0.3346,0.033 0.4984,0.069 0.1415,0.031 0.2758,0.089 0.416,0.1249 0.1466,0.038 0.2927,0.088 0.4438,0.097 0.097,0.01 0.1992,0 0.2911,-0.028 0.047,-0.017 0.1248,-0.084 0.1248,-0.084 l 4.6155,4.8652 0.103,0.3347 c 0,0 1.2528,1.1262 1.8918,1.6747 0.7342,0.6302 1.482,1.2444 2.2313,1.8566 0.3487,0.2849 1.0538,0.8452 1.0538,0.8452 l -0.1892,0.2729 c 0,0 -0.013,0.048 0,0.069 0.012,0.03 0.074,0.063 0.074,0.063 l 6.4283,3.9302 0.1856,0.4414 c 0,0 0.9718,0.4891 1.4709,0.7046 0.5916,0.2554 1.1803,0.5315 1.8033,0.6961 0.064,0.017 0.1952,0.029 0.1952,0.029 0,0 0.09,-0.068 0.1079,-0.1177 0.024,-0.067 0,-0.1433 -0.01,-0.2146 0,-0.043 -0.019,-0.1274 -0.019,-0.1274 0,0 1.6041,1.1134 2.4169,1.6541 0.9068,0.6033 1.8221,1.1944 2.7442,1.7742 0.3301,0.2075 0.9981,0.6099 0.9981,0.6099 0,0 0.064,0.1185 0.1103,0.1662 0.067,0.069 0.1519,0.1199 0.2365,0.1661 0.064,0.035 0.2012,0.082 0.2012,0.082 l 0.5785,0.633 0.01,0.2255 c 0,0 0.3673,0.2436 0.5639,0.342 0.6801,0.3404 1.3962,0.6076 2.1161,0.8525 0.7002,0.2382 1.4203,0.4145 2.1367,0.5978 0.1974,0.051 0.3973,0.091 0.5955,0.1383 0.1441,0.035 0.2861,0.079 0.4317,0.1067 0.1025,0.02 0.2062,0.048 0.3104,0.042 0.039,0 0.081,-0.01 0.1152,-0.029 0.03,-0.017 0.074,-0.074 0.074,-0.074 0,0 0.024,-0.074 0.029,-0.1128 0.01,-0.049 0.012,-0.1369 0,-0.1492 -0.01,-0.013 -0.04,-0.1 -0.073,-0.1419 -0.039,-0.051 -0.095,-0.087 -0.1455,-0.1273 -0.2491,-0.1977 -0.5176,-0.3697 -0.7749,-0.5566 -0.1912,-0.1388 -0.3752,-0.2876 -0.5712,-0.4196 -0.135,-0.091 -0.2835,-0.1612 -0.4159,-0.2558 -0.056,-0.04 -0.1601,-0.1322 -0.1601,-0.1322 0,0 0.073,0.01 0.1079,0.014 0.1065,0.027 0.2008,0.093 0.3081,0.1177 0.1,0.022 0.3055,0.024 0.3055,0.024 0,0 0.028,-0.03 0.03,-0.049 0,-0.032 -0.034,-0.091 -0.034,-0.091 0,0 0.1176,0.049 0.1794,0.063 0.069,0.015 0.1412,0.021 0.2123,0.021 0.066,4e-4 0.1161,-0.01 0.1635,-0.043 0.03,-0.024 0.053,-0.045 0.055,-0.082 0,-0.062 0,-0.1268 -0.018,-0.1868 -0.021,-0.072 -0.054,-0.1423 -0.1031,-0.1988 -0.089,-0.1035 -0.3323,-0.2401 -0.3323,-0.2401 0,0 -1.1031,-0.6617 -1.637,-1.0199 -0.3129,-0.2099 -0.6087,-0.4442 -0.9169,-0.6609 -0.2525,-0.1776 -0.5149,-0.3412 -0.7639,-0.5238 -0.6708,-0.492 -1.3079,-1.0283 -1.9646,-1.5389 -0.4724,-0.3675 -0.941,-0.7402 -1.4212,-1.0975 -0.3128,-0.2328 -0.6392,-0.447 -0.9507,-0.6815 -0.086,-0.065 -0.2547,-0.2013 -0.2547,-0.2013 0,0 -0.2748,-0.7132 -0.4244,-1.0648 -0.085,-0.2008 -0.1789,-0.3983 -0.2704,-0.5966 -0.1231,-0.2664 -0.2415,-0.5352 -0.3747,-0.7967 -0.069,-0.136 -0.2207,-0.4014 -0.2207,-0.4014 0,0 -0.1095,-0.012 -0.1625,-0.026 -0.044,-0.011 -0.086,-0.029 -0.1274,-0.047 -0.073,-0.033 -0.2134,-0.1128 -0.2134,-0.1128 0,0 -0.9428,-0.6879 -1.3909,-1.0611 -0.3323,-0.2767 -0.6479,-0.5731 -0.9605,-0.8719 -0.4892,-0.4677 -0.955,-0.9594 -1.4309,-1.4407 -0.564,-0.5703 -1.1307,-1.1379 -1.688,-1.7147 -0.4666,-0.4827 -1.3861,-1.4612 -1.3861,-1.4612 l -0.2038,-0.2292 -0.1479,-0.4111 c 0,0 -0.28,-1.32 -0.4244,-1.9791 -0.084,-0.3816 -0.213,-0.7553 -0.2559,-1.1435 -0.083,-0.7498 -0.068,-1.5117 0,-2.2629 0.072,-0.7939 0.2295,-1.5811 0.4305,-2.3526 0.1174,-0.4505 0.228,-0.9131 0.4511,-1.3218 0.2166,-0.3967 0.5242,-0.7416 0.8428,-1.0623 0.1714,-0.1725 0.3735,-0.312 0.5688,-0.4571 0.2899,-0.2156 0.8937,-0.6137 0.8937,-0.6137 l 0.017,0.011 0,0.4657 0.7894,0 0,0.2837 1.8372,0 0,-0.2789 0.8283,0 0,0.2438 1.8226,0 0,-1.7463 0.2219,0 0,1.7669 1.836,0 0,-0.285 0.8246,0 0,0.2656 1.8311,0 0,-0.2644 0.7894,0 0,-1.4709 0.5337,0 0,1.7353 1.8226,0 0,-0.2402 0.8282,0 0,0.2692 1.8372,0 0,-0.2873 0.798,0 0,-1.4868 0.6681,0 0,1.5013 0.3505,0 0,0.2389 1.8117,0 0,-0.2704 0.8356,0 0,0.2656 1.8287,0 0,-0.2595 0.2,0 0,-1.4661 0.4609,0 0,1.4855 0.2934,0 0,0.2546 1.8178,0 0,-0.2498 0.8429,0 0,0.2644 1.8432,0 0,-0.2838 0.2171,0 0,-1.4697 0.5821,0 0,1.483 0.1394,0 0,0.2705 1.8287,0 0,-0.2911 0.8246,0 0,0.2765 1.8433,0 0,-0.2219 0.4304,0 0,-1.5304 0.45,0 0,1.5037 0.076,0 0,0.2207 1.8202,0 0,-0.2413 0.8501,0 0,0.2838 1.8177,0 0,-0.2947 0.4524,0 0,-1.4758 0.3189,0 0.4972,-1.6881 0,-1.2248 0.3481,0 0.014,-0.1091 0.422,0.045 0.8113,0.063 1.4345,0.097 1.2151,0.028 0,0.2704 0.1359,0 0,1.9124 0.2861,0 0,0.2352 -0.2837,0 0,0.5906 c 0,0 -0.03,0.012 -0.042,0.022 -0.02,0.016 -0.039,0.034 -0.051,0.057 -0.015,0.029 -0.022,0.096 -0.022,0.096 l 0,0.9495 c 0,0 0.03,0.209 0.061,0.3093 0.02,0.063 0.044,0.1259 0.079,0.1819 0.033,0.053 0.078,0.098 0.1225,0.1419 0.096,0.094 0.1966,0.1858 0.3092,0.2595 0.1416,0.093 0.3,0.1571 0.4548,0.2255 0.2135,0.094 0.6524,0.2547 0.6524,0.2547 l 0,1.0041 0.171,0 1.2151,1.5388 2.2592,0 0,-0.1891 0.1176,0 0,0.1915 0.7203,0 0,-0.2134 0.1055,0 0,0.2013 2.2532,0 1.1763,-1.5255 0.2146,0 0,-1.032 c 0,0 0.2102,-0.1023 0.3117,-0.1601 0.1148,-0.065 0.2353,-0.1251 0.3359,-0.2109 0.085,-0.073 0.1653,-0.1565 0.2219,-0.2535 0.044,-0.075 0.069,-0.1601 0.086,-0.2449 0.023,-0.1136 0.022,-0.3469 0.022,-0.3469 l 0.5845,-0.017 c 0,0 0.1255,0.1173 0.1916,0.1722 0.1,0.083 0.1928,0.1773 0.308,0.2364 0.103,0.053 0.2179,0.083 0.3323,0.1007 0.1885,0.03 0.3815,0.01 0.5723,0.01 0,10e-5 0,0 0.01,0 0.2405,0 0.481,0.017 0.7215,0.014 0.4158,0 0.8328,-0.01 1.2466,-0.049 0.3166,-0.032 0.63,-0.092 0.9423,-0.1528 0.621,-0.1212 1.2381,-0.2641 1.8505,-0.4232 0.7034,-0.1827 1.4014,-0.3872 2.0931,-0.61 1.3919,-0.4483 2.7607,-0.9653 4.1364,-1.4612 1.2086,-0.4357 2.407,-0.8996 3.6174,-1.3303 1.298,-0.462 2.599,-0.9161 3.9084,-1.3448 1.9025,-0.6231 3.8318,-1.1622 5.7347,-1.7839 1.467,-0.4793 2.9266,-0.9815 4.3802,-1.5001 0.9812,-0.3501 1.9658,-0.6926 2.9298,-1.0877 0.8218,-0.3369 2.4302,-1.0927 2.4302,-1.0927 0,0 0.071,-0.04 0.098,-0.069 0.024,-0.025 0.034,-0.06 0.055,-0.087 0.015,-0.021 0.04,-0.034 0.051,-0.057 0.011,-0.024 0.01,-0.08 0.01,-0.08 0,0 0.037,-0.032 0.057,-0.047 0.023,-0.018 0.052,-0.03 0.073,-0.051 0.02,-0.02 0.041,-0.042 0.05,-0.069 0.01,-0.019 3e-4,-0.04 0,-0.061 0,-0.091 -0.011,-0.2728 -0.011,-0.2728 l -0.082,-0.2316 c 0,0 0,-0.1332 -0.013,-0.1989 -0.01,-0.039 -0.012,-0.078 -0.028,-0.114 -0.011,-0.026 -0.028,-0.051 -0.048,-0.072 -0.022,-0.022 -0.049,-0.039 -0.078,-0.05 -0.036,-0.013 -0.075,-0.013 -0.1128,-0.017 -0.076,-0.01 -0.1528,-0.01 -0.2292,-0.01 -0.3439,-0.01 -0.6879,-0.017 -1.0319,-0.022 -0.5635,-0.01 -1.127,-0.011 -1.6905,-0.013 -0.4669,0 -0.9338,0 -1.4007,0 -0.9305,0 -1.861,0.032 -2.7915,0.028 -0.2669,0 -0.8003,-0.015 -0.8003,-0.015 l -0.079,-0.148 0,-0.3698 0.02,-0.1225 -0.137,-0.036 -0.098,-0.027 -0.01,-0.035 0.1345,-0.02 0.3311,-0.103 0.3675,-0.1298 3.6125,0 0.2389,0.1224 0.274,0.1759 c 0,0 0.049,0.012 0.073,0.01 0.026,-0.01 0.069,-0.041 0.069,-0.041 l 0.052,-0.171 0.257,-0.3007 0.014,-0.09 -0.1613,-0.3966 0,-1.6868 0.5687,0 0.038,-0.018 0.035,-0.037 0,-0.53 0.2873,0 0,0.4815 0.028,0.052 1.5037,0 0.024,-0.028 0,-0.4935 0.285,0 0,0.4729 1.4855,0 0,-0.4268 2.2798,0 c 0,0 0.084,-0.014 0.1213,-0.034 0.02,-0.01 0.039,-0.024 0.051,-0.042 0.021,-0.032 0.028,-0.1104 0.028,-0.1104 l 0,-0.5542 -0.1249,-0.065 0.073,-0.073 0,-0.6197 10.515,0 0.012,-0.2098 -0.2644,-0.2086 -0.764,-0.7615 -0.3164,-0.245 -0.3117,-0.2147 -0.2632,-0.1527 -0.1673,-0.1043 -0.3456,-0.2353 -0.3747,-0.291 -0.2013,-0.1807 -0.1661,-0.069 -0.2632,-0.1177 -0.4293,-0.1249 -1.1229,-0.2073 c 0,0 -1.0384,-0.1331 -1.5595,-0.1808 -1.7889,-0.1634 -3.5833,-0.2632 -5.377,-0.3601 -2.2437,-0.1212 -4.4905,-0.1749 -6.7351,-0.2765 -2.6155,-0.1183 -5.2304,-0.2483 -7.8448,-0.388 -3.2252,-0.1724 -6.4513,-0.3339 -9.6735,-0.5554 -2.0758,-0.1427 -4.1505,-0.3044 -6.2222,-0.4985 -1.5401,-0.1442 -4.6142,-0.4947 -4.6142,-0.4947 l -1.2248,-0.1661 -2.8909,-0.4706 -2.1271,-0.3577 c 0,0 -0.081,-0.08 -0.1273,-0.1127 -0.054,-0.038 -0.1128,-0.069 -0.1722,-0.098 -0.1252,-0.061 -0.2551,-0.1118 -0.3868,-0.1564 -0.1859,-0.063 -0.3782,-0.1052 -0.5676,-0.1565 -0.9592,-0.2595 -1.9163,-0.5278 -2.8813,-0.7652 -1.7237,-0.4239 -3.4581,-0.804 -5.1938,-1.1763 -1.4796,-0.3172 -2.966,-0.6015 -4.4493,-0.901 -1.8814,-0.3798 -3.7627,-0.7604 -5.6449,-1.1362 -0.959,-0.1915 -1.9154,-0.3965 -2.8777,-0.57 -0.3273,-0.059 -0.9847,-0.1601 -0.9847,-0.1601 l -0.2426,0.056 -0.3043,0.125 c 0,0 -3.8712,-0.7257 -5.8209,-0.9981 -2.4667,-0.3446 -4.9517,-0.5435 -7.4288,-0.804 -2.0018,-0.2105 -6.0075,-0.6136 -6.0075,-0.6136 l -0.6475,-0.6124 -0.068,-1.3618 -1.186,-0.245 -0.2692,0.3917 -0.4705,0.6803 -0.4657,0.6572 -0.1855,0 -0.1286,-0.054 -0.7688,-0.1613 -0.2013,-0.1079 -1.5825,-0.1274 -0.063,0.05 -2.0676,-0.2849 -0.9847,-0.8379 -0.096,-1.9161 -1.7571,-0.4753 -0.228,0.257 -0.3056,0.3809 -0.6379,0.8585 -0.7785,0.9155 c 0,0 -0.2781,-0.026 -0.4099,-0.069 -0.05,-0.016 -0.1178,-0.023 -0.1419,-0.07 -0.01,-0.02 0,-0.044 0.011,-0.065 0.01,-0.03 0.034,-0.055 0.041,-0.086 0.026,-0.1138 0,-0.3504 0,-0.3504 l -0.049,-0.041 -0.3638,0.01 -0.011,0.042 -0.2123,0.022 -0.2607,0.01 c 0,0 -0.1558,-0.037 -0.2316,-0.063 -0.054,-0.018 -0.1186,-0.023 -0.1577,-0.064 -0.035,-0.037 -0.038,-0.097 -0.051,-0.1467 -0.021,-0.08 -0.024,-0.1627 -0.042,-0.2425 -0.018,-0.078 -0.039,-0.1554 -0.069,-0.2292 -0.019,-0.046 -0.038,-0.092 -0.069,-0.131 -0.026,-0.034 -0.063,-0.058 -0.097,-0.084 -0.035,-0.026 -0.072,-0.05 -0.1115,-0.069 -0.2096,-0.099 -0.4365,-0.1558 -0.6585,-0.2219 -0.062,-0.018 -0.123,-0.04 -0.1868,-0.048 -0.053,-0.01 -0.1075,-0.014 -0.1588,0 -0.046,0.012 -0.086,0.042 -0.125,0.069 -0.1566,0.1078 -0.4365,0.3674 -0.4365,0.3674 l -0.4159,0.3954 c 0,0 -0.079,-0.023 -0.1177,-0.014 -0.032,0.01 -0.067,0.021 -0.084,0.049 -0.017,0.028 0,0.066 -0.01,0.097 -0.018,0.048 -0.09,0.1249 -0.09,0.1249 l -0.3881,-0.062 -0.103,-0.2 -0.4317,-1.1957 -1.0684,-5.1939 -0.8428,-4.214 -0.519,-2.4411 c 0,0 -0.018,-0.058 -0.039,-0.078 -0.018,-0.017 -0.069,-0.029 -0.069,-0.029 z"
       style="fill:#000000;fill-opacity:1;stroke:none" />
  </g>
</svg>
