<?xml version="1.0" encoding="UTF-8" standalone="no"?>
<svg
   xmlns:dc="http://purl.org/dc/elements/1.1/"
   xmlns:cc="http://creativecommons.org/ns#"
   xmlns:rdf="http://www.w3.org/1999/02/22-rdf-syntax-ns#"
   xmlns:svg="http://www.w3.org/2000/svg"
   xmlns="http://www.w3.org/2000/svg"
   version="1.1"
   id="svg2"
   viewBox="0 0 39.999997 10.379394"
   width="120">
  <defs
     id="defs4" />
  <metadata
     id="metadata7">
    <rdf:RDF>
      <cc:Work
         rdf:about="">
        <dc:format>image/svg+xml</dc:format>
        <dc:type
           rdf:resource="http://purl.org/dc/dcmitype/StillImage" />
        <dc:title></dc:title>
      </cc:Work>
    </rdf:RDF>
  </metadata>
  <g
     transform="translate(679.92148,-806.79326)"
     id="layer1">
    <g
       transform="matrix(0.01711335,0,0,0.01711335,-666.37254,801.55022)"
       id="g4147">
      <path
         id="path4155"
         d="m 119.64289,911.35836 c -5.8438,-0.86265 -12.1849,-1.27839 -14.0914,-0.92385 -1.9065,0.35452 -6.406503,-0.23399 -10.000003,-1.30781 -3.5935,-1.07384 -10.3218,-2.31559 -14.9517,-2.75944 -4.9878,-0.47818 -10.8201,-2.0231 -14.3128,-3.79134 l -5.8948,-2.98432 -18.0217,1.89298 c -9.912,1.04115 -18.1577,1.7248 -18.3239,1.51924 -1.0021,-1.23989 -1.7552,-7.19232 -0.9708,-7.67354 1.3543,-0.83088 8.1711,-1.77656 20.032,-2.77896 5.687,-0.48062 10.6546,-1.38285 11.039,-2.00495 0.3845,-0.62209 -1.0863,-3.91331 -3.2684,-7.31384 l -3.9675,-6.18277 -29.5599,-0.33485 -29.5599,-0.33485 -0.6417,-3.75 c -0.5708,-3.33586 -1.2623,-3.84969 -6.2616,-4.65266 -3.091,-0.49648 -44.028,-2.35045 -90.971097,-4.11995 l -85.3512,-3.21729 -3.8079,3.80787 c -2.0943,2.09434 -5.2372,4.16662 -6.9842,4.60508 -3.8387,0.96346 -42.5267,-1.72584 -45.037,-3.13064 -0.9774,-0.54701 -2.4535,-2.35534 -3.2801,-4.01849 -1.4261,-2.86942 -2.2996,-3.07316 -17.0956,-3.98768 -8.5761,-0.53007 -42.7008,-2.67267 -75.8327,-4.76133 l -60.2398,-3.79756 -26.6352,-9.40631 c -14.6493,-5.17347 -40.9789,-14.36875 -58.5101,-20.43397 -46.3965,-16.05157 -45.947,-15.88197 -54.2496,-20.46932 -4.194,-2.31724 -20.8442,-8.57013 -37.0004,-13.89529 -16.1563,-5.32517 -33.8528,-11.6718 -39.3256,-14.10364 -6.3347,-2.8148 -31.9987,-19.28292 -70.625,-45.3188 -60.3876,-40.70393 -60.7217,-40.90731 -70.6744,-43.01868 -17.8679,-3.7905 -17.5703,-3.61025 -22.531,-13.6476 l -4.4547,-9.01344 0.6467,-23.08515 c 0.3557,-12.69684 0.9787,-29.44156 1.3844,-37.2105 0.6784,-12.98798 0.9579,-14.21835 3.4712,-15.28029 1.5034,-0.63522 28.0235,-4.84314 58.9336,-9.35092 34.6164,-5.04829 56.572,-8.78117 57.1683,-9.7197 0.5325,-0.83807 0.9768,-15.70864 0.9873,-33.04575 l 0.019,-31.522 6.6761,-5.0405 6.6761,-5.04049 50.7397,0 c 49.033,0 50.7654,-0.0811 51.5056,-2.41313 0.4212,-1.32722 2.2872,-2.73381 4.1467,-3.12576 3.666,-0.77275 57.8967,-9.4427 59.1358,-9.45414 0.4152,-0.004 2.1859,-1.33313 3.9349,-2.954 4.1548,-3.85057 12.3762,-4.83247 25.9351,-3.09752 5.8438,0.74774 14.945,1.3888 20.2249,1.42457 8.2041,0.0556 9.6865,0.3962 10.1955,2.34252 0.3905,1.49331 1.7567,2.27746 3.9678,2.27746 2.576,0 6.367,-2.9062 16.0545,-12.3075 l 12.6823,-12.3075 14.375,-2.63088 c 7.9063,-1.44697 21.4063,-3.8547 30,-5.35048 10.5899,-1.84323 16.4566,-3.47434 18.2056,-5.06163 1.4193,-1.28811 3.4466,-2.34201 4.505,-2.34201 3.153,0 8.1916,-5.56311 9.1676,-10.12199 1.4058,-6.56665 2.8655,-7.70032 8.7736,-6.81434 4.5031,0.67528 7.631,-0.2787 24.2444,-7.39418 l 19.0743,-8.16949 18.046,0 c 14.8417,0 19.309,0.44391 25.1589,2.5 8.5541,3.00651 21.8531,3.30067 28.2568,0.625 3.3376,-1.39454 9.4802,-1.875 23.9712,-1.875 18.7879,0 19.7934,0.13181 28.1578,3.69117 l 8.6742,3.69118 9.4923,-1.81618 c 5.2207,-0.9989 11.0199,-1.81617 12.8871,-1.81617 4.0857,0 9.9022,5.7026 13.8459,13.57467 2.522097,5.03447 3.020497,5.3916 6.540997,4.6875 2.096,-0.4192 4.5843,-0.76217 5.5296,-0.76217 1.2055,0 1.7187,-1.69155 1.7187,-5.66423 0,-3.43158 0.6159,-5.86117 1.5625,-6.16386 0.8594,-0.2748 6.4889,-0.87051 12.51,-1.32381 l 10.9475,-0.82419 -0.3225,-5.19945 -0.3225,-5.19946 6.25,-0.8677 c 12.5143,-1.73736 15.2161,-2.77511 28.7389,-11.03879 11.5606,-7.06456 15.1603,-8.63014 22.5110998,-9.7905 8.5528,-1.35009 34.6125002,-4.27447 52.9244002,-5.9391 5.5812,-0.50735 9.7426,-1.53586 10.625,-2.62605 0.7979,-0.98562 2.435,-2.87674 3.6381,-4.20246 1.2032,-1.32571 2.1875,-2.93195 2.1875,-3.5694 0,-1.81805 -9.0815,-8.841 -11.4325,-8.841 -4.1763,0 -6.0128,-1.56238 -6.8059,-5.79015 -0.6779,-3.61325 -0.068,-5.41076 3.8234,-11.27189 2.5465,-3.8352 4.1597,-7.42916 3.585,-7.98657 -1.2295,-1.1925 -18.4711,-3.70139 -25.4366,-3.70139 -5.7001,0 -6.4647,-0.85418 -5.131,-5.7321 0.7873,-2.87965 1.6273,-3.57919 4.0093,-3.33881 32.8191,3.31197 31.9843,3.30257 38.6492,0.43543 3.4693,-1.49245 11.2142,-3.28748 17.2109,-3.98898 5.9968,-0.7015 12.0282,-1.91593 13.4032,-2.69872 1.375,-0.78278 5.620503,-1.28238 9.434303,-1.11022 3.8138,0.17217 12.7511,-0.55671 19.8606,-1.61974 10.7374,-1.60549 15.9988,-1.70469 31.0704,-0.58582 9.9792,0.74083 19.4783,1.85422 21.1089,2.4742 3.9261,1.4927 4.9281,4.48408 2.4274,7.24725 -1.1146,1.23165 -2.0266,3.17411 -2.0266,4.31657 0,1.14248 5.0625,7.55493 11.25,14.24989 9.3934,10.16377 11.25,12.84751 11.25,16.26186 0,2.24905 0.5017,4.08919 1.1149,4.08919 1.3969,0 30.494,-11.15196 41.3851,-15.86155 15.4366,-6.67518 36.9944,-4.7443 143.0448,12.8121 14.4187,2.38699 27.0477,5.10222 28.125,6.04687 1.0754,0.943 32.5292,8.76734 69.8974,17.38743 50.123,11.56237 68.6457,16.31451 70.625,18.11931 5.2998,4.83279 15.7285,8.13573 50.1828,15.89398 253.0798,56.98701 369.3683,83.53737 479.15871,109.39886 6.6174,1.55874 12.2065,2.16431 15.3444,1.66254 3.6035,-0.57623 5.5249,-0.25614 7.1182,1.18582 1.2609,1.14104 34.3704,9.93155 78.4057,20.81654 53.7736,13.29219 87.2677,22.31182 113.7231,30.62449 20.625,6.48068 46.2187,14.37525 56.875,17.54348 29.6877,8.82653 42.7547,13.20843 46.9976,15.76022 2.1299,1.281 18.4424,6.84191 36.25,12.35756 38.3886,11.89037 102.1376,33.46941 104.9493,35.52531 3.944,2.88398 0.6968,8.33751 -13.6902,22.99209 -12.927,13.1675 -13.8976,14.50012 -14.113,19.375 -0.1272,2.87922 -0.6142,7.37544 -1.0823,9.9916 l -0.851,4.75664 -46.0987,23.05586 c -25.3542,12.68071 -47.4377,23.05585 -49.0746,23.05585 -3.1001,0 -17.0371,5.67835 -17.0371,6.94141 0,0.39761 0.6064,1.856 1.3475,3.24084 1.3054,2.43905 2.3721,2.50735 34.0625,2.18102 l 32.715,-0.33687 0.3924,3.99539 c 0.2425,2.46983 -0.2348,4.21755 -1.25,4.5772 -0.9034,0.31998 -12.2837,0.738 -25.2898,0.9289 -17.5541,0.25767 -23.7811,0.74971 -24.1666,1.90961 -0.3644,1.09629 1.1681,1.5625 5.136,1.5625 5.8325,0 8.681,1.9512 5.6506,3.87061 -0.9474,0.60011 -6.1017,1.09973 -11.4541,1.11025 -6.2024,0.0125 -10.7355,0.65836 -12.5,1.78181 -2.0168,1.28405 -9.5569,1.98414 -27.7685,2.57824 -13.75,0.44856 -26.5689,1.42024 -28.4865,2.15926 -3.956,1.52465 -4.515,1.02507 -9.6186,-8.59518 l -3.0008,-5.65653 2.9356,-2.21429 c 4.7259,-3.56477 2.6092,-6.60607 -4.008,-5.75837 -2.927,0.37497 -13.7592,1.26507 -24.0717,1.97799 -10.3125,0.71291 -20.7188,1.86185 -23.125,2.55318 -4.7414,1.36224 -135.3261,13.69932 -144.8335,13.68323 -3.1854,-0.005 -16.7603,1.69164 -30.1665,3.77115 -22.4123,3.4765 -45.7634,5.04041 -290.00011,19.42247 -146.0937,8.60284 -267.4531,15.93132 -269.6875,16.28549 -3.6531,0.57908 -4.0625,1.06888 -4.0625,4.8601 0,5.87701 -1.1132,8.17059 -3.9658,8.17059 -4.1298,0 -7.2842,2.41846 -7.2842,5.58475 0,1.77955 -0.8885,3.25395 -2.1875,3.62992 -7.4755,2.16368 -109.5513,13.28533 -121.9344,13.28533 -7.6611,0 -9.262,-0.37673 -10.5819,-2.49023 -1.5199,-2.43375 -2.5544,-2.47345 -45.6131,-1.75037 l -44.0581,0.73987 -38.125,6.03618 c -28.1033,4.4495 -43.6215,6.27072 -59.0353,6.92845 l -20.9104,0.89227 -7.3095,7.63442 c -4.0202,4.19892 -8.3456,9.2267 -9.612,11.17283 -2.1698,3.33443 -2.1821,3.74232 -0.2136,7.07472 2.2665,3.83696 1.7691,6.88436 -1.3172,8.06866 -8.0166,3.07626 -41.9961,3.82165 -59.102,1.2965 z"
         style="fill:#000000;fill-opacity:1" />
    </g>
  </g>
</svg>
