<?xml version="1.0" encoding="UTF-8" standalone="no"?>
<!-- Created with Inkscape (http://www.inkscape.org/) -->

<svg
   xmlns:dc="http://purl.org/dc/elements/1.1/"
   xmlns:cc="http://creativecommons.org/ns#"
   xmlns:rdf="http://www.w3.org/1999/02/22-rdf-syntax-ns#"
   xmlns:svg="http://www.w3.org/2000/svg"
   xmlns="http://www.w3.org/2000/svg"
   xmlns:sodipodi="http://sodipodi.sourceforge.net/DTD/sodipodi-0.dtd"
   xmlns:inkscape="http://www.inkscape.org/namespaces/inkscape"
   width="332.99991"
   height="160.54089"
   id="svg2"
   version="1.1"
   inkscape:version="0.48.5 r10040"
   sodipodi:docname="Merchantman.svg">
  <defs
     id="defs4" />
  <sodipodi:namedview
     id="base"
     pagecolor="#ffffff"
     bordercolor="#666666"
     borderopacity="1.0"
     inkscape:pageopacity="0.0"
     inkscape:pageshadow="2"
     inkscape:zoom="2.8"
     inkscape:cx="225.61431"
     inkscape:cy="111.78948"
     inkscape:document-units="px"
     inkscape:current-layer="layer1"
     showgrid="false"
     fit-margin-top="0"
     fit-margin-left="0"
     fit-margin-right="0"
     fit-margin-bottom="0"
     inkscape:window-width="1920"
     inkscape:window-height="1018"
     inkscape:window-x="-8"
     inkscape:window-y="-8"
     inkscape:window-maximized="1" />
  <metadata
     id="metadata7">
    <rdf:RDF>
      <cc:Work
         rdf:about="">
        <dc:format>image/svg+xml</dc:format>
        <dc:type
           rdf:resource="http://purl.org/dc/dcmitype/StillImage" />
        <dc:title />
      </cc:Work>
    </rdf:RDF>
  </metadata>
  <g
     inkscape:label="Layer 1"
     inkscape:groupmode="layer"
     id="layer1"
     transform="translate(1400.0214,-1490.433)">
    <path
       style="fill:#000000;fill-opacity:1;stroke:none"
       d="m -1310.9524,1490.434 -0.5907,0.061 -1.3881,0.2448 -5.6484,1.0802 c 0,0 -3.9651,0.9871 -5.9361,1.5244 -0.9369,0.2554 -1.8761,0.5059 -2.799,0.8076 -0.516,0.1688 -1.0649,0.2793 -1.5294,0.5604 -0.4715,0.2851 -0.8991,0.6657 -1.2241,1.1105 -0.281,0.3845 -0.4371,0.8499 -0.5931,1.2997 -0.1394,0.4018 -0.2205,0.8221 -0.3029,1.2393 -0.071,0.3581 -0.1532,0.7623 -0.2434,1.1404 -0.095,0.3962 -0.2261,0.7833 -0.3118,1.1815 -0.086,0.3978 -0.202,1.2039 -0.202,1.2039 l -0.5325,0.4972 -0.8657,0.7648 -0.101,0.217 0.3686,0.1086 0.5148,0.1337 -0.093,0.3558 -0.7546,0.043 -0.051,0.2448 0.01,0.3559 0.164,0.2246 0.154,0.2145 -0.032,0.3458 -0.2019,0.01 -0.2246,0.2145 -0.1641,0.1539 0.051,0.2221 0.275,0.3281 -0.051,0.1842 -0.795,1.426 -1.4991,2.5491 -0.7043,0.7748 c 0,0 -0.216,0.06 -0.2952,0.1338 -0.031,0.028 -0.053,0.069 -0.061,0.1111 -0.01,0.062 0,0.1293 0.03,0.1842 0.033,0.062 0.1539,0.1439 0.1539,0.1439 l -2.3674,2.12 -1.6506,1.2544 -0.6032,0.01 c 0,0 -0.4111,0.3149 -0.6108,0.4795 -0.1528,0.126 -0.3019,0.2564 -0.4492,0.3887 -0.3526,0.3166 -0.6694,0.6739 -1.0399,0.9692 -0.2686,0.214 -0.5621,0.3954 -0.8531,0.5779 -1.6571,1.0398 -3.365,1.9978 -5.0779,2.9429 -1.5589,0.86 -3.1431,1.6736 -4.7298,2.4809 -2.9046,1.478 -5.8437,2.8871 -8.7679,4.3259 -2.1265,1.0464 -4.2702,2.0582 -6.3829,3.1321 -1,0.5084 -2.9781,1.5674 -2.9781,1.5674 0,0 -1.3091,0.1557 -1.9611,0.2524 -0.1257,0.018 -0.376,0.063 -0.376,0.063 0,0 -0.1161,0.079 -0.1464,0.1388 -0.041,0.082 -0.032,0.2726 -0.032,0.2726 l 0.01,0.4013 0.1186,0.086 0.4619,0.025 0.025,0.1489 c 0,0 -0.1093,-0.013 -0.1615,0 -0.061,0.015 -0.1181,0.048 -0.1665,0.088 -0.052,0.043 -0.1003,0.095 -0.1263,0.1565 -0.019,0.046 -0.017,0.149 -0.017,0.149 l -6.3678,0.9616 -2.6096,1.542 -1.2544,-0.2448 -3.5914,-0.071 -10.2571,8.0663 -0.6739,1.1231 0.041,0.4493 -0.1412,0.04 -0.041,0.6311 -0.8178,0.694 0,6.0573 0.8379,0 0,0.4896 -0.8379,0 0,6.0169 0.9187,0.6108 0,0.6941 0.1009,0.1337 0,0.6511 c 0,0 0.1124,0.087 0.154,0.1439 0.1071,0.1459 0.1472,0.3312 0.2347,0.4897 0.068,0.1227 0.2246,0.3558 0.2246,0.3558 l 10.1359,8.0764 3.8968,-0.02 2.3649,1.4082 1.8575,-0.6334 2.948,3.3315 2.4077,2.5087 0.8379,0.8809 0.8783,-0.159 2.062,2.2916 1.8172,1.8171 0.3483,0.3332 c 0,0 0.3105,-0.052 0.4594,-0.101 0.1007,-0.033 0.2902,-0.1312 0.2902,-0.1312 l 1.696,1.8551 1.4689,1.426 0.795,0.694 -1.3048,1.2846 0.694,0.573 c 0,0 4.4543,3.9512 6.7918,5.7922 0.6534,0.5147 1.2996,1.0491 2.019,1.4664 2.2771,1.3209 7.2006,3.2431 7.2006,3.2431 0,0 0.9672,-0.1308 1.4463,-0.222 0.4245,-0.081 0.8354,-0.2347 1.2644,-0.2878 1.7755,-0.2198 3.5875,0.076 5.3657,-0.1211 0.3446,-0.038 1.0197,-0.2044 1.0197,-0.2044 l 0.1918,-0.1388 0.2826,0.2372 0.3534,-0.2297 0.063,0.1162 -0.2096,0.3735 1.161,1.1029 0.2752,-0.01 c 0,0 0.023,-0.1256 0.073,-0.1515 0.028,-0.014 0.07,-0.01 0.093,0.015 0.061,0.055 0.063,0.2372 0.063,0.2372 l -0.1565,0.046 0.028,0.2448 4.0029,3.8212 c 0,0 0.9764,0 1.4638,0.023 1.0641,0.053 2.1228,0.3493 3.1851,0.2675 0.3996,-0.031 0.7766,-0.1992 1.1686,-0.2827 0.2585,-0.055 0.5155,-0.1379 0.7798,-0.1438 0.349,-0.01 0.6963,0.069 1.0373,0.1438 0.2944,0.064 0.574,0.1845 0.8657,0.26 0.3052,0.079 0.6092,0.1831 0.9238,0.2019 0.2024,0.013 0.4146,0.01 0.6057,-0.058 0.098,-0.035 0.2599,-0.1741 0.2599,-0.1741 l 9.6059,10.1257 0.2145,0.6966 c 0,0 2.6072,2.3438 3.9372,3.4854 1.5281,1.3116 3.0845,2.59 4.6439,3.8641 0.7258,0.593 2.1933,1.7591 2.1933,1.7591 l -0.3938,0.5679 c 0,0 -0.028,0.1 -0.01,0.1438 0.026,0.062 0.1539,0.1313 0.1539,0.1313 l 13.379,8.1799 0.3862,0.9186 c 0,0 2.0226,1.0179 3.0614,1.4664 1.2312,0.5315 2.4565,1.1063 3.753,1.4487 0.1324,0.035 0.4064,0.061 0.4064,0.061 0,0 0.1867,-0.1408 0.2246,-0.2449 0.051,-0.1401 -0.01,-0.2983 -0.02,-0.4467 -0.01,-0.089 -0.04,-0.265 -0.04,-0.265 0,0 3.3384,2.3171 5.0301,3.4426 1.8874,1.2556 3.7922,2.4857 5.7115,3.6924 0.6869,0.4319 2.0771,1.2695 2.0771,1.2695 0,0 0.1331,0.2466 0.2296,0.3458 0.14,0.1436 0.3163,0.2495 0.4922,0.3457 0.1324,0.072 0.4189,0.1717 0.4189,0.1717 l 1.204,1.3174 0.02,0.4694 c 0,0 0.7644,0.507 1.1735,0.7118 1.4154,0.7084 2.9059,1.2645 4.4042,1.7742 1.4573,0.4958 2.9559,0.8627 4.447,1.2443 0.4109,0.1051 0.8269,0.1889 1.2393,0.2877 0.3,0.072 0.5955,0.1642 0.8985,0.2221 0.2134,0.041 0.4291,0.1005 0.6461,0.088 0.082,-0.01 0.1681,-0.02 0.2398,-0.061 0.063,-0.036 0.1539,-0.154 0.1539,-0.154 0,0 0.049,-0.1547 0.061,-0.2347 0.015,-0.1025 0.025,-0.285 0.01,-0.3105 -0.015,-0.026 -0.083,-0.2081 -0.1514,-0.2953 -0.082,-0.1057 -0.1978,-0.1815 -0.3028,-0.265 -0.5184,-0.4115 -1.0773,-0.7694 -1.6128,-1.1585 -0.3978,-0.2889 -0.7808,-0.5986 -1.1887,-0.8732 -0.281,-0.1892 -0.5901,-0.3355 -0.8657,-0.5325 -0.1171,-0.084 -0.3332,-0.2751 -0.3332,-0.2751 0,0 0.1515,0.012 0.2246,0.03 0.2217,0.057 0.418,0.1945 0.6412,0.2449 0.2074,0.047 0.636,0.051 0.636,0.051 0,0 0.059,-0.062 0.063,-0.1009 0.01,-0.067 -0.071,-0.1893 -0.071,-0.1893 0,0 0.2447,0.1028 0.3734,0.1312 0.1445,0.032 0.2938,0.043 0.4418,0.043 0.1367,8e-4 0.2416,-0.013 0.3403,-0.089 0.063,-0.049 0.11,-0.094 0.114,-0.1706 0.01,-0.1299 0,-0.2638 -0.038,-0.3887 -0.044,-0.149 -0.1131,-0.2962 -0.2146,-0.4139 -0.1857,-0.2153 -0.6915,-0.4996 -0.6915,-0.4996 0,0 -2.296,-1.3772 -3.4072,-2.1227 -0.6512,-0.4368 -1.2667,-0.9244 -1.9081,-1.3755 -0.5256,-0.3696 -1.0717,-0.7102 -1.59,-1.0902 -1.396,-1.0239 -2.7221,-2.14 -4.0887,-3.2028 -0.9832,-0.7648 -1.9585,-1.5405 -2.9579,-2.2841 -0.651,-0.4845 -1.3304,-0.9303 -1.9787,-1.4184 -0.1799,-0.1355 -0.5301,-0.419 -0.5301,-0.419 0,0 -0.5719,-1.4843 -0.8833,-2.216 -0.178,-0.4181 -0.3723,-0.8291 -0.5628,-1.2417 -0.2561,-0.5546 -0.5026,-1.1139 -0.7799,-1.6582 -0.1442,-0.2831 -0.4593,-0.8354 -0.4593,-0.8354 0,0 -0.2278,-0.024 -0.3382,-0.053 -0.091,-0.024 -0.179,-0.06 -0.2651,-0.098 -0.1528,-0.068 -0.4441,-0.2347 -0.4441,-0.2347 0,0 -1.9623,-1.4317 -2.8949,-2.2084 -0.6915,-0.5759 -1.3484,-1.1927 -1.9989,-1.8146 -1.0182,-0.9735 -1.9877,-1.9968 -2.9781,-2.9984 -1.1738,-1.187 -2.3533,-2.3683 -3.5132,-3.5688 -0.9711,-1.0047 -2.8849,-3.0412 -2.8849,-3.0412 l -0.424,-0.477 -0.3078,-0.8556 c 0,0 -0.5829,-2.7473 -0.8834,-4.119 -0.174,-0.7941 -0.4433,-1.5719 -0.5326,-2.3799 -0.1724,-1.5604 -0.1418,-3.1462 0,-4.7096 0.15,-1.6523 0.4776,-3.2907 0.896,-4.8963 0.2443,-0.9376 0.4745,-1.9005 0.9389,-2.751 0.4508,-0.8257 1.091,-1.5436 1.754,-2.2109 0.3568,-0.3591 0.7775,-0.6494 1.1838,-0.9515 0.6035,-0.4487 1.86,-1.2771 1.86,-1.2771 l 0.036,0.023 0,0.9692 1.643,0 0,0.5906 3.8237,0 0,-0.5805 1.7238,0 0,0.5073 3.7934,0 0,-3.6344 0.4619,0 0,3.6773 3.821,0 0,-0.5931 1.7163,0 0,0.5527 3.811,0 0,-0.5502 1.643,0 0,-3.0614 1.1106,0 0,3.6116 3.7933,0 0,-0.4998 1.7238,0 0,0.5603 3.8237,0 0,-0.5981 1.6607,0 0,-3.0943 1.3906,0 0,3.1246 0.7295,0 0,0.4972 3.7706,0 0,-0.5628 1.7389,0 0,0.5527 3.806,0 0,-0.5401 0.4164,0 0,-3.0513 0.9591,0 0,3.0917 0.6108,0 0,0.53 3.7832,0 0,-0.5199 1.7542,0 0,0.5502 3.8362,0 0,-0.5906 0.4518,0 0,-3.0589 1.2115,0 0,3.0866 0.2902,0 0,0.5629 3.806,0 0,-0.6058 1.7162,0 0,0.5755 3.8363,0 0,-0.4619 0.8959,0 0,-3.1851 0.9364,0 0,3.1296 0.159,0 0,0.4593 3.7884,0 0,-0.5022 1.7692,0 0,0.5906 3.7832,0 0,-0.6133 0.9415,0 0,-3.0716 0.6637,0 1.0348,-3.5132 0,-2.5491 0.7244,0 0.03,-0.2271 0.8783,0.093 1.6885,0.1312 2.9857,0.2019 2.5289,0.058 0,0.5628 0.2827,0 0,3.9801 0.5956,0 0,0.4896 -0.5906,0 0,1.2292 c 0,0 -0.062,0.025 -0.088,0.046 -0.042,0.033 -0.082,0.072 -0.106,0.1185 -0.032,0.061 -0.046,0.1994 -0.046,0.1994 l 0,1.9762 c 0,0 0.062,0.4349 0.1263,0.6436 0.041,0.1314 0.091,0.2622 0.164,0.3786 0.069,0.1102 0.1623,0.204 0.2549,0.2953 0.1994,0.1967 0.4092,0.3868 0.6436,0.5401 0.2947,0.1928 0.6243,0.327 0.9464,0.4695 0.4444,0.1965 1.3579,0.53 1.3579,0.53 l 0,2.0897 0.3558,0 2.529,3.2028 4.7019,0 0,-0.3937 0.2449,0 0,0.3987 1.4991,0 0,-0.4442 0.2196,0 0,0.419 4.6893,0 2.4482,-3.175 0.4467,0 0,-2.1478 c 0,0 0.4374,-0.2129 0.6487,-0.3332 0.239,-0.1362 0.4897,-0.2605 0.6991,-0.4391 0.1777,-0.1517 0.344,-0.3257 0.4619,-0.5275 0.091,-0.1556 0.1432,-0.3333 0.1791,-0.5098 0.048,-0.2363 0.046,-0.7219 0.046,-0.7219 l 1.2165,-0.035 c 0,0 0.2613,0.2441 0.3987,0.3584 0.2072,0.1721 0.4014,0.369 0.6411,0.4921 0.2143,0.11 0.4536,0.1721 0.6916,0.2095 0.3923,0.062 0.7941,0.017 1.1912,0.02 0.01,10e-5 0.01,0 0.013,0 0.5006,0.01 1.001,0.035 1.5016,0.03 0.8655,-0.01 1.7334,-0.015 2.5946,-0.1009 0.6589,-0.066 1.3111,-0.1911 1.961,-0.318 1.2926,-0.2524 2.5768,-0.5497 3.8515,-0.8808 1.4638,-0.3804 2.9165,-0.8059 4.3562,-1.2696 2.8968,-0.933 5.7458,-2.0091 8.6088,-3.0412 2.5155,-0.9068 5.0096,-1.8722 7.5287,-2.7687 2.7016,-0.9614 5.4093,-1.9065 8.1344,-2.7989 3.9596,-1.2968 7.9749,-2.4188 11.9354,-3.7126 3.0532,-0.9975 6.091,-2.0427 9.1162,-3.1221 2.0421,-0.7286 4.0915,-1.4416 6.0977,-2.2639 1.7104,-0.7011 5.0578,-2.274 5.0578,-2.274 0,0 0.1472,-0.083 0.2045,-0.1439 0.049,-0.052 0.071,-0.1245 0.1135,-0.1817 0.032,-0.043 0.084,-0.07 0.106,-0.1186 0.023,-0.051 0.02,-0.1665 0.02,-0.1665 0,0 0.077,-0.067 0.1186,-0.098 0.049,-0.038 0.1076,-0.062 0.1514,-0.106 0.042,-0.042 0.085,-0.088 0.1035,-0.1438 0.012,-0.04 8e-4,-0.084 0,-0.1263 0,-0.1893 -0.023,-0.5678 -0.023,-0.5678 l -0.1716,-0.4821 c 0,0 -0.01,-0.2772 -0.027,-0.4139 -0.013,-0.081 -0.025,-0.1629 -0.058,-0.2373 -0.024,-0.055 -0.058,-0.107 -0.101,-0.1488 -0.046,-0.045 -0.1016,-0.081 -0.1615,-0.1035 -0.074,-0.028 -0.156,-0.028 -0.2347,-0.036 -0.1585,-0.015 -0.318,-0.013 -0.4771,-0.017 -0.7157,-0.021 -1.4317,-0.035 -2.1477,-0.046 -1.1727,-0.017 -2.3455,-0.023 -3.5183,-0.027 -0.9717,0 -1.9434,-0.01 -2.9151,0 -1.9367,0.01 -3.8732,0.067 -5.8099,0.058 -0.5554,0 -1.6657,-0.032 -1.6657,-0.032 l -0.1641,-0.308 0,-0.7697 0.041,-0.2549 -0.2852,-0.076 -0.2044,-0.056 -0.015,-0.073 0.2801,-0.041 0.6891,-0.2145 0.7647,-0.2701 7.5185,0 0.4973,0.2549 0.5703,0.366 c 0,0 0.1022,0.024 0.1515,0.013 0.054,-0.013 0.1438,-0.086 0.1438,-0.086 l 0.1086,-0.3559 0.535,-0.6258 0.03,-0.1868 -0.3357,-0.8253 0,-3.5107 1.1837,0 0.078,-0.038 0.073,-0.078 0,-1.103 0.5981,0 0,1.002 0.058,0.1085 3.1296,0 0.051,-0.058 0,-1.0272 0.5931,0 0,0.9843 3.0917,0 0,-0.8884 4.7449,0 c 0,0 0.1751,-0.03 0.2524,-0.071 0.041,-0.022 0.082,-0.049 0.106,-0.088 0.043,-0.067 0.058,-0.2297 0.058,-0.2297 l 0,-1.1534 -0.2599,-0.1362 0.1514,-0.1515 0,-1.2897 21.8844,0 0.025,-0.4366 -0.5502,-0.4342 -1.5901,-1.5849 -0.6586,-0.5099 -0.6487,-0.4467 -0.5477,-0.318 -0.3483,-0.217 -0.7193,-0.4897 -0.7798,-0.6057 -0.419,-0.3761 -0.3457,-0.1438 -0.5477,-0.2449 -0.8935,-0.2599 -2.3371,-0.4315 c 0,0 -2.1611,-0.277 -3.2457,-0.3762 -3.7231,-0.3401 -7.4577,-0.5479 -11.1908,-0.7495 -4.6697,-0.2522 -9.3459,-0.364 -14.0175,-0.5755 -5.4434,-0.2463 -10.8858,-0.5168 -16.327,-0.8076 -6.7124,-0.3587 -13.4266,-0.6949 -20.1328,-1.1559 -4.3203,-0.297 -8.6383,-0.6335 -12.95,-1.0374 -3.2054,-0.3001 -9.6033,-1.0297 -9.6033,-1.0297 l -2.5491,-0.3457 -6.0168,-0.9793 -4.4269,-0.7446 c 0,0 -0.1691,-0.166 -0.265,-0.2346 -0.1118,-0.08 -0.2347,-0.1445 -0.3584,-0.2045 -0.2605,-0.1262 -0.531,-0.2327 -0.8051,-0.3256 -0.3869,-0.131 -0.787,-0.2189 -1.1812,-0.3256 -1.9964,-0.5402 -3.9884,-1.0985 -5.9967,-1.5925 -3.5876,-0.8823 -7.1973,-1.6735 -10.8097,-2.4482 -3.0793,-0.6603 -6.173,-1.2519 -9.2601,-1.8752 -3.9157,-0.7906 -7.8311,-1.5826 -11.7485,-2.3648 -1.9959,-0.3986 -3.9864,-0.8252 -5.9892,-1.1863 -0.6811,-0.1228 -2.0494,-0.3331 -2.0494,-0.3331 l -0.5048,0.1161 -0.6334,0.26 c 0,0 -8.0569,-1.5103 -12.1146,-2.0772 -5.134,-0.7173 -10.3058,-1.1311 -15.4612,-1.6733 -4.1664,-0.4382 -12.5032,-1.2771 -12.5032,-1.2771 l -1.3477,-1.2746 -0.1414,-2.8342 -2.4683,-0.5098 -0.5603,0.8151 -0.9793,1.416 -0.9692,1.3678 -0.3861,-0.01 -0.2676,-0.1135 -1.6001,-0.3357 -0.4189,-0.2246 -3.2937,-0.2651 -0.1312,0.1035 -4.3033,-0.593 -2.0493,-1.744 -0.1994,-3.9878 -3.6571,-0.9893 -0.4744,0.535 -0.636,0.7926 -1.3276,1.7868 -1.6203,1.9055 c 0,0 -0.5788,-0.055 -0.8531,-0.1438 -0.1045,-0.034 -0.2453,-0.048 -0.2953,-0.1464 -0.021,-0.041 0.01,-0.092 0.022,-0.1363 0.02,-0.063 0.071,-0.1147 0.086,-0.1792 0.055,-0.2368 0.01,-0.7293 0.01,-0.7293 l -0.101,-0.086 -0.7572,0.02 -0.022,0.088 -0.4418,0.046 -0.5426,0.02 c 0,0 -0.3243,-0.077 -0.4821,-0.1313 -0.1118,-0.037 -0.2468,-0.048 -0.3281,-0.1337 -0.074,-0.078 -0.079,-0.2011 -0.1059,-0.3054 -0.043,-0.1654 -0.049,-0.3386 -0.088,-0.5048 -0.038,-0.1616 -0.081,-0.3233 -0.1438,-0.477 -0.039,-0.095 -0.08,-0.1922 -0.1439,-0.2725 -0.055,-0.07 -0.1303,-0.1216 -0.2019,-0.1742 -0.073,-0.054 -0.1498,-0.1051 -0.2322,-0.1439 -0.4362,-0.2053 -0.9085,-0.3242 -1.3705,-0.4618 -0.1283,-0.038 -0.2559,-0.084 -0.3887,-0.101 -0.1093,-0.014 -0.2238,-0.028 -0.3306,0 -0.096,0.025 -0.1784,0.088 -0.26,0.1438 -0.326,0.2244 -0.9085,0.7648 -0.9085,0.7648 l -0.8657,0.8228 c 0,0 -0.1642,-0.047 -0.2448,-0.03 -0.066,0.013 -0.1385,0.044 -0.1742,0.1009 -0.036,0.058 0.01,0.1386 -0.015,0.202 -0.037,0.1002 -0.1867,0.2599 -0.1867,0.2599 l -0.8077,-0.1287 -0.2145,-0.4164 -0.8984,-2.4885 -2.2236,-10.8097 -1.7541,-8.7705 -1.0802,-5.0805 c 0,0 -0.037,-0.1204 -0.081,-0.1615 -0.038,-0.036 -0.144,-0.061 -0.144,-0.061 z"
       id="path2996"
       inkscape:connector-curvature="0"
       sodipodi:nodetypes="ccccssssssssccccccccccccccccccccccsssccccsssssssscscscccccsssccccccccccccccccccccssccccccccccccsccccccsscsssccccccccssccccsssssssscccssccscccsscsscsscsscccssssssscssssssscsscscsssssscsssssscssscsscsssscccssssssscccccccccccccccccccccccccccccccccccccccccccccccccccccccccccccccccccccccccccccccccccccccccccccccssccsssssccccccccccccccccssssccsssssssssssssssscssscssssccsssssssssscccccccccccccacccccccccccccccccccccssccccccccccccccccccccssssssccccssssssssscccsscccccccccccccccccccccssssccccccssssssssssssccssscccccccscc" />
  </g>
</svg>
