<?xml version="1.0" encoding="UTF-8" standalone="no"?>
<!-- Created with Inkscape (http://www.inkscape.org/) -->

<svg
   xmlns:dc="http://purl.org/dc/elements/1.1/"
   xmlns:cc="http://creativecommons.org/ns#"
   xmlns:rdf="http://www.w3.org/1999/02/22-rdf-syntax-ns#"
   xmlns:svg="http://www.w3.org/2000/svg"
   xmlns="http://www.w3.org/2000/svg"
   xmlns:sodipodi="http://sodipodi.sourceforge.net/DTD/sodipodi-0.dtd"
   xmlns:inkscape="http://www.inkscape.org/namespaces/inkscape"
   width="40.000034"
   height="7.8130388"
   id="svg2"
   version="1.1"
   inkscape:version="0.48.5 r10040"
   sodipodi:docname="New document 1">
  <defs
     id="defs4" />
  <sodipodi:namedview
     id="base"
     pagecolor="#ffffff"
     bordercolor="#666666"
     borderopacity="1.0"
     inkscape:pageopacity="0.0"
     inkscape:pageshadow="2"
     inkscape:zoom="31.678384"
     inkscape:cx="21.091986"
     inkscape:cy="3.1345252"
     inkscape:document-units="px"
     inkscape:current-layer="g2996"
     showgrid="false"
     fit-margin-top="0"
     fit-margin-left="0"
     fit-margin-right="0"
     fit-margin-bottom="0"
     inkscape:window-width="1920"
     inkscape:window-height="1017"
     inkscape:window-x="-8"
     inkscape:window-y="-8"
     inkscape:window-maximized="1" />
  <metadata
     id="metadata7">
    <rdf:RDF>
      <cc:Work
         rdf:about="">
        <dc:format>image/svg+xml</dc:format>
        <dc:type
           rdf:resource="http://purl.org/dc/dcmitype/StillImage" />
        <dc:title></dc:title>
      </cc:Work>
    </rdf:RDF>
  </metadata>
  <g
     inkscape:label="Layer 1"
     inkscape:groupmode="layer"
     id="layer1"
     transform="translate(576.76263,-717.67905)">
    <g
       id="g2996"
       transform="translate(-34.285757,57.14286)">
      <path
         style="fill:#000000"
         d="m -525.19508,668.33431 c -0.0496,-0.01 -0.11181,-0.0294 -0.13837,-0.0436 -0.0347,-0.0186 -0.20477,-0.0247 -0.60646,-0.0217 -0.56012,0.004 -1.73697,-0.0417 -2.19778,-0.0857 -0.48851,-0.0466 -1.14194,-0.23055 -2.11723,-0.59595 -0.19198,-0.0719 -0.36815,-0.13077 -0.39149,-0.13077 -0.0233,0 -0.34753,0.0723 -0.72041,0.16074 -0.37289,0.0884 -0.69681,0.16075 -0.71983,0.16075 -0.023,0 -0.16384,-0.054 -0.31294,-0.12004 -0.26734,-0.11837 -0.27551,-0.12044 -0.59256,-0.14968 -0.49726,-0.0459 -1.2427,-0.13105 -1.46813,-0.16777 -0.17436,-0.0284 -0.66998,-0.0668 -2.06824,-0.16004 -0.20237,-0.0135 -0.3666,-0.0103 -0.60011,0.0116 -0.28928,0.0272 -0.35329,0.0412 -0.63888,0.13993 -0.27111,0.0937 -0.32154,0.1053 -0.34589,0.0796 -0.0157,-0.0166 -0.2043,-0.30017 -0.41917,-0.63023 -0.21487,-0.33006 -0.41125,-0.62028 -0.4364,-0.64492 -0.04,-0.0392 -0.43322,-0.16919 -1.39893,-0.46237 -0.12619,-0.0383 -0.1435,-0.0528 -0.42506,-0.35578 -0.16143,-0.17371 -0.30637,-0.3464 -0.32208,-0.38376 -0.0399,-0.0949 -0.0951,-0.11971 -0.20816,-0.0936 -0.21095,0.0487 -0.26147,0.0155 -0.14552,-0.0956 0.0354,-0.0339 0.0643,-0.0798 0.0643,-0.10211 0,-0.0527 -0.43431,-0.5134 -0.54007,-0.57283 -0.0448,-0.0252 -0.0815,-0.0593 -0.0815,-0.0758 0,-0.0165 -0.0276,-0.0617 -0.0613,-0.10043 -0.0798,-0.0916 -0.13157,-0.19422 -0.13157,-0.26074 0,-0.0292 0.0289,-0.23774 0.0643,-0.46335 0.0765,-0.48813 0.0772,-0.5086 0.0192,-0.57029 l -0.0451,-0.048 0.087,-0.0549 0.087,-0.0549 0.006,-0.16641 0.006,-0.1664 0.12318,-0.0643 c 0.077,-0.0402 0.1232,-0.0781 0.12324,-0.10109 4e-5,-0.0253 -0.0755,-0.0756 -0.24088,-0.16074 -0.1862,-0.0958 -0.25315,-0.14224 -0.2947,-0.20442 -0.0811,-0.12144 -0.204,-0.35517 -0.1925,-0.36619 0.006,-0.005 0.12588,0.0138 0.26734,0.0425 0.22549,0.0458 0.34702,0.0546 0.9859,0.0715 0.40078,0.0106 1.02286,0.0214 1.38239,0.024 0.61612,0.004 0.67341,0.002 0.99662,-0.0514 0.36366,-0.0595 0.82306,-0.10057 1.12693,-0.10071 0.15564,0 0.62891,-0.0779 0.97954,-0.16111 0.0269,-0.006 0.0598,-0.0354 0.073,-0.0644 0.0224,-0.0491 0.0319,-0.0519 0.13541,-0.0397 0.0994,0.0117 0.11257,0.008 0.12262,-0.03 0.0104,-0.0398 0.019,-0.0413 0.11251,-0.0199 0.0928,0.0212 0.10419,0.0193 0.13658,-0.0226 0.0327,-0.0424 0.0425,-0.0439 0.12999,-0.0202 0.0614,0.0166 0.0973,0.0181 0.10215,0.004 0.0253,-0.0723 0.0423,-0.0786 0.1221,-0.0453 0.0846,0.0353 0.1419,0.0268 0.1419,-0.0213 0,-0.0365 0.0239,-0.0373 0.13406,-0.004 0.0759,0.0227 0.0887,0.0212 0.11433,-0.0139 0.0277,-0.0379 0.0329,-0.038 0.1256,-0.003 0.0927,0.0354 0.10908,0.0351 0.39182,-0.008 0.1623,-0.0245 0.40497,-0.0539 0.53925,-0.0654 0.17019,-0.0145 0.25561,-0.0311 0.28196,-0.055 0.10465,-0.0947 0.40697,-0.12418 0.54039,-0.0527 0.0704,0.0377 0.12093,0.0429 0.42123,0.0429 0.80143,0 1.79368,0.0695 2.77675,0.19457 0.2708,0.0344 0.52238,0.0626 0.55906,0.0626 0.0457,0 0.0834,0.0186 0.11955,0.0589 0.0291,0.0324 0.33509,0.29042 0.68007,0.57332 l 0.62722,0.51439 0.23972,0.0156 c 0.65741,0.0427 2.35791,0.2277 2.4145,0.26267 0.007,0.005 0.15765,0.0339 0.33388,0.0651 0.17623,0.0312 0.34936,0.074 0.38472,0.0951 0.0528,0.0315 0.13495,0.0408 0.4608,0.0521 0.21808,0.008 0.72442,0.0328 1.12521,0.056 0.40079,0.0232 0.965,0.0425 1.2538,0.0427 0.2888,2.6e-4 0.86124,0.0104 1.27207,0.0225 0.56987,0.0168 0.7542,0.0161 0.77744,-0.003 0.0226,-0.0188 0.21225,-0.0225 0.73755,-0.0145 0.59181,0.009 0.71316,0.0161 0.74428,0.0434 0.0258,0.0226 0.10963,0.0372 0.27317,0.0474 0.23424,0.0146 0.23638,0.0143 0.28772,-0.0403 0.0418,-0.0445 0.0717,-0.0551 0.15617,-0.0551 0.085,0 0.11409,-0.0104 0.15615,-0.0558 0.0502,-0.0541 0.055,-0.055 0.16508,-0.0297 0.0624,0.0143 0.13677,0.0352 0.16536,0.0463 0.0408,0.0159 0.0653,0.0104 0.11384,-0.0255 l 0.0619,-0.0457 1.19354,0.0234 c 1.81651,0.0357 2.1107,0.034 2.2767,-0.0131 0.12691,-0.036 0.23433,-0.0391 1.28513,-0.0372 1.37568,0.003 2.36406,0.0433 3.60066,0.14863 1.27042,0.1082 2.23988,0.28765 3.49302,0.64656 0.46338,0.13272 1.2575,0.45286 1.55465,0.62674 0.0824,0.0482 0.24135,0.12163 0.35333,0.16322 0.20641,0.0767 0.6591,0.29788 0.88403,0.43201 0.10533,0.0628 0.12012,0.0792 0.10203,0.11298 -0.0326,0.0609 -0.37964,0.32654 -0.5745,0.43976 -0.14506,0.0843 -0.18641,0.0991 -0.24483,0.088 -0.32942,-0.0628 -0.43771,-0.0196 -0.61874,0.24695 -0.10578,0.15577 -0.1316,0.1692 -0.73346,0.38133 -0.52428,0.18479 -0.73494,0.25107 -1.05132,0.3308 -0.14091,0.0355 -0.23026,0.0707 -0.26791,0.10535 -0.0387,0.0356 -0.26954,0.12399 -0.73161,0.27999 -1.13252,0.38235 -1.73948,0.50488 -2.95769,0.59708 -0.51109,0.0387 -3.10291,0.0312 -4.4794,-0.013 -1.7716,-0.0568 -4.37379,-0.068 -5.90466,-0.0254 -0.70727,0.0197 -1.59458,0.0444 -1.97179,0.0549 -0.42649,0.0119 -0.71421,0.0288 -0.76086,0.0448 -0.0413,0.0141 -0.1287,0.0671 -0.19432,0.1177 -0.0656,0.0506 -0.14991,0.10481 -0.18732,0.12046 -0.0374,0.0157 -0.13475,0.0853 -0.21632,0.15474 -0.12004,0.10221 -0.15342,0.14456 -0.17517,0.22223 -0.0235,0.0839 -0.0221,0.10478 0.0109,0.16617 0.0392,0.0728 0.0304,0.16051 -0.0162,0.16036 -0.0139,0 -0.28505,0.0347 -0.60248,0.0772 -0.45768,0.0613 -0.58893,0.086 -0.63416,0.11944 -0.099,0.0732 -0.23175,0.0929 -0.40051,0.0596 z"
         id="path2998"
         inkscape:connector-curvature="0" />
    </g>
  </g>
</svg>
