<?xml version="1.0" encoding="UTF-8" standalone="no"?>
<svg
   xmlns:dc="http://purl.org/dc/elements/1.1/"
   xmlns:cc="http://creativecommons.org/ns#"
   xmlns:rdf="http://www.w3.org/1999/02/22-rdf-syntax-ns#"
   xmlns:svg="http://www.w3.org/2000/svg"
   xmlns="http://www.w3.org/2000/svg"
   version="1.1"
   id="svg2"
   viewBox="0 0 12.000021 2.3438458"
   width="36.000018">
  <defs
     id="defs4" />
  <metadata
     id="metadata7">
    <rdf:RDF>
      <cc:Work
         rdf:about="">
        <dc:format>image/svg+xml</dc:format>
        <dc:type
           rdf:resource="http://purl.org/dc/dcmitype/StillImage" />
        <dc:title></dc:title>
      </cc:Work>
    </rdf:RDF>
  </metadata>
  <g
     transform="translate(576.76202,-723.14813)"
     id="layer1">
    <g
       transform="translate(-34.285757,57.14286)"
       id="g2996">
      <path
         id="path2998"
         d="m -537.29234,668.34475 c -0.0149,-0.003 -0.0335,-0.009 -0.0415,-0.0131 -0.0104,-0.006 -0.0614,-0.007 -0.18194,-0.007 -0.16803,10e-4 -0.52109,-0.0125 -0.65933,-0.0257 -0.14655,-0.014 -0.34258,-0.0692 -0.63517,-0.17878 -0.0576,-0.0216 -0.11044,-0.0392 -0.11745,-0.0392 -0.007,0 -0.10426,0.0217 -0.21612,0.0482 -0.11187,0.0265 -0.20904,0.0482 -0.21595,0.0482 -0.007,0 -0.0491,-0.0162 -0.0939,-0.036 -0.0802,-0.0355 -0.0826,-0.0361 -0.17777,-0.0449 -0.14918,-0.0138 -0.37281,-0.0393 -0.44044,-0.0503 -0.0523,-0.009 -0.20099,-0.02 -0.62047,-0.048 -0.0607,-0.004 -0.10998,-0.003 -0.18003,0.003 -0.0868,0.008 -0.10599,0.0124 -0.19166,0.042 -0.0813,0.0281 -0.0965,0.0316 -0.10377,0.0239 -0.005,-0.005 -0.0613,-0.0901 -0.12575,-0.18907 -0.0645,-0.099 -0.12338,-0.18608 -0.13092,-0.19347 -0.012,-0.0118 -0.12997,-0.0508 -0.41968,-0.13871 -0.0379,-0.0115 -0.043,-0.0158 -0.12752,-0.10674 -0.0484,-0.0521 -0.0919,-0.10392 -0.0966,-0.11512 -0.012,-0.0285 -0.0285,-0.0359 -0.0625,-0.0281 -0.0633,0.0146 -0.0784,0.005 -0.0437,-0.0287 0.0106,-0.0102 0.0193,-0.0239 0.0193,-0.0306 0,-0.0158 -0.13029,-0.15402 -0.16202,-0.17185 -0.0134,-0.008 -0.0245,-0.0178 -0.0245,-0.0227 0,-0.005 -0.008,-0.0185 -0.0184,-0.0301 -0.0239,-0.0275 -0.0395,-0.0583 -0.0395,-0.0782 0,-0.009 0.009,-0.0713 0.0193,-0.139 0.023,-0.14644 0.0232,-0.15258 0.006,-0.17109 l -0.0135,-0.0144 0.0261,-0.0165 0.0261,-0.0165 0.002,-0.0499 0.002,-0.0499 0.037,-0.0193 c 0.0231,-0.0121 0.037,-0.0234 0.037,-0.0303 10e-6,-0.008 -0.0226,-0.0227 -0.0723,-0.0482 -0.0559,-0.0287 -0.0759,-0.0427 -0.0884,-0.0613 -0.0243,-0.0364 -0.0612,-0.10655 -0.0577,-0.10985 0.002,-10e-4 0.0378,0.004 0.0802,0.0127 0.0676,0.0137 0.1041,0.0164 0.29576,0.0215 0.12024,0.003 0.30686,0.006 0.41472,0.007 0.18484,0.001 0.20202,6e-4 0.29899,-0.0154 0.1091,-0.0178 0.24692,-0.0302 0.33808,-0.0302 0.0467,0 0.18867,-0.0234 0.29386,-0.0483 0.008,-0.002 0.0179,-0.0106 0.0219,-0.0193 0.007,-0.0147 0.01,-0.0156 0.0406,-0.0119 0.0298,0.004 0.0338,0.002 0.0368,-0.009 0.003,-0.0119 0.006,-0.0124 0.0337,-0.006 0.0278,0.006 0.0313,0.006 0.041,-0.007 0.01,-0.0127 0.0127,-0.0132 0.039,-0.006 0.0184,0.005 0.0292,0.005 0.0307,0.001 0.008,-0.0217 0.0127,-0.0236 0.0366,-0.0136 0.0254,0.0106 0.0426,0.008 0.0426,-0.006 0,-0.0109 0.007,-0.0112 0.0402,-10e-4 0.0228,0.007 0.0266,0.006 0.0343,-0.004 0.008,-0.0114 0.01,-0.0114 0.0377,-9e-4 0.0278,0.0106 0.0327,0.0105 0.11755,-0.002 0.0487,-0.007 0.12149,-0.0162 0.16177,-0.0196 0.0511,-0.004 0.0767,-0.009 0.0846,-0.0165 0.0314,-0.0284 0.12209,-0.0372 0.16212,-0.0158 0.0211,0.0113 0.0363,0.0129 0.12637,0.0129 0.24043,0 0.5381,0.0208 0.83302,0.0584 0.0812,0.0103 0.15671,0.0188 0.16772,0.0188 0.0137,0 0.025,0.006 0.0359,0.0177 0.009,0.01 0.10053,0.0871 0.20402,0.172 l 0.18817,0.15431 0.0719,0.005 c 0.19722,0.0128 0.70737,0.0683 0.72435,0.0788 0.002,10e-4 0.0473,0.0102 0.10016,0.0195 0.0529,0.009 0.10481,0.0222 0.11542,0.0285 0.0158,0.009 0.0405,0.0122 0.13824,0.0156 0.0654,0.002 0.21732,0.01 0.33756,0.0168 0.12024,0.007 0.2895,0.0128 0.37614,0.0128 0.0866,8e-5 0.25837,0.003 0.38162,0.007 0.17096,0.005 0.22626,0.005 0.23323,-9e-4 0.007,-0.006 0.0637,-0.007 0.22127,-0.004 0.17754,0.003 0.21394,0.005 0.22328,0.013 0.008,0.007 0.0329,0.0112 0.082,0.0142 0.0703,0.004 0.0709,0.004 0.0863,-0.0121 0.0125,-0.0134 0.0215,-0.0165 0.0468,-0.0165 0.0255,0 0.0342,-0.003 0.0468,-0.0167 0.0151,-0.0162 0.0165,-0.0165 0.0495,-0.009 0.0187,0.004 0.041,0.0106 0.0496,0.0139 0.0122,0.005 0.0196,0.003 0.0342,-0.008 l 0.0186,-0.0137 0.35806,0.007 c 0.54495,0.0107 0.63321,0.0102 0.68301,-0.004 0.0381,-0.0108 0.0703,-0.0117 0.38554,-0.0112 0.4127,9e-4 0.70921,0.013 1.08019,0.0446 0.38113,0.0325 0.67197,0.0863 1.04791,0.19397 0.13901,0.0398 0.37725,0.13586 0.46639,0.18802 0.0247,0.0145 0.0724,0.0365 0.106,0.049 0.0619,0.023 0.19773,0.0894 0.26521,0.1296 0.0316,0.0188 0.036,0.0238 0.0306,0.0339 -0.01,0.0183 -0.11389,0.098 -0.17235,0.13192 -0.0435,0.0253 -0.0559,0.0297 -0.0734,0.0264 -0.0988,-0.0188 -0.13131,-0.006 -0.18562,0.0741 -0.0317,0.0467 -0.0395,0.0508 -0.22004,0.1144 -0.15728,0.0554 -0.22048,0.0753 -0.3154,0.0992 -0.0423,0.0106 -0.0691,0.0212 -0.0804,0.0316 -0.0116,0.0107 -0.0809,0.0372 -0.21948,0.084 -0.33976,0.1147 -0.52184,0.15146 -0.88731,0.17912 -0.15332,0.0116 -0.93087,0.009 -1.34382,-0.004 -0.53148,-0.017 -1.31213,-0.0204 -1.77139,-0.008 -0.21218,0.006 -0.47838,0.0133 -0.59154,0.0165 -0.12795,0.004 -0.21426,0.009 -0.22826,0.0134 -0.0124,0.004 -0.0386,0.0201 -0.0583,0.0353 -0.0197,0.0152 -0.045,0.0315 -0.0562,0.0361 -0.0112,0.005 -0.0404,0.0256 -0.0649,0.0464 -0.036,0.0307 -0.046,0.0434 -0.0526,0.0667 -0.007,0.0252 -0.007,0.0314 0.003,0.0499 0.0118,0.0218 0.009,0.0482 -0.005,0.0481 -0.004,0 -0.0855,0.0104 -0.18074,0.0232 -0.1373,0.0184 -0.17668,0.0258 -0.19025,0.0358 -0.0297,0.022 -0.0695,0.0279 -0.12015,0.0179 z"
         style="fill:#000000" />
    </g>
  </g>
</svg>
