<?xml version="1.0" encoding="UTF-8" standalone="no"?>
<!-- Created with Inkscape (http://www.inkscape.org/) -->

<svg
   xmlns:dc="http://purl.org/dc/elements/1.1/"
   xmlns:cc="http://creativecommons.org/ns#"
   xmlns:rdf="http://www.w3.org/1999/02/22-rdf-syntax-ns#"
   xmlns:svg="http://www.w3.org/2000/svg"
   xmlns="http://www.w3.org/2000/svg"
   xmlns:sodipodi="http://sodipodi.sourceforge.net/DTD/sodipodi-0.dtd"
   xmlns:inkscape="http://www.inkscape.org/namespaces/inkscape"
   width="61.398346"
   height="19.054424"
   id="svg3894"
   version="1.1"
   inkscape:version="0.48.5 r10040"
   sodipodi:docname="Mustang.svg">
  <defs
     id="defs3896" />
  <sodipodi:namedview
     id="base"
     pagecolor="#ffffff"
     bordercolor="#666666"
     borderopacity="1.0"
     inkscape:pageopacity="0.0"
     inkscape:pageshadow="2"
     inkscape:zoom="15.839192"
     inkscape:cx="38.002002"
     inkscape:cy="11.827437"
     inkscape:document-units="px"
     inkscape:current-layer="layer1"
     showgrid="false"
     fit-margin-top="0"
     fit-margin-left="0"
     fit-margin-right="0"
     fit-margin-bottom="0"
     inkscape:window-width="1920"
     inkscape:window-height="1018"
     inkscape:window-x="-8"
     inkscape:window-y="-8"
     inkscape:window-maximized="1"
     showguides="true"
     inkscape:guide-bbox="true" />
  <metadata
     id="metadata3899">
    <rdf:RDF>
      <cc:Work
         rdf:about="">
        <dc:format>image/svg+xml</dc:format>
        <dc:type
           rdf:resource="http://purl.org/dc/dcmitype/StillImage" />
        <dc:title />
      </cc:Work>
    </rdf:RDF>
  </metadata>
  <g
     inkscape:label="Layer 1"
     inkscape:groupmode="layer"
     id="layer1"
     transform="translate(561.33702,-834.36879)">
    <g
       id="g3913">
      <path
         style="fill:#000000"
         d="m -549.41014,853.37094 c -0.46892,-0.0773 -0.48924,-0.0828 -0.48924,-0.13367 0,-0.0353 0.0408,-0.0492 0.14642,-0.0492 0.12341,0 0.15244,-0.0132 0.18483,-0.0843 0.0953,-0.20925 0.35065,-0.55135 0.43682,-0.58534 0.0507,-0.0201 0.54249,-0.18119 1.0927,-0.35816 0.88154,-0.28353 1.02915,-0.32176 1.24221,-0.32176 0.21427,0 0.23986,-0.007 0.22481,-0.059 -0.009,-0.0325 -0.21607,-1.03834 -0.45937,-2.23525 -0.24331,-1.19693 -0.44947,-2.19899 -0.45814,-2.22682 -0.009,-0.0278 -0.0649,-0.0747 -0.12491,-0.10406 -0.14407,-0.0705 -0.16613,-0.20895 -0.0481,-0.30178 0.0817,-0.0643 0.0822,-0.0676 0.0373,-0.27667 -0.025,-0.11638 -0.046,-0.24803 -0.0466,-0.29257 l -8.5e-4,-0.0809 0.5969,0.0239 c 0.32829,0.0131 0.609,0.0314 0.62381,0.0406 0.0148,0.009 1.03174,1.295 2.25988,2.85744 1.22816,1.56245 2.23844,2.8476 2.2451,2.85589 0.0207,0.0256 1.7685,0.0962 2.0007,0.0807 0.12061,-0.008 2.13235,-0.14413 4.4705,-0.30244 2.33817,-0.15831 4.54727,-0.29804 4.90913,-0.31052 l 0.65793,-0.0226 0.01,-0.21087 0.01,-0.21088 0.72379,0 0.7238,0 -0.002,-0.10965 c -8.5e-4,-0.0603 -0.0353,-0.5082 -0.076,-0.99533 l -0.074,-0.88568 -0.70849,-0.46476 c -0.38967,-0.25563 -0.90048,-0.59033 -1.13513,-0.74378 l -0.42664,-0.27901 -1.41218,-0.0825 c -1.78606,-0.10437 -1.68629,-0.10444 -1.7128,8.5e-4 -0.02,0.0795 -0.0341,0.0843 -0.24983,0.0843 -1.02416,0 -3.41823,-0.24495 -3.50423,-0.35853 -0.0281,-0.0371 -0.12112,-0.0572 -0.32053,-0.069 -0.15447,-0.009 -0.33399,-0.0362 -0.39894,-0.0601 -0.0649,-0.0239 -1.14294,-0.27472 -2.39552,-0.55725 -1.25259,-0.28252 -2.35335,-0.53594 -2.44613,-0.56315 -0.163,-0.0478 -0.42339,-0.22347 -0.38626,-0.26059 0.01,-0.01 0.92846,-0.05 2.04102,-0.0891 1.77014,-0.062 2.11497,-0.083 2.76006,-0.16772 0.40546,-0.0533 0.74326,-0.10295 0.7507,-0.11037 0.008,-0.008 -0.49132,-0.25728 -1.10832,-0.55522 l -1.12185,-0.54171 -1.07043,-0.0199 c -1.00601,-0.0188 -1.07707,-0.0162 -1.18089,0.0433 -0.081,0.0464 -0.20941,0.0688 -0.48158,0.0841 -0.40508,0.0226 -0.59151,-0.006 -0.70336,-0.10817 -0.0671,-0.0613 -0.13873,-0.0677 -0.93303,-0.0841 l -0.86035,-0.0178 -1.11342,-0.33615 c -0.99838,-0.30142 -1.15806,-0.34044 -1.54554,-0.37763 -0.23766,-0.0228 -0.48819,-0.0414 -0.55669,-0.0414 -0.0685,1.1e-4 -0.2005,-0.0136 -0.29329,-0.0305 -0.0927,-0.0169 -0.40404,-0.0381 -0.69166,-0.0472 -0.72173,-0.0227 -0.8435,-0.0761 -0.8435,-0.36902 0,-0.15308 0.0132,-0.18539 0.11519,-0.28156 0.084,-0.0792 0.14678,-0.10864 0.23196,-0.10864 0.27791,0 0.32865,-0.0305 0.71153,-0.42749 0.3093,-0.3207 0.385,-0.38226 0.47012,-0.38226 0.0849,0 0.26595,-0.10741 0.49278,-0.29221 0.033,-0.0269 -0.0565,-0.0465 -0.87442,-0.19147 -1.04365,-0.18504 -1.66589,-0.22759 -3.39084,-0.23191 -3.05329,-0.008 -5.38122,-0.054 -5.40143,-0.10749 -0.022,-0.0585 -0.17447,-1.31777 -0.16132,-1.33305 0.007,-0.008 0.47882,-0.0813 1.04966,-0.16411 0.57085,-0.0827 1.04219,-0.15429 1.04742,-0.15895 0.005,-0.004 -0.009,-0.0787 -0.0323,-0.16462 -0.0362,-0.13561 -0.0553,-0.15831 -0.14448,-0.17267 -0.0937,-0.0151 -4.67866,-0.38879 -4.76996,-0.38879 -0.028,0 -0.0394,-0.12244 -0.0394,-0.42175 l 0,-0.42175 0.12652,-5.7e-4 c 0.0696,-3.4e-4 1.15137,-0.0305 2.40395,-0.0669 1.25259,-0.0365 2.74357,-0.0666 3.31329,-0.0669 l 1.03585,-5.7e-4 6.9942,-0.57275 c 3.8468,-0.31502 7.04353,-0.57976 7.10383,-0.58833 0.08,-0.0113 0.10967,-0.003 0.10967,0.0329 0,0.0668 0.0243,0.066 1.59051,-0.059 l 1.37122,-0.10942 0.11249,-0.16486 c 0.0619,-0.0906 0.15579,-0.20127 0.20871,-0.24581 l 0.0962,-0.0809 1.39569,0 c 1.38271,0 1.39616,6.7e-4 1.44567,0.0714 0.0275,0.0392 0.0433,0.0888 0.0351,0.11004 -0.011,0.0288 0.0919,0.0316 0.39898,0.0111 0.57723,-0.0384 1.17201,-0.009 2.5057,0.12745 0.0927,0.01 0.68453,0.064 1.31497,0.12137 1.05807,0.0962 1.25031,0.12641 1.30168,0.20452 0.0103,0.0156 0.48096,-0.10529 1.04594,-0.26873 l 1.02722,-0.29716 1.36647,0.045 c 0.75155,0.0247 1.4598,0.036 1.57389,0.0251 0.1141,-0.0109 0.21514,-0.008 0.22453,0.008 0.0199,0.0321 0.76578,0.0595 0.76578,0.0281 0,-0.0115 -0.0911,-0.33818 -0.20244,-0.72589 -0.11133,-0.38772 -0.20243,-0.73658 -0.20243,-0.77527 0,-0.0926 0.0639,-0.1133 0.24181,-0.0783 0.14448,0.0285 0.15276,0.0381 0.70693,0.82072 l 0.56073,0.79188 0.38398,0.0255 c 0.52314,0.0348 0.57923,0.0277 0.60343,-0.0762 0.0195,-0.0834 0.0241,-0.0844 0.41766,-0.0939 0.35754,-0.009 0.43628,8.5e-4 0.77454,0.0943 0.46001,0.12689 0.52838,0.1543 0.52838,0.2118 0,0.0317 0.45973,0.1524 1.54369,0.40561 0.84902,0.19832 1.55502,0.36059 1.56888,0.36059 0.0418,0 0.0315,0.0606 -0.11171,0.6608 l -0.13754,0.57645 -0.83278,0.043 c -0.45803,0.0236 -0.83868,0.0485 -0.8459,0.0553 -0.007,0.007 0.0477,0.18351 0.12196,0.39279 l 0.13507,0.38052 0.40101,0.0217 c 0.46545,0.0252 0.35291,-0.0106 1.9193,0.61239 l 1.21462,0.48311 -0.01,0.10069 -0.01,0.10069 1.12307,0.36257 c 0.61769,0.19939 2.02474,0.65526 3.1268,1.01301 l 2.00375,0.65047 0.0781,-0.0782 c 0.043,-0.043 0.0978,-0.078 0.12184,-0.0779 0.024,1e-4 0.69658,0.0673 1.49452,0.1493 0.79795,0.082 1.82279,0.1822 2.27743,0.22261 0.67728,0.0602 0.84314,0.085 0.91804,0.13749 0.06,0.0419 0.14907,0.064 0.25873,0.064 0.22904,0 0.27404,0.0229 0.27404,0.13965 0,0.0697 -0.021,0.10647 -0.0714,0.12511 -0.0634,0.0234 -0.0263,0.0668 0.33512,0.39041 0.22359,0.20021 0.41383,0.38306 0.42277,0.40635 0.0201,0.0523 -0.3468,0.0851 -0.95642,0.0855 -0.33363,2.1e-4 -0.44642,0.0125 -0.53983,0.0593 -0.0649,0.0324 -0.11809,0.0742 -0.11809,0.0927 0,0.0331 0.15289,0.0661 0.45548,0.0983 0.26531,0.0282 0.38363,0.27339 0.25346,0.52511 -0.0439,0.085 -0.0744,0.0997 -0.24461,0.11803 -0.22461,0.0242 -0.27155,0.0444 -0.33905,0.14611 -0.0485,0.0729 -0.0467,0.074 0.11991,0.074 0.20853,0 0.30608,0.0714 0.33373,0.24407 0.0306,0.19075 -0.0383,0.32293 -0.18649,0.35831 -0.19487,0.0465 -0.61147,0.11298 -0.82261,0.13123 -0.13434,0.0116 -0.19401,0.0311 -0.19401,0.0634 0,0.0274 0.0353,0.0466 0.086,0.0466 0.12032,0 0.2944,0.0958 0.27342,0.15056 -0.01,0.0246 0.0123,0.13946 0.0484,0.2552 0.0485,0.1557 0.0558,0.22209 0.0284,0.25519 -0.0273,0.0329 -0.0233,0.0917 0.0149,0.22233 0.045,0.15335 0.0456,0.18475 0.004,0.23038 -0.0414,0.0457 -0.0389,0.0816 0.0191,0.26746 0.0367,0.11807 0.0609,0.22061 0.0535,0.22789 -0.008,0.008 -0.35009,0.0646 -0.76179,0.12751 -0.41171,0.0629 -0.77031,0.13233 -0.7969,0.15438 -0.0266,0.022 -0.0626,0.0953 -0.08,0.16272 -0.11368,0.43945 -0.10143,0.41423 -0.19557,0.40301 -0.0875,-0.0104 -0.0881,-0.0125 -0.0801,-0.27664 l 0.008,-0.26613 -0.16261,0.0214 c -0.81764,0.10718 -1.68987,0.19438 -2.42316,0.24227 -0.48248,0.0315 -0.89622,0.0626 -0.9194,0.0691 -0.0232,0.007 -0.0422,0.0626 -0.0422,0.12469 0,0.079 -0.0278,0.13944 -0.0927,0.2017 -0.18639,0.17853 -0.27535,0.19368 -1.13763,0.19368 -0.43668,0 -0.79397,0.007 -0.79397,0.0153 0,0.009 0.0177,0.054 0.0391,0.10123 0.0367,0.0807 0.0541,0.0859 0.2868,0.0859 0.22514,0 0.24763,0.006 0.24763,0.0674 0,0.0535 0.0227,0.0676 0.10965,0.0682 0.20742,0.002 0.95327,0.12834 1.05437,0.17935 0.0725,0.0365 0.23399,0.0537 0.56914,0.0605 l 0.46789,0.009 0.11902,-0.12987 0.11902,-0.12987 0.25656,0.0593 c 0.22178,0.0512 0.59497,0.0649 2.75196,0.10188 l 2.4954,0.0426 0.12768,-0.0845 0.12767,-0.0845 0.76777,0.0414 c 0.42227,0.0227 0.78077,0.0494 0.79668,0.0592 0.0159,0.01 0.009,0.0309 -0.0169,0.0468 -0.0333,0.0211 -0.0245,0.0292 0.0319,0.0295 0.0566,3.7e-4 0.0911,0.0325 0.12698,0.1186 0.0271,0.0649 0.062,0.11809 0.0775,0.11809 0.0155,0 0.0294,0.0456 0.0311,0.10121 0.002,0.0557 -0.0109,0.10123 -0.0277,0.10123 -0.0168,0 -0.0541,0.0456 -0.083,0.10122 -0.0288,0.0557 -0.0747,0.10121 -0.10208,0.10121 -0.0274,0 -0.0497,0.0207 -0.0497,0.0458 0,0.0481 -0.15246,0.0633 -1.10419,0.11069 -0.43575,0.0217 -0.44927,0.0203 -0.57357,-0.0611 l -0.12732,-0.0833 -2.47987,0.0409 c -2.15275,0.0354 -2.51455,0.0488 -2.74285,0.10068 l -0.263,0.0598 -0.14717,-0.14444 c -0.0809,-0.0794 -0.16104,-0.13585 -0.17799,-0.12538 -0.017,0.0105 -0.2402,0.0281 -0.49612,0.039 -0.34193,0.0147 -0.47836,0.033 -0.51457,0.0692 -0.0271,0.0271 -0.052,0.0494 -0.0553,0.0495 -0.003,1.4e-4 -0.23163,0.0306 -0.50735,0.0674 -0.27575,0.037 -0.51486,0.0672 -0.5314,0.0672 -0.0166,0 -0.0301,0.0304 -0.0301,0.0674 0,0.0655 -0.0225,0.0674 -0.7569,0.0674 l -0.75691,0 -0.0106,0.0927 -0.0106,0.0927 -0.65792,0.01 c -0.4786,0.008 -0.7407,-0.004 -0.96159,-0.042 -0.16701,-0.0286 -0.4403,-0.0681 -0.60731,-0.0878 -0.18344,-0.0217 -0.34784,-0.0619 -0.41524,-0.10143 -0.0614,-0.0361 -0.14488,-0.0667 -0.18557,-0.0679 -0.0407,-8.5e-4 -0.17268,-0.0505 -0.29329,-0.10965 l -0.21931,-0.10741 -0.01,-0.36271 c -0.006,-0.23525 0.003,-0.3627 0.0256,-0.3627 0.0237,0 0.0231,-0.0194 -0.002,-0.0593 -0.029,-0.0465 -0.0115,-0.12705 0.0813,-0.37375 0.10022,-0.26629 0.11547,-0.34253 0.0995,-0.49746 l -0.019,-0.18295 -0.1404,0 c -0.12266,0 -0.1707,-0.0256 -0.38049,-0.2036 l -0.24009,-0.20362 -1.66869,0.004 -1.66867,0.004 -0.0419,0.0782 c -0.0562,0.10506 -0.14887,0.11879 -0.80165,0.11879 l -0.55668,0 -0.26573,-0.13301 c -0.14615,-0.0732 -0.26572,-0.11826 -0.26572,-0.10026 0,0.018 0.047,0.12581 0.10438,0.23954 0.0671,0.13292 0.11352,0.19199 0.12998,0.16536 0.02,-0.0323 0.0723,-0.033 0.2358,-0.003 0.11559,0.0209 0.25067,0.0556 0.30019,0.077 0.0495,0.0214 0.37892,0.32033 0.73203,0.66438 0.35312,0.34403 1.07801,1.04257 1.61089,1.55231 0.70333,0.67278 0.98047,0.95944 1.01122,1.04593 0.0297,0.0835 0.0424,0.37169 0.0424,0.96264 l 0,0.8435 -0.12453,0.0103 c -0.11278,0.009 -0.12551,0.0205 -0.13496,0.11808 l -0.0104,0.10774 -2.73163,0.008 -2.73161,0.008 -0.49355,-0.11767 c -0.55117,-0.13142 -0.987,-0.16 -1.02267,-0.067 -0.0129,0.0336 -0.0657,0.0505 -0.15649,0.0505 -0.0908,0 -0.14364,-0.0172 -0.15649,-0.0505 -0.0161,-0.0419 -0.10785,-0.0505 -0.53517,-0.0505 -0.42732,0 -0.51907,0.009 -0.53517,0.0505 -0.0129,0.0336 -0.0657,0.0505 -0.1565,0.0505 -0.0908,0 -0.14364,-0.0172 -0.15648,-0.0505 -0.0161,-0.0419 -0.10786,-0.0505 -0.53517,-0.0505 -0.42733,0 -0.51909,0.009 -0.53518,0.0505 -0.0133,0.0347 -0.0675,0.0505 -0.17231,0.0505 -0.11339,0 -0.15288,-0.013 -0.15288,-0.0505 0,-0.0429 -0.0824,-0.0505 -0.53983,-0.0505 -0.45736,0 -0.53984,0.008 -0.53984,0.0505 0,0.0375 -0.0395,0.0505 -0.15288,0.0505 -0.10478,0 -0.15901,-0.016 -0.17231,-0.0505 -0.0161,-0.0419 -0.10786,-0.0505 -0.53517,-0.0505 -0.42732,0 -0.51908,0.009 -0.53517,0.0505 -0.0129,0.0336 -0.0657,0.0505 -0.1565,0.0505 -0.0907,0 -0.14364,-0.0172 -0.1565,-0.0505 -0.0161,-0.0419 -0.10785,-0.0505 -0.53516,-0.0505 -0.42731,0 -0.51907,0.009 -0.53516,0.0505 -0.0129,0.0336 -0.0657,0.0505 -0.1565,0.0505 -0.0908,0 -0.14365,-0.0172 -0.1565,-0.0505 -0.0161,-0.0419 -0.10785,-0.0505 -0.53516,-0.0505 -0.42732,0 -0.51908,0.009 -0.53517,0.0505 -0.0133,0.0347 -0.0675,0.0505 -0.17231,0.0505 -0.11341,0 -0.15289,-0.013 -0.15289,-0.0505 0,-0.043 -0.0858,-0.0505 -0.56997,-0.0505 -0.4755,0 -0.57318,0.009 -0.58938,0.0505 -0.0133,0.0347 -0.0675,0.0505 -0.17231,0.0505 -0.1134,0 -0.15288,-0.013 -0.15288,-0.0505 0,-0.0431 -0.0881,-0.0505 -0.59045,-0.0505 -0.50234,0 -0.59045,0.008 -0.59045,0.0505 0,0.0375 -0.0394,0.0505 -0.15182,0.0505 -0.11247,0 -0.15184,-0.0131 -0.15184,-0.0505 0,-0.0431 -0.0881,-0.0505 -0.59044,-0.0505 -0.50235,0 -0.59044,0.008 -0.59044,0.0505 0,0.0375 -0.0394,0.0505 -0.15183,0.0505 -0.11246,0 -0.15182,-0.0131 -0.15182,-0.0505 0,-0.0431 -0.0881,-0.0505 -0.59045,-0.0505 -0.50235,0 -0.59044,0.008 -0.59044,0.0505 0,0.0375 -0.0395,0.0505 -0.15289,0.0505 -0.10478,0 -0.159,-0.016 -0.17231,-0.0505 -0.0162,-0.0422 -0.11387,-0.0505 -0.58939,-0.0505 -0.48414,0 -0.56996,0.008 -0.56996,0.0505 0,0.0375 -0.0395,0.0505 -0.15289,0.0505 -0.10478,0 -0.159,-0.016 -0.17231,-0.0505 -0.0162,-0.0421 -0.112,-0.0505 -0.57251,-0.0505 -0.46915,0 -0.5531,0.008 -0.5531,0.0505 0,0.0375 -0.0395,0.0505 -0.15288,0.0505 -0.10478,0 -0.159,-0.016 -0.17231,-0.0505 -0.0162,-0.0421 -0.11201,-0.0505 -0.57252,-0.0505 -0.46915,0 -0.55309,0.008 -0.55309,0.0505 0,0.0375 -0.0395,0.0505 -0.15289,0.0505 -0.10478,0 -0.159,-0.016 -0.17231,-0.0505 -0.0158,-0.0412 -0.0968,-0.0505 -0.43575,-0.0505 -0.41483,0 -0.41706,4.4e-4 -0.61754,0.11793 l -0.20121,0.11792 -2.55881,-0.004 c -1.94176,-0.003 -2.62391,-0.015 -2.82874,-0.0488 z"
         id="path3915"
         inkscape:connector-curvature="0" />
    </g>
  </g>
</svg>
