<?xml version="1.0" encoding="UTF-8" standalone="no"?>
<svg
   xmlns:dc="http://purl.org/dc/elements/1.1/"
   xmlns:cc="http://creativecommons.org/ns#"
   xmlns:rdf="http://www.w3.org/1999/02/22-rdf-syntax-ns#"
   xmlns:svg="http://www.w3.org/2000/svg"
   xmlns="http://www.w3.org/2000/svg"
   version="1.1"
   id="svg2"
   viewBox="0 0 15.999999 5.1304719"
   width="47.999997">
  <defs
     id="defs4" />
  <metadata
     id="metadata7">
    <rdf:RDF>
      <cc:Work
         rdf:about="">
        <dc:format>image/svg+xml</dc:format>
        <dc:type
           rdf:resource="http://purl.org/dc/dcmitype/StillImage" />
        <dc:title></dc:title>
      </cc:Work>
    </rdf:RDF>
  </metadata>
  <g
     transform="translate(644.71635,-914.55725)"
     id="layer1">
    <g
       transform="matrix(0.00684614,0,0,0.00684614,-637.01119,949.44999)"
       id="g4147">
      <path
         id="path4149"
         d="m -748.39277,-4348.7979 c -2.40625,-0.8272 -8.03125,-1.8983 -12.5,-2.3802 -4.46875,-0.482 -13.11404,-1.7743 -19.21175,-2.872 -9.90564,-1.783 -11.63736,-2.5159 -16.25521,-6.8793 -2.84266,-2.6859 -7.78894,-6.3991 -10.99173,-8.2513 -12.20545,-7.0588 -24.38677,-16.3997 -27.78908,-21.3092 -1.9455,-2.8074 -5.56577,-6.6515 -8.04504,-8.5425 -2.47929,-1.8911 -9.02453,-8.1894 -14.54499,-13.9964 -5.52046,-5.807 -17.09555,-17.637 -25.72242,-26.2889 -8.62688,-8.6519 -16.86423,-17.4216 -18.30524,-19.488 -1.441,-2.0665 -8.36235,-9.6602 -15.38078,-16.875 -7.01842,-7.2148 -14.97207,-16.3495 -17.67477,-20.2993 -2.7027,-3.9498 -6.57308,-8.4081 -8.60085,-9.9073 -2.02776,-1.4992 -5.0423,-4.7363 -6.69896,-7.1935 -1.65668,-2.4572 -5.09017,-6.7015 -7.62999,-9.4317 -2.53983,-2.7302 -5.94669,-7.2302 -7.5708,-10 -4.56591,-7.7868 -12.22319,-14.6972 -15.73808,-14.203 -2.69568,0.3791 -2.96531,-0.038 -2.96531,-4.583 0,-3.706 -1.01379,-6.294 -3.91729,-10 -2.98602,-3.8113 -4.10942,-6.7634 -4.72547,-12.4177 -0.4445,-4.0797 -1.3974,-8.1276 -2.11756,-8.9954 -0.72017,-0.8677 -3.65135,-1.7485 -6.51371,-1.9573 -6.4766,-0.4724 -7.4162,-3.291 -2.1367,-6.4097 2.2057,-1.3029 3.78573,-3.279 3.78573,-4.7347 0,-2.5607 -37.67483,-48.2761 -40.76113,-49.4604 -0.9304,-0.357 -11.0731,1.0986 -22.5395,3.2346 -11.4663,2.1361 -21.0636,3.6681 -21.3272,3.4044 -0.2637,-0.2636 5.7323,-5.9411 13.3242,-12.6167 7.592,-6.6755 13.8036,-12.9285 13.8036,-13.8954 0,-1.411 -10.0727,-14.2526 -22.1352,-28.2198 -1.5593,-1.8054 -1.4695,-2.7578 0.7073,-7.5 1.3714,-2.9875 4.7849,-7.6554 7.5857,-10.3731 2.8007,-2.7176 5.0922,-5.6123 5.0922,-6.4325 0,-1.6504 64.9764,-61.5359 69.21512,-63.7922 1.46295,-0.7787 4.34741,-2.1346 6.40991,-3.013 2.0625,-0.8785 6.5625,-4.6119 10,-8.2965 6.19473,-6.6401 6.28681,-6.6853 10.4135,-5.1123 3.6458,1.3897 4.35991,1.3184 5.74301,-0.5731 1.38962,-1.9004 4.5709,-2.2009 26.46149,-2.4996 24.45176,-0.3337 24.90334,-0.3882 26.11591,-3.1521 0.96509,-2.1998 2.25864,-2.8125 5.9375,-2.8125 3.29743,0 4.70359,0.5474 4.70359,1.831 0,3.9486 4.50909,4.2625 50.50989,3.5164 42.83101,-0.6947 46.06565,-0.9026 47.40454,-3.0465 1.9542,-3.1292 8.41946,-3.0139 11.17053,0.1991 2.01229,2.3502 3.68743,2.5 27.9525,2.5 21.05378,0 26.06777,0.3335 27.19974,1.8091 1.1226,1.4635 3.39026,1.6311 11.86666,0.8775 9.32953,-0.8295 10.77425,-1.3021 13.17197,-4.3091 2.24152,-2.8112 3.68077,-3.3775 8.58362,-3.3775 5.37969,0 5.89055,0.2594 5.89055,2.9913 0,1.6452 0.88975,3.3327 1.97724,3.75 3.38689,1.2996 127.58454,0.8634 131.06639,-0.4604 1.98472,-0.7546 3.20637,-2.1833 3.20637,-3.75 0,-2.2038 0.80786,-2.5309 6.25,-2.5309 5.75178,0 6.25,0.2375 6.25,2.9792 0,1.8142 0.8554,3.174 2.1875,3.4774 1.20313,0.274 14.73496,0.2841 30.07076,0.022 27.68665,-0.4725 27.88057,-0.4948 27.5,-3.1614 -0.32103,-2.2496 -2.51421,-3.3167 -13.50826,-6.5725 l -13.125,-3.8869 -113.75,-1.4267 c -135.67479,-1.7017 -205.58191,-3.5165 -212.5,-5.5164 -3.55031,-1.0264 -39.43816,-1.6404 -123.77771,-2.1178 l -118.77772,-0.6723 -8.4036,-4.1378 c -4.9095,-2.4173 -9.7498,-5.9027 -11.6413,-8.3826 -4.6988,-6.1604 -22.1185,-62.07 -21.3319,-68.4661 0.7237,-5.8852 1.7222,-7.0898 11.2626,-13.5875 4.2183,-2.873 8.2321,-5.8373 8.9196,-6.5875 0.6875,-0.7501 2.7905,-2.7158 4.6733,-4.3682 3.3743,-2.9614 3.482,-2.9726 7.5415,-0.7865 4.0912,2.2033 4.2618,2.1793 25.9517,-3.6407 40.2226,-10.7929 39.0585,-10.3617 38.3289,-14.1968 -0.3502,-1.8404 -1.0278,-4.5801 -1.5058,-6.0881 -0.7486,-2.3613 0.047,-3.2285 5.7349,-6.25 3.6323,-1.9295 8.5463,-5.3258 10.9201,-7.5474 4.1131,-3.8493 41.02798,-25.1189 59.60543,-34.3433 9.26559,-4.6008 8.98391,-4.1201 7.86705,-13.4257 -0.32855,-2.7375 1.53398,-4.1412 17.75795,-13.3837 l 18.125,-10.3255 3.125,3.7075 c 1.71875,2.0391 3.88834,3.7024 4.8213,3.6962 0.93296,-0.01 10.6369,-5.0738 21.56429,-11.2613 10.9274,-6.1875 20.63927,-11.25 21.58196,-11.25 0.94269,0 11.37414,-5.4157 23.181,-12.0349 24.48163,-13.7249 21.61574,-13.8023 29.0418,0.7849 2.27494,4.4688 5.42514,10.0499 7.00044,12.4024 1.5753,2.3526 4.60902,7.6964 6.74162,11.875 8.70269,17.0523 15.58498,27.5952 18.27079,27.9887 1.46804,0.2151 7.27828,-0.8526 12.91164,-2.3727 7.99492,-2.1572 11.75569,-3.9962 17.13829,-8.3804 l 6.89578,-5.6167 3.93902,2.1213 c 2.16645,1.1667 5.53918,3.4963 7.49496,5.1769 2.56811,2.2067 5.03617,3.0555 8.8843,3.0555 7.18054,0 9.28281,-0.9864 9.28281,-4.3557 0,-1.561 0.70313,-3.4149 1.5625,-4.1198 0.85938,-0.7049 9.29688,-4.2159 18.75,-7.8022 9.45313,-3.5863 17.28173,-7.1566 17.39689,-7.9339 0.11512,-0.7774 0.25577,-3.0708 0.3125,-5.0965 0.11825,-4.2243 2.62229,-5.3637 12.2351,-5.5673 4.09624,-0.087 7.31,-1.0937 10.58561,-3.3165 5.20733,-3.5338 8.68889,-3.3413 13.91483,0.7694 3.86307,3.0387 5.54105,3.0458 8.26583,0.035 3.5134,-3.8823 7.89809,-4.3053 13.03274,-1.2574 4.56149,2.7077 4.65496,2.7107 56.88958,1.8092 40.03487,-0.691 53.29158,-1.3087 56.45577,-2.6308 3.18903,-1.3324 5.03763,-1.4132 8.07925,-0.3529 2.18286,0.761 6.5564,1.0283 9.79423,0.5986 5.80947,-0.7709 22.55768,-1.2203 34.67096,-0.9304 5.66778,0.1357 8.04096,1.2435 22.97102,10.7235 11.62714,7.3827 18.39365,10.8709 22.42921,11.5625 3.17844,0.5446 27.15398,0.8477 53.27898,0.6734 l 47.5,-0.3169 5.47798,-5.723 c 4.58237,-4.7873 5.19547,-5.9811 3.75,-7.3017 -1.63275,-1.4916 -50.76097,-8.3117 -59.40201,-8.2462 -2.15819,0.016 -5.19612,-1.0004 -6.75093,-2.2594 -3.97827,-3.2214 -2.51709,-7.7761 4.04213,-12.5998 4.1201,-3.0299 6.52243,-3.8611 11.15967,-3.8611 7.56396,0 28.60372,-4.7562 31.23793,-7.0616 3.18332,-2.7859 15.15819,-4.1732 36.11023,-4.1833 10.65625,-0.01 28.54951,-0.6133 39.7628,-1.3516 18.84275,-1.2406 20.6426,-1.1725 23.75,0.8989 2.89703,1.9312 5.72743,2.1931 20.45761,1.8929 15.63915,-0.3188 17.76878,-0.087 25,2.719 7.89695,3.0644 7.93416,3.0665 38.52959,2.1294 17.78829,-0.5449 32.100161,-1.5366 34.144336,-2.3661 2.627563,-1.0661 4.190913,-1.0686 6.169613,-0.01 1.872562,1.0022 12.668587,1.2432 36.7907,0.8212 37.920225,-0.6634 37.580475,-0.585 40.4678877,-9.334 0.964925,-2.9237 2.076012,-4.1669 3.484549,-3.8988 1.693538,0.3223 2.337963,3.2201 3.559575,16.0061 0.820413,8.5869 1.178426,18.0031 0.795576,20.925 -0.599,4.5715 -1.1122,5.3125 -3.679163,5.3125 -1.640688,3e-4 -2.983075,-0.522 -2.983075,-1.1604 0,-0.6384 -0.883925,-2.0447 -1.9642867,-3.125 -1.64995,-1.65 -5.600488,-1.9475 -24.6875,-1.8595 -12.497763,0.058 -29.191963,0.6198 -37.098213,1.2492 -7.90625,0.6293 -15.78125,1.1582 -17.5,1.1752 -1.71875,0.017 -17.468749,0.04 -34.999999,0.051 -24.74178,0.016 -33.27368,0.4417 -38.125,1.9028 -3.4375,1.0353 -12.0237,2.2228 -19.08044,2.6389 l -12.83043,0.7564 0.80926,6.3732 c 0.44509,3.5052 1.43754,7.1636 2.20544,8.1297 1.18058,1.4853 10.04733,1.6225 57.42116,0.8882 42.992659,-0.6663 57.012947,-0.5111 60.272147,0.6675 5.598725,2.0245 36.894374,-1.2584 40.26435,-4.2237 1.984087,-1.7458 16.550037,-0.074 155.938513,17.8991 84.5625,10.9037 154.875,19.8568 156.25,19.8959 2.46688,0.07 2.46788,0.095 0.0738,1.9062 -1.33463,1.0094 -3.33637,1.8352 -4.44862,1.8352 -1.11225,0 -3.114,0.8331 -4.44863,1.8513 -2.10013,1.6023 -2.17425,2.0199 -0.55137,3.1058 2.56949,1.7193 12.92537,1.615 16.84225,-0.1696 2.46187,-1.1217 7.355,-1.0969 20.99637,0.1064 9.7825,0.8628 19.052,1.8632 20.59888,2.223 3.69049,0.8584 3.578,3.3011 -0.24625,5.3477 -4.2015,2.2486 -4.72963,4.387 -1.74963,7.0839 2.407,2.1783 20.15013,2.5031 385.85325,7.062 l 383.33012,4.7787 11.9392,-3.8195 11.9392,-3.8196 41.8696,0 41.8697,0 4.6287,4.7402 c 2.5458,2.6071 4.6286,5.0833 4.6286,5.5027 0,0.4194 -1.7282,1.365 -3.8406,2.1014 l -3.8405,1.3388 0.403,18.6562 c 0.3511,16.2464 0.7108,18.9955 2.7844,21.2834 l 2.3812,2.6273 -276.13117,0.3102 c -281.27732,0.3159 -316.51532,0.2257 -376.31582,-0.9631 -30.04425,-0.5973 -34.164,-0.445 -35.9375,1.3284 -1.10163,1.1017 -2.003,3.2436 -2.003,4.7598 0,1.7449 -3.09675,5.8229 -8.4375,11.1109 l -8.4375,8.3542 -180,6.3605 c -173.16263,6.1189 -180.33238,6.466 -188.75,9.137 l -8.75,2.7764 -0.3735,7.1177 -0.37363,7.1176 -4.62637,0.7676 c -2.54463,0.4222 -5.37638,1.0053 -6.293,1.2958 -2.78188,0.8819 -0.8605,3.6112 3.01962,4.2893 3.50063,0.6117 3.64688,0.9081 3.64688,7.3924 l 0,6.7552 -14.01213,5.7448 c -16.242261,6.6589 -17.850401,7.8266 -15.644071,11.3595 2.37382,3.8011 1.82433,7.0062 -1.58404,9.2394 -2.82099,1.8484 -17.07728,2.1107 -150.937502,2.7772 -123.822987,0.6165 -148.142647,1.0187 -149.795687,2.4776 -1.27604,1.1261 -5.03082,1.7484 -10.625,1.7607 -9.55077,0.021 -11.60361,0.7792 -11.94367,4.4105 -0.4605,4.9173 0.32487,6.2383 4.98386,8.3829 7.05766,3.2487 11.98555,2.859 14.92809,-1.1804 l 2.45336,-3.368 10.11706,4.6247 c 10.7483,4.9132 23.43697,7.0439 42.21917,7.0895 6.37383,0.015 9.3523,0.5553 10.46555,1.8967 0.85587,1.0312 2.47162,1.8818 3.59055,1.8901 1.11895,0.01 6.93679,1.6592 12.92853,3.6688 15.0441,5.0456 52.542574,12.2125 69.065924,13.2003 7.5405,0.4507 14.742138,1.3719 16.003638,2.047 1.2615,0.6752 8.31075,1.4504 15.665,1.7228 7.35425,0.2724 16.974887,1.3103 21.379187,2.3064 9.2007877,2.081 10.49544967,1.8221 12.4612877,-2.4924 1.33475,-2.9295 1.880575,-3.096 7.981812,-2.4354 17.4637603,1.8911 56.7206103,4.7999 68.4240803,5.07 18.59987,0.4293 22.790491,1.9855 35.914621,13.3375 6.082,5.2608 13.57575,10.9707 16.65288,12.6885 4.43637,2.4769 24.60975,6.9464 97.451,21.5908 88.68725,17.8302 92.32675,18.4567 105.48712,18.1582 13.396,-0.3038 13.676,-0.2523 16.25988,2.9881 2.42662,3.0434 5.61075,3.9085 41.36925,11.24 52.65475,10.7957 51.73587,10.5751 58.31087,14.0011 4.59288,2.3933 7.88875,3.0665 15.625,3.192 11.5035,0.1865 52.84388,0.1673 59.17938,-0.028 4.13962,-0.1273 41.64462,-0.1085 53.75,0.027 3.09374,0.035 13.21875,-0.01 22.5,-0.099 60.2955,-0.5769 68.76575,-0.3633 69.5785,1.7547 0.4355,1.135 0.0362,2.5111 -0.89563,3.087 -0.92475,0.5716 -20.55362,0.7358 -43.61962,0.3649 -23.066,-0.3709 -44.18825,-0.6541 -46.93825,-0.6293 -35.77763,0.322 -49.661,0.1937 -50.73326,-0.469 -2.21762,-1.3705 -22.39174,2.1729 -22.39174,3.9329 0,1.7954 -0.15051,1.7594 67.5,16.1287 34.6785,7.3658 48.95337,9.9222 51.08949,9.1493 1.80201,-0.652 3.56013,-0.5785 4.483,0.1874 5.198,4.314 12.3785,5.101 51.854,5.6835 l 39.4485,0.5821 0,7.8137 0,7.8137 5,1.6589 c 2.75,0.9124 6.6875,1.4043 8.75,1.0932 2.0625,-0.3111 19.21875,2.4738 38.125,6.1888 30.80838,6.0536 42.5,9.2561 42.5,11.6411 0,0.4332 -2.8125,3.5578 -6.25,6.9436 -3.4375,3.3859 -6.25,6.8605 -6.25,7.7216 0,2.2786 4.17888,4.1534 9.25788,4.1534 4.30762,0 4.47638,0.1862 6.51,7.1815 1.14825,3.9498 3.37838,9.2261 4.956,11.7251 1.5775,2.499 4.36387,8.1267 6.192,12.5061 1.828,4.3793 4.39488,9.1236 5.70388,10.5429 3.39175,3.6772 2.98562,5.7227 -2.10638,10.6117 -2.46762,2.3693 -5.79812,6.8732 -7.40125,10.0087 -1.603,3.1356 -5.0055,8.1981 -7.56125,11.25 -2.55562,3.052 -5.97487,7.6469 -7.59825,10.2109 -1.65575,2.6151 -5.28425,5.8406 -8.26462,7.3467 -2.92213,1.4768 -7.96075,5.1446 -11.197,8.1507 -3.23613,3.0062 -6.42,5.4657 -7.07525,5.4657 -0.65513,0 -3.96688,2.194 -7.35913,4.8755 -3.39237,2.6815 -8.4915,6.0608 -11.3315,7.5097 -2.83987,1.4488 -7.9485,5.0205 -11.3525,7.937 -7.86888,6.7423 -25.86025,19.2502 -34.27137,23.8262 -3.56188,1.9378 -8.16375,5.0742 -10.22625,6.9697 -5.36138,4.9272 -28.3235,19.8092 -35.32425,22.894 -3.25913,1.4361 -8.23363,4.4959 -11.0545,6.7995 -2.82075,2.3037 -5.5295,4.1884 -6.01938,4.1884 -0.48987,0 -5.773,2.8838 -11.74025,6.4085 -5.96737,3.5246 -13.66487,7.2334 -17.10562,8.2418 -3.44088,1.0084 -9.0685,3.4054 -12.506,5.3268 -3.4375,1.9214 -7.65625,3.9154 -9.375,4.4311 -1.71875,0.5157 -6.2755,2.4584 -10.12613,4.3171 l -7.00112,3.3796 -666.123906,0.013 c -515.859134,0.01 -667.110884,-0.3271 -670.498974,-1.4918 z m 219.3624,-5.6152 c 1.02304,-0.849 1.54194,-2.0584 1.1531,-2.6876 -0.38882,-0.6291 -5.86701,-3.7267 -12.17374,-6.8835 -6.30671,-3.1568 -14.11453,-8.2033 -17.35071,-11.2145 l -5.88395,-5.4748 -55.79234,0 -55.79235,0 -4.94328,4.2313 c -6.13894,5.2547 -17.72505,11.5032 -29.19514,15.7453 -8.57174,3.1702 -12.05133,6.8263 -7.35733,7.7305 1.19315,0.2298 43.41329,0.3457 93.82253,0.2575 70.69517,-0.1238 92.07849,-0.5134 93.51321,-1.7042 z m 222.85885,-0.1112 c 0.2345,-1.2176 -4.64264,-4.2908 -14.70619,-9.2668 -9.2075,-4.5527 -16.8471,-9.2782 -19.66473,-12.1638 l -4.6077,-4.7186 -41.3761,0 -41.37612,0 -4.3077,4.4927 c -2.52866,2.6373 -10.50257,7.6004 -19.30771,12.0174 -17.26396,8.6604 -16.11494,7.9101 -15.31359,9.9985 0.49873,1.2996 16.26669,1.6013 80.46464,1.5394 68.90009,-0.066 79.89245,-0.3267 80.1952,-1.8987 z m 213.887886,0.8128 c 3.477675,-2.1493 0.57065,-4.8543 -12.046636,-11.2094 -7.50955,-3.7823 -15.33785,-8.7499 -17.74521,-11.2604 l -4.3077,-4.4922 -41.38459,0 -41.38459,0 -4.3077,4.4923 c -2.41358,2.517 -10.2522,7.4863 -17.82696,11.3014 -10.17369,5.1241 -13.41856,7.3378 -13.11239,8.9452 0.33684,1.7684 2.34114,2.2437 11.64425,2.7611 16.68923,0.9282 138.856214,0.4604 140.471526,-0.5379 z m 224.859744,-0.5759 c -0.18913,-0.9564 -2.59725,-2.4034 -5.3515,-3.2156 -8.27525,-2.4404 -25.77313,-12.133 -32.187001,-17.8294 l -6.01383,-5.3411 -40.01183,0 -40.0118203,0 -5.88395,5.4748 c -3.23617503,3.0112 -11.2277,8.1441 -17.7589497,11.4066 -12.652187,6.32 -14.684063,8.0065 -12.040212,9.9936 1.067849,0.8026 29.9285367,1.25 80.633082,1.25 66.779251,0 78.916881,-0.2684 78.626001,-1.7389 z m 204.70687,0.8548 c 2.158,-2.1581 -1.48525,-5.128 -14.05975,-11.4614 -7.55225,-3.8038 -15.38725,-8.7725 -17.79875,-11.2873 l -4.30762,-4.4922 -38.25963,0 -38.25963,0 -4.30762,4.4513 c -4.40087,4.5475 -33.7,20.5487 -37.62612,20.5487 -2.09888,0 -3.98388,1.6571 -3.00075,2.6381 0.89475,0.8929 156.7225,0.5002 157.61987,-0.3971 z m 219.71063,-0.8774 c 1.96625,-1.9662 0.22099,-3.2205 -9.59813,-6.898 -9.59737,-3.5944 -21.63338,-10.5483 -28.2705,-16.3336 l -4.39275,-3.8289 -39.52462,0.661 -39.52463,0.6609 -5.69662,5.2542 c -3.13313,2.8897 -10.75713,7.7956 -16.94213,10.9019 -12.15062,6.1024 -13.50425,7.2346 -11.0675,9.2569 2.3405,1.9424 9.74138,2.1067 85.07938,1.8881 47.60937,-0.1381 68.99075,-0.6157 69.9375,-1.5625 z m -1367.88638,-28.0336 c 0,-0.9186 -2.80554,-5.166 -6.23452,-9.4386 -3.429,-4.2726 -7.61472,-10.1304 -9.30162,-13.0173 -4.26167,-7.2934 -10.46753,-26.4002 -11.46996,-35.314 -1.38504,-12.3159 -0.48895,-11.81 -20.91767,-11.81 l -17.83582,0 -3.83555,-4.0625 c -2.10955,-2.2344 -15.82491,-18.4063 -30.47857,-35.9375 -25.01655,-29.9291 -26.88885,-31.8669 -30.66974,-31.7426 -3.85797,0.1268 -4.0618,-0.1089 -4.86404,-5.625 -1.13328,-7.7924 -2.87113,-10.1256 -12.61601,-16.9378 -10.16892,-7.1085 -14.60469,-6.5065 -10.1697,1.3802 2.09729,3.7297 19.41865,21.6752 20.92126,21.6752 0.67207,0 1.22194,1.0918 1.22194,2.4262 0,1.3344 0.56904,2.7779 1.26453,3.2078 0.69548,0.4298 3.14342,3.6974 5.43987,7.2612 2.29644,3.5639 9.85388,12.2351 16.79429,19.2693 6.94041,7.0342 14.07217,15.2692 15.84836,18.3 1.77619,3.0309 5.64293,7.4006 8.59275,9.7106 2.94983,2.3099 9.69544,8.9811 14.99025,14.8249 13.94723,15.3932 16.85909,18.3452 28.3423,28.7333 5.68968,5.147 12.24555,12.2209 14.56861,15.7196 3.97328,5.9842 7.33957,8.8661 22.09715,18.9175 6.61525,4.5057 8.31189,5.0077 8.31189,2.4595 z m 1480.269,-10.6436 c 6.14,-5.329 27.60763,-19.7021 35.0635,-23.476 3.59838,-1.8213 9.355,-5.6612 12.7925,-8.533 10.0505,-8.3966 23.52263,-17.7094 31.41912,-21.7188 4.032,-2.0473 9.01838,-5.5202 11.08088,-7.7176 2.0625,-2.1975 7.2935,-6.5386 11.6245,-9.6471 10.08863,-7.2409 9.94825,-9.4032 -0.6865,-10.5787 -12.34,-1.364 -21.6655,-6.2785 -30.95712,-16.3144 l -8.00388,-8.6449 -23.76487,-0.7179 -23.76475,-0.718 -5.03625,3.3328 c -2.76988,1.833 -5.03613,3.7973 -5.03613,4.3651 0,0.5677 1.14938,5.4816 2.55425,10.9197 3.5865,13.8834 3.57713,38.4135 -0.02,52.3875 -2.80425,10.8938 -9.672,26.4 -14.49087,32.718 -1.67388,2.1946 -3.0435,4.8715 -3.0435,5.9486 0,3.2076 5.76137,2.307 10.269,-1.6053 z m -875.35119,-645.7123 c 2.1359,-2.5736 -4.16777,-9.2006 -10.54281,-11.0835 -2.92826,-0.8649 -13.39179,-1.4849 -25.25297,-1.4962 l -20.25297,-0.019 -5.05953,4.9412 c -2.78274,2.7177 -5.05953,5.952 -5.05953,7.1875 0,2.1039 2.05103,2.2463 32.34695,2.2463 26.42623,0 32.61673,-0.325 33.82086,-1.7759 z"
         style="fill:#000000" />
    </g>
  </g>
</svg>
