<?xml version="1.0" encoding="UTF-8" standalone="no"?>
<svg
   xmlns:dc="http://purl.org/dc/elements/1.1/"
   xmlns:cc="http://creativecommons.org/ns#"
   xmlns:rdf="http://www.w3.org/1999/02/22-rdf-syntax-ns#"
   xmlns:svg="http://www.w3.org/2000/svg"
   xmlns="http://www.w3.org/2000/svg"
   version="1.1"
   id="svg2"
   viewBox="0 0 5.514 1.6136394"
   width="16.542">
  <defs
     id="defs4" />
  <metadata
     id="metadata7">
    <rdf:RDF>
      <cc:Work
         rdf:about="">
        <dc:format>image/svg+xml</dc:format>
        <dc:type
           rdf:resource="http://purl.org/dc/dcmitype/StillImage" />
        <dc:title></dc:title>
      </cc:Work>
    </rdf:RDF>
  </metadata>
  <g
     transform="translate(757.53313,-812.33735)"
     id="layer1">
    <g
       transform="translate(456.58897,105.05586)"
       id="g4158">
      <path
         id="path4164"
         d="m -1208.7128,708.89242 c -0.01,-10e-4 -0.09,-0.01 -0.1825,-0.0187 -0.1563,-0.0154 -0.169,-0.0171 -0.1867,-0.0245 -0.014,-0.006 -0.024,-0.008 -0.041,-0.008 -0.022,-3.1e-4 -0.038,-0.003 -0.039,-0.007 -2e-4,-9.2e-4 0,-0.01 0,-0.0197 0,-0.019 0,-0.0343 0.017,-0.0424 0,-0.003 0.01,-0.006 0,-0.0194 0,-0.0149 0,-0.0163 -0.042,-0.0558 l -0.04,-0.0405 -0.024,-0.002 c -0.056,-0.004 -0.075,-0.007 -0.083,-0.0112 -0.019,-0.0102 -0.053,-0.0174 -0.1171,-0.0249 -0.039,-0.005 -0.07,-0.01 -0.075,-0.0122 -0.01,-0.005 -0.047,-0.003 -0.087,0.004 l -0.022,0.004 -0.061,-0.0206 -0.061,-0.0206 -0.073,-0.007 c -0.2051,-0.0196 -0.2041,-0.0195 -0.2108,-0.016 0,0.003 -0.016,0.002 -0.05,-0.002 -0.041,-0.005 -0.045,-0.005 -0.059,-4e-5 -0.015,0.005 -0.016,0.005 -0.033,-0.002 -0.022,-0.008 -0.026,-0.0111 -0.019,-0.0151 0.01,-0.004 0.01,-0.0111 0,-0.0134 0,-9.2e-4 -0.016,10e-4 -0.03,0.005 -0.014,0.003 -0.043,0.0103 -0.064,0.0151 -0.021,0.005 -0.1092,0.0261 -0.1956,0.0474 -0.086,0.0212 -0.1619,0.0386 -0.168,0.0386 -0.01,10e-6 -0.041,-0.0149 -0.1362,-0.0625 -0.099,-0.0494 -0.1262,-0.0618 -0.1297,-0.0593 0,0.002 -0.01,0.005 -0.015,0.008 -0.01,0.003 -0.01,0.006 -0.01,0.007 0,0.002 0.02,0.009 0.042,0.0166 0.022,0.008 0.04,0.0151 0.041,0.0164 0,0.004 -0.014,0.005 -0.1986,0.0147 l -0.1748,0.009 -0.098,0.0208 -0.098,0.0208 -0.096,0.0388 -0.096,0.0388 -0.01,-0.007 -0.01,-0.007 -0.024,0.011 c -0.027,0.0129 -0.038,0.0137 -0.049,0.004 l -0.01,-0.007 -0.013,0.005 c -0.012,0.005 -0.019,0.005 -0.1146,0.002 l -0.102,-0.003 -0.014,0.015 c -0.01,0.008 -0.015,0.015 -0.017,0.015 0,-1e-5 -0.026,0.003 -0.055,0.008 l -0.052,0.008 -0.1941,-0.0255 c -0.1067,-0.014 -0.1967,-0.0261 -0.2001,-0.0268 0,-6.1e-4 -0.011,-0.006 -0.018,-0.0113 -0.01,-0.008 -0.012,-0.0123 -0.013,-0.0244 0,-0.014 0,-0.0146 -0.015,-0.0193 -0.017,-0.006 -0.1511,-0.0855 -0.1644,-0.0972 -0.01,-0.005 -0.015,-0.01 -0.023,-0.0108 -0.014,-0.002 -0.2139,-0.0489 -0.5772,-0.13448 -0.2831,-0.0667 -0.5622,-0.13942 -0.5694,-0.14841 0,-0.003 -0.01,-0.0133 -0.01,-0.0221 -0.01,-0.0249 -0.037,-0.0669 -0.061,-0.0852 -0.01,-0.004 -0.01,-0.009 -0.01,-0.01 0,-10e-4 0.1477,0.005 0.3258,0.0132 0.359,0.0169 0.3486,0.0165 0.344,0.0119 0,-0.002 -0.064,-0.0251 -0.1387,-0.0517 -0.074,-0.0266 -0.1377,-0.0505 -0.1405,-0.053 0,-0.002 -0.01,-0.005 -0.01,-0.005 0,0 -0.01,-0.002 -0.015,-0.006 -0.01,-0.003 -0.018,-0.008 -0.028,-0.0106 -0.018,-0.005 -0.04,-0.0172 -0.063,-0.0362 0,-0.004 -0.011,-0.007 -0.014,-0.007 0,0 -0.015,-0.0105 -0.027,-0.0245 -0.017,-0.0195 -0.045,-0.0422 -0.1358,-0.1121 -0.086,-0.0662 -0.1151,-0.0898 -0.1173,-0.0963 0,-0.005 0,-0.009 -0.01,-0.0105 0,-9.2e-4 -0.013,-0.003 -0.027,-0.004 -0.022,-0.002 -0.025,-0.003 -0.034,-0.0125 l -0.01,-0.0104 0.01,-0.005 c 0,-0.003 0.01,-0.007 0.01,-0.008 0,-0.003 -0.034,-0.009 -0.062,-0.0111 -0.02,-0.002 -0.025,-0.004 -0.025,-0.0136 -10e-5,-0.007 0.074,-0.0472 0.086,-0.0473 0.01,-2e-5 0.043,-0.005 0.084,-0.0114 0.041,-0.006 0.08,-0.0107 0.087,-0.01 0.01,9.2e-4 0.016,-3e-4 0.022,-0.003 0.01,-0.003 0.066,-0.0135 0.1509,-0.0265 0.1219,-0.0187 0.1425,-0.0226 0.1482,-0.028 0.01,-0.005 0.018,-0.008 0.082,-0.0169 0.042,-0.006 0.1168,-0.0165 0.1673,-0.0237 0.051,-0.007 0.1052,-0.0146 0.1215,-0.0165 0.023,-0.003 0.033,-0.005 0.044,-0.0119 0.013,-0.008 0.024,-0.01 0.1371,-0.0263 0.068,-0.01 0.1235,-0.0179 0.1241,-0.0179 0,0 0,-0.003 0,-0.007 0,-0.006 0,-0.008 0.013,-0.009 0.01,-9.2e-4 0.014,-0.002 0.019,-0.003 0,-6.1e-4 0.01,-0.004 0.01,-0.008 0,-0.005 0.011,-0.009 0.033,-0.0163 0.023,-0.008 0.051,-0.0132 0.1275,-0.0247 0.095,-0.0143 0.5921,-0.0798 0.6053,-0.0798 0.013,0 0.011,0.009 -0.012,0.0424 -0.046,0.0676 -0.065,0.0854 -0.098,0.0899 -0.011,0.002 -0.02,0.007 -0.054,0.0349 -0.04,0.0324 -0.042,0.0333 -0.071,0.0416 -0.016,0.005 -0.034,0.0109 -0.04,0.0138 -0.01,0.004 -0.2336,0.0647 -0.2405,0.0647 0,0 -0.011,0.009 -0.011,0.0133 0,0.002 0,0.004 0.01,0.005 0,6.1e-4 0.01,0.003 0.01,0.008 0,0.006 -0.01,0.015 -0.045,0.053 l -0.046,0.0454 0.01,0.008 c 0.01,0.007 0.01,0.007 0.014,0.004 0.012,-0.008 0.033,-0.001 0.033,0.0103 0,0.002 0,0.005 0.01,0.008 0,0.003 0.012,0.0163 0.02,0.0352 0.019,0.0451 0.031,0.0683 0.04,0.0764 0,0.004 0.01,0.009 0.01,0.0108 0,0.0101 0.031,0.0191 0.098,0.0278 0.025,0.003 0.05,0.007 0.054,0.008 0.01,10e-4 0.01,1.9e-4 0.013,-0.003 0.01,-0.006 0.068,-0.0215 0.1,-0.0254 0.013,-0.002 0.032,-0.006 0.042,-0.009 0.01,-0.003 0.044,-0.0141 0.077,-0.0236 0.068,-0.0198 0.086,-0.0261 0.1378,-0.0466 0.02,-0.008 0.041,-0.0155 0.046,-0.0165 0,-9.2e-4 0.051,-0.0212 0.102,-0.0449 0.098,-0.0454 0.1158,-0.052 0.144,-0.052 0.014,0 0.2132,0.036 0.2564,0.0461 0.01,0.002 0.01,6.1e-4 0.013,-0.007 0,-0.005 0.01,-0.01 0.01,-0.0102 0,-6.1e-4 0.062,-6.1e-4 0.1312,10e-6 0.1177,0.001 0.1302,0.002 0.193,0.01 0.1096,0.0141 0.1463,0.0116 0.1679,-0.0116 0.01,-0.0101 0.019,-0.0153 0.027,-0.0153 0,0 0.01,-9.1e-4 0.01,-0.002 0,-0.001 -0.02,-0.0276 -0.043,-0.0585 -0.024,-0.031 -0.044,-0.0584 -0.046,-0.0609 0,-0.002 -0.011,-0.007 -0.021,-0.01 -0.01,-0.003 -0.078,-0.036 -0.156,-0.0765 -0.15,-0.0778 -0.1453,-0.0745 -0.1417,-0.0987 0,-0.0105 0,-0.0145 -0.01,-0.0268 -0.01,-0.0148 -0.011,-0.0222 -0.01,-0.0222 0.014,0 0.3593,0.0878 0.4674,0.11871 0.1446,0.0414 0.3329,0.10315 0.365,0.11973 0,0.002 0.05,0.0159 0.1001,0.0295 0.3611,0.0986 0.9159,0.2482 1.171,0.31572 0.27,0.0715 0.4329,0.11684 0.448,0.1248 0,0.002 0.01,0.008 0.01,0.0137 0.011,0.044 0.021,0.0944 0.039,0.18786 0.021,0.1117 0.039,0.20258 0.075,0.38908 0.012,0.0603 0.022,0.11762 0.024,0.1274 0,0.01 0.01,0.0422 0.011,0.0721 0.01,0.0514 0.01,0.0549 0,0.0644 0,0.006 -0.01,0.0103 -0.01,0.0105 -0.012,0.002 -0.021,0.003 -0.049,0.004 -0.018,6.1e-4 -0.039,-9e-5 -0.047,-10e-4 z m -4.4478,-0.81555 c 0,-0.006 -0.01,-0.0354 -0.012,-0.0437 0,-0.004 -0.01,-0.01 -0.014,-0.0124 -0.01,-0.006 -0.1913,-0.0387 -0.1947,-0.0353 0,0.003 -10e-5,0.0204 0,0.0266 0,0.004 0.1963,0.0678 0.208,0.0682 0,1.4e-4 0.01,-0.002 0.01,-0.003 z"
         style="fill:#000000;fill-opacity:1" />
    </g>
  </g>
</svg>
