<?xml version="1.0" encoding="UTF-8" standalone="no"?>
<!-- Created with Inkscape (http://www.inkscape.org/) -->

<svg
   xmlns:dc="http://purl.org/dc/elements/1.1/"
   xmlns:cc="http://creativecommons.org/ns#"
   xmlns:rdf="http://www.w3.org/1999/02/22-rdf-syntax-ns#"
   xmlns:svg="http://www.w3.org/2000/svg"
   xmlns="http://www.w3.org/2000/svg"
   xmlns:sodipodi="http://sodipodi.sourceforge.net/DTD/sodipodi-0.dtd"
   xmlns:inkscape="http://www.inkscape.org/namespaces/inkscape"
   width="5.079998mm"
   height="1.4900892mm"
   viewBox="0 0 17.999993 5.2798435"
   id="svg2"
   version="1.1"
   inkscape:version="0.91 r13725"
   sodipodi:docname="Nox.svg">
  <defs
     id="defs4" />
  <sodipodi:namedview
     id="base"
     pagecolor="#ffffff"
     bordercolor="#666666"
     borderopacity="1.0"
     inkscape:pageopacity="0.0"
     inkscape:pageshadow="2"
     inkscape:zoom="63.356767"
     inkscape:cx="8.8459099"
     inkscape:cy="2.9550087"
     inkscape:document-units="px"
     inkscape:current-layer="g4158"
     showgrid="false"
     fit-margin-top="0"
     fit-margin-left="0"
     fit-margin-right="0"
     fit-margin-bottom="0"
     inkscape:window-width="1920"
     inkscape:window-height="1017"
     inkscape:window-x="-8"
     inkscape:window-y="-8"
     inkscape:window-maximized="1" />
  <metadata
     id="metadata7">
    <rdf:RDF>
      <cc:Work
         rdf:about="">
        <dc:format>image/svg+xml</dc:format>
        <dc:type
           rdf:resource="http://purl.org/dc/dcmitype/StillImage" />
        <dc:title></dc:title>
      </cc:Work>
    </rdf:RDF>
  </metadata>
  <g
     inkscape:label="Layer 1"
     inkscape:groupmode="layer"
     id="layer1"
     transform="translate(757.51643,-808.66987)">
    <g
       id="g4158"
       transform="translate(456.58897,105.05586)">
      <path
         style="fill:#000000;fill-opacity:1"
         d="m -1196.4568,708.88916 c -0.027,-0.004 -0.2955,-0.0316 -0.5974,-0.0613 -0.5114,-0.0503 -0.5532,-0.0558 -0.6109,-0.0803 -0.047,-0.0202 -0.079,-0.0266 -0.1346,-0.0275 -0.071,-10e-4 -0.1253,-0.0112 -0.1268,-0.0235 -4e-4,-0.003 0,-0.0324 0,-0.0644 0,-0.0621 0.016,-0.11222 0.054,-0.13865 0.016,-0.0111 0.018,-0.0205 0.013,-0.0633 -0.01,-0.0489 -0.01,-0.0535 -0.1373,-0.18257 l -0.1312,-0.13238 -0.079,-0.006 c -0.1836,-0.0134 -0.2452,-0.0217 -0.2726,-0.0365 -0.062,-0.0333 -0.1729,-0.057 -0.383,-0.0816 -0.1263,-0.0148 -0.23,-0.0316 -0.2464,-0.04 -0.031,-0.0162 -0.153,-0.0113 -0.2849,0.0115 l -0.071,0.0122 -0.2007,-0.0674 -0.2008,-0.0674 -0.2375,-0.0227 c -0.6714,-0.0643 -0.6682,-0.064 -0.6899,-0.0524 -0.016,0.009 -0.053,0.007 -0.1644,-0.005 -0.1352,-0.0157 -0.1462,-0.0157 -0.1931,-1.3e-4 -0.048,0.0161 -0.051,0.0159 -0.1097,-0.005 -0.072,-0.0259 -0.085,-0.0364 -0.062,-0.0495 0.021,-0.0118 0.022,-0.0363 0,-0.044 -0.01,-0.003 -0.053,0.004 -0.099,0.015 -0.046,0.0114 -0.1412,0.0337 -0.2105,0.0494 -0.069,0.0158 -0.3573,0.0855 -0.6399,0.15497 -0.2827,0.0694 -0.5301,0.12628 -0.5499,0.12628 -0.027,10e-6 -0.1335,-0.0487 -0.4458,-0.20462 -0.3235,-0.1615 -0.4129,-0.20239 -0.4246,-0.19407 -0.01,0.006 -0.03,0.0173 -0.048,0.0255 -0.02,0.009 -0.03,0.0184 -0.024,0.0234 0.01,0.005 0.067,0.0291 0.1377,0.0543 0.071,0.0252 0.1308,0.0494 0.1335,0.0537 0.01,0.0126 -0.047,0.0167 -0.65,0.0482 l -0.5721,0.0299 -0.32,0.068 -0.32,0.068 -0.3138,0.12693 -0.3139,0.12693 -0.017,-0.023 -0.017,-0.023 -0.077,0.0359 c -0.09,0.0423 -0.126,0.045 -0.1614,0.0122 l -0.026,-0.0237 -0.041,0.0176 c -0.039,0.0165 -0.062,0.017 -0.3751,0.008 l -0.3338,-0.009 -0.045,0.0492 c -0.025,0.0271 -0.049,0.0492 -0.054,0.0491 0,-4e-5 -0.085,0.0112 -0.1785,0.025 l -0.1697,0.0251 -0.6351,-0.0834 c -0.3493,-0.0458 -0.644,-0.0853 -0.6549,-0.0877 -0.011,-0.002 -0.037,-0.019 -0.058,-0.037 -0.032,-0.0273 -0.039,-0.0403 -0.043,-0.0799 -0.01,-0.0457 -0.01,-0.0478 -0.049,-0.0632 -0.055,-0.0201 -0.4946,-0.27994 -0.538,-0.31808 -0.02,-0.0172 -0.049,-0.0312 -0.074,-0.0354 -0.045,-0.007 -0.7001,-0.15999 -1.8891,-0.4401 -0.9263,-0.21822 -1.8397,-0.4563 -1.8635,-0.48572 -0.01,-0.0111 -0.023,-0.0436 -0.032,-0.0723 -0.024,-0.0816 -0.1217,-0.21883 -0.1991,-0.27885 -0.018,-0.0144 -0.031,-0.0291 -0.027,-0.0327 0,-0.004 0.4835,0.0159 1.0663,0.0433 1.1747,0.0553 1.1409,0.0541 1.1257,0.0389 -0.01,-0.006 -0.2101,-0.082 -0.4538,-0.16907 -0.2438,-0.0871 -0.4507,-0.16521 -0.4599,-0.17354 -0.01,-0.008 -0.025,-0.0152 -0.034,-0.0152 -0.01,0 -0.031,-0.008 -0.048,-0.0186 -0.017,-0.0102 -0.059,-0.0258 -0.093,-0.0346 -0.059,-0.0149 -0.1313,-0.0564 -0.2068,-0.11831 -0.015,-0.0124 -0.035,-0.0225 -0.045,-0.0225 -0.01,0 -0.048,-0.0345 -0.088,-0.08 -0.056,-0.0637 -0.1463,-0.13829 -0.4445,-0.36689 -0.2828,-0.21678 -0.3766,-0.29379 -0.3838,-0.31513 -0.01,-0.0155 -0.013,-0.031 -0.018,-0.0344 0,-0.003 -0.044,-0.009 -0.087,-0.0129 -0.073,-0.006 -0.081,-0.009 -0.1123,-0.0409 l -0.034,-0.0341 0.023,-0.0171 c 0.013,-0.009 0.02,-0.0213 0.017,-0.0265 -0.01,-0.0111 -0.1102,-0.0295 -0.2048,-0.0364 -0.066,-0.005 -0.083,-0.0137 -0.083,-0.0447 -2e-4,-0.0222 0.2416,-0.15451 0.2828,-0.15471 0.018,-9e-5 0.1412,-0.0169 0.2746,-0.0373 0.1347,-0.0206 0.261,-0.0351 0.2844,-0.0327 0.027,0.003 0.053,-10e-4 0.073,-0.0113 0.018,-0.009 0.2165,-0.0443 0.4939,-0.0869 0.3988,-0.0612 0.4662,-0.0739 0.4849,-0.0915 0.018,-0.0172 0.06,-0.0258 0.2689,-0.0552 0.1359,-0.0192 0.3824,-0.0541 0.5477,-0.0775 0.1654,-0.0234 0.3443,-0.0478 0.3976,-0.0541 0.076,-0.009 0.1069,-0.0174 0.143,-0.0389 0.042,-0.0253 0.078,-0.0322 0.4487,-0.0861 0.2214,-0.0322 0.4043,-0.0586 0.4062,-0.0586 0,0 0.01,-0.0107 0.01,-0.0238 0,-0.0184 0.014,-0.0252 0.042,-0.0297 0.02,-0.003 0.047,-0.008 0.061,-0.0104 0.013,-0.002 0.029,-0.0139 0.034,-0.0253 0.01,-0.0152 0.036,-0.0297 0.1064,-0.0535 0.075,-0.0254 0.1681,-0.0433 0.417,-0.0807 0.3124,-0.0469 1.938,-0.26134 1.9811,-0.26134 0.043,0 0.035,0.0284 -0.04,0.13886 -0.1504,0.22112 -0.214,0.27938 -0.3211,0.29407 -0.036,0.005 -0.064,0.0233 -0.1774,0.11428 -0.1319,0.10605 -0.1371,0.10909 -0.2311,0.13627 -0.053,0.0153 -0.1121,0.0356 -0.1315,0.0452 -0.028,0.0135 -0.7644,0.2119 -0.787,0.2119 -0.011,0 -0.036,0.0308 -0.036,0.0436 0,0.007 0.01,0.0146 0.022,0.0163 0.015,0.002 0.023,0.0107 0.025,0.0278 0,0.0207 -0.022,0.0492 -0.1488,0.17331 l -0.1518,0.14855 0.025,0.0253 c 0.022,0.0218 0.028,0.0236 0.044,0.0133 0.04,-0.0249 0.1067,-0.004 0.1067,0.0337 0,0.006 0.01,0.0168 0.022,0.0248 0.014,0.009 0.039,0.0533 0.065,0.11505 0.062,0.14756 0.1019,0.22355 0.1303,0.25004 0.014,0.0129 0.025,0.0288 0.025,0.0352 0,0.0332 0.1027,0.0624 0.3201,0.0911 0.083,0.0109 0.1625,0.0224 0.1775,0.0256 0.018,0.004 0.033,6.3e-4 0.044,-0.009 0.021,-0.0184 0.224,-0.0702 0.3266,-0.0832 0.043,-0.005 0.1037,-0.0191 0.1357,-0.0303 0.032,-0.0113 0.1455,-0.046 0.2521,-0.0773 0.2214,-0.0648 0.2818,-0.0853 0.4509,-0.15262 0.067,-0.0265 0.1347,-0.0508 0.1512,-0.0539 0.016,-0.003 0.1667,-0.0693 0.3338,-0.14702 0.3194,-0.14855 0.3791,-0.17005 0.4715,-0.17004 0.044,10e-6 0.6977,0.11772 0.839,0.151 0.022,0.005 0.028,0.002 0.041,-0.0232 0.01,-0.0161 0.023,-0.0312 0.032,-0.0334 0.01,-0.002 0.2026,-0.002 0.4292,4e-5 0.3853,0.004 0.4264,0.006 0.6318,0.0324 0.3586,0.0462 0.4787,0.038 0.5496,-0.0379 0.031,-0.033 0.061,-0.0502 0.088,-0.0502 0.011,0 0.02,-0.003 0.02,-0.007 0,-0.004 -0.064,-0.0902 -0.1415,-0.1915 -0.078,-0.10132 -0.1452,-0.19106 -0.1497,-0.19942 0,-0.008 -0.035,-0.0226 -0.067,-0.0317 -0.033,-0.009 -0.2546,-0.11778 -0.5104,-0.25039 -0.491,-0.25452 -0.4757,-0.24388 -0.4638,-0.3232 0.01,-0.0344 0,-0.0474 -0.024,-0.0876 -0.031,-0.0484 -0.037,-0.0725 -0.02,-0.0725 0.045,0 1.1761,0.28733 1.5297,0.38852 0.4732,0.13538 1.0896,0.33759 1.1945,0.39184 0.016,0.008 0.1636,0.0519 0.3276,0.0966 1.182,0.32276 2.9977,0.8123 3.8325,1.03326 0.8837,0.23392 1.4167,0.38239 1.4662,0.40844 0.01,0.005 0.021,0.025 0.025,0.0449 0.035,0.14396 0.069,0.30908 0.1275,0.61482 0.07,0.36558 0.127,0.66299 0.2442,1.27337 0.038,0.19732 0.073,0.38494 0.078,0.41694 0,0.032 0.022,0.13817 0.037,0.23593 0.027,0.16834 0.028,0.17952 0.013,0.2109 -0.01,0.0182 -0.018,0.0337 -0.022,0.0344 -0.038,0.008 -0.07,0.0104 -0.1613,0.0129 -0.059,0.002 -0.1285,-2.7e-4 -0.1552,-0.004 z m -14.5564,-2.66907 c 0.01,-0.0186 -0.02,-0.11582 -0.04,-0.14302 -0.01,-0.0133 -0.03,-0.0315 -0.046,-0.0404 -0.034,-0.0196 -0.6258,-0.12684 -0.6372,-0.11548 -0.01,0.009 -3e-4,0.0668 0.012,0.0871 0.01,0.0143 0.6422,0.2219 0.6806,0.2231 0.014,4.5e-4 0.028,-0.005 0.03,-0.0113 z"
         id="path4164"
         inkscape:connector-curvature="0" />
    </g>
  </g>
</svg>
