<?xml version="1.0" encoding="UTF-8" standalone="no"?>
<svg
   xmlns:dc="http://purl.org/dc/elements/1.1/"
   xmlns:cc="http://creativecommons.org/ns#"
   xmlns:rdf="http://www.w3.org/1999/02/22-rdf-syntax-ns#"
   xmlns:svg="http://www.w3.org/2000/svg"
   xmlns="http://www.w3.org/2000/svg"
   version="1.1"
   id="svg2"
   viewBox="0 0 170 51.696312"
   width="510">
  <defs
     id="defs4" />
  <metadata
     id="metadata7">
    <rdf:RDF>
      <cc:Work
         rdf:about="">
        <dc:format>image/svg+xml</dc:format>
        <dc:type
           rdf:resource="http://purl.org/dc/dcmitype/StillImage" />
        <dc:title></dc:title>
      </cc:Work>
    </rdf:RDF>
  </metadata>
  <g
     transform="translate(608.58079,-794.39375)"
     id="layer1">
    <g
       transform="matrix(0.09100644,0,0,0.09100644,-462.73652,836.01574)"
       id="g2996">
      <path
         id="path2998"
         d="m -1071.8214,109.5678 c -1.1364,-0.6619 -1.75,-2.24004 -1.75,-4.50097 0,-2.42481 -0.5313,-3.66053 -1.75,-4.07081 -0.9625,-0.32402 -3.6502,-1.469071 -5.9726,-2.544561 -2.3225,-1.0755 -4.6539,-1.68894 -5.1809,-1.36319 -0.5271,0.32574 -1.2627,0.0998 -1.6347,-0.5021 -0.8034,-1.29999 -0.8412,-37.5916 -0.045,-43.63877 0.304,-2.31028 0.1835,-4.42872 -0.2678,-4.70766 -0.8753,-0.54094 -0.8949,-3.48265 -0.034,-5.10942 0.2859,-0.54033 0.6332,-2.63018 0.7717,-4.64411 0.1841,-2.67745 -0.2372,-3.93549 -1.5672,-4.68031 -1.6582,-0.92856 -1.819,-2.68281 -1.819,-19.83831 l 0,-18.8196904 -3.25,-0.9568 -3.25,-0.95679 0,-20.2932096 c 0,-17.37173 0.2159,-20.2932 1.5,-20.2932 0.825,0 1.5,-0.45 1.5,-1 0,-0.57691 -3.1425,-1 -7.4274,-1 l -7.4274,0 -6.3627,8.25 -6.3626,8.25 -10.21,0.28498 c -6.5536,0.18293 -10.2099,-0.0857 -10.2099,-0.75 0,-0.56924 -1.3019,-1.03498 -2.893,-1.03498 -3.3014,0 -4.107,1.38919 -4.107,7.08179 l 0,3.91821 4.4285,0 c 2.4358,0 5.0233,0.56775 5.75,1.26166 2.3811,2.27339 6.8361,3.73834 11.3685,3.73834 3.7076,0 4.453,0.31792 4.453,1.89931 0,1.72663 -1.1437,1.96527 -12.5793,2.62485 -9.2329,0.53253 -12.7197,1.09137 -13.107,2.10069 -0.366,0.95373 -2.3517,1.37515 -6.4797,1.37515 -3.7412,0 -5.7209,-0.37406 -5.3297,-1.00706 1.1208,-1.81338 2.9963,-1.6574 -43.7543,-3.63875 -8.6625,-0.36713 -15.75,-0.96327 -15.75,-1.32477 0,-0.36149 10.2375,-1.16452 22.75,-1.78451 25.0429,-1.24088 27.2383,-1.52487 28.8602,-3.73323 0.6806,-0.92667 2.7123,-1.51168 5.25,-1.51168 l 4.1398,0 0,-5.5 c 0,-3.20434 -0.4421,-5.5 -1.0591,-5.5 -0.5824,0 -0.7543,-0.49291 -0.382,-1.09535 0.3723,-0.60245 0.098,-2.17745 -0.61,-3.5 -1.112,-2.07789 -2.0113,-2.40465 -6.6179,-2.40465 -4.1739,0 -5.331,-0.34021 -5.331,-1.56739 0,-1.0185 -0.6129,-1.3905 -1.75,-1.06228 -12.6609,3.65436 -26.7653,8.39319 -32.0852,10.78003 -6.5772,2.95101 -6.739,2.97034 -19.0029,2.27166 -9.0869,-0.51769 -12.5628,-0.39143 -13.0988,0.47581 -0.4013,0.64927 -5.6421,4.19409 -11.6464,7.87738 l -10.9167,6.6969 -21.8023,0.31848 c -17.8822,0.26121 -21.9021,0.57837 -22.357,1.76394 -0.4626,1.20542 -4.5658,1.44547 -24.7072,1.44547 -23.2227,0 -24.2015,-0.0785 -25.4257,-2.0388 -0.7003,-1.12134 -1.7085,-1.76979 -2.2405,-1.44099 -0.5321,0.3288 -0.9673,-0.52341 -0.9673,-1.89381 0,-2.59298 -0.1154,-2.65982 -8,-4.6342 -12.2199,-3.05996 -12,-2.96037 -12,-5.43514 0,-1.9247 -1.0256,-2.7909 -5.5,-4.64546 -3.025,-1.2538 -5.5,-2.64682 -5.5,-3.09561 0,-0.4488 -20.1375,-0.86193 -44.75,-0.91809 -24.6125,-0.0562 -57.35,-0.42636 -72.75,-0.82268 l -28,-0.72058 -6.75,-3.18727 c -4.2396,-2.00187 -6.8137,-3.83444 -6.9211,-4.92733 -0.094,-0.95702 -0.2144,-2.64004 -0.2674,-3.74004 -0.09,-1.86956 -0.8942,-2.01831 -12.329,-2.28078 -10.8746,-0.24961 -14.7397,-1.13326 -10.9825,-2.51089 3.6088,-1.32322 -4.7412,-3.889 -22.5,-6.91383 l -6.75,-1.14971 0,-25.69459 0,-25.694579 4.25,-0.63598 c 8.4708,-1.26758 15.6476,-4.00153 15.9576,-6.07892 0.2079,-1.39335 1.4427,-2.19712 4.2751,-2.78272 4.8325,-0.99914 6.3787,-2.29653 4.7173,-3.958 -0.66,-0.66 -1.2,-1.56 -1.2,-2 0,-0.44 5.6197,-0.8 12.4882,-0.8 11.2827,0 12.474,-0.16893 12.3415,-1.75 -0.513,-6.12232 0.046,-7.04548 5.9203,-9.7793 3.1625,-1.47175 7.0333,-3.06146 8.6017,-3.53269 1.5685,-0.47123 34.756,-0.9144 73.75,-0.98483 l 70.8983,-0.12804 0,-3.22856 c 0,-2.97041 0.4397,-3.41082 5.5,-5.50818 4.4474,-1.84334 5.5,-2.72687 5.5,-4.61662 0,-2.40582 0.2324,-2.53813 7.75,-4.41226 11.2573,-2.80644 12.25,-3.18631 12.25,-4.68777 0,-0.85314 0.9571,-2.32623 2.127,-3.27353 2.3623,-1.91289 1.8857,-6.09822 -0.6944,-6.09822 -0.8585,0 -1.4326,-0.99419 -1.4326,-2.48095 0,-1.88717 -0.6582,-2.63165 -2.75,-3.11064 -15.9656,-3.65578 -16.742,-3.95415 -17.0507,-6.5519 -0.2398,-2.01786 -1.4047,-2.98806 -5.75,-4.78912 -5.039,-2.08854 -5.4493,-2.50662 -5.4493,-5.55241 l 0,-3.2938 -71.693,-0.162 -71.6931,-0.162 -7.3051,-3.04115 c -4.0179,-1.67264 -7.5547,-3.44481 -7.8596,-3.93816 -0.3049,-0.49335 -0.6263,-2.7017 -0.7143,-4.90743 l -0.1599,-4.01044 -12.2875,0 c -7.525,0 -12.2875,-0.38759 -12.2875,-1 0,-0.55 0.45,-1 1,-1 0.55,0 1,-0.60277 1,-1.33948 0,-1.61413 -4.1803,-3.66052 -7.4775,-3.66052 -1.6619,0 -2.4802,-0.64228 -2.703,-2.12174 -0.2455,-1.62991 -1.7104,-2.55044 -6.3195,-3.97115 -3.3,-1.01717 -7.6875,-2.10778 -9.75,-2.42357 l -3.75,-0.57417 0,-25.77007 0,-25.77007 6.75,-1.05137 c 11.1305,-1.73366 23.25,-4.54912 23.25,-5.40117 0,-0.43926 -0.45,-1.07677 -1,-1.41669 -2.8268,-1.74707 0.1369,-2.46454 11.2325,-2.71922 11.4348,-0.26247 12.2389,-0.41122 12.329,-2.28078 0.053,-1.1 0.1733,-2.72088 0.2674,-3.60196 0.1,-0.93469 3.191,-3.01349 7.4211,-4.9907 l 7.25,-3.38873 27.5,-0.65946 c 15.125,-0.3627 47.6375,-0.70439 72.25,-0.75931 24.6125,-0.0549 44.75,-0.45078 44.75,-0.8797 0,-0.42892 2.3043,-1.66642 5.1207,-2.75 2.8164,-1.08358 5.3239,-2.64514 5.5722,-3.47014 1.1008,-3.65813 2.4238,-4.44211 10.8497,-6.42945 7.0747,-1.66866 9.0144,-2.50895 9.3078,-4.03224 0.2038,-1.05836 1.4263,-2.75476 2.7167,-3.76976 2.1304,-1.67578 4.5203,-1.84547 25.9907,-1.84547 17.8221,0 24.0269,0.31728 25.1971,1.28846 1.1533,0.95706 6.9787,1.30369 22.6488,1.34766 l 21.0963,0.0592 4.5,3.04515 c 2.475,1.67483 7.5375,4.72442 11.25,6.77687 3.7125,2.05245 6.75,4.20272 6.75,4.77838 0,0.70129 4.3722,0.88228 13.25,0.54851 12.6668,-0.47623 13.47,-0.3875 18.25,2.01612 2.75,1.38285 21.2,7.5529 41,13.71123 l 36,11.19696 0.9568,3.1542 0.9568,3.15419 20.2897,0 20.2898,0 -0.2932,-4.67043 c -0.3005,-4.78663 -0.8919,-5.51276 -5.9499,-7.30542 l -2.75,-0.97465 0,-19.99616 0,-19.99616 3.25,-0.84316 3.25,-0.84317 0,-19.25527 c 0,-16.93372 0.201,-19.36781 1.6671,-20.18873 1.4183,-0.79414 1.615,-2.38826 1.3181,-10.68016 -0.192,-5.36068 -0.3922,-9.74669 -0.445,-9.74669 -0.1226,0 -0.2244,-32.60942 -0.1194,-38.25 0.07,-3.76998 0.3442,-4.25 2.4255,-4.25 2.0642,0 5.8469,-1.38996 10.6537,-3.91469 0.825,-0.43332 1.6375,-2.3945 1.8057,-4.35818 0.446,-5.2094 2.9136,-5.72713 27.2964,-5.72713 23.8144,0 25.6366,0.40948 26.0957,5.8642 0.2736,3.25129 0.7276,3.74734 4.8022,5.24709 2.475,0.91098 4.5562,2.15862 4.625,2.77252 0.069,0.61391 0.1812,2.69119 0.25,4.61619 0.1,2.79167 0.5297,3.5 2.125,3.5 1.7053,0 2,-0.66667 2,-4.52475 0,-4.03315 0.2987,-4.63065 2.75,-5.4994 4.88768,-1.7323 5.74467,-2.6166 6.05565,-6.24872 0.44631,-5.21262 2.90727,-5.72714 27.39319,-5.72714 23.17682,0 26.77548,0.72812 26.27191,5.31559 -0.36921,3.36342 0.54746,4.44949 5.0774,6.01565 l 3.95181,1.36628 0.28275,11.15124 c 0.21492,8.47603 0.60214,11.15124 1.61408,11.15124 2.16517,0 2.60317,7.16442 2.60317,42.58055 0,20.65375 0.37194,33.53129 0.97933,33.90668 0.53864,0.33289 1.89265,0.11647 3.00892,-0.48094 1.59162,-0.85181 2.56037,-0.69994 4.48924,0.70375 l 2.45966,1.78996 0.0314,27.25 0.0314,27.25 4.33948,0 c 3.65837,0 4.51828,0.3924 5.47857,2.5 0.94779,2.08019 1.83372,2.5 5.27573,2.5 l 4.13667,0 -0.7005,-5.75 c -0.80673,-6.62197 -0.80268,-6.61621 -5.77995,-8.20675 l -3.75,-1.19835 0,-19.89386 0,-19.89386 3.25,-0.84142 3.25,-0.84143 0.27114,-19.68717 c 0.21854,-15.86758 0.53685,-19.68716 1.64068,-19.68716 1.12623,0 1.36713,-4.84144 1.35591,-27.25 -0.0196,-39.16426 -0.32829,-35.75 3.23227,-35.75 1.65,0 3,-0.41425 3,-0.92054 0,-0.5063 1.4625,-1.23327 3.25,-1.61548 4.54077,-0.97092 5.75,-2.21714 5.75,-5.92591 0,-5.0566 2.25149,-5.53807 25.89783,-5.53807 24.25062,0 27.10217,0.57609 27.10217,5.47538 0,3.76074 1.19556,5.01488 5.69799,5.97718 2.98398,0.63776 3.2182,0.99682 3.5,5.36547 0.25251,3.91463 0.62979,4.68197 2.30201,4.68197 1.62313,0 2.09422,-0.83333 2.5,-4.42235 0.43505,-3.84791 0.88968,-4.54729 3.5,-5.38427 4.45585,-1.42873 5.5,-2.59729 5.5,-6.15531 0,-5.0566 2.25149,-5.53807 25.89783,-5.53807 24.49681,0 26.8531,0.50312 27.29648,5.82841 0.2772,3.32937 0.70182,3.80853 4.55569,5.14076 3.87817,1.34063 4.26009,1.77807 4.36535,5 0.0634,1.94195 0.2199,3.98083 0.34769,4.53083 0.12778,0.55 0.30087,4.0375 0.38465,7.75 0.11882,5.26564 0.48217,6.75 1.65231,6.75 0.825,0 1.50895,0.1125 1.51989,0.25 0.0109,0.1375 0.2957,17.35 0.6328,38.25 0.3371,20.9 0.79861,38.20797 1.02559,38.46215 0.22697,0.25417 1.32967,-0.11053 2.45045,-0.81047 1.68982,-1.05531 2.45043,-1.00222 4.45452,0.31091 2.8872,1.89177 2.64303,-0.77705 2.7939,30.53741 l 0.12285,25.5 3.11372,0.30319 c 2.16195,0.21052 3.4545,1.05112 4.22856,2.75 0.96859,2.12582 1.7777,2.44681 6.16767,2.44681 5.85911,0 6.24071,-0.54691 5.21221,-7.47023 -0.70437,-4.74148 -0.92208,-5.02175 -4.73026,-6.08954 l -3.9919,-1.1193 -0.2706,-20.12654 -0.27059,-20.12653 3.27059,-0.84677 3.2706,-0.84676 0.27114,-19.68717 c 0.21785,-15.81766 0.53895,-19.68716 1.63368,-19.68716 1.12174,0 1.3188,-4.63918 1.11501,-26.25 -0.13615,-14.4375 -0.0218,-28.6125 0.254,-31.5 0.43562,-4.56007 0.78569,-5.25 2.66385,-5.25 1.18928,0 2.58982,-0.39564 3.11232,-0.8792 0.5225,-0.48356 2.6375,-1.41845 4.7,-2.07755 3.47079,-1.10913 3.75,-1.48312 3.75,-5.02298 0,-3.39078 0.35722,-3.94915 3.14922,-4.92244 1.89796,-0.66164 11.45351,-1.09783 24.04966,-1.09783 24.25046,0 26.80112,0.61312 26.80112,6.44235 0,3.10139 0.36295,3.51148 4.25,4.80197 4.00901,1.33098 4.27835,1.66175 4.75,5.83333 0.40578,3.58902 0.87687,4.42235 2.5,4.42235 1.66728,0 2.04973,-0.76631 2.29893,-4.60637 0.28645,-4.41416 0.46379,-4.65577 4.24997,-5.79014 3.6046,-1.07997 3.9511,-1.4849 3.9511,-4.61795 0,-5.87873 2.5076,-6.48554 26.8011,-6.48554 24.3532,0 27.1989,0.57287 27.1989,5.47538 0,3.77087 1.194,5.01442 5.75,5.9886 l 3.25,0.69493 0,10.79857 c 0,9.65623 0.2106,10.94371 1.991,12.17055 1.9239,1.32574 1.9953,2.62965 2.1191,38.69908 0.1061,30.90422 0.368,37.41912 1.5218,37.86187 0.7665,0.29412 2.0327,0.004 2.8139,-0.64401 1.1085,-0.92 1.9839,-0.80955 3.9873,0.50314 l 2.5669,1.68191 0,28.8596 0,28.85959 15.75,0.2754 15.75,0.27539 2.1591,8.5 c 2.7784,10.9375 2.8278,13.85284 0.2808,16.56397 -1.6987,1.80816 -1.9076,2.78438 -1.1909,5.56445 0.6086,2.36085 1.526,3.46738 3.0601,3.69113 1.205,0.17575 2.1914,-0.0492 2.1921,-0.5 7e-4,-0.45075 1.0656,-2.05705 2.3664,-3.56955 1.9994,-2.32478 3.146,-2.75 7.4154,-2.75 2.7777,0 5.2003,0.40555 5.3837,0.90122 0.5183,1.40149 15.8333,2.57794 15.8333,1.21627 0,-0.61462 1.35,-1.11749 3,-1.11749 2.1093,0 3,-0.48511 3,-1.63398 0,-0.89869 0.5212,-3.37369 1.1583,-5.5 1.0443,-3.48568 1.487,-3.86602 4.5,-3.86602 2.9741,0 3.3439,-0.30255 3.3614,-2.75 0.011,-1.5125 0.6701,-6.35 1.4651,-10.75 1.0146,-5.6158 1.4558,-15.87282 1.4803,-34.41667 0.019,-14.52916 0.2334,-26.21815 0.4761,-25.97551 0.2426,0.24263 0.7009,13.81019 1.0184,30.15012 0.3175,16.33993 1.019,30.87071 1.5589,32.29061 0.5398,1.41991 0.9815,4.57735 0.9815,7.01655 l 0,4.4349 4,0 c 3.95365,0 4.00015,-0.0435 4.01085,-3.75 0.01,-2.0625 0.6752,-5.93982 1.4872,-8.61627 0.812,-2.67644 1.2216,-5.27834 0.9104,-5.78198 -0.5811,-0.94027 0.5998,-28.17686 1.1959,-27.58082 0.1821,0.18215 0.599,7.73321 0.9263,16.78013 0.3274,9.04692 1.0169,16.87644 1.5323,17.39894 0.5154,0.5225 0.9371,3.335 0.9371,6.25 0,5.20825 0.051,5.3 2.9648,5.3 1.8116,0 3.3328,0.68765 3.9109,1.76783 0.8344,1.55897 2.4926,1.75828 14.0352,1.68698 10.1807,-0.0629 13.0891,0.21091 13.0891,1.23217 0,0.72216 0.699,1.31302 1.5534,1.31302 2.3319,0 8.4465,5.24845 8.4466,7.25 0,0.9625 -0.45,1.75 -1,1.75 -1.8624,0 -1.1204,7.4524 0.9155,9.19561 2.2801,1.95226 3.0845,1.39149 3.0845,-2.15017 0,-1.89294 2.1533,-4.91411 7.75,-10.87365 l 7.75,-8.25243 12,-3.08546 c 11.9204,-3.06499 12.1586,-3.08418 35.8909,-2.89091 l 23.8909,0.19457 -0.5457,-4.06878 c -0.5382,-4.01259 -0.5022,-4.0689 2.6091,-4.07747 1.7351,-0.005 5.5173,-0.29246 8.4048,-0.63929 4.9629,-0.59612 5.25,-0.78704 5.25,-3.49131 0,-1.93398 0.5091,-2.86071 1.5714,-2.86071 0.8643,0 2.2854,-0.71393 3.158,-1.5865 1.4486,-1.44868 1.3338,-1.79306 -1.3215,-3.96404 -2.3699,-1.93764 -4.0859,-2.38419 -9.2745,-2.4135 -5.8049,-0.0328 -6.3218,-0.2075 -5.8583,-1.97998 0.3971,-1.51837 -0.07,-2.01102 -2.1334,-2.25 -3.6527,-0.42307 -3.7805,-4.30598 -0.1417,-4.30598 2.0186,0 2.4398,-0.43324 2.1871,-2.25 -0.3021,-2.17316 -0.038,-2.25 7.75,-2.25 4.4346,0 8.056,-0.3375 8.0476,-0.75 -0.027,-1.33996 -1.8905,-3.75675 -2.6982,-3.5 -0.4326,0.1375 -0.9067,-0.11054 -1.0536,-0.55119 -0.1468,-0.44066 1.4282,-0.60102 3.5,-0.35637 3.0676,0.36223 3.3957,0.59079 1.7671,1.23091 -1.1,0.43234 -1.4375,0.81771 -0.75,0.85636 0.6875,0.0387 1.25,0.74529 1.25,1.57029 0,0.825 0.3975,1.5 0.8834,1.5 0.4858,0 1.1187,0.9 1.4063,2 0.7726,2.95423 2.4572,2.42903 3.2105,-1.00094 0.8204,-3.73526 3.3527,-4.48511 12.3549,-3.65843 6.375,0.58542 9.0957,2.07531 10.316,5.64926 0.4301,1.2595 4.1573,1.68749 22.8289,2.62136 16.7406,0.83729 16.9469,0.94309 3.7466,1.92063 -4.8411,0.3585 -8.502,1.05491 -8.1909,1.55817 0.3093,0.50047 1.5984,0.90995 2.8646,0.90995 1.9166,0 2.2223,0.41886 1.8245,2.5 -0.2629,1.375 -1.0523,2.5 -1.7544,2.5 -0.702,0 -1.5604,0.74011 -1.9076,1.6447 -0.5392,1.40521 -1.7196,1.55268 -8.1069,1.01275 -7.0052,-0.59216 -7.4759,-0.50683 -7.4759,1.3553 0,1.32058 0.6709,1.98725 2,1.98725 1.5556,0 2,0.66667 2,3 l 0,3 13.8491,0 c 7.617,0 17.2791,0.28994 21.4713,0.64431 l 7.6222,0.64431 -1.6141,3.10569 c -3.5406,6.8125 -3.9784,6.2914 5.434,6.46712 4.726,0.0882 8.7913,0.35908 9.0341,0.60188 0.2428,0.2428 1.13,-0.24706 1.9715,-1.08858 0.9457,-0.94566 2.3325,-1.28247 3.631,-0.88186 1.1555,0.3565 7.7259,0.8948 14.6009,1.19623 7.7446,0.33957 13.0707,1.02205 14,1.79397 0.9945,0.82601 10.7681,1.81106 29,2.92279 15.125,0.92228 32.142104,2.1512 37.815804,2.73092 8.7857,0.8977 10.5657,0.83193 12,-0.44343 1.3897,-1.23559 3.4331,-1.36226 11.6842,-0.72426 5.5,0.42527 11.35,1.45488 13,2.28804 2.227,1.12452 10.8585,1.93323 33.5,3.13872 16.7750003,0.89315 34.2142,1.84721 38.7538,2.12015 8.7642,0.52694 12.2462,-0.52202 12.2462,-3.68916 0,-0.93064 -0.9,-1.97771 -2,-2.32684 -1.1858,-0.37635 -2.0074,-1.52333 -2.0181,-2.81739 -0.01,-1.20043 -1.3232,-4.54975 -2.9183,-7.44292 -2.6092,-4.73257 -2.7459,-5.41453 -1.3628,-6.79761 1.8582,-1.85823 2.1589,-1.63529 -5.2008,-3.85604 -3.3,-0.99576 -6.5085,-2.22025 -7.1301,-2.72109 -0.6215,-0.50085 -5.0370997,-2.23132 -9.81249971,-3.8455 -8.52229999,-2.88074 -8.95789999,-2.92355 -23.61990029,-2.32169 -13.6352,0.55972 -14.9375,0.46489 -14.9375,-1.08761 0,-1.36962 -0.6329,-1.58928 -3.25,-1.12813 -5.7979,1.02158 -30.6533,0.2598 -34.0498,-1.04358 -1.3325,-0.51132 -1.7002,-1.91925 -1.7002,-6.51025 0,-7.00914 1.0965,-7.92819 9.459,-7.92819 4.9804,0 5.6901,-0.26183 6.5026,-2.39909 1.0893,-2.86497 4.7235,-5.60091 7.4399,-5.60091 2.1368,0 7.3073,1.54222 12.2496,3.65373 1.7332,0.74045 4.0892,1.34627 5.2357,1.34627 1.1465,0 4.0035,0.43171 6.3488,0.95936 2.3454,0.52765 8.6951,1.40072 14.1104,1.94015 7.5462003,0.7517 10.1665003,1.40352 11.2182003,2.79064 0.8162,1.07654 1.3851,1.30338 1.404,0.55985 0.045,-1.76157 13.8257997,-1.70645 15.9530997,0.0638 2.1398,1.78072 39.0029,0.82521 41.2857,-1.07015 2.2286,-1.8503 1.1251,-6.23959 -1.5736,-6.25896 -2.2957,-0.0165 -6.0932,-1.94231 -3.8834,-1.96938 0.6875,-0.008 1.25,-0.84011 1.25,-1.84819 0,-1.30804 0.6443,-1.76142 2.25,-1.58333 1.2375,0.13725 2.25,0.3511 2.25,0.47522 0,0.20471 5.0766,0.64404 9.903,0.85702 1.7259,0.0762 1.6794,0.27893 -0.5,2.17909 -2.6014,2.2681 -2.6486,4.63919 -0.129,6.48155 2.5258,1.84697 14.4112,0.56595 16.0327,-1.72803 0.8833,-1.24965 2.5493,-1.84864 5.1416,-1.84864 4.61162,-0.0748 5.251319,1.42004 8.0517,1.83468 1.375,0.18407 2.9275,0.74657 3.45,1.25 1.4184,1.36665 2.55,1.10719 2.55,-0.58468 0,-1.19789 1.486996,-1.5 7.383396,-1.5 6.7625,0 7.4479,0.1892 8.1516,2.25 0.6982,2.04477 0.8059,1.95356 1.18,-1 0.4108,-3.24254 3.285,-4.77371 3.285,-1.75 0,1.17619 1.3737,1.5 6.3636,1.5 5.5128,0 6.7098,0.34615 8.9524,2.58877 1.6476,1.64756 4.1457,2.7976 6.871,3.16313 2.3552,0.3159 4.8236,1.11588 5.4855,1.77773 0.9378,0.93783 -0.02,1.32964 -4.3406,1.77557 -4.6,0.47476 -6.031,1.11765 -8.4039,3.77547 -2.7592,3.09051 -3.0723,3.18402 -8.894,2.65613 -4.7755,-0.43303 -6.034,-0.25407 -6.034,0.85803 0,0.77284 -0.675,1.40517 -1.5,1.40517 -1.0064,0 -1.5,-1.00656 -1.5,-3.05902 0,-1.7847 -0.4166,-2.80156 -1,-2.44098 -0.55,0.33992 -1,1.39148 -1,2.33679 0,1.47224 -1.0757,1.71877 -7.5,1.71877 -6.4243,0 -7.499996,-0.24653 -7.499996,-1.71877 0,-3.53715 -2.3535,-3.11316 -5.9171,1.06602 -3.513,4.11975 -3.7259,4.21128 -9.0901,3.90787 -4.8227,-0.27278 -5.5318,-0.58515 -5.8124,-2.56068 -0.2681,-1.88806 -0.9384,-2.25 -4.1666,-2.25 -2.1666,0 -4.0473,-0.54604 -4.3055,-1.25 -0.3666,-1 -0.7233,-1 -1.7833,0 -0.9681,0.9133 -6.6583,1.25 -21.125,1.25 -10.89,0 -19.8,0.3907 -19.8,0.86822 0,0.47753 2.7667,1.64454 6.1483,2.59336 3.3816,0.94881 7.7691,2.5105 9.75,3.4704 1.9809,0.9599 5.8446,2.83039 8.586,4.15665 5.7941,2.80318 7.6042,6.18918 5.8265,10.899 -0.8147,2.15835 -0.8032,3.03769 0.044,3.38512 0.6297,0.25815 0.1528,0.50488 -1.0598,0.5483 -1.6974,0.0608 -2.3533,0.8713 -2.8507,3.5226 -0.47,2.50551 -1.2316,3.5271 -2.7953,3.75 -2.6457,0.37711 -3.487,4.27091 -1.1191,5.17957 0.8998,0.34528 9.1361,-0.54356 18.3029,-1.9752 15.0891,-2.35657 18.3236,-2.5421 34.166896,-1.95983 9.625,0.35374 26.95,0.86902 38.5,1.14507 l 21,0.50191 16.5,-6.07755 16.5,-6.07754 3.6745,4.28496 3.6744,4.28496 13.8256,0.008 c 7.604,0.005 14.838,0.37243 16.0755,0.81739 3.0855,1.10943 2.9183,-0.84178 -0.25,-2.91771 -2.7878,-1.82663 -3.6473,-6.78552 -1,-5.76967 0.9498,0.36449 1.5,-0.0138 1.5,-1.03138 0,-0.88385 -0.45,-1.60699 -1,-1.60699 -0.55,0 -1,-0.6346 -1,-1.41023 0,-1.04719 2.182,-1.59199 8.4758,-2.11626 9.7542,-0.81252 11.2457,-0.46628 11.6966,2.71534 0.3139,2.21465 0.6356,2.29621 7.7032,1.9534 6.0128,-0.29164 7.2208,-0.10732 6.538,0.99752 -1.1923,1.92928 -1.4336,6.86023 -0.3356,6.86023 0.5071,0 0.922,0.45 0.922,1 0,0.55 -2.025,1 -4.5,1 -2.475,0 -4.5,-0.42862 -4.5,-0.95249 0,-0.97558 -5.7525,-0.62832 -6.7908,0.40993 -0.3167,0.31674 -0.043,1.10839 0.6075,1.75923 0.6508,0.65083 1.1833,1.95378 1.1833,2.89543 0,1.2126 1.1447,1.9055 3.9236,2.375 l 3.9236,0.66289 0.3264,7.50104 0.3264,7.50105 -3.25,2.00552 c -3.7406,2.30823 -4.0822,3.84159 -1.25,5.61033 1.2979,0.81056 2,2.33202 2,4.33416 0,2.24415 -0.5452,3.22772 -2,3.60816 -1.1069,0.28947 -2,1.36402 -2,2.40638 0,1.18072 -0.7057,1.88337 -1.8916,1.88337 -1.18,0 -2.1259,0.93361 -2.5145,2.48181 -1.1743,4.67876 -4.8276,5.51819 -24.0156,5.51819 l -17.5211,0 -0.8365,-3.25 c -0.731,-2.84047 -1.3016,-3.28911 -4.5285,-3.56037 -2.1301,-0.17905 -3.6922,0.13827 -3.6922,0.75 0,0.58321 0.7875,1.06726 1.75,1.07568 1.4372,0.0126 1.4934,0.17771 0.3143,0.92379 -1.1898,0.7529 -1.2117,1.17839 -0.1276,2.48468 1.12,1.34949 1.0074,1.57622 -0.7829,1.57622 -1.4548,0 -1.9146,0.45983 -1.5111,1.51134 0.415,1.08145 0.1216,1.33546 -1.0314,0.89301 -1.099,-0.42172 -1.6113,-0.0684 -1.6113,1.11111 0,1.42389 -0.265,1.50949 -1.5,0.48454 -1.2419,-1.03068 -1.5052,-0.9227 -1.5304,0.62756 -0.03,1.82842 -0.056,1.82848 -1.1168,0.002 -0.8869,-1.52639 -1.2627,-1.61826 -2.0458,-0.5 -0.7433,1.0616 -1.0734,1.08861 -1.4665,0.11998 -0.7469,-1.84084 -2.3226,-1.52012 -2.4565,0.5 -0.1105,1.66667 -0.1378,1.66667 -0.5733,0 -0.6191,-2.36898 -2.0306,-2.20789 -2.834,0.32344 -0.7279,2.29328 1.7556,4.83991 4.7733,4.89476 0.9874,0.0179 1.7505,0.7944 1.7512,1.7818 7e-4,0.9625 1.1346,3.06791 2.5199,4.67869 1.6348,1.90092 2.1353,3.16566 1.4261,3.60395 -0.6703,0.41426 -0.8384,2.03061 -0.4348,4.18167 0.5079,2.70753 0.2932,3.6463 -0.9423,4.12042 -0.8801,0.33771 -2.0322,1.75055 -2.5604,3.13964 -0.5643,1.48441 -1.7478,2.52563 -2.8706,2.52563 -1.0508,0 -3.1757,0.65641 -4.7221,1.45869 -1.8837,0.97724 -3.2028,1.13407 -3.9967,0.47515 -0.6518,-0.54094 -2.6666,-0.87064 -4.4774,-0.73267 -1.9099,0.14554 -3.4638,-0.2639 -3.7009,-0.97515 -0.4383,-1.31479 -5.242,-1.73801 -5.242,-0.46184 0,0.42031 -6.797,0.88521 -15.1045,1.03311 -11.6684,0.20775 -15.4383,0.60263 -16.5715,1.73582 -0.8068,0.80679 -2.3347,1.46689 -3.3954,1.46689 -3.1998,0 -2.1822,1.6988 2.3242,3.88033 3.6167,1.75082 6.3837,2.08394 18.5,2.22721 7.836,0.0927 14.2472,0.46061 14.2472,0.81766 0,1.28255 3.8915,0.9104 5.0477,-0.48271 0.7476,-0.9008 2.085,-1.1963 3.6438,-0.80508 1.3544,0.33995 3.5486,0.0369 4.8758,-0.67344 2.0534,-1.09894 2.6874,-1.04343 4.2517,0.37225 1.0112,0.91508 3.0405,1.66378 4.5097,1.66378 1.9787,0 2.6713,0.50389 2.6713,1.9433 0,1.06881 0.9223,2.58927 2.0495,3.3788 1.5578,1.09114 1.8908,2.06742 1.3883,4.06969 -0.3704,1.47566 -0.1719,3.22364 0.4512,3.97446 0.8496,1.02376 0.5218,1.97748 -1.3883,4.03853 -1.3754,1.48405 -2.5007,3.34404 -2.5007,4.13332 0,0.78928 -1.575,2.09314 -3.5,2.89745 -3.5652,1.48965 -3.9675,2.18253 -2.893,4.98266 0.8124,2.11711 2.3644,2.01306 2.509,-0.16821 0.1105,-1.66667 0.1378,-1.66667 0.5733,0 0.2516,0.9625 0.8744,1.75 1.384,1.75 0.5097,0 0.941,-0.7875 0.9585,-1.75 0.03,-1.63433 0.123,-1.62972 1.4113,0.0698 1.3339,1.7597 1.4144,1.7597 2.4378,0 0.6771,-1.16434 1.0692,-1.33102 1.0887,-0.46278 0.018,0.79061 0.6565,1.11674 1.5304,0.78138 0.9422,-0.36155 1.5,0.0103 1.5,1 0,1.03809 0.5497,1.36466 1.6113,0.95728 1.153,-0.44245 1.4464,-0.18844 1.0314,0.89301 -0.3677,0.9582 0,1.51134 1.0111,1.51134 1.2519,0 1.3429,0.29905 0.4269,1.40275 -0.894,1.07717 -0.8644,1.52371 0.1276,1.92387 1.0113,0.40798 0.9721,0.74307 -0.1803,1.54345 -1.2756,0.886 -1.252,1.10674 0.1773,1.65522 3.469,1.3312 6.1495,0.0796 7.0142,-3.27529 l 0.8377,-3.25 17.9243,0 c 19.7664,0 22.5539,0.6082 23.5488,5.13814 0.4256,1.93754 1.2489,2.86186 2.5492,2.86186 1.0563,0 1.9205,0.56675 1.9205,1.25945 0,0.6927 0.9,1.82152 2,2.50848 1.2739,0.79556 2,2.33202 2,4.23207 0,1.90005 -0.7261,3.43651 -2,4.23207 -2.7712,1.73066 -2.5062,3.03767 1.0406,5.13285 3.0139,1.78036 3.0381,1.86318 2.75,9.430999 l -0.2906,7.63487 -3.75,0.88395 c -2.6334,0.62074 -3.75,1.42506 -3.75,2.70127 0,0.99953 -0.5297,1.99388 -1.1771,2.20967 -0.6923,0.23079 -0.8454,0.92884 -0.3718,1.69517 0.7764,1.25629 6.8963,0.98701 13.2989,-0.58517 1.6297,-0.40019 2.25,-0.1091 2.25,1.05591 0,0.88463 -0.3815,1.60841 -0.8478,1.60841 -1.3239,0 -1.1646,5.97774 0.1647,6.18016 0.6507,0.0991 -2.1877,0.43659 -6.3075,0.75 -6.4586,0.49133 -7.5422,0.84539 -7.8657,2.56984 -0.2063,1.1 -0.8081,2.27326 -1.3374,2.60724 -1.1057,0.69771 -16.4968,0.2021 -17.7485,-0.57151 -1.1844,-0.73202 -2.2749,-7.27639 -1.5782,-9.47147 0.3227,-1.01658 1.4717,-2.07978 2.5535,-2.36267 1.0818,-0.28289 1.9669,-1.01505 1.9669,-1.62702 0,-0.7336 -0.9369,-0.85066 -2.75,-0.34362 -2.8738,0.80367 -6.6515,0.7405 -16.8427,-0.28165 -8.6465,-0.86722 -13.2807,0.66324 -16.6943,5.51331 -2.5706,3.65247 -2.9975,3.87876 -5.5,2.91573 -1.4921,-0.57423 -8.9614,-3.29182 -16.5984,-6.03908 l -13.8854,-4.99503 -24.1146,0.67626 c -13.263,0.37194 -32.6646,0.75211 -43.114596,0.84482 -24.0045,0.21295 -25.3409,0.80133 -15.9626,7.02814 3.5901,2.38368 5.2785,4.10386 4.8014,4.89158 -0.4048,0.66823 -2.416,3.88269 -4.4692,7.14323 -3.3915,5.38548 -3.6022,6.11544 -2.3014,7.97251 2.1666,3.09334 1.8782,7.59923 -0.4864,7.59923 -2.9805,0 -5.0818,1.07797 -5.0818,2.60699 0,0.81921 1.0298,1.39301 2.5,1.39301 1.375,0 2.5,-0.45 2.5,-1 0,-0.55 2.475,-1 5.5,-1 4.0784,0 5.5,0.36616 5.5,1.41667 0,0.77916 -0.4301,1.56666 -0.9557,1.75 -0.5801,0.20232 -0.6279,1.77889 -0.1216,4.01129 l 0.8342,3.67797 -5.3296,-0.20349 c -4.6487,-0.1775 -5.487,0.0907 -6.5619,2.09902 -1.3953,2.60712 -3.8692,3.44934 -10.0707,3.4284 -10.5188,-0.0355 -12.7947,-0.60453 -12.7947,-3.19891 0,-1.08952 0.45,-1.98095 1,-1.98095 0.55,0 1,-0.45 1,-1 0,-0.55 -0.675,-1 -1.5,-1 -2.4004,0 -1.7314,-3.61839 1,-5.40804 2.9193,-1.91283 3.2278,-4.04378 0.75,-5.1816 -0.9625,-0.44199 -13.5892,-0.97904 -28.0594,-1.19344 l -26.30949971,-0.38983 0.6886,6.08645 0.68860001,6.08646 -5.1291,0 c -4.4625,0 -5.1292,0.25995 -5.1292,2 0,1.66667 -0.6667,2 -4.0000003,2 -2.8889,0 -4,0.41667 -4,1.5 0,0.83333 0.8889,1.5 2,1.5 1.5556,0 2,0.66667 2,3 0,2.33333 -0.4444,3 -2,3 -3.0371,0 -2.3956,1.5844 1.3637,3.36832 2.9086,1.38019 4.4987003,1.4379 11.7500003,0.42645 4.7781,-0.66646 9.5476,-1.96327 11.0854,-3.01409 1.8930997,-1.29362 5.2451997,-1.99848 11.2259997,-2.36054 12.4337,-0.75272 14.5105,0.87474 10.6956,8.38174 -3.2287,6.35336 -5.0282,10.5978996 -5.6843,13.4070996 -0.993,4.25191 -2.7756,5.18408997 -6.3646,3.32817 -1.6895,-0.87368 -3.0718,-2.02695 -3.0718,-2.56283 0,-0.53588 -0.675,-0.97432 -1.5,-0.97432 -1.2881,0 -1.9798,-1.76084 -1.6419,-4.1795196 0.052,-0.37373 -0.9907,-0.48265 -2.3177,-0.24204 -1.3268997,0.24062 -2.6928997,-0.0161 -3.0354997,-0.57048 -0.8207,-1.32803 -18.0810003,-1.30519 -20.5706003,0.0272 -3.2842,1.7576196 -2.1777,2.6789496 4.0657003,3.3853096 3.3,0.37335 6,1.10648 6,1.62917 0,0.52269 -0.8734,0.95034 -1.941,0.95034 -1.0675,0 -2.2191,0.45 -2.559,1 -0.3399,0.55 -2.6306,1 -5.0904003,1 -3.1005,0 -4.6161,0.46012 -4.941,1.5 -1.5859,5.07631 -1.2799,4.85367 -4.1164,2.99512 -1.7885,-1.17188003 -3.8199,-1.56159003 -6.3624,-1.22058003 -5.0085,0.67179 -6.0742,-0.20212 -6.4538,-5.29245997 -0.3389,-4.54346 0.012,-4.24154 -8.786,-7.5560696 -1.8902,-0.71208 -2.3785,-3.91953 -0.75,-4.92601 0.55,-0.33992 1,-1.52447 1,-2.63234 0,-1.38588 0.546,-1.90444 1.75,-1.66215 2.4047,0.48391 5.25,-3.37121 5.25,-7.11324 0,-2.65835 0.3625,-3.09227 2.5833,-3.09227 4.0076,0 2.3412,-2.45106 -1.9106,-2.81037 -2.8613,-0.24179 -3.6727,-0.7389 -3.6727,-2.25 0,-1.66089 -0.7185,-1.93963 -5,-1.93963 l -5,0 0,-3.5 0,-3.5 -7,0 c -7.4255,0 -10.8659,-1.7422 -10.2061,-5.16825 0.3123,-1.62155 -1.1762,-3.10557 -3.4638,-3.45338 -0.6434,-0.0978 -2.1843,0.90201 -3.4243,2.22188 -2.2107,2.35322 -2.5891,2.39975 -19.5127,2.39975 -16.380104,0 -17.290604,-0.10178 -17.893104,-2 -0.3491,-1.1 -1.4355,-2 -2.4142,-2 -1.1402,0 -4.9778,-4.52227 -10.6826,-12.58863 l -8.9032,-12.58862 -5.5,0.58583 c -3.025,0.32222 -18.7677,0.86322 -34.9837,1.20223 -16.216,0.33902 -30.391,1.03459 -31.5,1.54573 -1.109,0.51114 -3.1413,1.57838 -4.5163,2.37166 -3.2155,1.85508 -6.764,1.84332 -10.3643,-0.0344 -1.5754,-0.82161 -3.502,-1.49384 -4.2814,-1.49384 -0.7794,0 -1.6325,-0.5625 -1.8958,-1.25 -0.379,-0.98977 -9.3766,-1.08921 -43.2186,-0.47767 -23.5069,0.42478 -52.8649,0.6145 -65.2399,0.42161 -20.6437,-0.32179 -23.325,-0.5725 -32.5,-3.03887 l -10,-2.68815 -7.7105,-8.21305 c -4.2408,-4.51717 -7.8408,-9.12223 -8,-10.233459 -0.1746,-1.2181 -1.183,-2.14731 -2.5395,-2.33996 -2.0171,-0.28647 -2.25,0.10171 -2.25,3.749999 0,2.23825 0.45,4.06955 1,4.06955 0.55,0 1,0.71946 1,1.59879 0,1.89253 -5.6239,7.40121 -7.5561,7.40121 -0.7395,0 -1.715,0.66202 -2.1678,1.47116 -0.6529,1.16671 -3.7934,1.52887 -15.175,1.75 l -14.3517,0.27884 5.6536,3.89126 c 3.1095,2.14019 5.895,4.28186 6.19,4.75925 0.4927,0.79716 -19.696,29.17709 -21.5872,30.34593 -0.4558,0.28169 -2.20945,-0.27727 -3.89695,-1.24214 l -3.0681,-1.7543 -4.194,4.18833 c -3.4858,3.48103 -3.9846,4.44076 -2.9535,5.68309 1.0121,1.21957 0.86,1.87527 -0.8264,3.56167 -1.9205,1.92055 -3.2239,2.06691 -18.4064,2.06691 l -16.3395,0 -1.139,-2.5 c -0.6265,-1.375 -1.9363,-2.52426 -2.9106,-2.55391 -0.9853,-0.03 -3.6531,-2.69265 -6.0116,-6 l -4.2398,-5.94524 -11.5576,0 c -11.0507,0 -11.6594,-0.10989 -13.8799,-2.50581 -1.8285,-1.97298 -3.041,-2.4126 -5.7023,-2.06749 -1.8589,0.24108 -3.9424,0.46869 -4.6299,0.50581 -0.9646,0.0521 -1.25,5.73915 -1.25,24.9125 0,22.7994496 -0.1506,24.9812696 -1.8287,26.4999996 -2.0755,1.87830997 -4.7401,2.16173 -5.7013,0.60642997 -0.4518,-0.73098997 -1.0319,-0.73001997 -1.9153,0.003 -1.319,1.09462 -1.3125,0.86819 -1.4767,51.67874043 -0.075,23.25883 -0.1505,24.15232 -2.078,24.65638 -1.8472,0.48306 -2,1.36401 -2,11.5333 l 0,11.01028 -4.25,1.41064 c -3.8799,1.287791 -4.2773,1.734691 -4.5633,5.132141 -0.2442,2.90075 -0.865,3.93129 -2.8151,4.6727 -3.2955,1.25295 -45.5024,1.23214 -48.8065,-0.0241 -2.0988,-0.79796 -2.5651,-1.63064 -2.5651,-4.58044 0,-3.27753 -0.3636,-3.74801 -4,-5.176451 -3.8125,-1.49759 -4,-1.77506 -4,-5.91955 0,-3.9713 -0.21662,-4.34808 -2.5,-4.34808 -2.28931,0 -2.5,0.37222 -2.5,4.41667 0,4.30813 -0.10444,4.45133 -4.25,5.8273 -3.87992,1.287791 -4.27728,1.734691 -4.56328,5.132141 -0.24418,2.90075 -0.86503,3.93129 -2.81509,4.6727 -3.44173,1.30854 -46.97359,1.23458 -49.43737,-0.084 -1.34451,-0.71955 -1.93426,-2.09813 -1.93426,-4.52143 0,-2.69252 -0.51227,-3.68312 -2.25,-4.35091 -1.2375,-0.47556 -3.6,-1.452341 -5.25,-2.170621 -1.65,-0.71829 -3.7875,-1.27816 -4.75,-1.24418 -2.06916,0.0731 -1.95037,2.06876 -2.12371,-35.67767 -0.0983,-21.41332 -0.40296,-27.44467 -1.37629,-27.25 -0.96659,0.19332 -1.25,-4.27427 -1.25,-19.70469 l 0,-19.9546804 -3.5,-0.65661 -3.5,-0.6566 0,-20.1695396 0,-20.16955 4.23611,-1.46916 c 3.79576,-1.31645 4.31069,-1.88497 4.95363,-5.46917 0.39464,-2.2 0.4623,-5.9125 0.15035,-8.25 l -0.56718,-4.25 -4.66814,0 c -4.66033,0 -4.67034,0.007 -5.98019,4.44363 -1.15701,3.91857 -1.68453,4.47984 -4.46435,4.75 l -3.1523,0.30637 -0.0226,27.15238 -0.0226,27.1523696 -2.44558,1.98030997 c -2.21878,1.79666003 -2.6566,1.84204003 -4.72115,0.48929 -1.88035,-1.23204997 -2.35009,-1.25509997 -2.70456,-0.13268 -0.23594,0.74708 -0.67797,17.94954043 -0.98229,38.22768043 -0.45161,30.0929 -0.81328,37.07717 -1.96778,38 -0.97238,0.77727 -1.60645,4.36454 -2.02872,11.47747 -0.65487,11.03047 -0.94352,12.15318 -3.12461,12.15318 -0.76667,0 -2.54011,0.522231 -3.94099,1.160521 -1.98137,0.90277 -2.54705,1.89437 -2.54705,4.46481 0,2.24341 -0.62102,3.63666 -1.93426,4.33949 -2.94128,1.57412 -47.23082,1.38121 -49.31864,-0.21482 -0.89934,-0.6875 -1.77285,-2.79034 -1.94113,-4.67299 -0.27228,-3.04613 -0.77388,-3.57826 -4.55597,-4.833331 -4.14561,-1.3757 -4.25,-1.51883 -4.25,-5.82701 0,-4.04445 -0.21069,-4.41667 -2.5,-4.41667 -2.28931,0 -2.5,0.37222 -2.5,4.41667 0,4.30818 -0.10439,4.45131 -4.25,5.82701 -3.78209,1.255071 -4.28369,1.787201 -4.55597,4.833331 -0.51587,5.7712 -1.21895,5.92661 -26.63516,5.88755 -25.38541,-0.039 -27.05887,-0.37657 -27.05887,-5.45816 0,-2.62325 -0.68043,-3.33928 -5.5,-5.787811 -3.025,-1.53682 -6.2875,-2.59433 -7.25,-2.35002 -2.1077,0.53498 -2.02789,1.96871 -1.95842,-35.18014 0.0425,-22.71639 -0.18806,-27.40334 -1.37025,-27.85699 -1.16067,-0.44539 -1.42133,-4.09361 -1.42133,-19.89312 l 0,-19.3476904 -3.52034,-0.66042 -3.52034,-0.66042 0.27034,-20.0522896 0.27034,-20.05229 4.11526,-1.37103 c 3.93453,-1.31081 4.14077,-1.58645 4.69624,-6.27647 0.31954,-2.698 0.32129,-6.50571 0.004,-8.46158 -0.51944,-3.20032 -0.89244,-3.55613 -3.72803,-3.55613 -2.87082,0 -3.26892,0.39992 -4.47953,4.5 -1.31337,4.44811 -1.37931,4.5 -5.71832,4.5 l -4.38962,0 0,27.43191 0,27.4318996 -2.83506,2.01874997 c -2.63999,1.87983003 -2.94914,1.90467003 -4.49286,0.36095 -1.05441,-1.05441997 -2.00432,-1.30942997 -2.60987,-0.70065 -0.55735,0.56032 -1.07855,16.42995043 -1.25714,38.27829043 -0.28052,34.31771 -0.4459,37.3999 -2.05507,38.29969 -1.49937,0.83839 -1.75,2.53573 -1.75,11.8513 l 0,10.87276 -3.75,1.20787 c -5.21525,1.679831 -6.2377,2.717441 -5.8615,5.948431 0.52862,4.54018 -1.97095,4.9988 -27.24442,4.9988 -25.1373,0 -25.82734,-0.1572 -26.33811,-6 -0.27538,-3.15007 -0.73089,-3.63446 -4.55598,-4.844891 -4.1533,-1.31429 -4.25,-1.44515 -4.25,-5.75 0,-3.73844 -0.3027,-4.40511 -2,-4.40511 -1.6234,0 -2.0223,0.70614 -2.1184,3.75 -0.065,2.0625 -0.074,4.06008 -0.02,4.43906 0.054,0.37898 -0.9053,0.97165 -2.1316,1.31705 -6.7791,1.909331 -7.7297,2.657031 -7.7297,6.080031 0,2.28216 -0.614,3.67209 -1.9342,4.37868 -2.5691,1.37489 -46.9475,1.33447 -49.3158,-0.0449 z M 143.92371,-130.92339 c 1.7115,-1.29333 1.7826,-1.64206 0.5,-2.45288 -1.2017,-0.75971 -1.0597,-0.94821 0.7235,-0.96052 1.5656,-0.0108 2.0479,-0.46016 1.6387,-1.52665 -0.415,-1.08145 -0.1216,-1.33546 1.0314,-0.89301 1.099,0.42172 1.6113,0.0684 1.6113,-1.11111 0,-1.46105 0.2446,-1.52643 1.5762,-0.42129 1.3063,1.08413 1.7318,1.06229 2.4847,-0.12755 0.7461,-1.17906 0.9112,-1.12288 0.9238,0.3143 0.01,0.9625 0.4323,1.75 0.942,1.75 0.5096,0 1.1324,-0.7875 1.384,-1.75 0.4355,-1.66667 0.4628,-1.66667 0.5733,0 0.064,0.9625 0.5436,1.75 1.0663,1.75 0.5227,0 1.409,-0.7875 1.9696,-1.75 0.9707,-1.66667 1.0207,-1.66667 1.0497,0 0.017,0.9625 0.4804,1.75 1.0304,1.75 1.4388,0 1.2378,-1.7889 -0.6924,-6.16398 -0.9309,-2.10981 -2.3097,-3.83602 -3.064,-3.83602 -0.9451,0 -1.2739,-1.01047 -1.0576,-3.25 l 0.314,-3.25 -12.5,0.36846 c -6.875,0.20265 -12.7342,0.737 -13.0204,1.18744 -0.959,1.50939 -6.0688,2.9441 -10.4857,2.9441 -2.4067,0 -4.654,0.45 -4.9939,1 -0.997,1.61323 -7.2093,1.19995 -7.8707,-0.52361 -0.3825,-0.99684 -1.4511,-1.36649 -3.0907,-1.06917 -1.3783,0.24994 -2.7649,0.0356 -3.0813,-0.47639 -0.3166,-0.51196 -1.9507,-0.93083 -3.631496,-0.93083 l -3.0562,0 0.7067,5.65677 c 0.3887,3.11123 0.9387,6.26123 1.2222,7 0.7365,1.91956 2.280496,1.65978 2.417496,-0.40677 0.1105,-1.66667 0.1378,-1.66667 0.5733,0 0.2516,0.9625 0.8743,1.75 1.384,1.75 0.5097,0 0.941,-0.7875 0.9585,-1.75 0.03,-1.66667 0.095,-1.66667 1.3602,0 0.7307,0.9625 1.6164,1.75 1.9682,1.75 0.3519,0 0.692,-0.7875 0.7558,-1.75 0.1105,-1.66667 0.1378,-1.66667 0.5733,0 0.2516,0.9625 0.8743,1.75 1.384,1.75 0.5097,0 0.941,-0.7875 0.9585,-1.75 0.03,-1.66667 0.095,-1.66667 1.3602,0 0.7307,0.9625 1.5834,1.75 1.8949,1.75 0.3116,0 0.7722,-0.7875 1.0238,-1.75 0.4355,-1.66667 0.4628,-1.66667 0.5733,0 0.064,0.9625 0.566,1.75 1.116,1.75 0.55,0 1.0143,-0.7875 1.0318,-1.75 0.03,-1.66667 0.095,-1.66667 1.3602,0 0.7307,0.9625 1.5834,1.75 1.8949,1.75 0.3116,0 0.7722,-0.7875 1.0238,-1.75 0.4355,-1.66667 0.4628,-1.66667 0.5733,0 0.064,0.9625 0.566,1.75 1.116,1.75 0.55,0 1.0137,-0.7875 1.0304,-1.75 0.029,-1.66667 0.079,-1.66667 1.0497,0 0.5606,0.9625 1.4139,1.75 1.8963,1.75 0.4823,0 1.0827,-0.7875 1.3343,-1.75 0.4355,-1.66667 0.4628,-1.66667 0.5733,0 0.064,0.9625 0.566,1.75 1.116,1.75 0.55,0 1.0069,-0.7875 1.0153,-1.75 0.013,-1.43718 0.1777,-1.49336 0.9238,-0.3143 0.7313,1.15569 1.2005,1.1933 2.406,0.19285 1.268,-1.05238 1.4105,-0.91013 0.9298,0.92815 -0.4848,1.85377 -0.255,2.07176 1.5724,1.49176 1.6772,-0.53233 2.0102,-0.34066 1.5394,0.88615 -0.4113,1.07191 -0.015,1.57022 1.2563,1.5807 1.4453,0.0119 1.5515,0.20883 0.4789,0.8882 -0.758,0.48009 -1.0689,1.37319 -0.691,1.98469 0.8969,1.45127 1.6481,1.36634 4.0642,-0.45949 z m 22.9216,-6.67871 c 0.4666,-1 0.7,-1 1.1666,0 0.6896,1.47779 2.4167,1.6748 2.4167,0.27568 0,-0.53588 -1.35,-1.67243 -3,-2.52568 -2.951,-1.526 -3,-1.51007 -3,0.97432 0,2.65364 1.4231,3.40483 2.4167,1.27568 z m 6.5833,-0.30902 c 0,-0.85746 -0.45,-1.2809 -1,-0.94098 -0.55,0.33992 -1,1.04148 -1,1.55902 0,0.51754 0.45,0.94098 1,0.94098 0.55,0 1,-0.70156 1,-1.55902 z m 4,0.059 c 0,-0.825 -0.661,-1.5 -1.4686,-1.5 -0.8946,0 -1.2437,0.58629 -0.893,1.5 0.3166,0.825 0.9774,1.5 1.4686,1.5 0.491,0 0.893,-0.675 0.893,-1.5 z m 3,-0.059 c 0,-0.85746 -0.45,-1.2809 -1,-0.94098 -0.55,0.33992 -1,1.04148 -1,1.55902 0,0.51754 0.45,0.94098 1,0.94098 0.55,0 1,-0.70156 1,-1.55902 z m -77.6292,-33.14524 c 0.3875,-0.38734 1.7,-0.72484 2.9167,-0.75 1.2168,-0.0252 2.3904,-0.49574 2.608,-1.04574 0.4508,-1.1393 -5.3558,-2.35708 -11.645596,-2.44237 -3.882,-0.0526 -4.25,0.15882 -4.25,2.44237 0,2.32184 0.3444,2.5 4.8333,2.5 2.6584,0 5.150296,-0.31692 5.537596,-0.70426 z m 55.1569,-25.16895 c -0.4445,-2.02392 -0.2049,-3.03673 0.8106,-3.42642 2.7515,-1.05578 6.0144,-9.70037 3.6617,-9.70037 -0.55,0 -1.0137,0.7875 -1.0305,1.75 -0.029,1.66667 -0.079,1.66667 -1.0497,0 -0.5606,-0.9625 -1.4139,-1.75 -1.8963,-1.75 -0.4823,0 -1.0827,0.7875 -1.3343,1.75 -0.4355,1.66667 -0.4628,1.66667 -0.5733,0 -0.149,-2.24754 -2.116,-2.30227 -2.116,-0.0589 0,1.50687 -0.1479,1.48883 -1.3577,-0.16557 -1.3196,-1.80474 -1.3887,-1.80309 -2.4695,0.0589 -1.0429,1.79664 -1.1139,1.76828 -1.1424,-0.45687 -0.027,-2.08708 -0.2282,-2.20831 -1.6746,-1.00785 -1.4686,1.21879 -1.5633,1.10938 -0.8862,-1.02396 0.6671,-2.10186 0.4975,-2.32042 -1.4129,-1.82083 -1.7723,0.46346 -1.9581,0.31126 -1.012,-0.82867 0.9241,-1.11363 0.6312,-1.63684 -1.4472,-2.58377 -3.1538,-1.43699 -4.3943,-0.53993 -2.49,1.80058 1.2357,1.5187 1.1819,1.63235 -0.478,1.00931 -1.4907,-0.55951 -1.7703,-0.31866 -1.3768,1.186 0.3924,1.50032 0.074,1.77842 -1.5481,1.35412 -1.6459,-0.43039 -1.9078,-0.1844 -1.3504,1.26821 0.5692,1.48324 0.4364,1.59036 -0.7506,0.60529 -1.1507,-0.95496 -1.6545,-0.83196 -2.4925,0.60856 -0.9801,1.68483 -1.0523,1.68853 -1.0807,0.0555 -0.017,-0.9625 -0.4804,-1.75 -1.0304,-1.75 -0.55,0 -1.0522,0.7875 -1.116,1.75 -0.1105,1.66667 -0.1378,1.66667 -0.5733,0 -0.2516,-0.9625 -0.852,-1.75 -1.3343,-1.75 -0.4824,0 -1.3357,0.7875 -1.8963,1.75 -0.9707,1.66667 -1.0207,1.66667 -1.0497,0 -0.017,-0.9625 -0.4804,-1.75 -1.0304,-1.75 -0.55,0 -1.0522,0.7875 -1.116,1.75 -0.1105,1.66667 -0.1378,1.66667 -0.5733,0 -0.2516,-0.9625 -0.7122,-1.75 -1.0238,-1.75 -0.3115,0 -1.1642,0.7875 -1.8949,1.75 -1.2651,1.66667 -1.3299,1.66667 -1.3602,0 -0.017,-0.9625 -0.4818,-1.75 -1.0318,-1.75 -0.55,0 -1.0522,0.7875 -1.116,1.75 -0.1105,1.66667 -0.1378,1.66667 -0.5733,0 -0.2516,-0.9625 -0.7122,-1.75 -1.0238,-1.75 -0.3115,0 -1.1642,0.7875 -1.8949,1.75 -1.2651,1.66667 -1.3299,1.66667 -1.3602,0 -0.017,-0.9625 -0.4818,-1.75 -1.0318,-1.75 -0.55,0 -1.0522,0.7875 -1.116,1.75 -0.1105,1.66667 -0.1378,1.66667 -0.5733,0 -0.2516,-0.9625 -0.7122,-1.75 -1.0238,-1.75 -0.3115,0 -1.1642,0.7875 -1.8949,1.75 -1.2651,1.66667 -1.3299,1.66667 -1.3602,0 -0.017,-0.9625 -0.4488,-1.75 -0.9585,-1.75 -0.5096,0 -1.1324,0.7875 -1.384,1.75 -0.4355,1.66667 -0.4628,1.66667 -0.5733,0 -0.137,-2.06655 -1.680896,-2.32633 -2.417496,-0.40677 -0.2835,0.73877 -0.8335,3.88877 -1.2222,7 l -0.7067,5.65677 3.0562,0 c 1.680896,0 3.334296,-0.45 3.674196,-1 0.3399,-0.55 1.9415,-1 3.559,-1 1.6176,0 2.941,-0.45 2.941,-1 0,-1.2642 6.6822,-1.32318 7.4593,-0.0658 0.3175,0.51378 2.1322,0.68184 4.0325,0.37346 2.2481,-0.36482 4.7538,0.0556 7.1727,1.20342 6.176,2.93072 8.388,3.3135 19.665,3.40301 l 10.8294,0.086 -0.6311,-2.87321 z m 8.7366,-9.72456 c 0.8011,-0.80111 -0.2472,-3.40223 -1.3713,-3.40223 -0.4911,0 -0.893,0.9 -0.893,2 0,1.94919 1.0607,2.606 2.2644,1.40223 z m 3.0972,-1.90223 c 0.3166,-0.825 0.1398,-1.5 -0.393,-1.5 -0.5327,0 -0.9686,0.675 -0.9686,1.5 0,0.825 0.1769,1.5 0.393,1.5 0.2162,0 0.652,-0.675 0.9686,-1.5 z m 7.6384,0 c 0,-0.825 -0.45,-1.5 -1,-1.5 -0.55,0 -1,0.675 -1,1.5 0,0.825 0.45,1.5 1,1.5 0.55,0 1,-0.675 1,-1.5 z m 2.6042,-1.22917 c -1.0165,-1.01651 -1.8553,0.51389 -1.0213,1.86338 0.6301,1.01942 0.8656,1.02021 1.2044,0.004 0.2315,-0.69479 0.1492,-1.53513 -0.1831,-1.86742 z m -6.6041,0.72917 c 0,-0.55 -0.4766,-1 -1.059,-1 -0.5825,0 -0.7809,0.45 -0.441,1 0.3398,0.55 0.8164,1 1.059,1 0.2426,0 0.441,-0.45 0.441,-1 z"
         style="fill:#000000" />
    </g>
  </g>
</svg>
