<?xml version="1.0" encoding="UTF-8" standalone="no"?>
<svg
   xmlns:dc="http://purl.org/dc/elements/1.1/"
   xmlns:cc="http://creativecommons.org/ns#"
   xmlns:rdf="http://www.w3.org/1999/02/22-rdf-syntax-ns#"
   xmlns:svg="http://www.w3.org/2000/svg"
   xmlns="http://www.w3.org/2000/svg"
   version="1.1"
   id="svg2"
   viewBox="0 0 200.00001 43.782501"
   width="600.00003">
  <defs
     id="defs4" />
  <metadata
     id="metadata7">
    <rdf:RDF>
      <cc:Work
         rdf:about="">
        <dc:format>image/svg+xml</dc:format>
        <dc:type
           rdf:resource="http://purl.org/dc/dcmitype/StillImage" />
        <dc:title></dc:title>
      </cc:Work>
    </rdf:RDF>
  </metadata>
  <g
     transform="translate(786.70236,-689.03463)"
     id="layer1">
    <g
       transform="matrix(0.08543145,0,0,0.08543145,-696.46648,508.81679)"
       id="g4147">
      <path
         id="path4159"
         d="m -539.56735,2620.1423 c -2.75,-0.9584 -6.50352,-2.0418 -8.34116,-2.4076 -1.83764,-0.3658 -4.97605,-2.0408 -6.97427,-3.7222 -3.2077,-2.6991 -4.4506,-2.9727 -10.61472,-2.3365 -5.08718,0.525 -8.70649,0.1003 -13.33824,-1.5652 -6.04151,-2.1725 -6.65093,-2.1804 -12.29411,-0.1577 -7.31984,2.6235 -15.21219,2.7135 -21.1303,0.2407 -2.46814,-1.0312 -5.59761,-1.875 -6.95439,-1.875 -1.97629,0 -6.15734,-2.2417 -10.84119,-5.8127 -0.2686,-0.2048 -1.3936,-5.0276 -2.5,-10.7173 l -2.01162,-10.345 -10,-0.625 -10,-0.625 -0.34606,-17.6873 c -0.2369,-12.1082 -0.82833,-18.0578 -1.875,-18.8618 -0.84092,-0.646 -12.49769,-2.1588 -25.90394,-3.3617 -13.40625,-1.2029 -27.04688,-2.4966 -30.3125,-2.8748 l -5.9375,-0.6876 -0.017,16.1116 c -0.0235,22.1214 0.13259,21.7366 -8.81874,21.7366 -7.22121,0 -7.33226,0.055 -11.10421,5.5377 -2.52376,3.6682 -3.84249,7.1497 -3.90611,10.3125 -0.23133,11.4975 -6.47659,20.3998 -14.31114,20.3998 -1.53313,0 -4.96439,0.9096 -7.62505,2.0213 -5.37181,2.2445 -19.61251,1.834 -22.08306,-0.6366 -1.90963,-1.9096 -5.99683,-1.7325 -11.31689,0.4903 -5.80237,2.4244 -14.6696,2.3911 -20.54545,-0.077 -3.58575,-1.5063 -6.94329,-1.763 -14.6983,-1.1239 -7.83131,0.6453 -11.10859,0.3864 -14.84015,-1.1728 -2.63406,-1.1006 -6.27985,-2.001 -8.10175,-2.001 -1.83408,0 -5.33696,-1.6687 -7.84831,-3.7388 -4.05018,-3.3385 -4.63129,-4.5763 -5.42805,-11.5625 -1.34047,-11.7534 -1.75977,-12.1955 -11.58727,-12.2179 -4.61643,-0.01 -9.08488,-0.4583 -9.92988,-0.9951 -1.1168,-0.7094 -1.62885,-8.1289 -1.875,-27.1683 l -0.33864,-26.1924 -23.125,-0.625 c -21.14111,-0.5714 -23.59253,-0.8745 -28.57468,-3.5329 -4.9419,-2.637 -5.38156,-3.2484 -4.71875,-6.5625 l 0.73093,-3.6546 -19.09375,0 c -20.61571,0 -22.09375,-0.4335 -22.09375,-6.4796 0,-1.9137 -2.8125,-10.5292 -6.25,-19.1454 -3.4375,-8.6163 -6.24995,-16.5005 -6.24995,-17.5205 0,-1.4395 1.7483,-1.8588 7.81245,-1.8737 10.31083,-0.025 11.25197,-0.6937 9.41286,-6.6861 -1.19531,-3.8947 -1.13374,-4.929 0.34927,-5.8673 0.9902,-0.6265 11.28243,-1.1478 22.87161,-1.1583 16.33126,-0.015 20.93889,-0.3706 20.48287,-1.5816 -0.32359,-0.8594 -2.69201,-9.1563 -5.26314,-18.4375 -3.38738,-12.2278 -5.80253,-18.4241 -8.76981,-22.5 -2.25226,-3.0938 -6.13859,-9.7032 -8.6363,-14.6875 l -4.54129,-9.0625 -22.29055,0 c -24.58827,0 -24.24347,0.1053 -27.62377,-8.4375 l -1.6075,-4.0625 -9.5359,-0.019 c -5.2447,-0.01 -10.24,-0.4663 -11.1006,-1.0127 -0.8606,-0.5464 -3.5863,-6.0069 -6.0571,-12.1345 -2.4708,-6.1275 -5.5956,-11.9136 -6.9439,-12.858 -1.4456,-1.0125 -2.2941,-2.8216 -2.0679,-4.4089 0.3796,-2.6631 0.7761,-2.7012 37.2587,-3.5734 20.2812,-0.4849 38.98432,-0.5761 41.56245,-0.2026 5.3403,0.7735 6.2159,-0.9431 1.5625,-3.0634 -3.74426,-1.7059 -4.12601,-5.8537 -0.70718,-7.6834 1.45637,-0.7794 13.34649,-1.294 29.90068,-1.294 l 27.48286,0 0.80522,-3.6661 0.80521,-3.6661 12.10661,-0.6529 c 25.61739,-1.3815 25.72411,-1.369 29.39028,3.4376 l 3.18753,4.1791 54.1394,0.8972 c 29.77667,0.4934 55.37629,0.4339 56.88807,-0.1323 2.68738,-1.0065 17.87632,-20.4758 17.87632,-22.914 0,-0.7874 -16.42095,-1.2325 -45.47195,-1.2325 -35.57446,0 -45.76285,-0.3505 -46.80847,-1.6104 -0.73511,-0.8858 -1.5071,-5.1977 -1.71557,-9.5821 l -0.37901,-7.9717 -16.25,-6.6957 c -43.5521,-17.9455 -40.8022,-16.5243 -40.37935,-20.8681 l 0.37935,-3.897 61.41915,-0.3242 c 51.7856,-0.2733 61.65457,-0.6079 62.92011,-2.1327 0.82553,-0.9947 1.13809,-2.3957 0.69458,-3.1133 -0.53719,-0.8692 -16.61409,-1.3048 -48.15884,-1.3048 -28.76935,0 -47.64231,-0.469 -48.09106,-1.1951 -0.40623,-0.6573 0.54495,-1.9974 2.11372,-2.9781 2.35694,-1.4733 16.84293,-1.9225 83.40448,-2.5862 44.30367,-0.4418 80.8193,-1.0704 81.14584,-1.3969 1.72173,-1.7217 -2.83721,-2.5289 -17.47386,-3.0937 -10.89267,-0.4203 -16.50737,-1.1293 -17.14536,-2.1651 -0.52175,-0.8471 -0.64042,-4.2221 -0.2637,-7.5 l 0.68494,-5.9599 12.73117,-0.3553 c 12.06615,-0.3368 12.75176,-0.5 13.125,-3.125 0.36918,-2.5963 1.10458,-2.792 11.74665,-3.1263 l 11.35283,-0.3567 1.14717,-4.6433 c 0.99327,-4.0204 1.68447,-4.6954 5.15192,-5.0308 5.43758,-0.526 8.87445,1.5691 9.34968,5.6994 0.36174,3.1439 0.84599,3.438 5.66046,3.438 6.10761,0 10.6809,3.3042 8.11905,5.8661 -0.82992,0.8299 -1.50893,3.0518 -1.50893,4.9375 0,1.8857 -1.18056,5.4294 -2.62347,7.875 l -2.62347,4.4464 8.80074,0 8.80075,0 -0.69877,-9.0625 -0.69877,-9.0625 -9.85351,-10.0261 c -5.41943,-5.5144 -9.8535,-10.9789 -9.8535,-12.1435 0,-1.1646 1.13314,-2.7239 2.51809,-3.4651 2.16375,-1.158 3.456,-0.4606 9.18327,4.956 3.66586,3.4671 7.03273,6.3037 7.48191,6.3037 0.4492,0 0.81673,-19.9687 0.81673,-44.375 0,-42.7083 0.0939,-44.4689 2.5,-46.875 1.92616,-1.9262 4.16666,-2.5 9.76109,-2.5 13.01439,0 12.06182,-4.3288 12.4651,56.6463 0.34471,52.1192 0.39662,53.0875 2.8125,52.4558 3.10323,-0.8115 3.36412,2.8285 0.43471,6.0654 -3.74853,4.1421 -1.4235,5.7934 8.36692,5.9424 4.96389,0.076 9.71833,0.7126 10.56543,1.4156 1.04883,0.8705 2.61154,0.8709 4.89857,0 5.76838,-2.1931 16.54227,-1.5963 19.08448,1.0572 1.22991,1.2838 4.38553,2.723 7.01246,3.1983 2.62695,0.4753 5.55829,1.1643 6.51408,1.5311 1.39148,0.534 1.80972,-1.6339 2.09873,-10.8784 0.291,-9.3084 0.77809,-11.8077 2.51403,-12.8996 4.24684,-2.6712 5.31135,0.8198 5.9719,19.5846 l 0.625,17.7549 21.875,0.625 21.875,0.625 0.39316,4.7748 c 0.44735,5.4329 -1.3624,8.3332 -5.23371,8.3875 -1.4627,0.021 -5.1907,2.2539 -8.28445,4.9629 l -5.625,4.9254 8.28445,0.037 c 9.67389,0.044 11.43383,1.4029 10.85871,8.3875 l -0.39316,4.7748 -18.20401,0.625 c -17.61385,0.6047 -18.33627,0.7364 -22.28342,4.0625 l -4.07938,3.4375 -31.7791,0 -31.77909,0 0,3.2278 c 0,2.0959 -4.4188,9.3846 -12.60021,20.7839 -6.93013,9.6559 -12.8639,18.2433 -13.18618,19.0831 -0.67182,1.7508 8.53655,2.6362 40.16139,3.8617 l 20,0.775 17.57168,-16.0532 c 9.66441,-8.8293 19.66836,-17.8814 22.23098,-20.1158 l 4.65933,-4.0625 309.25631,0 309.256304,0 97.262646,20.8374 c 93.85887,20.1082 97.86625,20.8561 114.50737,21.3712 9.48463,0.2935 18.71638,0.1644 20.515,-0.2871 3.24188,-0.8136 3.2035,-0.888 -4.43225,-8.5922 -7.37375,-7.44 -9.34137,-10.8293 -6.28675,-10.8293 0.77863,0 4.8395,3.7365 9.02413,8.3033 4.18475,4.5669 9.43587,9.0669 11.66925,10 4.47812,1.8711 41.03825,2.4383 43.807,0.6796 1.07262,-0.6814 -0.7315,-3.2275 -5.9375,-8.3792 -6.69425,-6.6244 -9.15925,-10.6037 -6.56863,-10.6037 0.50038,0 5.29338,4.3594 10.651,9.6875 l 9.74113,9.6875 18.89462,0.4052 c 10.392,0.2229 20.31513,0.049 22.05138,-0.3871 3.0835,-0.7739 2.97775,-0.9731 -4.54563,-8.5638 -7.2325,-7.2975 -9.3395,-10.8293 -6.46037,-10.8293 0.683,0 5.08787,3.9153 9.7885,8.7006 4.70062,4.7853 10.08462,9.2853 11.9645,10 4.98587,1.8956 57.83562,1.7393 59.0185,-0.1746 0.55737,-0.9019 -1.83988,-4.0344 -6.17625,-8.0707 -6.27688,-5.8425 -8.96825,-10.4553 -6.10013,-10.4553 0.54288,0 4.845,3.9831 9.56038,8.8514 4.71525,4.8683 9.93275,9.3683 11.59425,10 4.59612,1.7475 50.005,1.4815 51.1055,-0.2993 0.5385,-0.8712 -2.24025,-4.3855 -6.97725,-8.8239 -5.94913,-5.5742 -7.51975,-7.7285 -6.4295,-8.8187 1.09037,-1.0903 3.88862,0.9888 11.4555,8.5114 l 10.01275,9.9541 191.4875,0.3244 191.48767,0.3244 2.9086,-3.1369 2.9086,-3.1369 25.5828,0 25.5826,0 2.8042,3.2836 2.80433,3.2835 54.9956,-0.8786 c 52.0399,-0.8315 55.1161,-1.0079 57.2363,-3.2836 2.0288,-2.1777 4.1112,-2.4049 22.044,-2.4049 l 19.8033,0 2.9604,-8.413 c 3.315,-9.4208 6.7416,-11.9032 13.2729,-9.6156 3.3346,1.168 3.4562,1.5398 4.0625,12.4288 l 0.625,11.2248 40.9026,0.3295 c 39.3538,0.3171 40.953,0.4236 42.2315,2.8125 1.1613,2.1699 2.6318,2.483 11.6599,2.483 6.3685,0 10.9064,0.5753 11.831,1.5 1.0875,1.0875 1.5,10.1847 1.5,33.081 0,36.5954 0.9706,34.169 -13.6679,34.169 l -8.8321,0 0,29.9434 0,29.9433 4.0625,0.6825 c 2.2344,0.3754 7.1562,0.8228 10.9375,0.9942 l 6.875,0.3116 0.3547,14.1961 c 0.2348,9.3966 -0.134,14.7848 -1.0906,15.9375 -1.1339,1.3663 -6.1244,1.7414 -23.1671,1.7414 l -21.722,0 0,16 c 0,10.7778 -0.4896,16.4896 -1.5,17.5 -2.1219,2.1218 -52.3781,2.1218 -54.5,0 -1.0105,-1.0105 -1.5,-6.7248 -1.5,-17.5114 l 0,-16.0115 -63.4375,0.324 -63.4375,0.3239 -0.3516,16.169 c -0.2024,9.3069 -0.9304,16.8665 -1.7155,17.8125 -1.0449,1.259 -6.812,1.6144 -24.6484,1.5189 -12.8065,-0.069 -24.6908,-0.515 -26.4095,-0.9922 -3.11633,-0.8652 -3.12603,-0.9154 -3.47283,-18.0004 l -0.3477,-17.1328 -39.2824,0 -39.2824,0 -0.3698,33.6479 c -0.2034,18.5063 -0.7787,34.0557 -1.2784,34.5543 -0.4996,0.4985 -5.0936,0.9664 -10.209,1.0396 -5.1153,0.073 -9.7303,0.5632 -10.2554,1.0888 -0.5252,0.5256 -1.3762,3.6193 -1.8912,6.875 -1.8912,11.9563 -2.9787,14.5649 -7.2809,17.4642 -2.3099,1.5566 -5.4541,2.8302 -6.9873,2.8302 -1.5331,0 -4.8068,0.8438 -7.275,1.875 -5.90659,2.468 -15.75059,2.3818 -22.18884,-0.1943 -4.81463,-1.9264 -5.5715,-1.926 -10.96275,0.01 -7.2545,2.5999 -16.345,2.6489 -22.39375,0.1206 -2.55613,-1.0683 -9.99113,-2.4304 -16.52238,-3.0267 -15.26087,-1.3933 -21.15937,-2.7483 -26.5995,-6.1105 -5.14037,-3.1769 -5.38662,-3.6796 -6.56775,-13.4118 -1.378,-11.3535 -1.63825,-11.5982 -12.78625,-12.0187 l -9.6715,-0.3648 -0.33363,-32.1875 -0.33362,-32.1875 -63.41638,-0.039 c -34.879,-0.021 -123.63675,-0.014 -197.2395,0.016 l -133.823,0.055 -115.552,15.561 c -63.5535,8.5586 -122.51985,16.9889 -131.03627,18.734 -8.516406,1.7451 -18.896746,3.1729 -23.067406,3.1729 -12.18215,0 -34.69788,2.5124 -41.14672,4.5913 -3.2717,1.0547 -6.8651,1.566 -7.98536,1.1361 -1.44292,-0.5537 -319.267554,-0.8093 -395.145074,-0.3178 -2.60354,0.017 -4.99492,-0.9567 -6.6112,-2.6916 -2.29908,-2.4677 -3.77967,-2.7179 -16.08048,-2.7179 -10.40822,0 -13.90245,0.4267 -15.07651,1.8414 -1.18697,1.4302 -5.47819,1.9187 -19.21555,2.1875 l -17.6873,0.3461 -0.625,12.5 -0.625,12.5 -7.83484,0.3727 c -7.69691,0.3661 -7.89372,0.4652 -11.17961,5.625 -2.32242,3.6468 -3.65453,7.9268 -4.35814,14.0023 -0.9187,7.9327 -1.44091,9.1294 -5.59114,12.8125 -2.77067,2.4587 -5.91567,4.0625 -7.96688,4.0625 -1.86399,0 -5.40845,0.8437 -7.87659,1.875 -5.91811,2.4727 -13.81046,2.3828 -21.1303,-0.2408 -5.59164,-2.0041 -6.28336,-2.0041 -11.875,0 -7.04215,2.5241 -15.28594,2.5943 -22.1875,0.1892 z"
         style="fill:#000000;fill-opacity:1" />
    </g>
  </g>
</svg>
