<?xml version="1.0" encoding="UTF-8" standalone="no"?>
<!-- Created with Inkscape (http://www.inkscape.org/) -->

<svg
   xmlns:dc="http://purl.org/dc/elements/1.1/"
   xmlns:cc="http://creativecommons.org/ns#"
   xmlns:rdf="http://www.w3.org/1999/02/22-rdf-syntax-ns#"
   xmlns:svg="http://www.w3.org/2000/svg"
   xmlns="http://www.w3.org/2000/svg"
   xmlns:sodipodi="http://sodipodi.sourceforge.net/DTD/sodipodi-0.dtd"
   xmlns:inkscape="http://www.inkscape.org/namespaces/inkscape"
   width="122.20222mm"
   height="30.736534mm"
   viewBox="0 0 433.00001 108.90898"
   id="svg2"
   version="1.1"
   inkscape:version="0.91 r13725"
   sodipodi:docname="Polaris.svg">
  <defs
     id="defs4" />
  <sodipodi:namedview
     id="base"
     pagecolor="#ffffff"
     bordercolor="#666666"
     borderopacity="1.0"
     inkscape:pageopacity="0.0"
     inkscape:pageshadow="2"
     inkscape:zoom="2.8"
     inkscape:cx="215.54669"
     inkscape:cy="53.998878"
     inkscape:document-units="px"
     inkscape:current-layer="layer1"
     showgrid="false"
     fit-margin-top="0"
     fit-margin-left="0"
     fit-margin-right="0"
     fit-margin-bottom="0"
     inkscape:window-width="1920"
     inkscape:window-height="1017"
     inkscape:window-x="-8"
     inkscape:window-y="-8"
     inkscape:window-maximized="1" />
  <metadata
     id="metadata7">
    <rdf:RDF>
      <cc:Work
         rdf:about="">
        <dc:format>image/svg+xml</dc:format>
        <dc:type
           rdf:resource="http://purl.org/dc/dcmitype/StillImage" />
        <dc:title></dc:title>
      </cc:Work>
    </rdf:RDF>
  </metadata>
  <g
     inkscape:label="Layer 1"
     inkscape:groupmode="layer"
     id="layer1"
     transform="translate(-200.79049,-476.58636)">
    <g
       id="g4147"
       transform="matrix(0.18577224,0,0,0.18577224,360.72582,405.52846)">
      <path
         style="fill:#000000;fill-opacity:1"
         d="m -745.91881,964.06263 c 0.01,-2.57813 0.8008,-6.93453 1.7565,-9.6809 l 1.7377,-4.9934 21.056,-6.31299 c 11.5808,-3.47214 22.3216,-6.74739 23.8685,-7.27832 7.3847,-2.53469 0.99,-3.29689 -27.6598,-3.29689 -24.2588,0 -31.3874,-0.38233 -34.9599,-1.875 -3.3605,-1.4041 -9.5589,-1.875 -24.6807,-1.875 -17.3408,0 -19.9842,-0.25175 -18.714,-1.78226 0.8135,-0.98025 1.3042,-2.66619 1.0905,-3.74655 -0.2351,-1.18832 1.582,-3.16091 4.5997,-4.99343 l 4.9883,-3.02915 -3.7383,-0.79876 c -5.4497,-1.16442 -7.4873,-2.52384 -7.4958,-5.00086 -0.01,-1.45654 -1.8952,-2.89233 -5.6185,-4.26768 -4.5987,-1.69877 -5.7262,-2.74317 -6.2502,-5.78948 -0.6212,-3.61193 -0.862,-3.72739 -8.5306,-4.09123 -7.48,-0.35487 -7.9584,-0.56664 -9.1771,-4.0625 -0.7887,-2.26263 -2.1651,-3.6881 -3.5611,-3.6881 -6.0529,0 -8.4973,-3.40784 -9.8625,-13.75 -0.6709,-5.08296 -1.1641,-5.76066 -5.1175,-7.03289 -4.195,-1.34997 -4.408,-1.70986 -5.1768,-8.75 -1.2815,-11.73465 -1.1784,-22.2921 0.258,-26.41254 1.7587,-5.04521 7.0853,-7.35113 12.5669,-5.44027 6.9621,2.427 29.8037,0.94276 30.7763,-1.99985 0.3574,-1.08129 -2.4559,-1.6141 -9.9,-1.875 l -10.3994,-0.36445 -0.4235,-3.7274 c -0.9282,-8.16977 1.5939,-12.16279 11.0173,-17.4425 4.8297,-2.70595 8.7812,-5.36097 8.7812,-5.90008 0,-0.5391 -1.7424,-2.26265 -3.8721,-3.8301 -2.1297,-1.56746 -5.1835,-5.09992 -6.7863,-7.84992 -2.7483,-4.71551 -2.9306,-6.38685 -3.2052,-29.375 -0.1601,-13.40625 -0.2001,-30.70313 -0.089,-38.4375 l 0.2024,-14.0625 10.4719,0 c 7.7859,0 10.8713,-0.48119 12.0289,-1.87599 1.3287,-1.60102 0.1501,-2.5171 -8.0412,-6.25 -5.279,-2.40571 -10.6244,-4.37401 -11.8786,-4.37401 -1.8802,0 -2.4187,-1.37154 -3.0675,-7.8125 -1.3911,-13.80996 -0.7978,-66.20085 0.8003,-70.6668 1.4156,-3.95618 1.2786,-4.278 -3.7976,-8.91809 -4.5681,-4.17565 -5.2662,-5.5011 -5.2662,-9.99836 0,-2.8515 0.8044,-7.10979 1.7876,-9.46287 1.7802,-4.26071 1.8253,-4.27984 10.9375,-4.64735 8.8281,-0.35606 9.1499,-0.47892 9.1499,-3.49403 0,-2.91381 -0.4646,-3.14771 -6.875,-3.46108 -3.7813,-0.18485 -8.1209,-0.97247 -9.6437,-1.75028 -1.8126,-0.92585 -6.363,-1.13792 -13.1775,-0.61412 -16.047,1.23348 -15.9331,1.39138 -15.9104,-22.0579 0.021,-21.15907 1.0029,-24.9908 6.573,-25.63715 2.5853,-0.3 3.4086,-1.07545 3.4086,-3.21062 0,-4.295 3.7568,-16.12791 5.8772,-18.51151 1.0361,-1.16473 3.0699,-2.28973 4.5195,-2.5 1.8096,-0.2625 2.8815,-1.5919 3.42,-4.24145 1.195,-5.87961 1.9239,-6.47131 8.9972,-7.30451 8.8569,-1.0434 20.9361,-4.7675 20.9361,-6.4549 0,-3.7745 4.6252,-5.5065 14.7045,-5.5065 10.2984,0 16.5455,-1.4042 16.5455,-3.719 0,-0.7887 -4.7729,-1.281 -12.4186,-1.281 -6.8303,0 -14.0022,-0.6358 -15.9375,-1.413 l -3.5189,-1.413 4.3303,-1.1921 4.3303,-1.1921 -2.9262,-2.2073 c -2.8509,-2.1504 -2.351,-2.2441 19.4197,-3.642 12.2902,-0.7892 29.0959,-1.987 37.3459,-2.6618 8.25,-0.6748 35.5312,-1.4903 60.625,-1.8122 44.9237,-0.5763 53.125,-1.2449 53.125,-4.3306 0,-0.8576 -26.8594,-13.4432 -59.6875,-27.968 -34.7224,-15.3629 -59.6875,-27.0903 -59.6875,-28.0383 0,-2.4651 1.4494,-2.1045 16.5424,4.116 19.1484,7.8917 33.7212,13.1922 32.9821,11.9964 -0.3389,-0.5483 -11.0383,-5.749 -23.7766,-11.557 -12.7382,-5.808 -23.1801,-11.2631 -23.2042,-12.1225 -0.024,-0.8594 0.6546,-1.5625 1.5081,-1.5625 0.8536,0 33.7663,13.5355 73.1394,30.0788 39.3732,16.5433 72.5654,30.0895 73.7607,30.1025 1.1952,0.013 43.4461,-0.963 93.8909,-2.1691 75.59851,-1.8076 92.4046,-1.9077 95.62504,-0.5696 2.14891,0.8929 6.43836,1.9742 9.53211,2.4029 l 5.625,0.7795 -0.11162,5.3637 c -0.0752,3.6134 -1.64817,8.304 -4.82048,14.375 -2.58985,4.9562 -6.89972,14.5089 -9.57751,21.2282 -2.67779,6.7192 -6.22139,14.31297 -7.87466,16.87496 -2.83075,4.38667 -3.05669,6.13286 -3.87647,29.96072 -0.71295,20.72283 -0.5645,25.41189 0.82014,25.90663 0.92985,0.33223 13.50215,-2.37004 27.93845,-6.00508 19.83127,-4.99347 26.34374,-7.1073 26.64025,-8.64692 0.79384,-4.12208 -3.18664,-8.54372 -13.52525,-15.02433 -5.82569,-3.65174 -11.29164,-8.02179 -12.14656,-9.7112 -1.84931,-3.65445 -2.10713,-22.17706 -0.37219,-26.74028 0.67049,-1.7635 1.9393,-3.2064 2.8196,-3.2064 1.39893,0 81.59169,35.91597 99.46396,44.54696 l 6.62762,3.20065 10.87238,-2.55504 c 10.24363,-2.4073 16.16513,-2.60069 102.39517,-3.34408 64.78512,-0.55851 92.721205,-0.39022 95.624985,0.57604 3.41275,1.13564 276.308335,26.0775 311.355655,28.45702 l 11.00344,0.74707 4.69433,-4.58389 4.69432,-4.58388 28.38384,2.51958 c 37.19719,3.30194 35.74781,3.33829 35.45596,-0.88935 -0.20756,-3.0068 0.93289,-4.11272 9.6677,-9.375 l 9.90299,-5.96606 20.9007,0 c 17.4185,0 21.02062,0.31216 21.61975,1.87361 1.1,2.8664 -0.62613,6.06813 -5.6165,10.4186 -3.83538,3.34354 -5.539,3.95779 -10.97675,3.95779 -6.62188,0 -9.537,2.32129 -6.6015,5.25674 0.73625,0.73627 16.70162,2.67665 35.4785,4.31192 75.58575,6.58277 190.85475,16.75588 198.16888,17.48949 7.52999,0.75526 7.8185,0.6765 9.01074,-2.45927 1.07238,-2.82038 1.92576,-3.22519 6.59588,-3.12882 2.95038,0.0609 8.87575,-0.32271 13.1675,-0.85245 4.8105,-0.59376 10.68325,-0.41748 15.3125,0.45961 4.13013,0.78253 11.02487,2.06475 15.32175,2.84938 4.97537,0.90854 8.96475,2.49023 10.9855,4.35551 3.15062,2.90819 3.5485,2.94223 56.25,4.81194 29.19237,1.03566 71.14875,1.88819 93.2365,1.89449 35.54012,0.01 40.35312,-0.22198 41.84375,-2.01805 1.47987,-1.78314 4.04025,-1.92653 21.0905,-1.18113 18.872,0.82505 19.48025,0.93739 22.0935,4.0805 l 2.68725,3.2321 31.06275,1.04768 c 55.84612,1.88356 206.03821,17.95279 221.68781,23.71864 5.5974,2.06225 154.2301,30.08782 159.375,30.05106 6.952,-0.0496 29.3714,4.68967 32.9784,6.97149 1.638,1.03624 24.9817,6.5595 51.875,12.27387 64.4879,13.70266 63.6925,13.50624 66.6477,16.46144 1.4088,1.40875 3.2709,2.79785 4.1379,3.08687 2.5296,0.84319 -1.3174,6.01749 -5.014,6.744 -1.7187,0.3378 -4.8125,1.23813 -6.875,2.00074 -2.0625,0.7626 -22.4552,6.08334 -45.3171,11.82384 l -41.5671,10.43727 -40.3079,20.42582 -40.3079,20.42581 -47.8125,9.21834 c -33.6055,6.4792 -47.8125,9.70012 -47.8125,10.83975 0,1.01767 1.6184,1.62142 4.3461,1.62142 3.2567,0 4.8597,0.78345 6.3939,3.125 1.59,2.4268 3.1099,3.125 6.8025,3.125 5.2243,0 12.4371,3.4579 12.4496,5.96844 0.012,2.22609 -5.1971,4.04316 -16.8671,5.88481 -7.728,1.21955 -12.021,2.76503 -18.8951,6.80218 -7.2663,4.26741 -11.3271,5.66265 -22.1755,7.61897 -13.3594,2.40914 -36.5813,3.00235 -37.8394,0.96663 -0.3497,-0.5659 -2.521,-1.81652 -4.8249,-2.77914 -2.3038,-0.96264 -4.8553,-2.99555 -5.6701,-4.5176 -1.2977,-2.42489 -1.0392,-3.1378 2.087,-5.76051 4.2175,-3.53809 20.3093,-11.93543 27.083,-14.13294 5.0633,-1.64265 8.3866,-6.77418 5.9593,-9.20155 -0.8249,-0.82481 -8.9438,-0.55566 -24.1089,0.79921 -12.576,1.12355 -64.7716,4.88556 -115.9905,8.36004 l -93.12496,6.31722 -46.875,7.54872 c -26.0185,4.18998 -80.80163,14.4991 -123.125,23.1697 -41.9375,8.59153 -98.1875,20.11976 -125,25.61826 -26.8125,5.49851 -53.70013,10.52219 -59.75038,11.16372 -8.739,0.92665 -28.333,0.13933 -95.312,-3.82986 -46.37137,-2.74796 -87.996,-4.9963 -92.49912,-4.9963 -10.56963,0 -15.87513,2.51273 -15.32713,7.25897 0.36463,3.15766 0.82388,3.38894 7.4185,3.73621 5.97875,0.31482 7.81125,1.03896 12.2555,4.84312 4.057,3.47262 5.1405,5.20689 4.84513,7.75482 l -0.3805,3.28188 -21.65975,0.34244 -21.65976,0.34244 -9.22875,-5.25077 c -13.83808,-7.87327 -14.00421,-11.05911 -0.57674,-11.05911 9.18072,0 10.90583,-0.9718 8.77916,-4.94552 -2.74233,-5.12409 -5.55864,-5.54127 -35.65416,-5.28149 -41.8654,0.36137 -70.0286,2.30645 -76.25,5.26616 -4.30761,2.04926 -21.35754,3.59245 -123.125,11.14398 -181.364985,13.45796 -160.062945,12.51031 -297.3288,13.22716 l -122.7647,0.64111 -33.864,7.44873 c -18.62521,4.09678 -34.35418,7.14577 -34.95325,6.77552 -0.59909,-0.37026 -1.08925,-3.13805 -1.08925,-6.15065 0,-3.0126 -0.5586,-5.82269 -1.24134,-6.24464 -2.31137,-1.42852 -14.33712,-4.17039 -15.40271,-3.51182 -1.72139,1.06387 0.23089,6.54475 5.47612,15.37377 5.35098,9.00704 6.02439,13.59614 3.18994,21.73837 -1.15854,3.32798 -2.83299,5.33611 -5.3222,6.38274 -1.99752,0.8399 -5.58777,4.11567 -7.97834,7.27949 -2.39056,3.16383 -5.00648,6.02301 -5.81316,6.35375 -0.80669,0.33074 -41.86919,0.99664 -91.24996,1.47976 -89.0021,0.87077 -89.9361,0.8541 -107.3411,-1.91462 l -17.5578,-2.79303 -57.8952,17.61562 c -31.8423,9.68858 -58.6757,17.61561 -59.6297,17.61561 -1.1744,0 -1.7285,-1.5138 -1.7157,-4.6875 z m 1084.9812,-409.0625 c 0,-1.73276 -2.9664,-2.13789 -9.375,-1.28035 -5.09506,0.68176 -5.67252,0.9859 -3.125,1.64589 7.3551,1.90545 12.5,1.755 12.5,-0.36554 z"
         id="path4153"
         inkscape:connector-curvature="0" />
    </g>
  </g>
</svg>
