<?xml version="1.0" encoding="UTF-8" standalone="no"?>
<!-- Created with Inkscape (http://www.inkscape.org/) -->

<svg
   xmlns:dc="http://purl.org/dc/elements/1.1/"
   xmlns:cc="http://creativecommons.org/ns#"
   xmlns:rdf="http://www.w3.org/1999/02/22-rdf-syntax-ns#"
   xmlns:svg="http://www.w3.org/2000/svg"
   xmlns="http://www.w3.org/2000/svg"
   xmlns:sodipodi="http://sodipodi.sourceforge.net/DTD/sodipodi-0.dtd"
   xmlns:inkscape="http://www.inkscape.org/namespaces/inkscape"
   width="22.57778mm"
   height="6.4437237mm"
   viewBox="0 0 80.000007 22.832092"
   id="svg2"
   version="1.1"
   inkscape:version="0.91 r13725"
   sodipodi:docname="Prospector.svg">
  <defs
     id="defs4" />
  <sodipodi:namedview
     id="base"
     pagecolor="#ffffff"
     bordercolor="#666666"
     borderopacity="1.0"
     inkscape:pageopacity="0.0"
     inkscape:pageshadow="2"
     inkscape:zoom="15.839192"
     inkscape:cx="40.641237"
     inkscape:cy="12.522457"
     inkscape:document-units="px"
     inkscape:current-layer="layer1"
     showgrid="false"
     fit-margin-top="0"
     fit-margin-left="0"
     fit-margin-right="0"
     fit-margin-bottom="0"
     inkscape:window-width="1920"
     inkscape:window-height="1017"
     inkscape:window-x="-8"
     inkscape:window-y="-8"
     inkscape:window-maximized="1" />
  <metadata
     id="metadata7">
    <rdf:RDF>
      <cc:Work
         rdf:about="">
        <dc:format>image/svg+xml</dc:format>
        <dc:type
           rdf:resource="http://purl.org/dc/dcmitype/StillImage" />
        <dc:title></dc:title>
      </cc:Work>
    </rdf:RDF>
  </metadata>
  <g
     inkscape:label="Layer 1"
     inkscape:groupmode="layer"
     id="layer1"
     transform="translate(-290.8928,-519.73023)">
    <g
       id="g4147"
       transform="matrix(0.03429335,0,0,0.03429335,319.81557,624.97445)">
      <path
         style="fill:#000000"
         d="m 145.35714,-2403.7853 c -6.53125,-0.5663 -15.53125,-0.7331 -20,-0.3707 -4.83338,0.392 -16.58828,-0.3968 -29.015617,-1.9471 -11.48985,-1.4334 -22.88048,-2.6061 -25.312505,-2.6061 -4.379625,0 -4.423663,-0.054 -4.609375,-5.625 -0.103125,-3.0938 -0.24375,-6.3281 -0.3125,-7.1875 -0.06875,-0.8594 2.190388,-2.6875 5.020313,-4.0625 6.781125,-3.2948 8.998,-5.2611 9.467149,-8.3971 0.447176,-2.989 5.118898,-4.6762 23.512535,-8.4913 8.93253,-1.8528 16.86364,-2.466 32.00775,-2.4749 l 20.13275,-0.011 5.52367,-4.2176 c 3.18342,-2.4307 7.79803,-4.6019 10.89179,-5.1246 2.95246,-0.4988 5.66575,-1.6826 6.02955,-2.6306 1.4855,-3.8712 -27.1126,-45.9795 -31.91345,-46.9899 -1.12589,-0.2369 -19.48456,-0.092 -40.79706,0.323 -21.312497,0.4146 -39.420235,0.5118 -40.23941,0.2161 -0.819175,-0.2958 -1.662925,-1.7558 -1.875,-3.2445 -0.361937,-2.5408 -1.152325,-2.7293 -12.885587,-3.0723 -15.300325,-0.4473 -17.623075,0.07 -18.648712,4.1569 -0.711125,2.8334 -1.008775,2.9796 -2.674413,1.314 -1.87725,-1.8773 -5.551875,-1.4449 -5.551875,0.6533 0,0.6139 -0.5625,1.1162 -1.25,1.1162 -0.6875,0 -1.25,-1.0125 -1.25,-2.25 0,-3.3075 -2.494837,-5.2447 -6.8125,-5.2897 -5.3420751,-0.056 -8.0809631,-2.4541 -7.3240751,-6.4135 0.474625,-2.4828 -0.3739,-4.2239 -3.659938,-7.5099 -3.49857503,-3.4986 -4.03195003,-4.68 -2.92813703,-6.4857 1.07186303,-1.7534 0.80487503,-2.6555 -1.29715,-4.3832 -2.13367497,-1.7536 -8.05221247,-2.5862 -30.52882487,-4.2946 -25.935513,-1.9713 -28.041437,-1.975 -30.1657,-0.053 -1.256025,1.1367 -2.283675,2.8233 -2.283675,3.748 0,2.6369 4.709912,6.6788 7.8125,6.7044 4.399662,0.036 26.8954,14.5361 29.06695,18.7354 1.472475,2.8475 1.87055,8.7868 1.87055,27.9086 0,24.1343 -0.01813,24.2961 -2.8125,25.045 -5.40905,1.4495 -81.878803,0.7407 -117.812503,-1.092 -45.95344,-2.3439 -79.19614,-5.044 -83.16237,-6.755 -1.69821,-0.7326 -21.36888,-4.3904 -43.71263,-8.1285 -41.29382,-6.9085 -109.34379,-21.1673 -112.1875,-23.5071 -0.9512,-0.7827 -1.5625,-4.3933 -1.5625,-9.2288 0,-9.5837 -1.28532,-8.5416 24.44218,-19.8185 27.89356,-12.2268 44.93282,-21.0179 44.93282,-23.1827 0,-1.6233 -3.69161,-1.8154 -27.5,-1.4312 l -27.5,0.4439 -22.06035,-5.1249 c -22.57799,-5.2451 -31.5191,-5.7548 -35.26366,-2.0102 -2.27705,2.277 -25.76253,3.6558 -29.92975,1.7571 -2.82557,-1.2874 -3.7261,-1.2011 -5.65209,0.5419 -3.04705,2.7576 -6.69433,2.6214 -9.23405,-0.3448 -1.74813,-2.0417 -3.14955,-2.3068 -9.00061,-1.7029 -6.15979,0.6357 -7.18487,0.4006 -9.22219,-2.1154 -2.7295,-3.3708 -10.62793,-5.0438 -15.76594,-3.3394 -2.97089,0.9855 -3.93385,0.7863 -5.3125,-1.0991 -0.92612,-1.2666 -1.68386,-3.6016 -1.68386,-5.1889 0,-5.3805 -3.85962,-7.2911 -25.7304,-12.7374 -39.11196,-9.7397 -82.36017,-21.6652 -86.7696,-23.9263 -5.96191,-3.0572 -11.03519,-8.6506 -15.58819,-17.1864 l -3.81968,-7.161 -6.79583,0.2946 c -8.05231,0.3491 -8.75113,-0.4024 -8.77716,-9.4393 -0.0265,-9.2103 -1.38475,-11.0884 -9.73659,-13.4629 -3.93665,-1.1192 -25.0489,-7.6057 -46.91611,-14.4144 -35.09061,-10.9259 -40.54483,-12.973 -46.45536,-17.4355 -3.68323,-2.7808 -7.07485,-6.0093 -7.53694,-7.1743 -0.78433,-1.9774 -1.93734,-30.5979 -3.68055,-91.3597 l -0.73133,-25.4915 9.70637,-9.2307 c 5.3385,-5.077 11.97252,-10.6019 14.74225,-12.2777 3.5131,-2.1256 24.30216,-7.8122 68.75,-18.8058 51.13863,-12.6484 66.05793,-15.8909 75.58912,-16.4282 6.53125,-0.3681 13.03121,-1.3937 14.44436,-2.279 2.9316,-1.8366 6.27016,-10.7056 5.13928,-13.6527 -1.2046,-3.1391 -27.77489,-2.4562 -136.45864,3.5072 -95.37837,5.2334 -97.5952,5.3001 -101.875,3.0641 -2.40625,-1.2572 -6.69589,-2.852 -9.53254,-3.544 -6.39614,-1.5603 -6.71746,-2.791 -6.71746,-25.7283 l 0,-16.6706 5.3125,-1.4125 c 2.92188,-0.7769 7,-2.4124 9.0625,-3.6345 2.97863,-1.765 8.76391,-2.5034 28.125,-3.5901 13.40625,-0.7524 26.34375,-1.8997 28.75,-2.5495 2.40625,-0.6498 31.27725,-4.1637 64.15776,-7.8087 l 59.78276,-6.6272 11.84133,2.0145 c 11.3019,1.9227 12.582,1.8981 28.1005,-0.539 l 16.25916,-2.5536 1.87513,2.6772 c 2.68452,3.8327 6.59911,3.4352 8.08271,-0.8206 l 1.2193,-3.4977 21.52818,-2.1017 c 13.06987,-1.276 47.55742,-6.7741 87.77817,-13.994 36.4375,-6.5407 67.728,-11.896 69.53445,-11.9006 1.80644,-0.01 3.98469,0.8354 4.84055,1.8667 1.75128,2.1101 8.19175,2.5395 9.375,0.625 0.4249,-0.6875 2.09873,-1.25 3.7196,-1.25 1.62089,0 3.13456,-0.5397 3.36374,-1.1992 0.64087,-1.8445 63.54166,-3.3257 63.54166,-1.4963 0,1.7739 8.2926,1.9468 9.375,0.1955 1.0078,-1.6307 22.7422,-1.6307 23.75,0 0.4249,0.6875 2.15966,1.25 3.85503,1.25 2.4131,0 3.24256,0.8004 3.8197,3.6861 1.12386,5.6193 4.33438,7.8865 9.73367,6.8736 2.49389,-0.4679 5.06676,-1.8455 5.7175,-3.0614 0.65074,-1.2159 2.56675,-2.558 4.25781,-2.9825 1.69107,-0.4244 3.43132,-1.8953 3.86722,-3.2687 1.16996,-3.6863 10.02476,-3.3004 32.67962,1.4239 10.41181,2.1712 19.83369,3.6011 20.9375,3.1776 2.86081,-1.0978 2.49867,-3.6805 -1.43055,-10.2025 -2.85329,-4.7361 -5.24324,-6.6365 -14.0625,-11.182 -5.84375,-3.012 -17.375,-7.7551 -25.625,-10.5403 -13.0339,-4.4003 -17.32647,-5.236 -32.74945,-6.3759 -9.7622,-0.7215 -19.10736,-1.8281 -20.76703,-2.4591 -3.08021,-1.1711 -5.13667,-4.473 -3.96578,-6.3675 1.74815,-2.8286 26.1925,-5.6014 82.61962,-9.3718 53.56355,-3.579 61.24334,-3.6947 74.86264,-1.127 5.5,1.0369 13.9375,2.4122 18.75,3.0562 7.7407,1.0358 9.11047,1.6376 11.875,5.2171 1.71875,2.2254 5.79092,7.0173 9.04927,10.6488 3.258333,3.6314 8.479433,11.6903 11.602433,17.9085 3.123013,6.2183 6.485625,11.6158 7.472488,11.9945 1.983325,0.7611 260.297619,-15.9647 293.125809,-18.9798 34.64657,-3.1821 200.347,-24.2997 202.10275,-25.7568 0.906,-0.7519 1.64725,-2.3854 1.64725,-3.6299 0,-2.5819 1.6295,-3.1984 11.25,-4.2562 3.78125,-0.4158 12.21875,-2.4366 18.75,-4.4906 17.55613,-5.5214 126.13575,-17.5868 196.25,-21.8073 40.27725,-2.4245 55.4475,-3.8456 74.21862,-6.9524 l 23.59363,-3.905 10.8055,3.8652 c 9.29175,3.3237 12.524,3.8652 23.0735,3.8652 12.36075,0 52.93638,6.0626 74.98725,11.2042 5.933,1.3833 12.32888,2.1057 15.216,1.7185 7.53213,-1.0103 74.64838,11.8817 121.2305,23.2865 44.28876,10.8434 61.13836,13.7908 78.83846,13.7908 9.6586,0 12.5229,0.4454 15.2746,2.3755 1.8628,1.3065 5.9182,2.7332 9.0119,3.1705 3.0938,0.4373 21.0938,4.1078 40,8.1566 18.9063,4.0488 36.0625,7.3787 38.125,7.3997 4.1514,0.042 116.5556,25.3974 122.5085,27.6343 2.0579,0.7732 9.6478,4.4141 16.8665,8.0908 7.3559,3.7465 19.1689,8.4097 26.875,10.6089 14.7464,4.2083 59.3189,25.1673 63.613,29.9123 1.2693,1.4024 2.6003,5.1461 2.958,8.3192 0.7559,6.7066 1.8265,7.5552 22.8325,18.0965 17.0129,8.5374 27.395,14.9153 37.2103,22.8586 8.1936,6.631 21.1466,21.6346 24.8511,28.7855 1.2582,2.4287 2.9129,11.8555 4.268,24.3148 2.5719,23.6475 3.2096,19.9011 -10.8693,63.8496 -4.4837,13.9964 -7.8515,26.2316 -7.4838,27.1894 0.3675,0.9578 2.5996,2.6625 4.9601,3.7882 5.3815,2.5662 7.0384,6.1513 7.0229,15.1959 -0.02,11.9142 -7.2329,24.429 -18.7088,32.4625 l -6.422,4.4957 -3.991,-2.317 c -2.195,-1.2744 -4.4409,-3.0641 -4.9906,-3.9773 -1.4573,-2.4204 -3.2379,-2.0619 -8.072,1.6254 -2.3693,1.8071 -6.8609,4.054 -9.9815,4.9932 -5.2118,1.5684 -6.0044,1.5032 -9.7324,-0.8008 -2.2321,-1.3795 -4.7926,-3.3928 -5.6899,-4.4739 -2.4178,-2.9135 -11.9126,-1.1994 -17.3996,3.1412 -5.7373,4.5384 -12.9,6.8101 -18.5994,5.8987 -6.6547,-1.0641 -22.2092,4.4564 -59.5256,21.1267 -10.3125,4.6069 -20.8229,9.1153 -23.3565,10.0187 -6.1876,2.2063 -65.9785,46.8614 -81.6435,60.9758 -11.7926,10.6254 -25.8524,25.0806 -40,41.125 l -6.25,7.088 -26.25,3.7215 c -14.4375,2.0468 -31.3125,4.0584 -37.5,4.4703 -6.1875,0.4119 -37.5691,2.4247 -69.737,4.473 l -58.48696,3.7241 -64.013,-1.3175 -64.013,-1.3176 -61.875,-10.5894 c -53.289,-9.1201 -65.17063,-11.5622 -85.625,-17.5989 -13.0625,-3.8552 -28.25,-8.8377 -33.75,-11.0722 -5.5,-2.2345 -13.9375,-5.3347 -18.75,-6.8893 -4.8125,-1.5547 -12.76737,-4.4067 -17.67738,-6.3378 l -8.9275,-3.5113 -47.9475,1.3273 c -28.2255,0.7814 -48.59037,1.8453 -49.51012,2.5865 -2.12437,1.712 -1.96825,5.3102 0.3125,7.2031 2.164,1.7959 2.72488,17.5 0.625,17.5 -1.67663,0 -1.60163,4.6351 0.0912,5.6817 2.3825,1.4724 -4.1865,4.8899 -10.67937,5.556 -6.19375,0.6353 -6.21788,0.6554 -7.88525,6.5748 -0.91988,3.2656 -2.27113,5.9375 -3.00288,5.9375 -0.89475,0 -0.86387,-0.5621 0.0937,-1.7166 3.116,-3.7545 -2.235,-7.917 -5.71,-4.4419 -0.95537,0.9553 -1.57387,0.4156 -2.14887,-1.875 -0.80075,-3.1944 -0.8945,-3.2165 -13.6575,-3.2165 -13.14838,0 -15.85113,0.8703 -15.85113,5.1042 0,1.2925 -1.32613,2.3745 -3.4375,2.8047 -5.3865,1.0974 -120.82479,3.8916 -123.19525,2.982 -1.16449,-0.4469 -2.11725,-1.8949 -2.11725,-3.218 0,-3.3781 -2.26095,-3.9229 -16.27846,-3.9229 -13.3173,0 -13.44848,0.063 -15.62968,7.5 -1.06009,3.6145 -1.92922,4.4259 -5,4.6678 -3.27151,0.2577 -3.3952,0.1559 -1.03227,-0.8499 3.7897,-1.6131 4.48126,-3.2704 2.16638,-5.1916 -1.68372,-1.3974 -2.24725,-1.3141 -3.59703,0.5319 -1.46144,1.9986 -1.71428,1.8626 -2.90938,-1.5657 -0.9189,-2.636 -2.35692,-3.9676 -4.8267,-4.4696 -8.6438,-1.757 -9.78241,-2.4794 -9.41162,-5.9719 0.85987,-8.0991 -8.59817,-14.7761 -19.43524,-13.7206 -5.86966,0.5717 -6.65275,0.9941 -7.263,3.9177 -0.3762,1.8023 -1.24654,4.3081 -1.93409,5.5684 -1.45168,2.6612 -1.08892,3.2925 11.99212,20.8692 12.26043,16.4741 21.39412,33.3836 23.63746,43.7608 0.46451,2.1487 3.29669,4.9006 8.78201,8.5332 l 8.09639,5.3617 17.88406,-0.69 c 9.83623,-0.3795 19.2903,-0.7468 21.00905,-0.8163 10.80361,-0.4369 35,4.4444 35,7.0606 0,2.8336 4.4115,6.8606 9.375,8.5581 4.682,1.6011 5.058,2.0949 5.91288,7.7655 0.502,3.3306 0.67537,6.7194 0.38525,7.5307 -0.29013,0.8112 -3.23213,1.8418 -6.53788,2.2901 -3.30562,0.4484 -13.86262,2.1753 -23.45994,3.8375 -9.59732,1.6623 -21.40982,3.0269 -26.25,3.0324 -4.84017,0.01 -15.26906,0.8078 -23.17531,1.783 -26.69566,3.2926 -145.67676,6.3815 -168.75,4.3809 z m -452.8125,-152.6981 c 1.80775,-1.4831 2.0575,-4.2723 0.4704,-5.2532 -0.60066,-0.3713 -12.27254,-2.3318 -25.9375,-4.3568 -13.66497,-2.025 -34.12665,-5.9192 -45.4704,-8.6538 -22.80189,-5.4969 -33.35467,-7.146 -38.10234,-5.9544 -2.87365,0.7212 -3.14766,1.3731 -3.14766,7.4881 0,4.102 0.65481,7.2416 1.68945,8.1003 0.9292,0.7712 11.19483,3.6478 22.8125,6.3926 l 21.12305,4.9906 32.5,-0.7357 c 19.21412,-0.435 33.13875,-1.2598 34.0625,-2.0177 z m 262.212628,-385.877 c 53.5303869,-14.7321 123.993,-31.5048 155.440342,-37.0007 9.88102,-1.7268 18.45914,-3.4448 19.0625,-3.8177 2.97487,-1.8385 0.33148,-3.0301 -6.71547,-3.0271 -11.12945,0.01 -195.727822,13.4696 -197.20851,14.3847 -2.308775,1.4269 -1.22585,4.0932 6.412188,15.7877 8.677588,13.2861 10.91345,16.0743 12.890187,16.0743 0.766638,0 5.320075,-1.0805 10.118763,-2.4012 z m 69.898287,443.5273 c -0.606562,-0.9815 -0.40885,-1.1874 0.563213,-0.5866 0.823837,0.5091 2.408475,0.1742 3.521412,-0.7444 1.714838,-1.4154 1.929038,-1.3841 1.404163,0.2049 -0.789838,2.391 -4.2662,3.1043 -5.488788,1.1261 z"
         id="path4149"
         inkscape:connector-curvature="0" />
    </g>
  </g>
</svg>
