<?xml version="1.0" encoding="UTF-8" standalone="no"?>
<svg
   xmlns:dc="http://purl.org/dc/elements/1.1/"
   xmlns:cc="http://creativecommons.org/ns#"
   xmlns:rdf="http://www.w3.org/1999/02/22-rdf-syntax-ns#"
   xmlns:svg="http://www.w3.org/2000/svg"
   xmlns="http://www.w3.org/2000/svg"
   version="1.1"
   id="svg2"
   viewBox="0 0 34.00001 12.534203"
   width="102.00003">
  <defs
     id="defs4" />
  <metadata
     id="metadata7">
    <rdf:RDF>
      <cc:Work
         rdf:about="">
        <dc:format>image/svg+xml</dc:format>
        <dc:type
           rdf:resource="http://purl.org/dc/dcmitype/StillImage" />
        <dc:title></dc:title>
      </cc:Work>
    </rdf:RDF>
  </metadata>
  <g
     transform="translate(882.21888,-846.48197)"
     id="layer1">
    <g
       transform="matrix(0.01451726,0,0,0.01451726,-920.47076,822.86174)"
       id="g4147">
      <path
         id="path4159"
         d="m 3440.6504,2489.3187 c -3.1289,-0.5301 -9.4376,-2.4635 -14.0193,-4.2965 -7.8493,-3.1402 -19.2454,-5.9363 -23.4168,-5.7455 -11.8827,0.5436 -29.5134,2.7576 -35,4.3952 -10.099,3.0141 -32.2309,2.6591 -39.4575,-0.6329 -2.9729,-1.3544 -5.9598,-2.4625 -6.6374,-2.4625 -0.6776,0 -4.6932,-4.1844 -8.9236,-9.2987 -5.0179,-6.0664 -8.8501,-9.5373 -11.0241,-9.9849 -13.5588,-2.7915 -134.8887,-23.4303 -140.8324,-23.9562 -12.2562,-1.0845 -32.2686,-4.2868 -35.625,-5.7005 -1.7188,-0.724 -8.75,-1.8211 -15.625,-2.4381 -6.875,-0.617 -19.25,-2.5505 -27.5,-4.2967 -8.25,-1.7462 -27.9375,-5.129 -43.75,-7.5174 -15.8125,-2.3885 -57.1033,-10.0788 -91.7573,-17.0896 -55.6993,-11.2686 -63.3246,-13.0893 -65.7434,-15.6979 -2.6221,-2.8278 -3.8316,-3.0055 -29.0219,-4.2649 -25.6299,-1.2812 -26.3755,-1.2497 -29.8816,1.2619 -3.4711,2.4866 -5.4046,2.5895 -55.7241,2.9637 -56.7417,0.422 -54.1597,0.7337 -56.7306,-6.8483 l -1.3588,-4.0074 -29.2098,-0.997 c -18.7367,-0.6396 -29.8299,-1.5116 -30.939,-2.4321 -0.951,-0.7893 -4.1298,-6.2469 -7.0639,-12.128 -4.1885,-8.3952 -5.5076,-12.6186 -6.1391,-19.6548 -0.4424,-4.929 -0.4631,-9.8509 -0.046,-10.9375 0.655,-1.7068 4.056,-1.9756 24.9994,-1.9756 26.2055,0 26.2888,-0.024 22.8041,-6.6446 -1.813,-3.4446 -3.091,-4.3021 -8.7468,-5.8693 -5.0667,-1.4039 -6.8151,-4.0584 -4.3179,-6.5556 2.5779,-2.578 22.8767,-5.0365 36.9249,-4.4723 13.9402,0.56 13.2962,1.0186 10.0109,-7.1289 -1.4025,-3.4779 0.7027,-11.5709 25.1471,-96.6714 14.6727,-51.0817 27.2663,-93.6761 27.9858,-94.6542 1.3091,-1.7797 23.2804,-4.3349 52.5582,-6.1124 6.875,-0.4174 14.4687,-1.0387 16.875,-1.3808 8.4996,-1.2084 7.829,-4.2333 16.0978,72.6145 6.4316,59.7731 7.6778,75.2028 8.5296,105.6113 l 0.9976,35.6114 6.25,0.8105 c 29.0308,3.7648 29.5078,3.8759 36.0931,8.4131 3.5238,2.4278 8.3135,5.7112 10.6438,7.2965 2.864,1.9483 6.0482,2.8822 9.8266,2.8822 l 5.5897,0 -0.7128,-4.0625 c -0.3921,-2.2344 -1.0922,-11.4361 -1.5558,-20.4482 -0.6588,-12.8061 -0.4884,-16.6049 0.78,-17.3888 0.8927,-0.5517 4.9706,-1.0485 9.0622,-1.1041 6.9511,-0.094 7.6666,0.1714 10.9064,4.0522 1.907,2.2843 6.7502,11.2108 10.7625,19.8366 l 7.2952,15.6833 9.6463,-0.6612 c 8.0517,-0.5519 26.9425,-6.0765 114.27,-33.4185 86.6466,-27.1287 113.2381,-36.0138 154.7582,-51.7097 l 50.1346,-18.9524 69.2354,-36.1279 c 48.6571,-25.3899 70.5772,-37.4772 73.75,-40.6677 2.483,-2.4969 7.1601,-7.3953 10.3936,-10.8853 4.3712,-4.7182 7.0961,-6.5615 10.625,-7.1873 8.6285,-1.5304 9.121,-1.8651 9.121,-6.1998 0,-2.6365 0.9918,-4.9702 2.8125,-6.6173 1.5468,-1.3994 13.0649,-7.1896 25.5957,-12.867 12.5308,-5.6775 23.4256,-11.0967 24.2108,-12.0428 0.7852,-0.9462 5.7203,-4.0725 10.9668,-6.9474 5.2466,-2.875 11.3386,-6.5786 13.5379,-8.2304 2.1993,-1.6518 6.6993,-3.9661 10,-5.1429 4.8545,-1.7308 6.0744,-2.7618 6.3842,-5.3953 0.2107,-1.7906 1.3357,-4.0956 2.5,-5.1221 3.9618,-3.4928 57.5373,-27.1435 61.4878,-27.1435 2.6344,0 23.8722,-10.4479 66.4724,-32.701 54.8791,-28.6672 62.9027,-32.5126 65.0466,-31.1738 1.4218,0.888 4.1021,1.204 6.4029,0.755 6.3192,-1.2332 20.4013,-7.9745 24.3359,-11.6499 6.1956,-5.7876 15.7579,-10.1452 26.6628,-12.1503 13.7622,-2.5306 16.565,-3.7457 18.1155,-7.8533 1.7562,-4.6528 15.0056,-12.402 24.7187,-14.4573 4.1935,-0.8873 10.1116,-2.8903 13.1512,-4.4511 4.5014,-2.3112 6.9368,-2.7318 13.125,-2.2665 6.6389,0.4991 12.7933,-0.8222 48.7449,-10.4651 l 41.1467,-11.0362 23.8533,-13.9799 c 13.1194,-7.6889 24.355,-14.4175 24.968,-14.9523 0.6209,-0.5417 -0.7081,-3.8128 -3.0005,-7.3852 -4.0313,-6.2822 -4.0666,-6.4587 -1.7396,-8.6726 2.2918,-2.1803 4.4433,-2.1547 61.1255,0.728 32.3124,1.6433 61.2812,2.8413 64.3749,2.6622 l 5.625,-0.3257 0.3873,-5.3718 c 0.4662,-6.4668 1.6474,-7.0848 15.8627,-8.2999 8.878,-0.7589 18.2115,-0.1335 36.875,2.4708 l 5.625,0.785 16.5625,-14.5526 c 9.1094,-8.0039 16.5625,-15.0664 16.5625,-15.6946 0,-1.3137 -0.2601,-1.391 -51.875,-15.423 -33.2998,-9.0529 -41.4751,-10.8241 -58.125,-12.5933 -10.6562,-1.1322 -20.5552,-2.5447 -21.9977,-3.1388 -2.1085,-0.8685 -2.9199,-2.9224 -4.1386,-10.4772 l -1.5159,-9.3969 -7.7364,-0.7533 c -4.255,-0.4142 -29.1113,-2.4559 -55.2363,-4.5369 -45.3522,-3.6127 -50.2413,-3.7683 -108.125,-3.4424 -33.3438,0.1877 -61.3555,-0.1118 -62.2483,-0.6657 -2.243,-1.3915 0.4321,-4.5344 3.8596,-4.5344 1.4054,0 2.2389,-0.3164 1.8523,-0.7031 -1.6155,-1.6154 -66.229,-5.8386 -130.6804,-8.5414 -38.0005,-1.5936 -69.4294,-3.235 -69.842,-3.6475 -0.4125,-0.4126 -0.417,-1.6182 -0.01,-2.6791 0.5917,-1.5415 3.0075,-1.9289 12.0295,-1.9289 l 11.2893,0 0,-4.4142 c 0,-2.4278 -0.7032,-4.6645 -1.5625,-4.9703 -0.8594,-0.3059 -44.5317,-3.3973 -97.0495,-6.8699 -52.5178,-3.4725 -95.971,-6.6128 -96.5625,-6.9784 -1.6157,-0.9986 -1.2931,-4.2642 0.487,-4.9304 0.8593,-0.3216 29.4062,1.0446 63.4375,3.0361 34.0312,1.9914 62.6714,3.1819 63.6448,2.6457 2.4123,-1.329 7.439,-0.8635 -169.2698,-15.6744 -85.9375,-7.2028 -156.9532,-13.3593 -157.8125,-13.6809 -0.8594,-0.3216 -1.5625,-1.4462 -1.5625,-2.499 0,-2.8104 4.5569,-2.6131 87.75,3.7983 42.2712,3.2578 77.8851,5.4455 82.875,5.091 5.2332,-0.3718 49.5743,2.6073 110.3246,7.4124 55.866,4.4187 102.6201,8.034 103.8979,8.034 1.7226,0 2.5106,-1.212 3.0477,-4.6875 0.3985,-2.5781 1.0895,-5.9105 1.5356,-7.4052 0.7336,-2.4578 0.2317,-2.8017 -5.2473,-3.5952 -3.3322,-0.4826 -6.7617,-1.4378 -7.621,-2.1228 -2.1277,-1.6959 -2.1277,-22.2046 0,-25.0537 1.0116,-1.3546 17.4285,-6.5406 46.5625,-14.7087 l 45,-12.6164 32.5,-0.6944 c 24.6842,-0.5274 58.4002,0.2956 140.1993,3.4222 100.3965,3.8374 107.8403,3.9757 109.7768,2.0391 1.1426,-1.1425 2.4591,-2.0761 2.9256,-2.0746 11.8819,0.039 133.9972,4.4163 173.3482,6.2132 29.5625,1.3499 102.125,4.2086 161.25,6.3528 66.4128,2.4084 108.0973,4.3932 109.0625,5.1929 0.8594,0.7119 1.5625,2.9083 1.5625,4.8808 0,2.0723 0.9235,4.1515 2.1875,4.925 1.2032,0.7363 15.9688,7.1508 32.8125,14.2543 21.6569,9.1335 31.3043,13.8252 32.9444,16.0217 1.453,1.9458 2.5601,6.1054 2.9639,11.1355 0.5775,7.1936 0.336,8.3668 -2.3194,11.2694 -4.5325,4.9546 -65.8106,55.8049 -72.58,60.2289 -3.2801,2.1438 -5.9741,4.5362 -5.9864,5.3165 -0.013,0.7803 1.3838,2.3401 3.1025,3.4663 2.6928,1.7643 3.125,2.9783 3.125,8.7765 0,6.6252 0.095,6.7968 6.1305,11.1332 l 6.1304,4.4043 0.8898,10.6804 c 0.4892,5.8741 1.5275,11.1843 2.307,11.8004 0.7795,0.616 11.2611,1.8042 23.2923,2.6404 27.4273,1.9063 31.3165,2.648 43.7943,8.3518 8.7123,3.9824 10.0293,4.9895 9.4651,7.2374 -1.3041,5.1963 0.5465,5.8528 21.4314,7.6022 17.4028,1.4578 21.2812,2.1956 29.4766,5.6074 8.7114,3.6265 9.4667,4.2344 9.8224,7.9048 0.4337,4.4762 0.2982,4.4385 24.7845,6.9066 14.2056,1.4318 26.5881,6.4724 27.2447,11.0907 0.4398,3.0929 0.6794,3.1516 20.856,5.1076 8.5751,0.8313 14.4448,2.1395 18.6936,4.1665 5.5505,2.6479 6.3352,3.5375 7.5569,8.5681 l 1.3634,5.6133 53.6931,22.6388 c 29.5311,12.4513 54.6458,23.5343 55.8101,24.6288 1.1645,1.0945 6.5083,4.1018 11.875,6.683 5.3669,2.5812 10.2257,4.925 10.7974,5.2085 0.5718,0.2836 0.9288,-0.531 0.7935,-1.8101 -0.9775,-9.244 2.0693,-8.8522 18.5725,2.3887 16.6078,11.3121 49.52,37.431 52.0695,41.322 1.4481,2.2101 3.9781,27.2903 10.6496,105.5678 4.8128,56.468 8.7504,104.0982 8.7504,105.8449 0,5.2054 -3.9357,3.8666 -8.125,-2.7638 l -3.75,-5.9353 -0.3796,7.3447 c -0.2446,4.7347 0.4789,10.0795 2.0361,15.0406 1.7876,5.6951 2.2786,10.1144 1.8886,16.9981 -0.5507,9.7204 -16.1365,118.0237 -20.4158,141.8666 -9.8958,55.1362 -12.3717,67.274 -13.9262,68.2714 -1.997,1.2812 -19.8247,0.017 -21.8133,-1.547 -0.748,-0.5883 -2.0749,-3.4551 -2.9484,-6.3706 -0.8735,-2.9155 -5.996,-14.1038 -11.3835,-24.8628 -9.5545,-19.081 -9.9078,-19.583 -14.3646,-20.4191 -3.3269,-0.6242 -5.1558,-0.3264 -6.7265,1.0951 -1.9518,1.7663 -2.8033,1.768 -8.937,0.018 -10.9348,-3.1203 -13.2508,-4.3038 -14.7158,-7.5191 -0.762,-1.6723 -2.2655,-3.0405 -3.341,-3.0405 -1.0756,0 -10.7296,-4.5 -21.4535,-10 -12.0379,-6.174 -20.9845,-10 -23.3836,-10.0001 -2.7526,0 -7.3489,-2.4012 -15.7609,-8.2339 -13.7674,-9.546 -31.87,-18.9356 -44.375,-23.0168 -4.8125,-1.5706 -15.3507,-6.1505 -23.4182,-10.1774 -14.7068,-7.341 -22.2068,-9.1673 -22.2068,-5.4076 0,2.4389 -0.995,2.7579 -13.2204,4.2385 -7.6337,0.9246 -11.8406,0.817 -17.252,-0.4409 -4.173,-0.97 -10.5142,-1.3941 -15.2103,-1.0171 -7.2692,0.5835 -8.5593,0.3119 -13.2433,-2.7878 l -5.1895,-3.4343 -8.8797,2.7866 c -12.2329,3.8389 -34.3077,4.7635 -46.3453,1.9412 -10.9636,-2.5704 -24.5255,-9.0969 -32.182,-15.4872 -3.2435,-2.7071 -7.3592,-5.289 -9.146,-5.7374 -2.6466,-0.6643 -3.1752,-1.4441 -2.8526,-4.2081 0.3763,-3.2226 0.082,-3.424 -5.8539,-4.0177 -5.8543,-0.5854 -6.2758,-0.8624 -6.6586,-4.375 -0.5801,-5.3227 -2.0686,-6.2728 -5.0914,-3.25 -1.4437,1.4437 -3.8906,2.7036 -5.4375,2.7997 -5.4318,0.3375 -12.7611,-0.4554 -15.8961,-1.7196 -1.9082,-0.7696 -19.8599,-1.3381 -45.1795,-1.4309 l -42.0131,-0.154 1.7857,2.7254 c 1.6087,2.455 1.5374,2.8582 -0.7172,4.0649 -1.3766,0.7367 -7.3211,1.3395 -13.2101,1.3395 -6.4545,0 -10.7072,0.5071 -10.7072,1.2768 0,0.7022 -1.4062,1.9175 -3.125,2.7006 -1.7187,0.7832 -3.125,2.1576 -3.125,3.0543 0,0.8967 -1.2656,2.2991 -2.8125,3.1164 -1.5468,0.8173 -5.5646,3.9483 -8.9283,6.9578 -14.211,12.7144 -33.5662,18.5543 -57.921,17.4765 -8.4078,-0.3722 -15.5667,-0.224 -15.9085,0.3293 -0.3419,0.5532 -4.7129,1.358 -9.7132,1.7884 -17.373,1.4954 -32.8633,4.0608 -36.6345,6.0673 -2.0861,1.1099 -15.1427,4.0304 -29.0147,6.49 -13.872,2.4596 -27.6339,5.3714 -30.582,6.4706 -8.3914,3.1289 -17.9584,4.543 -32.8603,4.8572 -21.1213,0.4453 -29.0306,1.6441 -59.0436,8.9492 -26.7318,6.5065 -27.967,6.6925 -32.334,4.8678 -3.4533,-1.4429 -4.3922,-2.463 -3.922,-4.2612 0.34,-1.3004 0.1618,-3.1028 -0.3961,-4.0055 -0.7805,-1.2629 -1.7264,-0.9293 -4.1024,1.4467 -1.6983,1.6984 -5.9272,4.109 -9.3972,5.3568 -5.9264,2.1311 -6.8899,2.1487 -15.8781,0.2899 -11.292,-2.3353 -14.6715,-2.423 -24.8759,-0.646 -5.9364,1.0338 -7.9231,1.9455 -8.8524,4.0625 -1.5805,3.6003 -16.8284,8.9502 -32.88,11.5363 -6.6375,1.0694 -12.912,1.9533 -13.9432,1.9642 -3.4833,0.037 -14.3644,2.6731 -15.8358,3.8364 -0.8034,0.6352 -4.0022,1.362 -7.1084,1.6151 -3.1062,0.2532 -7.6687,1.4193 -10.139,2.5915 -4.256,2.0196 -4.6196,2.015 -6.9425,-0.087 -2.3617,-2.1374 -2.5396,-2.106 -4.872,0.8591 -1.3313,1.6926 -4.7582,4.1316 -7.6153,5.4199 -4.7353,2.1354 -5.9867,2.1993 -14.1533,0.7235 -16.3132,-2.9482 -19.7589,-2.8912 -39.5837,0.6538 -10.6563,1.9056 -24.1119,3.7802 -29.9013,4.1658 -6.7796,0.4515 -10.7098,1.2573 -11.0417,2.2636 -0.3018,0.9149 0.5639,1.5625 2.0888,1.5625 3.5169,0 3.3444,3.5489 -0.2083,4.2853 -1.5469,0.3206 -14.7636,0.9442 -29.3705,1.3858 -16.2262,0.4905 -29.1128,1.4829 -33.125,2.551 -3.6119,0.9615 -9.0026,1.7549 -11.9794,1.7631 -3.7121,0.01 -10.0939,2.024 -20.3137,6.4103 -8.3222,3.5718 -15.966,6.117 -17.3128,5.7648 -1.3263,-0.3468 -11.1582,1.2104 -21.8487,3.4604 -14.6963,3.0932 -21.9586,5.327 -29.7748,9.1585 -12.2093,5.985 -20.693,7.7202 -37.7547,7.7224 -15.7276,0 -34.46,4.2791 -46.3369,10.5799 -7.5607,4.0111 -9.27,4.4199 -18.5374,4.4333 -5.6147,0.01 -13.3024,0.8979 -17.0836,1.9772 -4.2018,1.1993 -11.334,1.9175 -18.3423,1.8469 -10.6787,-0.1075 -12.0541,0.179 -20,4.166 -8.4595,4.2448 -25.5391,8.391 -33.3583,8.0981 -2.1584,-0.081 -6.4844,-0.5808 -9.6133,-1.1108 z"
         style="fill:#000000;fill-opacity:1" />
    </g>
  </g>
</svg>
