<?xml version="1.0" encoding="UTF-8" standalone="no"?>
<svg
   xmlns:dc="http://purl.org/dc/elements/1.1/"
   xmlns:cc="http://creativecommons.org/ns#"
   xmlns:rdf="http://www.w3.org/1999/02/22-rdf-syntax-ns#"
   xmlns:svg="http://www.w3.org/2000/svg"
   xmlns="http://www.w3.org/2000/svg"
   version="1.1"
   id="svg2"
   viewBox="0 0 23.999997 3.0457339"
   width="71.999991">
  <defs
     id="defs4" />
  <metadata
     id="metadata7">
    <rdf:RDF>
      <cc:Work
         rdf:about="">
        <dc:format>image/svg+xml</dc:format>
        <dc:type
           rdf:resource="http://purl.org/dc/dcmitype/StillImage" />
        <dc:title></dc:title>
      </cc:Work>
    </rdf:RDF>
  </metadata>
  <g
     transform="translate(874.54352,-620.88243)"
     id="layer1">
    <g
       transform="matrix(0.0102564,0,0,0.0102564,-864.05004,629.39703)"
       id="g4147">
      <path
         id="path4153"
         d="m 1076.3393,-533.87208 c -35.8685,-1.35363 -53.0092,-3.78047 -83.12496,-11.76904 -13.80588,-3.6622 -49.013,-8.94187 -134.375,-20.15088 -33.6875,-4.42356 -79.53125,-10.83395 -101.875,-14.2453 -81.32425,-12.41625 -83.877,-12.68321 -117.71875,-12.31044 l -30.40625,0.33494 -0.625,7.5 -0.625,7.5 -6.49188,0.65305 c -5.58862,0.56218 -7.154,1.36232 -11.25,5.7504 -9.25625,9.91614 -12.4005,11.13875 -37.89662,14.7355 l -23.1385,3.26416 -239.3615,-0.0129 c -378.734587,-0.0204 -433.48179,-2.4891 -624.3615,-28.15467 -33,-4.43715 -68.71875,-9.18156 -79.375,-10.54312 -79.32443,-10.13539 -109.87973,-14.40721 -113.125,-15.81558 -2.0625,-0.89506 -22.3125,-4.21252 -45,-7.37212 -55.55579,-7.73705 -101.43901,-15.11048 -118.4598,-19.03649 l -14.0402,-3.23851 -88.125,-0.8842 c -109.6095,-1.09976 -103.25528,-0.35632 -143.6227,-16.80376 -29.1298,-11.86878 -29.2909,-11.91678 -40,-11.91337 -9.8945,0.004 -32.60464,-1.73453 -42.31484,-3.23778 -10.3177,-1.5973 -1.5095,-2.69578 28.12504,-3.50749 17.7031,-0.4849 38.0937,-1.70091 45.3125,-2.70225 7.2187,-1.00134 25.5,-2.12708 40.625,-2.50163 19.96886,-0.49451 28.52697,-1.16712 31.25,-2.45605 6.27227,-2.96891 22.11675,-6.84822 27.97059,-6.84822 3.03646,0 10.78887,-1.6875 17.22757,-3.75 l 11.70674,-3.75 69.27581,0 c 64.901,0 69.31604,-0.13814 69.91274,-2.1875 0.35031,-1.20313 0.62707,-9.21875 0.61505,-17.8125 -0.033,-23.6012 1.10087,-25.39685 22.979,-36.38953 8.07812,-4.05886 14.6875,-7.93791 14.6875,-8.62011 0,-1.69246 1.52945,-1.7303 -105.59013,2.61258 -93.68407,3.79817 -95.43463,3.82431 -123.15987,1.83942 -31.4403,-2.25086 -36.25,-2.83184 -36.25,-4.37871 0,-1.24624 -0.1036,-1.23956 108.125,-6.97456 45.375,-2.40442 90.09375,-4.89754 99.375,-5.54029 31.93901,-2.21184 40.81812,-2.6419 105.625,-5.11596 90.25016,-3.44539 109.06324,-4.58882 122.32514,-7.43472 28.32583,-6.07847 78.7137,-12.10163 150.79986,-18.02599 52.53877,-4.31787 68.48281,-5.30439 123.125,-7.61822 34.43976,-1.45836 48.61164,-2.49716 51.54302,-3.77813 2.22367,-0.97172 16.13868,-4.31486 30.92225,-7.42919 l 26.879243,-5.66243 40.95275,-1.22358 c 73.820315,-2.20558 79.28624,-2.01559 111.57774,3.87839 l 28.125,5.13349 153.749997,-0.21594 c 147.65537,-0.20737 154.27025,-0.31435 166.875,-2.69862 25.52412,-4.82805 34.753,-4.99625 129.608,-2.36213 128.05512,3.55612 165.98175,5.2198 230.392,10.10642 40.67262,3.08571 66.95437,5.66306 68.69087,6.73623 0.72,0.44502 1.30913,3.29645 1.30913,6.33653 0,6.52694 -3.126,5.4834 29.82575,9.9567 26.69975,3.62459 28.0125,3.96076 33.50075,8.57876 3.11612,2.62215 9.02488,4.35316 32.4295,9.5006 15.7405,3.46184 30.07313,7.11381 31.85037,8.1155 1.77713,1.00168 14.43338,4.97569 28.12499,8.83114 78.9996,22.24581 125.6346,41.75336 228.8845,95.74301 23.5075,12.29214 43.432,22.34934 44.2766,22.34934 0.8446,0 2.5932,-0.95708 3.8858,-2.12684 2.1336,-1.93087 2.8337,-1.95821 7.5984,-0.29665 4.8984,1.70819 5.2212,2.10721 4.8412,5.98634 -0.4721,4.81937 1.4952,7.43664 9.7821,13.01385 14.4768,9.74309 17.0121,15.36585 15.964,35.40406 -0.7419,14.18389 -2.3667,17.11876 -11.7832,21.28316 -23.8447,10.5452 -83.0438,24.39235 -128.2978,30.00987 -18.4593,2.2914 -64.5011,3.09136 -100.258,1.74193 z"
         style="fill:#000000;fill-opacity:1" />
    </g>
  </g>
</svg>
