<?xml version="1.0" encoding="UTF-8" standalone="no"?>
<!-- Created with Inkscape (http://www.inkscape.org/) -->

<svg
   xmlns:dc="http://purl.org/dc/elements/1.1/"
   xmlns:cc="http://creativecommons.org/ns#"
   xmlns:rdf="http://www.w3.org/1999/02/22-rdf-syntax-ns#"
   xmlns:svg="http://www.w3.org/2000/svg"
   xmlns="http://www.w3.org/2000/svg"
   xmlns:sodipodi="http://sodipodi.sourceforge.net/DTD/sodipodi-0.dtd"
   xmlns:inkscape="http://www.inkscape.org/namespaces/inkscape"
   width="10.443777mm"
   height="2.0319724mm"
   viewBox="0 0 37.005509 7.1999022"
   id="svg2"
   version="1.1"
   inkscape:version="0.91 r13725"
   sodipodi:docname="Razor.svg">
  <defs
     id="defs4" />
  <sodipodi:namedview
     id="base"
     pagecolor="#ffffff"
     bordercolor="#666666"
     borderopacity="1.0"
     inkscape:pageopacity="0.0"
     inkscape:pageshadow="2"
     inkscape:zoom="31.678384"
     inkscape:cx="20.290249"
     inkscape:cy="3.9119322"
     inkscape:document-units="px"
     inkscape:current-layer="g4147"
     showgrid="false"
     fit-margin-top="0"
     fit-margin-left="0"
     fit-margin-right="0"
     fit-margin-bottom="0"
     inkscape:window-width="1920"
     inkscape:window-height="1017"
     inkscape:window-x="-8"
     inkscape:window-y="-8"
     inkscape:window-maximized="1" />
  <metadata
     id="metadata7">
    <rdf:RDF>
      <cc:Work
         rdf:about="">
        <dc:format>image/svg+xml</dc:format>
        <dc:type
           rdf:resource="http://purl.org/dc/dcmitype/StillImage" />
        <dc:title></dc:title>
      </cc:Work>
    </rdf:RDF>
  </metadata>
  <g
     inkscape:label="Layer 1"
     inkscape:groupmode="layer"
     id="layer1"
     transform="translate(672.3593,-759.68506)">
    <g
       id="g4147"
       transform="translate(-6399.0962,1378.9066)">
      <path
         style="fill:#000000;fill-opacity:1"
         d="m 5731.0869,-612.04337 -0.3166,-0.0179 -0.5639,-0.1846 c -0.3101,-0.10152 -0.8577,-0.27595 -1.2168,-0.3876 -0.3591,-0.11166 -0.6663,-0.21539 -0.6826,-0.23053 -0.017,-0.0163 -0.034,-0.0778 -0.04,-0.15048 l -0.01,-0.12296 -0.2374,-0.0152 c -0.1306,-0.008 -0.3665,-0.0217 -0.5243,-0.0297 l -0.2869,-0.0145 0.01,-0.16054 c 0.01,-0.15327 0,-0.1628 -0.047,-0.21021 -0.029,-0.0273 -0.07,-0.0859 -0.09,-0.13011 -0.032,-0.0704 -0.032,-0.0835 -0.01,-0.10458 0.019,-0.0158 0.025,-0.0427 0.017,-0.0779 -0.01,-0.0459 0,-0.0557 0.04,-0.0667 0.05,-0.0125 0.051,-0.0172 0.046,-0.14585 -0.01,-0.12886 -0.01,-0.13315 -0.061,-0.13925 -0.045,-0.005 -0.071,-0.0336 -0.1435,-0.15787 -0.049,-0.0834 -0.089,-0.16244 -0.089,-0.17572 0,-0.0133 -0.033,-0.049 -0.072,-0.0793 l -0.072,-0.0551 0.011,-0.96017 c 0.012,-1.05506 0.017,-1.10265 0.1239,-1.17287 0.035,-0.0231 0.084,-0.0897 0.1185,-0.16028 0.073,-0.15126 0.1585,-0.2497 0.2157,-0.2497 0.03,0 0.054,-0.021 0.077,-0.0697 0.018,-0.0383 0.056,-0.0782 0.083,-0.0885 0.027,-0.0104 0.049,-0.0282 0.049,-0.0396 0,-0.0114 0.022,-0.0291 0.049,-0.0393 0.044,-0.0167 0.1294,-0.14678 0.1294,-0.19683 0,-0.011 -0.044,-0.0389 -0.097,-0.062 -0.054,-0.0231 -0.1128,-0.0588 -0.1314,-0.0794 -0.032,-0.0353 -0.032,-0.0424 -2e-4,-0.12598 0.025,-0.0655 0.038,-0.1854 0.048,-0.4606 0.01,-0.20463 0.022,-0.38444 0.031,-0.39957 0.014,-0.0232 0.1655,-0.0253 0.9621,-0.0135 0.7666,0.0113 0.9482,0.009 0.9615,-0.0118 0.01,-0.0142 0.034,-0.0356 0.056,-0.0476 0.034,-0.0186 0.04,-0.0458 0.045,-0.18302 l 0.01,-0.16115 0.1513,0 0.1513,0 0.2683,0.27698 0.2684,0.27697 0.7914,0.30414 0.7914,0.30414 0.3333,0.0454 c 0.3937,0.0536 0.4204,0.0668 0.3921,0.1928 -0.01,0.0464 -0.033,0.10642 -0.051,0.13341 l -0.032,0.0491 -0.6377,0.005 c -0.3507,0.003 -0.7971,0.005 -0.992,0.005 -0.251,0 -0.3567,0.007 -0.3622,0.0229 0,0.0126 0,0.0277 0.01,0.0335 0.01,0.006 0.3861,0.0202 0.837,0.032 1.204,0.0315 1.3389,0.0425 1.597,0.13025 0.1166,0.0397 0.3133,0.12009 0.4369,0.17867 l 0.2249,0.1065 0.1906,-0.0287 c 0.6255,-0.0943 1.3568,-0.26578 3.4554,-0.81024 1.8019,-0.4675 2.9537,-0.72442 3.2751,-0.73053 0.1432,-0.003 0.1531,1.6e-4 0.2548,0.0731 l 0.1058,0.076 0.3685,-0.0607 c 0.9195,-0.15138 1.8251,-0.2242 2.812,-0.22612 0.6251,-0.001 1.0037,0.0235 1.6297,0.10649 1.8493,0.24509 4.13,0.85907 6.5419,1.76117 0.3726,0.13935 0.3916,0.14424 0.554,0.14244 0.092,-10e-4 0.1928,-0.0114 0.2229,-0.0231 0.041,-0.016 0.087,-0.0138 0.1849,0.009 0.1491,0.0346 0.1799,0.0223 0.1896,-0.0754 0.01,-0.1007 0.056,-0.0919 0.056,0.0107 0,0.0485 0.011,0.0975 0.025,0.10876 0.061,0.0503 1.715,0.40621 2.587,0.55652 1.2943,0.22311 4.8432,0.67302 7.288,0.92396 0.2307,0.0237 0.3364,0.0422 0.3433,0.0601 0.01,0.0143 -0.049,0.18004 -0.1206,0.36842 -0.1408,0.36931 -0.1547,0.45481 -0.097,0.59804 0.02,0.0496 0.03,0.126 0.028,0.20453 0,0.13959 0.031,0.22086 0.097,0.22086 0.05,0 0.05,0.0238 2e-4,0.0687 -0.032,0.0285 -0.035,0.043 -0.017,0.0757 0.038,0.071 -0.024,0.0931 -0.2618,0.0931 -0.1455,0 -0.2175,0.008 -0.2309,0.0247 -0.011,0.0136 -0.049,0.10404 -0.085,0.20098 l -0.066,0.17625 -1.5223,-0.0117 c -1.559,-0.012 -3.8175,0.009 -4.9104,0.0447 -2.0452,0.0677 -2.9362,0.12748 -4.719,0.31683 -2.3649,0.25119 -2.8228,0.2686 -6.5887,0.25049 -2.5935,-0.0125 -4.0911,-0.035 -4.8079,-0.0723 -1.4456,-0.0752 -2.3462,-0.21695 -3.3241,-0.52321 l -0.2077,-0.0651 -1.6126,0.0776 -1.6125,0.0776 -0.5144,-0.0315 c -0.4699,-0.0288 -0.5325,-0.0288 -0.7222,-1.6e-4 -0.1143,0.0172 -0.2272,0.0393 -0.2508,0.0491 -0.077,0.0318 -0.1374,0.17202 -0.1738,0.40574 -0.019,0.11971 -0.046,0.23709 -0.061,0.26085 -0.015,0.0238 -0.038,0.10835 -0.05,0.18797 -0.037,0.23239 -0.039,0.23434 -0.2901,0.23084 -0.1168,-0.002 -0.3547,-0.011 -0.5289,-0.0209 z"
         id="path4151"
         inkscape:connector-curvature="0" />
    </g>
  </g>
</svg>
