<?xml version="1.0" encoding="UTF-8" standalone="no"?>
<svg
   xmlns:dc="http://purl.org/dc/elements/1.1/"
   xmlns:cc="http://creativecommons.org/ns#"
   xmlns:rdf="http://www.w3.org/1999/02/22-rdf-syntax-ns#"
   xmlns:svg="http://www.w3.org/2000/svg"
   xmlns="http://www.w3.org/2000/svg"
   version="1.1"
   id="svg2"
   viewBox="0 0 10.9953 2.140113"
   width="32.9859">
  <defs
     id="defs4" />
  <metadata
     id="metadata7">
    <rdf:RDF>
      <cc:Work
         rdf:about="">
        <dc:format>image/svg+xml</dc:format>
        <dc:type
           rdf:resource="http://purl.org/dc/dcmitype/StillImage" />
        <dc:title></dc:title>
      </cc:Work>
    </rdf:RDF>
  </metadata>
  <g
     transform="translate(672.3503,-764.74444)"
     id="layer1">
    <g
       transform="translate(-6399.0962,1378.9066)"
       id="g4147">
      <path
         id="path4151"
         d="m 5728.03,-612.0281 -0.094,-0.005 -0.1676,-0.0549 c -0.092,-0.0302 -0.2549,-0.082 -0.3617,-0.11522 -0.1067,-0.0332 -0.198,-0.064 -0.2029,-0.0685 -0.01,-0.005 -0.01,-0.0231 -0.012,-0.0447 l 0,-0.0365 -0.071,-0.005 c -0.039,-0.002 -0.109,-0.006 -0.1559,-0.009 l -0.085,-0.004 0,-0.0477 c 0,-0.0456 0,-0.0484 -0.014,-0.0625 -0.01,-0.008 -0.021,-0.0255 -0.027,-0.0387 -0.01,-0.0209 -0.01,-0.0248 0,-0.0311 0.01,-0.005 0.01,-0.0127 0.01,-0.0232 0,-0.0136 0,-0.0165 0.012,-0.0198 0.015,-0.004 0.015,-0.005 0.014,-0.0434 0,-0.0383 0,-0.0396 -0.018,-0.0414 -0.013,-10e-4 -0.021,-0.01 -0.043,-0.0469 -0.015,-0.0248 -0.026,-0.0483 -0.026,-0.0522 0,-0.004 -0.01,-0.0146 -0.021,-0.0236 l -0.021,-0.0164 0,-0.28541 c 0,-0.31362 0.01,-0.32777 0.037,-0.34864 0.01,-0.007 0.025,-0.0267 0.035,-0.0476 0.022,-0.045 0.047,-0.0742 0.064,-0.0742 0.01,0 0.016,-0.006 0.023,-0.0207 0.01,-0.0114 0.017,-0.0232 0.025,-0.0263 0.01,-0.003 0.015,-0.008 0.015,-0.0118 0,-0.003 0.01,-0.009 0.015,-0.0117 0.013,-0.005 0.038,-0.0436 0.038,-0.0585 0,-0.003 -0.013,-0.0116 -0.029,-0.0184 -0.016,-0.007 -0.034,-0.0175 -0.039,-0.0236 -0.01,-0.0105 -0.01,-0.0126 -1e-4,-0.0374 0.01,-0.0195 0.011,-0.0551 0.014,-0.13691 0,-0.0608 0.01,-0.11428 0.01,-0.11878 0,-0.007 0.049,-0.008 0.286,-0.004 0.2279,0.003 0.2819,0.003 0.2858,-0.004 0,-0.004 0.01,-0.0106 0.017,-0.0141 0.01,-0.006 0.012,-0.0136 0.013,-0.0544 l 0,-0.0479 0.045,0 0.045,0 0.08,0.0823 0.08,0.0823 0.2352,0.0904 0.2353,0.0904 0.099,0.0135 c 0.117,0.0159 0.1249,0.0199 0.1165,0.0573 0,0.0138 -0.01,0.0316 -0.015,0.0397 l -0.01,0.0146 -0.1896,10e-4 c -0.1043,8.9e-4 -0.2369,10e-4 -0.2949,10e-4 -0.075,0 -0.106,0.002 -0.1076,0.007 0,0.004 0,0.008 0,0.01 0,0.002 0.1148,0.006 0.2488,0.01 0.3579,0.009 0.398,0.0126 0.4747,0.0387 0.035,0.0118 0.093,0.0357 0.1299,0.0531 l 0.067,0.0317 0.057,-0.009 c 0.1859,-0.028 0.4033,-0.079 1.0271,-0.24085 0.5357,-0.13897 0.878,-0.21534 0.9736,-0.21715 0.042,-8.9e-4 0.046,5e-5 0.076,0.0217 l 0.032,0.0226 0.1095,-0.018 c 0.2733,-0.045 0.5425,-0.0667 0.8359,-0.0672 0.1858,-3e-4 0.2983,0.007 0.4844,0.0317 0.5497,0.0729 1.2277,0.25537 1.9446,0.52352 0.1108,0.0414 0.1164,0.0429 0.1647,0.0423 0.027,-3e-4 0.057,-0.003 0.066,-0.007 0.012,-0.005 0.026,-0.004 0.055,0.003 0.044,0.0103 0.053,0.007 0.056,-0.0224 0,-0.0299 0.017,-0.0273 0.017,0.003 0,0.0144 0,0.029 0.01,0.0323 0.018,0.015 0.5098,0.12075 0.769,0.16543 0.3848,0.0663 1.4397,0.20006 2.1664,0.27465 0.069,0.007 0.1,0.0126 0.1021,0.0179 0,0.004 -0.015,0.0535 -0.036,0.10951 -0.042,0.10978 -0.046,0.13519 -0.029,0.17777 0.01,0.0147 0.01,0.0375 0.01,0.0608 0,0.0415 0.01,0.0657 0.029,0.0657 0.015,0 0.015,0.007 1e-4,0.0204 -0.01,0.008 -0.01,0.0128 -0.01,0.0225 0.011,0.0211 -0.01,0.0277 -0.078,0.0277 -0.043,0 -0.065,0.002 -0.069,0.007 0,0.004 -0.015,0.0309 -0.025,0.0597 l -0.02,0.0524 -0.4525,-0.003 c -0.4634,-0.004 -1.1348,0.003 -1.4596,0.0133 -0.608,0.0201 -0.8728,0.0379 -1.4028,0.0942 -0.7029,0.0747 -0.8391,0.0798 -1.9585,0.0745 -0.7709,-0.004 -1.2161,-0.0104 -1.4291,-0.0215 -0.4298,-0.0224 -0.6975,-0.0645 -0.9881,-0.15553 l -0.062,-0.0194 -0.4793,0.0231 -0.4794,0.0231 -0.1529,-0.009 c -0.1396,-0.009 -0.1582,-0.009 -0.2146,-5e-5 -0.034,0.005 -0.068,0.0117 -0.075,0.0146 -0.023,0.009 -0.041,0.0511 -0.052,0.1206 -0.01,0.0356 -0.014,0.0705 -0.018,0.0775 0,0.007 -0.011,0.0322 -0.015,0.0559 -0.011,0.0691 -0.012,0.0697 -0.086,0.0686 -0.035,-6e-4 -0.1054,-0.003 -0.1572,-0.006 z"
         style="fill:#000000;fill-opacity:1" />
    </g>
  </g>
</svg>
