<?xml version="1.0" encoding="UTF-8" standalone="no"?>
<svg
   xmlns:dc="http://purl.org/dc/elements/1.1/"
   xmlns:cc="http://creativecommons.org/ns#"
   xmlns:rdf="http://www.w3.org/1999/02/22-rdf-syntax-ns#"
   xmlns:svg="http://www.w3.org/2000/svg"
   xmlns="http://www.w3.org/2000/svg"
   version="1.1"
   id="svg3058"
   viewBox="0 0 155 48.881676"
   width="465">
  <defs
     id="defs3060" />
  <metadata
     id="metadata3063">
    <rdf:RDF>
      <cc:Work
         rdf:about="">
        <dc:format>image/svg+xml</dc:format>
        <dc:type
           rdf:resource="http://purl.org/dc/dcmitype/StillImage" />
        <dc:title></dc:title>
      </cc:Work>
    </rdf:RDF>
  </metadata>
  <g
     transform="translate(544.57174,-761.33717)"
     id="layer1">
    <g
       transform="translate(-314.28571,822.85714)"
       id="g3077">
      <path
         id="path3079"
         d="m -162.74108,-12.893293 c -0.2474,-0.203928 -0.30939,-0.312009 -0.30939,-0.539449 0,-0.229107 -0.0323,-0.28443 -0.16598,-0.28443 -0.15884,0 -0.16598,-0.05533 -0.16598,-1.286378 l 0,-1.286378 -1.22414,-0.0033 -1.22413,-0.0033 -2.51358,-2.195987 c -2.28605,-1.997206 -2.77013,-2.356217 -2.85324,-2.11605 -0.0263,0.07604 -6.23611,-1.561428 -6.58405,-1.736156 -0.0913,-0.04585 -0.46402,-0.163408 -0.82828,-0.26125 -0.36427,-0.09784 -0.70039,-0.224939 -0.74693,-0.282436 -0.0466,-0.05747 -1.46645,-0.478467 -3.15534,-0.935527 -1.68888,-0.45706 -5.66038,-1.533672 -8.82555,-2.39247 -4.96248,-1.346462 -5.76476,-1.54374 -5.82684,-1.432807 -0.0648,0.11577 -0.18654,0.113599 -1.21649,-0.02169 -1.80977,-0.237715 -1.67069,-0.189722 -1.70006,-0.586671 l -0.0254,-0.342997 -1.40487,-0.377529 c -0.78111,-0.209906 -1.41711,-0.341906 -1.43244,-0.2973 -0.0152,0.04413 -0.13614,0.269562 -0.26885,0.50097 l -0.24128,0.420742 -1.35549,-0.189741 c -0.74552,-0.104359 -1.3835,-0.19099 -1.41773,-0.192514 -0.0342,-0.0015 -0.0623,-0.301544 -0.0623,-0.666709 0,-0.523118 -0.0309,-0.694741 -0.14593,-0.809174 -0.22629,-0.225231 -11.03442,-3.131791 -11.29929,-3.038645 -0.11209,0.03942 -0.18769,0.10161 -0.16799,0.138194 0.0632,0.117399 -0.84069,0.578382 -1.1926,0.608217 -0.2094,0.01776 -0.77892,-0.08677 -1.48201,-0.271983 l -1.14193,-0.300817 -0.0551,-0.382936 c -0.15826,-1.099925 -0.12918,-1.037015 -0.53441,-1.156076 -0.20442,-0.06006 -0.65178,-0.230086 -0.99412,-0.377827 l -0.62244,-0.268621 -0.24898,-0.842552 c -0.13694,-0.463406 -0.26765,-0.858459 -0.29047,-0.877903 -0.0228,-0.01945 -0.32767,0.01023 -0.67743,0.06594 l -0.63592,0.10129 -0.0994,-0.214932 c -0.24847,-0.537315 -2.94662,-8.188919 -3.14863,-8.929104 -0.12458,-0.456456 -0.34752,-1.390115 -0.49543,-2.074801 -0.14791,-0.684684 -0.38044,-1.756928 -0.51673,-2.382756 l -0.2478,-1.137877 0.35178,-1.600864 c 0.19348,-0.880475 0.39865,-1.656885 0.45595,-1.725352 0.0795,-0.09498 0.0833,-0.215099 0.0164,-0.506709 -0.0853,-0.371466 -0.0782,-0.396252 0.25108,-0.881207 l 0.33886,-0.498986 0.9306,-0.06031 c 0.51184,-0.03317 1.00864,-0.09461 1.104,-0.136528 0.0954,-0.04192 2.30213,-0.262212 4.90394,-0.48954 3.64881,-0.318811 4.75061,-0.440546 4.81829,-0.532345 0.0482,-0.06546 1.18732,-0.456734 2.53126,-0.869498 l 2.44352,-0.750473 8.18413,-0.652495 8.18414,-0.652495 2.52185,0.362292 2.52184,0.362292 1.93952,-0.169978 c 1.06673,-0.09349 1.97493,-0.191871 2.01821,-0.218625 0.0433,-0.02674 0.0582,-0.102015 0.0332,-0.167256 -0.028,-0.07288 0.0339,-0.154779 0.16032,-0.212405 0.11322,-0.05159 0.20585,-0.162488 0.20585,-0.246453 0,-0.140395 0.0867,-0.152663 1.07889,-0.152663 1.01713,0 1.0789,0.0094 1.0789,0.163068 0,0.08968 0.0722,0.201722 0.16053,0.248975 0.20974,0.112246 0.25443,0.108379 0.25443,-0.02204 0,-0.05937 0.0467,-0.208462 0.10374,-0.33132 0.0925,-0.199285 0.14907,-0.22345 0.52396,-0.224028 0.40343,-5.84e-4 0.42477,0.01094 0.53419,0.289824 0.10259,0.261461 0.14567,0.290474 0.43133,0.290474 0.17455,0 0.66144,0.07664 1.08199,0.170319 0.42054,0.09367 0.84356,0.150502 0.94004,0.126291 0.0965,-0.0242 1.03654,-0.06753 2.08903,-0.09625 l 1.91361,-0.05223 0.47521,0.631371 c 0.3199,0.425035 0.53055,0.631366 0.64458,0.631366 0.0932,0 0.52746,0.26915 0.9651,0.598118 0.43765,0.328964 0.87042,0.60098 0.96171,0.604477 0.40393,0.01547 0.70138,0.304657 1.44412,1.403935 0.4553,0.673849 0.73541,1.166031 0.7065,1.241375 -0.035,0.09122 0.46167,0.465051 1.84394,1.387901 1.04051,0.694681 2.00836,1.289334 2.15076,1.321452 0.14241,0.03212 0.54355,0.250461 0.89144,0.485212 l 0.63251,0.426819 1.0204,5.83e-4 c 0.56123,2.45e-4 2.41595,0.131038 4.12161,0.290472 1.70566,0.159437 3.13417,0.289879 3.17445,0.289879 0.0403,0 0.0732,0.09337 0.0732,0.207484 0,0.249024 0.0121,0.250104 0.54278,0.04841 0.38118,-0.144878 0.50453,-0.151145 1.39012,-0.07059 0.9529,0.08667 0.97183,0.09236 0.97183,0.292395 0,0.162412 0.0296,0.191454 0.14523,0.14245 0.58111,-0.246284 0.73707,-0.262244 1.68059,-0.171988 0.91977,0.08798 0.95347,0.09807 0.92845,0.278028 -0.0309,0.221813 0.0676,0.233862 0.42027,0.05147 0.2199,-0.113717 0.42088,-0.126058 1.26151,-0.07747 0.54996,0.03179 1.03151,0.08876 1.07011,0.126606 0.0386,0.03784 0.005,0.783264 -0.0739,1.656491 -0.0793,0.873228 -0.1295,1.601393 -0.11168,1.618144 0.0178,0.01673 0.29261,0.04378 0.61064,0.06007 l 0.57823,0.02961 0.0553,-0.331968 c 0.0304,-0.182583 0.0796,-0.649413 0.10938,-1.037402 0.0642,-0.838076 0.18675,-1.82603 0.23201,-1.871295 0.0178,-0.01775 0.92665,0.05535 2.01979,0.16242 2.10315,0.206004 2.45879,0.288464 3.66429,0.849626 0.32881,0.153065 0.6387,0.278306 0.68864,0.278306 0.0499,0 0.18419,0.100784 0.29835,0.223958 l 0.20756,0.22396 4.24931,0.392023 c 2.33711,0.215613 4.45809,0.414784 4.71328,0.442603 l 0.46399,0.05058 1.54857,-2.685081 c 0.85172,-1.476782 1.54857,-2.725956 1.54857,-2.775932 0,-0.04998 -0.0436,-0.105398 -0.0969,-0.123156 -0.1312,-0.04374 1.49195,-2.866772 1.74558,-3.035961 0.1861,-0.124137 1.79044,-0.553337 2.87836,-0.770027 l 0.50195,-0.09998 2.81774,1.630797 2.81773,1.6308 0.25865,-0.292054 0.25867,-0.292053 1.75299,1.002793 1.75301,1.002794 -0.12359,0.238992 c -0.23527,0.45497 -0.2005,0.491315 1.2689,1.326131 1.38882,0.789037 1.67822,0.918837 1.67822,0.752704 0,-0.05876 0.38925,-0.08876 1.15151,-0.08876 l 1.15152,0 0.0519,-0.259351 c 0.0285,-0.142643 0.0519,-0.385398 0.0519,-0.53945 0,-0.154055 0.0373,-0.280101 0.083,-0.280101 0.0457,0 0.083,0.09337 0.083,0.207484 0,0.205963 0.11835,0.261637 0.30447,0.143241 0.0533,-0.03394 0.11273,-0.192087 0.13196,-0.351449 0.0333,-0.276146 0.0356,-0.273189 0.0483,0.06297 0.0115,0.3063 0.0378,0.3528 0.20001,0.353366 0.17704,5.84e-4 0.39421,0.299391 0.39421,0.542371 0,0.06545 0.44459,0.112444 1.43022,0.151195 1.31848,0.05183 1.44654,0.0441 1.6391,-0.09897 0.28672,-0.213048 0.32356,-0.571583 0.0692,-0.673584 -0.14362,-0.0576 -0.15553,-0.07846 -0.0471,-0.08238 0.20016,-0.0073 0.18678,-0.312858 -0.0165,-0.377382 -0.0913,-0.02898 -0.14306,-0.100048 -0.11883,-0.163179 0.0236,-0.06152 0.003,-0.136504 -0.0457,-0.166638 -0.0488,-0.03013 -0.0887,-0.143743 -0.0887,-0.252471 0,-0.108729 0.0399,-0.222341 0.0887,-0.252472 0.0488,-0.03013 0.0693,-0.105118 0.0457,-0.166635 -0.0242,-0.06313 0.0275,-0.134201 0.11883,-0.163182 0.20296,-0.06442 0.21617,-0.369017 0.0165,-0.380392 -0.0938,-0.0053 -0.0717,-0.02992 0.0622,-0.06938 0.11412,-0.03361 0.28217,-0.03781 0.37346,-0.0093 0.30019,0.09363 1.65985,0.05007 1.65985,-0.05318 0,-0.05224 0.028,-0.122996 0.0622,-0.157234 0.0342,-0.03423 0.0623,-0.0055 0.0623,0.0639 0,0.09719 0.14571,0.13846 0.63496,0.179814 0.34923,0.02952 0.776958,0.05367 0.950502,0.05367 0.340272,0 0.738311,0.145138 0.738311,0.269214 0,0.04212 -0.04668,0.06087 -0.103738,0.04166 -0.05705,-0.01921 -0.229246,0.03538 -0.382653,0.121312 -0.208135,0.116597 -0.462372,0.158839 -1.001972,0.166471 -0.39769,0.0056 -0.77186,-0.01993 -0.8315,-0.05679 -0.0726,-0.04488 -0.096,-0.02964 -0.0707,0.04614 0.0594,0.17822 0.40815,0.209644 2.183105,0.196711 l 1.659845,-0.01211 0,0.201979 c 0,0.196956 -0.01445,0.201401 -0.580947,0.178719 -0.915197,-0.03664 -1.950313,0.0026 -1.950313,0.07344 0,0.03568 0.168056,0.114496 0.373462,0.175146 0.205406,0.06065 0.373465,0.14785 0.373465,0.193783 0,0.04593 0.07469,0.06398 0.165985,0.0401 0.09129,-0.02385 0.165981,-0.0088 0.165981,0.0336 0,0.149984 -0.385199,0.231308 -1.348613,0.284725 -0.75525,0.04187 -0.97516,0.08029 -0.97516,0.170368 0,0.06397 -0.0374,0.116303 -0.083,0.116303 -0.0456,0 -0.083,-0.05602 -0.083,-0.124487 0,-0.06916 -0.0738,-0.124488 -0.16598,-0.124488 -0.12173,0 -0.16599,0.05533 -0.16599,0.207478 0,0.196162 0.0249,0.207481 0.45646,0.207481 0.25105,0 0.45646,-0.03735 0.45646,-0.08299 0,-0.04565 0.13567,-0.08299 0.30148,-0.08299 0.32174,0 0.61143,0.235902 0.61143,0.497894 0,0.121368 0.137602,0.147932 1.008935,0.194785 0.554916,0.02984 1.479243,0.05626 2.054054,0.05873 0.57482,0.0026 1.343892,0.03649 1.709056,0.07562 0.365167,0.03913 0.696978,0.03956 0.73736,8.75e-4 0.04087,-0.03908 1.875414,0.830943 4.137961,1.962403 2.235499,1.117932 4.087049,2.010112 4.114541,1.982614 0.0275,-0.0275 0.003,-0.125326 -0.05455,-0.217397 -0.0575,-0.09207 -0.08309,-0.234993 -0.05687,-0.317604 0.04094,-0.128995 0.19681,-0.160897 1.103589,-0.225896 0.902681,-0.06471 1.134205,-0.05487 1.595366,0.06778 0.370858,0.09864 0.632042,0.122789 0.835723,0.07728 0.385678,-0.08617 0.840727,-0.01658 0.960229,0.146854 0.07727,0.105676 0.133235,0.111928 0.30428,0.03399 0.169338,-0.07716 0.218403,-0.07254 0.255466,0.02402 0.03539,0.09222 0.250295,0.12356 0.940632,0.137158 l 0.894774,0.01763 -0.892168,0.02668 c -0.857366,0.02563 -0.892214,0.03385 -0.893434,0.210601 -0.0012,0.195044 -0.161148,0.516858 -0.163445,0.329163 -8.75e-4,-0.07366 -0.18176,-0.10374 -0.623709,-0.10374 -0.563399,0 -0.62244,0.01547 -0.62244,0.163062 0,0.08969 0.06957,0.200301 0.154598,0.245805 0.08503,0.04551 0.201602,0.196209 0.25905,0.334888 0.05744,0.138681 0.127914,0.254532 0.156612,0.257448 0.02869,0.0029 0.220236,0.01801 0.425645,0.03361 0.698379,0.05295 0.912911,0.129633 0.912911,0.326315 0,0.124125 -0.05471,0.184524 -0.175359,0.19361 -0.327424,0.02466 -0.327424,0.185549 0,0.21021 0.22455,0.01693 0.253082,0.391434 0.03012,0.395488 -0.129709,0.0026 -0.127485,0.01632 0.02075,0.130451 0.122704,0.09448 0.339113,0.123442 0.829921,0.111072 0.882016,-0.02227 0.926317,-0.0169 0.811506,0.09792 -0.210452,0.210461 -0.01521,0.321857 0.564139,0.321857 0.472092,0 0.561291,0.02128 0.521686,0.124488 -0.0375,0.09775 -0.206334,0.124487 -0.785818,0.124487 -0.678411,0 -0.881966,0.06724 -0.645653,0.213292 0.05081,0.03141 0.16395,0.218859 0.2514,0.416553 0.132479,0.299502 0.207256,0.3685 0.448339,0.41373 0.198616,0.03726 0.389805,0.168407 0.609734,0.418269 0.176221,0.20019 0.354458,0.363982 0.396098,0.363982 0.07806,0 0.622122,0.61371 0.877979,0.990383 0.1321,0.194466 0.144741,0.527759 0.145237,3.829602 l 8.76e-4,3.616594 -0.213161,0.524599 c -0.170237,0.41895 -0.191127,0.538573 -0.103743,0.593983 0.06019,0.03816 0.137435,0.06996 0.17167,0.07065 0.03423,6.71e-4 0.06224,0.05458 0.06224,0.119743 0,0.06516 0.11156,0.205781 0.247907,0.312492 l 0.247912,0.194018 -0.313591,0.994634 c -0.313393,0.994002 -0.31377,0.994638 -0.577899,0.999571 -0.145369,0.0027 -0.288796,0.02943 -0.318732,0.05936 -0.02993,0.02993 -0.273574,0.07922 -0.541422,0.109524 -0.26786,0.0303 -0.487007,0.09243 -0.487007,0.138063 0,0.04993 0.156979,0.06514 0.394212,0.03821 0.216815,-0.02461 0.991754,-0.01692 1.722085,0.01709 l 1.327874,0.06185 -1.078896,0.02821 c -0.593395,0.01551 -0.920176,0.04251 -0.726183,0.05998 0.244853,0.02205 0.352718,0.07001 0.352718,0.156823 0,0.106437 -0.182242,0.12282 -1.224133,0.110046 -1.278029,-0.01567 -1.488414,0.0036 -2.510513,0.229726 -0.391906,0.08671 -0.702511,0.210279 -0.838636,0.333629 -0.142357,0.128997 -0.468341,0.253546 -0.954406,0.36466 -0.71766,0.16405 -0.75094,0.182364 -1.195105,0.657655 -0.446637,0.477948 -0.475951,0.493904 -1.307731,0.711893 -0.467959,0.122642 -0.83009,0.243742 -0.804717,0.269111 0.02537,0.02537 0.165693,0.08477 0.311826,0.132009 0.349753,0.113053 0.376346,0.347237 0.08263,0.727612 -0.12754,0.16518 -0.394874,0.527185 -0.594063,0.804457 -0.199191,0.277272 -0.395263,0.504131 -0.435712,0.504131 -0.09629,0 -0.37425,-0.279668 -0.422743,-0.425335 -0.02952,-0.08867 -0.3045,-0.11799 -1.233389,-0.131499 -0.891035,-0.01296 -1.204139,-0.04465 -1.229711,-0.124488 -0.05393,-0.168348 -0.20138,-0.230362 -0.317867,-0.13369 -0.18796,0.155999 -0.114456,0.297097 0.183952,0.353079 0.307795,0.05774 0.315617,0.06925 0.239664,0.352452 -0.06715,0.250396 -0.224013,0.289782 -0.678881,0.170467 -0.642685,-0.168578 -0.799665,-0.419974 -0.441751,-0.707452 0.117226,-0.09416 0.11832,-0.116597 0.0092,-0.186755 -0.06824,-0.04386 -0.262553,-0.118088 -0.4318,-0.164962 -0.169248,-0.04687 -0.330168,-0.121557 -0.35761,-0.165962 -0.02744,-0.04441 -0.299789,-0.08292 -0.605199,-0.0856 -0.305419,-0.0027 -1.011419,-0.05036 -1.568892,-0.10597 -0.825887,-0.08239 -1.071782,-0.08087 -1.327873,0.0082 -0.179373,0.06238 -0.44422,0.08755 -0.616988,0.05862 -0.458607,-0.07679 -0.447997,0.07743 0.0204,0.296821 0.229416,0.107455 0.442813,0.237695 0.474202,0.289421 0.03139,0.05172 0.337173,0.237118 0.679514,0.411982 0.342342,0.174865 0.729076,0.372518 0.859398,0.439229 0.159835,0.08181 0.461389,0.116873 0.926423,0.107711 l 0.689468,-0.01358 0.838701,1.061296 0.838703,1.061297 0.378328,1.189075 c 0.208085,0.653991 0.35778,1.242637 0.332657,1.30811 -0.02513,0.06546 -0.0078,0.202616 0.03842,0.30478 0.127102,0.280729 -0.07418,0.750265 -0.449054,1.047468 l -0.319006,0.252911 -0.220443,-0.263152 c -0.121242,-0.144738 -0.305267,-0.355165 -0.408949,-0.467611 -0.10368,-0.112454 -0.325261,-0.383772 -0.492398,-0.602937 -0.24293,-0.318557 -0.326943,-0.379341 -0.418856,-0.303063 -0.09152,0.07596 -0.179099,0.02096 -0.42927,-0.269496 l -0.314289,-0.364921 -0.428313,0.326636 c -0.244118,0.186165 -0.498352,0.471325 -0.591182,0.663079 -0.174297,0.360053 -0.526665,0.621644 -0.84314,0.625935 -0.107065,0.0015 -0.252933,0.04814 -0.324152,0.10374 -0.07121,0.0556 -0.233695,0.184126 -0.361078,0.285609 l -0.231617,0.184508 0.303817,0.35494 0.303819,0.354941 -0.218479,0.187928 -0.218482,0.187935 0.239538,0.310017 c 0.131744,0.170516 0.318534,0.447701 0.415076,0.615984 0.150401,0.262131 0.158559,0.320051 0.05697,0.404371 -0.16205,0.134489 -0.151096,0.192708 0.09025,0.479528 l 0.208835,0.248188 -0.307398,0.253383 c -0.400012,0.329728 -0.996933,0.437568 -1.163226,0.210153 -0.09697,-0.132613 -0.137453,-0.139369 -0.28459,-0.04748 -0.143381,0.08954 -0.187309,0.08655 -0.267664,-0.01821 -2.155693,-2.810395 -2.736455,-3.434704 -3.396294,-3.650956 -0.09986,-0.03272 -0.554621,0.240021 -1.429056,0.857093 l -1.28258,0.905087 -3.46638,-1.156197 -3.46665,-1.156196 -2.21436,0 c -1.2179,0 -2.27344,0.02267 -2.34564,0.05037 -0.0722,0.02771 -0.13128,0.121077 -0.13128,0.20748 0,0.135103 -0.0639,0.157112 -0.45646,0.157112 -0.35041,0 -0.45645,0.02891 -0.45645,0.124489 0,0.07746 -0.0784,0.124488 -0.20748,0.124488 -0.11412,0 -0.20748,0.03735 -0.20748,0.08299 0,0.04565 -0.0822,0.08299 -0.18259,0.08299 -0.28663,0 -0.0768,0.132804 0.44433,0.281277 0.25809,0.07352 0.70624,0.133816 0.99591,0.133991 0.37855,0 0.60253,0.04656 0.7964,0.164764 0.14835,0.09045 0.26972,0.182616 0.26972,0.204808 0,0.02219 -0.091,0.24608 -0.20219,0.497538 -0.1112,0.251457 -0.17104,0.476449 -0.13297,0.499977 0.0381,0.02353 -0.0298,0.239009 -0.15091,0.478832 -0.19758,0.39139 -0.24937,0.437501 -0.50559,0.450215 -0.15701,0.0078 -0.36121,-0.03889 -0.45379,-0.10374 -0.11589,-0.08117 -0.40665,-0.117899 -0.93339,-0.117899 -0.42079,0 -0.78814,-0.03735 -0.81635,-0.08299 -0.0283,-0.04574 -0.39904,-0.08299 -0.82594,-0.08299 -0.61413,0 -0.78461,-0.02596 -0.82272,-0.12526 -0.0264,-0.06889 -0.0925,-0.115575 -0.14676,-0.10374 -0.21497,0.04687 -0.31987,-0.945761 -0.12097,-1.144652 0.0643,-0.06431 0.14306,-0.271708 0.17502,-0.460897 l 0.0581,-0.343977 0.44741,0.05258 c 0.29754,0.03497 0.44741,0.02256 0.44741,-0.03706 0,-0.169171 -0.2373,-0.326765 -0.49202,-0.326765 -0.17126,0 -0.25491,-0.04086 -0.25491,-0.124488 0,-0.248628 -0.44379,-0.126489 -1.09581,0.301568 l -0.64897,0.426065 -1.43063,-0.509854 -1.43065,-0.509853 -2.17854,8.17e-4 c -1.81556,8.17e-4 -2.17854,0.02024 -2.17854,0.117434 0,0.170491 -1.14494,0.991523 -1.40054,1.004329 -0.1198,0.006 -0.32383,0.04122 -0.45342,0.07826 -0.13873,0.03966 -0.36053,0.03008 -0.53944,-0.02328 -0.18888,-0.05634 -1.74832,-0.109043 -4.12148,-0.139294 l -3.81777,-0.04858 -0.65055,0.204692 -0.65055,0.204692 -3.16708,-0.04676 c -1.7419,-0.02572 -3.17954,-0.07871 -3.19475,-0.117749 -0.0152,-0.03904 -0.30466,-0.07098 -0.64319,-0.07098 -0.60124,0 -0.61553,-0.0048 -0.61553,-0.207479 0,-0.197414 -0.0233,-0.207481 -0.48034,-0.207481 -0.41219,0 -0.52111,0.03484 -0.76768,0.245599 -0.15803,0.135086 -0.32834,0.247125 -0.37846,0.248976 -0.0501,0.0018 -0.34874,-0.102205 -0.6636,-0.231249 -0.42775,-0.175305 -0.57256,-0.274962 -0.57281,-0.394213 0,-0.121899 -0.0689,-0.165884 -0.29081,-0.186251 -0.15976,-0.01467 -0.32595,-0.06136 -0.36931,-0.103739 -0.0456,-0.04461 -1.34916,-0.07711 -3.09146,-0.07711 l -3.01261,0 0,0.373465 c 0,0.205405 -0.0302,0.373464 -0.0671,0.373464 -0.0369,0 -0.21428,0.568546 -0.3942,1.263439 -0.20045,0.774217 -0.38337,1.311599 -0.47238,1.387819 -0.0799,0.0684 -0.14525,0.228635 -0.14525,0.356069 0,0.35895 -0.4466,0.721808 -0.89217,0.724879 l -0.35271,0.0024 0,-1.037401 0,-1.037402 -2.02516,0 -2.02516,0 -0.0578,0.497953 c -0.048,0.41379 -0.0845,0.497953 -0.21563,0.497953 -0.13893,0 -0.15784,0.06461 -0.15784,0.539448 l 0,0.539449 -0.35455,0 c -0.27337,0 -0.4254,-0.0584 -0.66394,-0.255018 z m 61.63796,-3.965496 c 0.63158,-0.44068 0.64921,-0.46171 0.44451,-0.529937 -0.14697,-0.049 -0.20136,-0.116115 -0.17519,-0.216212 0.0246,-0.09393 -0.0352,-0.184308 -0.16931,-0.256088 -0.1905,-0.101948 -0.24034,-0.08665 -0.61582,0.188964 l -0.40853,0.299901 -0.98318,-0.330301 -0.98317,-0.3303 -1.35251,0 c -0.74387,0 -1.3525,0.02849 -1.3525,0.06332 0,0.08781 4.75248,1.66678 4.85503,1.613043 0.0456,-0.02393 0.37895,-0.249997 0.74067,-0.502385 z m 2.211273,-2.149134 c 0.377289,-0.266833 0.408578,-0.397051 0.1132,-0.471187 -0.16512,-0.04144 -0.306621,0.01521 -0.62894,0.251816 -0.304727,0.223692 -0.386419,0.323966 -0.305649,0.375172 0.204054,0.129361 0.49665,0.07386 0.821389,-0.155801 z m 1.508665,-1.182638 c 0.767826,-0.598226 0.904362,-0.76143 0.728162,-0.870329 -0.07253,-0.04482 -1.99357,1.242156 -1.99357,1.335567 0,0.0471 0.356089,0.193264 0.419991,0.172395 0.02557,-0.0084 0.406021,-0.29529 0.845417,-0.637633 z m -8.304228,-2.400507 2.38079,-0.06845 0.75216,-0.643293 0.75217,-0.643293 0,-0.40451 c 0,-0.222481 -0.0163,-0.404511 -0.0361,-0.404511 -0.0199,0 -0.30036,0.0556 -0.62339,0.123546 -0.5632,0.118474 -0.59408,0.116771 -0.75235,-0.0415 -0.17121,-0.17121 -0.53455,-0.222728 -0.61804,-0.08763 -0.0263,0.04257 -0.26194,0.118536 -0.5236,0.168802 -0.26167,0.05027 -0.53401,0.123349 -0.6052,0.162404 -0.0712,0.03906 -0.34471,0.115701 -0.60782,0.170323 -0.34074,0.07074 -0.46609,0.131393 -0.43561,0.210806 0.0298,0.0777 -0.0752,0.136131 -0.34658,0.192778 -2.90692,0.606851 -3.77528,0.811179 -3.80783,0.895995 -0.0212,0.05525 0.0297,0.174929 0.11311,0.265945 0.18153,0.198101 0.65153,0.209164 4.35826,0.102589 z m 10.768054,-0.788925 0.189498,-0.201717 -0.506998,-0.255934 c -0.278855,-0.140764 -0.507007,-0.235483 -0.507007,-0.210486 0,0.14902 0.436203,0.869853 0.526373,0.869853 0.05975,0 0.193903,-0.09077 0.298134,-0.201716 z m -34.447884,-0.770572 c 0.0633,-0.113126 0.0282,-0.173707 -0.17122,-0.294945 -0.13799,-0.08392 -0.25798,-0.141227 -0.26664,-0.127357 -0.009,0.01387 -0.0791,0.126609 -0.15663,0.250529 -0.19142,0.306166 -0.18668,0.31414 0.18698,0.31414 0.22342,0 0.35322,-0.04534 0.40751,-0.142367 z m -2.85731,-0.15973 c 0.2127,-0.18695 0.22612,-0.223483 0.10665,-0.290342 -0.11246,-0.06293 -0.12009,-0.112854 -0.0431,-0.281821 0.0514,-0.112937 0.0759,-0.223015 0.0543,-0.244619 -0.0525,-0.05251 -3.19795,0.814573 -3.28258,0.904892 -0.0365,0.03893 0.57725,0.0467 1.36533,0.01728 0.94119,-0.03514 1.43161,-0.02482 1.43161,0.03013 0,0.133288 0.10669,0.09398 0.36781,-0.135524 z m 44.334924,0.09462 c 0.03438,-0.08959 0.1746,-0.124488 0.500246,-0.124488 0.280513,0 0.432986,-0.03154 0.401183,-0.08299 -0.06773,-0.109585 -1.335078,-0.107183 -1.540804,0.0029 -0.237636,0.127175 -0.1954,0.231214 0.10919,0.269013 0.148348,0.01841 0.317575,0.03945 0.376068,0.04675 0.05849,0.0073 0.127841,-0.04274 0.154117,-0.111206 z m -21.056944,-0.710438 c 1.30473,-0.276627 2.43296,-0.520426 2.50718,-0.541776 0.0838,-0.0241 0.15065,0.02123 0.17638,0.119599 0.0449,0.171804 -0.0161,0.175395 1.473,-0.08675 0.2967,-0.05223 0.65654,-0.09922 0.79965,-0.104417 0.30249,-0.01099 0.52823,-0.170997 0.52823,-0.374426 0,-0.111251 0.12749,-0.165315 0.58094,-0.246351 0.31952,-0.0571 0.58095,-0.129988 0.58095,-0.161971 0,-0.07931 -3.24656,-0.835329 -3.99983,-0.931437 -0.65564,-0.08365 -9.84148,0.101859 -9.90759,0.200085 -0.006,0.0089 -0.15198,0.27128 -0.32445,0.583103 -0.34539,0.624432 -0.38963,0.653444 -1.28766,0.844341 -0.34234,0.07277 -0.71581,0.206411 -0.82992,0.296975 l -0.20748,0.164661 2.30177,-0.02031 2.30176,-0.02031 0.27254,0.264144 0.27252,0.264143 0.23887,-0.156694 c 0.52649,-0.345375 1.24829,-0.277455 1.73237,0.163012 0.14656,0.133358 0.30069,0.243564 0.34251,0.244902 0.0418,0.0013 1.14353,-0.223898 2.44826,-0.500525 z m -31.72954,-0.302343 c 0.47132,-0.507777 0.52396,-0.599786 0.52752,-0.921963 l 0.004,-0.357894 -2.75949,0.0568 c -1.51772,0.03124 -2.79111,0.08574 -2.82977,0.121111 -0.0387,0.03537 0.0734,0.446523 0.24898,0.913665 l 0.31926,0.849349 1.98299,-0.0485 1.98299,-0.0485 0.52357,-0.564068 z"
         style="fill:#000000" />
    </g>
  </g>
</svg>
