<?xml version="1.0" encoding="UTF-8" standalone="no"?>
<!-- Created with Inkscape (http://www.inkscape.org/) -->

<svg
   xmlns:dc="http://purl.org/dc/elements/1.1/"
   xmlns:cc="http://creativecommons.org/ns#"
   xmlns:rdf="http://www.w3.org/1999/02/22-rdf-syntax-ns#"
   xmlns:svg="http://www.w3.org/2000/svg"
   xmlns="http://www.w3.org/2000/svg"
   xmlns:sodipodi="http://sodipodi.sourceforge.net/DTD/sodipodi-0.dtd"
   xmlns:inkscape="http://www.inkscape.org/namespaces/inkscape"
   width="531.03766"
   height="167.47098"
   id="svg3058"
   version="1.1"
   inkscape:version="0.48.5 r10040"
   sodipodi:docname="Reclaimer.svg">
  <defs
     id="defs3060" />
  <sodipodi:namedview
     id="base"
     pagecolor="#ffffff"
     bordercolor="#666666"
     borderopacity="1.0"
     inkscape:pageopacity="0.0"
     inkscape:pageshadow="2"
     inkscape:zoom="1.979899"
     inkscape:cx="308.18603"
     inkscape:cy="129.04645"
     inkscape:document-units="px"
     inkscape:current-layer="g3077"
     showgrid="false"
     fit-margin-top="0"
     fit-margin-left="0"
     fit-margin-right="0"
     fit-margin-bottom="0"
     inkscape:window-width="1920"
     inkscape:window-height="1018"
     inkscape:window-x="-8"
     inkscape:window-y="-8"
     inkscape:window-maximized="1"
     showguides="true"
     inkscape:guide-bbox="true" />
  <metadata
     id="metadata3063">
    <rdf:RDF>
      <cc:Work
         rdf:about="">
        <dc:format>image/svg+xml</dc:format>
        <dc:type
           rdf:resource="http://purl.org/dc/dcmitype/StillImage" />
        <dc:title />
      </cc:Work>
    </rdf:RDF>
  </metadata>
  <g
     inkscape:label="Layer 1"
     inkscape:groupmode="layer"
     id="layer1"
     transform="translate(544.57165,-642.74781)">
    <g
       id="g3077"
       transform="translate(-314.28571,822.85714)">
      <path
         style="fill:#000000"
         d="m 1.1260618,-13.511795 c -0.84757684,-0.698667 -1.05995558,-1.068957 -1.05995558,-1.848178 0,-0.784934 -0.11061717,-0.974472 -0.56866961,-0.974472 -0.54421171,0 -0.56867051,-0.189566 -0.56867051,-4.407193 l 0,-4.407194 -4.1939416,-0.01138 -4.1939425,-0.01138 -8.611656,-7.523562 c -7.832111,-6.842525 -9.490607,-8.072513 -9.775345,-7.24969 -0.09015,0.260524 -21.365202,-5.349529 -22.557248,-5.948156 -0.312768,-0.15707 -1.589757,-0.559845 -2.837752,-0.895055 -1.247995,-0.335211 -2.399552,-0.770651 -2.559015,-0.967641 -0.159464,-0.196876 -5.024113,-1.63925 -10.810332,-3.205161 -5.786218,-1.56591 -19.392768,-5.254435 -30.236776,-8.19672 -17.001708,-4.613046 -19.750348,-5.288927 -19.963038,-4.908865 -0.22197,0.396632 -0.63912,0.389194 -4.16777,-0.0743 -6.20036,-0.814423 -5.72387,-0.649996 -5.8245,-2.009964 l -0.0869,-1.175123 -4.81316,-1.293432 c -2.67612,-0.719149 -4.85509,-1.171389 -4.9076,-1.018566 -0.052,0.151177 -0.46644,0.923532 -0.9211,1.716349 l -0.82664,1.441483 -4.64398,-0.650064 c -2.55419,-0.357537 -4.73994,-0.65434 -4.85722,-0.659563 -0.1173,-0.0052 -0.21326,-1.033104 -0.21326,-2.284177 0,-1.792228 -0.10604,-2.380217 -0.49995,-2.772268 -0.7753,-0.771653 -37.80448,-10.729673 -38.71192,-10.410547 -0.38405,0.135062 -0.64305,0.348118 -0.57557,0.473459 0.21657,0.402214 -2.88024,1.981564 -4.0859,2.083779 -0.71741,0.06083 -2.66862,-0.297266 -5.07744,-0.931827 l -3.91229,-1.030614 -0.18877,-1.311955 c -0.54223,-3.768399 -0.44259,-3.552866 -1.83092,-3.960774 -0.70038,-0.205785 -2.23304,-0.788288 -3.40593,-1.294454 l -2.13251,-0.920308 -0.85301,-2.886625 c -0.46915,-1.587651 -0.91698,-2.941123 -0.99517,-3.007739 -0.0782,-0.06663 -1.12259,0.03504 -2.32089,0.225918 l -2.1787,0.347023 -0.34052,-0.736369 c -0.85128,-1.840868 -10.09527,-28.05564 -10.78736,-30.59155 -0.4268,-1.56384 -1.19061,-4.7626 -1.69737,-7.10837 -0.50674,-2.34576 -1.3034,-6.01932 -1.77033,-8.16344 l -0.84898,-3.89842 1.20522,-5.48464 c 0.66287,-3.01655 1.3658,-5.67657 1.56209,-5.91114 0.27225,-0.3254 0.28556,-0.73694 0.0562,-1.73601 -0.29226,-1.27266 -0.26807,-1.35758 0.86021,-3.01906 l 1.16094,-1.70955 3.18831,-0.20664 c 1.75357,-0.11365 3.45562,-0.32415 3.78235,-0.46775 0.32671,-0.14362 7.88722,-0.89835 16.80112,-1.67719 12.50103,-1.09226 16.27584,-1.50933 16.5077,-1.82384 0.16532,-0.22428 4.06782,-1.56479 8.67222,-2.97894 l 8.37162,-2.57116 28.03926,-2.23548 28.03926,-2.23548 8.63996,1.24123 8.639965,1.24123 6.644881,-0.58235 c 3.654684,-0.32031 6.766213,-0.65736 6.914508,-0.74902 0.148296,-0.0916 0.199453,-0.34951 0.113684,-0.57303 -0.09582,-0.24969 0.115971,-0.53028 0.549284,-0.72771 0.387879,-0.17673 0.705233,-0.55669 0.705233,-0.84436 0,-0.481 0.297073,-0.52303 3.696356,-0.52303 3.484736,0 3.696355,0.0321 3.696355,0.55868 0,0.30725 0.247491,0.69111 0.549978,0.853 0.718578,0.38456 0.871697,0.37131 0.871697,-0.0755 0,-0.20339 0.159939,-0.7142 0.35542,-1.13512 0.317082,-0.68276 0.510708,-0.76555 1.795106,-0.76753 1.382176,-0.002 1.45529,0.0375 1.830166,0.99295 0.351472,0.89578 0.499082,0.99518 1.477754,0.99518 0.598005,0 2.266128,0.26259 3.706939,0.58352 1.440811,0.32093 2.890096,0.51563 3.220632,0.43268 0.330537,-0.0829 3.551237,-0.23135 7.157112,-0.32975 l 6.556137,-0.17895 1.628075,2.16311 c 1.096018,1.45619 1.817717,2.16309 2.208385,2.16309 0.319169,0 1.807089,0.92212 3.306484,2.04918 1.499398,1.12705 2.982078,2.05899 3.294846,2.07097 1.383873,0.053 2.402953,1.04377 4.94763,4.80995 1.559871,2.30864 2.519552,3.99488 2.420499,4.25301 -0.119922,0.31252 1.581696,1.59329 6.317427,4.75502 3.564859,2.38001 6.880738,4.41732 7.368622,4.52736 0.487883,0.11004 1.862228,0.85809 3.054097,1.66236 l 2.1670369,1.4623 3.4959451,0.002 c 1.9227704,8.4e-4 8.2771418,0.44894 14.1208274,0.99517 5.8436846,0.54624 10.7378026,0.99314 10.8758156,0.99314 0.138014,0 0.250934,0.31989 0.250934,0.71085 0,0.85317 0.04152,0.85687 1.859597,0.16585 1.305923,-0.49636 1.728547,-0.51783 4.762613,-0.24186 3.264671,0.29693 3.329518,0.31644 3.329518,1.00176 0,0.55643 0.10145,0.65593 0.497586,0.48804 1.990892,-0.84378 2.525227,-0.89846 5.757785,-0.58924 3.151157,0.30143 3.266623,0.33601 3.180896,0.95254 -0.105667,0.75994 0.231463,0.80122 1.439876,0.17632 0.753402,-0.3896 1.441968,-0.43188 4.321989,-0.26541 1.884203,0.10892 3.534007,0.3041 3.666246,0.43376 0.132247,0.12965 0.01823,2.6835 -0.253167,5.67522 -0.271518,2.99172 -0.443677,5.48645 -0.382633,5.54384 0.06108,0.0573 1.00251,0.15 2.092077,0.20581 l 1.981056,0.10145 0.189451,-1.13734 c 0.104173,-0.62554 0.27282,-2.22492 0.374751,-3.55419 0.220128,-2.87129 0.639808,-6.25607 0.794884,-6.41115 0.06084,-0.0608 3.174746,0.18963 6.919895,0.55646 7.205505,0.70578 8.423934,0.98829 12.554019,2.91086 1.12653,0.52441 2.188243,0.95349 2.359326,0.95349 0.171083,0 0.631052,0.34529 1.022155,0.76729 l 0.711119,0.7673 14.558331,1.34309 c 8.007069,0.7387 15.273649,1.42107 16.147959,1.51638 l 1.58963,0.17329 5.3055,-9.19922 c 2.91801,-5.05953 5.30547,-9.33926 5.30547,-9.51048 0,-0.17123 -0.14933,-0.3611 -0.33188,-0.42194 -0.4495,-0.14984 5.1115,-9.8217 5.98045,-10.40135 0.63757,-0.4253 6.13413,-1.89576 9.8614,-2.63815 l 1.71971,-0.34253 9.65369,5.58719 9.65369,5.5872 0.88616,-1.00059 0.88619,-1.00059 6.00586,3.43562 6.00587,3.43562 -0.42341,0.8188 c -0.80606,1.55875 -0.68692,1.68327 4.34732,4.54339 4.75817,2.70328 5.74966,3.14798 5.74966,2.5788 0,-0.20132 1.33358,-0.30411 3.94514,-0.30411 l 3.94515,0 0.1777,-0.88855 c 0.0977,-0.4887 0.17772,-1.32039 0.17772,-1.84818 0,-0.5278 0.12794,-0.95964 0.28433,-0.95964 0.15638,0 0.28434,0.31988 0.28434,0.71085 0,0.70564 0.40546,0.89638 1.04311,0.49075 0.18278,-0.11627 0.38621,-0.6581 0.45209,-1.20408 0.11417,-0.94609 0.12193,-0.93596 0.16532,0.21574 0.0395,1.0494 0.12968,1.20871 0.68524,1.21065 0.60657,0.002 1.35059,1.02573 1.35059,1.85819 0,0.22422 1.52319,0.38524 4.9,0.518 4.51718,0.17758 4.95591,0.15108 5.61563,-0.33909 0.98234,-0.72991 1.10856,-1.95827 0.2371,-2.30773 -0.49204,-0.19733 -0.53287,-0.26879 -0.16125,-0.28224 0.68576,-0.0249 0.63992,-1.07187 -0.0566,-1.29293 -0.31279,-0.0993 -0.49011,-0.34277 -0.40711,-0.55906 0.0809,-0.21076 0.0103,-0.46767 -0.15666,-0.57091 -0.16705,-0.10324 -0.30374,-0.49247 -0.30374,-0.86498 0,-0.37251 0.13669,-0.76175 0.30374,-0.86498 0.16704,-0.10324 0.23752,-0.36014 0.15666,-0.5709 -0.083,-0.2163 0.0943,-0.45978 0.40711,-0.55907 0.69535,-0.22069 0.74064,-1.26427 0.0566,-1.30324 -0.32129,-0.0183 -0.24575,-0.10251 0.21326,-0.23769 0.39096,-0.11514 0.96673,-0.12952 1.2795,-0.0319 1.02844,0.32077 5.68671,0.17153 5.68671,-0.18219 0,-0.17899 0.096,-0.42139 0.21325,-0.53869 0.11728,-0.11728 0.21325,-0.0187 0.21325,0.21893 0,0.33298 0.49923,0.47437 2.17541,0.61605 1.19649,0.10114 2.6619,0.18389 3.25647,0.18389 1.16579,0 2.52949,0.49725 2.52949,0.92234 0,0.14432 -0.15993,0.20854 -0.35541,0.14272 -0.19547,-0.0658 -0.78541,0.12122 -1.31099,0.41562 -0.71308,0.39947 -1.58411,0.54419 -3.4328,0.57034 -1.36251,0.0192 -2.64445,-0.0683 -2.84877,-0.19456 -0.2488,-0.15376 -0.32881,-0.10155 -0.2423,0.15809 0.20353,0.61059 1.39836,0.71825 7.47944,0.67394 l 5.68671,-0.0415 0,0.69199 c 0,0.67478 -0.0495,0.69001 -1.99035,0.6123 -3.13551,-0.12554 -6.68187,0.009 -6.68187,0.2516 0,0.12225 0.57577,0.39227 1.2795,0.60006 0.70373,0.20778 1.27951,0.50654 1.27951,0.66391 0,0.15736 0.25589,0.21918 0.56867,0.13739 0.31277,-0.0817 0.56866,-0.03 0.56866,0.11511 0,0.51385 -1.31971,0.79247 -4.62043,0.97548 -2.58752,0.14346 -3.34094,0.27509 -3.34094,0.58369 0,0.21915 -0.12795,0.39846 -0.28434,0.39846 -0.15638,0 -0.28433,-0.19193 -0.28433,-0.4265 0,-0.23695 -0.25275,-0.4265 -0.56868,-0.4265 -0.41703,0 -0.56866,0.18955 -0.56866,0.71083 0,0.67206 0.0853,0.71084 1.56384,0.71084 0.86011,0 1.56384,-0.12795 1.56384,-0.28434 0,-0.15638 0.46481,-0.28433 1.03291,-0.28433 1.10228,0 2.09478,0.80821 2.09478,1.70581 0,0.41581 0.47143,0.50682 3.45666,0.66734 1.90117,0.10222 5.06796,0.19276 7.03729,0.2012 1.96936,0.009 4.60424,0.12502 5.85531,0.25909 1.25108,0.13407 2.38788,0.13553 2.52623,0.003 0.14002,-0.13389 6.42526,2.84685 14.17686,6.72329 7.65893,3.83009 14.00243,6.88674 14.09662,6.79253 0.0942,-0.0942 0.0103,-0.42937 -0.18688,-0.74481 -0.19699,-0.31543 -0.28468,-0.8051 -0.19484,-1.08813 0.14027,-0.44194 0.67428,-0.55124 3.78095,-0.77393 3.09263,-0.22168 3.88584,-0.18798 5.4658,0.23223 1.27058,0.33793 2.16541,0.42068 2.86323,0.26478 1.32135,-0.29521 2.88037,-0.0568 3.28979,0.50313 0.26474,0.36205 0.45647,0.38347 1.04248,0.11646 0.58016,-0.26435 0.74826,-0.24853 0.87524,0.0823 0.12124,0.31596 0.85752,0.42332 3.22265,0.46991 l 3.06554,0.0604 -3.05661,0.0914 c -2.93738,0.0878 -3.05677,0.11598 -3.06095,0.72153 -0.004,0.66823 -0.5521,1.77078 -0.55997,1.12773 -0.003,-0.25236 -0.62272,-0.35542 -2.13686,-0.35542 -1.93023,0 -2.13251,0.053 -2.13251,0.55866 0,0.30727 0.23836,0.68624 0.52966,0.84214 0.29132,0.15591 0.6907,0.67222 0.88752,1.14734 0.19679,0.47513 0.43824,0.87204 0.53656,0.88203 0.0983,0.01 0.75454,0.0617 1.45828,0.11514 2.39268,0.1814 3.12768,0.44413 3.12768,1.11797 0,0.42526 -0.18744,0.63219 -0.60079,0.66332 -1.12177,0.0845 -1.12177,0.6357 0,0.72019 0.76932,0.058 0.86707,1.34107 0.10321,1.35496 -0.44439,0.009 -0.43677,0.0559 0.0711,0.44693 0.42039,0.3237 1.16182,0.42292 2.84335,0.38054 3.02183,-0.0763 3.17361,-0.0579 2.78026,0.33547 -0.72102,0.72105 -0.0521,1.1027 1.93277,1.1027 1.61741,0 1.92301,0.0729 1.78732,0.4265 -0.12849,0.33488 -0.70691,0.4265 -2.69225,0.4265 -2.32427,0 -3.02166,0.23038 -2.21204,0.73075 0.17409,0.10761 0.5617,0.74982 0.86131,1.42713 0.45388,1.02611 0.71007,1.2625 1.53603,1.41746 0.68047,0.12766 1.33549,0.57697 2.08898,1.43301 0.60374,0.68586 1.21439,1.24702 1.35705,1.24702 0.26745,0 2.13142,2.1026 3.008,3.3931 0.45258,0.66625 0.49589,1.80813 0.49759,13.120404 l 0.003,12.390632 -0.7303,1.797302 c -0.58324,1.435341 -0.65481,1.845176 -0.35543,2.035015 0.20621,0.13074 0.47086,0.239671 0.58815,0.242065 0.11729,0.0023 0.21325,0.187004 0.21325,0.410248 0,0.223242 0.38221,0.705016 0.84934,1.070613 l 0.84936,0.664714 -1.07438,3.407666 c -1.0737,3.4055 -1.07499,3.407678 -1.97991,3.424579 -0.49804,0.0093 -0.98943,0.100819 -1.09199,0.203377 -0.10256,0.102553 -0.93728,0.271409 -1.85494,0.375234 -0.9177,0.103821 -1.66851,0.316675 -1.66851,0.473009 0,0.171052 0.53782,0.223185 1.35059,0.130918 0.74282,-0.08433 3.3978,-0.05797 5.89995,0.05856 l 4.54936,0.211884 -3.69635,0.09665 c -2.033,0.05315 -3.15257,0.145629 -2.48794,0.205492 0.83888,0.07556 1.20843,0.239863 1.20843,0.537282 0,0.364659 -0.62437,0.420787 -4.19394,0.377023 -4.37859,-0.05368 -5.09938,0.01225 -8.60114,0.787054 -1.34269,0.297076 -2.40684,0.720425 -2.87321,1.143027 -0.48772,0.44195 -1.60456,0.868663 -3.26984,1.249343 -2.45874,0.562045 -2.57276,0.624791 -4.09449,2.253161 -1.5302,1.637471 -1.63063,1.69214 -4.48035,2.438978 -1.60325,0.420179 -2.84393,0.835075 -2.757,0.92199 0.0869,0.08691 0.56767,0.290437 1.06833,0.452269 1.19827,0.387324 1.28938,1.18965 0.28311,2.492834 -0.43696,0.565916 -1.35286,1.806161 -2.03529,2.756109 -0.68244,0.949946 -1.35419,1.727176 -1.49277,1.727176 -0.32988,0 -1.2822,-0.958153 -1.44834,-1.457218 -0.10114,-0.303794 -1.04323,-0.404239 -4.22565,-0.45052 -3.05273,-0.0444 -4.12544,-0.152989 -4.21305,-0.426502 -0.18478,-0.576768 -0.68994,-0.789232 -1.08903,-0.45803 -0.64396,0.534462 -0.39213,1.017871 0.63023,1.209667 1.05452,0.197828 1.08132,0.237249 0.8211,1.207517 -0.23007,0.85787 -0.76748,0.992809 -2.32588,0.584029 -2.20187,-0.577556 -2.73969,-1.438851 -1.51346,-2.423767 0.40162,-0.322602 0.40537,-0.399464 0.0314,-0.63983 -0.23381,-0.15025 -0.89952,-0.404576 -1.47937,-0.56517 -0.57985,-0.160591 -1.13117,-0.416459 -1.22519,-0.568593 -0.094,-0.152136 -1.02709,-0.284104 -2.07344,-0.293266 -1.04638,-0.0091 -3.46517,-0.172537 -5.3751,-0.363058 -2.82953,-0.282258 -3.67198,-0.277056 -4.54936,0.02809 -0.61454,0.21373 -1.52192,0.299936 -2.11383,0.200829 -1.57121,-0.263093 -1.53486,0.265282 0.0699,1.016924 0.78599,0.368146 1.5171,0.814353 1.62464,0.991568 0.10753,0.177214 1.15517,0.812378 2.32805,1.411473 1.17288,0.599094 2.49785,1.276264 2.94434,1.50482 0.5476,0.280296 1.58074,0.40041 3.17397,0.369022 l 2.36215,-0.04654 2.87343,3.636054 2.87344,3.636054 1.29617,4.073829 c 0.71291,2.240605 1.22577,4.257337 1.1397,4.48165 -0.0861,0.224283 -0.0268,0.694174 0.13161,1.044191 0.43546,0.961792 -0.25416,2.570447 -1.53848,3.588679 l -1.09293,0.866483 -0.75525,-0.90157 c -0.41538,-0.495881 -1.04586,-1.216812 -1.40108,-1.602058 -0.35521,-0.385274 -1.11436,-1.314822 -1.68698,-2.065694 -0.83229,-1.091392 -1.12012,-1.299639 -1.43502,-1.038306 -0.31354,0.260223 -0.6136,0.07182 -1.4707,-0.923308 l -1.07677,-1.250236 -1.46742,1.119071 c -0.83636,0.637808 -1.70738,1.614783 -2.02542,2.271739 -0.59715,1.233559 -1.80438,2.129783 -2.88864,2.144484 -0.36681,0.0051 -0.86656,0.164914 -1.11056,0.355418 -0.24397,0.190506 -0.80065,0.630827 -1.23707,0.978512 l -0.79353,0.632133 1.04089,1.216044 1.0409,1.216045 -0.74852,0.643848 -0.74853,0.643876 0.82067,1.062134 c 0.45136,0.584195 1.09131,1.533845 1.42207,2.110392 0.51528,0.898072 0.54323,1.096509 0.19517,1.385394 -0.55519,0.460765 -0.51766,0.660226 0.30919,1.642888 l 0.71548,0.850303 -1.05316,0.868104 c -1.37046,1.129664 -3.41554,1.499129 -3.98527,0.719993 -0.33222,-0.454338 -0.47092,-0.477484 -0.97502,-0.162668 -0.49123,0.306769 -0.64173,0.296533 -0.91703,-0.06238 -7.38551,-9.628552 -9.37523,-11.767463 -11.63587,-12.508354 -0.34214,-0.112114 -1.90016,0.822324 -4.89599,2.936442 l -4.3942,3.100872 -11.87597,-3.961185 -11.87693,-3.961186 -7.58651,0 c -4.17259,0 -7.78891,0.07766 -8.03628,0.172563 -0.24737,0.09494 -0.44976,0.414816 -0.44976,0.710838 0,0.462869 -0.21902,0.538274 -1.56385,0.538274 -1.20052,0 -1.56383,0.09906 -1.56383,0.426503 0,0.26537 -0.26853,0.426503 -0.71084,0.426503 -0.39096,0 -0.71084,0.12795 -0.71084,0.284334 0,0.156385 -0.28149,0.284336 -0.62554,0.284336 -0.98203,0 -0.26327,0.454993 1.5223,0.963667 0.8842,0.251894 2.41961,0.458463 3.41202,0.45906 1.29694,0 2.0643,0.159511 2.72852,0.56449 0.50825,0.309898 0.92408,0.625652 0.92408,0.701683 0,0.07603 -0.31172,0.843081 -0.69272,1.704588 -0.38099,0.861507 -0.58599,1.63234 -0.45557,1.712948 0.13046,0.08062 -0.10221,0.818857 -0.51701,1.6405 -0.67694,1.340924 -0.85436,1.498901 -1.73219,1.542461 -0.53791,0.02673 -1.23751,-0.13324 -1.55472,-0.355419 -0.39704,-0.278108 -1.39318,-0.403927 -3.19782,-0.403927 -1.44164,0 -2.70023,-0.127951 -2.79688,-0.284335 -0.0968,-0.156696 -1.3671,-0.284334 -2.82969,-0.284334 -2.10405,0 -2.68811,-0.08894 -2.81868,-0.429148 -0.0906,-0.236026 -0.31683,-0.395965 -0.50281,-0.355418 -0.73649,0.160564 -1.09589,-3.240225 -0.41444,-3.921634 0.22029,-0.220333 0.49013,-0.930885 0.59962,-1.579056 l 0.19913,-1.178483 1.53284,0.180154 c 1.01938,0.119819 1.53286,0.07728 1.53286,-0.126955 0,-0.579588 -0.813,-1.119512 -1.68571,-1.119512 -0.58673,0 -0.87331,-0.139979 -0.87331,-0.426503 0,-0.851811 -1.52046,-0.433355 -3.7543,1.033187 l -2.22341,1.459721 -4.90142,-1.746785 -4.90146,-1.746783 -7.46379,0.0028 c -6.22021,0.0028 -7.4638,0.06933 -7.4638,0.402335 0,0.584109 -3.9226,3.397007 -4.7983,3.44088 -0.41044,0.02048 -1.10947,0.14123 -1.55344,0.268129 -0.47529,0.135883 -1.23519,0.10307 -1.84816,-0.07975 -0.6471,-0.193034 -5.98984,-0.373587 -14.1204,-0.477228 l -13.079852,-0.166448 -2.228811,0.701285 -2.228819,0.701284 -10.850598,-0.160195 c -5.967827,-0.08811 -10.893249,-0.269663 -10.945361,-0.403414 -0.05218,-0.133752 -1.043766,-0.243193 -2.203603,-0.243193 -2.059862,0 -2.108824,-0.01649 -2.108824,-0.710836 0,-0.676349 -0.07982,-0.710838 -1.645678,-0.710838 -1.412173,0 -1.785336,0.119363 -2.630096,0.841432 -0.541432,0.462813 -1.124917,0.846665 -1.296623,0.853005 -0.171713,0.0062 -1.194809,-0.350159 -2.273521,-0.792271 -1.465511,-0.600601 -1.961619,-0.942031 -1.962476,-1.350591 0,-0.417633 -0.236195,-0.568329 -0.996343,-0.638105 -0.547338,-0.05027 -1.116724,-0.210209 -1.265289,-0.355418 -0.15621,-0.152831 -4.622279,-0.264176 -10.591479,-0.264176 l -10.321363,0 0,1.279507 c 0,0.70373 -0.1034,1.279508 -0.229782,1.279508 -0.126378,0 -0.734116,1.947866 -1.350526,4.328603 -0.686774,2.652505 -1.31344,4.493603 -1.618395,4.754737 -0.27371,0.234348 -0.497652,0.783314 -0.497652,1.219911 0,1.229778 -1.530058,2.472947 -3.056602,2.483468 l -1.208423,0.0082 0,-3.554188 0,-3.554189 -6.938292,0 -6.9382914,0 -0.1980036,1.706012 c -0.1645385,1.417665 -0.289392,1.70601 -0.7387559,1.70601 -0.4759826,0 -0.5407515,0.221354 -0.5407515,1.848177 l 0,1.848178 -1.2147245,0 c -0.9365659,0 -1.4574388,-0.200086 -2.274681,-0.873704 z M 212.30075,-27.097779 c 2.16382,-1.509791 2.22424,-1.581841 1.52293,-1.815592 -0.50353,-0.167872 -0.68989,-0.397814 -0.60021,-0.74075 0.0842,-0.32181 -0.12056,-0.631451 -0.58006,-0.877373 -0.65267,-0.349277 -0.82344,-0.296875 -2.10983,0.647402 l -1.39967,1.027474 -3.36841,-1.131625 -3.36837,-1.131626 -4.63378,0 c -2.54855,0 -4.63375,0.09761 -4.63375,0.21692 0,0.300854 16.28225,5.710472 16.6336,5.526365 0.15639,-0.08197 1.29828,-0.856503 2.53755,-1.721195 z m 7.57594,-7.363039 c 1.29261,-0.914184 1.39981,-1.360317 0.38783,-1.614309 -0.56571,-0.141982 -1.0505,0.05212 -2.15478,0.862733 -1.04401,0.76638 -1.32389,1.109925 -1.04717,1.285359 0.6991,0.443196 1.70155,0.25305 2.81412,-0.533783 z m 5.16876,-4.051775 c 2.63061,-2.049552 3.09839,-2.608698 2.49472,-2.981791 -0.24848,-0.153566 -6.83007,4.255688 -6.83007,4.575718 0,0.161366 1.21998,0.662131 1.43891,0.590635 0.0876,-0.02863 1.39105,-1.011678 2.89644,-2.184562 z m -28.45069,-8.224255 8.1567,-0.23452 2.57695,-2.203955 2.57696,-2.203954 0,-1.385872 c 0,-0.762229 -0.0557,-1.385872 -0.12358,-1.385872 -0.068,0 -1.02906,0.190473 -2.13575,0.423272 -1.92958,0.4059 -2.03535,0.400065 -2.57761,-0.142167 -0.58655,-0.586572 -1.8314,-0.763076 -2.11744,-0.300235 -0.0902,0.145864 -0.8974,0.40611 -1.79388,0.578326 -0.89647,0.172219 -1.82952,0.422599 -2.07342,0.556403 -0.2439,0.133805 -1.18101,0.396398 -2.08244,0.583536 -1.1674,0.24235 -1.59683,0.450159 -1.49242,0.72223 0.10217,0.266207 -0.25774,0.466391 -1.18741,0.660469 -9.95923,2.079099 -12.93429,2.779139 -13.04578,3.069723 -0.0727,0.1893 0.10174,0.599313 0.3875,0.911141 0.62195,0.678702 2.23217,0.716604 14.93162,0.351475 z m 36.89188,-2.702898 0.64923,-0.69109 -1.737,-0.876844 c -0.95537,-0.482266 -1.73703,-0.806775 -1.73703,-0.721134 0,0.510547 1.49445,2.980159 1.80338,2.980159 0.20469,0 0.66432,-0.310991 1.02142,-0.691091 z M 115.4665,-52.079763 c 0.21689,-0.387574 0.0965,-0.59513 -0.5866,-1.010495 -0.47278,-0.287505 -0.88387,-0.483853 -0.91355,-0.436332 -0.0297,0.04753 -0.27116,0.43377 -0.53662,0.858325 -0.65579,1.04894 -0.63956,1.07626 0.6406,1.07626 0.76546,0 1.21016,-0.155353 1.39617,-0.487758 z m -9.78928,-0.547242 c 0.72872,-0.640502 0.7747,-0.765666 0.36539,-0.994726 -0.3853,-0.21562 -0.41145,-0.386645 -0.14767,-0.965534 0.17628,-0.386926 0.25996,-0.764059 0.18595,-0.838077 -0.17993,-0.179906 -10.956313,2.790768 -11.246279,3.100204 -0.125017,0.133395 1.977693,0.16001 4.677683,0.0592 3.224586,-0.120391 4.904786,-0.08503 4.904786,0.103236 0,0.456654 0.36553,0.32197 1.26014,-0.464311 z m 151.89362,0.324162 c 0.11778,-0.306949 0.59819,-0.426503 1.71387,-0.426503 0.96105,0 1.48343,-0.108058 1.37447,-0.284335 -0.23205,-0.375442 -4.57404,-0.367213 -5.27887,0.01001 -0.81415,0.435707 -0.66945,0.79215 0.37409,0.92165 0.50825,0.06308 1.08803,0.135156 1.28843,0.160183 0.20038,0.02502 0.43799,-0.146421 0.52801,-0.380997 z m -72.14212,-2.433996 c 4.47007,-0.947738 8.33543,-1.783006 8.58971,-1.856152 0.28709,-0.08258 0.51615,0.07275 0.60428,0.409753 0.15393,0.588608 -0.055,0.600911 5.0466,-0.297212 1.01649,-0.178952 2.24932,-0.339935 2.73962,-0.357739 1.03635,-0.03764 1.80974,-0.585845 1.80974,-1.282801 0,-0.381151 0.43679,-0.566378 1.99035,-0.844012 1.09469,-0.195633 1.99034,-0.445345 1.99034,-0.55492 0,-0.27171 -11.12287,-2.86188 -13.70361,-3.191148 -2.24625,-0.286587 -33.7174,0.348973 -33.94387,0.6855 -0.0205,0.03043 -0.5207,0.929418 -1.11161,1.997738 -1.18331,2.139337 -1.33489,2.238733 -4.41157,2.892754 -1.17288,0.249322 -2.45239,0.707176 -2.84335,1.017451 l -0.71084,0.564137 7.88599,-0.06958 7.88594,-0.06958 0.93371,0.904968 0.93368,0.904967 0.81838,-0.536842 c 1.80379,-1.183272 4.27671,-0.950572 5.93519,0.558488 0.50211,0.45689 1.03017,0.834461 1.17344,0.839048 0.14327,0.0045 3.91782,-0.767087 8.38788,-1.714825 z M 76.721759,-55.772681 c 1.614766,-1.73967 1.795116,-2.054895 1.807292,-3.158692 l 0.01361,-1.226161 -9.454137,0.194582 c -5.199781,0.107021 -9.562505,0.293738 -9.694945,0.414932 -0.132448,0.121193 0.251403,1.529809 0.853004,3.130262 l 1.093811,2.909911 6.793817,-0.166154 6.793842,-0.166154 1.79378,-1.932526 z"
         id="path3079"
         inkscape:connector-curvature="0"
         sodipodi:nodetypes="cssscccsssscssssscssscscsssssscssscscscsssscsssscssssscccccscsssssssscssssscsssssssssccssssssssssssccsccccsssccsscssccsccccccccsssccssscsccssscccccsccccssssssssccsscscsssssssssssssssssssscscccssssscscsccssccsssssscscscscsscscccsccsccssssssscssssssssscsssscsccssscsssssssssscscccsccscccccccsscscccccccccscsscccscccscsssssssccsccscsscscsccccssssccccscccscccscsssccccccscssscsccccccssscsccscccccccsscscssccscsssscccsssccssscscssccsssccsccscsccccssscscsscccsccsssssscssscccccsccscccsssccccc" />
    </g>
  </g>
</svg>
