<?xml version="1.0" encoding="UTF-8" standalone="no"?>
<!-- Created with Inkscape (http://www.inkscape.org/) -->

<svg
   xmlns:dc="http://purl.org/dc/elements/1.1/"
   xmlns:cc="http://creativecommons.org/ns#"
   xmlns:rdf="http://www.w3.org/1999/02/22-rdf-syntax-ns#"
   xmlns:svg="http://www.w3.org/2000/svg"
   xmlns="http://www.w3.org/2000/svg"
   xmlns:sodipodi="http://sodipodi.sourceforge.net/DTD/sodipodi-0.dtd"
   xmlns:inkscape="http://www.inkscape.org/namespaces/inkscape"
   width="125"
   height="33.509693"
   id="svg2"
   version="1.1"
   inkscape:version="0.48.5 r10040"
   sodipodi:docname="Redeemer.svg">
  <defs
     id="defs4" />
  <sodipodi:namedview
     id="base"
     pagecolor="#ffffff"
     bordercolor="#666666"
     borderopacity="1.0"
     inkscape:pageopacity="0.0"
     inkscape:pageshadow="2"
     inkscape:zoom="7.9195959"
     inkscape:cx="78.898703"
     inkscape:cy="29.400074"
     inkscape:document-units="px"
     inkscape:current-layer="layer1"
     showgrid="false"
     fit-margin-top="0"
     fit-margin-left="0"
     fit-margin-right="0"
     fit-margin-bottom="0"
     inkscape:window-width="1920"
     inkscape:window-height="1018"
     inkscape:window-x="-8"
     inkscape:window-y="-8"
     inkscape:window-maximized="1" />
  <metadata
     id="metadata7">
    <rdf:RDF>
      <cc:Work
         rdf:about="">
        <dc:format>image/svg+xml</dc:format>
        <dc:type
           rdf:resource="http://purl.org/dc/dcmitype/StillImage" />
        <dc:title />
      </cc:Work>
    </rdf:RDF>
  </metadata>
  <g
     inkscape:label="Layer 1"
     inkscape:groupmode="layer"
     id="layer1"
     transform="translate(615.85714,-694.26973)">
    <g
       id="g2996"
       transform="matrix(0.06696644,0,0,0.06696644,-573.46738,733.57244)">
      <path
         style="fill:#000000"
         d="m 392.31073,-573.1281 c 14.46166,4.90808 40.6894,18.45556 40.6894,21.05787 0,0.55885 1.5653,2.5363 3.4785,4.39433 5.9613,5.78956 6.316,12.7975 0.9322,18.41697 -3.0243,3.15674 -11.1797,5.52909 -21.7658,6.33156 -4.3532,0.32999 -11.105,2.0171 -18.5,4.62266 -11.4694,4.0412 -15.9728,5.39998 -21.3949,6.45542 -2.6338,0.51268 -2.75,0.78801 -2.75,6.51624 l 0,5.98095 4.5,0 c 3.8333,0 4.5,0.2963 4.5,2 0,1.70833 0.6667,2 4.5714,2 2.5143,0 5.1719,0.60043 5.9058,1.3343 0.7338,0.73386 3.5142,1.4072 6.1785,1.4963 6.4848,0.21686 15.7142,4.81614 16.179,8.06248 0.184,1.28568 -0.1535,2.82569 -0.75,3.42226 -0.5966,0.59656 -1.0847,2.08127 -1.0847,3.29934 0,2.02583 0.6182,2.26732 7.25,2.83201 3.9875,0.33954 21.425,1.07007 38.75,1.62342 50.2164,1.60386 58.1928,2.26389 82.5,6.82674 12.09998,2.27136 25.37498,5.23027 29.49998,6.57536 5.0228,1.63786 11.7006,2.76934 20.218,3.42574 9.1657,0.70637 14.0536,1.57567 17.5,3.1123 4.3436,1.93669 37.122,8.84801 50.0898,10.56143 2.9193,0.38572 6.2908,1.49735 7.4924,2.47029 1.6555,1.3406 2.6467,1.52162 4.0931,0.74754 1.1684,-0.62532 4.9614,-0.75513 9.7808,-0.33473 l 7.8722,0.6867 -0.6603,-4.32074 c -0.3631,-2.37641 -1.0881,-5.1527 -1.6112,-6.16954 -0.841,-1.63519 -0.623,-1.78356 1.8871,-1.2842 1.561,0.31053 4.5466,0.85901 6.6347,1.21884 2.0882,0.35983 3.5709,0.88003 3.2949,1.15599 -0.276,0.27597 0.6106,2.69695 1.9702,5.37996 2.3702,4.67742 2.6462,4.8785 6.7051,4.88522 2.3283,0.004 8.0582,0.93877 12.7332,2.07759 9.0581,2.20655 37.5103,6.51824 45,6.81938 2.475,0.0995 6.2737,0.65238 8.4415,1.22859 6.486,1.72399 82.9061,13.77066 83.8105,13.21169 0.4596,-0.28404 1.4822,0.0202 2.2724,0.676 0.9069,0.75263 8.4371,1.51947 20.4161,2.07908 10.4386,0.48765 23.4944,1.56479 29.0128,2.39365 12.9524,1.94542 13.3899,1.92309 14.5596,-0.74299 1.1326,-2.58164 5.5933,-3.53871 7.2269,-1.55056 0.5877,0.71531 1.2242,2.42083 1.4144,3.79006 0.3192,2.29817 1.3833,2.76471 13.8458,6.0706 16.2639,4.31425 33,9.82117 33,10.85841 0,0.99336 11.413,4.26199 16.5,4.72554 2.2,0.20047 9.84999,1.24946 16.99999,2.33108 7.15,1.08163 16.375,2.43685 20.5,3.01161 15.9333,2.22006 49.8085,12.26482 64.6892,19.18182 4.8459,2.25255 11.9608,5.12932 15.8108,6.39284 9.1912,3.01641 43.8287,17.1259 54,21.99674 9.5527,4.5746 33.8101,17.85071 37.9057,20.74577 2.7816,1.96632 3.0321,1.98136 5.8703,0.35246 3.2797,-1.88227 2.5768,-2.18078 10.974,4.66019 3.9073,3.18313 4.75,4.44915 4.75,7.13583 0,2.22601 1.1118,4.66442 3.4911,7.65688 4.922,6.19054 5.2328,9.19189 1.9762,19.0847 -3.1999,9.72052 -3.9121,10.80603 -7.0897,10.80603 -1.3625,0 -2.3776,0.59313 -2.3776,1.38922 0,0.76407 -2.2532,6.50157 -5.007,12.75 -3.8322,8.69514 -5.9943,12.25854 -9.2145,15.18697 -7.8981,7.18243 -7.0905,7.05599 -48.8256,7.64442 -33.6874,0.47497 -37.8246,0.71135 -40.2455,2.29949 -2.5177,1.65157 -13.6979,4.21096 -21.7074,4.96929 l -3.5,0.33137 4.2673,1.83013 c 5.8672,2.51628 5.2601,6.54865 -0.9912,6.5838 -2.5546,0.0144 -2.7165,0.27955 -2.6038,4.26531 0.2397,8.48335 2.0066,7.75 -18.6723,7.75 l -18.5,0 -0.1107,-4.25 c -0.061,-2.3375 -0.036,-5.20489 0.055,-6.37199 0.1781,-2.28367 -2.3906,-3.86123 -4.2843,-2.63125 -0.6379,0.41428 -27.9348,1.01534 -60.65979,1.33568 -32.725,0.32034 -60.5125,0.93533 -61.75,1.36663 -1.4846,0.51744 -2.25,1.59494 -2.25,3.16756 0,1.89854 -0.5276,2.38337 -2.5936,2.38337 -1.7526,0 -2.7632,0.64852 -3.1167,2 -0.4226,1.61628 -1.364,2 -4.9063,2 l -4.3834,0 0,5 0,5 4.5321,0 c 2.4927,0 6.2052,0.72144 8.25,1.60319 10.5832,4.56357 24.4672,8.51548 33.2179,9.45504 5.225,0.561 10.9721,1.2496 12.7714,1.53021 4.5481,0.70933 9.9768,5.76286 11.2434,10.46634 1.4074,5.22701 -0.2871,8.91867 -7.3826,16.08287 -9.7108,9.80486 -37.7215,22.24946 -66.0449,29.34241 -21.7637,5.45021 -36.2738,6.71234 -72.2854,6.28757 -30.7655,-0.36289 -30.8173,-0.36712 -43.8019,-3.58251 -15.7951,-3.91134 -17.6459,-4.6413 -16.8733,-6.6547 0.4494,-1.17152 -0.1415,-1.53042 -2.5199,-1.53042 l -3.107,0 0,-33.5 0,-33.5 4.941,0 c 2.7175,0 5.1975,-0.41511 5.5111,-0.92246 0.3135,-0.50736 3.9572,-1.92799 8.097,-3.15695 4.1398,-1.22897 7.7613,-2.61386 8.0479,-3.07754 0.2866,-0.46368 -10.583,-0.84305 -24.1546,-0.84305 l -24.6756,0 0.4539,2.37395 c 0.6136,3.21025 -51.0504,77.28489 -53.5862,76.83051 -2.4551,-0.43993 -3.8068,0.6393 -10.0264,8.00562 -4.3753,5.18189 -6.4562,6.85839 -9.1369,7.36129 -1.9091,0.35817 -3.472,1.16363 -3.473,1.78992 -10e-4,0.62629 -1.961,2.37642 -4.3556,3.88917 l -4.3538,2.75046 -25.4739,0.65548 c -24.8144,0.63852 -25.5497,0.60115 -28.3945,-1.4431 -2.4187,-1.73808 -5.0161,-2.21512 -15.1201,-2.77696 -13.9409,-0.7752 -17.3003,-0.2805 -17.3003,2.54753 0,2.28541 -3.1725,4.27091 -5.4362,3.40224 -0.8696,-0.33369 -1.8519,-1.68599 -2.183,-3.00512 -0.3724,-1.48369 -1.5899,-2.64635 -3.1923,-3.04852 -1.4246,-0.35757 -20.6124,-0.35559 -42.63938,0.004 -22.027,0.35997 -41.5116,0.65645 -43.2991,0.65882 -2.244,0.003 -3.25,0.47636 -3.25,1.52932 0,0.89189 -1.2361,1.77223 -2.9776,2.12051 -1.6376,0.32754 -3.4927,1.21629 -4.1224,1.975 -0.8876,1.06952 -4.8116,1.37949 -17.4634,1.37949 -8.9752,0 -16.5695,0.40597 -16.8761,0.90216 -0.7091,1.14731 -12.2502,4.62516 -19.9942,6.02514 -6.7633,1.22269 -12.0893,1.22502 -18.5663,0.008 l -1.2e-4,5e-4 c -6.8618,-1.28921 -16.2684,-4.15129 -18.4725,-5.62055 -1.4327,-0.95501 -6.5348,-1.31486 -18.643,-1.31486 -13.2147,0 -16.7798,-0.28477 -17.1977,-1.37373 -0.6829,-1.7798 -2.7117,-2.12233 -30.58657,-5.16406 l -23.39978,-2.5534 -11.13005,3.50539 -11.13004,3.50539 -8.78594,-1.42226 c -7.76044,-1.25625 -9.48844,-1.24228 -14.80468,0.11968 -8.49937,2.17743 -14.65191,0.63345 -20.40636,-5.12099 -2.32371,-2.32372 -4.5116,-5.52343 -4.86197,-7.11048 -0.46627,-2.11204 -2.25052,-3.92843 -6.6562,-6.77604 -3.31054,-2.13978 -6.67414,-5.1571 -7.47468,-6.70516 -1.02058,-1.97358 -2.49935,-3.01047 -4.94875,-3.46998 -2.68655,-0.504 -5.36294,-2.63054 -11.58969,-9.20868 l -8.09645,-8.55334 -82.657824,-9.37353 c -45.4618,-5.15544 -84.90782,-9.61071 -87.6578203,-9.90059 -50.8997697,-5.36541 -99.6922997,-11.6227 -108.7395397,-13.94506 -9.171756,-2.35432 -23.324116,-9.61514 -30.760456,-15.78154 -8.00224,-6.63565 -10.63419,-7.63891 -12.61625,-4.80911 -1.68677,2.4082 -4.38375,1.79855 -4.38375,-0.99094 0,-1.07166 -1.10056,-2.4159 -2.5,-3.05352 -2.04486,-0.9317 -2.5,-1.84939 -2.5,-5.04067 0,-3.97469 -2.59409,-13.50557 -4.14455,-15.22738 -0.4705,-0.5225 -0.85521,-5.0225 -0.85492,-10 l 5.2e-4,-9.05 29.24948,0 c 31.772186,0 31.648546,0.0217 31.717666,-5.57569 0.0458,-3.70755 3.8957,-6.92431 8.28723,-6.92431 1.9946,0 3.90465,-0.45 4.24457,-1 0.33992,-0.55 1.91492,-1 3.5,-1 1.58508,0 3.16008,-0.45 3.5,-1 0.33992,-0.55 1.68992,-1 3,-1 1.31008,0 2.66008,-0.45 3,-1 0.33992,-0.55 2.13992,-1 4,-1 1.86008,0 3.66008,-0.45 4,-1 0.33992,-0.55 2.95398,-1.00689 5.80902,-1.01531 3.94552,-0.0116 4.83109,-0.27068 3.69098,-1.07966 -1.59342,-1.13063 2.9691,-0.82034 9.90549,0.67367 2.4695,0.5319 3.20911,0.41574 2.69098,-0.4226 -0.90525,-1.46473 0.37856,-1.43398 8.15353,0.19528 3.4375,0.72033 6.25,0.97345 6.25,0.56249 0,-0.41096 -0.5625,-0.97418 -1.25,-1.25159 -2.75817,-1.11294 3.15844,-0.57297 8.28073,0.75573 5.58706,1.44927 7.56675,1.24511 4.94031,-0.50948 -1.78854,-1.19484 4.6290797,-0.38511 10.2839297,1.29754 3.92968001,1.16932 6.24471,0.37524 3.71607001,-1.27464 -1.88830001,-1.23207 6.38773999,-0.2012 10.31102029,1.28435 3.00526,1.13794 5.06521,0.23491 2.74095,-1.20156 -1.87033,-1.15592 6.87664,-0.0513 9.24766,1.16781 2.0441,1.05106 4.06562,0.17112 3.12041,-1.35826 -0.40688,-0.65836 0.11222,-0.79881 1.4192,-0.38398 1.13341,0.35973 9.85226,0.66645 19.37523,0.6816 24.74391,0.0394 25.81449,-0.009 25.81449,-1.16011 0,-0.5713 -1.75223,-2.9172 -3.89384,-5.21312 -3.71825,-3.98616 -4.16338,-4.17607 -9.87141,-4.21128 -4.35939,-0.0269 -5.84806,-0.37527 -5.49917,-1.28688 0.57518,-1.50288 0.81762,-1.49279 -5.78436,-0.24075 -3.9766,0.75415 -5.50842,0.70721 -6.06027,-0.1857 -0.52547,-0.85023 -1.1211,-0.89063 -2.06473,-0.14004 -0.72942,0.5802 -3.42679,1.27932 -5.99415,1.55361 -3.88569,0.41513 -4.57034,0.24439 -4.08557,-1.01888 0.45329,-1.18127 0.0473,-1.38874 -1.83208,-0.93619 -7.3938,1.78045 -10.19769,1.98531 -9.39493,0.68642 0.61083,-0.98834 0.34045,-1.10966 -1.10545,-0.49602 -1.05272,0.44678 -4.05154,1.11757 -6.6640403,1.49066 -3.72802,0.53238 -4.75,0.37708 -4.75,-0.72184 0,-1.38425 -0.99619,-1.33228 -8.75,0.45648 -1.2375,0.28549 -2.25,0.0783 -2.25,-0.46051 0,-0.53877 -2.3625,-1.34102 -5.2499997,-1.78278 -2.8875,-0.44176 -6.15,-0.99055 -7.25,-1.21953 -1.1,-0.22899 -6.5,-0.79572 -12,-1.2594 -5.5,-0.46368 -11.19522,-0.98985 -12.65604,-1.16928 -3.4782,-0.4272 -6.84396,-3.54453 -6.84396,-6.33879 0,-4.51674 -1.33331,-4.72355 -31.26102,-4.84905 l -28.238976,-0.11841 -0.14551,-9 -0.14552,-9 3.64552,-0.5 c 4.00886,-0.54984 3.7998,0.10291 4.0462,-12.63337 0.0821,-4.24611 0.44499,-5.22376 2.099306,-5.65638 1.15334,-0.3016 2,-1.36401 2,-2.50964 0,-2.52366 2.48206,-3.52962 4.04933,-1.64117 2.08734,2.51509 5.28253,1.52962 11.31876,-3.49096 3.22744,-2.6844 7.38994,-5.7003 9.25,-6.70201 1.86005,-1.0017 3.38191,-2.07898 3.38191,-2.39396 0,-0.31497 -6.37566,-2.12097 -14.16812,-4.01334 -13.6285,-3.30962 -14.26646,-3.57956 -16.749996,-7.08756 -1.42004,-2.00579 -5.50688,-7.84227 -9.08188,-12.96995 -8.02714,-11.51344 -16.2403,-20.43741 -25.88567,-28.12591 -11.4745,-9.14654 -22.92188,-14.4168 -54.08309,-24.89932 l -17.46876,-5.87643 -90.88734,0 -90.88733,0 -3.78781,-3 c -4.15878,-3.29382 -9.65276,-4.06846 -10.63837,-1.5 -0.31659,0.825 -1.59758,1.5 -2.84665,1.5 -1.24907,0 -2.94331,1.0125 -3.76498,2.25 -1.47645,2.22365 -1.76044,2.25 -24.25,2.25 -22.48956,0 -22.77355,-0.0263 -24.25,-2.25 -0.82167,-1.2375 -2.51157,-2.25 -3.75534,-2.25 -1.39004,0 -2.45512,-0.74081 -2.76417,-1.92259 -0.31791,-1.21569 -1.55576,-2.04297 -3.36663,-2.25 -2.28124,-0.2608 -2.92823,-0.88686 -3.18028,-3.07741 -0.29705,-2.58165 -0.61557,-2.75 -5.20295,-2.75 -4.7576,0 -9.98063,-1.59108 -9.98063,-3.04037 0,-0.39564 -2.54991,-2.64454 -5.66647,-4.99757 l -5.66648,-4.27823 -9.83352,3.22321 c -5.40844,1.77276 -9.83353,3.58244 -9.83353,4.02152 0,0.43907 -2.64377,1.98477 -5.87505,3.43488 -5.58254,2.50529 -6.6976,2.63656 -22.39663,2.63656 -12.27101,0 -24.55028,-0.90046 -47.72832,-3.5 -17.1637,-1.925 -32.96022,-3.5 -35.10337,-3.5 -2.65099,0 -3.89663,-0.44222 -3.89663,-1.38337 0,-1.4174 2.91512,-2.57868 6.53416,-2.60298 1.13648,-0.008 4.44626,-2.47336 7.5,-5.58739 3.00621,-3.06556 6.19019,-5.9726 7.07551,-6.46008 1.843,-1.01482 49.78086,-11.95268 52.55916,-11.99229 1.0601,-0.0151 8.93562,-7.57743 18.70314,-17.95934 9.27958,-9.86328 17.24385,-17.83903 17.69837,-17.72389 0.45451,0.11514 2.19833,-0.69066 3.87515,-1.79066 2.7564,-1.80821 3.04904,-2.50345 3.05163,-7.25 l 0.003,-5.25 5.41667,0 c 2.97916,0 5.56666,-0.4257 5.75,-0.946 0.43876,-1.24521 17.39285,-2.89535 37.33333,-3.63366 8.8,-0.32582 24.55,-0.96868 35,-1.42858 12.07463,-0.5314 19.12657,-0.48483 19.34725,0.12777 0.20987,0.5826 0.80328,0.60582 1.5,0.0587 1.84481,-1.44872 28.69986,-2.38401 30.30086,-1.0553 1.00981,0.83807 1.35189,0.81424 1.35189,-0.0942 0,-0.89671 2.6269,-1.12587 10.00098,-0.87245 5.50053,0.18904 10.00053,0.006 10,-0.40629 -5.4e-4,-0.4125 1.43926,-0.75 3.19955,-0.75 1.76029,0 11.09779,-1.15923 20.75,-2.57607 15.85556,-2.32743 17.72643,-2.81004 19.38288,-5 2.5511,-3.37279 5.57158,-3.1359 6.96133,0.54597 1.47067,3.89624 0.59735,3.81713 49.83092,4.51402 40.22189,0.56933 40.63093,0.55487 41.15638,-1.45444 0.50332,-1.92471 1.29961,-2.02948 15.42434,-2.02948 8.58091,0 15.31684,0.42322 15.89213,0.99851 0.54918,0.54918 9.30168,1.28399 19.45,1.63292 13.95861,0.47993 18.85769,0.987 20.11967,2.08244 1.40025,1.21545 6.21871,1.37249 30,0.97774 15.5825,-0.25865 36.431816,-0.12246 46.331816,0.30265 16.01087,0.68752 83.26721,2.45619 91,2.39307 6.37907,-0.0521 35.49783,-4.85516 35.45197,-5.84774 -0.13113,-2.83817 -3.69843,-8.02646 -5.95197,-8.65657 -1.375,-0.38446 1.09551,-0.52981 5.49003,-0.323 5.13176,0.2415 8.35132,0.85592 9,1.71755 0.55548,0.73785 2.13497,2.7415 3.50997,4.45256 l 2.5,3.11101 10,-0.9282 c 5.5,-0.51052 27.781964,-1.21083 49.515474,-1.55627 l 39.51547,-0.62805 4.98453,2.55488 c 2.74149,1.40518 6.40519,4.08313 8.14156,5.95099 3.47859,3.74202 7.7297,15.53075 6.2555,17.34708 -0.92443,1.13895 4.26858,10.30302 6.60907,11.66299 1.16458,0.6767 12.7025,16.33112 16.9559,23.00544 1.67111,2.62225 2.12165,2.75 9.69878,2.75 l 7.94627,0 -0.65464,-4.36543 c -0.60204,-4.01469 -0.42619,-4.52075 2.18873,-6.29875 4.36511,-2.96804 7.52761,-4.08999 13.70381,-4.86165 3.11629,-0.38936 5.91159,-1.10533 6.21178,-1.59104 0.30019,-0.48571 2.54425,-0.88312 4.98679,-0.88312 3.77431,0 4.44098,-0.30023 4.44098,-2 0,-1.73333 0.66667,-2 5,-2 4.80671,0 5,-0.10799 5,-2.79341 0,-2.44064 -0.53671,-2.93756 -4.25,-3.93488 -3.93687,-1.05738 -4.43822,-0.96209 -6.80472,1.2934 -3.20693,3.05651 -5.12801,3.04742 -13.75667,-0.0651 -3.81182,-1.375 -8.78864,-2.5 -11.0596,-2.5 l -4.12901,-1e-5 0,-34 0,-34 2.5,0 c 1.51005,0 2.5,-0.5706 2.5,-1.44098 0,-2.11657 0.76018,-2.40552 16.29113,-6.1925 l 14.20887,-3.46461 c 0,0 20.99913,-0.41871 31.5,-0.40661 9.43795,0.0109 18.89828,-0.26447 28.3106,0.43072 25.23149,1.86359 41.93845,4.79246 67,13.29798 z"
         id="path2998"
         inkscape:connector-curvature="0"
         sodipodi:nodetypes="sscssssscssscsccssssssssccscccsscscsssccsscccsssssssscsssssssssscscsccsccccscsscscccsssscsssscscccscsssccsscsscsssssscccsccscscccscscccsssssssscsssssssssscssssssssssssssssssssssscssssssssssssssssssssssssscccscssssssssssscccssssssssssssscssssssscsscsssccscssssssscsssssssssssssssssscsscsssssscsssssssssssscccssscass" />
    </g>
  </g>
</svg>
