<?xml version="1.0" encoding="UTF-8" standalone="no"?>
<!-- Created with Inkscape (http://www.inkscape.org/) -->

<svg
   xmlns:dc="http://purl.org/dc/elements/1.1/"
   xmlns:cc="http://creativecommons.org/ns#"
   xmlns:rdf="http://www.w3.org/1999/02/22-rdf-syntax-ns#"
   xmlns:svg="http://www.w3.org/2000/svg"
   xmlns="http://www.w3.org/2000/svg"
   xmlns:sodipodi="http://sodipodi.sourceforge.net/DTD/sodipodi-0.dtd"
   xmlns:inkscape="http://www.inkscape.org/namespaces/inkscape"
   width="50.955288"
   height="97.000061"
   id="svg3925"
   version="1.1"
   inkscape:version="0.48.5 r10040"
   sodipodi:docname="Reliant.svg">
  <defs
     id="defs3927" />
  <sodipodi:namedview
     id="base"
     pagecolor="#ffffff"
     bordercolor="#666666"
     borderopacity="1.0"
     inkscape:pageopacity="0.0"
     inkscape:pageshadow="2"
     inkscape:zoom="5.6"
     inkscape:cx="43.875626"
     inkscape:cy="62.411302"
     inkscape:document-units="px"
     inkscape:current-layer="g3944"
     showgrid="false"
     fit-margin-top="0"
     fit-margin-left="0"
     fit-margin-right="0"
     fit-margin-bottom="0"
     inkscape:window-width="1920"
     inkscape:window-height="1018"
     inkscape:window-x="-8"
     inkscape:window-y="-8"
     inkscape:window-maximized="1" />
  <metadata
     id="metadata3930">
    <rdf:RDF>
      <cc:Work
         rdf:about="">
        <dc:format>image/svg+xml</dc:format>
        <dc:type
           rdf:resource="http://purl.org/dc/dcmitype/StillImage" />
        <dc:title />
      </cc:Work>
    </rdf:RDF>
  </metadata>
  <g
     inkscape:label="Layer 1"
     inkscape:groupmode="layer"
     id="layer1"
     transform="translate(-95.43299,-857.92604)">
    <g
       id="g3944">
      <path
         style="fill:#000000;fill-opacity:1"
         d="m 126.59318,954.67343 c -0.21991,-0.14923 -0.39983,-0.24044 -0.39983,-0.20268 0,0.15196 -0.42775,-0.33111 -0.54603,-0.61666 -0.11535,-0.27853 -0.20064,-0.31616 -0.95654,-0.42223 -0.45644,-0.0641 -0.8814,-0.16796 -0.94436,-0.23091 -0.19559,-0.19562 0.11356,-0.4317 0.75262,-0.57472 0.32765,-0.0733 0.59573,-0.16438 0.59573,-0.20236 0,-0.0379 -0.23484,-0.29629 -0.52184,-0.57405 -0.35291,-0.34156 -0.65317,-0.52815 -0.92759,-0.57644 -0.2674,-0.0471 -0.42916,-0.14506 -0.4743,-0.28733 -0.058,-0.18267 -0.16886,-0.2159 -0.72028,-0.2159 l -0.65175,0 0,-0.84212 c 0,-0.81146 -0.0224,-0.88448 -0.61659,-2.00491 -0.33914,-0.63955 -2.53949,-4.74693 -4.88968,-9.12753 -2.35019,-4.3806 -4.26028,-8.01416 -4.24463,-8.07459 0.0157,-0.0605 0.0863,-0.10364 0.15707,-0.096 0.0707,0.008 0.11196,-0.0418 0.0915,-0.10986 -0.0204,-0.068 -0.0661,-0.2565 -0.10153,-0.41885 -0.0513,-0.23513 -0.1362,-0.30218 -0.41713,-0.32957 -0.31233,-0.0304 -0.40616,-0.12868 -0.81999,-0.85833 -0.46439,-0.8188 -0.46592,-0.82512 -0.24481,-1.01151 0.22083,-0.18615 0.21823,-0.19546 -0.34572,-1.24157 -0.52078,-0.96606 -0.58354,-1.04015 -0.75194,-0.88776 -0.10104,0.0914 -0.42909,0.27939 -0.72899,0.41765 -0.51477,0.23731 -0.65818,0.24966 -2.56253,0.22098 l -2.01725,-0.0303 -1.60808,-1.45979 c -0.88443,-0.80287 -1.79707,-1.62849 -2.02808,-1.8347 -0.29738,-0.26547 -0.40691,-0.4434 -0.37516,-0.60949 0.026,-0.13607 -0.0292,-0.28082 -0.13144,-0.34467 -0.18849,-0.11771 -0.63536,-0.87606 -0.551664,-0.93617 0.02759,-0.0198 3.159944,-0.005 6.960834,0.0323 6.80416,0.0672 6.91344,0.0718 7.08587,0.29426 0.0963,0.1243 0.25934,0.37973 0.36228,0.5676 l 0.18714,0.34161 2.48037,0 c 2.26303,0 2.48634,-0.0168 2.5486,-0.19224 0.0375,-0.10575 0.33514,-0.87448 0.6614,-1.70831 0.5676,-1.45072 0.596,-1.57263 0.65916,-2.82886 l 0.0661,-1.31279 0.41235,0 c 0.39271,0 0.42065,-0.0244 0.58712,-0.51299 0.0961,-0.28215 0.16258,-0.51958 0.14766,-0.52762 -0.54312,-0.29252 -0.63137,-0.41137 -0.63137,-0.85032 0,-0.6801 0.42287,-3.27595 0.59739,-3.6671 0.1279,-0.2867 0.26035,-0.3703 0.84821,-0.53539 0.38316,-0.10761 0.80787,-0.19572 0.94381,-0.19581 0.13596,-9e-5 0.24719,-0.0394 0.24719,-0.0873 0,-0.0479 0.0278,-0.1593 0.0615,-0.24751 0.0503,-0.13119 -0.13462,-0.17312 -1.01619,-0.23036 -0.59275,-0.0385 -1.37434,-0.0581 -1.73688,-0.0436 -1.37545,0.0549 -4.44926,-0.0538 -4.44926,-0.15751 0,-0.0468 -0.18572,-0.0852 -0.4127,-0.0852 -0.22698,0 -0.58539,-0.0514 -0.79648,-0.11439 -0.67712,-0.20184 -6.28141,-0.87263 -7.30484,-0.87434 -0.54381,-8.3e-4 -1.28535,-0.0513 -1.64788,-0.11212 -0.36253,-0.0608 -2.80962,-0.87311 -5.43799,-1.80524 -4.114006,-1.459 -4.820863,-1.7418 -5.080944,-2.03268 -0.186598,-0.20871 -0.30211,-0.46325 -0.30211,-0.66574 0,-0.18032 -0.04944,-0.32785 -0.109857,-0.32785 -0.06042,0 -0.109859,-0.17302 -0.109859,-0.3845 0,-0.21147 0.04944,-0.3845 0.109859,-0.3845 0.06042,0 0.109857,-0.1274 0.109857,-0.2831 0,-0.37744 0.529562,-0.89275 0.99966,-0.97277 0.811448,-0.13812 9.999244,-0.72159 11.362764,-0.72159 0.85973,0 2.69828,-0.13449 4.51372,-0.3302 4.09449,-0.44136 4.17793,-0.45604 4.88455,-0.85851 1.10848,-0.63138 2.33751,-0.69805 2.48481,-0.13477 0.0773,0.29558 0.95992,0.39979 3.02328,0.35694 1.05716,-0.022 1.06668,-0.0246 0.97632,-0.26935 -0.0502,-0.13596 -0.18453,-0.26155 -0.29856,-0.2791 -0.77652,-0.11952 -1.60484,-0.41243 -1.70721,-0.60372 -0.15531,-0.2902 -0.52682,-2.83234 -0.52995,-3.62649 -0.002,-0.59396 0.0196,-0.64939 0.32721,-0.82394 0.18136,-0.10293 0.30847,-0.24379 0.28248,-0.31303 -0.026,-0.0692 -0.10805,-0.32877 -0.18235,-0.57675 -0.1277,-0.42623 -0.15814,-0.45087 -0.55712,-0.45087 l -0.42205,0 0,-1.35126 c 0,-0.74319 -0.0472,-1.39852 -0.10502,-1.45628 -0.0577,-0.0577 -0.32528,-0.72268 -0.5945,-1.47759 -0.26922,-0.75492 -0.52387,-1.45909 -0.56589,-1.56483 -0.0696,-0.17518 -0.29722,-0.19225 -2.56472,-0.19225 l -2.48832,0 -0.30927,0.51202 -0.30927,0.51202 -6.93553,-0.0768 c -3.81455,-0.0421 -6.957392,-0.0986 -6.984126,-0.12527 -0.06974,-0.0697 0.516756,-0.93194 0.633986,-0.93194 0.0538,0 0.0719,-0.0997 0.0401,-0.22161 -0.0427,-0.16334 0.0683,-0.33238 0.42225,-0.64292 0.98777,-0.86661 3.56394,-3.01648 3.79986,-3.17106 0.19832,-0.12994 0.61638,-0.1523 2.19781,-0.11752 2.05448,0.0452 2.49635,0.13746 2.98139,0.62249 l 0.2238,0.2238 0.21072,-0.3515 c 0.1159,-0.19332 0.39455,-0.68519 0.61922,-1.09305 0.38255,-0.69442 0.39393,-0.74154 0.17932,-0.74154 -0.32134,0 -0.2873,-0.21861 0.15023,-0.96515 0.43426,-0.74094 0.56109,-0.86654 0.92843,-0.91938 0.19117,-0.0275 0.30281,-0.15002 0.40393,-0.44336 0.12825,-0.372 0.12251,-0.4082 -0.0699,-0.43945 -0.17584,-0.0286 0.61235,-1.49299 4.89649,-9.09736 l 5.10606,-9.0633 0,-0.85141 0,-0.8514 0.64576,0 c 0.53629,0 0.67199,-0.0395 0.80056,-0.23316 0.14974,-0.22552 0.22466,-0.2325 2.29019,-0.21341 2.38324,0.0221 2.61268,0.0835 3.06917,0.82212 0.26619,0.43069 0.29854,1.03138 0.0605,1.12274 -0.11135,0.0427 -0.16479,0.21739 -0.16479,0.53855 0,0.4367 0.0245,0.47813 0.30176,0.51007 l 0.30174,0.0348 0.55605,3.46054 c 0.30582,1.90329 0.61284,3.63356 0.68224,3.84504 0.21194,0.64569 1.0391,5.71806 0.98154,6.01912 -0.053,0.27722 0.64471,4.85608 1.19995,7.87502 0.2158,1.17327 0.33164,1.56961 0.49149,1.68156 0.22432,0.15713 0.29099,0.77725 0.10369,0.96454 -0.0673,0.0673 -0.008,0.68053 0.16457,1.69731 0.14849,0.87553 0.2701,1.62895 0.27021,1.67427 0,0.0452 -0.49949,0.0824 -1.11026,0.0824 -1.0955,0 -1.1097,0.003 -1.05275,0.24719 0.0318,0.13595 0.1703,1.07119 0.30788,2.0783 l 0.25015,1.83112 0.74474,0.0748 c 0.73647,0.074 0.7455,0.0788 0.81311,0.43921 0.0668,0.35649 0.0831,0.36581 0.74448,0.42874 0.37186,0.0354 3.04845,0.12605 5.94797,0.20148 4.87052,0.12672 5.27468,0.1518 5.30872,0.32941 0.0347,0.18071 -0.26521,0.19287 -4.99721,0.20257 -2.76874,0.006 -5.50372,0.0465 -6.07773,0.0905 -0.574,0.0441 -1.0814,0.0487 -1.12753,0.0102 -0.0462,-0.0385 -0.30314,-0.0192 -0.57112,0.0429 l -0.48722,0.11303 0.0218,0.5531 0.0218,0.55309 -0.63136,0.32957 c -0.34727,0.18126 -0.63152,0.35625 -0.63169,0.38884 0,0.0326 0.40754,0.23174 0.90602,0.44255 0.70719,0.29906 0.91404,0.43691 0.94144,0.62735 0.0193,0.13423 0.0763,0.24407 0.12643,0.24407 0.0503,0 0.38757,0.22268 0.74964,0.49485 0.48259,0.36277 0.79954,0.51422 1.18748,0.56739 0.34806,0.0478 0.62227,0.16561 0.80115,0.3445 l 0.27197,0.27196 -0.25278,0.2047 -0.25277,0.20468 0.46163,0.70855 c 0.2539,0.38971 0.59933,1.06245 0.76763,1.49501 0.1683,0.43254 0.36817,0.82489 0.44418,0.87187 0.31154,0.19254 0.25724,4.17444 -0.057,4.17444 -0.0803,0 -0.20596,0.18539 -0.27925,0.41197 -0.19186,0.5932 -0.50633,1.19848 -1.00733,1.9389 -0.37963,0.56099 -0.41477,0.66134 -0.26171,0.74699 0.0972,0.0543 0.1768,0.21409 0.1768,0.35481 0,0.28585 -0.2981,0.44215 -1.06707,0.55944 -0.26858,0.041 -0.6605,0.22091 -0.9338,0.42874 -0.259,0.19698 -0.58453,0.41841 -0.72338,0.49207 -0.13884,0.0737 -0.29509,0.2461 -0.34721,0.38322 -0.0605,0.15892 -0.28753,0.32245 -0.62643,0.4511 -0.29241,0.11099 -0.70007,0.2716 -0.90594,0.35692 l -0.37429,0.15513 0.64894,0.36213 0.64893,0.36213 -0.0232,0.71607 c -0.0204,0.62961 0.003,0.72289 0.19224,0.77242 0.14196,0.0371 0.21546,0.15056 0.21546,0.33254 0,0.21636 -0.0701,0.29159 -0.32315,0.34719 -0.26447,0.0581 -0.32931,0.13449 -0.35705,0.42069 -0.0199,0.20528 0.0682,0.55025 0.2133,0.83524 0.13595,0.26703 0.24718,0.63971 0.24718,0.82818 0,0.43174 -0.33579,1.09991 -0.69463,1.38217 -0.18228,0.14337 -0.29938,0.37345 -0.34746,0.68271 -0.0399,0.25655 -0.0964,0.55116 -0.12556,0.65466 -0.0471,0.16706 0.068,0.19175 1.02421,0.21971 l 1.07724,0.0315 -0.0335,0.43944 c -0.0184,0.24168 -0.37372,2.16969 -0.78964,4.28447 -1.04835,5.33035 -1.64044,8.69921 -1.63153,9.28303 0.008,0.5303 -0.9318,5.59807 -1.11701,6.02283 -0.0612,0.14039 -0.36169,1.62348 -0.66771,3.29574 -0.53888,2.94465 -0.55529,3.09416 -0.52051,4.74329 l 0.036,1.7028 -0.35704,0.0344 c -0.2102,0.0203 -0.35704,0.0956 -0.35704,0.18326 0,0.28375 0.13425,0.4964 0.31387,0.49715 0.20538,8.4e-4 0.61723,0.57458 0.71367,0.99416 l 0.0645,0.28083 3.32646,0.021 c 3.43344,0.0217 5.02927,0.0987 5.02927,0.24289 0,0.0457 -0.11541,0.15864 -0.25645,0.25106 -0.21452,0.14057 -0.82973,0.17197 -3.76264,0.19212 -1.92843,0.0132 -3.59606,-0.0138 -3.70588,-0.0602 -0.27394,-0.11555 -0.6907,0.12789 -0.93881,0.54839 -0.49517,0.83925 -2.01236,1.19852 -2.80109,0.66327 z m -0.0703,-3.59932 c 0,-0.2039 -0.0139,-0.20123 -0.20957,0.0404 -0.11525,0.14233 -0.185,0.29851 -0.155,0.34707 0.0886,0.14326 0.36457,-0.15009 0.36457,-0.38745 z m -4.17461,-30.50971 c 0,-0.21856 -0.97239,-0.77429 -1.35481,-0.77429 -0.3263,0 -0.3983,0.0483 -0.49805,0.33454 -0.0876,0.25135 -0.0834,0.34565 0.0166,0.37912 0.48717,0.16283 1.83615,0.20736 1.83615,0.0606 z m -0.20186,-31.54608 c 0.29228,-0.18757 0.53144,-0.38532 0.53144,-0.43943 0,-0.0541 -0.44493,-0.0984 -0.98873,-0.0984 -0.54381,0 -0.98873,0.0421 -0.98873,0.0935 0,0.0514 0.0543,0.24914 0.12061,0.43943 0.0999,0.28656 0.17842,0.34597 0.45728,0.34597 0.18923,0 0.56942,-0.14937 0.86813,-0.34103 z"
         id="path3950"
         inkscape:connector-curvature="0" />
    </g>
  </g>
</svg>
