<?xml version="1.0" encoding="UTF-8" standalone="no"?>
<svg
   xmlns:dc="http://purl.org/dc/elements/1.1/"
   xmlns:cc="http://creativecommons.org/ns#"
   xmlns:rdf="http://www.w3.org/1999/02/22-rdf-syntax-ns#"
   xmlns:svg="http://www.w3.org/2000/svg"
   xmlns="http://www.w3.org/2000/svg"
   version="1.1"
   id="svg3925"
   viewBox="0 0 14.97149 28.49971"
   width="44.91447">
  <defs
     id="defs3927" />
  <metadata
     id="metadata3930">
    <rdf:RDF>
      <cc:Work
         rdf:about="">
        <dc:format>image/svg+xml</dc:format>
        <dc:type
           rdf:resource="http://purl.org/dc/dcmitype/StillImage" />
        <dc:title></dc:title>
      </cc:Work>
    </rdf:RDF>
  </metadata>
  <g
     transform="translate(-95.432998,-926.42587)"
     id="layer1">
    <g
       id="g3944">
      <path
         id="path3950"
         d="m 104.5883,954.85186 c -0.0646,-0.0438 -0.11748,-0.0706 -0.11748,-0.0595 0,0.0446 -0.12568,-0.0973 -0.16043,-0.18118 -0.0339,-0.0818 -0.0589,-0.0929 -0.28104,-0.12406 -0.13411,-0.0188 -0.25897,-0.0494 -0.27747,-0.0678 -0.0575,-0.0575 0.0334,-0.12684 0.22113,-0.16886 0.0963,-0.0215 0.17503,-0.0483 0.17503,-0.0595 0,-0.0111 -0.069,-0.087 -0.15332,-0.16866 -0.10369,-0.10036 -0.19191,-0.15518 -0.27254,-0.16937 -0.0786,-0.0138 -0.12609,-0.0426 -0.13936,-0.0844 -0.017,-0.0537 -0.0496,-0.0634 -0.21162,-0.0634 l -0.1915,0 0,-0.24743 c 0,-0.23842 -0.007,-0.25987 -0.18116,-0.58907 -0.0996,-0.18791 -0.74614,-1.39472 -1.43666,-2.6818 -0.69052,-1.28708 -1.25173,-2.35468 -1.24713,-2.37243 0.005,-0.0178 0.0254,-0.0304 0.0461,-0.0282 0.0208,0.002 0.0329,-0.0123 0.0269,-0.0323 -0.006,-0.02 -0.0194,-0.0754 -0.0298,-0.12306 -0.0151,-0.0691 -0.04,-0.0888 -0.12256,-0.0968 -0.0918,-0.009 -0.11933,-0.0378 -0.240922,-0.25219 -0.136444,-0.24058 -0.136894,-0.24243 -0.07193,-0.2972 0.06488,-0.0547 0.06412,-0.0574 -0.101577,-0.36479 -0.153013,-0.28384 -0.171453,-0.30561 -0.220931,-0.26083 -0.02969,0.0268 -0.126073,0.0821 -0.214187,0.12271 -0.151247,0.0697 -0.193383,0.0734 -0.752908,0.0649 l -0.592697,-0.009 -0.472477,-0.42891 c -0.259858,-0.23589 -0.528005,-0.47847 -0.595879,-0.53906 -0.08737,-0.078 -0.119556,-0.13027 -0.110227,-0.17907 0.0076,-0.04 -0.0086,-0.0825 -0.03862,-0.10127 -0.05538,-0.0346 -0.186678,-0.2574 -0.162087,-0.27506 0.0081,-0.006 0.928437,-10e-4 2.045192,0.009 1.99916,0.0197 2.03127,0.0211 2.08193,0.0865 0.0283,0.0365 0.0762,0.11157 0.10645,0.16676 l 0.055,0.10037 0.72877,0 c 0.66491,0 0.73052,-0.005 0.74881,-0.0565 0.011,-0.0311 0.0985,-0.25693 0.19433,-0.50192 0.16677,-0.42625 0.17511,-0.46207 0.19367,-0.83116 l 0.0194,-0.38572 0.12116,0 c 0.11538,0 0.12359,-0.007 0.1725,-0.15072 0.0282,-0.0829 0.0478,-0.15266 0.0434,-0.15503 -0.15958,-0.0859 -0.18551,-0.12086 -0.18551,-0.24983 0,-0.19983 0.12425,-0.96252 0.17552,-1.07745 0.0376,-0.0842 0.0765,-0.1088 0.24922,-0.1573 0.11258,-0.0316 0.23736,-0.0575 0.2773,-0.0575 0.04,-2e-5 0.0726,-0.0116 0.0726,-0.0256 0,-0.0141 0.008,-0.0468 0.0181,-0.0727 0.0148,-0.0385 -0.0395,-0.0509 -0.29857,-0.0677 -0.17416,-0.0113 -0.4038,-0.0171 -0.51032,-0.0128 -0.40413,0.0161 -1.30726,-0.0158 -1.30726,-0.0463 0,-0.0137 -0.0546,-0.025 -0.12125,-0.025 -0.0667,0 -0.172,-0.0151 -0.23402,-0.0336 -0.19895,-0.0593 -1.84557,-0.25639 -2.146269,-0.2569 -0.159779,-2.4e-4 -0.377654,-0.0151 -0.48417,-0.0329 -0.106517,-0.0179 -0.825507,-0.25653 -1.597759,-0.5304 -1.208754,-0.42868 -1.416439,-0.51177 -1.492854,-0.59723 -0.05482,-0.0613 -0.08876,-0.13611 -0.08876,-0.19561 0,-0.053 -0.01453,-0.0963 -0.03228,-0.0963 -0.01775,0 -0.03228,-0.0508 -0.03228,-0.11298 0,-0.0621 0.01453,-0.11297 0.03228,-0.11297 0.01775,0 0.03228,-0.0374 0.03228,-0.0832 0,-0.11089 0.155593,-0.2623 0.293714,-0.28581 0.238415,-0.0406 2.93792,-0.21201 3.338542,-0.21201 0.252601,0 0.792793,-0.0395 1.326196,-0.097 1.20302,-0.12968 1.22753,-0.13399 1.43515,-0.25224 0.32568,-0.18551 0.68679,-0.2051 0.73007,-0.0396 0.0227,0.0868 0.28204,0.11746 0.88828,0.10487 0.31061,-0.006 0.31341,-0.007 0.28686,-0.0791 -0.0148,-0.0399 -0.0542,-0.0768 -0.0877,-0.082 -0.22815,-0.0351 -0.47153,-0.12118 -0.5016,-0.17738 -0.0456,-0.0853 -0.15479,-0.83218 -0.15571,-1.06552 -5.9e-4,-0.17451 0.006,-0.1908 0.0961,-0.24208 0.0533,-0.0302 0.0906,-0.0716 0.083,-0.092 -0.008,-0.0203 -0.0317,-0.0966 -0.0536,-0.16946 -0.0375,-0.12523 -0.0465,-0.13247 -0.16369,-0.13247 l -0.12401,0 0,-0.39702 c 0,-0.21836 -0.0139,-0.41091 -0.0309,-0.42788 -0.017,-0.0169 -0.0956,-0.21233 -0.17468,-0.43414 -0.0791,-0.2218 -0.15392,-0.4287 -0.16626,-0.45976 -0.0204,-0.0515 -0.0873,-0.0565 -0.75355,-0.0565 l -0.73111,0 -0.0909,0.15044 -0.0909,0.15044 -2.037759,-0.0226 c -1.120769,-0.0124 -2.04418,-0.029 -2.052035,-0.0368 -0.02049,-0.0205 0.15183,-0.27382 0.186274,-0.27382 0.01581,0 0.02112,-0.0293 0.01178,-0.0651 -0.01255,-0.048 0.02007,-0.0977 0.124063,-0.1889 0.290221,-0.25462 1.047136,-0.88629 1.116453,-0.9317 0.05827,-0.0382 0.181101,-0.0448 0.645748,-0.0345 0.603635,0.0133 0.733463,0.0404 0.875975,0.18289 l 0.06575,0.0658 0.06191,-0.10328 c 0.03405,-0.0568 0.115924,-0.20132 0.181931,-0.32115 0.1124,-0.20403 0.11574,-0.21788 0.0527,-0.21788 -0.09441,0 -0.08441,-0.0642 0.0441,-0.28357 0.12759,-0.2177 0.16486,-0.2546 0.27278,-0.27013 0.0562,-0.008 0.089,-0.0441 0.11869,-0.13026 0.0377,-0.1093 0.036,-0.11994 -0.0205,-0.12912 -0.0517,-0.008 0.17991,-0.43866 1.43866,-2.67293 l 1.50023,-2.66293 0,-0.25016 0,-0.25015 0.18973,0 c 0.15757,0 0.19744,-0.0116 0.23522,-0.0685 0.044,-0.0663 0.066,-0.0683 0.67289,-0.0627 0.70023,0.006 0.76764,0.0245 0.90177,0.24155 0.0782,0.12654 0.0877,0.30304 0.0178,0.32988 -0.0327,0.0125 -0.0484,0.0639 -0.0484,0.15823 0,0.12831 0.007,0.14048 0.0887,0.14987 l 0.0887,0.0102 0.16338,1.01676 c 0.0898,0.55921 0.18006,1.06759 0.20045,1.12973 0.0623,0.18971 0.3053,1.68004 0.28839,1.7685 -0.0156,0.0815 0.18942,1.42678 0.35256,2.31379 0.0634,0.34473 0.0974,0.46118 0.14441,0.49407 0.0659,0.0462 0.0855,0.22837 0.0305,0.28339 -0.0198,0.0198 -0.002,0.19995 0.0484,0.4987 0.0436,0.25724 0.0794,0.47861 0.0794,0.49192 0,0.0133 -0.14676,0.0242 -0.32621,0.0242 -0.32188,0 -0.32605,8.8e-4 -0.30932,0.0726 0.009,0.0399 0.05,0.31473 0.0905,0.61063 l 0.0735,0.53801 0.21882,0.022 c 0.21638,0.0217 0.21904,0.0231 0.2389,0.12905 0.0196,0.10474 0.0244,0.10748 0.21874,0.12597 0.10926,0.0104 0.89568,0.037 1.7476,0.0592 1.43103,0.0372 1.54977,0.0446 1.55977,0.0968 0.0102,0.0531 -0.0779,0.0567 -1.46825,0.0595 -0.81349,0.002 -1.61707,0.0137 -1.78572,0.0266 -0.16865,0.013 -0.31773,0.0143 -0.33129,0.003 -0.0136,-0.0113 -0.0891,-0.006 -0.1678,0.0126 l -0.14315,0.0332 0.006,0.16251 0.006,0.1625 -0.1855,0.0968 c -0.10204,0.0533 -0.18555,0.10467 -0.1856,0.11424 0,0.01 0.11974,0.0681 0.2662,0.13003 0.20778,0.0879 0.26856,0.12837 0.27661,0.18433 0.006,0.0394 0.0224,0.0717 0.0371,0.0717 0.0148,0 0.11388,0.0654 0.22026,0.14539 0.14179,0.10659 0.23492,0.15109 0.3489,0.16671 0.10226,0.014 0.18283,0.0487 0.23539,0.10122 l 0.0799,0.0799 -0.0743,0.0602 -0.0743,0.0601 0.13563,0.20819 c 0.0746,0.1145 0.17609,0.31216 0.22554,0.43925 0.0495,0.12709 0.10818,0.24237 0.13051,0.25617 0.0915,0.0566 0.0756,1.22651 -0.0168,1.22651 -0.0236,0 -0.0605,0.0545 -0.082,0.12104 -0.0564,0.17429 -0.14876,0.35213 -0.29596,0.56968 -0.11154,0.16483 -0.12187,0.19431 -0.0769,0.21947 0.0286,0.016 0.052,0.0629 0.052,0.10425 0,0.084 -0.0876,0.12991 -0.31352,0.16437 -0.0789,0.0121 -0.19407,0.0649 -0.27437,0.12597 -0.0761,0.0579 -0.17174,0.12294 -0.21254,0.14458 -0.0408,0.0217 -0.0867,0.0723 -0.10201,0.1126 -0.0178,0.0467 -0.0845,0.0947 -0.18405,0.13254 -0.0859,0.0326 -0.2057,0.0798 -0.26618,0.10486 l -0.10997,0.0456 0.19066,0.1064 0.19067,0.1064 -0.007,0.21039 c -0.006,0.18499 8.8e-4,0.2124 0.0565,0.22695 0.0417,0.0109 0.0633,0.0442 0.0633,0.0977 0,0.0636 -0.0206,0.0857 -0.095,0.10201 -0.0777,0.0171 -0.0968,0.0395 -0.1049,0.1236 -0.006,0.0603 0.02,0.16167 0.0627,0.24541 0.0399,0.0785 0.0726,0.18795 0.0726,0.24333 0,0.12685 -0.0987,0.32317 -0.20409,0.4061 -0.0536,0.0421 -0.088,0.10972 -0.10209,0.20059 -0.0117,0.0754 -0.0283,0.16194 -0.0369,0.19235 -0.0138,0.0491 0.02,0.0563 0.30093,0.0646 l 0.31651,0.009 -0.01,0.12911 c -0.005,0.071 -0.1098,0.63749 -0.232,1.25884 -0.30802,1.56613 -0.48199,2.55595 -0.47937,2.72748 0.002,0.15581 -0.27378,1.6448 -0.32819,1.7696 -0.018,0.0412 -0.10627,0.477 -0.19619,0.96833 -0.15833,0.86518 -0.16315,0.90911 -0.15293,1.39365 l 0.0106,0.50031 -0.10491,0.0101 c -0.0618,0.006 -0.1049,0.0281 -0.1049,0.0539 0,0.0834 0.0395,0.14585 0.0922,0.14607 0.0603,2.4e-4 0.18135,0.16882 0.20969,0.2921 l 0.019,0.0825 0.97736,0.006 c 1.00879,0.006 1.47767,0.029 1.47767,0.0714 0,0.0134 -0.0339,0.0466 -0.0753,0.0738 -0.063,0.0413 -0.24378,0.0505 -1.10552,0.0565 -0.5666,0.004 -1.05657,-0.004 -1.08884,-0.0177 -0.0805,-0.034 -0.20293,0.0376 -0.27583,0.16112 -0.14549,0.24659 -0.59126,0.35214 -0.823,0.19488 z m -0.0207,-1.05753 c 0,-0.0599 -0.004,-0.0591 -0.0616,0.0119 -0.0339,0.0418 -0.0544,0.0877 -0.0455,0.10198 0.026,0.0421 0.10711,-0.0441 0.10711,-0.11384 z m -1.22656,-8.96418 c 0,-0.0642 -0.2857,-0.2275 -0.39806,-0.2275 -0.0959,0 -0.11703,0.0142 -0.14633,0.0983 -0.0257,0.0739 -0.0245,0.10156 0.005,0.11139 0.14314,0.0478 0.53949,0.0609 0.53949,0.0178 z m -0.0593,-9.26869 c 0.0859,-0.0551 0.15615,-0.11321 0.15615,-0.12911 0,-0.0159 -0.13073,-0.0289 -0.2905,-0.0289 -0.15978,0 -0.29051,0.0124 -0.29051,0.0275 0,0.0151 0.016,0.0732 0.0354,0.12911 0.0294,0.0842 0.0524,0.10165 0.13435,0.10165 0.0556,0 0.16731,-0.0439 0.25507,-0.1002 z"
         style="fill:#000000;fill-opacity:1" />
    </g>
  </g>
</svg>
