<?xml version="1.0" encoding="UTF-8" standalone="no"?>
<!-- Created with Inkscape (http://www.inkscape.org/) -->

<svg
   xmlns:dc="http://purl.org/dc/elements/1.1/"
   xmlns:cc="http://creativecommons.org/ns#"
   xmlns:rdf="http://www.w3.org/1999/02/22-rdf-syntax-ns#"
   xmlns:svg="http://www.w3.org/2000/svg"
   xmlns="http://www.w3.org/2000/svg"
   xmlns:sodipodi="http://sodipodi.sourceforge.net/DTD/sodipodi-0.dtd"
   xmlns:inkscape="http://www.inkscape.org/namespaces/inkscape"
   width="237"
   height="41.54488"
   id="svg2"
   version="1.1"
   inkscape:version="0.48.5 r10040"
   sodipodi:docname="Retaliator.svg">
  <defs
     id="defs4" />
  <sodipodi:namedview
     id="base"
     pagecolor="#ffffff"
     bordercolor="#666666"
     borderopacity="1.0"
     inkscape:pageopacity="0.0"
     inkscape:pageshadow="2"
     inkscape:zoom="3.959798"
     inkscape:cx="165.28026"
     inkscape:cy="38.073203"
     inkscape:document-units="px"
     inkscape:current-layer="layer1"
     showgrid="false"
     fit-margin-top="0"
     fit-margin-left="0"
     fit-margin-right="0"
     fit-margin-bottom="0"
     inkscape:window-width="1920"
     inkscape:window-height="1018"
     inkscape:window-x="-8"
     inkscape:window-y="-8"
     inkscape:window-maximized="1" />
  <metadata
     id="metadata7">
    <rdf:RDF>
      <cc:Work
         rdf:about="">
        <dc:format>image/svg+xml</dc:format>
        <dc:type
           rdf:resource="http://purl.org/dc/dcmitype/StillImage" />
        <dc:title />
      </cc:Work>
    </rdf:RDF>
  </metadata>
  <g
     inkscape:label="Layer 1"
     inkscape:groupmode="layer"
     id="layer1"
     transform="translate(495.98228,-114.05589)">
    <g
       id="g3007"
       transform="matrix(0.12968104,0,0,0.12968104,-431.66278,135.4223)">
      <path
         style="fill:#000000"
         d="m 335.51922,155.05942 c -33.03576,-0.6216 -64.45171,-1.95695 -67.75,-2.87976 -0.1375,-0.0385 -0.25,-1.19495 -0.25,-2.56995 0,-2.2963 0.36667,-2.5 4.5,-2.5 2.475,0 4.5,-0.45 4.5,-1 0,-0.55 -1.935,-1 -4.3,-1 -2.365,0 -4.7275,-0.39933 -5.25,-0.88741 -0.5225,-0.48808 -11.75,-1.65302 -24.95,-2.58876 -13.2,-0.93574 -24.1875,-1.8864 -24.41667,-2.11259 -0.4723,-0.46616 5.33114,-0.67928 11.66667,-0.42845 6.18166,0.24475 5.21011,-1.63239 -1.2635,-2.44121 -3.03243,-0.37888 -5.25352,-1.10953 -4.93576,-1.62368 0.62475,-1.01087 -3.56691,-2.96796 -4.80074,-2.24147 -0.4125,0.24288 -0.75,-0.005 -0.75,-0.55099 0,-0.54593 1.2375,-1.13499 2.75,-1.30902 l 2.75,-0.31642 0,-11.75012 c 0,-6.46256 0.225,-11.7559 0.5,-11.76297 0.275,-0.007 6.125,-0.90118 13,-1.98691 6.875,-1.08573 15.3125,-1.9799 18.75,-1.98703 3.49135,-0.007 6.25,-0.45435 6.25,-1.01297 0,-0.59906 -3.95348,-1 -9.86043,-1 -20.00676,0 -26.73482,-2.743598 -7.88957,-3.217248 6.1875,-0.15551 10.575,-0.5567 9.75,-0.89154 -6.72309,-2.72862 -10.96043,-2.89121 -75.35113,-2.89121 l -66.70913,0 -6.12066,-2.57615 c -6.459331,-2.71869 -6.472821,-2.71912 -25.819081,-0.81525 l -6.5,0.63967 -4.60876,6.12586 -4.60876,6.125868 -7.89124,-0.12015 c -12.03511,-0.18325 -24.57815,-4.508948 -29.79744,-10.276208 -1.83573,-2.02845 -2.77396,-2.10364 -26.24879046,-2.10364 -18.80116954,0 -24.34849954,0.28465 -24.36031954,1.25 -0.0318,2.59478 -1.95433,-1.79821 -1.96938,-4.5 l -0.01531,-2.75 -9.25,-0.005 c -5.0875,-0.003 -13.6375,-0.29572 -19,-0.65083 -9.51136,-0.62984 -9.75,-0.593 -9.75,1.50518 0,1.57767 -0.61291,2.15082 -2.3,2.15082 -1.265,0 -2.78812,0.48812 -3.38472,1.08472 -1.39628,1.39628 -7.92717,1.41996 -28.31528,0.10268 -19.399699,-1.25341 -21.999999,-1.75416 -21.999999,-4.23659 0,-2.48213 -1.26192,-2.70704 -19,-3.38637 l -15.5,-0.59361 -15.61659,-7.64415 -15.61659,-7.64416 -5.38341,1.74969 c -2.96088,0.96233 -27.3506,12.98719 -54.19938,26.72191 -37.97051,19.424118 -50.07879,25.179058 -54.5,25.903248 -6.25649,1.02482 -20.08719,1.05953 -30.17797,0.0757 l -6.49394,-0.63312 -4.57561,-8 c -21.7671,-38.057618 -27.22987,-48.635218 -25.83689,-50.028198 0.77381,-0.7738 10.11619,-5.70331 20.76086,-10.95447 24.50436,-12.08833 24.57691,-12.10198 79.4385,-14.94501 14.18944,-0.73532 26.04669,-1.58466 26.34944,-1.8874 0.30275,-0.30275 -1.68015,-1.68078 -4.40643,-3.06229 -2.72628,-1.38152 -6.37192,-3.70252 -8.10142,-5.1578 l -3.14454,-2.64596 -57.24801,0.68863 c -31.48641,0.37875 -58.59802,0.8456 -60.24802,1.03745 -1.65,0.19185 -21.9,0.37501 -45,0.40703 -37.49702,0.052 -55.7877,-0.62752 -69.29954,-2.57441 -4.32927,-0.6238 -7.66752,-2.81283 -6.69334,-4.38909 0.28903,-0.46766 0.067,-1.13369 -0.49351,-1.48007 -0.66893,-0.41342 -0.68663,-1.25087 -0.0515,-2.43762 0.53213,-0.9943 0.74748,-2.02787 0.47854,-2.29681 -1.12056,-1.12056 2.73184,-2.9074198 8.2044,-3.8054498 8.18234,-1.34271 40.63578,-2.73586 81.85495,-3.51385 19.25,-0.36333 35.14498,-0.79675 35.32219,-0.96316 0.1772,-0.16641 -0.80246,-2.0841 -2.17702,-4.26154997 -2.48976,-3.94405003 -2.52871,-3.96128003 -10.32218,-4.56845003 -4.30265,-0.3352 -19.97299,-0.90906 -34.82299,-1.27524 -14.85,-0.36617 -31.05,-1.16538 -36,-1.77602 l -9,-1.11026 -0.31336,-3.2500002 c -0.29741,-3.08458 -0.14217,-3.25 3.05,-3.25 1.84985,0 3.79086,-0.42072 4.31336,-0.93493 1.51926,-1.49516 69.39024,-14.82431 86.88558,-17.06342 8.76458,-1.12172 16.11099,-2.21489 16.32537,-2.42926 0.52839,-0.52851 1.68315,-0.20861 -41.76095,-11.56916 -46.01509,-12.03286 -44.66216,-11.62502 -48.78777,-14.70681 -3.40177,-2.5411 -8.21223,-9.29578 -8.21223,-11.53134 0,-1.71449 69.72646,-75.055822 72.29321,-76.041152 3.69014,-1.41658 41.67509,-2.04565 51.30637,-0.84968 l 9.09959,1.12994 79.90041,42.63748 79.90042,42.637482 7.5,-1.23066 c 4.125,-0.67686 8.85,-1.83086 10.5,-2.56444 2.60563,-1.15845 15.04478,-2.64906 32,-3.83462 2.75,-0.19229 15.574999,1.03287 28.499999,2.72257 26.64627,3.48351 25.60059,3.47655 82.4999995,0.54902 34.8334605,-1.79222 40.1555205,-2.27524 41.2040405,-3.73959 3.70916,-5.18017 4.38034,-5.43265 12.79596,-4.81349 4.4,0.32372 10.84791,1.49689 14.32869,2.60702 6.19519,1.97587 6.88598,1.98743 32.749261,0.54836 14.53132,-0.80854 34.63342,-1.76767 44.67132,-2.1314 l 18.25073,-0.66132 16.5,4.28871 c 9.075,2.35879 20.325,4.65937 25,5.1124 4.675,0.45304 30.325,1.04844 57,1.3231 44.8622,0.46194 54.12547,0.23796 123.5,-2.98617 142.804,-6.63672 152.3747,-7.21947 156.7364,-9.54353 0.9551,-0.50888 4.006,-0.92523 6.7799,-0.92523 2.7739,0 28.9926,-2.90247 58.2636,-6.44992 29.2711,-3.54746 56.1451,-6.75397 59.7201,-7.12557 3.575,-0.3716 10.4766,-2.2132 15.3369,-4.09244 4.8603,-1.87923 10.9882,-3.824782 13.6176,-4.323442 2.6294,-0.49866 9.2278,-2.02267 14.6631,-3.38669 24.7265,-6.20525 51.9043,-10.61489 80.8824,-13.12332 9.9,-0.85697 20.925,-1.93767 24.5,-2.40157 l 6.5,-0.84344 -6.5,-0.25403 c -3.575,-0.13971 -11.45,-0.5701 -17.5,-0.95641 l -11,-0.70239 10,-0.19887 c 5.5,-0.10939 18.1644,-0.82332 28.1431,-1.58653 12.5624,-0.96082 21.1749,-1.11683 28,-0.50719 5.4213,0.48426 23.4694,0.89651 40.1069,0.91614 l 30.25,0.0357 0.1184,-2.25 c 0.065,-1.2375 0.065,-2.5875 0,-3 -0.065,-0.4125 1.2316,-0.75 2.8816,-0.75 2.6237,0 3,-0.3535 3,-2.8185 0,-1.55017 -0.6924,-5.15017 -1.5387,-8 l -1.5388,-5.1815 -4.9612,0 c -4.6254,0 -4.9613,-0.16927 -4.9613,-2.5 0,-2.35908 0.3054,-2.5 5.4184,-2.5 5.1139,0 5.5401,-0.19677 7.5816,-3.5 1.1897,-1.925 2.5764,-3.5 3.0816,-3.5 0.5051,0 0.9184,-0.64948 0.9184,-1.4433 0,-4.67033 9.751,-5.81734 22.2591,-2.61831 8.9003,2.27632 14.3078,4.86733 17.6652,8.46429 l 2.4243,2.59732 24.12568,0 c 17.4311,0 24.4587,-0.33299 25.3257,-1.2 0.9333,-0.93333 1.1825,-0.1 1.1211,3.75 -0.043,2.7225 -0.306,4.3875 -0.5834,3.7 -0.3824,-0.94782 -5.9234,-1.25 -22.921,-1.25 -12.32918,0 -22.41668,0.24293 -22.41668,0.53984 0,1.39389 4.1432,8.44346 5.3815,9.15653 0.7676,0.442 1.5586,1.67357 1.7579,2.73683 0.2895,1.54504 1.7676,2.17379 7.3614,3.1314 7.07398,1.21102 23.89538,7.36407 28.49918,10.42469 1.375,0.91409 5.875,2.16963 10,2.79008 15.5118,2.33318 44.6605,12.86326 47.7273,17.24166 0.906,1.293542 2.5314,1.978972 4.6929,1.978972 7.4067,0 14.6757,2.40197 31.9426,10.55509 9.9755,4.71024 18.2872,8.98726 18.4705,9.50449 0.1834,0.51723 1.0154,0.94042 1.8489,0.94042 0.8335,0 2.9335,0.63158 4.6667,1.4035 1.7331,0.77193 9.9011,2.37697 18.1511,3.56677 8.25,1.18979 17.25,2.82093 20,3.62475 23.6975,6.9267 23.1308,6.71016 36,13.75589 15.608,8.54519 45.3017,28.89158 59,40.4273 3.4174,2.87788 4.5826,3.30506 8,2.93288 4.3651,-0.4754 16.9051,2.4724402 22.5,5.2891802 1.925,0.96914 5.854,2.0816 8.7311,2.47214 2.8772,0.39054 6.3231,1.56902 7.6578,2.61883 1.3346,1.04982003 2.9181,1.90876003 3.5188,1.90876003 2.4508,0 0.8262,2.85207997 -3.3212,5.83047997 -3.514,2.52359 -5.4081,3.16952 -9.2942,3.16952 -5.2863,0 -5.532,0.12985 -25.4237,13.4357798 -14.3867,9.62358 -24.7097,13.70327 -36.8686,14.57068 -11.449,0.81677 -38,5.07245 -38,6.09076 0,0.39984 1.7976,1.03069 3.9948,1.40189 2.1971,0.37121 4.2486,1.08576 4.559,1.5879 0.3177,0.51408 13.1002,0.93861 29.2552,0.97162 l 28.691,0.0586 -9.2016,4.64254 c -8.7874,4.43354 -9.2151,4.80172 -9.5,8.17832 l -0.2984,3.53577 -30.2003,16.34613 -30.2003,16.34613 -14.2997,0.17337 c -7.8648,0.0954 -14.7972,0.49439 -15.4053,0.88672 -1.7475,1.12745 -32.8162,1.01646 -44.3944,-0.15859 -25.2594,-2.56354 -23,-2.10127 -23,-4.70573 0,-1.95768 0.5134,-2.36191 3,-2.36191 3.019,0 3.9597,-1.28882 1.8793,-2.57462 -1.017,-0.62851 -48.5385,-4.31712 -56.8793,-4.41495 -6.7052,-0.0787 -0.8225,-1.97451 6.5,-2.0948 5.0439,-0.0829 6.3014,-0.33872 4.5,-0.91563 -1.375,-0.44035 -3.85,-0.8447 -5.5,-0.89855 -2.9401,-0.096 -3,-0.2028 -3,-5.34968 l 0,-5.25177 -20.25,-0.27071 -20.25,-0.2707 0,-5.4793 c 0,-3.1328 -0.4462,-5.47929 -1.0418,-5.47929 -2.4601,0 -4.8324,-3.69764 -5.139,-8.00983 l -0.3192,-4.49015 -13.46988,0.35834 c -7.4084,0.19709 -14.5252,0.75959 -15.8151,1.25 -1.2898,0.49041 -6.1409,0.89166 -10.7801,0.89166 -4.9566,0 -8.4349,0.41237 -8.4349,1 0,0.5641 -2.8333,1 -6.5,1 -3.6667,0 -6.5,-0.4359 -6.5,-1 0,-0.659 -29.647,-1 -86.941,-1 -56.8819,0 -87.1546,0.34574 -87.559,1 -0.7795,1.26118 -11.7725,1.32046 -13.05,0.0704 -1.7188,-1.68197 -18.1353,-2.19704 -84.7,-2.65748 -58.8279,-0.40693 -65.75,-0.29214 -65.75,1.09034 0,2.62321 -72.8185,1.20406 -105.855,-2.063 -6.0693,-0.6002 -6.5638,-0.4781 -11,2.71566 l -4.645,3.34411 -19.0404,0 -19.04049,0 -4.10346,-3.25 -4.10346,-3.25 -24.38291,0 -24.38292,0 -6.94636,7 c -6.85179,6.9047 -7.0182,7 -12.22318,7 -4.02384,0 -5.27682,0.35617 -5.27682,1.5 0,1.28383 -2.91111,1.5 -20.2,1.5 -11.29177,0 -19.78105,0.37793 -19.25,0.85699 0.5225,0.47134 13.06514,5.98384 27.87252,12.25 24.55253,10.39008 27.14943,11.71978 29.5,15.10506 l 2.57748,3.71205 28.5,0.0976 c 15.99334,0.0548 30.69415,0.5659 33.5,1.16481 2.75,0.58698 17.9786,1.34766 33.8414,1.69039 l 28.8413,0.62314 -5.5913,2.73913 c -3.0753,1.506528 -5.5922,3.081528 -5.5932,3.499998 -0.001,0.41848 2.8115,0.64936 6.25,0.51306 l 6.2518,-0.24781 -10.2018,5.20141 c -9.7062,4.94874 -10.2162,5.36775 -10.5,8.62611 -0.2957,3.39544 -0.5504,3.56256 -29.7982,19.54641 l -29.5,16.12162 -14.98778,0.32572 c -8.67586,0.18854 -15.25146,0.75235 -15.61389,1.33878 -0.90533,1.46486 -22.22699,1.701 -70.89833,0.78521 z"
         id="path3009"
         inkscape:connector-curvature="0" />
    </g>
  </g>
</svg>
