<?xml version="1.0" encoding="UTF-8" standalone="no"?>
<!-- Created with Inkscape (http://www.inkscape.org/) -->

<svg
   xmlns:dc="http://purl.org/dc/elements/1.1/"
   xmlns:cc="http://creativecommons.org/ns#"
   xmlns:rdf="http://www.w3.org/1999/02/22-rdf-syntax-ns#"
   xmlns:svg="http://www.w3.org/2000/svg"
   xmlns="http://www.w3.org/2000/svg"
   xmlns:sodipodi="http://sodipodi.sourceforge.net/DTD/sodipodi-0.dtd"
   xmlns:inkscape="http://www.inkscape.org/namespaces/inkscape"
   width="79.999992"
   height="18.443739"
   id="svg2999"
   version="1.1"
   inkscape:version="0.48.5 r10040"
   sodipodi:docname="300i.svg">
  <defs
     id="defs3001" />
  <sodipodi:namedview
     id="base"
     pagecolor="#ffffff"
     bordercolor="#666666"
     borderopacity="1.0"
     inkscape:pageopacity="0.0"
     inkscape:pageshadow="2"
     inkscape:zoom="11.2"
     inkscape:cx="33.452091"
     inkscape:cy="19.417189"
     inkscape:document-units="px"
     inkscape:current-layer="g3018"
     showgrid="false"
     fit-margin-top="0"
     fit-margin-left="0"
     fit-margin-right="0"
     fit-margin-bottom="0"
     inkscape:window-width="1920"
     inkscape:window-height="1018"
     inkscape:window-x="-8"
     inkscape:window-y="-8"
     inkscape:window-maximized="1" />
  <metadata
     id="metadata3004">
    <rdf:RDF>
      <cc:Work
         rdf:about="">
        <dc:format>image/svg+xml</dc:format>
        <dc:type
           rdf:resource="http://purl.org/dc/dcmitype/StillImage" />
        <dc:title />
      </cc:Work>
    </rdf:RDF>
  </metadata>
  <g
     inkscape:label="Layer 1"
     inkscape:groupmode="layer"
     id="layer1"
     transform="translate(419.91538,-441.96282)">
    <g
       id="g3018">
      <path
         style="fill:#000000"
         d="m -381.7871,460.34138 c -0.14751,-0.048 -0.5976,-0.0737 -1.81045,-0.10309 -2.691,-0.0652 -6.1884,-0.22883 -8.44107,-0.39503 l -1.1993,-0.0885 -0.63296,-0.20704 -0.63296,-0.20703 -0.0131,-0.17755 c -0.0129,-0.17421 -0.0168,-0.17805 -0.20558,-0.20393 -0.15902,-0.0217 -2.57068,-0.10051 -5.29053,-0.17267 -0.53627,-0.0142 -0.58455,-0.0225 -0.64594,-0.1101 -0.0373,-0.0533 -0.11301,-0.0947 -0.17294,-0.0947 -0.0586,0 -0.1066,-0.0179 -0.1066,-0.0397 0,-0.0218 -0.11768,-0.18382 -0.26152,-0.35992 l -0.26154,-0.32017 -1.16719,-0.0342 c -0.64196,-0.0188 -4.0891,-0.0435 -7.66034,-0.0548 l -6.49314,-0.0206 -0.0493,-0.13059 -0.0493,-0.13059 c 0,0 -0.3346,0.0165 -0.49386,-0.0261 -0.68749,-0.18377 -2.54066,-1.003 -2.54066,-1.003 l 0.0131,-5.83413 c 0,0 1.92815,-1.04932 2.71035,-1.30772 0.30486,-0.10071 0.64088,-0.0403 0.96132,-0.0605 0.10263,-0.007 0.15417,-0.10502 0.15417,-0.1527 0,-0.0748 0.0766,-0.0791 1.396,-0.0791 0.88491,0 1.39602,-0.0157 1.39602,-0.0428 0,-0.0236 -0.0773,-0.16912 -0.17174,-0.32343 -0.45865,-0.74936 -2.90603,-5.04318 -3.09657,-5.43281 -0.22328,-0.45658 -0.22832,-0.49889 -0.0843,-0.707 0.0995,-0.14382 0.29026,-0.22086 0.84348,-0.34071 0.6175,-0.13377 1.26771,-0.17282 3.40344,-0.2044 1.69417,-0.0251 1.90546,-0.0204 2.18126,0.048 0.54923,0.13637 0.90258,0.40048 0.88486,0.66139 -0.0107,0.15873 -0.21903,-0.0171 2.3434,1.97833 0.93576,0.72869 2.41777,1.88585 3.29334,2.57149 l 1.59195,1.2466 0.74199,0.0218 0.74201,0.0218 0.0143,0.12528 c 0.008,0.0689 -0.007,0.14645 -0.0328,0.17232 -0.0259,0.0259 -0.047,0.0824 -0.047,0.12556 0,0.0719 0.0517,0.0785 0.61075,0.0785 l 0.61075,0 0,0.16103 c 0,0.14438 0.006,0.15286 0.0578,0.082 0.0689,-0.0943 0.47708,-0.12424 2.71112,-0.19903 0.79108,-0.0265 1.44874,-0.0639 1.46144,-0.0832 0.0434,-0.0658 0.87133,-0.31644 0.95635,-0.28946 0.0465,0.0148 0.0961,0.008 0.11012,-0.0145 0.0414,-0.067 0.46723,-0.11111 0.50364,-0.0522 0.0224,0.0363 0.50087,-0.0612 1.6992,-0.3465 1.40814,-0.33523 1.68955,-0.39023 1.80656,-0.35309 0.18839,0.0598 4.20748,0.0363 4.32663,-0.0253 0.38,-0.19641 1.3742,-0.19923 1.3742,-0.004 0,0.0422 0.086,0.052 0.349,0.0401 0.24146,-0.011 0.349,-5.2e-4 0.349,0.0339 0,0.0431 -0.61364,2.02747 -0.68221,2.20616 -0.0221,0.0575 0.17203,0.0655 1.59255,0.0655 l 1.61768,0 0.0609,0.11996 c 0.0335,0.066 0.0744,0.21323 0.091,0.3272 0.0166,0.11397 0.0363,0.20721 0.0438,0.20721 0.007,0 0.26953,-0.1062 0.58227,-0.236 1.6839,-0.69893 2.58925,-0.98366 3.41223,-1.07311 0.25194,-0.0274 0.57147,-0.0877 0.71007,-0.13412 0.35635,-0.11925 0.75237,-0.16611 1.05356,-0.12466 0.1422,0.0196 0.5152,0.0179 0.82888,-0.004 0.31367,-0.0217 0.60331,-0.04 0.64363,-0.0409 0.0422,-8.2e-4 0.0792,-0.0432 0.0872,-0.0997 0.0114,-0.0805 0.0415,-0.0982 0.16663,-0.0982 0.12512,0 0.1552,0.0177 0.16663,0.0982 0.0124,0.0875 0.0387,0.0982 0.24263,0.0982 0.20353,0 0.23936,-0.0144 0.32547,-0.13088 l 0.0968,-0.13088 0.52219,0 c 0.28722,0 0.5222,-0.005 0.52219,-0.0109 0,-0.006 -0.0294,-0.16478 -0.0654,-0.35284 -0.0983,-0.51367 -0.098,-0.51518 0.0982,-0.44895 0.13264,0.0448 0.21253,0.12688 0.42231,0.43397 l 0.25872,0.37872 1.12731,0 1.12732,0 0.0497,-0.10906 c 0.0629,-0.13793 -0.0391,-0.13795 2.63139,3.5e-4 1.15171,0.0596 2.12885,0.1085 2.17143,0.10857 0.0426,1e-4 0.0956,0.0479 0.11775,0.1062 0.0449,0.11811 0.12272,0.13501 0.79862,0.17347 0.28927,0.0165 0.41329,0.0433 0.5066,0.10977 0.068,0.0484 0.32748,0.18537 0.57671,0.30439 l 0.45316,0.21642 1.19969,0.16038 c 0.65984,0.0882 1.48435,0.17597 1.83226,0.19501 0.58432,0.032 0.67249,0.0485 1.15607,0.21742 0.46587,0.16269 0.64837,0.19901 1.65775,0.3299 1.78312,0.23122 2.40279,0.36967 3.71007,0.82892 1.28731,0.45225 2.06797,0.80783 2.88669,1.31485 0.17308,0.10719 0.33449,0.18267 0.35867,0.16772 0.0629,-0.0389 0.26425,0.10392 0.2661,0.18871 0.002,0.10383 0.6598,0.56239 0.85796,0.59833 0.26929,0.0489 0.48976,0.15013 0.46534,0.21377 -0.0146,0.0382 0.0553,0.0825 0.20999,0.13301 0.12758,0.0416 0.25401,0.0931 0.28095,0.11428 0.027,0.0213 0.28214,0.1247 0.56712,0.22996 0.28499,0.10526 1.61751,0.59694 2.96117,1.09262 1.34365,0.49568 2.49209,0.932 2.55207,0.96961 0.18768,0.11764 0.35379,0.29079 0.44025,0.45886 0.11285,0.21941 0.10816,0.2381 -0.0845,0.33637 l -0.16771,0.0856 -0.0267,0.53147 c -0.0147,0.29231 -0.0364,0.5411 -0.0481,0.55288 -0.0118,0.0117 -0.28255,0.0315 -0.60173,0.0438 -0.31917,0.0123 -0.60391,0.0412 -0.63276,0.064 -0.0289,0.0229 -0.0975,0.0271 -0.15268,0.009 -0.0967,-0.0311 -0.51828,-0.0295 -0.54992,0.002 -0.009,0.009 0.007,0.0585 0.0357,0.11113 0.0324,0.0605 0.036,0.11092 0.01,0.13719 -0.0228,0.0228 -0.27495,0.0501 -0.56026,0.0605 -2.33427,0.0858 -7.16639,0.38283 -7.28813,0.448 -0.10615,0.0568 -0.15032,0.0588 -1.1882,0.0537 l -0.75941,-0.004 -0.58849,-0.42024 -0.58849,-0.42023 -0.13535,0.0735 c -0.0744,0.0404 -0.44945,0.29776 -0.83335,0.57184 -0.6511,0.46481 -0.71194,0.49842 -0.90523,0.50006 -0.18982,0.002 -0.20722,0.0107 -0.20722,0.10765 0,0.0624 -0.0471,0.143 -0.11494,0.19631 -0.10681,0.084 -0.17165,0.0904 -0.91613,0.0904 l -0.80119,0 0,-0.1745 0,-0.1745 -0.19268,0 c -0.10596,0 -0.19976,0.0213 -0.20841,0.0472 -0.0108,0.0324 -0.73253,-0.0225 -2.30486,-0.17531 -1.25902,-0.12239 -3.35389,-0.30791 -4.65527,-0.41225 -1.30138,-0.10435 -2.39092,-0.21021 -2.42121,-0.23526 -0.0768,-0.0636 -0.77654,-0.12046 -0.81219,-0.066 -0.0155,0.0237 -0.12322,0.0557 -0.23949,0.0712 -0.18168,0.0243 -0.21429,0.0171 -0.23217,-0.0513 -0.0187,-0.0715 -0.12727,-0.087 -1.07557,-0.15396 -0.58012,-0.0409 -1.16422,-0.0857 -1.298,-0.0995 l -0.24323,-0.0251 -0.1494,0.23206 c -0.0822,0.12763 -0.16902,0.29173 -0.19302,0.36468 l -0.0436,0.13263 -1.02519,0.0948 c -1.25036,0.11567 -3.05689,0.24563 -5.05732,0.36384 -0.82603,0.0488 -1.52294,0.10589 -1.5487,0.12685 -0.0586,0.0476 -0.81028,0.0809 -0.81027,0.0358 1e-5,-0.0419 -0.62497,0.013 -0.65448,0.0574 -0.0121,0.0182 -0.14249,0.0643 -0.28986,0.10247 -0.33098,0.0858 -0.9691,0.0841 -1.23692,-0.003 z m 31.04941,-0.78649 c -0.0424,-0.0111 -0.10135,-0.0103 -0.13088,0.002 -0.0295,0.012 0.005,0.021 0.0772,0.0201 0.0719,-8.3e-4 0.0961,-0.0107 0.0537,-0.0217 z"
         id="path3020"
         inkscape:connector-curvature="0"
         sodipodi:nodetypes="ccscccscscsssccscccsccssssscscssccsscccccsscscccccccscscscscccsccsccccscsccscccccccccccscscscsssscccccccsccscccsccccccccccccscscscccsccsccccscccccscccccccccccc" />
    </g>
  </g>
</svg>
