<?xml version="1.0" encoding="UTF-8" standalone="no"?>
<svg
   xmlns:dc="http://purl.org/dc/elements/1.1/"
   xmlns:cc="http://creativecommons.org/ns#"
   xmlns:rdf="http://www.w3.org/1999/02/22-rdf-syntax-ns#"
   xmlns:svg="http://www.w3.org/2000/svg"
   xmlns="http://www.w3.org/2000/svg"
   version="1.1"
   id="svg2999"
   viewBox="0 0 23.000633 5.3039398"
   width="69.001899">
  <defs
     id="defs3001" />
  <metadata
     id="metadata3004">
    <rdf:RDF>
      <cc:Work
         rdf:about="">
        <dc:format>image/svg+xml</dc:format>
        <dc:type
           rdf:resource="http://purl.org/dc/dcmitype/StillImage" />
        <dc:title></dc:title>
      </cc:Work>
    </rdf:RDF>
  </metadata>
  <g
     transform="translate(419.91561,-455.10468)"
     id="layer1">
    <g
       id="g3018">
      <path
         id="path3020"
         d="m -408.9535,460.38782 c -0.0424,-0.0138 -0.17181,-0.0212 -0.5205,-0.0296 -0.77367,-0.0187 -1.77917,-0.0658 -2.42681,-0.11357 l -0.3448,-0.0254 -0.18198,-0.0595 -0.18197,-0.0595 -0.004,-0.051 c -0.004,-0.0501 -0.005,-0.0512 -0.0591,-0.0586 -0.0457,-0.006 -0.73907,-0.0289 -1.52103,-0.0496 -0.15418,-0.004 -0.16806,-0.006 -0.18571,-0.0317 -0.0107,-0.0153 -0.0325,-0.0272 -0.0497,-0.0272 -0.0168,0 -0.0306,-0.005 -0.0306,-0.0114 0,-0.006 -0.0338,-0.0529 -0.0752,-0.10348 l -0.0752,-0.092 -0.33556,-0.01 c -0.18457,-0.005 -1.17562,-0.0125 -2.20235,-0.0157 l -1.86678,-0.006 -0.0142,-0.0375 -0.0142,-0.0376 c 0,0 -0.0962,0.005 -0.14198,-0.007 -0.19765,-0.0528 -0.73044,-0.28836 -0.73044,-0.28836 l 0.004,-1.67731 c 0,0 0.55434,-0.30168 0.77922,-0.37597 0.0876,-0.029 0.18425,-0.0116 0.27638,-0.0174 0.0295,-0.002 0.0443,-0.0302 0.0443,-0.0439 0,-0.0215 0.022,-0.0227 0.40135,-0.0227 0.25441,0 0.40135,-0.005 0.40135,-0.0123 0,-0.007 -0.0222,-0.0486 -0.0494,-0.093 -0.13187,-0.21544 -0.83549,-1.44992 -0.89027,-1.56193 -0.0642,-0.13127 -0.0656,-0.14343 -0.0242,-0.20327 0.0286,-0.0413 0.0834,-0.0635 0.2425,-0.0979 0.17753,-0.0385 0.36446,-0.0497 0.97849,-0.0588 0.48707,-0.007 0.54782,-0.006 0.62711,0.0138 0.1579,0.0392 0.25949,0.11514 0.25439,0.19015 -0.003,0.0456 -0.063,-0.005 0.67373,0.56877 0.26903,0.2095 0.69511,0.54219 0.94684,0.73931 l 0.45768,0.3584 0.21333,0.006 0.21332,0.006 0.004,0.036 c 0.002,0.0198 -0.002,0.0421 -0.009,0.0495 -0.007,0.007 -0.0135,0.0237 -0.0135,0.0361 0,0.0207 0.0149,0.0226 0.17559,0.0226 l 0.17559,0 0,0.0463 c 0,0.0415 0.002,0.0439 0.0166,0.0236 0.0198,-0.0271 0.13716,-0.0357 0.77945,-0.0572 0.22743,-0.008 0.41651,-0.0184 0.42016,-0.0239 0.0125,-0.0189 0.25051,-0.091 0.27495,-0.0832 0.0134,0.004 0.0276,0.002 0.0317,-0.004 0.0119,-0.0193 0.13433,-0.0319 0.1448,-0.015 0.006,0.0104 0.144,-0.0176 0.48852,-0.0996 0.40484,-0.0964 0.48574,-0.11219 0.51938,-0.10151 0.0542,0.0172 1.20966,0.0104 1.24391,-0.007 0.10925,-0.0565 0.39508,-0.0573 0.39508,-0.001 0,0.0121 0.0247,0.0149 0.10034,0.0115 0.0694,-0.003 0.10034,-1.5e-4 0.10034,0.01 0,0.0124 -0.17642,0.5829 -0.19614,0.63427 -0.006,0.0165 0.0495,0.0188 0.45786,0.0188 l 0.46508,0 0.0175,0.0345 c 0.01,0.019 0.0214,0.0613 0.0262,0.0941 0.005,0.0328 0.0104,0.0596 0.0126,0.0596 0.002,0 0.0775,-0.0305 0.1674,-0.0679 0.48412,-0.20094 0.74441,-0.2828 0.98102,-0.30851 0.0724,-0.008 0.16429,-0.0252 0.20414,-0.0386 0.10245,-0.0343 0.21631,-0.0478 0.3029,-0.0358 0.0409,0.006 0.14812,0.005 0.2383,-0.001 0.0902,-0.006 0.17346,-0.0115 0.18505,-0.0118 0.0121,-2.4e-4 0.0228,-0.0124 0.0251,-0.0287 0.003,-0.0231 0.0119,-0.0282 0.0479,-0.0282 0.036,0 0.0446,0.005 0.0479,0.0282 0.004,0.0252 0.0111,0.0282 0.0698,0.0282 0.0585,0 0.0688,-0.004 0.0936,-0.0376 l 0.0278,-0.0376 0.15013,0 c 0.0826,0 0.15013,-0.001 0.15013,-0.003 0,-0.002 -0.008,-0.0474 -0.0188,-0.10145 -0.0283,-0.14768 -0.0282,-0.14811 0.0282,-0.12907 0.0381,0.0129 0.0611,0.0365 0.12141,0.12477 l 0.0744,0.10888 0.32411,0 0.3241,0 0.0143,-0.0314 c 0.0181,-0.0397 -0.0112,-0.0397 0.75652,10e-5 0.33112,0.0171 0.61205,0.0312 0.62429,0.0312 0.0122,3e-5 0.0275,0.0138 0.0338,0.0305 0.0129,0.034 0.0353,0.0388 0.22961,0.0499 0.0832,0.005 0.11882,0.0125 0.14564,0.0316 0.0196,0.0139 0.0942,0.0533 0.16581,0.0875 l 0.13028,0.0622 0.34491,0.0461 c 0.18971,0.0253 0.42675,0.0506 0.52678,0.0561 0.16799,0.009 0.19334,0.0139 0.33237,0.0625 0.13393,0.0468 0.1864,0.0572 0.4766,0.0949 0.51265,0.0665 0.6908,0.10628 1.06664,0.23831 0.37011,0.13002 0.59455,0.23225 0.82993,0.37802 0.0498,0.0308 0.0962,0.0525 0.10312,0.0482 0.0181,-0.0112 0.076,0.0299 0.0765,0.0543 5.7e-4,0.0299 0.18969,0.16169 0.24666,0.17202 0.0774,0.0141 0.14081,0.0432 0.13379,0.0615 -0.004,0.011 0.0159,0.0237 0.0604,0.0382 0.0367,0.012 0.073,0.0268 0.0808,0.0329 0.008,0.006 0.0811,0.0359 0.16305,0.0661 0.0819,0.0303 0.46503,0.17162 0.85134,0.31413 0.3863,0.14251 0.71647,0.26795 0.73372,0.27876 0.054,0.0338 0.10171,0.0836 0.12657,0.13192 0.0324,0.0631 0.0311,0.0685 -0.0243,0.0967 l -0.0482,0.0246 -0.008,0.1528 c -0.004,0.084 -0.0105,0.15556 -0.0138,0.15895 -0.003,0.003 -0.0812,0.009 -0.17299,0.0126 -0.0918,0.004 -0.17363,0.0118 -0.18192,0.0184 -0.008,0.007 -0.028,0.008 -0.0439,0.003 -0.0278,-0.009 -0.149,-0.008 -0.1581,5.8e-4 -0.003,0.003 0.002,0.0168 0.0103,0.0319 0.009,0.0174 0.0103,0.0319 0.003,0.0394 -0.007,0.007 -0.079,0.0144 -0.16108,0.0174 -0.6711,0.0247 -2.06033,0.11007 -2.09533,0.1288 -0.0305,0.0163 -0.0432,0.0169 -0.34161,0.0154 l -0.21833,-0.001 -0.16919,-0.12082 -0.16919,-0.12081 -0.0389,0.0211 c -0.0214,0.0116 -0.12921,0.0856 -0.23958,0.1644 -0.1872,0.13363 -0.20469,0.1433 -0.26026,0.14377 -0.0546,5.7e-4 -0.0596,0.003 -0.0596,0.031 0,0.0179 -0.0135,0.0411 -0.0331,0.0564 -0.0307,0.0242 -0.0494,0.026 -0.26339,0.026 l -0.23034,0 0,-0.0502 0,-0.0502 -0.0554,0 c -0.0305,0 -0.0574,0.006 -0.0599,0.0136 -0.003,0.009 -0.2106,-0.006 -0.66265,-0.0504 -0.36197,-0.0352 -0.96424,-0.0885 -1.33839,-0.11852 -0.37415,-0.03 -0.68739,-0.0604 -0.6961,-0.0676 -0.0221,-0.0183 -0.22325,-0.0346 -0.2335,-0.019 -0.004,0.007 -0.0354,0.016 -0.0689,0.0205 -0.0522,0.007 -0.0616,0.005 -0.0667,-0.0147 -0.005,-0.0206 -0.0366,-0.025 -0.30923,-0.0443 -0.16678,-0.0118 -0.33471,-0.0246 -0.37318,-0.0286 l -0.0699,-0.007 -0.043,0.0667 c -0.0236,0.0367 -0.0486,0.0839 -0.0555,0.10484 l -0.0125,0.0381 -0.29475,0.0273 c -0.35948,0.0333 -0.87885,0.0706 -1.45398,0.1046 -0.23748,0.014 -0.43784,0.0305 -0.44525,0.0365 -0.0169,0.0137 -0.23295,0.0233 -0.23295,0.0103 0,-0.012 -0.17968,0.004 -0.18816,0.0165 -0.003,0.005 -0.041,0.0185 -0.0833,0.0295 -0.0951,0.0247 -0.27861,0.0242 -0.35561,-8.7e-4 z m 8.92671,-0.22612 c -0.0122,-0.003 -0.0291,-0.003 -0.0376,5.8e-4 -0.008,0.003 10e-4,0.006 0.0222,0.006 0.0207,-2.4e-4 0.0276,-0.003 0.0154,-0.006 z"
         style="fill:#000000" />
    </g>
  </g>
</svg>
