<?xml version="1.0" encoding="UTF-8" standalone="no"?>
<svg
   xmlns:dc="http://purl.org/dc/elements/1.1/"
   xmlns:cc="http://creativecommons.org/ns#"
   xmlns:rdf="http://www.w3.org/1999/02/22-rdf-syntax-ns#"
   xmlns:svg="http://www.w3.org/2000/svg"
   xmlns="http://www.w3.org/2000/svg"
   version="1.1"
   id="svg2"
   viewBox="0 0 24.001654 4.3263397"
   width="72.004962">
  <defs
     id="defs4" />
  <metadata
     id="metadata7">
    <rdf:RDF>
      <cc:Work
         rdf:about="">
        <dc:format>image/svg+xml</dc:format>
        <dc:type
           rdf:resource="http://purl.org/dc/dcmitype/StillImage" />
        <dc:title></dc:title>
      </cc:Work>
    </rdf:RDF>
  </metadata>
  <g
     transform="translate(557.38635,-636.96321)"
     id="layer1">
    <g
       transform="translate(-1662.8571,542.85714)"
       id="g2996">
      <path
         id="path3002"
         d="m 1107.4259,98.297833 c -0.326,-0.09289 -0.4732,-0.140395 -0.484,-0.156236 -0.01,-0.01252 -0.028,-0.03504 -0.043,-0.05005 -0.062,-0.062 -0.063,-0.06153 0.616,-0.268454 0.3489,-0.10622 0.6365,-0.199869 0.6393,-0.20811 0.01,-0.01793 0,-0.0204 -0.232,-0.05417 -0.1942,-0.02884 -0.2531,-0.04804 -0.3083,-0.100408 -0.054,-0.05092 -0.071,-0.09159 -0.1948,-0.45814 -0.062,-0.183528 -0.1191,-0.340343 -0.1268,-0.348478 -0.01,-0.0081 -0.06,-0.0207 -0.1154,-0.02792 -0.059,-0.0076 -0.1096,-0.02147 -0.1211,-0.03299 -0.018,-0.01792 -0.015,-0.02172 0.026,-0.03898 0.025,-0.01051 0.049,-0.02794 0.053,-0.03872 0,-0.01078 0.039,-0.0398 0.078,-0.0645 0.039,-0.0247 0.073,-0.05019 0.077,-0.05666 0,-0.0065 0.039,-0.02969 0.078,-0.0516 0.039,-0.02191 0.071,-0.048 0.071,-0.05798 0,-0.01 -0.019,-0.04314 -0.042,-0.07369 -0.035,-0.04647 -0.074,-0.07218 -0.242,-0.157394 l -0.2004,-0.10185 -0.2898,0.01689 c -0.2814,0.01641 -0.3298,0.01484 -0.3298,-0.01072 0,-0.0185 0.066,-0.03528 0.2567,-0.06561 0.095,-0.01513 0.1834,-0.03036 0.1957,-0.03385 0.038,-0.01084 0.025,-0.03028 -0.022,-0.03028 -0.024,0 -0.053,-0.0035 -0.064,-0.0078 -0.025,-0.0097 -0.028,-0.0858 0,-0.106064 0.01,-0.0079 0.1207,-0.02924 0.2471,-0.04747 0.2131,-0.03074 0.2657,-0.04445 0.246,-0.06412 -0.011,-0.01105 -1.3458,-0.33341 -1.4563,-0.351723 -0.1039,-0.01722 -0.1802,-0.06045 -0.2395,-0.135764 -0.031,-0.03914 -0.034,-0.04937 -0.019,-0.06297 0.01,-0.0089 0.2705,-0.172899 0.5797,-0.36437 l 0.5622,-0.34813 0.1693,-0.03122 c 0.2428,-0.04475 0.4086,-0.06168 0.5481,-0.05596 0.067,0.0028 0.7543,-0.02839 1.5272,-0.06918 0.7729,-0.0408 1.4458,-0.07535 1.4952,-0.07678 0.088,-0.0026 0.1063,0.0035 0.9882,0.327713 0.7729,0.284205 0.9304,0.346504 1.1275,0.446263 l 0.2292,0.115943 0.06,-0.01571 c 0.033,-0.0086 0.099,-0.02944 0.147,-0.04621 0.1016,-0.03547 0.1739,-0.0387 0.229,-0.01024 0.036,0.01868 0.072,0.01761 0.455,-0.01385 l 0.4158,-0.03411 0.4075,0.0863 c 0.2829,0.05992 0.4329,0.08592 0.4909,0.08505 0.1299,-0.002 0.6462,-0.02913 0.6641,-0.03495 0.032,-0.01026 0.015,-0.03178 -0.05,-0.06456 -0.036,-0.01832 -0.061,-0.03768 -0.054,-0.04302 0.01,-0.0053 0.2335,-0.0044 0.5053,0.0022 0.4975,0.01194 1.8037,-0.0051 2.2088,-0.02882 0.214,-0.01253 0.2387,-0.0213 0.4631,-0.164552 0.069,-0.04366 0.1301,-0.07939 0.1371,-0.07939 0.01,0 0.059,0.02234 0.1153,0.04965 l 0.1026,0.04965 0.8256,0.0064 c 0.454,0.0035 0.9901,0.0017 1.1913,-0.0041 0.8665,-0.02496 1.4852,-0.04107 1.7005,-0.04426 0.1271,-0.0019 0.4084,-0.0077 0.6251,-0.01302 0.3353,-0.0082 0.3984,-0.0068 0.4235,0.0092 0.051,0.03235 0.1895,0.07113 0.3824,0.106994 0.1024,0.01902 0.1913,0.03941 0.1975,0.04532 0.01,0.006 -0.01,0.01574 -0.032,0.02199 -0.024,0.0062 -0.043,0.01953 -0.043,0.02964 0,0.0366 0.097,0.05269 0.3465,0.05767 0.4821,0.0096 0.4617,0.0045 1.2097,0.306703 0.079,0.03211 0.155,0.05839 0.1677,0.05839 0.013,0 0.095,0.02048 0.1828,0.04551 0.097,0.02771 0.1984,0.04763 0.259,0.05093 0.1206,0.0066 0.2773,0.06319 0.3003,0.108548 0.021,0.04199 0.1557,0.12268 0.3,0.180152 0.1975,0.07869 0.7703,0.331795 0.8339,0.36851 0.1496,0.08627 0.4257,0.277791 0.5027,0.348637 0.074,0.06848 0.094,0.07961 0.1476,0.08553 0.034,0.0037 0.094,0.01245 0.1339,0.01934 0.04,0.0069 0.207,0.01281 0.3721,0.01313 0.2989,5.79e-4 0.3002,4.97e-4 0.3227,-0.0291 0.052,-0.06873 0.062,-0.07329 0.1,-0.04922 0.016,0.0101 0.019,0.05199 0.019,0.246859 0,0.267734 -0.011,0.32453 -0.058,0.32453 -0.022,0 -0.037,-0.01102 -0.048,-0.03521 -0.01,-0.01937 -0.03,-0.03777 -0.045,-0.0409 -0.064,-0.0128 -0.2528,-0.0195 -0.2528,-0.009 0,0.0062 0.062,0.07455 0.138,0.15181 0.076,0.07726 0.1653,0.175589 0.1989,0.218516 l 0.061,0.07805 0,0.108747 c 0,0.07177 -0.01,0.113001 -0.016,0.121256 -0.02,0.01552 -0.2039,0.05061 -0.3241,0.06182 -0.069,0.0065 -0.134,0.02695 -0.2837,0.08986 l -0.1939,0.08147 -0.2425,0.01557 c -0.3412,0.0219 -1.6617,-0.0031 -1.7954,-0.03395 -0.049,-0.01142 -0.1123,-0.02067 -0.1397,-0.02055 -0.053,2.18e-4 -0.2929,-0.04098 -0.3597,-0.06173 -0.022,-0.0068 -0.089,-0.02708 -0.1487,-0.04515 -0.06,-0.01808 -0.3834,-0.117108 -0.7187,-0.220078 -0.3353,-0.102968 -0.6717,-0.201359 -0.7475,-0.218647 -0.076,-0.01729 -0.1705,-0.0427 -0.2105,-0.05647 -0.064,-0.02194 -0.1078,-0.02498 -0.3563,-0.02458 -0.2217,3.59e-4 -0.2906,0.0045 -0.3157,0.01879 -0.039,0.02222 -0.1233,0.02494 -0.136,0.0044 -0.01,-0.01118 -0.1816,-0.01237 -0.7034,-0.0048 -0.3818,0.0055 -0.7173,0.0114 -0.7456,0.013 -0.05,0.0028 -0.1875,0.06442 -0.2488,0.111495 -0.025,0.01927 -0.054,0.0235 -0.1624,0.0235 -0.1194,0 -0.1401,0.0037 -0.2193,0.03925 -0.048,0.02159 -0.1155,0.04526 -0.1497,0.05259 -0.034,0.0073 -0.064,0.01999 -0.066,0.02813 -0.021,0.08345 -0.026,0.08818 -0.1196,0.125296 -0.1151,0.04553 -0.2519,0.06155 -0.5176,0.06059 -0.1618,-5.8e-4 -0.2078,0.0033 -0.2409,0.02047 -0.052,0.02659 -0.2744,0.03147 -0.3043,0.0067 -0.015,-0.0121 -0.026,-0.01251 -0.048,-0.0017 -0.016,0.0079 -0.063,0.0203 -0.1056,0.0276 -0.042,0.0073 -0.097,0.0192 -0.1219,0.02647 -0.024,0.0073 -0.1218,0.01885 -0.2159,0.02575 -0.094,0.0069 -0.1817,0.01828 -0.1948,0.0253 -0.015,0.0078 -0.2098,0.01274 -0.5028,0.01271 l -0.4789,0 -0.1059,0.04763 c -0.058,0.0262 -0.1059,0.05481 -0.1059,0.06358 0,0.03165 -0.04,0.03633 -0.2333,0.02734 -0.2748,-0.01277 -1.5978,-0.03888 -2.1217,-0.04188 -0.24,-0.0014 -0.4826,-0.009 -0.5391,-0.01698 -0.056,-0.008 -0.2181,-0.02363 -0.3593,-0.03482 -0.1412,-0.01119 -0.31,-0.02927 -0.3751,-0.04018 -0.071,-0.01184 -0.1483,-0.01675 -0.1925,-0.01218 -0.094,0.0097 -0.4154,0.009 -0.4895,-0.001 -0.034,-0.0047 -0.072,-0.02107 -0.096,-0.04248 -0.022,-0.01919 -0.055,-0.03845 -0.073,-0.0428 -0.035,-0.0086 -0.4272,-0.04834 -0.7824,-0.07931 -0.1235,-0.01077 -0.2579,-0.02557 -0.2985,-0.03288 -0.07,-0.01265 -0.1842,0.0074 -2.331,0.410829 -1.2414,0.233268 -2.2736,0.423682 -2.2939,0.423142 -0.02,-5.52e-4 -0.2477,-0.06104 -0.5053,-0.134454 z"
         style="fill:#000000;fill-opacity:1" />
    </g>
  </g>
</svg>
