<?xml version="1.0" encoding="UTF-8" standalone="no"?>
<!-- Created with Inkscape (http://www.inkscape.org/) -->

<svg
   xmlns:dc="http://purl.org/dc/elements/1.1/"
   xmlns:cc="http://creativecommons.org/ns#"
   xmlns:rdf="http://www.w3.org/1999/02/22-rdf-syntax-ns#"
   xmlns:svg="http://www.w3.org/2000/svg"
   xmlns="http://www.w3.org/2000/svg"
   xmlns:sodipodi="http://sodipodi.sourceforge.net/DTD/sodipodi-0.dtd"
   xmlns:inkscape="http://www.inkscape.org/namespaces/inkscape"
   width="87.000168"
   height="15.682738"
   id="svg2"
   version="1.1"
   inkscape:version="0.48.5 r10040"
   sodipodi:docname="New document 1">
  <defs
     id="defs4" />
  <sodipodi:namedview
     id="base"
     pagecolor="#ffffff"
     bordercolor="#666666"
     borderopacity="1.0"
     inkscape:pageopacity="0.0"
     inkscape:pageshadow="2"
     inkscape:zoom="15.839192"
     inkscape:cx="48.50118"
     inkscape:cy="4.9323748"
     inkscape:document-units="px"
     inkscape:current-layer="g2996"
     showgrid="false"
     fit-margin-top="0"
     fit-margin-left="0"
     fit-margin-right="0"
     fit-margin-bottom="0"
     inkscape:window-width="1920"
     inkscape:window-height="1017"
     inkscape:window-x="-8"
     inkscape:window-y="-8"
     inkscape:window-maximized="1" />
  <metadata
     id="metadata7">
    <rdf:RDF>
      <cc:Work
         rdf:about="">
        <dc:format>image/svg+xml</dc:format>
        <dc:type
           rdf:resource="http://purl.org/dc/dcmitype/StillImage" />
        <dc:title></dc:title>
      </cc:Work>
    </rdf:RDF>
  </metadata>
  <g
     inkscape:label="Layer 1"
     inkscape:groupmode="layer"
     id="layer1"
     transform="translate(557.38901,-625.60675)">
    <g
       id="g2996"
       transform="translate(-1662.8571,542.85714)">
      <path
         style="fill:#000000;fill-opacity:1"
         d="m 1112.565,97.944735 c -1.1816,-0.336712 -1.7151,-0.508934 -1.7542,-0.566358 -0.031,-0.04538 -0.1011,-0.127033 -0.1559,-0.181443 -0.2265,-0.224742 -0.2303,-0.223058 2.233,-0.973148 1.2645,-0.385049 2.3073,-0.724529 2.3173,-0.754402 0.022,-0.06498 -0.017,-0.07395 -0.8409,-0.196358 -0.7039,-0.104553 -0.9175,-0.17413 -1.1175,-0.363979 -0.1945,-0.184597 -0.2572,-0.332008 -0.7064,-1.660761 -0.2248,-0.66529 -0.4317,-1.233746 -0.4597,-1.263238 -0.028,-0.02949 -0.2161,-0.07503 -0.418,-0.101198 -0.2129,-0.0276 -0.3973,-0.07782 -0.439,-0.119585 -0.065,-0.06498 -0.056,-0.07875 0.094,-0.141316 0.091,-0.03812 0.1781,-0.101287 0.1931,-0.140362 0.015,-0.03908 0.1418,-0.144289 0.2817,-0.23381 0.14,-0.08952 0.2663,-0.181946 0.2808,-0.205389 0.014,-0.02344 0.1415,-0.10761 0.2822,-0.187035 0.1408,-0.07943 0.2559,-0.174004 0.2559,-0.210181 0,-0.03617 -0.068,-0.156376 -0.1512,-0.267112 -0.1265,-0.168448 -0.2699,-0.261668 -0.8775,-0.570554 l -0.7264,-0.369208 -1.0504,0.06124 c -1.0203,0.05948 -1.1955,0.05379 -1.1955,-0.03887 0,-0.06705 0.2381,-0.127904 0.9304,-0.237835 0.3455,-0.05485 0.6648,-0.110066 0.7095,-0.122711 0.1392,-0.0393 0.089,-0.109763 -0.078,-0.109763 -0.087,0 -0.1921,-0.01271 -0.2326,-0.02824 -0.092,-0.03516 -0.1,-0.311026 -0.011,-0.384482 0.034,-0.02856 0.4374,-0.106 0.8956,-0.172087 0.7725,-0.111439 0.9632,-0.161131 0.8919,-0.232429 -0.04,-0.04005 -4.8784,-1.208614 -5.279,-1.274999 -0.3768,-0.06243 -0.6533,-0.21915 -0.8684,-0.492147 -0.1118,-0.141879 -0.1232,-0.178968 -0.07,-0.228274 0.035,-0.03238 0.9807,-0.626759 2.1016,-1.320843 l 2.0379,-1.261973 0.6139,-0.113174 c 0.8801,-0.162228 1.481,-0.223593 1.9867,-0.202857 0.2429,0.01 2.7342,-0.102897 5.5361,-0.250792 2.8019,-0.147894 5.2409,-0.27315 5.42,-0.278342 0.3197,-0.0093 0.3854,0.01253 3.5823,1.187962 2.802,1.030247 3.3726,1.256082 4.0873,1.617707 l 0.8307,0.420296 0.2161,-0.05696 c 0.1189,-0.03133 0.3587,-0.106712 0.533,-0.167519 0.3684,-0.128577 0.6305,-0.140301 0.83,-0.03713 0.131,0.06772 0.2592,0.06382 1.6495,-0.05021 l 1.5074,-0.123646 1.477,0.312849 c 1.0255,0.217225 1.5694,0.311454 1.7794,0.308295 0.4709,-0.0071 2.3426,-0.1056 2.4076,-0.126712 0.1144,-0.03718 0.054,-0.115203 -0.1801,-0.234038 -0.1311,-0.06641 -0.2201,-0.13659 -0.1978,-0.155957 0.022,-0.01937 0.8466,-0.01588 1.8318,0.0078 1.8034,0.04327 6.5383,-0.01853 8.0069,-0.104492 0.7758,-0.04541 0.8652,-0.0772 1.6789,-0.596501 0.248,-0.158274 0.4716,-0.287773 0.4967,-0.287773 0.025,0 0.2133,0.08099 0.418,0.179987 l 0.3721,0.179987 2.9927,0.02329 c 1.6459,0.01281 3.5892,0.0061 4.3185,-0.01491 3.1409,-0.09048 5.384,-0.148867 6.1644,-0.160447 0.4606,-0.0068 1.4802,-0.02808 2.2658,-0.0472 1.2155,-0.0296 1.4443,-0.02464 1.5353,0.03322 0.1844,0.117286 0.6869,0.257867 1.3863,0.387855 0.371,0.06895 0.6932,0.142874 0.7158,0.164271 0.023,0.02159 -0.029,0.05707 -0.1163,0.07972 -0.087,0.02247 -0.1575,0.07079 -0.1575,0.107447 0,0.132667 0.3504,0.190989 1.2561,0.209064 1.7476,0.03488 1.6739,0.01619 4.3854,1.111802 0.2881,0.116417 0.5616,0.211665 0.6078,0.211665 0.046,0 0.3443,0.07424 0.6625,0.164983 0.3523,0.100459 0.7195,0.172659 0.9389,0.184606 0.4373,0.02382 1.0053,0.229074 1.0889,0.393489 0.077,0.152212 0.5644,0.444717 1.0873,0.653051 0.716,0.285256 2.7923,1.202761 3.023,1.335852 0.5421,0.312728 1.5431,1.006994 1.8221,1.26381 0.2697,0.248223 0.3394,0.288582 0.535,0.310034 0.1238,0.01357 0.3423,0.04512 0.4857,0.07012 0.1434,0.025 0.7503,0.04642 1.3487,0.04761 1.0837,0.0021 1.0883,0.0018 1.1699,-0.105493 0.1895,-0.249135 0.223,-0.265683 0.3611,-0.178423 0.058,0.03663 0.07,0.188472 0.069,0.894867 0,0.970537 -0.038,1.176424 -0.2096,1.176424 -0.078,0 -0.1329,-0.03994 -0.175,-0.127657 -0.034,-0.07021 -0.1072,-0.136924 -0.1634,-0.148248 -0.2304,-0.04639 -0.9165,-0.07068 -0.9165,-0.03245 0,0.02262 0.2251,0.270257 0.5002,0.550312 0.275,0.280055 0.5995,0.636511 0.7211,0.792124 l 0.221,0.282934 0,0.39421 c 0,0.260171 -0.02,0.409629 -0.058,0.439553 -0.072,0.05627 -0.7388,0.183443 -1.1747,0.22411 -0.2514,0.02345 -0.4859,0.09769 -1.0285,0.325727 l -0.7027,0.295347 -0.8791,0.05643 c -1.2369,0.0794 -6.0239,-0.01111 -6.5084,-0.123056 -0.1791,-0.04139 -0.407,-0.07492 -0.5065,-0.07451 -0.1915,7.9e-4 -1.0616,-0.14857 -1.3039,-0.223785 -0.079,-0.02451 -0.3215,-0.09816 -0.539,-0.163675 -0.2175,-0.06552 -1.3899,-0.424516 -2.6054,-0.797781 -1.2154,-0.373261 -2.4346,-0.729931 -2.7094,-0.792598 -0.2747,-0.06266 -0.6182,-0.154776 -0.7633,-0.204686 -0.2311,-0.07953 -0.3908,-0.09055 -1.2916,-0.0891 -0.8034,0.0013 -1.0533,0.01617 -1.1442,0.06813 -0.1409,0.08056 -0.447,0.09042 -0.493,0.01588 -0.025,-0.04051 -0.6585,-0.04483 -2.55,-0.01735 -1.3841,0.02011 -2.6003,0.04131 -2.7027,0.04711 -0.1815,0.0103 -0.6796,0.233536 -0.9018,0.404171 -0.091,0.06986 -0.1971,0.0852 -0.5889,0.0852 -0.4328,0 -0.5077,0.0134 -0.795,0.142293 -0.1744,0.07826 -0.4186,0.164052 -0.5426,0.190641 -0.124,0.02659 -0.2316,0.07247 -0.2391,0.101957 -0.077,0.302497 -0.094,0.319642 -0.4337,0.454198 -0.4171,0.165043 -0.9131,0.223109 -1.8762,0.219657 -0.5866,-0.0021 -0.7534,0.01206 -0.8735,0.07421 -0.1864,0.09638 -0.9946,0.11409 -1.1029,0.02417 -0.053,-0.04387 -0.095,-0.04536 -0.1731,-0.0061 -0.057,0.02858 -0.2288,0.0736 -0.3825,0.100045 -0.1536,0.02644 -0.3525,0.06962 -0.4419,0.09595 -0.089,0.02633 -0.4416,0.06833 -0.7826,0.09333 -0.341,0.025 -0.6589,0.06628 -0.7065,0.09172 -0.053,0.0283 -0.7604,0.04619 -1.8225,0.04609 l -1.736,0 -0.3839,0.172664 c -0.2111,0.09496 -0.3838,0.198675 -0.3838,0.230474 0,0.114732 -0.1446,0.131681 -0.8457,0.09911 -0.9964,-0.04629 -5.792,-0.140943 -7.6914,-0.151816 -0.87,-0.005 -1.7493,-0.03268 -1.954,-0.06155 -0.2047,-0.02887 -0.7909,-0.08567 -1.3027,-0.126224 -0.5117,-0.04055 -1.1236,-0.106097 -1.3597,-0.145657 -0.2562,-0.04292 -0.5376,-0.06072 -0.6979,-0.04414 -0.3393,0.0351 -1.5055,0.03265 -1.7742,-0.0037 -0.1246,-0.01687 -0.2594,-0.07636 -0.349,-0.153976 -0.08,-0.06957 -0.199,-0.139399 -0.2639,-0.155166 -0.1289,-0.0313 -1.5487,-0.175222 -2.8362,-0.287498 -0.4478,-0.03905 -0.9349,-0.09269 -1.0824,-0.119204 -0.2551,-0.04585 -0.6675,0.02684 -8.4498,1.489256 -4.4999,0.845598 -8.2418,1.535853 -8.3154,1.533894 -0.074,-0.002 -0.898,-0.221286 -1.8318,-0.487397 z"
         id="path3002"
         inkscape:connector-curvature="0" />
    </g>
  </g>
</svg>
