<?xml version="1.0" encoding="UTF-8" standalone="no"?>
<svg
   xmlns:dc="http://purl.org/dc/elements/1.1/"
   xmlns:cc="http://creativecommons.org/ns#"
   xmlns:rdf="http://www.w3.org/1999/02/22-rdf-syntax-ns#"
   xmlns:svg="http://www.w3.org/2000/svg"
   xmlns="http://www.w3.org/2000/svg"
   id="svg8"
   version="1.1"
   viewBox="0 0 21.100008 22.224962"
   width="63.3">
  <defs
     id="defs2" />
  <metadata
     id="metadata5">
    <rdf:RDF>
      <cc:Work
         rdf:about="">
        <dc:format>image/svg+xml</dc:format>
        <dc:type
           rdf:resource="http://purl.org/dc/dcmitype/StillImage" />
        <dc:title></dc:title>
      </cc:Work>
    </rdf:RDF>
  </metadata>
  <g
     transform="translate(-97.494961,-145.95981)"
     id="layer1">
    <path
       id="path1143"
       d="m 104.69123,168.14854 c -0.0352,-0.019 -0.23029,-0.0964 -0.43355,-0.17198 -0.20327,-0.0755 -0.38081,-0.15272 -0.39455,-0.17151 -0.0137,-0.0188 -0.0315,-0.0775 -0.0394,-0.13043 l -0.0144,-0.0963 0.73699,-1.70816 0.73698,-1.70817 0.10746,-0.0802 0.10746,-0.0801 0.10913,-0.21263 c 0.11846,-0.23082 0.39172,-0.84058 0.83392,-1.86082 0.32439,-0.74844 0.5412,-1.23539 0.61493,-1.38115 l 0.0514,-0.10163 0.0953,-0.0143 0.0953,-0.0143 0.0894,-0.12179 c 0.0492,-0.067 0.0894,-0.13957 0.0894,-0.16132 v -0.0395 l 0.49141,-0.53601 c 0.27028,-0.2948 0.52645,-0.57333 0.56928,-0.61893 l 0.0779,-0.0829 -0.10843,-0.0904 c -0.0596,-0.0497 -0.14015,-0.1241 -0.17892,-0.16529 l -0.0705,-0.0749 v -0.05 c 0,-0.0275 -0.008,-0.05 -0.0173,-0.05 -0.009,0 -0.0582,-0.0392 -0.10808,-0.0872 l -0.0908,-0.0872 -0.31119,-0.11866 -0.3112,-0.11866 -0.18858,0.0638 -0.18859,0.0637 -0.12046,-0.181 -0.12045,-0.181 -0.19879,-0.0752 c -0.10934,-0.0414 -0.22807,-0.0821 -0.26386,-0.0906 -0.0358,-0.008 -0.0832,-0.0317 -0.1053,-0.0517 l -0.0403,-0.0363 -0.14409,-0.001 -0.14409,-0.001 -0.28695,-0.12636 -0.28695,-0.12635 -0.0559,-0.0733 c -0.0307,-0.0403 -0.0919,-0.0915 -0.13594,-0.1138 -0.044,-0.0223 -0.85591,-0.37736 -1.80417,-0.78905 -0.94825,-0.41168 -2.48042,-1.07686 -3.404817,-1.47818 -0.924398,-0.40132 -1.71653,-0.75331 -1.760294,-0.78219 -0.04376,-0.0289 -0.106009,-0.0872 -0.138321,-0.12954 -0.03231,-0.0424 -0.166212,-0.34284 -0.297554,-0.66772 l -0.238803,-0.5907 0.0245,-0.11828 c 0.01347,-0.0651 0.03703,-0.13082 0.05234,-0.14613 l 0.02784,-0.0278 0.194666,0.0315 c 0.107066,0.0173 0.321533,0.0568 0.476594,0.0878 0.341991,0.0683 4.487729,0.83104 4.944579,0.90975 0.17892,0.0308 0.3741,0.066 0.43373,0.0783 0.18118,0.0371 0.88891,0.16681 0.89289,0.1636 0.005,-0.004 -0.24522,-2.36264 -0.285,-2.68109 -0.0186,-0.14909 -0.0495,-0.35699 -0.0685,-0.46199 l -0.0347,-0.19091 -0.077,-0.11195 -0.077,-0.11195 -0.19085,-1.82244 c -0.10496,-1.00234 -0.18522,-1.84196 -0.17835,-1.86582 0.007,-0.0238 0.0267,-0.0742 0.0441,-0.11185 l 0.0316,-0.0685 0.0581,-0.022 c 0.032,-0.0121 0.15082,-0.0278 0.26414,-0.0349 l 0.20602,-0.0129 0.26596,-0.0897 c 0.14628,-0.0493 0.27081,-0.0848 0.27674,-0.0789 0.011,0.0111 0.19272,0.32119 1.82691,3.11875 2.01218,3.44465 2.06599,3.53361 2.39719,3.96297 0.13583,0.17609 0.2736,0.36079 0.30616,0.41043 l 0.0592,0.0903 -0.007,0.061 -0.007,0.061 -0.0434,0.0222 c -0.0239,0.0122 -0.055,0.0297 -0.0693,0.039 l -0.0259,0.0168 0.0855,0.18598 0.0855,0.18598 v 0.0725 c 0,0.0399 0.0103,0.0788 0.023,0.0867 l 0.023,0.0142 -0.0138,0.063 -0.0138,0.063 h 0.095 c 0.0522,0 0.10484,-0.01 0.1169,-0.0219 l 0.0219,-0.0219 0.26296,0.0306 c 0.27006,0.0315 0.31905,0.0446 0.29723,0.0799 -0.007,0.0112 0.004,0.0366 0.0236,0.0565 l 0.0362,0.0362 0.0357,-0.0213 0.0357,-0.0213 0.59639,0.0121 0.59638,0.0121 0.0794,-0.0184 0.0794,-0.0184 1.01218,0.0221 c 0.5567,0.0121 1.01765,0.0276 1.02434,0.0343 0.0102,0.0102 -0.0455,0.10191 -0.13322,0.2194 l -0.0198,0.0265 0.0473,0.0664 c 0.026,0.0365 0.0398,0.071 0.0306,0.0766 -0.009,0.006 -0.19232,0.0158 -0.40702,0.0226 -0.2147,0.007 -0.58878,0.0243 -0.83129,0.0388 l -0.44092,0.0263 0.0781,0.0401 c 0.043,0.022 0.46097,0.12676 0.92888,0.23269 0.4679,0.10593 0.95274,0.21849 1.07741,0.25013 0.36383,0.0923 1.06953,0.33059 1.42152,0.47994 0.41199,0.17481 1.30229,0.6194 1.29783,0.6481 -0.002,0.0119 -0.0336,0.031 -0.0705,0.0424 -0.0369,0.0114 -0.0671,0.0285 -0.0671,0.0379 0,0.009 -0.0365,0.0172 -0.0811,0.0172 h -0.0811 l 0.14073,0.0946 c 0.22245,0.14952 0.36042,0.28654 0.49646,0.49303 l 0.12628,0.1917 0.0705,0.21214 0.0705,0.21215 0.0113,0.21835 0.0113,0.21834 -0.0257,0.14764 c -0.0915,0.52534 -0.35891,0.93057 -0.78377,1.18763 l -0.11803,0.0714 v 0.0684 0.0684 l 0.0366,-0.0196 c 0.0499,-0.0267 0.0611,-0.0247 0.0611,0.0106 0,0.0166 -0.0171,0.0372 -0.0379,0.0457 l -0.0379,0.0155 0.13012,0.0383 c 0.0716,0.0211 0.27651,0.10761 0.45542,0.19233 l 0.3253,0.15405 0.56849,0.18745 0.56849,0.18745 0.0342,0.0522 c 0.0188,0.0287 0.0293,0.0602 0.0233,0.0699 -0.006,0.01 -0.14447,0.0237 -0.30768,0.0311 l -0.29674,0.0134 -0.0517,0.0486 -0.0517,0.0486 -0.22164,0.029 c -0.1219,0.016 -0.28508,0.0384 -0.36261,0.05 -0.23888,0.0355 -1.0983,0.0673 -1.46385,0.0542 -0.42081,-0.0151 -0.76987,-0.0472 -0.98346,-0.0905 l -0.15936,-0.0323 -0.41534,0.004 c -0.22843,0.002 -0.73095,0.003 -1.1167,0.001 -0.38575,-0.001 -0.71091,0.004 -0.72256,0.0107 -0.0117,0.007 -0.0163,0.0259 -0.0102,0.0416 l 0.0109,0.0285 -0.0366,0.0145 c -0.0201,0.008 -0.0951,0.0189 -0.16671,0.0241 -0.0716,0.005 -0.17707,0.0191 -0.23445,0.0307 l -0.10434,0.0211 -0.0406,-0.0217 c -0.0225,-0.012 -0.0621,-0.0217 -0.0881,-0.0217 h -0.0473 l 0.0119,0.0455 c 0.0153,0.0587 -0.003,0.10635 -0.0417,0.10635 -0.0166,0 -0.0302,0.0172 -0.0302,0.0383 0,0.0211 -0.0422,0.087 -0.0938,0.14639 -0.0516,0.0594 -0.12214,0.16054 -0.15676,0.22467 l -0.063,0.11662 -0.5101,0.49222 c -0.28057,0.27072 -1.30024,1.24782 -2.26594,2.17134 -0.9657,0.92351 -2.21466,2.12071 -2.77545,2.66044 -0.5608,0.53973 -1.02472,0.98093 -1.03093,0.98046 -0.006,-5e-4 -0.0401,-0.0165 -0.0753,-0.0355 z m -1.62448,-12.90406 0.13706,-0.0802 -0.14216,-0.0825 c -0.0782,-0.0454 -0.14632,-0.0825 -0.15141,-0.0825 -0.005,0 -0.009,0.0732 -0.009,0.16265 0,0.0894 0.007,0.16265 0.0144,0.16265 0.008,0 0.076,-0.0361 0.15141,-0.0802 z m -0.59949,-0.30059 v -0.18559 l -0.10846,0.0609 c -0.0597,0.0335 -0.12941,0.0767 -0.155,0.0959 l -0.0465,0.035 0.14958,0.0888 c 0.0823,0.0488 0.15202,0.0892 0.155,0.0897 0.003,4.9e-4 0.005,-0.0827 0.005,-0.18472 z m 0.34267,5.5e-4 c 0.004,-0.003 -0.0623,-0.0448 -0.14638,-0.0933 l -0.15291,-0.0882 v 0.17426 0.17426 l 0.14638,-0.081 c 0.0805,-0.0445 0.14932,-0.0833 0.15291,-0.0861 z m 0.41637,0.0891 v -0.0742 l -0.0551,-0.0655 -0.0551,-0.0655 -0.0751,0.0443 c -0.0413,0.0244 -0.0794,0.0513 -0.0847,0.0598 -0.007,0.0118 0.23724,0.17356 0.26453,0.17504 0.003,1.8e-4 0.005,-0.0331 0.005,-0.0739 z m -1.15749,-0.61335 c -0.005,-0.005 -0.11342,0.0512 -0.24047,0.12528 l -0.231,0.13476 0.23436,0.1368 0.23436,0.1368 0.006,-0.26208 c 0.003,-0.14415 0.002,-0.26635 -0.003,-0.27156 z m 0.35508,0.28641 c 0,-0.004 -0.0683,-0.0465 -0.15181,-0.0946 l -0.15181,-0.0875 v 0.18215 0.18214 l 0.15181,-0.0875 c 0.0835,-0.0481 0.15181,-0.0907 0.15181,-0.0946 z m 0.64977,0.0759 c -2.4e-4,-0.006 -0.0389,-0.0548 -0.0859,-0.10844 l -0.0855,-0.0976 -6.4e-4,0.15543 -6.5e-4,0.15543 0.0866,-0.047 c 0.0476,-0.0258 0.0864,-0.0519 0.0861,-0.0578 z m 0.14499,0.007 c -0.006,-0.006 -0.0214,-0.005 -0.0338,0.003 l -0.0227,0.014 0.0267,0.0432 0.0267,0.0432 0.007,-0.0461 c 0.004,-0.0253 0.002,-0.0511 -0.004,-0.0572 z m -0.38271,-0.0831 v -0.16309 l -0.11386,0.0662 c -0.0626,0.0364 -0.12849,0.0762 -0.14638,0.0885 l -0.0325,0.0222 0.0217,0.01 c 0.0119,0.005 0.0705,0.0389 0.13012,0.0743 0.0596,0.0354 0.11575,0.0645 0.1247,0.0647 0.009,1.8e-4 0.0163,-0.073 0.0163,-0.16272 z m 0.34698,0.0108 c 0,-0.01 -0.0439,-0.0421 -0.0976,-0.072 -0.0537,-0.03 -0.0976,-0.0507 -0.0976,-0.046 0,0.005 0.0298,0.0425 0.0663,0.0841 l 0.0663,0.0755 0.0313,-0.012 c 0.0172,-0.007 0.0313,-0.0199 0.0313,-0.0295 z m -1.98697,-0.12072 c 0.0552,-0.0309 0.0954,-0.0642 0.0893,-0.0742 -0.008,-0.0137 -0.19986,-0.12989 -0.21407,-0.12997 -0.002,-1e-5 0.004,0.24248 0.007,0.25484 0.003,0.0114 0.0205,0.004 0.11788,-0.0507 z m 1.24963,-0.11568 v -0.17182 l -0.14032,0.0797 c -0.0772,0.0438 -0.14061,0.0848 -0.14097,0.0912 -5.5e-4,0.01 0.25858,0.17156 0.27586,0.1725 0.003,1.3e-4 0.005,-0.077 0.005,-0.17151 z m 0.32512,0.0212 c 0.0389,-0.0236 0.0437,-0.0192 -0.12452,-0.11655 l -0.13554,-0.0785 v 0.17461 0.1746 l 0.11385,-0.0673 c 0.0626,-0.037 0.12841,-0.0761 0.14621,-0.0869 z m -1.75645,-0.001 v -0.10886 l -0.10812,0.0596 c -0.0595,0.0328 -0.10826,0.0656 -0.10844,0.073 -3.6e-4,0.0149 0.14722,0.0789 0.18945,0.0822 l 0.0271,0.002 z m -0.0693,-0.12574 0.0499,-0.0326 -0.11304,-0.0618 c -0.0622,-0.034 -0.11636,-0.0618 -0.12042,-0.0618 -0.004,0 -0.007,0.0588 -0.007,0.13067 v 0.13068 l 0.0705,-0.0363 c 0.0388,-0.02 0.093,-0.051 0.12042,-0.0689 z m 0.39464,-0.0261 c 0,-0.0716 -0.005,-0.13012 -0.0116,-0.13012 -0.006,0 -0.0612,0.0283 -0.12178,0.0629 l -0.11017,0.0629 0.0621,0.0382 c 0.0342,0.021 0.0817,0.0507 0.10552,0.0661 0.0698,0.0449 0.0759,0.0369 0.0759,-0.1 z m 0.52048,-0.11696 v -0.18202 l -0.0343,-0.0132 c -0.0189,-0.007 -0.0486,-0.0132 -0.066,-0.0132 -0.0483,0 -0.31362,0.15864 -0.29528,0.17658 0.0246,0.0241 0.36086,0.21344 0.37934,0.21362 0.009,7e-5 0.0163,-0.0817 0.0163,-0.18185 z m 0.41333,0.11153 c 0.0706,-0.0388 0.12844,-0.0776 0.12858,-0.0863 3.1e-4,-0.0181 -0.1599,-0.10643 -0.23287,-0.12839 l -0.0488,-0.0147 v 0.14993 c 0,0.0825 0.006,0.14994 0.0124,0.14994 0.007,0 0.0701,-0.0317 0.14071,-0.0705 z m -1.25911,-0.17789 v -0.13994 l -0.11661,0.0691 -0.11661,0.0691 0.11119,0.0691 c 0.0612,0.038 0.11362,0.0699 0.11661,0.0708 0.003,9.5e-4 0.005,-0.0613 0.005,-0.13822 z m 0.1859,0.062 c 0.0528,-0.0309 0.096,-0.0593 0.096,-0.063 0,-0.011 -0.19053,-0.11928 -0.20989,-0.11928 -0.01,0 -0.0178,0.0537 -0.0178,0.11928 0,0.0656 0.008,0.11928 0.0178,0.11928 0.01,0 0.061,-0.0253 0.11386,-0.0563 z m -0.77144,-0.18477 v -0.19768 l -0.0488,0.0319 c -0.0268,0.0175 -0.10551,0.0638 -0.17483,0.10291 l -0.12603,0.071 0.15856,0.0927 c 0.0872,0.051 0.16588,0.0936 0.17483,0.0948 0.009,0.001 0.0163,-0.0869 0.0163,-0.19562 z m 0.25737,0.10812 c 0.0851,-0.0493 0.15461,-0.0956 0.15453,-0.10301 -1.2e-4,-0.0101 -0.22256,-0.14176 -0.32503,-0.19238 -0.006,-0.003 -0.011,0.0824 -0.011,0.18976 0,0.10735 0.006,0.19518 0.0134,0.19518 0.007,0 0.083,-0.0403 0.16808,-0.0895 z m -0.821229,-0.0623 c 0,-0.009 -0.01464,-0.0227 -0.03253,-0.0295 l -0.03253,-0.0125 v 0.042 0.042 l 0.03253,-0.0125 c 0.01789,-0.007 0.03253,-0.0202 0.03253,-0.0295 z m 0.173489,0 c 0,-0.048 -0.0163,-0.0534 -0.06506,-0.0214 l -0.03253,0.0214 0.03253,0.0214 c 0.04875,0.032 0.06506,0.0267 0.06506,-0.0214 z m 1.30121,-0.0764 v -0.0981 l -0.0519,-0.0197 c -0.0285,-0.0109 -0.0851,-0.026 -0.12575,-0.0336 l -0.0739,-0.0139 -0.0504,0.0408 -0.0504,0.0408 0.14903,0.0887 c 0.082,0.0488 0.16122,0.0897 0.17613,0.0909 l 0.0271,0.002 z m 0.18274,0.0414 c 0.0558,-0.0312 0.0977,-0.0604 0.0932,-0.065 -0.005,-0.005 -0.0539,-0.022 -0.10957,-0.0388 l -0.10127,-0.0305 v 0.0955 c 0,0.0525 0.004,0.0955 0.008,0.0955 0.004,0 0.0538,-0.0255 0.10956,-0.0567 z m -1.614065,-0.0525 v -0.0441 l -0.04398,0.0235 c -0.04692,0.0251 -0.03912,0.0647 0.01273,0.0647 h 0.03125 z m 0.08046,0.0268 0.02623,-0.0167 -0.04252,-0.0265 -0.04251,-0.0265 v 0.0436 c 0,0.0462 0.01605,0.0534 0.05877,0.0262 z m 0.391135,-0.23722 c 0.004,-0.0104 -0.0256,-0.0349 -0.0646,-0.0544 -0.039,-0.0195 -0.11236,-0.061 -0.16305,-0.0922 l -0.0922,-0.0568 v 0.19807 0.19806 l 0.15674,-0.0869 c 0.0862,-0.0478 0.15958,-0.0955 0.16305,-0.10588 z m -0.688463,0.0255 v -0.12064 l -0.108953,0.0593 -0.108952,0.0593 0.10353,0.061 c 0.05694,0.0335 0.105972,0.0611 0.108953,0.0613 0.003,1.9e-4 0.0054,-0.0539 0.0054,-0.12026 z m 0.276615,0.002 c 0.003,-0.002 -0.04331,-0.0308 -0.103012,-0.0632 l -0.108543,-0.0591 v 0.1227 0.12269 l 0.103013,-0.0594 c 0.05666,-0.0327 0.1055,-0.0613 0.108542,-0.0636 z m 1.035428,0.0105 0.0134,-0.0217 h -0.0338 c -0.0186,0 -0.0338,0.01 -0.0338,0.0217 0,0.0119 0.009,0.0217 0.0204,0.0217 0.0112,0 0.0264,-0.01 0.0338,-0.0217 z m -1.434051,-0.12113 c 0.05518,-0.0308 0.100321,-0.0593 0.100321,-0.0632 0,-0.008 -0.1953,-0.11927 -0.208755,-0.11927 -0.0045,0 -0.0081,0.0537 -0.0081,0.11927 0,0.0656 0.0037,0.11928 0.0081,0.11928 0.0045,0 0.05326,-0.0252 0.108434,-0.0561 z m 0.425623,-0.0524 V 153.547 h -0.02255 c -0.03936,0 -0.199103,0.0892 -0.185,0.1033 0.0204,0.0204 0.172686,0.10919 0.191285,0.11153 0.0089,0.001 0.01627,-0.0467 0.01627,-0.10639 z M 99.4018,153.53215 c -0.0057,-0.006 -0.03029,3.3e-4 -0.05468,0.0134 l -0.04433,0.0237 0.0479,0.081 0.0479,0.081 0.0068,-0.0944 c 0.0037,-0.0519 0.0021,-0.0991 -0.0036,-0.10477 z m 0.441364,0.0149 0.05422,-0.0424 -0.03618,-4.7e-4 c -0.0199,-2.7e-4 -0.05162,-0.006 -0.07048,-0.0136 l -0.0343,-0.0132 v 0.0565 c 0,0.0673 0.01471,0.0695 0.08675,0.0132 z m -0.503394,-0.0475 0.02576,-0.0258 -0.05938,-0.0392 c -0.08381,-0.0553 -0.09803,-0.0491 -0.05938,0.0256 0.03677,0.0711 0.05394,0.0784 0.09299,0.0393 z m 0.05882,-0.10435 c -0.0074,-0.0119 -0.0299,-0.0215 -0.05007,-0.0214 l -0.03667,3.3e-4 0.03253,0.021 c 0.04247,0.0274 0.07118,0.0274 0.05422,0 z"
       style="fill:#000000;stroke-width:0.02168675" />
  </g>
</svg>
