<?xml version="1.0" encoding="UTF-8" standalone="no"?>
<!-- Created with Inkscape (http://www.inkscape.org/) -->

<svg
   xmlns:dc="http://purl.org/dc/elements/1.1/"
   xmlns:cc="http://creativecommons.org/ns#"
   xmlns:rdf="http://www.w3.org/1999/02/22-rdf-syntax-ns#"
   xmlns:svg="http://www.w3.org/2000/svg"
   xmlns="http://www.w3.org/2000/svg"
   xmlns:sodipodi="http://sodipodi.sourceforge.net/DTD/sodipodi-0.dtd"
   xmlns:inkscape="http://www.inkscape.org/namespaces/inkscape"
   width="103.00001"
   height="23.869036"
   id="svg2"
   version="1.1"
   inkscape:version="0.48.5 r10040"
   sodipodi:docname="Scythe.svg">
  <defs
     id="defs4" />
  <sodipodi:namedview
     id="base"
     pagecolor="#ffffff"
     bordercolor="#666666"
     borderopacity="1.0"
     inkscape:pageopacity="0.0"
     inkscape:pageshadow="2"
     inkscape:zoom="11.2"
     inkscape:cx="57.768682"
     inkscape:cy="18.535878"
     inkscape:document-units="px"
     inkscape:current-layer="layer1"
     showgrid="false"
     fit-margin-top="0"
     fit-margin-left="0"
     fit-margin-right="0"
     fit-margin-bottom="0"
     inkscape:window-width="1920"
     inkscape:window-height="1018"
     inkscape:window-x="-8"
     inkscape:window-y="-8"
     inkscape:window-maximized="1" />
  <metadata
     id="metadata7">
    <rdf:RDF>
      <cc:Work
         rdf:about="">
        <dc:format>image/svg+xml</dc:format>
        <dc:type
           rdf:resource="http://purl.org/dc/dcmitype/StillImage" />
        <dc:title />
      </cc:Work>
    </rdf:RDF>
  </metadata>
  <g
     inkscape:label="Layer 1"
     inkscape:groupmode="layer"
     id="layer1"
     transform="translate(892.99999,377.3506)">
    <g
       id="g2996"
       transform="matrix(0.05518351,0,0,0.05518351,-843.72112,-333.97521)">
      <path
         style="fill:#000000"
         d="m -89.2885,-354.30876 c -20.89779,-0.60435 -20.6694,-0.5211 -20.69607,-7.54335 l -0.0152,-4 -181.60438,0.29669 c -163.64997,0.26737 -181.84124,0.1415 -184.00012,-1.27305 -2.10647,-1.38022 -2.39573,-2.32761 -2.39573,-7.84669 0,-3.54874 0.52157,-6.79852 1.2,-7.47695 0.92143,-0.92143 32.39159,-1.2 135.56214,-1.2 l 134.36213,0 -3.25224,-4.52866 c -4.15028,-5.77917 -6.70359,-6.46433 -11.22842,-3.01308 -1.90843,1.45563 -3.71984,3.29801 -4.02536,4.09417 -0.75762,1.97434 -5.61825,1.90651 -5.61825,-0.0784 0,-2.86889 -7.35074,-11.57966 -10.27081,-12.17113 -1.52394,-0.30867 -3.013,-0.9531 -3.30902,-1.43206 -0.29601,-0.47896 -5.52929,-0.87084 -11.62952,-0.87084 -9.80566,0 -11.68445,-0.2902 -16.20842,-2.50357 -10.13492,-4.95855 -16.24359,-5.63803 -55.83223,-6.21033 l -36.75,-0.53126 0,-3.87742 c 0,-2.13258 0.24366,-3.87742 0.54147,-3.87742 0.29781,0 46.12753,-8.775 101.84381,-19.5 55.71628,-10.725 102.04762,-19.5 102.95852,-19.5 0.91091,0 1.6562,-0.45 1.6562,-1 0,-1.54449 -8.74601,-1.21352 -29.49737,1.11622 -18.23496,2.04723 -19.28587,2.06482 -26.18577,0.43816 -7.4582,-1.75827 -9.71652,-3.27344 -9.14944,-6.13863 0.19889,-1.00485 16.59122,-11.23941 40.77781,-25.45965 26.55932,-15.61526 40.71047,-24.49632 41.21778,-25.86771 0.4249,-1.14861 1.23704,-2.08839 1.80477,-2.08839 0.59494,0 1.03222,-2.54179 1.03222,-6 0,-5.88019 -0.0549,-5.99988 -2.75,-5.99421 -6.69405,0.0141 -14.7616,2.19196 -24.38223,6.58205 -10.99723,5.01826 -11.89145,5.69293 -11.34009,8.5559 0.19216,0.99781 -0.0729,2.07522 -0.58915,2.39425 -0.51619,0.31902 -0.93853,2.72505 -0.93853,5.34671 0,5.68461 -2.8705,9.1153 -7.62686,9.1153 -1.64888,0 -6.99997,1.35276 -11.8913,3.00614 -4.89133,1.65337 -12.96325,3.67531 -17.93759,4.49318 -9.52188,1.56558 -21.60489,5.00563 -22.5095,6.4085 -0.29411,0.45611 -6.71001,2.68242 -14.25756,4.94734 -7.54754,2.26493 -17.89754,5.75721 -23,7.76062 -14.29902,5.61433 -35.15683,15.80197 -37.49857,18.31554 -2.22154,2.38453 -6.27862,2.1647 -6.27862,-0.3402 0,-1.52251 -12.35483,-13.59112 -13.91345,-13.59112 -0.5976,0 -1.08655,-0.61029 -1.08655,-1.35619 0,-1.40577 16.26365,-8.98709 26,-12.11993 5.38237,-1.73187 8.57594,-3.52388 6.27997,-3.52388 -1.93048,0 -25.44805,6.93456 -32.77997,9.66574 -3.85,1.43414 -7.97205,3.48649 -9.16012,4.56077 -2.14403,1.93869 -2.17384,1.93825 -4,-0.0593 -1.01193,-1.1069 -3.5793,-4.27031 -5.70526,-7.02981 l -3.86538,-5.01727 -5.13462,2.04189 c -2.82404,1.12304 -6.22295,2.4637 -7.55312,2.97924 -1.33018,0.51555 -2.94081,1.65164 -3.57917,2.52466 -0.94118,1.28713 -1.57117,1.3676 -3.3315,0.4255 -1.19395,-0.63898 -2.17083,-1.72145 -2.17083,-2.40549 0,-0.68404 -2.83611,-4.05461 -6.30247,-7.49015 l -6.30246,-6.24645 -4.44754,1.55167 c -2.44614,0.85343 -4.97698,2.25564 -5.62409,3.11604 -1.30706,1.73786 -5.32344,1.04956 -5.32344,-0.9123 0,-0.63827 -3.47099,-4.65196 -7.71331,-8.91931 -4.8631,-4.89179 -7.35735,-8.10227 -6.75,-8.68829 1.51865,-1.46531 20.5842,-6.65977 36.46331,-9.93452 10.81976,-2.23136 19.7031,-3.28523 35,-4.15219 16.02543,-0.90825 25.06025,-2.01842 41.39252,-5.08614 11.49088,-2.15836 21.00338,-3.92429 21.13889,-3.92429 0.1355,0 0.18387,-0.7875 0.10748,-1.75 -0.0776,-0.97806 0.44957,-1.62736 1.19515,-1.47199 0.73373,0.15291 2.22889,-0.85959 3.32258,-2.25 1.0937,-1.3904 2.63088,-2.52801 3.41596,-2.52801 0.78508,0 1.42742,-0.45 1.42742,-1 0,-0.55 -0.417,-1 -0.92668,-1 -0.50967,0 -1.07565,-0.77358 -1.25773,-1.71907 -0.41256,-2.14222 -13.66471,-4.42763 -18.31559,-3.15863 -2.5486,0.69539 -48.44745,8.8777 -49.79964,8.8777 -0.2569,0 -0.71248,-0.93834 -1.01239,-2.0852 -0.52664,-2.01386 -0.89842,-2.05663 -10.86663,-1.25 -5.67674,0.45936 -18.81078,0.8352 -29.18675,0.8352 l -18.86542,0 -2.81622,-8.29802 c -3.21142,-9.46245 -7.22637,-16.97445 -13.85017,-25.91379 -4.05775,-5.47625 -5.07643,-6.26995 -8.60278,-6.7028 -2.2,-0.27004 -41.8,-1.87196 -88,-3.55981 -85.09484,-3.10881 -106.60459,-4.25038 -115.86812,-6.14937 -14.81096,-3.0362 -24.8415,-7.48779 -38.0938,-16.90617 -4.62014,-3.28352 -9.06876,-5.97004 -9.88583,-5.97004 -0.81707,0 -1.64427,-0.47607 -1.83823,-1.05794 -0.19395,-0.58186 -5.51895,-2.23713 -11.83333,-3.67837 -11.74315,-2.68035 -16.91087,-2.92986 -42.98069,-2.07515 l -9.5,0.31146 -0.31037,3.75 -0.31036,3.75 -5.43964,0 -5.43963,0 0,-4.62921 0,-4.62921 -7.07583,0.69723 c -6.60996,0.65133 -7.11144,0.56108 -7.61663,-1.37079 -0.64832,-2.47917 -1.26658,-2.53101 -6.08966,-0.51053 -2.04483,0.85661 -6.53038,1.82169 -9.96788,2.1446 -5.80508,0.54532 -6.25,0.44275 -6.25,-1.44085 0,-2.3279 -2.42314,-3.22726 -8.75,-3.24759 -3.55065,-0.0114 -4.25,0.307 -4.25,1.93497 0,1.82843 -0.89769,1.96721 -14.55429,2.25 -13.69454,0.28358 -14.43294,0.2033 -12.5,-1.35891 2.74799,-2.22095 2.60214,-2.65701 -1.0122,-3.02635 l -3.0665,-0.31336 5.04052,-3.75 c 3.31843,-2.46881 6.11436,-3.75 8.18361,-3.75 2.58254,0 4.28274,-1.2038 9.53339,-6.75 l 6.39031,-6.75 12.16544,-0.5 12.16543,-0.5 -5.42286,-3.56003 c -2.98257,-1.95802 -8.12285,-4.61643 -11.42285,-5.90758 -3.3,-1.29115 -6.9,-3.13032 -8,-4.08705 -1.1,-0.95672 -9.22666,-5.34548 -18.05924,-9.75279 -14.76885,-7.3694 -16.40171,-8.45719 -20.32129,-13.5377 -7.00525,-9.0801 -8.11947,-13.29123 -8.11947,-30.68702 0,-17.88789 -1.4829,-16.36352 17.37018,-17.856 7.0786,-0.56037 13.04508,-1.19376 13.25884,-1.40752 0.21377,-0.21377 -0.96531,-3.37481 -2.62018,-7.02453 -1.65486,-3.64973 -3.00884,-7.15864 -3.00884,-7.79758 0,-1.58539 -0.0598,-1.62756 -29.75,-20.9936 -14.4375,-9.41715 -26.25,-17.45121 -26.25,-17.85347 0,-0.40226 1.78828,-1.53778 3.97396,-2.52339 3.9249,-1.76988 4.19344,-1.75195 21.75,1.4521 l 17.77604,3.24411 48,0.50235 c 49.40515,0.51705 86.63062,-0.59972 144.76172,-4.34288 25.08257,-1.61511 26.66431,-1.60224 60,0.48831 18.83105,1.18093 46.38828,2.63659 61.23828,3.2348 36.00709,1.45047 123.21173,1.42462 157.88874,-0.0468 32.00814,-1.35818 43.6481,-0.59118 60.33081,3.97541 10.72693,2.9363 13.48287,4.29671 25.43577,12.55582 14.15971,9.78395 34.78005,19.64059 60.84468,29.08414 6.875,2.4909 14.94762,5.88849 17.93916,7.55021 l 5.43917,3.0213 9.56083,-2.11996 c 35.97462,-7.97682 73.05373,-9.194 105.56084,-3.46522 27.3623,4.8221 47.5817,10.62646 70,20.09482 15.98735,6.75225 15.77443,6.61642 11.5,7.33617 l -3.5,0.58934 4,1.75212 c 2.2,0.96367 8.9625505,3.93252 13.5,5.76347 21.764325,8.78235 37.154943,16.83007 54.681195,27.18129 13.265444,7.83473 26.190345,16.75489 37.997805,26.31278 9.6134,7.78185 26.1035,17.78042 31.226,20.04269 6.9619,3.07466 15.1833,8.33007 14.5738,9.31615 -0.2512,0.40652 0.1008,1.17807 0.7822,1.71455 1.9778,1.55703 6.559,2.35143 7.2367,1.25486 0.3412,-0.55202 3.7438,-1.00367 7.5613,-1.00367 l 6.941,0 0,6.5 0,6.5 22.5,0 c 21.1667,0 22.6185,0.11852 24.5,2 3.2599,3.25991 11.0585,2.75089 17.372,-1.1339 9.0834,-5.58905 17.4894,-7.8225 39.128,-10.39621 7.15,-0.85043 14.6976,-1.80447 16.7724,-2.12009 5.9488,-0.90491 9.2059,1.04295 12.1534,7.26813 1.4158,2.99021 2.5742,5.82629 2.5742,6.30242 0,1.39468 2.7913,2.07965 8.4748,2.07965 5.8489,0 6.5252,0.67748 6.5252,6.53644 l 0,3.37287 16.8479,-0.60528 c 9.647,-0.34658 17.0848,-0.22035 17.4021,0.29535 0.3048,0.49534 6.4483,0.7631 13.6521,0.59503 l 13.0979,-0.3056 0,-2.49406 c 0,-3.27145 2.6873,-8.39475 4.4032,-8.39475 0.7436,0 1.9121,-0.675 2.5968,-1.5 1.0699,-1.28911 7.0623,-1.5 42.6224,-1.5 26.3827,0 41.3776,0.35549 41.3776,0.98095 0,0.53952 1.0866,1.25367 2.4147,1.587 2.4379,0.61187 4.237,3.77975 4.7888,8.43205 0.2671,2.25237 0.7422,2.5 4.7965,2.5 3.8332,0 4.5001,-0.29636 4.5005,-2 4e-4,-1.91211 0.7585,-2.01202 17.25,-2.27361 l 17.2495,-0.27362 0,2.57841 c 0,2.4521 0.2327,2.56347 4.75,2.27361 4.0535,-0.2601 4.7969,-0.63471 5.0696,-2.55479 0.3165,-2.22863 0.4749,-2.25 16.6804,-2.25 16.2055,0 16.3639,0.0214 16.6804,2.25 0.2504,1.76272 1.0757,2.32176 3.8109,2.58135 1.9202,0.18225 3.8669,0.85725 4.3261,1.5 0.629,0.88047 0.9599,0.86041 1.3421,-0.0814 0.3703,-0.91269 4.1277,-1.25 13.9238,-1.25 11.2593,0 13.4167,0.2412 13.4167,1.5 0,2.14414 0.7938,1.88822 4.6528,-1.5 2.3904,-2.09881 4.4577,-3 6.882,-3 1.9059,0 3.4652,-0.45 3.4652,-1 0,-0.55 -0.45,-1 -1,-1 -1.4852,0 -1.2103,-2.93255 0.4286,-4.57143 0.7857,-0.78571 2.0806,-1.42857 2.8775,-1.42857 0.797,0 2.0092,-0.675 2.6939,-1.5 1.0352,-1.2473 4.8282,-1.5 22.5155,-1.5 17.9846,0 21.3594,0.23172 21.8461,1.5 0.3166,0.825 1.3998,1.5 2.407,1.5 3.5014,0 6.0052,5.24207 2.9847,6.24889 -1.4924,0.49747 3.2751,7.16078 6.2704,8.76382 1.1715,0.62692 8.0025,0.92995 17.2094,0.76343 l 15.2669,-0.27609 0.3004,-6.95831 c 0.1653,-3.82707 0.7829,-7.53957 1.3725,-8.25 0.8262,-0.99549 7.0851,-1.29169 27.2946,-1.29169 28.9228,0 28.0978,-0.1774 30.229,6.5 1.3628,4.26991 5.4704,4.40624 16.1992,0.53762 l 8.6233,-3.10941 37.328,0.28589 37.328,0.2859 2.4125,2.80576 c 1.3269,1.54317 2.4125,3.68067 2.4125,4.75 0,1.78296 0.7535,1.94424 9.0833,1.94424 4.9959,0 8.9334,0.34453 8.75,0.76561 -0.1833,0.42109 -1.4583,3.10265 -2.8333,5.95901 -2.395,4.97522 -2.6701,5.19512 -6.55,5.23439 -4.5159,0.0457 -6.45,1.40737 -6.45,4.54099 0,2.75117 1.8362,4.5 4.7248,4.5 1.5903,0 2.6406,0.83099 3.3249,2.63061 0.55,1.44683 1.8889,3.8788 2.9752,5.40437 1.0863,1.52557 1.9751,3.04179 1.9751,3.36939 0,0.3276 -3.375,0.59563 -7.5,0.59563 -6.5204,0 -7.5,0.23217 -7.5,1.77749 0,0.97763 -0.7209,2.80673 -1.602,4.06467 -0.8811,1.25795 -1.4154,2.47379 -1.1873,2.70187 0.2281,0.22809 18.6115,0.49742 40.852,0.59852 22.2405,0.1011 42.2373,0.45783 44.4373,0.79273 l 4,0.60891 -6.5,2.16499 c -27.2521,9.077 -30.1874,9.29593 -133,9.91942 -48.125,0.29185 -88.0832,0.71363 -88.796,0.93728 -0.9336,0.29294 -1.2132,2.29801 -1,7.17039 l 0.296,6.76373 37.6875,0.26196 37.6876,0.26197 0.3124,3.23492 0.3125,3.23492 28.2175,0.0206 c 17.1824,0.0126 28.6031,0.40622 29.2035,1.00662 0.5423,0.5423 1.1194,4.58442 1.2825,8.9825 l 0.2965,7.9965 16.977,0.30835 c 17.7539,0.32245 18.4775,0.5152 18.5077,4.92977 l 0.015,2.23811 38.25,0.26189 38.25,0.26188 0,2.5 c 0,2.42112 -0.6626,2.66516 -21,7.7347 -19.7794,4.93044 -90.5326,17.32922 -164.5,28.82695 -73.8066,11.47273 -143.6952,16.38285 -233.75,16.42242 -31.5485,0.0139 -36.25,0.21048 -36.25,1.51593 0,1.30253 -4.2736,1.5 -32.4628,1.5 l -32.4629,0 -36.5846,6.53571 c -122.4733,21.8794 -270.2953,37.68441 -398.58391,42.61626 -28.8425,1.1088 -30.42677,1.26989 -32.03545,3.25726 -1.44628,1.78675 -3.01402,2.14159 -10.78135,2.44027 -8.87944,0.34144 -9.08899,0.40589 -9.08899,2.79545 0,1.34528 -1.10455,3.5505 -2.45455,4.9005 -2.41876,2.41876 -2.68483,2.45154 -18.25,2.2479 -8.6875,-0.11365 -24.25028,-0.45115 -34.58395,-0.75 z m 774.0823,-162.29335 -0.2938,-7.25 -26.7616,-0.26636 -26.7615,-0.26635 -5.2385,-3.15067 c -7.0341,-4.23068 -8.7384,-5.78544 -8.7384,-7.97161 0,-1.19955 -0.7247,-1.84501 -2.0714,-1.84501 -1.1393,0 -2.7143,-0.64286 -3.5,-1.42857 -1.6389,-1.63888 -1.9138,-4.57143 -0.4286,-4.57143 0.55,0 1,-0.45 1,-1 0,-0.55 -1.5593,-1 -3.4652,-1 -2.4243,0 -4.4916,-0.90119 -6.882,-3 -1.8793,-1.65 -3.6949,-3 -4.0348,-3 -0.3399,0 -0.618,1.35 -0.618,3 l 0,3 -13.5,0 c -9.8333,0 -13.5,-0.32593 -13.5,-1.2 0,-0.93333 -0.2667,-0.93333 -1.2,0 -0.66,0.66 -2.6584,1.2 -4.441,1.2 -1.7825,0 -3.5191,0.45 -3.859,1 -0.3713,0.60082 -7.1574,1 -17,1 -9.8426,0 -16.6287,-0.39918 -17,-1 -0.819,-1.32516 -8.8126,-1.28735 -10.148,0.048 -0.9914,0.99142 -28.6304,0.78705 -37.352,-0.27619 -4.7283,-0.57642 -6,0.0145 -6,2.78813 0,3.73857 -2.0526,7.23646 -4.6255,7.88219 -1.306,0.32779 -2.3745,1.0374 -2.3745,1.57692 0,0.61168 -8.3214,0.98095 -22.1057,0.98095 -15.9686,0 -23.6726,0.40003 -27.75,1.44094 -14.6355,3.73628 -26.4231,4.69964 -63.6443,5.20141 -20.35,0.27433 -37.5625,0.6779 -38.25,0.89683 -0.6889,0.21937 -1.25,1.98329 -1.25,3.92944 l 0,3.53138 6.25,-0.0351 c 3.4375,-0.0193 9.175,-0.67851 12.75,-1.46487 3.6074,-0.79349 12.0627,-1.45233 19,-1.48049 7.3062,-0.0297 14.993,-0.65271 18.5,-1.49951 8.7401,-2.11038 84.8132,-2.12757 88.5,-0.02 2.0926,1.19622 12.7754,1.4349 65.55,1.46456 47.6654,0.0268 63.3428,0.32825 64.25,1.23544 1.7809,1.78087 1.464,3.89007 -0.9743,6.48555 l -2.1743,2.31445 50.2181,0 50.2181,0 -0.2938,-7.25 z M 230,-522.78206 c 0,-0.23648 -3.3216,-2.26352 -7.3813,-4.50453 -8.0955,-4.46881 -10.1221,-6.31136 -9.2995,-8.45502 0.8188,-2.13373 -0.4564,-2.80513 -1.8105,-0.95325 -0.8242,1.12707 -7.0729,2.76578 -20.3598,5.3393 -18.1258,3.51077 -23.1489,5.28106 -23.1489,8.15844 0,0.46475 13.95,0.84501 31,0.84501 17.05,0 31,-0.19348 31,-0.42995 z m 144.8154,-18.79226 -0.3154,-3.27775 -11.5025,-0.0381 c -6.3264,-0.0209 -12.0328,-0.36578 -12.6809,-0.76633 -0.6481,-0.40055 -1.4611,-0.27093 -1.8065,0.28804 -0.9644,1.56035 -25.2245,1.34063 -25.8018,-0.23369 -0.3666,-1 -0.7233,-1 -1.7833,0 -0.7287,0.6875 -2.585,1.25 -4.125,1.25 -2.3142,0 -2.8,0.43039 -2.8,2.48087 l 0,2.48087 21.75,0.26913 c 11.9625,0.14802 25.7169,0.39413 30.5654,0.5469 l 8.8155,0.27777 -0.3155,-3.27775 z M 706,-546.35211 l 0,-7 -16.0785,0 -16.0786,0 -3.9214,3.84401 c -4.4829,4.3943 -4.5393,4.57906 -2.1715,7.11069 2.2594,2.41578 4.6367,2.71505 23,2.89547 l 15.25,0.14983 z m -1138.75,-44.14051 c 5.3625,-1.20775 9.75,-2.57021 9.75,-3.0277 0,-0.45748 -3.33006,-0.83179 -7.40014,-0.83179 -4.48126,0 -14.24355,-1.37917 -24.75,-3.49656 l -17.34986,-3.49655 -57.5,-1.96261 c -31.625,-1.07944 -61.6625,-2.14328 -66.75,-2.3641 -7.33124,-0.31821 -9.25,-0.11924 -9.25,0.95917 0,0.78469 1.05823,1.36065 2.5,1.36065 2.09524,0 2.5,0.47222 2.5,2.91667 0,1.60416 -0.55721,3.1024 -1.23824,3.32941 -0.96059,0.3202 -0.97814,0.9836 -0.0783,2.95854 1.11649,2.45042 1.58434,2.56872 12.48824,3.15752 6.23057,0.33644 27.0783,0.89937 46.3283,1.25096 19.25,0.35158 48.95,0.97164 66,1.37792 17.05,0.40627 31.9,0.58696 33,0.40152 1.1,-0.18544 6.3875,-1.32531 11.75,-2.53305 z m -344.8,-155.67891 c -1.01441,-0.87497 -21.10633,-10.18058 -21.98109,-10.18058 -0.97276,0 2.72452,6.28434 5.08749,8.64731 2.06525,2.06525 3.29899,2.35269 10.09815,2.35269 4.26,0 7.31795,-0.36874 6.79545,-0.81942 z m -27.45,-1.87241 c 0,-0.93051 -1.77762,-4.68401 -3.95027,-8.34112 -3.51033,-5.90876 -4.59617,-6.93498 -9.75,-9.2146 -5.05369,-2.23532 -7.46869,-2.6095 -18.7742,-2.90888 -17.71325,-0.46906 -17.70618,0.26868 0.11288,11.78128 14.14401,9.13821 16.19764,9.91273 27.11159,10.22496 4.32376,0.12369 5.25,-0.1483 5.25,-1.54164 z m 265,-0.62108 c 0,-2.34486 -3.75243,-6.54604 -7.61869,-8.52981 -2.31694,-1.18882 -85.82747,-14.15728 -91.16591,-14.15728 -5.59393,0 -16.2154,6.38061 -16.2154,9.74104 0,2.48649 5.20084,8.29215 9.90648,11.05851 l 4.59352,2.70045 43,0.26587 c 23.65,0.14623 43.9,0.42245 45,0.61382 1.1,0.19137 4.3625,0.40923 7.25,0.48413 4.85934,0.12605 5.25,-0.0359 5.25,-2.17673 z m -188,0.70289 c 0,-2.02074 -6.86027,-12.93812 -9.69289,-15.4252 l -3.3767,-2.96478 -29.52422,0 c -16.23832,0 -29.28786,0.38245 -28.99896,0.84989 1.10265,1.78412 32.06604,15.37616 37.93441,16.65211 6.11507,1.32959 33.65836,2.05624 33.65836,0.88798 z m 65.52484,-0.78448 c 1.83593,-1.34247 1.77776,-1.55924 -1.55887,-5.8092 -1.90628,-2.42809 -5.26597,-6.7709 -7.46597,-9.65071 l -4,-5.236 -13.5,0.62041 c -8.77988,0.40348 -14.24663,1.10038 -15.63543,1.99319 -2.45617,1.57897 -7.36457,9.88869 -7.36457,12.4679 0,0.95656 0.93266,2.92488 2.07258,4.37405 l 2.07258,2.63486 21.73629,0 c 17.01192,0 22.1508,-0.30309 23.64339,-1.3945 z"
         id="path2998"
         inkscape:connector-curvature="0"
         sodipodi:nodetypes="cscssssscssssscssscssssssssssssssscssssssssssssssssscsssssscsssssssssccsssssssssscsssssssssscccccccsssssssssscssscccsssssssssssssscssssssssscsssscssasscccscccssssssssscscscsssssscscscsssscsccssssssssssssscscccssscccssscsssscssssscsscsscscccccssscsccccsssssscsssssssccccccssssssscsscsscsssccsscsssssscsssssssscccccssscssssccsscccsscssccccccccssccsssscssssssssssssssssssssssssssssscsssssscssssssscsssscss" />
    </g>
  </g>
</svg>
