<?xml version="1.0" encoding="UTF-8" standalone="no"?>
<!-- Created with Inkscape (http://www.inkscape.org/) -->

<svg
   xmlns:dc="http://purl.org/dc/elements/1.1/"
   xmlns:cc="http://creativecommons.org/ns#"
   xmlns:rdf="http://www.w3.org/1999/02/22-rdf-syntax-ns#"
   xmlns:svg="http://www.w3.org/2000/svg"
   xmlns="http://www.w3.org/2000/svg"
   xmlns:sodipodi="http://sodipodi.sourceforge.net/DTD/sodipodi-0.dtd"
   xmlns:inkscape="http://www.inkscape.org/namespaces/inkscape"
   width="300"
   height="75.285667"
   id="svg2"
   version="1.1"
   inkscape:version="0.48.5 r10040"
   sodipodi:docname="Starfarer.svg">
  <defs
     id="defs4" />
  <sodipodi:namedview
     id="base"
     pagecolor="#ffffff"
     bordercolor="#666666"
     borderopacity="1.0"
     inkscape:pageopacity="0.0"
     inkscape:pageshadow="2"
     inkscape:zoom="3.959798"
     inkscape:cx="160.37296"
     inkscape:cy="60.584965"
     inkscape:document-units="px"
     inkscape:current-layer="layer1"
     showgrid="false"
     fit-margin-top="0"
     fit-margin-left="0"
     fit-margin-right="0"
     fit-margin-bottom="0"
     inkscape:window-width="1920"
     inkscape:window-height="1018"
     inkscape:window-x="-8"
     inkscape:window-y="-8"
     inkscape:window-maximized="1" />
  <metadata
     id="metadata7">
    <rdf:RDF>
      <cc:Work
         rdf:about="">
        <dc:format>image/svg+xml</dc:format>
        <dc:type
           rdf:resource="http://purl.org/dc/dcmitype/StillImage" />
        <dc:title />
      </cc:Work>
    </rdf:RDF>
  </metadata>
  <g
     inkscape:label="Layer 1"
     inkscape:groupmode="layer"
     id="layer1"
     transform="translate(569.52319,-688.92492)">
    <g
       id="g2996"
       transform="matrix(0.16241931,0,0,0.16241931,-407.12854,774.95215)">
      <path
         style="fill:#000000"
         d="m 261.89125,-66.2609 c -16.9603,-0.15846 -28.8637,-0.66369 -29.45,-1.25 -0.6226,-0.62253 -22.0483,-0.98406 -58.3193,-0.98406 -56.2859,0 -57.3163,-0.0352 -56.3047,-1.92552 0.8641,-1.61459 6.9751,-4.41747 18.433,-8.45453 1.0412,-0.36687 1.7162,-0.84167 1.5,-1.05509 -0.2162,-0.21344 -5.7931,-0.89961 -12.3931,-1.52483 -22.2598,-2.10868 -36.9633,-4.21378 -44,-6.2995 -3.85,-1.14116 -10.0517,-2.2621 -13.7815,-2.49098 -5.768,-0.35394 -7.012,-0.76788 -8.3236,-2.76954 -0.8481,-1.29437 -2.8589,-2.64264 -4.4684,-2.99616 -1.6096,-0.35352 -2.9265,-0.964 -2.9265,-1.35663 0,-0.39263 -2.2411,-2.04437 -4.9802,-3.67054 -4.2505,-2.52353 -4.983,-3.41009 -5,-6.05169 -0.012,-1.82125 -0.856,-3.85174 -2.0515,-4.93371 -1.1175,-1.01128 -1.9657,-2.54353 -1.8849,-3.40499 0.081,-0.86146 0.095,-11.57879 0.032,-23.81629 l -0.1154,-22.25 -3.3554,0 -3.3554,0 -0.5956,6.37865 c -0.9155,9.80301 -8.0475,27.84109 -13.954,35.29169 -13.0895,16.51147 -28.066,26.14979 -46.9722,30.2295 -11.61397,2.50616 -19.67451,2.64496 -30.81986,0.53072 -21.83644,-4.1423 -39.50559,-15.9765 -51.40683,-34.43056 -2.30556,-3.57501 -4.79252,-8.07501 -5.52659,-10 -0.73407,-1.925 -1.68764,-3.9026 -2.11904,-4.39464 -1.14118,-1.30164 -2.23098,3.96511 -1.53772,7.43143 l 0.59264,2.96321 -12.09158,0 -12.09157,0 0.49942,-2.61257 c 0.45335,-2.37153 -0.34317,-3.15243 -8.63342,-8.4643 -5.02307,-3.21845 -9.69278,-6.75757 -10.37713,-7.86471 -1.11131,-1.79784 -0.89756,-2.19227 2,-3.69066 1.78435,-0.92273 3.24428,-1.53823 3.24428,-1.36776 0,0.17046 1.35,-0.37464 3,-1.21133 1.65,-0.83668 4.6875,-2.06632 6.75,-2.73252 4.15448,-1.3419 4.99281,-3.05308 1.5,-3.06174 -11.73221,-0.0291 -19.75,-9.30097 -19.75,-22.83923 0,-3.01869 -0.24191,-5.24661 -0.53759,-4.95093 -0.29567,0.29566 -1.65273,4.75816 -3.0157,9.91666 -3.5294,13.35789 -13.11512,30.14602 -22.65213,39.67219 -4.50477,4.49966 -17.41655,13.36473 -26.29458,18.05355 -9.6527,5.09795 -34.25279,9.60177 -44.51916,8.15063 l -6.04662,-0.85468 -14.71711,10.17869 -14.71711,10.17871 -89.5,0.22582 -89.5,0.22583 -6,-4.30218 c -3.61318,-2.59076 -6.12712,-5.16687 -6.31955,-6.47583 -0.17575,-1.1955 0.0984,-2.17364 0.60921,-2.17364 1.16932,0 10.21034,-7.90436 10.21034,-8.92666 0,-0.41619 -2.8125,-1.54486 -6.25,-2.50819 -3.4375,-0.96333 -6.925,-2.14737 -7.75,-2.6312 -0.825,-0.48384 -4.425,-2.46867 -8,-4.41074 -14.27977,-7.75727 -26.97276,-20.36194 -34.73542,-34.4937 -1.97269,-3.59124 -4.11308,-7.20452 -4.75642,-8.02952 -1.34765,-1.72818 -5.97132,-21.31358 -7.36819,-31.21091 -0.62353,-4.41788 -0.59757,-8.08815 0.076,-10.74167 0.86388,-3.40341 0.67416,-4.89053 -1.21893,-9.55482 -2.57791,-6.35156 -2.46173,-13.85011 0.30038,-19.3869 0.91879,-1.84173 1.42618,-3.74397 1.12755,-4.22716 -0.52652,-0.85185 -17.42497,-1.29936 -17.42497,-0.46144 0,0.22941 0.9,2.51671 2,5.08291 2.55762,5.96668 2.61874,14.31596 0.14233,19.44154 -1.44712,2.99519 -1.6958,4.91151 -1.12524,8.67105 0.91088,6.00206 -0.99827,21.0271 -4.1153,32.38741 -2.53339,9.23317 -9.24615,21.66176 -16.52883,30.60293 -2.40513,2.95285 -4.37296,5.82516 -4.37296,6.38293 0,0.55777 -0.39009,1.01414 -0.86686,1.01414 -0.47678,0 -3.96428,2.47055 -7.75,5.49014 -3.78573,3.01957 -9.58314,6.90845 -12.88314,8.64197 -3.3,1.73351 -6.675,3.70095 -7.5,4.37208 -2.17352,1.76816 -17.02181,5.53886 -27.75,7.04705 -7.59117,1.06718 -10.90883,1.06718 -18.5,0 -20.43371,-2.87262 -32.31524,-7.71552 -48.01814,-19.57216 -8.3739,-6.32279 -18.22077,-18.28179 -23.83636,-28.94919 -1.60109,-3.04144 -3.31024,-6.2049 -3.7981,-7.0299 -0.90982,-1.53853 -4.56673,-16.47884 -5.711,-23.33226 -0.35191,-2.10774 -0.75376,-8.40774 -0.893,-14 -0.13962,-5.60776 -0.96568,-12.56575 -1.84192,-15.51476 -2.17547,-7.32163 -0.88785,-12.66339 5.7672,-23.92563 4.18927,-7.08942 5.43441,-10.21217 5.97416,-14.98292 0.55213,-4.88024 0.37078,-6.33796 -0.95325,-7.66198 -1.50882,-1.50882 -1.50992,-1.82616 -0.0143,-4.10878 1.59556,-2.43513 2.87308,-2.87339 7.32471,-2.5128 2.3719,0.19214 3.13412,-1.49639 1,-2.21526 -0.6875,-0.23158 0.4375,-0.73947 2.5,-1.12864 4.11155,-0.77582 4.87,-2.12672 1.75,-3.11697 -1.78548,-0.56669 -2,-1.51303 -2,-8.82298 l 0,-8.1882 -37.5,-0.28951 c -25.59669,-0.1976 -37.5,0.0422 -37.5,0.7556 0,0.64937 -3.40778,1.04509 -9,1.04509 -8.13769,0 -9,0.17989 -9,1.87756 0,1.03265 -0.675,2.43775 -1.5,3.12244 -0.85908,0.71297 -1.5,2.89356 -1.5,5.10339 0,3.38335 0.33865,3.9394 2.75,4.51545 1.5125,0.36131 3.2,0.98624 3.75,1.38872 0.55,0.40249 2.6875,1.27534 4.75,1.93967 3.17074,1.02129 3.75,1.64703 3.75,4.05087 0,2.29912 -0.53443,2.96037 -2.79365,3.45658 -1.94865,0.42799 -3.16476,1.58628 -4.02061,3.82945 -0.92228,2.4173 -1.4435,2.87188 -2.09897,1.83061 -0.68002,-1.08029 -1.53365,-1.15461 -3.8774,-0.33757 -1.71908,0.59927 -6.4731,0.81001 -11.10739,0.49237 -7.56936,-0.51881 -8.10198,-0.70315 -8.10198,-2.80402 0,-3.0053 -1.05051,-3.18714 -23.25,-4.02436 -14.84441,-0.55985 -18.75,-0.99189 -18.75,-2.07415 0,-1.10186 3.53981,-1.38938 18.25,-1.48236 20.322,-0.12845 19.19508,-0.0459 23.0651,-1.68926 1.5483,-0.65746 3.1807,-1.19538 3.62755,-1.19538 0.44686,0 1.33206,-0.62608 1.96713,-1.3913 0.63506,-0.76521 3.16516,-1.69277 5.62244,-2.06127 4.36419,-0.65445 4.46778,-0.75573 4.46778,-4.36817 0,-2.61517 -0.5857,-4.06394 -2,-4.94719 -1.1,-0.68696 -2,-2.14521 -2,-3.24054 0,-1.84021 -0.67935,-1.99153 -8.94098,-1.99153 -4.91754,0 -9.2191,-0.45001 -9.55902,-1 -0.33992,-0.55 -1.69433,-1 -3.0098,-1 -1.31546,0 -4.63673,-0.48146 -7.38059,-1.06992 -3.9551,-0.84822 -5.05315,-1.52165 -5.29922,-3.25 -0.29144,-2.04697 -0.89049,-2.19359 -9.81039,-2.40139 -19.11033,-0.44518 -38.5307,-2.40449 -48.5,-4.89313 -12.64076,-3.15553 -44.5849,-13.25554 -46.27155,-14.63002 -0.96448,-0.78597 -1.20597,-5.53031 -1,-19.64588 0.26694,-18.29338 0.30879,-18.61497 2.46281,-18.92152 1.64949,-0.23475 2.26758,-1.10009 2.5,-3.5 0.2777,-2.86761 0.73603,-3.27784 4.55874,-4.08022 2.3375,-0.49066 4.24836,-1.16565 4.24636,-1.5 -0.002,-0.33437 -8.4395,-3.08293 -18.75,-6.10792 -15.44438,-4.53124 -19.36285,-6.0612 -22.24636,-8.68602 -2.2582,-2.05562 -3.14525,-3.51158 -2.5,-4.10362 0.55,-0.50467 33.85,-6.16441 74,-12.57719 55.33939,-8.83884 75.23782,-11.65641 82.25,-11.64639 10.30167,0.0147 10.47048,-0.13001 7.74889,-6.64368 -1.3461,-3.22166 -1.80178,-3.53252 -4.41278,-3.01032 -3.5674,0.71348 -4.14828,0.056 -7.61579,-8.61974 -1.99895,-5.00141 -3.46998,-7.17863 -5.59146,-8.27568 -1.58337,-0.8188 -2.87886,-1.75482 -2.87886,-2.08006 0,-0.32524 1.8233,-2.3608 4.05179,-4.52347 2.88703,-2.80177 3.88049,-4.47183 3.45591,-5.80956 -0.97375,-3.06801 -12.94448,-13.61141 -19.81892,-17.45582 -8.67805,-4.85304 -15.64509,-7.11104 -26.24902,-8.50722 -21.82582,-2.87373 -40.43976,-9.43391 -40.43976,-14.25236 0,-0.44488 3.0375,-0.79607 6.75,-0.78044 3.7125,0.0156 33.87848,-1.4225 67.03552,-3.19586 50.40352,-2.69578 61.87791,-3.04649 70,-2.13955 11.15366,1.24546 26.2127,5.10172 26.21823,6.71387 0.002,0.60121 1.94299,1.89041 4.31317,2.86489 6.0121,2.47183 11.08444,8.15816 20.72007,23.22822 4.57164,7.15 12.77747,18.625 18.23518,25.5 5.45772,6.875 12.4087,15.7625 15.44664,19.75 l 5.52351,7.25 18.12884,-0.0186 c 11.88235,-0.0122 26.57059,-0.87069 42.62884,-2.49149 13.475,-1.36007 25.2875,-2.47668 26.25,-2.48136 1.30792,-0.006 1.75,-0.83403 1.75,-3.27638 0,-3.79786 3.70153,-9.74005 7.12621,-11.43992 2.52067,-1.25116 23.99775,-4.81869 34.87379,-5.79283 3.575,-0.32021 8.1875,-0.82812 10.25,-1.12869 l 3.75,-0.54649 0,-5.86678 c 0,-5.83923 0.0153,-5.86938 3.25,-6.41791 1.7875,-0.30312 41.01557,-5.49851 87.17349,-11.54532 81.9951,-10.74157 84.35035,-10.99202 102.5,-10.89959 10.21708,0.052 25.32651,0.61454 33.57651,1.25 l 15,1.1554 0.27737,13.61988 0.27737,13.61988 -12.27737,0.68952 c -15.96376,0.89652 -15.77737,0.82991 -15.77737,5.63806 0,3.41906 0.29382,3.92933 2.25,3.90743 1.2375,-0.0139 41.85,-6.43984 90.25,-14.27998 l 88,-14.2548 44.2987,1.9297 44.2987,1.92971 22.7013,-3.79517 22.7013,-3.79516 97.8293,0.10806 c 65.9474,0.0729 100.1663,-0.24638 105,-0.97955 3.9439,-0.59819 12.2332,-1.29509 18.4207,-1.54867 l 11.25,-0.46106 0,-7.39414 c 0,-13.81766 7.2329,-25.50172 18.25,-29.48104 3.6576,-1.3211 3.7502,-1.47893 3.7578,-6.4036 0.011,-7.16412 1.4364,-7.70158 21.9922,-8.29283 9.075,-0.26102 16.95,-0.83294 17.5,-1.27091 1.2316,-0.98075 11.633,-4.03594 15.8794,-4.66424 1.7163,-0.25395 10.6278,-0.69254 19.8033,-0.97464 l 16.6827,-0.5129 5.3173,3.96866 c 2.9245,2.18278 6.4308,4.3076 7.7918,4.72184 1.3609,0.41424 5.082,3.05328 8.2689,5.86453 6.5033,5.73665 8.7671,6.29379 26.4233,6.50284 6.3628,0.0753 9.2944,0.49087 9.5843,1.35853 0.3295,0.98614 13.0124,1.18279 60.0833,0.9316 l 59.66575,-0.31841 0,2.56842 c 0,1.90172 0.5191,2.5684 2,2.5684 1.1111,0 2,0.66667 2,1.5 0,0.83332 0.8889,1.5 2,1.5 1.1,0 2.0069,-0.5625 2.0153,-1.25 0.012,-0.98632 0.1806,-0.98974 0.799,-0.0162 0.9477,1.49203 6.5204,2.13234 19.223,2.2088 l 9.5373,0.0574 0.2285,3 c 0.1728,2.26617 -0.2034,3.01688 -1.5372,3.06901 -6.202,0.24237 -31.6204,2.06186 -35.766,2.56018 -2.75,0.33058 -5.3206,1.11174 -5.7125,1.73593 -0.4972,0.79194 -9.3564,1.22379 -29.3174,1.42911 l -28.60495,0.29423 -0.9867,2.83043 -0.9867,2.83043 -12.6958,0.61465 c -6.9828,0.33805 -19.8213,0.90655 -28.5302,1.26333 -15.4843,0.63435 -15.8586,0.70205 -16.9341,3.06237 -0.9485,2.08178 -0.7366,2.75033 1.5407,4.862 2.2227,2.06098 3.6403,2.44833 8.9603,2.44833 9.3871,0 22.0632,1.76363 32.7674,4.55893 11.051,2.88587 30.6876,12.2419 39.5,18.82008 3.3,2.46334 17.79235,15.8733 32.20505,29.7999 l 26.205,25.32109 0.045,7.80954 c 0.043,7.51782 0.1837,7.97542 3.7568,12.25 5.7957,6.93361 6.2882,6.30243 6.2882,-8.05954 l 0,-12.5 2.4718,0 2.4718,0 0.2782,13.67882 0.2782,13.67883 9,1.7605 c 4.95,0.96827 11.5875,1.7878 14.75,1.82117 l 5.75,0.0607 0,-15.5 0,-15.5 2.5,0 2.5,0 0,15.5 0,15.5 20,0 20,0 0,2.5 0,2.5 12.9244,0 c 11.7531,0 14.7212,0.41113 32.75,4.53652 29.5433,6.76017 40.5579,9.36269 53.8256,12.71782 6.6,1.66901 12.9,3.08505 14,3.14676 1.1,0.0617 2.5834,0.48619 3.2965,0.94329 0.713,0.45709 3.413,0.71773 6,0.5792 2.5869,-0.13854 6.391,-0.17802 8.4535,-0.0877 3.5639,0.156 3.75,0.33244 3.75,3.55557 0,3.02609 0.4331,3.5647 4.0202,5 6.6543,2.66249 6.9798,2.43435 6.9798,-4.89142 0,-4.52692 0.3794,-6.50365 1.25,-6.51202 0.6875,-0.007 9.0125,0.74739 18.5,1.67553 l 17.25,1.68755 0,17.23653 0,17.23653 10.75,9.45687 c 20.2879,17.84746 27.1681,25.51701 38.5047,42.92218 4.3218,6.6354 5.4916,7.79683 7.8527,7.79683 1.526,0 2.9859,0.34209 3.2444,0.7602 0.2583,0.41811 -3.1191,6.71811 -7.5055,14 -5.758,9.55901 -8.5046,13.2398 -9.8795,13.2398 -1.7548,0 -1.862,0.60802 -1.3656,7.75 0.2962,4.2625 1.119,18.30709 1.8283,31.2102 1.1157,20.29407 1.5228,23.60053 3.0167,24.5 5.0651,3.04975 5.0813,2.98559 -1.8463,7.32917 -3.6428,2.28408 -11.5388,6.90548 -17.5465,10.2698 -8.0452,4.50531 -10.7702,6.51557 -10.3426,7.62982 0.734,1.91288 -1.3737,3.27594 -5.0962,3.2957 -1.587,0.008 -7.287,1.78117 -12.6665,3.93946 -10.5325,4.22564 -29.8461,9.93931 -41.9482,12.40977 -43.5571,8.89154 -85.692,6.97869 -130.0926,-5.90596 -16.0943,-4.67044 -20.1608,-6.60874 -26.5599,-12.6599 l -5.5711,-5.26806 -49.1327,0.3508 c -37.9577,0.271 -49.7027,0.64817 -51.6383,1.65825 -1.8049,0.94187 -5.0157,6.36602 -11.4832,19.39919 l -8.9777,18.09172 -34.30705,0 -34.3071,0 -9.7151,6.76017 c -16.6583,11.59142 -13.1481,10.50342 -35.165,10.89941 -39.8307,0.71641 -57.2357,0.83402 -85.0161,0.57448 z M -141.0081,-194.49496 c 0.34912,-11.82501 0.74548,-26.45001 0.88082,-32.5 l 0.24607,-11 -2.63082,-0.31642 -2.63082,-0.31642 0,17.61985 0,17.61985 -2.75,3.44654 c -1.5125,1.8956 -3.3125,3.44655 -4,3.44657 -1.93706,5e-5 -1.68853,17.25134 0.30405,21.10455 1.40291,2.71293 1.96212,2.97555 5.75,2.70034 l 4.19595,-0.30486 0.63475,-21.5 z m 179.22875,-18.75 0.6413,-22.25 -7.5698,0 c -6.7403,0 -7.5129,0.19177 -7.0511,1.75 0.2853,0.96249 2.1778,7.6 4.2056,14.75 2.0277,7.14999 4.5246,14.56834 5.5486,16.48518 1.0241,1.91687 1.8619,5.10437 1.8619,7.08334 0,3.03501 0.8301,5.57848 1.5278,4.68148 0.107,-0.13751 0.483,-10.26251 0.8357,-22.5 z m -153.83552,8.69588 c 0.86864,-1.67976 2.40997,-4.04226 3.42517,-5.25 7.52142,-8.94786 10.60146,-12.3443 12.66957,-13.97108 2.06606,-1.62515 2.37728,-2.71826 2.37728,-8.34964 l 0,-6.47968 -5.21717,0.30226 -5.21718,0.30226 -3.29006,11.5 c -6.53593,22.84557 -7.11541,25 -6.72422,25 0.2185,0 1.10797,-1.37435 1.97661,-3.05411 z m 135.49292,-13.37318 c -4.4919,-15.59183 -6.3382,-19.5727 -9.0773,-19.5727 -0.8302,0 -1.0107,1.17866 -0.5868,3.82991 0.4174,2.60997 0.1497,4.44151 -0.8404,5.75 -0.799,1.05605 -1.4671,2.70128 -1.4846,3.65607 -0.033,1.7991 10.6135,15.76402 12.018,15.76402 0.4373,0 1.3149,1.575 1.9502,3.5 0.6353,1.92499 1.5148,3.5 1.9544,3.5 0.4396,0 -1.3305,-7.39229 -3.9335,-16.4273 z m 15.9791,-30.13844 c 0,-1.96116 -0.4658,-4.43616 -1.0352,-5.5 -0.6476,-1.21008 -0.6711,-1.93426 -0.063,-1.93426 0.5349,0 0.9464,-1.89438 0.9144,-4.20975 -0.032,-2.31536 0.4005,-4.36258 0.9609,-4.5494 1.5225,-0.50749 0.2486,-8.53417 -1.5857,-9.99085 -0.8657,-0.6875 -2.388,-1.25 -3.3828,-1.25 -1.5708,0 -1.8089,0.91025 -1.8089,6.91597 0,6.84254 -0.041,6.94871 -3.8939,10 -2.1417,1.69622 -4.6167,3.08403 -5.5,3.08403 -1.9038,0 -2.0218,1.88036 -0.4478,7.13397 l 1.1583,3.86603 7.3417,0 7.3417,0 0,-3.56574 z m -575.28293,-29.68426 c -4.08829,-10.28445 -5.40695,-12.69878 -7.19874,-13.1803 -1.11008,-0.29831 -8.88083,-0.54854 -17.26833,-0.55606 l -15.25,-0.0136 0,7.5 0,7.5 20.10699,0 c 15.68394,0 19.99768,-0.27498 19.61008,-1.25 z m 373.08772,-3.5 -0.30479,-4.75 -9.5,0 -9.5,0 -0.30479,4.75 -0.30479,4.75 10.10958,0 10.10958,0 -0.30479,-4.75 z m 44.00517,3.00171 c -0.18518,-0.96156 -2.0975,-2.66202 -4.24959,-3.77881 -2.1521,-1.11679 -4.09609,-2.58006 -4.31997,-3.25171 -0.27124,-0.81371 -2.85628,-1.22119 -7.74701,-1.22119 -6.43752,0 -7.71821,0.31829 -10.41666,2.58889 -1.8691,1.57275 -3.07673,3.53525 -3.07673,5 l 0,2.41111 15.07332,0 c 13.81166,0 15.04515,-0.14635 14.73664,-1.74829 z m -571.30996,-6.03369 c 21.48176,-8.55272 38.68082,-10.31238 56.31672,-5.76186 5.3258,1.3742 10.76615,2.80462 12.08965,3.17872 1.71675,0.48524 2.19764,0.34243 1.67803,-0.49831 -0.87939,-1.42289 5.58758,-4.39154 7.75489,-3.55987 1.81631,0.69699 9.66071,-1.34843 9.66071,-2.51901 0,-1.26714 -15.6334,-1.92713 -59.75,-2.52248 l -39.25,-0.52967 0,9.15222 c 0,8.60341 0.10494,9.06506 1.75,7.69879 0.9625,-0.79938 5.35,-2.88672 9.75,-4.63853 z m 99.5,-0.21802 c 0,-2.20001 0.47656,-4 1.05902,-4 0.58246,0 0.7809,-0.45001 0.44098,-1 -0.33992,-0.55 -1.37898,-1.00144 -2.30902,-1.00317 -2.42029,-0.005 -16.19098,4.17405 -16.19098,4.91301 0,0.61225 13.34105,4.85617 15.75,5.01022 0.80499,0.0515 1.25,-1.3441 1.25,-3.92006 z m 392.81642,1.25 c -0.31441,-2.73252 -0.37045,-2.75188 -8.81081,-3.0444 -9.76049,-0.33826 -9.76197,0.61799 -0.006,3.61238 8.82379,2.70815 9.19066,2.68452 8.81642,-0.56798 z"
         id="path2998"
         inkscape:connector-curvature="0" />
    </g>
  </g>
</svg>
