<?xml version="1.0" encoding="UTF-8" standalone="no"?>
<!-- Created with Inkscape (http://www.inkscape.org/) -->

<svg
   xmlns:dc="http://purl.org/dc/elements/1.1/"
   xmlns:cc="http://creativecommons.org/ns#"
   xmlns:rdf="http://www.w3.org/1999/02/22-rdf-syntax-ns#"
   xmlns:svg="http://www.w3.org/2000/svg"
   xmlns="http://www.w3.org/2000/svg"
   xmlns:sodipodi="http://sodipodi.sourceforge.net/DTD/sodipodi-0.dtd"
   xmlns:inkscape="http://www.inkscape.org/namespaces/inkscape"
   width="18.344444mm"
   height="5.8278713mm"
   viewBox="0 0 64.999999 20.649938"
   id="svg2"
   version="1.1"
   inkscape:version="0.91 r13725"
   sodipodi:docname="Terrapin.svg">
  <defs
     id="defs4" />
  <sodipodi:namedview
     id="base"
     pagecolor="#ffffff"
     bordercolor="#666666"
     borderopacity="1.0"
     inkscape:pageopacity="0.0"
     inkscape:pageshadow="2"
     inkscape:zoom="15.839192"
     inkscape:cx="29.103353"
     inkscape:cy="6.5280324"
     inkscape:document-units="px"
     inkscape:current-layer="layer1"
     showgrid="false"
     fit-margin-top="0"
     fit-margin-left="0"
     fit-margin-right="0"
     fit-margin-bottom="0"
     inkscape:window-width="1920"
     inkscape:window-height="1017"
     inkscape:window-x="-8"
     inkscape:window-y="-8"
     inkscape:window-maximized="1" />
  <metadata
     id="metadata7">
    <rdf:RDF>
      <cc:Work
         rdf:about="">
        <dc:format>image/svg+xml</dc:format>
        <dc:type
           rdf:resource="http://purl.org/dc/dcmitype/StillImage" />
        <dc:title></dc:title>
      </cc:Work>
    </rdf:RDF>
  </metadata>
  <g
     inkscape:label="Layer 1"
     inkscape:groupmode="layer"
     id="layer1"
     transform="translate(691.08669,-849.00127)">
    <g
       id="g4147"
       transform="matrix(0.0277979,0,0,0.0277979,-649.62136,907.02757)">
      <path
         style="fill:#000000"
         d="m -519.73214,-1345.0658 c -34.34667,-2.1312 -68.15971,-11.1061 -97.70995,-25.9351 l -12.44455,-6.245 -57.80316,-0.9167 -57.80316,-0.9167 -4.93209,-3.5728 -4.93209,-3.5728 0,-10.681 0,-10.6809 -4.50284,-1.8814 c -7.04305,-2.9428 -9.68506,-1.9856 -10.7208,3.884 -0.48526,2.75 -0.9147,7.3906 -0.95432,10.3125 -0.0804,5.9297 -2.91226,9.7228 -8.26116,11.0653 -2.13445,0.5357 -9.55843,-0.9855 -21.5943,-4.4247 -35.16209,-10.0474 -38.94639,-11.3868 -43.5208,-15.4032 l -4.4235,-3.8839 0.26211,-11.958 c 0.14417,-6.5769 0.19541,-12.6577 0.11387,-13.5128 -0.0815,-0.8551 -4.367,-2.7959 -9.52325,-4.3129 l -9.375,-2.7582 0,-13.9715 c 0,-10.2305 -0.45357,-14.3479 -1.69396,-15.3774 -2.26256,-1.8777 -48.83439,-7.989 -55.18104,-7.2409 -2.75,0.3241 -7.58113,1.2346 -10.73586,2.0232 -4.01957,1.0049 -23.28185,1.323 -64.37495,1.0632 -57.97436,-0.3665 -58.69846,-0.4024 -63.87196,-3.168 -3.2418,-1.7329 -7.143,-5.5376 -10.2537,-10 -2.7616,-3.9615 -5.7506,-8.2007 -6.6422,-9.4204 -2.1994,-3.0086 -59.5621,-10.7794 -63.881,-8.6538 -2.8743,1.4146 -113.7578,4.6739 -115.8123,3.4042 -0.6109,-0.3775 -1.4713,-2.3286 -1.9122,-4.3357 -0.4408,-2.0071 -1.5194,-4.2451 -2.3969,-4.9734 -0.8775,-0.7283 -10.7102,-1.6999 -21.8504,-2.1591 l -20.2549,-0.835 -2.5294,-3.5523 c -2.119,-2.9758 -3.4164,-3.5522 -7.9955,-3.5522 -3.0064,0 -5.7278,-0.4234 -6.0476,-0.9409 -0.3199,-0.5175 0.7429,-7.8597 2.3616,-16.316 1.6188,-8.4563 2.6611,-16.1102 2.3163,-17.0087 -0.3448,-0.8985 -17.506,-9.095 -38.1361,-18.2144 -40.1259,-17.7373 -44.7732,-20.6324 -47.2099,-29.4096 -1.747,-6.2928 -1.8011,-27.2337 -0.086,-33.4082 1.35,-4.861 4.1475,-7.0878 10.5633,-8.408 2.5563,-0.5261 3.75,-1.5165 3.75,-3.1116 0,-2.4529 0.604,-2.2636 -64.375,-20.1781 -11.3437,-3.1275 -24.4363,-6.7985 -29.0947,-8.1579 l -8.4697,-2.4717 0.3447,-18.9442 0.3447,-18.9443 6.5238,-1.9307 c 3.588,-1.0619 7.147,-2.5647 7.9087,-3.3395 1.9412,-1.9745 -1.0307,-11.4801 -4.1033,-13.1245 -1.4505,-0.7763 -2.2066,-2.3093 -1.9675,-3.9888 0.3739,-2.6269 1.0594,-2.7511 18.5133,-3.3529 l 18.125,-0.625 0.3165,-12.5 c 0.3977,-15.7098 -0.6415,-18.026 -9.0665,-20.2081 -3.4375,-0.8903 -8.2469,-1.6296 -10.6875,-1.6428 -6.5067,-0.035 -7.4375,-1.6809 -7.4375,-13.1491 0,-5.8017 -0.5973,-10.7223 -1.3988,-11.5239 -1.4808,-1.4807 -11.3922,-56.369 -10.4532,-57.8884 0.3025,-0.4894 2.3628,-1.2524 4.5784,-1.6955 2.2156,-0.4431 5.1805,-1.867 6.5885,-3.1641 2.6662,-2.4561 32.621,-15.0264 58.3949,-24.505 8.9241,-3.2819 21.0739,-6.5792 30.1769,-8.1897 8.3811,-1.4828 32.3946,-7.4766 53.3633,-13.3197 49.4941,-13.7919 75.7281,-19.6764 138.0233,-30.96 31.4458,-5.6958 51.8304,-9.9467 52.9192,-11.0354 1.0352,-1.0353 6.9342,-26.8922 14.2005,-62.2446 10.5925,-51.5357 12.8486,-60.8939 15.2645,-63.3165 2.6824,-2.6899 4.9838,-3.0083 42.7762,-5.9198 33.9261,-2.6136 48.2244,-3.0786 94.94128,-3.0877 32.42781,-0.01 56.82468,0.4961 59.44606,1.2243 5.10843,1.4192 10.37388,6.4393 12.45622,11.876 0.78997,2.0625 3.58025,23.3513 6.20061,47.3086 2.62036,23.9572 5.33172,44.126 6.02526,44.8195 0.84795,0.848 11.43272,0.6066 32.3164,-0.7369 39.61749,-2.5488 82.66306,-4.4406 109.97529,-4.8333 19.0252,-0.2735 21.69525,-0.06 23.88327,1.9111 2.69005,2.4232 4.6195,1.2722 5.49988,-3.2808 0.34002,-1.7585 7.14941,-4.8252 28.4491,-12.8125 l 28.00208,-10.5007 26.37292,-0.013 c 14.5051,-0.01 32.95923,-0.5908 41.00918,-1.2971 14.41277,-1.2645 14.73182,-1.2356 20.89593,1.8879 6.90985,3.5015 10.08275,3.9321 12.34015,1.6747 0.82354,-0.8235 5.01417,-1.8644 9.3125,-2.313 6.18019,-0.645 9.64569,-1.9429 16.56515,-6.2039 11.89553,-7.3253 41.40495,-21.2358 45.04925,-21.2358 4.22994,0 34.33674,-10.8179 36.03154,-12.9467 1.6484,-2.0706 33.79102,-9.9015 50.05224,-12.1943 10.37736,-1.4631 11.22106,-1.8029 12.42986,-5.0053 1.74539,-4.6241 4.93911,-4.9724 46.43711,-5.0639 30.19655,-0.067 35.85575,0.2578 53.75,3.0807 43.43,6.8512 77.62587,17.748 118.525,37.769 l 12.275,6.0089 8.92737,-4.2617 c 4.91001,-2.3439 13.951,-7.5385 20.09126,-11.5435 17.77662,-11.5951 10.33362,-11.6732 154.834371,1.6235 66.87838,6.1541 124.128249,11.4833 127.221999,11.8429 3.09375,0.3595 6.29625,0.2265 7.11675,-0.2955 0.8205,-0.522 2.198,-3.7481 3.06125,-7.1691 2.31638,-9.1798 3.953,-10.5982 12.20325,-10.5767 9.6135,0.025 63.62388,6.9123 68.23825,8.7015 4.603,1.7847 11.8805,7.221 11.8805,8.8748 0,0.6695 -1.40625,1.752 -3.125,2.4054 -2.36375,0.8988 -3.125,2.0912 -3.125,4.8953 0,2.039 0.46125,3.9922 1.02488,4.3406 0.56375,0.3484 13.92312,2.413 29.6875,4.5879 15.7645,2.175 29.30512,4.3138 30.09037,4.7529 0.78525,0.4391 5.021,5.2983 9.41263,10.7983 l 7.98475,10 57.46237,0.6566 c 31.60439,0.3612 57.63869,0.783 57.85419,0.9375 0.2154,0.1545 0.2154,2.1091 0,4.3434 -0.3583,3.7164 -0.8178,4.1158 -5.3917,4.6875 -5.8306,0.7289 -6.4954,3.002 -1.875,6.4108 3.0384,2.2417 4.4592,2.2374 51.25,-0.1541 26.4687,-1.3528 71.4687,-3.5692 100,-4.9254 l 51.875,-2.4657 31.875,13.7641 c 37.7596,16.3053 45.4891,19.7866 71.9545,32.4081 l 20.0796,9.576 19.6061,37.1939 c 22.0545,41.8386 25.8483,51.7533 25.8789,67.6318 0.025,13.0882 0.6826,14.06 8.1581,12.0606 6.5252,-1.7452 17.9814,-0.8426 19.9478,1.5716 0.6875,0.8441 3.3942,2.2409 6.015,3.104 2.803,0.9232 5.1876,2.6808 5.7912,4.2687 1.2719,3.345 0.9623,58.3549 -0.3402,60.4587 -0.5203,0.8404 -3.1724,2.1951 -5.8935,3.0103 -2.7211,0.8153 -4.9475,1.879 -4.9475,2.3637 0,1.481 -14.7254,4.1041 -17.1253,3.0506 -1.2373,-0.5431 -6.7497,-1.1625 -12.2497,-1.3764 -5.5,-0.2138 -11.9688,-0.5435 -14.375,-0.7325 -4.0214,-0.316 -4.577,0.076 -6.875,4.8543 -1.3938,2.8981 -13.3778,16.7254 -27.084,31.25 -16.8944,17.9032 -28.7216,31.7856 -37.8125,44.3826 -13.2654,18.3817 -15.2204,22.8352 -11.4118,25.996 0.9993,0.8293 2.7003,4.5469 3.7802,8.2615 2.0276,6.9748 6.0056,10.5368 11.7672,10.5368 1.3686,0 2.8623,0.605 3.3193,1.3444 0.5371,0.8692 7.0808,1.2887 18.5112,1.187 9.7243,-0.087 29.4929,0.2928 43.9304,0.8431 l 26.25,1.0005 0,20.625 0,20.625 -78.4053,0.1327 c -63.1621,0.1068 -78.7937,0.4551 -80.4037,1.7914 -1.0994,0.9123 -3.0933,3.8041 -4.4309,6.4262 -3.3669,6.5997 -14.9691,17.8922 -22.085,21.4956 -18.625,9.4313 -40.0139,9.3764 -56.4759,-0.145 -3.0528,-1.7658 -9.1005,-6.3583 -13.4391,-10.2057 -14.717,-13.0506 -18.7807,-16.3702 -20.0406,-16.3702 -0.6915,0 -2.7865,1.2028 -4.6554,2.6729 l -3.398,2.6729 -7.7417,-7.6729 c -8.7113,-8.6338 -11.4533,-9.4825 -12.6744,-3.9229 -0.5665,2.5791 -1.5733,3.75 -3.2244,3.75 -2.1954,0 -2.4006,-0.9936 -2.4006,-11.625 0,-7.375 -0.5484,-12.1733 -1.5,-13.125 -2.1028,-2.1027 -41.1473,-2.1027 -43.25,0 -0.825,0.825 -1.5179,3.4969 -1.5398,5.9375 -0.021,2.4407 -0.8163,5.462 -1.7655,6.7142 -0.9491,1.2521 -14.5718,7.6137 -30.2727,14.1368 -24.0244,9.9813 -41.32012,15.7952 -109.17199,36.698 -44.34375,13.6607 -84.84375,26.0214 -90,27.4681 -8.52575,2.3922 -19.09688,3.0118 -116.689,6.8395 -70.922379,2.7817 -107.7798789,4.6748 -108.6874989,5.5825 -0.86413,0.864 -0.93313,1.7915 -0.186,2.5007 0.65312,0.62 12.9121199,4.2352 27.2421199,8.0338 14.33013,3.7986 26.39263,7.2445 26.80563,7.6575 0.413,0.413 -0.34288,1.8077 -1.67975,3.0993 -1.92213,1.8572 -31.89088,7.9934 -143.296754,29.3402 -77.476377,14.8456 -142.445127,26.9942 -144.374997,26.997 -5.27463,0.01 -41.55491,7.3587 -44.60299,9.0374 -1.59202,0.8768 -11.56145,1.737 -24.88994,2.1476 -24.76552,0.7629 -24.58845,0.6945 -24.62168,9.5159 -0.0172,4.5779 -0.45657,5.2896 -4.43655,7.1875 -3.67142,1.7508 -8.50556,2.1065 -28.62554,2.1065 l -24.20812,0 -11.06197,5.1125 c -39.10445,18.0725 -82.11042,26.1805 -124.81196,23.531 z"
         id="path4149"
         inkscape:connector-curvature="0" />
    </g>
  </g>
</svg>
