<?xml version="1.0" encoding="UTF-8" standalone="no"?>
<svg
   xmlns:dc="http://purl.org/dc/elements/1.1/"
   xmlns:cc="http://creativecommons.org/ns#"
   xmlns:rdf="http://www.w3.org/1999/02/22-rdf-syntax-ns#"
   xmlns:svg="http://www.w3.org/2000/svg"
   xmlns="http://www.w3.org/2000/svg"
   id="svg8"
   version="1.1"
   viewBox="0 0 7.7691369 3.3508229"
   width="23.31">
  <defs
     id="defs2" />
  <metadata
     id="metadata5">
    <rdf:RDF>
      <cc:Work
         rdf:about="">
        <dc:format>image/svg+xml</dc:format>
        <dc:type
           rdf:resource="http://purl.org/dc/dcmitype/StillImage" />
        <dc:title></dc:title>
      </cc:Work>
    </rdf:RDF>
  </metadata>
  <g
     transform="translate(192.11064,-257.38911)"
     id="layer1">
    <path
       id="path826"
       d="m -191.29932,260.72953 c -0.0912,-0.0145 -0.1386,-0.0272 -0.21972,-0.0591 -0.10951,-0.0431 -0.23086,-0.12342 -0.31563,-0.20895 -0.12223,-0.12334 -0.21445,-0.28886 -0.25064,-0.44989 -0.0325,-0.14466 -0.0336,-0.26241 -0.004,-0.41488 0.0239,-0.12273 0.0923,-0.27266 0.16935,-0.37134 0.0355,-0.0454 0.0825,-0.0975 0.11009,-0.12184 0.0139,-0.0122 0.0279,-0.0248 0.0311,-0.0279 0.005,-0.005 -0.003,-0.0183 -0.0531,-0.0943 -0.0419,-0.0629 -0.0612,-0.0959 -0.0665,-0.11353 -0.007,-0.0237 -0.007,-0.0437 -0.003,-0.44868 0.005,-0.41394 0.005,-0.42398 0.0129,-0.43002 0.0135,-0.0102 -0.0122,10e-4 0.53302,-0.236 l 0.24271,-0.10559 0.002,-0.0928 c 0.002,-0.0771 0.003,-0.095 0.009,-0.10577 0.0232,-0.0424 0.0795,-0.0549 0.11894,-0.0263 0.0273,0.0198 0.0313,0.0313 0.0337,0.0961 l 0.002,0.0568 0.0996,-0.0435 c 0.13999,-0.0611 0.13987,-0.0611 0.28628,-0.0764 0.0685,-0.007 0.23369,-0.0251 0.36718,-0.0399 0.22453,-0.0249 0.24924,-0.0269 0.32984,-0.0266 0.10886,3.7e-4 0.41902,0.006 0.66165,0.0128 0.10148,0.003 0.21863,0.004 0.26035,0.002 0.0545,-0.002 0.0758,-0.002 0.0758,0.002 0,0.003 0.0245,0.004 0.0819,0.004 0.0451,-2e-4 0.27331,0.003 0.50721,0.008 0.2339,0.005 0.51302,0.009 0.62027,0.0108 0.10726,10e-4 0.28556,0.004 0.39623,0.007 0.11068,0.002 0.26844,0.005 0.35059,0.006 0.0821,0.001 0.1699,0.004 0.195,0.007 0.0799,0.008 1.26054,0.18626 1.27924,0.19334 0.0283,0.0107 0.12149,0.0701 0.12682,0.0808 0.004,0.009 0.009,0.01 0.04,0.0125 0.0193,0.002 0.0392,0.004 0.0442,0.006 0.005,0.002 0.0239,0.0169 0.042,0.0333 0.032,0.029 0.043,0.0475 0.0338,0.0569 -0.002,0.002 0.005,0.0137 0.0172,0.0279 0.0134,0.0155 0.0202,0.0267 0.0189,0.0315 -10e-4,0.005 0.007,0.0152 0.0277,0.034 0.13928,0.12499 0.59378,0.54268 0.60764,0.55842 0.01,0.011 0.0232,0.0298 0.0301,0.0419 0.0126,0.022 0.0329,0.0752 0.0329,0.0861 0,0.003 0.008,0.008 0.0182,0.0104 0.0118,0.003 0.0247,0.0108 0.0366,0.0223 l 0.0184,0.0177 -0.003,0.0892 c -0.004,0.10391 -0.009,0.12889 -0.0301,0.15517 -0.008,0.0101 -0.0151,0.0215 -0.0151,0.0252 0,0.004 -0.003,0.006 -0.007,0.006 -0.005,-8e-4 -0.007,0.001 -0.007,0.007 0,0.004 -0.004,0.009 -0.008,0.0108 -0.005,0.002 -0.008,0.006 -0.008,0.0108 0,0.004 -0.003,0.008 -0.007,0.008 -0.004,3e-5 -0.009,0.002 -0.0124,0.005 -0.003,0.003 -0.008,0.005 -0.01,0.006 -0.002,8.7e-4 -0.0197,0.0184 -0.0388,0.0389 -0.0191,0.0205 -0.0436,0.0467 -0.0545,0.0581 -0.0924,0.0967 -0.37261,0.40508 -0.37836,0.41636 -0.004,0.008 -0.006,0.0159 -0.005,0.0178 0.004,0.007 0.0128,0.003 0.0176,-0.007 0.006,-0.0128 0.0247,-0.0211 0.0345,-0.015 0.007,0.004 0.0101,0.004 0.0425,-0.004 0.0159,-0.004 0.016,-0.004 0.0134,-0.0206 -0.002,-0.0131 -8.6e-4,-0.0189 0.006,-0.0277 0.005,-0.006 0.012,-0.0158 0.0162,-0.0214 0.007,-0.009 0.0115,-0.0105 0.0391,-0.0118 l 0.0314,-0.002 0.001,-0.0276 0.001,-0.0276 0.0508,-0.002 0.0508,-0.002 0.0564,-0.0456 c 0.0937,-0.0759 0.1223,-0.0966 0.13604,-0.0986 0.019,-0.003 0.0506,0.008 0.0605,0.0205 0.0125,0.0159 0.0109,0.0391 -0.008,0.11759 -0.0136,0.0557 -0.0178,0.0831 -0.0227,0.14729 -0.007,0.0902 -0.0118,0.11851 -0.0239,0.13899 -0.0114,0.0192 -0.087,0.11035 -0.10615,0.12794 -0.0327,0.03 -0.0487,0.038 -0.0765,0.0381 -0.0387,9e-5 -0.0444,0.003 -0.0444,0.0189 0,0.008 -0.002,0.0148 -0.004,0.0161 -0.002,10e-4 -0.005,0.0112 -0.006,0.022 -0.005,0.0325 -0.0158,0.0632 -0.0269,0.0744 -0.0143,0.0143 -0.0322,0.0115 -0.0797,-0.0128 -0.0344,-0.0176 -0.038,-0.0186 -0.0484,-0.0135 -0.006,0.003 -0.0271,0.008 -0.0464,0.0106 -0.0845,0.0121 -0.0871,0.0128 -0.0871,0.024 0,0.0173 -0.0203,0.10948 -0.0317,0.14452 -0.0504,0.15359 -0.12496,0.27583 -0.23555,0.38605 -0.15465,0.15414 -0.33584,0.24131 -0.56458,0.27165 -0.0578,0.008 -0.19521,0.003 -0.25917,-0.008 -0.0691,-0.0124 -0.0999,-0.0206 -0.16403,-0.0436 -0.16914,-0.0606 -0.30933,-0.16339 -0.42981,-0.31514 -0.0928,-0.11682 -0.16779,-0.29804 -0.18447,-0.44549 -0.003,-0.024 -0.004,-0.0258 -0.0117,-0.0233 -0.005,10e-4 -0.0106,0.004 -0.0127,0.006 -0.002,0.002 -0.0297,0.004 -0.0612,0.004 h -0.0573 v 0.0188 0.0188 l -0.0425,-10e-4 -0.0425,-0.001 -10e-4,-0.0197 -0.001,-0.0197 h -0.38333 -0.38333 l -0.001,0.0197 -0.001,0.0197 -0.0423,0.001 -0.0423,10e-4 -0.001,-0.0198 -0.001,-0.0199 -0.0636,-0.002 -0.0636,-0.002 -0.012,-0.0135 -0.012,-0.0135 h -0.0513 -0.0513 l -0.005,0.0363 c -0.0148,0.10749 -0.0487,0.22038 -0.0905,0.30184 -0.0969,0.18875 -0.22674,0.32054 -0.41606,0.42229 -0.0608,0.0327 -0.16116,0.0678 -0.23857,0.0835 -0.085,0.0172 -0.11846,0.0201 -0.21367,0.0181 -0.0748,-0.002 -0.099,-0.004 -0.14936,-0.0133 -0.22885,-0.0435 -0.42497,-0.16189 -0.57103,-0.34457 -0.0854,-0.10676 -0.15406,-0.25085 -0.18001,-0.37756 -0.007,-0.0342 -0.0207,-0.11648 -0.0207,-0.12444 0,-0.001 -0.04,-0.002 -0.0889,-0.002 h -0.0889 l -0.002,0.0114 c -0.001,0.006 -0.004,0.0245 -0.007,0.0404 -0.0258,0.17323 -0.0913,0.32545 -0.19656,0.45639 -0.12154,0.15122 -0.27296,0.25389 -0.46725,0.31679 -0.0324,0.0105 -0.0716,0.0188 -0.13984,0.0298 -0.067,0.0107 -0.19723,0.0108 -0.26486,4e-5 z m 0.58622,-0.6 c 0.0338,-0.0463 0.0719,-0.12096 0.084,-0.16447 0.004,-0.0159 0.009,-0.0326 0.0106,-0.037 0.002,-0.005 -0.009,10e-4 -0.0313,0.0192 l -0.0339,0.0273 -0.0318,-10e-4 -0.0318,-0.001 -0.002,-0.0498 c -0.001,-0.0291 -0.003,0.0127 -0.003,0.10096 -6.6e-4,0.11902 2.6e-4,0.15039 0.004,0.14907 0.003,-9.2e-4 0.0187,-0.0202 0.0353,-0.0429 z m 2.07171,-0.0111 c 0.0459,-0.0651 0.0799,-0.14592 0.0947,-0.22502 l 0.004,-0.0187 h -0.0721 -0.0721 v 0.15 0.15001 l 0.009,-0.008 c 0.005,-0.004 0.0216,-0.0261 0.0373,-0.0484 z m 2.34286,-0.27098 c -6e-4,-5.9e-4 -0.0328,0.001 -0.0716,0.004 l -0.0705,0.005 0.001,0.0207 c 0.002,0.0342 0.0251,0.10906 0.0484,0.15837 0.0209,0.0442 0.044,0.0809 0.0765,0.12158 l 0.0148,0.0186 10e-4,-0.16338 c 6e-4,-0.0899 6e-4,-0.16386 0,-0.16444 z m 1.60519,0.0387 c 0.007,-0.0197 0.0103,-0.0787 0.005,-0.084 -0.004,-0.004 -0.0325,0.003 -0.0382,0.01 -0.003,0.004 -0.0177,0.0194 -0.032,0.0348 -0.0143,0.0154 -0.0252,0.0288 -0.0242,0.0296 0.008,0.008 0.061,0.0315 0.0702,0.0315 0.0105,0 0.0126,-0.002 0.0193,-0.0218 z m 0.18418,-0.4066 c 0.017,-0.0356 0.0223,-0.0574 0.0269,-0.11251 l 0.003,-0.0326 -0.0263,0.0219 c -0.0145,0.012 -0.0262,0.0244 -0.026,0.0274 1.9e-4,0.003 6.5e-4,0.0335 0.001,0.0678 3.8e-4,0.0342 0.002,0.0622 0.003,0.0622 0.001,0 0.01,-0.0154 0.0186,-0.0342 z m -6.49896,-1.94747 c 0.0163,-0.008 0.0264,-0.0242 0.0264,-0.043 0,-0.007 -0.003,-0.0181 -0.006,-0.0245 -0.006,-0.0117 -0.0284,-0.0252 -0.0417,-0.0252 -0.0132,0 -0.0356,0.0136 -0.0417,0.0252 -0.013,0.0251 -0.003,0.0581 0.0202,0.0683 0.0174,0.008 0.0257,0.007 0.0429,-7.1e-4 z"
       style="fill:#000000;stroke-width:0.00414898" />
  </g>
</svg>
