<?xml version="1.0" encoding="UTF-8" standalone="no"?>
<svg
   xmlns:dc="http://purl.org/dc/elements/1.1/"
   xmlns:cc="http://creativecommons.org/ns#"
   xmlns:rdf="http://www.w3.org/1999/02/22-rdf-syntax-ns#"
   xmlns:svg="http://www.w3.org/2000/svg"
   xmlns="http://www.w3.org/2000/svg"
   version="1.1"
   id="svg2"
   viewBox="0 0 38 8.860345"
   width="114">
  <defs
     id="defs4" />
  <metadata
     id="metadata7">
    <rdf:RDF>
      <cc:Work
         rdf:about="">
        <dc:format>image/svg+xml</dc:format>
        <dc:type
           rdf:resource="http://purl.org/dc/dcmitype/StillImage" />
        <dc:title></dc:title>
      </cc:Work>
    </rdf:RDF>
  </metadata>
  <g
     transform="translate(829.16761,-758.954)"
     id="layer1">
    <g
       transform="matrix(0.01625359,0,0,0.01625359,-820.6295,755.53903)"
       id="g4147">
      <path
         id="path4155"
         d="m 1293.6867,751.00805 c 0.47,-2.32583 1.1709,-9.98767 1.5575,-17.02632 0.7537,-13.72061 1.0304,-13.05336 -6.0551,-14.60007 -5.2779,-1.15213 -18.5244,-15.76368 -18.5244,-20.43339 0,-5.41256 -1.0447,-5.51344 -55.559,-5.36459 -28.5571,0.078 -52.7424,0.45656 -53.745,0.84131 -1.1957,0.45885 -1.9516,2.9196 -2.197,7.15192 -0.3251,5.60821 -0.7426,6.50471 -3.1921,6.85253 -1.6904,0.24003 -3.1195,-0.38525 -3.5712,-1.5625 -1.0604,-2.76351 -2.3663,-2.44133 -3.9192,0.96694 -2.6776,5.87675 -21.9418,7.2553 -46.4062,3.32084 -9.369,-1.50676 -11.6595,-1.44805 -21.8757,0.56066 -12.1431,2.38758 -22.9093,2.2349 -38.7751,-0.54986 -6.9111,-1.21304 -10.4968,-1.1842 -18.125,0.14577 -5.2302,0.91188 -15.1345,1.65797 -22.0095,1.65797 -6.87498,0 -16.77923,-0.74609 -22.00948,-1.65797 -7.84438,-1.36767 -11.018,-1.37306 -18.125,-0.0307 -5.71638,1.07963 -23.43437,1.76812 -52.653,2.04598 -37.67712,0.3583 -45.07925,0.12631 -51.25,-1.60615 -11.903,-3.3418 -28.86037,-5.47546 -43.88725,-5.5221 -12.3465,-0.0383 -15.57075,-0.51953 -25,-3.73127 -21.10525,-7.18885 -24.80687,-7.83544 -50.82525,-8.87793 -13.75,-0.55092 -32.875,-1.6109 -42.5,-2.3555 -11.61179,-0.8983 -77.01295,-1.28096 -194.375,-1.13729 l -176.87499,0.21653 -105.00001,-5.84148 C 77.702175,676.62226 74.771125,676.42875 71.575525,674.75197 c -1.53219,-0.80396 -8.48375,-5.59857 -15.4479,-10.65469 l -12.66211,-9.19297 -9.21289,-0.005 c -6.83874,-0.004 -10.21461,-0.6155 -13.10001,-2.37496 -2.13792,-1.30367 -6.91917,-3.00044 -10.625,-3.7706 -3.7058403,-0.77017 -9.6748103,-2.7618 -13.2643903,-4.42585 -3.58958,-1.66405 -79.1926597,-48.9942 -168.0068747,-105.17811 -115.20452,-72.87844 -162.94709,-102.43691 -166.59851,-103.14476 -7.65651,-1.48425 -69.18953,-1.35353 -70.11812,0.14895 -0.49183,0.79578 -17.08165,1.25 -45.65479,1.25 -43.09445,0 -44.93379,-0.0962 -46.17623,-2.41782 -0.71169,-1.3298 -1.30166,-4.00167 -1.31105,-5.9375 -0.038,-7.82996 -1.07163,-9.14435 -7.19155,-9.14435 -5.08974,0 -6.20429,-0.56877 -10.94111,-5.58346 l -5.27409,-5.58348 -0.90067,-15.0903 c -0.67279,-11.27246 -0.50943,-15.56171 0.64569,-16.95355 1.21148,-1.45975 1.22169,-2.57581 0.0471,-5.15365 -1.94038,-4.25868 -0.82383,-5.32805 10.50666,-10.06261 7.41598,-3.09885 8.8102,-4.16349 9.1449,-6.98315 0.31965,-2.69289 -0.46734,-3.83561 -4.12978,-5.9965 -3.62972,-2.14159 -4.44957,-3.31729 -4.14491,-5.94396 0.35844,-3.09029 0.81297,-3.2951 8.08645,-3.64374 4.23867,-0.20318 8.25397,-1.04693 8.9229,-1.875 0.66892,-0.82808 6.33628,-19.20345 12.59412,-40.83416 6.73222,-23.27044 12.27584,-40.21188 13.5771,-41.49193 1.77301,-1.74409 6.31746,-2.44435 23.44922,-3.61329 11.6875,-0.79746 21.78437,-1.95422 22.4375,-2.57058 1.34587,-1.2701 41.6135,-1.51319 51.61707,-0.3116 4.8312,0.58031 7.7334,1.80991 11.03809,4.67663 l 4.48352,3.88933 5.31328,33.125 c 4.30555,26.84249 5.698,33.19955 7.34176,33.51805 1.11568,0.21619 10.35131,-0.74971 20.52364,-2.14645 24.52297,-3.36717 49.38977,-6.05724 64.74514,-7.00405 19.76387,-1.21865 66.67446,-7.85955 75.89343,-10.74386 5.85062,-1.83046 12.66709,-2.7552 22.5,-3.0524 15.00623,-0.45356 26.78485,-2.07528 30.84151,-4.24634 1.36164,-0.72873 5.00732,-1.32495 8.1015,-1.32495 7.19775,0 11.61538,-1.69747 12.61512,-4.84737 0.76598,-2.41344 8.60431,-5.7648 15.545775,-6.64679 3.07823,-0.39111 3.40308,-0.81049 6.83078,-8.81834 1.70667,-3.98717 2.58945,-4.6875 5.90874,-4.6875 2.14626,0 7.32263,-0.8863 11.50305,-1.96956 5.71856,-1.48183 8.33153,-1.63659 10.55175,-0.625 1.62303,0.73951 10.13863,1.34456 18.92354,1.34456 16.74038,0 32.3608397,-2.24061 56.65763,-8.127 11.04278,-2.67534 15.81529,-3.12174 33.50218,-3.13359 19.07949,-0.0127 21.10341,-0.2366 27.00959,-2.9867 3.51153,-1.63506 8.84561,-3.38863 11.85349,-3.89681 6.06299,-1.02434 8.53738,-3.37532 8.59716,-8.1684 0.072,-5.77254 1.63632,-6.1875 23.325465,-6.1875 21.45636,0 21.44375,-0.002 25.91712,6.38354 1.71918,2.45446 3.03335,2.50827 58.71569,2.40459 55.98715,-0.10425 56.98026,-0.0629 58.31331,2.4279 1.1657,2.17815 2.596,2.53397 10.18573,2.53397 5.4611,0 10.41884,0.75414 12.99532,1.97675 4.23495,2.00961 17.02968,1.94497 26.60487,-0.1344 2.70204,-0.58679 5.74503,-0.2492 8.75,0.97069 6.26374,2.54281 16.01915,4.7692 17.99188,4.10611 5.3478,-1.79755 70.28525,-5.14984 93.49037,-4.82629 85.06337,1.18605 176.25,1.74087 176.25,1.07238 0,-0.45628 -0.58282,-1.91858 -1.29513,-3.24957 -0.71232,-1.33097 -1.78803,-7.90337 -2.39046,-14.60532 -0.60243,-6.70194 -1.28524,-13.31035 -1.51737,-14.68535 -0.3966,-2.34928 0.36645,-2.52165 12.65609,-2.85916 9.16825,-0.25179 13.66866,-0.89359 15.0534,-2.14675 1.48713,-1.34584 5.74257,-1.7849 17.22009,-1.77673 8.38466,0.006 16.23564,-0.50562 17.44661,-1.1369 1.21096,-0.63126 9.69258,-1.55131 18.84803,-2.04455 14.87449,-0.80134 16.90336,-0.66405 19.06248,1.28989 1.32901,1.20266 2.41626,3.19129 2.41626,4.41916 0,1.22788 0.70312,2.67424 1.5625,3.21415 0.85937,0.53991 10.28125,1.95643 20.9375,3.14781 23.42324,2.61874 36.25,4.8213 36.25,6.22472 0,0.57385 -1.12501,1.04336 -2.5,1.04336 -3.25701,0 -3.23738,2.54122 0.0262,3.3947 1.90613,0.49846 2.19601,1.05871 1.18063,2.28207 -0.97712,1.17739 -0.89875,1.90579 0.28613,2.65983 0.8975,0.57112 2.49012,2.71324 3.539,4.76026 1.049,2.04704 3.66837,4.90873 5.82087,6.3593 3.71938,2.50653 5.95988,2.6763 45.13988,3.42045 38.21962,0.7259 44.03975,1.14698 79.80425,5.77364 21.21775,2.74486 67.79262,8.46136 103.49946,12.70334 61.111,7.25997 65.1465,7.59625 68.75,5.72888 3.0954,-1.60396 5.5038,-1.78 12.5784,-0.9194 4.8125,0.58543 10.1738,1.62747 11.9138,2.31565 3.5323,1.397 23.9517,3.53182 28.5431,2.98412 1.6262,-0.194 5.0012,1.0574 7.5,2.78088 3.6892,2.54465 7.1844,3.4182 18.5957,4.64767 12.4753,1.34411 14.2993,1.29077 16.2507,-0.47515 1.8681,-1.69072 5.3865,-1.92867 23.4473,-1.58579 14.6545,0.2782 22.8012,0.97142 26.2494,2.23366 2.75,1.00664 9.7813,2.22133 15.625,2.6993 13.7899,1.1279 15,1.54028 15,5.11159 0,3.95686 3.0025,4.80996 17.5,4.9722 6.5313,0.0731 13.2813,0.7959 15,1.60625 5.0031,2.35887 33.7058,5.34537 36.2289,3.76961 3.0297,-1.8921 10.413,-0.18396 13.4362,3.10858 1.4108,1.53635 2.9518,4.62201 3.4245,6.85703 0.5874,2.77724 1.7184,4.24595 3.5725,4.63943 7.3228,1.55406 85.8728,11.05374 86.4691,10.4574 0.378,-0.37793 1.441,-5.02225 2.3624,-10.32071 0.9213,-5.29845 2.1716,-10.11329 2.7783,-10.69962 0.6068,-0.58633 3.8098,-0.75253 7.1179,-0.36933 5.8419,0.67667 6.2946,1.0423 15.7469,12.71415 12.7674,15.76552 12.4892,15.5636 20.0124,14.5289 4.6011,-0.63283 7.1355,-0.34512 9.7245,1.10397 1.9258,1.07791 12.2202,3.96268 22.8765,6.41058 27.3648,6.28613 28.75,6.70863 28.75,8.76973 0,2.08009 -5.092,2.27707 -16.25,0.62864 -3.7813,-0.55862 -7.315,-0.61194 -7.8528,-0.1185 -0.7337,0.67324 8.0159,13.05181 12.3456,17.46609 0.2829,0.28844 9.0909,1.79857 19.5733,3.35586 30.1562,4.48006 173.6446,30.56978 177.9407,32.354 2.6942,1.1189 8.6639,7.86971 19.5112,22.06394 21.778,28.4978 21.004,27.78479 32.232,29.69211 16.5113,2.80484 18.75,3.62921 18.75,6.90478 0,1.60807 0.81,3.59598 1.8,4.4176 0.9898,0.8216 1.9742,2.71557 2.1875,4.20881 0.4071,2.85229 5.5841,5.99854 13.6965,8.32384 5.5231,1.58313 6.5107,3.73578 4.7366,10.32418 -0.7444,2.76478 -1.532,10.26554 -1.7501,16.66839 -0.3297,9.67558 -0.8722,12.30926 -3.2122,15.5955 -2.4973,3.5072 -3.325,3.87604 -7.3243,3.26426 -14.9297,-2.28366 -19.8084,-2.34372 -22.954,-0.2826 -2.095,1.37267 -4.2993,1.78934 -6.5189,1.23225 -2.7401,-0.6877 -4.1938,-0.0424 -7.9449,3.5273 -2.5252,2.40297 -6.4374,4.98308 -8.6937,5.73358 -2.2563,0.75051 -7.3624,4.20006 -11.3469,7.66566 l -7.2446,6.3011 -12.0317,0 c -11.8886,0 -18.8817,1.66005 -18.0213,4.27789 0.2436,0.74091 1.805,1.54445 3.4698,1.78564 3.7609,0.54481 4.8585,2.19247 4.883,7.33 0.026,5.43438 -2.6305,6.60647 -14.9725,6.60647 -6.4522,0 -9.8742,0.45585 -9.3833,1.25 0.4248,0.6875 2.7267,1.25 5.1153,1.25 2.3885,0 7.1463,1.42063 10.5727,3.15694 5.9828,3.03177 7.0727,3.15056 27.488,2.99642 15.1477,-0.11437 21.7885,0.27974 23.1035,1.37113 2.5916,2.15082 2.3677,8.25186 -0.342,9.32166 -1.2032,0.475 -11.5998,0.80206 -23.1035,0.7268 -20.0267,-0.131 -21.181,-0.002 -27.146,3.02011 -4.1069,2.08115 -8.2887,3.15694 -12.2715,3.15694 -3.3228,0 -6.6527,0.61116 -7.3997,1.35814 -1.3025,1.30246 -7.664,1.11936 -25.3918,-0.73086 -13.3533,-1.39365 -12.5,-0.54028 -12.5,-12.50228 0,-10.24004 0.1,-10.60239 3.125,-11.3617 4.3327,-1.08745 3.9187,-3.0133 -0.6478,-3.0133 -4.1832,0 -28.7272,11.78388 -28.7272,13.79234 0,0.69825 -1.2944,1.76167 -2.8765,2.36319 -1.5822,0.6015 -5.4807,2.85117 -8.6635,4.99926 -4.3937,2.96524 -8.7424,4.43957 -18.061,6.12325 -12.0753,2.18172 -12.6182,2.43435 -33.524,15.59896 -16.0605,10.11343 -21.8605,14.45438 -23.75,17.77518 -1.9425,3.41412 -8.4828,8.15145 -29.3314,21.24583 l -26.8311,16.85203 -8.1688,0.005 c -5.9572,0.004 -9.2766,0.6802 -12.2614,2.5 -2.9675,1.80931 -6.2977,2.49532 -12.1137,2.49532 -4.4115,0 -8.3194,0.48294 -8.6843,1.07319 -0.3647,0.59025 3.4797,5.09025 8.543,10 l 9.2063,8.92681 7.7155,0 c 4.2434,0 8.8067,-0.58407 10.1406,-1.29794 1.6466,-0.88129 3.9276,-0.89636 7.1053,-0.047 2.5741,0.68804 7.4926,1.63831 10.9301,2.11168 4.7177,0.64968 5.5424,1.04426 3.3637,1.60945 -1.5875,0.41183 -2.8862,1.31126 -2.8862,1.99876 0,0.6875 1.2987,1.59446 2.8862,2.01544 2.9015,0.76949 2.7447,0.93003 -2.7387,2.8014 -1.3831,0.47203 -1.1371,0.8642 0.9375,1.49483 8.7346,2.65505 -3.064,4.74731 -25.1484,4.4596 l -16.0857,-0.20958 -25.6243,19.40667 -25.6242,19.40665 -20.6915,0 c -17.1323,0 -21.0682,0.34083 -22.881,1.98141 -1.9127,1.73091 -3.3629,1.79211 -11.4714,0.48406 -5.1052,-0.82354 -12.0393,-1.13052 -15.4091,-0.6822 -3.3698,0.44834 -7.9551,0.77693 -10.1895,0.73023 -14.2678,-0.29828 -17.6298,-0.19834 -21.4162,0.63658 l -4.2288,0.93248 0.8545,-4.22879 z"
         style="fill:#000000;fill-opacity:1" />
    </g>
  </g>
</svg>
