<?xml version="1.0" encoding="UTF-8" standalone="no"?>
<!-- Created with Inkscape (http://www.inkscape.org/) -->

<svg
   xmlns:dc="http://purl.org/dc/elements/1.1/"
   xmlns:cc="http://creativecommons.org/ns#"
   xmlns:rdf="http://www.w3.org/1999/02/22-rdf-syntax-ns#"
   xmlns:svg="http://www.w3.org/2000/svg"
   xmlns="http://www.w3.org/2000/svg"
   xmlns:sodipodi="http://sodipodi.sourceforge.net/DTD/sodipodi-0.dtd"
   xmlns:inkscape="http://www.inkscape.org/namespaces/inkscape"
   width="128.43376"
   height="28.840187"
   id="svg3021"
   version="1.1"
   inkscape:version="0.48.5 r10040"
   sodipodi:docname="Vanguard.svg">
  <defs
     id="defs3023" />
  <sodipodi:namedview
     id="base"
     pagecolor="#ffffff"
     bordercolor="#666666"
     borderopacity="1.0"
     inkscape:pageopacity="0.0"
     inkscape:pageshadow="2"
     inkscape:zoom="11.2"
     inkscape:cx="71.365262"
     inkscape:cy="18.127645"
     inkscape:document-units="px"
     inkscape:current-layer="layer1"
     showgrid="false"
     fit-margin-top="0"
     fit-margin-left="0"
     fit-margin-right="0"
     fit-margin-bottom="0"
     inkscape:window-width="1920"
     inkscape:window-height="1018"
     inkscape:window-x="-8"
     inkscape:window-y="-8"
     inkscape:window-maximized="1"
     showguides="true"
     inkscape:guide-bbox="true" />
  <metadata
     id="metadata3026">
    <rdf:RDF>
      <cc:Work
         rdf:about="">
        <dc:format>image/svg+xml</dc:format>
        <dc:type
           rdf:resource="http://purl.org/dc/dcmitype/StillImage" />
        <dc:title />
      </cc:Work>
    </rdf:RDF>
  </metadata>
  <g
     inkscape:label="Layer 1"
     inkscape:groupmode="layer"
     id="layer1"
     transform="translate(588.57142,-709.1518)">
    <g
       id="g3040"
       transform="matrix(0.07056799,0,0,0.07056799,-555.30365,719.08137)">
      <path
         style="fill:#000000"
         d="m -174.42855,258.23667 c -26.675,-5.45802 -50.49187,-10.67121 -52.92639,-11.58486 -6.9055,-2.5916 -12.21836,-8.61199 -14.8795,-16.86106 -5.77336,-17.8964 -20.19411,-72.63138 -20.19411,-76.64815 0,-6.90497 3.78901,-9.90815 19.99965,-15.85172 7.2947,-2.67458 13.68895,-5.28873 14.20946,-5.80924 1.08312,-1.08312 2.73162,-7.60132 2.76703,-10.94089 0.0195,-1.83863 -0.52463,-2.25 -2.97614,-2.25 -2,0 -3,-0.5 -3,-1.5 0,-1.10863 -1.16115,-1.5 -4.45031,-1.5 -2.88896,0 -4.74084,-0.51914 -5.2784,-1.47971 -0.72499,-1.29548 -1.88283,-1.30744 -9.29969,-0.096 -7.46484,1.21924 -12.33388,1.15613 -40.9716,-0.53101 -17.875,-1.05307 -33.0625,-2.12073 -33.75,-2.37258 -0.92927,-0.34041 -1.25,-4.58854 -1.25,-16.556673 0,-14.86142 -0.13451,-16.05925 -1.75,-15.58448 -0.9625,0.28286 -5.35,1.01213 -9.75,1.6206 -6.40905,0.88631 -14.43914,0.71215 -40.37886,-0.87576 -17.80837,-1.09014 -32.78239,-2.38561 -33.2756,-2.87882 -0.49322,-0.49322 -0.77273,-8.27042 -0.62115,-17.28269 l 0.27561,-16.38593 3.29108,-2.21648 3.29107,-2.21648 -5.79107,-3.39307 c -4.31874,-2.53043 -12.27429,-5.12474 -31.29108,-10.20404 -14.025,-3.74602 -26.2875,-7.21737 -27.25,-7.7141 -1.39397,-0.71941 -1.75,-2.22274 -1.75,-7.3894001 0,-5.78955 0.24168,-6.58424 2.25,-7.39842 1.2375,-0.50169 15.975,-2.29005999 32.75,-3.97416 29.44003,-2.95559 72.78957,-9.7461799 71.24855,-11.1608899 -0.4117,-0.37796 -20.54855,-6.86927 -44.74855,-14.42513 -24.2,-7.55586 -45.96265,-14.65411 -48.36145,-15.77387 -2.46688,-1.15155 -5.61978,-3.77301 -7.25821,-6.03479 -3.36765,-4.6489 -5.65635,-11.34227 -4.29824,-12.5703 1.26686,-1.14552 86.13745,-72.949627 90.25059,-76.355817 l 3.32076,-2.75 22.893,0 c 15.64109,0 26.30791,0.50022 33.67328,1.5791 l 10.78027,1.5791 33.5,20.56278 c 18.425,11.30954 56.76789,34.929447 85.20643,52.488707 l 51.70643,31.92592 4.79357,-0.6762 c 2.63646,-0.37191 5.85311,-1.34362 7.14811,-2.15936 4.46447,-2.81222 52.085837,-6.23352 60.078007,-4.31623 2.58122,0.61922 17.26485,3.03611 32.63029,5.37085 l 27.9371602,4.24499 -0.042,2.73332 c -0.03,1.95514 0.53938,2.86396 2,3.19218 12.45593,2.79892 80.9480798,15.0320399 97.4255598,17.4007999 19.709473,2.83338 23.506493,3.07345 48.500003,3.06654 l 27.11644,-0.008 39.5,-8.9247199 c 21.725,-4.90859 74.6,-16.86176 117.5,-26.56259 42.9,-9.70082 78.9,-17.7537 80,-17.89527 1.1,-0.14158 2.675,-0.54789 3.5,-0.90291 2.57455,-1.10742 51.56072,-14.69901 52.97924,-14.69901 0.73974,0 4.98453,2.1375 9.43287,4.75 l 8.08789,4.75 29.7005,0.3165 c 28.0818,0.29925 29.8532,0.21046 32.5,-1.62889 2.5624,-1.78063 3.5004,-1.85546 11.0752,-0.88364 6.9674,0.8939 15.1881,0.54358 52,-2.21595 24.0484,-1.80274 43.8706,-3.41879 44.0493,-3.59123 0.1788,-0.17244 0.4235,-0.98436 0.5439,-1.80428 0.4315,-2.94052 2.8773,-4.69251 6.5506,-4.69251 l 3.6745,0 -0.1525,-4.80696 c -0.084,-2.64383 -0.9287,-7.14383 -1.8774,-10 l -1.7248,-5.19304 -13.4511,0 c -15.6148,0 -15.1533,0.32981 -13.7833,-9.849307 l 0.8951,-6.65069 13.5,-0.32363 13.5,-0.32363 4.5,-6.08622 c 2.475,-3.34742 5.506,-7.56863 6.7355,-9.38047 1.2295,-1.81184 3.9215,-4.43991 5.9821,-5.84015 3.3336,-2.26524 4.7463,-2.5459 12.8145,-2.5459 4.9874,0 9.5099,0.44204 10.0502,0.9823 0.5403,0.54027 2.7678,1.16328 4.95,1.38448 2.1822,0.2212 4.6427,0.61799 5.4677,0.88176 0.825,0.26378 4.875,1.48972 9,2.72432 10.4762,3.13549 18.4158,7.56411 25.6075,14.28347 l 6.1609,5.75632 26.0861,-0.0837 c 14.3474,-0.046 26.5891,0.22718 27.2039,0.60713 0.6148,0.37994 5.8575,0.36774 11.6506,-0.0271 9.1588,-0.62426 10.5975,-0.9652 11.0286,-2.61344 0.3023,-1.15606 1.3782,-1.89553 2.758,-1.89553 2.1542,0 2.2695,0.39297 2.4117,8.2195 0.2753,15.149127 -1.5249,20.020937 -5.3694,14.530497 -1.529,-2.18368 -2.157,-2.25958 -21.3067,-2.57504 -10.8521,-0.17877 -25.4687,-0.5706 -32.4812,-0.87072 -7.0125,-0.30012 -12.75,-0.24401 -12.75,0.1247 0,1.12486 3.1777,6.89158 4.5582,8.27216 0.7144,0.7144 1.9903,1.2989 2.8352,1.2989 2.0224,0 3.6066,3.09354 3.6066,7.04267 0,2.96012 0.1854,3.12851 2.75,2.49731 1.5125,-0.37226 6.2993,-2.75003 10.6373,-5.28393 l 7.8873,-4.60709 5.6127,1.53886 c 97.8663,26.83236 168.8507,47.72153 179.6127,52.85609 3.3,1.57444 10.5,4.05783 16,5.51863 11.80615,3.13575 14.49805,4.36298 9.66665,4.40705 -1.94435,0.0177 -3.18235,0.4833 -2.97105,1.11731 0.4824,1.44703 25.47545,13.1073399 28.46215,13.2787599 1.2875,0.0739 2.3411,0.40343 2.3415,0.73231 4e-4,0.32888 8.2132,4.37123 18.2507,8.98300001 10.0376,4.61175999 20.8408,9.83257009 24.0073,11.60179009 5.3637,2.99692 15.9528,6.51051 23.4782,7.79036 1.7794,0.30264 6.8225,1.68344 11.2068,3.06844 5.1658,1.63188 8.9191,2.28037 10.6638,1.84248 1.8812,-0.47215 2.4818,-0.33504 1.9934,0.45506 -0.4804,0.77731 0.1763,0.97175 2.1009,0.62203 2.9696,-0.53963 13.6132,4.15053 13.7044,6.03887 0.026,0.55 6.1338,4.0963 13.5718,7.88068 21.136,10.75387 45.7801,26.19869 55.6982,34.90689 3.2589,2.86135 3.4037,2.89108 5.9509,1.22208 l 2.6107,-1.71061 5.3819,5.78283 c 4.0409,4.34205 5.3897,6.54713 5.4136,8.85048 0.047,4.55667 1.5255,5.76616 12.152,9.94277 7.31,2.873063 9.5437,4.171343 9.1121,5.296053 -0.3332,0.86837 -1.3486,1.28682 -2.4338,1.00302 -3.3573,-0.87796 -1.9614,0.2469 4.1094,3.31141 4.3118,2.17658 7.3874,3.0144 11.0657,3.0144 2.8019,0 5.978,0.47293 7.058,1.05097 1.0801,0.57803 5.438,1.14053 9.6843,1.25 7.1747,0.18496 7.7431,0.35809 8.0401,2.44903 0.3054,2.15074 0.01,2.25 -6.7286,2.25 l -7.0481,0 1.0951,2.40361 c 1.2722,2.79213 3.8101,3.50205 15.862,4.43699 8.3139,0.64496 8.6513,0.81718 8.15,4.1594 -0.084,0.56231 -3.3655,1 -7.4964,1 -4.679,0 -8.4913,0.57121 -10.5,1.57324 -3.1151,1.55402 -3.1536,1.66427 -3.1536,9.02144 0,6.90121 -0.1771,7.52888 -2.4112,8.54683 -1.6455,0.74975 -2.6267,2.25136 -3.0895,4.72856 -0.9607,5.14143 -2.134,6.12993 -7.2756,6.12993 -4.5218,0 -6.4415,0.85799 -23.2237,10.37953 l -5.5,3.12047 5,0.5 c 4.3128,0.43128 5.0457,0.82315 5.3328,2.85113 0.3103,2.19239 0.638,2.30535 4.8541,1.67312 3.8159,-0.57224 4.823,-0.35404 6.4561,1.39887 1.8303,1.96461 2.9834,2.07688 21.3309,2.07688 10.6677,0 20.5282,-0.4305 21.9121,-0.95666 1.3839,-0.52616 4.4507,-1.02703 6.8151,-1.11303 3.89,-0.1415 8.306,0.1137 30.0489,1.73654 4.7583,0.35515 6.75,0.16012 6.75,-0.66098 0,-0.78162 1.0691,-0.94961 3.25,-0.51067 6.8719,1.38308 6.75,1.25639 6.75,7.01317 0,2.95548 -0.45,5.65171 -1,5.99163 -0.55,0.33992 -1,1.49148 -1,2.55902 0,1.06754 0.45,1.94098 1,1.94098 0.55,0 1,2.45385 1,5.453 0,5.44943 0,5.45367 -3.75,6.49442 -4.7835,1.32844 -6.25,1.32075 -6.25,-0.0327 0,-0.73115 -2.2027,-0.89399 -6.75,-0.49899 -3.7125,0.32248 -9.0744,0.56724 -11.9154,0.5439 -2.8409,-0.0233 -5.4459,0.41147 -5.7888,0.96624 -0.3428,0.55477 -2.0014,0.73305 -3.6858,0.39618 -2.031,-0.40621 -3.3395,-0.16424 -3.885,0.71845 -0.5962,0.96466 -1.1876,1.03724 -2.1488,0.26375 -0.7294,-0.58695 -3.1262,-1.39186 -5.3262,-1.78868 -5.1641,-0.93147 -42.1791,-1.81288 -45.1213,-1.07443 -1.235,0.30996 -2.5307,1.46251 -2.8794,2.56123 -0.6678,2.10403 -5.4993,2.92135 -5.4993,0.93029 0,-0.60301 -0.848,-0.79826 -1.949,-0.44878 -2.9395,0.93294 -27.3025,1.44481 -37.801,0.7942 -6.522,-0.40418 -9.25,-0.94864 -9.25,-1.84617 0,-0.70012 -1.3008,-1.55865 -2.8907,-1.90785 -1.5898,-0.34919 -4.5148,-2.39034 -6.5,-4.53589 -3.3173,-3.58538 -3.6093,-4.38996 -3.6093,-9.94456 l 0,-6.04356 3.441,0 c 1.8925,0 3.7191,-0.45 4.059,-1 0.3606,-0.58342 -0.6563,-1 -2.441,-1 -3.0272,0 -3.059,-0.0551 -3.059,-5.3 0,-2.915 0.54,-5.84 1.2,-6.5 0.66,-0.66 3.4725,-1.22646 6.25,-1.25881 4.3065,-0.0502 4.7726,-0.23417 3.166,-1.25 -1.0361,-0.65515 -3.0611,-2.13864 -4.5,-3.29664 -1.508,-1.21368 -4.7338,-2.34342 -7.616,-2.66728 -4.1212,-0.46307 -5.3809,-0.20784 -7.1673,1.45211 -1.9681,1.82876 -2.963,1.94765 -10.8209,1.2931 -6.9993,-0.58304 -9.1933,-1.17501 -11.477,-3.09666 -1.7716,-1.49068 -4.1016,-2.37582 -6.254,-2.37582 -1.8868,0 -6.7381,-1.125 -10.7808,-2.5 -4.0427,-1.375 -7.9202,-2.5 -8.6167,-2.5 -0.6964,0 -3.6551,2.89476 -6.5748,6.43279 -5.0253,6.08967 -7.9168,7.819 -9.3085,5.56721 -0.3399,-0.55 -0.153,-1 0.4153,-1 1.4649,0 4.0847,-5.41971 4.0847,-8.45034 0,-2.40713 -0.2935,-2.55053 -5.25,-2.56528 -2.8875,-0.009 -7.95,-0.66756 -11.25,-1.46438 -10.6842,-2.5798 -12.0184,-2.2729 -30.6318,7.04598 -9.4103,4.71129 -19.5433,9.64231 -22.5179,10.95782 l -5.4085,2.39184 -3.6902,-7.45782 -3.6903,-7.45782 -8.0401,0 c -6.9572,0 -8.2084,0.2694 -9.2892,2 -1.149,1.83983 -2.3321,2 -14.772,2 -10.95545,0 -13.62955,0.27819 -14.08515,1.46531 -0.3092,0.80592 0.6471,5.09653 2.1251,9.53469 1.478,4.43816 2.4417,8.70956 2.1414,9.49199 -0.642,1.67306 -8.0107,6.50801 -9.9186,6.50801 -0.7243,0 -3.0746,-1.8 -5.2228,-4 -3.7924,-3.88374 -4.1016,-4 -10.6378,-4 -3.7026,0 -7.9988,0.49075 -9.5471,1.09056 -1.5483,0.59981 -7.7651,2.34648 -13.8151,3.88148 -6.05,1.53501 -15.1381,3.96925 -20.1958,5.40944 -5.0578,1.44019 -10.0876,2.61852 -11.1775,2.61852 -2.4197,0 -5.7588,-4.04836 -6.637,-8.04696 -0.7089,-3.22748 -2.4897,-4.04587 -2.4897,-1.14417 0,4.8371 -1.1097,5.1572 -34.0515,9.82251 -18.0259,2.55287 -33.0565,4.21599 -35.2159,3.89661 -2.2666,-0.33522 -5.7752,0.0995 -8.807,1.09113 -6.9253,2.26516 -15.406,1.42098 -21.6557,-2.15563 -2.6234,-1.50137 -7.9092,-3.74918 -11.7462,-4.99513 l -6.9762,-2.26536 -2.8505,2.3985 c -3.081,2.59252 -6.596,3.09949 -8.4734,1.22213 -0.9018,-0.90183 -1.5903,-0.81563 -2.95,0.36935 -2.4964,2.17563 -163.4184,8.76163 -165.7994,6.78562 -1.2321,-1.02256 -1.8665,-0.93357 -3.4297,0.48109 -1.8288,1.65508 -3.8939,1.40595 -44.4485,-5.36199 -23.3918,-3.90379 -42.8975,-7.09776 -43.346,-7.09776 -0.4484,0 -0.6426,3.05711 -0.4315,6.79358 0.3036,5.37239 0.045,7.07475 -1.2356,8.13762 -1.9142,1.58864 -9.3338,3.1016 -11.373,2.3191 -0.7848,-0.30115 -2.6776,-3.33514 -4.2063,-6.74219 -2.6784,-5.96973 -2.8954,-6.17761 -5.9756,-5.72553 -2.2143,0.32499 -4.0495,-0.1617 -5.9734,-1.58412 -2.321,-1.71598 -6.78326,-2.48927 -27.1659,-4.70778 -15.38985,-1.67507 -25.2189,-3.18627 -26.6387,-4.09566 -1.63193,-1.04525 -2.25,-2.40486 -2.25,-4.94946 0,-3.84638 -1.71804,-5.187 -4.67186,-3.64555 -1.29866,0.67771 -5.88292,-0.0247 -15.82814,-2.42521 -7.7,-1.85857 -20.5848,-4.50299 -28.63288,-5.87648 -11.06921,-1.88908 -21.88431,-4.82044 -44.40823,-12.03656 -16.37644,-5.24662 -30.17972,-9.78922 -30.67395,-10.09468 -0.49424,-0.30545 -1.99803,-0.27943 -3.34178,0.0578 -2.04076,0.5122 -2.44568,1.22769 -2.45847,4.34414 -0.0198,4.82219 -0.8823,6.06047 -4.76177,6.83637 -2.7852,0.55704 -3.38877,0.26769 -4.887,-2.34284 -1.69296,-2.94981 -1.81542,-2.98448 -12.77264,-3.61593 -6.0848,-0.35065 -13.90536,-0.6396 -17.37902,-0.6421 -6.78314,-0.005 -10.18426,-1.18981 -10.18426,-3.54818 0,-1.20196 -0.35322,-1.2527 -1.91798,-0.27549 -1.52386,0.95166 -4.96581,0.75211 -16.75,-0.9711 -19.29637,-2.82173 -28.16957,-3.34807 -61.33202,-3.63808 -15.125,-0.13226 -32.675,-0.76729 -39,-1.41117 -6.325,-0.64387 -48.625003,-2.50161 -94.000003,-4.1283 l -82.5,-2.95762 -1.5,2.02223 c -0.825,1.11222 -17.72703,30.45794 -37.56007,65.21271 -27.056647,47.41318 -36.544427,63.23662 -37.999997,63.37527 -1.06696,0.10164 -23.76493,-4.28086 -50.43993,-9.73887 z"
         id="path3042"
         inkscape:connector-curvature="0" />
    </g>
  </g>
</svg>
