<?xml version="1.0" encoding="UTF-8" standalone="no"?>
<svg
   xmlns:dc="http://purl.org/dc/elements/1.1/"
   xmlns:cc="http://creativecommons.org/ns#"
   xmlns:rdf="http://www.w3.org/1999/02/22-rdf-syntax-ns#"
   xmlns:svg="http://www.w3.org/2000/svg"
   xmlns="http://www.w3.org/2000/svg"
   version="1.1"
   id="svg2"
   viewBox="0 0 38.504005 9.5208223"
   width="115.512015">
  <defs
     id="defs4" />
  <metadata
     id="metadata7">
    <rdf:RDF>
      <cc:Work
         rdf:about="">
        <dc:format>image/svg+xml</dc:format>
        <dc:type
           rdf:resource="http://purl.org/dc/dcmitype/StillImage" />
        <dc:title></dc:title>
      </cc:Work>
    </rdf:RDF>
  </metadata>
  <g
     transform="translate(768.758,-805.60401)"
     id="layer1">
    <g
       style="fill:#000000;fill-opacity:1"
       transform="translate(2434.2857,-34.285714)"
       id="g4147">
      <path
         id="path4155"
         d="m -3192.9706,849.38031 c -0.027,-0.0223 -0.063,-0.0406 -0.08,-0.0406 -0.017,0 -0.4064,-0.087 -0.8642,-0.19331 l -0.8324,-0.19331 -0.5435,-0.0347 c -0.2989,-0.0191 -0.788,-0.0373 -1.0869,-0.0404 -0.2989,-0.003 -0.5953,-0.007 -0.6587,-0.008 -0.1091,-0.002 -0.1237,-0.009 -0.2725,-0.1276 -0.1432,-0.11428 -0.1604,-0.12274 -0.1924,-0.0945 -0.025,0.0218 -0.1413,0.0408 -0.394,0.0641 -0.1973,0.0182 -0.4016,0.0384 -0.4538,0.0448 -0.09,0.0111 -0.1,0.007 -0.2006,-0.0822 -0.058,-0.0516 -0.1137,-0.0939 -0.1234,-0.0939 -0.045,0 -1.0758,-1.23045 -1.7446,-2.08186 -0.5395,-0.68685 -0.8086,-1.01128 -0.9904,-1.19426 l -0.2497,-0.25122 -0.199,0 -0.199,0 -0.099,-0.0825 c -0.054,-0.0454 -0.1106,-0.0922 -0.1251,-0.10412 -0.015,-0.0119 -0.032,-0.0489 -0.039,-0.0823 -0.01,-0.0408 -0.06,-0.10417 -0.1581,-0.19302 l -0.146,-0.13232 -0.1856,-2.2e-4 c -0.1167,-1.5e-4 -0.1947,-0.009 -0.2102,-0.0248 -0.017,-0.0168 -0.025,-0.1166 -0.025,-0.31551 0,-0.28546 9e-4,-0.29151 0.05,-0.32357 0.045,-0.0298 0.051,-0.0496 0.06,-0.22281 0.012,-0.23303 0.04,-0.43882 0.062,-0.4608 0.022,-0.0216 0.2656,-0.0641 0.3798,-0.0661 0.061,-0.001 0.134,-0.0249 0.2255,-0.073 0.1205,-0.0634 0.1771,-0.0773 0.5017,-0.12299 0.2012,-0.0283 0.3742,-0.0567 0.3845,-0.0631 0.01,-0.006 0.019,-0.0387 0.019,-0.0718 l 0,-0.0603 0.4882,0 0.4881,0 1.0745,-0.15381 c 0.591,-0.0846 1.081,-0.15381 1.089,-0.15381 0.01,0 0.024,-0.0265 0.035,-0.0588 0.012,-0.0353 0.04,-0.0634 0.069,-0.0703 0.026,-0.006 1.2755,-0.24384 2.7757,-0.52776 1.5001,-0.28393 2.739,-0.52565 2.7531,-0.53716 0.014,-0.0115 0.026,-0.0551 0.026,-0.0969 0,-0.0529 0.014,-0.0895 0.047,-0.12054 0.044,-0.0416 0.068,-0.0446 0.3461,-0.0446 0.2405,0 0.3037,-0.006 0.3242,-0.0308 0.015,-0.0175 0.059,-0.0308 0.104,-0.0308 0.065,0 0.083,-0.009 0.1053,-0.0562 0.015,-0.0309 0.045,-0.0589 0.068,-0.0623 0.1343,-0.0203 0.1332,-0.0192 0.1332,-0.13462 0,-0.0598 -0.015,-0.15269 -0.033,-0.2064 -0.026,-0.0764 -0.028,-0.10866 -0.01,-0.14817 0.013,-0.0278 0.023,-0.0859 0.023,-0.12907 0,-0.0432 0.012,-0.0877 0.026,-0.0988 0.014,-0.0111 0.2261,-0.026 0.4711,-0.033 0.4208,-0.0121 0.4466,-0.0107 0.4659,0.0254 0.011,0.021 0.065,0.067 0.1203,0.10227 l 0.1,0.0641 0.3815,0 c 0.2459,0 0.3863,0.008 0.3949,0.0217 0.01,0.0119 0.01,0.0428 0,0.0685 -0.011,0.0457 -0.019,0.0469 -0.2897,0.05 -0.2536,0.003 -0.2834,0.007 -0.3405,0.0494 -0.051,0.0377 -0.095,0.0476 -0.2403,0.0536 -0.1027,0.004 -0.1841,0.0172 -0.1928,0.0308 -0.01,0.0129 -0.015,0.0755 -0.015,0.13912 -2e-4,0.0868 0.01,0.11884 0.032,0.12817 0.018,0.007 0.1225,0.0124 0.2326,0.0124 0.1742,0 0.2051,0.005 0.2374,0.041 0.036,0.0393 0.064,0.041 0.685,0.0417 0.5231,5.9e-4 0.6578,0.006 0.6992,0.03 0.033,0.0187 0.1127,0.0296 0.2208,0.03 l 0.1695,7.2e-4 0.035,0.0769 c 0.019,0.0423 0.062,0.1069 0.096,0.14355 0.059,0.0641 0.067,0.0666 0.2189,0.0666 0.115,0 0.1644,-0.008 0.1831,-0.0308 0.02,-0.0239 0.075,-0.0308 0.2479,-0.0308 0.2702,0 0.2648,0.006 0.2648,-0.29191 0,-0.14276 0.01,-0.22097 0.026,-0.23814 0.017,-0.0172 0.029,-0.12711 0.036,-0.33569 0.01,-0.22235 0.018,-0.31254 0.036,-0.31863 0.02,-0.007 0.026,0.0604 0.026,0.29008 0,0.26229 0.01,0.30673 0.041,0.36572 0.034,0.0561 0.041,0.10347 0.041,0.28811 0,0.21442 0,0.22152 0.049,0.2397 0.027,0.0103 0.055,0.0285 0.063,0.0405 0.01,0.0148 0.274,0.0218 0.8228,0.0218 l 0.8093,0 0.019,-0.0513 c 0.018,-0.0462 0.031,-0.0513 0.1333,-0.0513 0.1014,0 0.1162,0.006 0.1371,0.0513 l 0.023,0.0513 1.622,-2.5e-4 1.6219,-2.5e-4 0.2235,-0.0814 c 0.123,-0.0448 0.2287,-0.0866 0.235,-0.0928 0.01,-0.006 -0.01,-0.0168 -0.034,-0.0233 -0.025,-0.007 -0.045,-0.0279 -0.045,-0.0488 0,-0.0488 0.079,-0.0651 0.2812,-0.0582 0.1264,0.004 0.1892,-0.005 0.2996,-0.0439 0.1206,-0.0426 0.1413,-0.0572 0.1513,-0.10719 0.019,-0.0957 0.095,-0.13865 0.2444,-0.13865 0.1038,0 0.1717,-0.0166 0.336,-0.082 0.1132,-0.0451 0.2246,-0.082 0.2475,-0.082 0.023,0 0.071,-0.0151 0.1064,-0.0335 0.053,-0.0274 0.1002,-0.031 0.2596,-0.0198 0.114,0.008 0.208,0.025 0.2265,0.041 0.049,0.0423 3.475,0.13466 5.3172,0.14338 1.0112,0.005 1.4794,0.0139 1.4977,0.0291 0.061,0.0509 0.3306,0.0686 1.2116,0.08 l 0.9197,0.0118 0.044,-0.0512 c 0.03,-0.0351 0.1473,-0.0891 0.3723,-0.17168 0.368,-0.13512 0.3308,-0.13134 0.9021,-0.0915 0.1803,0.0126 0.3359,0.031 0.3458,0.0408 0.035,0.0355 -0.01,0.058 -0.1453,0.0737 l -0.1387,0.016 0.082,0.0259 c 0.045,0.0142 0.1734,0.0266 0.2851,0.0275 0.2101,0.002 1.6482,0.17407 1.7298,0.20742 0.025,0.0104 0.046,0.0365 0.046,0.0581 0,0.0415 0.038,0.0642 0.1065,0.0642 0.034,0 0.039,0.009 0.029,0.05 -0.01,0.0275 0,0.0557 0.01,0.0627 0.04,0.0248 0.02,0.0901 -0.041,0.13368 -0.034,0.0243 -0.081,0.0806 -0.1034,0.12526 -0.023,0.0446 -0.064,0.0915 -0.092,0.10411 l -0.05,0.023 5e-4,0.76062 c 2e-4,0.41834 0.01,0.79594 0.019,0.8391 0.016,0.0704 -0.01,0.159 -0.2377,0.85686 -0.1846,0.56145 -0.2669,0.78529 -0.2956,0.80316 -0.022,0.0136 -0.04,0.0403 -0.04,0.0594 0,0.0448 0.081,0.0531 0.6761,0.0701 0.3465,0.01 0.4661,0.0199 0.482,0.0403 0.016,0.0213 0.1775,0.0299 0.7388,0.0393 0.82,0.0138 1.0292,0.0255 0.9988,0.056 -0.013,0.0131 -0.4008,0.0246 -1.0532,0.0313 -1.05,0.0108 -1.2999,0.0224 -1.3914,0.0643 -0.028,0.0129 -0.1527,0.0304 -0.2768,0.0388 -0.1801,0.0122 -0.2256,0.0215 -0.2256,0.0461 0,0.0354 0.3394,0.0539 1.0806,0.0587 0.2334,0.002 0.4292,0.0106 0.4351,0.0203 0.012,0.019 -0.3116,0.0359 -1.0903,0.0572 l -0.4975,0.0136 -0.04,0.12502 c -0.022,0.0688 -0.061,0.1804 -0.088,0.24807 l -0.049,0.12305 -0.1264,0.006 c -0.1236,0.006 -0.1267,0.005 -0.139,-0.0513 -0.01,-0.0316 -0.016,-0.0689 -0.02,-0.083 -0.01,-0.0193 -0.1,-0.0256 -0.3765,-0.0256 l -0.3687,0 -0.027,-0.0564 c -0.027,-0.0562 -0.028,-0.0564 -0.2829,-0.0666 l -0.256,-0.0103 -0.011,-0.0615 -0.011,-0.0615 -0.4085,-0.006 c -0.2247,-0.003 -0.4151,0.002 -0.4231,0.0103 -0.031,0.0336 0.01,0.15184 0.053,0.16978 0.026,0.01 0.05,0.0289 0.055,0.0426 0.012,0.0373 -0.066,0.39455 -0.093,0.42269 -0.017,0.0182 -0.049,0.019 -0.1216,0.003 -0.073,-0.0158 -0.1058,-0.0149 -0.1282,0.004 -0.043,0.0358 -0.037,0.0638 0.024,0.11274 l 0.054,0.0432 -0.034,0.1033 c -0.047,0.14139 -0.1466,0.29398 -0.1914,0.29308 -0.02,-4e-4 -0.059,-0.0139 -0.088,-0.03 -0.078,-0.0447 -0.095,-0.0382 -0.1641,0.0615 l -0.064,0.0923 -0.4397,0 -0.4397,0 -0.052,0.0816 c -0.059,0.0938 -0.1311,0.12095 -0.2243,0.0846 -0.1017,-0.0397 -0.1045,-0.0381 -0.097,0.0542 l 0.01,0.0872 -0.1235,0 c -0.068,0 -0.1448,0.008 -0.1709,0.0185 -0.026,0.0102 -0.1998,0.14026 -0.3859,0.28904 -0.1861,0.14878 -0.3753,0.2879 -0.4204,0.30915 -0.073,0.0346 -0.1359,0.0387 -0.5973,0.0391 -0.559,4.9e-4 -0.548,-0.002 -0.5795,0.11706 -0.013,0.0502 -0.027,0.0585 -0.1014,0.064 -0.047,0.003 -0.212,-0.0173 -0.3659,-0.0461 -0.1538,-0.0289 -0.3039,-0.0525 -0.3335,-0.0525 -0.076,0 -0.1449,-0.0543 -0.1449,-0.11395 0,-0.12029 -0.1711,-0.0195 -0.1924,0.11329 -0.016,0.10107 -0.023,0.10154 -0.2783,0.0208 -0.2172,-0.0686 -0.2722,-0.0743 -0.3073,-0.032 -0.02,0.0237 -0.01,0.042 0.068,0.0974 0.051,0.0375 0.097,0.0796 0.103,0.0936 0.012,0.0289 -1.3759,1.3384 -1.4185,1.3384 -0.015,0 -0.088,-0.0461 -0.1628,-0.10253 l -0.1354,-0.10254 -1.007,2.6e-4 -1.0069,2.6e-4 -0.2594,-0.26686 -0.2594,-0.26686 -0.2665,0 c -0.2241,0 -0.2685,-0.005 -0.2789,-0.0324 -0.01,-0.0178 -0.013,-0.15466 -0.013,-0.30404 0,-0.25739 0,-0.27394 -0.047,-0.3162 -0.042,-0.0397 -0.07,-0.0446 -0.255,-0.0446 l -0.2075,0 -0.077,0.0938 c -0.072,0.0883 -0.077,0.10307 -0.082,0.25122 -0.01,0.21656 -0.1014,0.48074 -0.2373,0.66454 -0.1114,0.15073 -0.203,0.23128 -0.3448,0.30334 -0.2014,0.10228 -0.1893,0.10163 -1.9181,0.10189 -1.5951,2.4e-4 -1.6212,9e-4 -1.6558,0.0413 -0.046,0.0543 -0.2481,0.0581 -0.3225,0.006 -0.044,-0.0308 -0.1018,-0.0343 -0.4872,-0.0289 -0.3656,0.005 -0.4451,9.6e-4 -0.4852,-0.0253 -0.026,-0.0173 -0.1068,-0.0553 -0.1786,-0.0845 -0.1964,-0.0798 -0.4487,-0.34764 -0.4487,-0.47629 0,-0.026 0,-0.0491 -0.01,-0.0513 0,-0.002 -0.1936,-0.009 -0.424,-0.0154 l -0.4189,-0.0113 -0.1114,-0.18383 c -0.091,-0.15068 -0.1072,-0.19039 -0.089,-0.22018 0.03,-0.0487 0.034,-0.0421 -0.068,-0.1154 -0.054,-0.039 -0.1084,-0.10193 -0.1354,-0.15774 l -0.045,-0.0928 -0.3722,0.006 -0.3722,0.006 -0.015,0.1538 c -0.01,0.0846 -0.021,0.2138 -0.028,0.28711 -0.014,0.15594 -0.025,0.17173 -0.1471,0.22583 -0.081,0.0358 -0.1375,0.0408 -0.4677,0.0408 -0.3721,0 -0.4806,0.0151 -0.4806,0.0668 0,0.0147 -0.028,0.0372 -0.062,0.05 -0.034,0.0128 -0.062,0.0377 -0.062,0.0555 0,0.0177 -0.03,0.0462 -0.067,0.0633 -0.037,0.0171 -0.111,0.0588 -0.1653,0.0927 -0.07,0.0437 -0.1505,0.0703 -0.2768,0.0913 -0.098,0.0163 -0.2418,0.0477 -0.3193,0.0696 -0.1274,0.0361 -0.1563,0.0551 -0.2974,0.19508 -0.198,0.19651 -0.2553,0.2181 -0.5783,0.2181 -0.1844,0 -0.2464,0.007 -0.2589,0.0283 -0.029,0.0505 -0.1341,0.0574 -0.1878,0.0124 z"
         style="fill:#000000;fill-opacity:1" />
    </g>
  </g>
</svg>
