<?xml version="1.0" encoding="UTF-8" standalone="no"?>
<svg
   xmlns:dc="http://purl.org/dc/elements/1.1/"
   xmlns:cc="http://creativecommons.org/ns#"
   xmlns:rdf="http://www.w3.org/1999/02/22-rdf-syntax-ns#"
   xmlns:svg="http://www.w3.org/2000/svg"
   xmlns="http://www.w3.org/2000/svg"
   version="1.1"
   id="svg2"
   viewBox="0 0 33.000001 8.6796005"
   width="99">
  <defs
     id="defs4" />
  <metadata
     id="metadata7">
    <rdf:RDF>
      <cc:Work
         rdf:about="">
        <dc:format>image/svg+xml</dc:format>
        <dc:type
           rdf:resource="http://purl.org/dc/dcmitype/StillImage" />
        <dc:title></dc:title>
      </cc:Work>
    </rdf:RDF>
  </metadata>
  <g
     transform="translate(773.77233,-812.39136)"
     id="layer1">
    <g
       transform="matrix(0.01410323,0,0,0.01410323,-798.3617,817.24126)"
       id="g4147">
      <path
         id="path4153"
         d="m 3968.4974,269.47948 c -1.0834,-1.30534 -3.9602,-1.875 -9.4692,-1.875 l -7.9133,0 -1.1981,-4.33913 c -0.6589,-2.38651 -2.3924,-6.01642 -3.8521,-8.06647 -2.3907,-3.35735 -3.4254,-3.76419 -10.4233,-4.09837 -7.5711,-0.36158 -7.7995,-0.47453 -8.965,-4.43353 -1.0682,-3.62844 -1.6864,-4.0625 -5.785,-4.0625 -3.3577,0 -5.0847,0.7466 -6.4366,2.7826 -1.6075,2.42105 -2.2568,2.5962 -4.9963,1.34799 -3.4686,-1.58043 -12.5093,-0.95404 -16.8865,1.16998 -2.2422,1.08807 -3.2927,0.9132 -5.2713,-0.87739 -2.3783,-2.15227 -5.4662,-2.00734 -82.1997,3.85777 l -79.7286,6.09405 -188.75,0.71402 c -153.3525,0.58013 -190.1565,1.03517 -196.25,2.42643 -6.0304,1.37686 -29.054,1.72681 -117.5,1.78597 -109.5831,0.0733 -124.4838,-0.38166 -146.25,-4.46539 -3.4375,-0.64493 -25.6563,-1.29375 -49.375,-1.44182 l -43.125,-0.26921 -36.875,-9.15204 c -20.2813,-5.03362 -39.9688,-10.49542 -43.75,-12.13732 -15.7032,-6.81867 -25.8646,-8.08564 -64.8487,-8.08564 -26.2566,0 -36.3043,-0.40296 -37.4013,-1.5 -1.0996,-1.09955 -1.5,-11.44445 -1.5,-38.75 0,-32.10409 -0.2563,-37.25 -1.8555,-37.25 -1.5891,0 -1.9032,5.07069 -2.1875,35.3125 l -0.332,35.3125 -14.6875,0.35217 -14.6875,0.35217 -0.019,-24.10217 c -0.019,-23.40358 -0.701,-28.47476 -3.5911,-26.68855 -0.9445,0.58374 -1.3898,8.84497 -1.3898,25.78516 l 0,24.92622 -15,0 -15,0 -0.019,-23.4375 c -0.011,-12.97228 -0.5602,-24.27471 -1.2309,-25.3125 -0.6665,-1.03125 -1.3302,-1.59375 -1.4749,-1.25 -0.1448,0.34375 -0.5753,11.59375 -0.9567,25 l -0.6934,24.375 -14.6875,0.35217 -14.6875,0.35217 0,-23.87185 c 0,-14.06504 -0.5316,-24.86512 -1.294,-26.28967 -1.5517,-2.89943 -10.4807,-3.43549 -12.0814,-0.7253 -0.5498,0.93088 -2.2283,2.33713 -3.7299,3.125 -2.0327,1.06647 -89.8873,1.43248 -343.8436,1.43248 l -341.1132,0 -9.1879,-3.125 c -9.1002,-3.09516 -9.5992,-3.125 -52.2698,-3.125 l -43.082,0 -5.4914,-4.6875 c -3.0202,-2.57813 -8.3665,-7.33059 -11.8805,-10.56102 l -6.3892,-5.87353 -7.6311,0.70401 -7.631,0.70402 -3.75,-7.95549 c -3.0551,-6.48125 -4.3585,-8.02604 -7.0337,-8.33618 -1.806,-0.20937 -4.5759,-1.75625 -6.1554,-3.4375 -2.5755,-2.74157 -3.889,-3.05681 -12.736,-3.05681 -5.4253,0 -10.9886,-0.60172 -12.3628,-1.33718 -1.3742,-0.73545 -4.1049,-4.81357 -6.0683,-9.0625 -5.1324,-11.10726 -57.1853,-149.44946 -58.6933,-155.99064 -0.6954,-3.01658 -1.2781,-11.59559 -1.2949,-19.06449 -0.034,-15.26916 1.9476,-20.89023 8.7406,-24.78886 l 3.6481,-2.09372 0.3528,-14.7688 0.3529,-14.76881 18.8066,-0.625 18.8067,-0.625 5.2558,-4.16754 c 4.7519,-3.76789 5.2559,-4.69687 5.2559,-9.6875 l 0,-5.51996 97.1875,-0.0191 c 56.0767,-0.0112 97.9466,-0.4995 98.9821,-1.15473 1.4873,-0.94113 1.5146,-1.47299 0.1595,-3.10585 -1.3583,-1.63657 -4.8737,-1.97029 -20.7549,-1.97029 -10.5159,0 -20.0095,-0.34143 -21.097,-0.75874 -1.0875,-0.4173 -1.9772,-1.82355 -1.9772,-3.125 0,-2.19301 1.122,-2.36626 15.3243,-2.36626 13.9706,0 15.4623,-0.22085 16.8856,-2.5 1.4387,-2.3037 2.959,-2.50585 19.3632,-2.57451 9.791,-0.041 20.6144,-0.64807 24.0519,-1.34905 3.4375,-0.701 19.1809,-1.65184 34.9853,-2.11299 25.1836,-0.73481 28.7836,-1.09095 29.1263,-2.88129 0.3248,-1.6972 -1.09,-2.12651 -8.3619,-2.53742 -10.8275,-0.6118 -14.3477,-3.30325 -15.7672,-12.05513 -0.9945,-6.13172 -1.2121,-17.44344 -0.4362,-22.67079 0.3905,-2.63041 -0.2004,-3.21392 -4.2416,-4.18852 -5.5292,-1.33345 -5.5214,-1.30849 -6.4334,-20.35333 -1.0355,-21.62178 1.3752,-26.13018 15.6041,-29.18172 3.2201,-0.6906 7.7935,-2.39948 10.1629,-3.79749 2.3695,-1.398 11.5764,-3.962 20.4599,-5.69775 8.8835,-1.73575 17.8393,-3.98414 19.9018,-4.99642 2.0625,-1.01228 17.6797,-4.65595 34.7048,-8.09705 l 30.9549,-6.25654 26.2719,0 c 19.9505,0 26.3773,-0.37596 26.71,-1.5625 0.2409,-0.85938 0.9264,-3.8125 1.5232,-6.5625 l 1.0852,-5 17.8303,-0.34693 c 10.6252,-0.20673 18.8094,0.17704 20.2532,0.94973 1.9268,1.03116 2.499,2.89376 2.7947,9.09692 l 0.3718,7.80028 8.5491,0.625 c 6.9659,0.50926 8.9794,1.15669 10.8728,3.49609 2.0772,2.56655 3.2255,2.83172 10.8259,2.5 l 8.5022,-0.37109 0.625,-6.83519 c 0.6394,-6.99301 1.8458,-8.39831 9.0625,-10.55701 3.0621,-0.91595 2.8882,-7.65732 -0.2672,-10.35905 -1.8199,-1.55827 -2.107,-2.5207 -1.1102,-3.72184 3.0249,-3.64477 0.2076,-5.40191 -8.6611,-5.40191 -6.1512,0 -10.0916,-0.74267 -14.026,-2.64357 -3.0094,-1.45398 -10.2824,-4.03829 -16.1623,-5.74294 -14.0249,-4.06594 -14.1895,-4.17656 -16.1637,-10.86276 -3.9436,-13.3562 -0.091,-15.25094 34.0171,-16.7304 18.6958,-0.81094 27.4798,-0.6754 35.625,0.54967 5.946,0.8943 13.1978,1.63815 16.1152,1.653 6.0581,0.0309 36.7099,5.68389 41.8832,7.72443 5.7617,2.27262 4.6686,7.02561 -3.3627,14.62124 -3.7401,3.53723 -7.9128,6.43133 -9.2727,6.43133 -4.833,0 -6.4271,1.41006 -6.4271,5.68496 0,2.29213 0.6477,4.5678 1.4394,5.05708 1.0122,0.62557 0.8185,1.34356 -0.6528,2.41937 -1.7003,1.24331 -1.8467,2.17544 -0.7814,4.97741 1.2782,3.36173 1.4891,3.42677 8.4653,2.6103 3.935,-0.46052 9.4045,-1.8484 12.1545,-3.08417 7.9784,-3.58525 12.935,-4.81846 26.25,-6.53101 8.3218,-1.07034 13.6073,-2.41195 15.8128,-4.01375 4.731,-3.43596 18.8619,-2.52533 29.6064,1.9079 6.4082,2.64405 8.5989,3.03052 11.4817,2.02556 1.981,-0.69056 8.3154,-0.92265 14.2683,-0.52279 5.8882,0.39553 15.5574,1.04371 21.4871,1.44041 12.8888,0.86227 16.7187,0.13109 16.7187,-3.1918 0,-1.33258 1.9687,-3.99375 4.375,-5.91368 3.5543,-2.83604 4.3749,-4.34129 4.375,-8.02524 0,-2.49394 0.8289,-5.22234 1.8419,-6.0631 2.9072,-2.41276 22.6345,-1.10651 28.7831,1.90586 4.9242,2.41253 5.0054,2.56333 5.3597,9.94568 0.2491,5.18934 0.9957,7.97682 2.4264,9.05851 2.2907,1.73187 38.5636,2.25597 41.1747,0.59494 0.8034,-0.51111 1.6472,-2.89146 1.875,-5.28969 0.3383,-3.56093 1.2164,-4.75115 4.7892,-6.49154 5.4783,-2.66859 11.8882,-2.7972 18.75,-0.37621 7.6235,2.68974 84.0448,2.68974 88.75,0 4.4787,-2.56024 11.6813,-2.35154 14.1813,0.41092 1.1378,1.25727 2.0687,4.34029 2.0687,6.85119 0,3.73214 0.5133,4.66926 2.8125,5.13521 2.8043,0.56828 51.8148,2.38804 56.5625,2.10017 26.3509,-1.59778 38.5449,-1.47594 43.3153,0.4328 3.6532,1.46172 11.0559,2.26464 25.9,2.80916 19.71,0.72302 21.3987,0.98846 32.6597,5.13339 6.5312,2.40401 14.4062,5.04982 17.5,5.8796 4.6249,1.24044 5.6937,2.08034 6.0117,4.72414 0.2127,1.76851 1.1971,3.88801 2.1875,4.71001 0.9904,0.82199 1.8008,2.23149 1.8008,3.13224 0,2.09288 2.2812,2.7346 13.4375,3.78 6.401,0.5998 9.0625,0.43466 9.0625,-0.56232 0,-2.31847 4.8566,-1.68678 32.7615,4.26123 14.6374,3.12001 35.3322,6.97925 45.9885,8.57611 10.6562,1.59685 20.3515,3.32005 21.5451,3.82932 1.6296,0.69532 2.4781,0.11588 3.4066,-2.3261 0.7932,-2.08637 2.183,-3.25207 3.8772,-3.25207 2.3571,0 2.557,0.50361 1.86,4.6875 -0.4733,2.84049 -0.029,7.15019 1.1266,10.9375 1.0491,3.4375 1.9135,6.36424 1.921,6.50385 0.019,0.34816 -7.7071,3.78482 -9.8376,4.37616 -3.1603,0.87711 -27.5209,128.85466 -25.8187,135.63689 0.3904,1.55535 0.025,3.92497 -0.8127,5.26586 -1.521,2.43547 -1.39,2.99279 2.6431,11.25034 0.7645,1.56529 -0.5376,7.06504 -3.7685,15.91608 -0.9575,2.62306 -1.4722,2.68472 -18.2512,2.18662 -9.4963,-0.2819 -33.1265,-0.81831 -52.5118,-1.19204 -33.5534,-0.64686 -35.283,-0.79674 -36.0208,-3.12122 -0.4262,-1.34295 -2.0353,-2.75806 -3.5758,-3.14472 -1.5405,-0.38663 -14.2999,-0.40305 -28.3542,-0.0365 -31.0248,0.80921 -28.2512,0.80921 -61.0441,1e-4 -14.7075,-0.36288 -27.087,-0.20567 -27.51,0.34938 -0.4231,0.55504 -0.4834,14.50917 -0.1342,31.00917 l 0.635,30.0000003 11.7955,0 11.7956,0 1.0019,-3.8664403 1.0019,-3.86644 39.048,-0.88337 c 31.4368,-0.71119 39.4384,-1.23671 41.0509,-2.69607 1.6497,-1.49288 8.1885,-1.81268 37.0641,-1.81268 37.8338,0 39.0268,0.20896 37.4337,6.55665 -1.04,4.1437 0.3138,5.5130103 7.9549,8.0462303 6.5526,2.17235 6.8706,2.47919 7.2431,6.98844004 0.2156,2.60948996 -0.5115,6.51819996 -1.6277,8.74999996 -1.9675,3.9338097 -1.9368,4.1032997 1.2425,6.8461797 4.3853,3.78338 7.9965,3.5458 17.2187,-1.13286 7.3526,-3.73013 8.8338,-3.99827 27.1519,-4.9157097 10.6562,-0.5337 24.7187,-1.59245 31.25,-2.35277 12.5615,-1.46233 21.101,-0.86393 29.3497,2.05671 2.7639,0.9785897 12.3378,2.2955397 21.2753,2.9265697 8.9375,0.63103 23.6862,2.40154 32.775,3.93447 15.2825,2.57755 17.9815,2.6862 35.8939,1.44484 11.7818,-0.8165 21.6847,-0.90963 25.2812,-0.23774 3.2519,0.60751 13.2559,4.81195 22.2311,9.34319 l 16.3188,8.23862 8.125,-1.04317 c 10.832,-1.39074 169.3296,-1.35177 298.125,0.0732 115.6823,1.27997 137.5659,1.19391 157.5,-0.61939 17.6478,-1.60533 50.4158,1.10185 60.714,5.01599 6.3118,2.39893 9.4261,2.57923 44.5628,2.57982 l 37.7767,6.3e-4 1.0378,-4.00463 1.0376,-4.00464 13.0584,0 13.0582,0 0.6328,3.69214 c 0.536,3.12784 1.2787,3.75394 4.8602,4.09654 3.439,0.32899 4.91,-0.34283 7.8869,-3.60215 3.4149,-3.73878 4.0691,-3.95804 9.7897,-3.28053 5.7422,0.68008 6.298,0.49038 8.7808,-2.99622 1.4577,-2.04725 3.1896,-5.67488 3.8485,-8.06139 l 1.1981,-4.33912 7.6554,0 c 5.161,0 8.353,-0.63142 9.7966,-1.93794 1.6183,-1.46441 5.2004,-1.95955 14.6604,-2.02639 6.8854,-0.0486 13.138,0.29411 13.8945,0.7617 2.1905,1.35376 1.6152,3.97609 -1.7494,7.97466 -1.7187,2.04263 -3.125,5.13367 -3.125,6.869 0,2.78935 0.9781,3.47505 8.4375,5.91464 4.6406,1.51773 9.5988,3.81359 11.0181,5.10191 2.3629,2.14485 4.9663,2.34242 30.8665,2.34242 27.813,0 28.3187,0.0465 30.232,2.77813 1.6552,2.36309 1.9459,8.3265 1.9459,39.91694 l 0,37.13881 4.0625,6.53334 c 3.5631,5.73018 4.116,7.79711 4.4974,16.81371 0.3451,8.16043 -0.069,11.41875 -2.0071,15.80073 -3.4732,7.85156 -9.2423,13.92045 -16.5155,17.37356 l -6.2873,2.98498 0,23.30185 c 0,17.13571 -0.4135,23.63547 -1.5625,24.56263 -0.8594,0.69344 -15.625,2.30919 -32.8125,3.59055 l -31.25,2.32977 -0.3637,11.11487 c -0.3098,9.46552 -0.013,11.50591 2.0015,13.75 3.4618,3.85678 4.0837,5.30402 3.2326,7.52233 -1.0895,2.83897 -26.9003,2.93853 -29.2454,0.11274 z M 2543.9887,146.87724 c 0.7376,-1.92223 1.0735,-9.06067 0.4462,-9.4833 -0.1719,-0.11575 -10.4375,-0.53767 -22.8125,-0.9375 l -22.5,-0.72696 -0.625,-70.83334 c -0.3438,-38.95832 -1.0788,-71.2870997 -1.6334,-71.8416997 -0.5546,-0.55461 -2.5233,-0.1584 -4.375,0.88047 l -3.3666,1.88885 -0.3351,30.4138297 c -0.1842,16.7276 0.19,35.55014 0.8317,41.82787 0.706,6.90621 0.7149,11.88301 0.023,12.60152 -1.2983,1.34748 -1.597,66.068 -0.3108,67.35416 0.4582,0.45834 12.7731,0.83334 27.3662,0.83334 23.0414,0 26.6327,-0.26019 27.2916,-1.97724 z m 29.5087,0.89445 c 0,-1.67939 -11.3996,-10.15711 -14.8081,-11.0126 -4.0953,-1.02787 -9.4419,0.99897 -9.978,3.78259 -0.2394,1.2433 -0.093,3.6223 0.3242,5.28666 0.7367,2.93533 1.1152,3.02614 12.6107,3.02614 6.5182,0 11.8512,-0.48725 11.8512,-1.08279 z m 59.7516,-4.69636 c 0.4067,-5.56537 -1.4767,-7.4343 -5.7881,-5.74359 -3.594,1.4094 -12.794,9.77554 -11.8205,10.74909 0.4818,0.48183 4.5561,0.71238 9.054,0.51235 l 8.178,-0.3637 0.3766,-5.15415 z m 45.0224,0.28139 c 0.25,-3.05326 -0.2167,-5.2632 -1.25,-5.91836 -1.8842,-1.19473 -33.5466,-1.47642 -36.5468,-0.32514 -2.0212,0.77561 -2.8756,9.1762 -1.1126,10.9392 0.4755,0.47552 9.3349,0.7099 19.6875,0.52082 l 18.8229,-0.34376 0.399,-4.87276 z m 18.44,2.46297 c 1.6977,-6.76393 -2.8234,-10.77546 -10.089,-8.95191 -2.6501,0.66513 -3.125,1.50896 -3.125,5.55219 0,2.62231 0.375,5.14285 0.8333,5.60117 0.4584,0.45834 3.2601,0.83334 6.2262,0.83334 4.6672,0 5.4954,-0.40839 6.1545,-3.03479 z m -89.188,-0.16466 c 6.4493,-2.1975 10.8533,-6.17121 8.9495,-8.07504 -1.2426,-1.24256 -20.0376,2.03009 -22.1622,3.85894 -0.5839,0.50264 -0.6866,2.09551 -0.2282,3.53973 1.023,3.22327 5.33,3.44001 13.4409,0.67637 z m -18.6504,-0.9764 c 0.3537,-0.92172 0.2337,-2.33829 -0.2667,-3.14791 -0.9761,-1.57944 -16.0289,-4.67294 -17.1726,-3.52916 -1.304,1.30391 1.1398,3.62125 6.2804,5.95562 6.1049,2.77225 10.2686,3.04145 11.1589,0.72145 z m -758.4668,-24.6289 c 1.5003,-2.4274 -2.079,-4.81449 -7.7871,-5.19333 -5.4704,-0.36307 -5.7579,-0.58361 -7.8253,-6.00192 -1.1804,-3.09375 -11.6169,-30.65625 -23.1922,-61.25 -11.5753,-30.59375 -21.578,-56.3281297 -22.2282,-57.1874997 -1.5758,-2.0828503 -5.7891,-1.9933803 -6.6079,0.14034 -0.3594,0.93656 8.9969,27.2334297 20.7917,58.4374997 11.7948,31.20406 22.2455,59.38038 23.2238,62.61403 2.6169,8.65 4.2169,9.74563 14.2319,9.74563 4.7228,0 8.9498,-0.58714 9.3933,-1.30475 z m -64.5381,-134.83887 c 1.4494,-0.91776 1.1981,-2.47315 -1.481,-9.16528 -1.7746,-4.43297 -3.4672,-10.25509 -3.7614,-12.93802 -0.2941,-2.68294 -1.1406,-6.28433 -1.881,-8.00308 -0.7405,-1.71875 -1.6957,-5.79541 -2.1229,-9.05925 -0.7699,-5.88315 -4.0331,-9.57175 -6.9002,-7.79979 -2.8328,1.75078 -1.2522,15.9321 3.2602,29.24932 6.1658,18.19742 8.0453,20.78133 12.8863,17.7161 z m 298.6293,-117.85638 c 1.6011,-1.60111 1.9917,-7.01415 0.7413,-10.27276 -0.6548,-1.70626 -3.9893,-1.97724 -24.3311,-1.97724 -22.7627,0 -23.6211,0.0914 -24.9953,2.65896 -1.7391,3.2496 0.585,5.34373 4.4601,4.01877 2.8563,-0.97659 10.0233,-0.90724 26.5625,0.25706 10.0428,0.70697 11.5625,1.11251 11.5625,3.08541 0,1.96871 1.3786,3.28176 3.8125,3.63111 0.3781,0.0542 1.3625,-0.57631 2.1875,-1.40131 z"
         style="fill:#000000;fill-opacity:1" />
    </g>
  </g>
</svg>
