<?xml version="1.0" encoding="UTF-8" standalone="no"?>
<!-- Created with Inkscape (http://www.inkscape.org/) -->

<svg
   xmlns:dc="http://purl.org/dc/elements/1.1/"
   xmlns:cc="http://creativecommons.org/ns#"
   xmlns:rdf="http://www.w3.org/1999/02/22-rdf-syntax-ns#"
   xmlns:svg="http://www.w3.org/2000/svg"
   xmlns="http://www.w3.org/2000/svg"
   xmlns:sodipodi="http://sodipodi.sourceforge.net/DTD/sodipodi-0.dtd"
   xmlns:inkscape="http://www.inkscape.org/namespaces/inkscape"
   width="5.6447473mm"
   height="1.643025mm"
   viewBox="0 0 20.001073 5.8217422"
   id="svg2"
   version="1.1"
   inkscape:version="0.91 r13725"
   sodipodi:docname="X1.svg">
  <defs
     id="defs4" />
  <sodipodi:namedview
     id="base"
     pagecolor="#ffffff"
     bordercolor="#666666"
     borderopacity="1.0"
     inkscape:pageopacity="0.0"
     inkscape:pageshadow="2"
     inkscape:zoom="44.8"
     inkscape:cx="10.797152"
     inkscape:cy="1.8859035"
     inkscape:document-units="px"
     inkscape:current-layer="g4147"
     showgrid="false"
     fit-margin-top="0"
     fit-margin-left="0"
     fit-margin-right="0"
     fit-margin-bottom="0"
     inkscape:window-width="1920"
     inkscape:window-height="1017"
     inkscape:window-x="-8"
     inkscape:window-y="-8"
     inkscape:window-maximized="1" />
  <metadata
     id="metadata7">
    <rdf:RDF>
      <cc:Work
         rdf:about="">
        <dc:format>image/svg+xml</dc:format>
        <dc:type
           rdf:resource="http://purl.org/dc/dcmitype/StillImage" />
        <dc:title></dc:title>
      </cc:Work>
    </rdf:RDF>
  </metadata>
  <g
     inkscape:label="Layer 1"
     inkscape:groupmode="layer"
     id="layer1"
     transform="translate(846.42787,-840.8395)">
    <g
       id="g4147"
       transform="translate(-211.42854,97.142857)">
      <path
         style="fill:#000000;fill-opacity:1"
         d="m -623.90507,749.50404 c -0.0206,-0.008 -0.0966,-0.0412 -0.16906,-0.0743 -0.0724,-0.0331 -0.14632,-0.0603 -0.16422,-0.0603 -0.0451,0 -0.21726,-0.0414 -0.27546,-0.0663 -0.0626,-0.0267 -0.0895,-0.0534 -0.19527,-0.19338 -0.0857,-0.11349 -0.0966,-0.12316 -0.4616,-0.41237 -0.2056,-0.16289 -0.39303,-0.30883 -0.41653,-0.32432 -0.0424,-0.0279 -1.04358,-0.38134 -1.08071,-0.38147 -0.0107,0 -0.0338,-0.008 -0.0514,-0.0174 -0.0176,-0.01 -0.0657,-0.0285 -0.1068,-0.0422 -0.0411,-0.0137 -0.13003,-0.0444 -0.19758,-0.0684 -0.0676,-0.024 -0.16568,-0.0582 -0.21806,-0.0762 l -0.0952,-0.0326 -0.12041,0.0451 c -0.10836,0.0406 -0.13041,0.0452 -0.22037,0.0461 -0.0882,9.3e-4 -0.10355,-0.002 -0.13024,-0.0228 -0.0167,-0.0131 -0.0404,-0.0238 -0.0529,-0.0238 -0.0259,0 -0.98672,-0.17915 -1.16958,-0.21811 -0.17013,-0.0362 -0.17866,-0.0572 -0.0561,-0.13806 0.0436,-0.0288 0.0744,-0.0558 0.0693,-0.0609 -0.005,-0.005 -0.049,-0.0198 -0.0977,-0.0329 -0.0821,-0.022 -0.0946,-0.0227 -0.17278,-0.01 l -0.0842,0.0137 -0.33982,-0.0659 c -0.37891,-0.0734 -0.39983,-0.0782 -0.67091,-0.15203 -0.12012,-0.0327 -0.28038,-0.0662 -0.42721,-0.0894 -1.09965,-0.17317 -2.79118,-0.47435 -2.92839,-0.52141 -0.15782,-0.0541 -0.28737,-0.12905 -0.48512,-0.28052 -0.0565,-0.0432 -0.10748,-0.0786 -0.1134,-0.0786 -0.0175,0 -0.43946,-0.43525 -0.52305,-0.53953 -0.12401,-0.15471 -0.16632,-0.25856 -0.12298,-0.3019 0.0415,-0.0415 0.36778,-0.0922 0.66983,-0.10402 0.094,-0.004 0.50491,-0.0303 0.91316,-0.0591 1.94009,-0.13686 3.21283,-0.21625 3.92498,-0.24483 0.68924,-0.0277 0.82041,-0.0327 1.12677,-0.043 0.301,-0.0101 1.08562,-0.0318 1.15827,-0.032 0.0197,-9e-5 0.0277,-0.004 0.0214,-0.0101 -0.006,-0.006 -0.0989,-0.0225 -0.20744,-0.0378 -0.10852,-0.0153 -0.6385,-0.10448 -1.17774,-0.19825 -0.53924,-0.0938 -0.98273,-0.17048 -0.98554,-0.17048 -0.003,0 -0.005,-0.007 -0.005,-0.016 0,-0.009 0.004,-0.016 0.009,-0.016 0.005,0 0.38074,-0.065 0.83569,-0.14447 1.98364,-0.34646 2.95129,-0.46202 4.14783,-0.49535 0.32134,-0.009 0.33057,-0.01 0.34766,-0.0325 l 0.0176,-0.0233 0.31452,0.0112 c 0.38294,0.0137 0.70691,0.0329 0.71757,0.0425 0.004,0.004 0.0244,0.067 0.0445,0.14025 0.0683,0.24851 0.15018,0.43832 0.26625,0.61753 l 0.0509,0.0786 0.0588,-0.007 c 0.0383,-0.005 0.0638,-0.003 0.0733,0.005 0.009,0.008 0.0173,0.0496 0.0222,0.11499 l 0.008,0.10295 0.0974,0.10633 c 0.0535,0.0585 0.13976,0.1451 0.19158,0.19249 l 0.0942,0.0862 0.35436,0.0291 c 0.1949,0.016 0.38199,0.0323 0.41577,0.0362 l 0.0614,0.007 -10e-5,-0.0678 c -1.1e-4,-0.095 -0.0245,-0.12993 -0.1649,-0.23625 -0.0638,-0.0483 -0.1258,-0.10102 -0.13771,-0.11708 l -0.0217,-0.0292 0.0245,-0.1729 c 0.0281,-0.19811 0.0598,-0.36063 0.0727,-0.37362 0.0168,-0.0168 0.92282,0.18443 1.28013,0.28432 0.69329,0.1938 1.92751,0.63568 2.98807,1.06979 0.22019,0.0901 0.25091,0.10486 0.24044,0.11533 -0.003,0.003 -0.20103,0.0264 -0.44051,0.0525 -0.23948,0.0261 -0.43832,0.0503 -0.44187,0.0538 -0.004,0.004 -0.004,0.009 -10e-4,0.0114 0.003,0.003 0.0961,0.0295 0.20737,0.0595 0.19013,0.0512 0.74591,0.22321 0.8653,0.26786 0.0419,0.0157 0.0594,0.0296 0.0774,0.0617 0.0128,0.0228 0.0233,0.0486 0.0233,0.0572 0,0.0182 -0.0785,0.0938 -0.15219,0.14632 -0.0642,0.0458 -0.0657,0.0645 -0.005,0.0649 0.025,1.6e-4 0.27849,0.0117 0.56338,0.0257 0.2849,0.0139 0.5228,0.0216 0.52867,0.0171 0.0113,-0.009 0.16281,-0.007 0.17184,0.002 0.003,0.003 -0.003,0.0227 -0.0131,0.0439 -0.0101,0.0212 -0.0162,0.0407 -0.0136,0.0434 0.003,0.003 0.17423,0.008 0.38127,0.0125 l 0.37645,0.008 0.006,0.025 c 0.003,0.0138 0.003,0.0371 -4.2e-4,0.0517 -0.006,0.0251 -0.011,0.0267 -0.0762,0.0267 -0.063,0 -0.0704,0.002 -0.079,0.025 -0.009,0.0232 -0.0173,0.0255 -0.11455,0.032 -0.0578,0.004 -0.2028,0.007 -0.3223,0.007 -0.20832,8e-5 -0.21751,-8.3e-4 -0.22286,-0.0213 -0.007,-0.0276 -0.0224,-0.027 -0.0534,0.002 -0.0245,0.023 -0.0499,0.0249 -1.22891,0.0914 l -1.20394,0.068 -0.0147,-0.022 c -0.0129,-0.0193 -0.0256,-0.022 -0.10447,-0.022 -0.0579,0 -0.10394,0.006 -0.12953,0.0168 -0.0309,0.0131 -0.0592,0.0153 -0.12735,0.01 -0.0482,-0.004 -0.0932,-0.004 -0.0999,4.8e-4 -0.008,0.005 0.0161,0.0361 0.0657,0.0861 0.0429,0.0432 0.0743,0.0822 0.0698,0.0867 -0.005,0.004 -0.1137,0.007 -0.24267,0.005 -0.14208,-0.002 -0.23966,5e-4 -0.24758,0.007 -0.0293,0.0233 -0.10337,0.0284 -0.43494,0.0297 -0.19091,7.7e-4 -0.4168,0.005 -0.50197,0.009 -0.12693,0.007 -0.16635,0.005 -0.21852,-0.009 -0.0863,-0.0231 -0.0969,-0.022 -0.13561,0.015 -0.0279,0.0267 -0.0423,0.032 -0.0857,0.032 -0.0358,0 -0.054,-0.005 -0.0581,-0.0156 -0.003,-0.009 -0.0228,-0.0333 -0.0433,-0.0551 l -0.0373,-0.0396 -0.024,0.0301 -0.024,0.0301 -0.14332,-0.0224 c -0.12655,-0.0198 -0.15143,-0.0208 -0.21273,-0.009 -0.0382,0.007 -0.0856,0.0228 -0.10548,0.034 -0.095,0.0538 -0.0825,0.0519 -0.20382,0.0319 -0.0619,-0.0102 -0.14566,-0.0169 -0.1861,-0.015 l -0.0735,0.003 -0.0482,0.0829 c -0.0476,0.0819 -0.0479,0.0832 -0.028,0.10519 0.0199,0.022 0.0198,0.0226 -0.008,0.0453 -0.0155,0.0126 -0.0611,0.0499 -0.10141,0.0827 -0.0403,0.0329 -0.18378,0.13101 -0.31889,0.21809 -0.38985,0.25125 -0.45461,0.30152 -0.56237,0.43653 -0.0769,0.0963 -0.0971,0.12991 -0.12016,0.19964 -0.0335,0.10144 -0.0338,0.13699 -0.002,0.30886 0.0386,0.21116 0.10637,0.32419 0.26006,0.43385 0.0413,0.0294 0.065,0.0531 0.0592,0.0589 -0.005,0.005 -0.16315,0.0413 -0.35071,0.08 -0.28153,0.058 -0.34567,0.0746 -0.36771,0.0948 -0.0147,0.0135 -0.0776,0.0587 -0.13973,0.10039 -0.10984,0.0737 -0.11491,0.0759 -0.17925,0.0759 -0.0579,0 -0.0862,-0.009 -0.22462,-0.0686 -0.13582,-0.0588 -0.1647,-0.0677 -0.20257,-0.0627 -0.0243,0.003 -0.0442,0.01 -0.0442,0.0143 0,0.005 0.0302,0.0252 0.067,0.0458 0.0369,0.0206 0.0761,0.0475 0.0871,0.0597 0.0197,0.0217 0.0196,0.0222 -2.8e-4,0.0217 -0.0112,-2.6e-4 -0.0372,-0.007 -0.0577,-0.0145 z m -5.51903,-3.07697 c 0.002,-0.0127 -0.12136,-0.10946 -0.2483,-0.19509 -0.11218,-0.0757 -0.33752,-0.19025 -0.46506,-0.23647 -0.20457,-0.0741 -0.41788,-0.11674 -0.69909,-0.1396 -0.0734,-0.006 -0.39063,-0.0253 -0.70489,-0.0429 -1.75616,-0.0985 -1.97589,-0.10781 -2.03287,-0.0861 -0.0408,0.0155 -0.0711,0.0544 -0.0711,0.0913 0,0.0568 0.14337,0.20945 0.24565,0.26163 0.10724,0.0547 0.16907,0.0649 0.58207,0.0965 0.1586,0.0121 0.58634,0.0458 0.95054,0.0748 0.3642,0.029 0.82078,0.0626 1.01462,0.0745 0.3617,0.0222 0.83731,0.0601 1.19619,0.0953 0.22163,0.0217 0.23004,0.0219 0.23228,0.006 z"
         id="path4155"
         inkscape:connector-curvature="0" />
    </g>
  </g>
</svg>
