<?xml version="1.0" encoding="UTF-8" standalone="no"?>
<svg
   xmlns:dc="http://purl.org/dc/elements/1.1/"
   xmlns:cc="http://creativecommons.org/ns#"
   xmlns:rdf="http://www.w3.org/1999/02/22-rdf-syntax-ns#"
   xmlns:svg="http://www.w3.org/2000/svg"
   xmlns="http://www.w3.org/2000/svg"
   version="1.1"
   id="svg2"
   viewBox="0 0 5.4996652 1.60065"
   width="16.4989956">
  <defs
     id="defs4" />
  <metadata
     id="metadata7">
    <rdf:RDF>
      <cc:Work
         rdf:about="">
        <dc:format>image/svg+xml</dc:format>
        <dc:type
           rdf:resource="http://purl.org/dc/dcmitype/StillImage" />
        <dc:title></dc:title>
      </cc:Work>
    </rdf:RDF>
  </metadata>
  <g
     transform="translate(846.42779,-845.06073)"
     id="layer1">
    <g
       transform="translate(-211.42854,97.142857)"
       id="g4147">
      <path
         id="path4155"
         d="m -631.94857,749.51444 c -0.006,-0.002 -0.0266,-0.0113 -0.0465,-0.0204 -0.0199,-0.009 -0.0402,-0.0166 -0.0452,-0.0166 -0.0124,0 -0.0597,-0.0114 -0.0757,-0.0182 -0.0172,-0.007 -0.0246,-0.0147 -0.0537,-0.0532 -0.0236,-0.0312 -0.0266,-0.0339 -0.12694,-0.1134 -0.0565,-0.0448 -0.10808,-0.0849 -0.11454,-0.0892 -0.0117,-0.008 -0.28697,-0.10486 -0.29718,-0.1049 -0.003,0 -0.009,-0.002 -0.0141,-0.005 -0.005,-0.003 -0.0181,-0.008 -0.0294,-0.0116 -0.0113,-0.004 -0.0358,-0.0122 -0.0543,-0.0188 -0.0186,-0.007 -0.0456,-0.016 -0.06,-0.021 l -0.0262,-0.009 -0.0331,0.0124 c -0.0298,0.0112 -0.0359,0.0124 -0.0606,0.0127 -0.0243,2.6e-4 -0.0285,-5.5e-4 -0.0358,-0.006 -0.005,-0.004 -0.0111,-0.007 -0.0145,-0.007 -0.007,0 -0.27134,-0.0493 -0.32162,-0.06 -0.0468,-0.01 -0.0491,-0.0157 -0.0154,-0.038 0.012,-0.008 0.0205,-0.0154 0.0191,-0.0168 -10e-4,-10e-4 -0.0135,-0.005 -0.0269,-0.009 -0.0226,-0.006 -0.026,-0.006 -0.0475,-0.003 l -0.0231,0.004 -0.0935,-0.0181 c -0.10419,-0.0202 -0.10995,-0.0215 -0.18449,-0.0418 -0.033,-0.009 -0.0771,-0.0182 -0.11747,-0.0246 -0.30239,-0.0476 -0.76754,-0.13044 -0.80527,-0.14338 -0.0434,-0.0149 -0.079,-0.0355 -0.1334,-0.0771 -0.0155,-0.0119 -0.0296,-0.0216 -0.0312,-0.0216 -0.005,0 -0.12085,-0.11969 -0.14383,-0.14837 -0.0341,-0.0425 -0.0457,-0.0711 -0.0338,-0.083 0.0114,-0.0114 0.10113,-0.0254 0.18419,-0.0286 0.0258,-10e-4 0.13884,-0.008 0.25111,-0.0162 0.53349,-0.0376 0.88348,-0.0595 1.07931,-0.0673 0.18953,-0.008 0.2256,-0.009 0.30984,-0.0118 0.0828,-0.003 0.29853,-0.009 0.31851,-0.009 0.005,-2e-5 0.008,-10e-4 0.006,-0.003 -0.002,-0.002 -0.0272,-0.006 -0.0571,-0.0104 -0.0298,-0.004 -0.17558,-0.0287 -0.32386,-0.0545 -0.14828,-0.0258 -0.27023,-0.0469 -0.27101,-0.0469 -8.2e-4,0 -0.001,-0.002 -0.001,-0.004 0,-0.002 0.001,-0.004 0.002,-0.004 10e-4,0 0.1047,-0.0179 0.22981,-0.0397 0.54547,-0.0953 0.81156,-0.12705 1.14059,-0.13622 0.0884,-0.002 0.0909,-0.003 0.0956,-0.009 l 0.005,-0.006 0.0865,0.003 c 0.1053,0.004 0.19439,0.009 0.19732,0.0117 10e-4,10e-4 0.007,0.0184 0.0122,0.0386 0.0188,0.0683 0.0413,0.12053 0.0732,0.16981 l 0.014,0.0216 0.0162,-0.002 c 0.0105,-10e-4 0.0175,-8.2e-4 0.0201,10e-4 0.002,0.002 0.005,0.0136 0.006,0.0316 l 0.002,0.0283 0.0268,0.0292 c 0.0147,0.0161 0.0384,0.0399 0.0527,0.0529 l 0.0259,0.0237 0.0974,0.008 c 0.0536,0.004 0.10504,0.009 0.11433,0.01 l 0.0169,0.002 -2e-5,-0.0186 c -3e-5,-0.0261 -0.007,-0.0357 -0.0453,-0.065 -0.0175,-0.0133 -0.0346,-0.0278 -0.0379,-0.0322 l -0.006,-0.008 0.007,-0.0475 c 0.008,-0.0545 0.0165,-0.0992 0.02,-0.10274 0.005,-0.005 0.25377,0.0507 0.35202,0.0782 0.19065,0.0533 0.53004,0.1748 0.82168,0.29418 0.0606,0.0248 0.069,0.0288 0.0661,0.0317 -8.2e-4,8.2e-4 -0.0553,0.007 -0.12113,0.0144 -0.0658,0.007 -0.12053,0.0138 -0.12151,0.0148 -10e-4,10e-4 -10e-4,0.002 -2.7e-4,0.003 8.2e-4,8.2e-4 0.0264,0.008 0.057,0.0164 0.0523,0.0141 0.20512,0.0614 0.23795,0.0737 0.0115,0.004 0.0163,0.008 0.0213,0.017 0.004,0.006 0.006,0.0134 0.006,0.0157 0,0.005 -0.0216,0.0258 -0.0418,0.0402 -0.0177,0.0126 -0.0181,0.0177 -0.001,0.0178 0.007,5e-5 0.0766,0.003 0.15492,0.007 0.0784,0.004 0.14377,0.006 0.14538,0.005 0.003,-0.002 0.0448,-0.002 0.0472,5.5e-4 8.3e-4,8.3e-4 -8.2e-4,0.006 -0.004,0.0121 -0.003,0.006 -0.004,0.0112 -0.004,0.0119 8.3e-4,8.2e-4 0.0479,0.002 0.10484,0.003 l 0.10352,0.002 0.002,0.007 c 8.3e-4,0.004 8.3e-4,0.0102 -1.1e-4,0.0142 -0.002,0.007 -0.003,0.007 -0.021,0.007 -0.0173,0 -0.0194,5.5e-4 -0.0217,0.007 -0.002,0.006 -0.005,0.007 -0.0315,0.009 -0.0159,10e-4 -0.0558,0.002 -0.0886,0.002 -0.0573,2e-5 -0.0598,-2.3e-4 -0.0613,-0.006 -0.002,-0.008 -0.006,-0.007 -0.0147,5.5e-4 -0.007,0.006 -0.0137,0.007 -0.33793,0.0251 l -0.33106,0.0187 -0.004,-0.006 c -0.004,-0.005 -0.007,-0.006 -0.0287,-0.006 -0.0159,0 -0.0286,0.002 -0.0356,0.005 -0.008,0.004 -0.0163,0.004 -0.035,0.003 -0.0133,-10e-4 -0.0256,-10e-4 -0.0275,1.4e-4 -0.002,0.001 0.004,0.01 0.0181,0.0237 0.0118,0.0119 0.0204,0.0226 0.0192,0.0238 -0.001,10e-4 -0.0313,0.002 -0.0667,10e-4 -0.0391,-5.5e-4 -0.0659,1.4e-4 -0.0681,0.002 -0.008,0.006 -0.0284,0.008 -0.11961,0.008 -0.0525,2.1e-4 -0.11461,10e-4 -0.13803,0.002 -0.0349,0.002 -0.0457,10e-4 -0.0601,-0.002 -0.0237,-0.006 -0.0267,-0.006 -0.0373,0.004 -0.008,0.007 -0.0116,0.009 -0.0236,0.009 -0.01,0 -0.0148,-10e-4 -0.016,-0.004 -8.3e-4,-0.002 -0.006,-0.009 -0.0119,-0.0152 l -0.0103,-0.0109 -0.007,0.008 -0.007,0.008 -0.0394,-0.006 c -0.0348,-0.005 -0.0416,-0.006 -0.0585,-0.002 -0.0105,0.002 -0.0235,0.006 -0.029,0.009 -0.0261,0.0148 -0.0227,0.0143 -0.0561,0.009 -0.017,-0.003 -0.04,-0.005 -0.0512,-0.004 l -0.0202,8.2e-4 -0.0133,0.0228 c -0.0131,0.0225 -0.0132,0.0229 -0.008,0.0289 0.005,0.006 0.005,0.006 -0.002,0.0125 -0.004,0.003 -0.0168,0.0137 -0.0279,0.0227 -0.0111,0.009 -0.0505,0.036 -0.0877,0.06 -0.10721,0.0691 -0.12502,0.0829 -0.15465,0.12004 -0.0211,0.0265 -0.0267,0.0357 -0.033,0.0549 -0.009,0.0279 -0.009,0.0377 -5.5e-4,0.0849 0.0106,0.0581 0.0292,0.0891 0.0715,0.1193 0.0114,0.008 0.0179,0.0146 0.0163,0.0162 -10e-4,10e-4 -0.0449,0.0114 -0.0964,0.022 -0.0774,0.0159 -0.095,0.0205 -0.10111,0.0261 -0.004,0.004 -0.0213,0.0161 -0.0384,0.0276 -0.0302,0.0203 -0.0316,0.0209 -0.0493,0.0209 -0.0159,0 -0.0237,-0.002 -0.0618,-0.0189 -0.0373,-0.0162 -0.0453,-0.0186 -0.0557,-0.0172 -0.007,8.3e-4 -0.0122,0.003 -0.0122,0.004 0,10e-4 0.008,0.007 0.0184,0.0126 0.0102,0.006 0.0209,0.0131 0.024,0.0164 0.005,0.006 0.005,0.006 -7e-5,0.006 -0.003,-7e-5 -0.0102,-0.002 -0.0159,-0.004 z m -1.51766,-0.84612 c 5.5e-4,-0.004 -0.0334,-0.0301 -0.0683,-0.0536 -0.0308,-0.0208 -0.0928,-0.0523 -0.12789,-0.065 -0.0563,-0.0204 -0.11491,-0.0321 -0.19224,-0.0384 -0.0202,-0.002 -0.10742,-0.007 -0.19383,-0.0118 -0.48292,-0.0271 -0.54334,-0.0296 -0.55901,-0.0237 -0.0112,0.004 -0.0195,0.015 -0.0195,0.0251 0,0.0156 0.0394,0.0576 0.0675,0.0719 0.0295,0.0151 0.0465,0.0179 0.16006,0.0265 0.0436,0.003 0.16123,0.0126 0.26138,0.0206 0.10015,0.008 0.2257,0.0172 0.27901,0.0205 0.0995,0.006 0.23024,0.0165 0.32893,0.0262 0.0609,0.006 0.0633,0.006 0.0639,0.002 z"
         style="fill:#000000;fill-opacity:1" />
    </g>
  </g>
</svg>
